G04 #@! TF.GenerationSoftware,KiCad,Pcbnew,(5.1.12)-1*
G04 #@! TF.CreationDate,2021-12-10T00:27:27+13:00*
G04 #@! TF.ProjectId,comprgb,636f6d70-7267-4622-9e6b-696361645f70,rev?*
G04 #@! TF.SameCoordinates,Original*
G04 #@! TF.FileFunction,Copper,L2,Bot*
G04 #@! TF.FilePolarity,Positive*
%FSLAX46Y46*%
G04 Gerber Fmt 4.6, Leading zero omitted, Abs format (unit mm)*
G04 Created by KiCad (PCBNEW (5.1.12)-1) date 2021-12-10 00:27:27*
%MOMM*%
%LPD*%
G01*
G04 APERTURE LIST*
G04 #@! TA.AperFunction,ComponentPad*
%ADD10C,4.500000*%
G04 #@! TD*
G04 #@! TA.AperFunction,ComponentPad*
%ADD11C,1.600000*%
G04 #@! TD*
G04 #@! TA.AperFunction,ComponentPad*
%ADD12C,2.000000*%
G04 #@! TD*
G04 #@! TA.AperFunction,ComponentPad*
%ADD13C,2.300000*%
G04 #@! TD*
G04 #@! TA.AperFunction,ComponentPad*
%ADD14O,4.000000X3.000000*%
G04 #@! TD*
G04 #@! TA.AperFunction,ComponentPad*
%ADD15O,3.000000X4.000000*%
G04 #@! TD*
G04 #@! TA.AperFunction,ComponentPad*
%ADD16O,2.500000X2.500000*%
G04 #@! TD*
G04 #@! TA.AperFunction,ComponentPad*
%ADD17O,1.700000X1.700000*%
G04 #@! TD*
G04 #@! TA.AperFunction,ComponentPad*
%ADD18R,1.700000X1.700000*%
G04 #@! TD*
G04 #@! TA.AperFunction,WasherPad*
%ADD19C,2.200000*%
G04 #@! TD*
G04 #@! TA.AperFunction,ComponentPad*
%ADD20O,3.000000X3.000000*%
G04 #@! TD*
G04 #@! TA.AperFunction,ComponentPad*
%ADD21C,2.200000*%
G04 #@! TD*
G04 #@! TA.AperFunction,ComponentPad*
%ADD22C,4.000000*%
G04 #@! TD*
G04 #@! TA.AperFunction,ComponentPad*
%ADD23O,1.700000X1.100000*%
G04 #@! TD*
G04 #@! TA.AperFunction,ViaPad*
%ADD24C,0.800000*%
G04 #@! TD*
G04 #@! TA.AperFunction,Conductor*
%ADD25C,0.250000*%
G04 #@! TD*
G04 #@! TA.AperFunction,Conductor*
%ADD26C,0.254000*%
G04 #@! TD*
G04 #@! TA.AperFunction,Conductor*
%ADD27C,0.100000*%
G04 #@! TD*
G04 APERTURE END LIST*
D10*
X24600000Y-61620000D03*
X24600000Y-86620000D03*
D11*
X22060000Y-69280000D03*
X22060000Y-71570000D03*
X22060000Y-73860000D03*
X22060000Y-76150000D03*
X22060000Y-78440000D03*
X24600000Y-77290000D03*
X24600000Y-79580000D03*
X27140000Y-69280000D03*
X27140000Y-71570000D03*
X27140000Y-73860000D03*
X27140000Y-76150000D03*
X27140000Y-78440000D03*
X24600000Y-70420000D03*
X24600000Y-72710000D03*
X24600000Y-75000000D03*
D12*
X61800000Y-54500000D03*
X61800000Y-69500000D03*
D13*
X69144520Y-72533380D03*
X69144520Y-51466620D03*
D14*
X61500000Y-47000000D03*
X61500000Y-77000000D03*
D15*
X66000000Y-77000000D03*
X66000000Y-62000000D03*
X66000000Y-47000000D03*
D16*
X66000000Y-42200000D03*
X66000000Y-81800000D03*
D14*
X61500000Y-62000000D03*
D17*
X46200000Y-58880000D03*
X46200000Y-56340000D03*
D18*
X46200000Y-53800000D03*
D19*
X69150000Y-86350000D03*
X69150000Y-94850000D03*
D20*
X66000000Y-90600000D03*
X61500000Y-90600000D03*
D19*
X69150000Y-99370000D03*
X69150000Y-107870000D03*
D20*
X66000000Y-103620000D03*
X61500000Y-103620000D03*
D21*
X34480000Y-99905000D03*
X34480000Y-61805000D03*
X29400000Y-67520000D03*
X34480000Y-65615000D03*
X29400000Y-71330000D03*
X34480000Y-69425000D03*
X29400000Y-75140000D03*
X34480000Y-73235000D03*
X29400000Y-63710000D03*
X34480000Y-77045000D03*
X29400000Y-78950000D03*
X34480000Y-80855000D03*
X29400000Y-82760000D03*
X34480000Y-84665000D03*
X29400000Y-86570000D03*
X34480000Y-88475000D03*
X29400000Y-90380000D03*
X34480000Y-92285000D03*
X29400000Y-94190000D03*
X34480000Y-96095000D03*
X29400000Y-98000000D03*
D22*
X27200000Y-55000000D03*
X27200000Y-107270000D03*
D23*
X24800000Y-43280000D03*
X24800000Y-51920000D03*
X21000000Y-51920000D03*
X21000000Y-43280000D03*
D24*
X49200000Y-62700000D03*
X46300000Y-62700000D03*
X32600000Y-61400000D03*
X29400000Y-58600000D03*
X33900000Y-45800000D03*
X36000000Y-47600000D03*
X45300000Y-43700000D03*
X41300000Y-49800000D03*
X49400000Y-44800000D03*
X47600000Y-50800000D03*
X42300000Y-53600000D03*
X41100000Y-55300000D03*
X41400000Y-57900000D03*
X46000000Y-78000000D03*
X44100000Y-78100000D03*
X47400000Y-80100000D03*
X41900000Y-79100000D03*
X39900000Y-89000000D03*
X46900000Y-87800000D03*
X49500000Y-84000000D03*
X55000000Y-90600000D03*
X46900000Y-96600000D03*
X38100000Y-101600000D03*
X49300000Y-101400000D03*
X56800000Y-101000000D03*
X57100000Y-108100000D03*
X35700000Y-108100000D03*
X22500000Y-107800000D03*
X22400000Y-92000000D03*
X28700000Y-42200000D03*
X56400000Y-69600000D03*
X54400000Y-77800000D03*
X56500000Y-79500000D03*
X52400000Y-82400000D03*
X54300000Y-84000000D03*
X38100000Y-67100000D03*
X42400000Y-67000000D03*
X41300000Y-75300000D03*
X37700000Y-71300000D03*
X50000000Y-73300000D03*
X42550000Y-72250000D03*
X48300000Y-75400000D03*
X45100000Y-69000000D03*
X31900000Y-87500000D03*
X37200000Y-78800000D03*
X37400000Y-84200000D03*
X32200000Y-82800000D03*
X31800000Y-73800000D03*
X36200000Y-75200000D03*
X36800000Y-69200000D03*
X31800000Y-68800000D03*
X24000000Y-81800000D03*
X27600000Y-81200000D03*
X39600000Y-98400000D03*
X30000000Y-101000000D03*
X32200000Y-104200000D03*
X31400000Y-96400000D03*
X58600000Y-93600000D03*
X58800000Y-88200000D03*
X54200000Y-70200000D03*
X44800000Y-64000000D03*
X49600000Y-52000000D03*
X59400000Y-71600000D03*
X57200000Y-71600000D03*
X54400000Y-73900000D03*
X54100000Y-65000000D03*
X53800000Y-63000000D03*
X53900000Y-60400000D03*
X56700000Y-64300000D03*
X56500000Y-60900000D03*
X59500000Y-63600000D03*
X57300000Y-66300000D03*
X55600000Y-67800000D03*
X46200000Y-67100000D03*
X55800000Y-58600000D03*
X59900000Y-58300000D03*
X53000000Y-52200000D03*
X53100000Y-49700000D03*
X55200000Y-46800000D03*
X56000000Y-49500000D03*
X56200000Y-54800000D03*
X52000000Y-55600000D03*
X54700000Y-58000000D03*
X49800000Y-58100000D03*
X52100000Y-71400000D03*
X52500000Y-75400000D03*
X39200000Y-62300000D03*
X34600000Y-58300000D03*
X37200000Y-57400000D03*
X45400000Y-61200000D03*
X41500000Y-61400000D03*
X42700000Y-64700000D03*
X39810000Y-56450000D03*
X32112314Y-57626250D03*
X43200000Y-56000000D03*
X36000000Y-52800000D03*
D25*
X27140000Y-78440000D02*
X28480000Y-77100000D01*
X28480000Y-77100000D02*
X30700000Y-77100000D01*
X30700000Y-77015000D02*
X34480000Y-73235000D01*
X30700000Y-77100000D02*
X30700000Y-77015000D01*
X49200000Y-62700000D02*
X46300000Y-62700000D01*
X32512313Y-57226251D02*
X32112314Y-57626250D01*
X33288564Y-56450000D02*
X32512313Y-57226251D01*
X39810000Y-56450000D02*
X33288564Y-56450000D01*
X43200000Y-56000000D02*
X40000000Y-52800000D01*
X40000000Y-52800000D02*
X36000000Y-52800000D01*
D26*
X64736227Y-41162848D02*
X64558172Y-41429327D01*
X64435525Y-41725422D01*
X64373000Y-42039755D01*
X64373000Y-42360245D01*
X64435525Y-42674578D01*
X64558172Y-42970673D01*
X64736227Y-43237152D01*
X64962848Y-43463773D01*
X65229327Y-43641828D01*
X65525422Y-43764475D01*
X65839755Y-43827000D01*
X66160245Y-43827000D01*
X66474578Y-43764475D01*
X66770673Y-43641828D01*
X67037152Y-43463773D01*
X67263773Y-43237152D01*
X67441828Y-42970673D01*
X67564475Y-42674578D01*
X67627000Y-42360245D01*
X67627000Y-42039755D01*
X67564475Y-41725422D01*
X67441828Y-41429327D01*
X67263773Y-41162848D01*
X67227925Y-41127000D01*
X68447394Y-41127000D01*
X68873000Y-41552606D01*
X68873000Y-49963713D01*
X68699110Y-49998301D01*
X68421214Y-50113410D01*
X68171114Y-50280521D01*
X67958421Y-50493214D01*
X67791310Y-50743314D01*
X67676201Y-51021210D01*
X67617520Y-51316224D01*
X67617520Y-51617016D01*
X67676201Y-51912030D01*
X67791310Y-52189926D01*
X67958421Y-52440026D01*
X68171114Y-52652719D01*
X68421214Y-52819830D01*
X68699110Y-52934939D01*
X68873000Y-52969527D01*
X68873000Y-71030473D01*
X68699110Y-71065061D01*
X68421214Y-71180170D01*
X68171114Y-71347281D01*
X67958421Y-71559974D01*
X67791310Y-71810074D01*
X67676201Y-72087970D01*
X67617520Y-72382984D01*
X67617520Y-72683776D01*
X67676201Y-72978790D01*
X67791310Y-73256686D01*
X67958421Y-73506786D01*
X68171114Y-73719479D01*
X68421214Y-73886590D01*
X68699110Y-74001699D01*
X68873000Y-74036287D01*
X68873000Y-84899162D01*
X68719175Y-84929760D01*
X68450378Y-85041099D01*
X68208467Y-85202739D01*
X68002739Y-85408467D01*
X67841099Y-85650378D01*
X67729760Y-85919175D01*
X67673000Y-86204528D01*
X67673000Y-86495472D01*
X67729760Y-86780825D01*
X67841099Y-87049622D01*
X68002739Y-87291533D01*
X68208467Y-87497261D01*
X68450378Y-87658901D01*
X68719175Y-87770240D01*
X68873000Y-87800838D01*
X68873000Y-93399162D01*
X68719175Y-93429760D01*
X68450378Y-93541099D01*
X68208467Y-93702739D01*
X68002739Y-93908467D01*
X67841099Y-94150378D01*
X67729760Y-94419175D01*
X67673000Y-94704528D01*
X67673000Y-94995472D01*
X67729760Y-95280825D01*
X67841099Y-95549622D01*
X68002739Y-95791533D01*
X68208467Y-95997261D01*
X68450378Y-96158901D01*
X68719175Y-96270240D01*
X68873000Y-96300838D01*
X68873000Y-97919162D01*
X68719175Y-97949760D01*
X68450378Y-98061099D01*
X68208467Y-98222739D01*
X68002739Y-98428467D01*
X67841099Y-98670378D01*
X67729760Y-98939175D01*
X67673000Y-99224528D01*
X67673000Y-99515472D01*
X67729760Y-99800825D01*
X67841099Y-100069622D01*
X68002739Y-100311533D01*
X68208467Y-100517261D01*
X68450378Y-100678901D01*
X68719175Y-100790240D01*
X68873000Y-100820838D01*
X68873000Y-106419162D01*
X68719175Y-106449760D01*
X68450378Y-106561099D01*
X68208467Y-106722739D01*
X68002739Y-106928467D01*
X67841099Y-107170378D01*
X67729760Y-107439175D01*
X67673000Y-107724528D01*
X67673000Y-108015472D01*
X67729760Y-108300825D01*
X67841099Y-108569622D01*
X68002739Y-108811533D01*
X68064206Y-108873000D01*
X28958585Y-108873000D01*
X29046336Y-108785249D01*
X29306470Y-108395932D01*
X29485653Y-107963345D01*
X29577000Y-107504114D01*
X29577000Y-107035886D01*
X29485653Y-106576655D01*
X29306470Y-106144068D01*
X29046336Y-105754751D01*
X28715249Y-105423664D01*
X28325932Y-105163530D01*
X27893345Y-104984347D01*
X27434114Y-104893000D01*
X26965886Y-104893000D01*
X26506655Y-104984347D01*
X26074068Y-105163530D01*
X25684751Y-105423664D01*
X25353664Y-105754751D01*
X25093530Y-106144068D01*
X24914347Y-106576655D01*
X24823000Y-107035886D01*
X24823000Y-107504114D01*
X24914347Y-107963345D01*
X25093530Y-108395932D01*
X25353664Y-108785249D01*
X25441415Y-108873000D01*
X21552606Y-108873000D01*
X21127000Y-108447394D01*
X21127000Y-103435132D01*
X59623000Y-103435132D01*
X59623000Y-103804868D01*
X59695132Y-104167501D01*
X59836624Y-104509093D01*
X60042039Y-104816518D01*
X60303482Y-105077961D01*
X60610907Y-105283376D01*
X60952499Y-105424868D01*
X61315132Y-105497000D01*
X61684868Y-105497000D01*
X62047501Y-105424868D01*
X62389093Y-105283376D01*
X62696518Y-105077961D01*
X62957961Y-104816518D01*
X63163376Y-104509093D01*
X63304868Y-104167501D01*
X63322505Y-104078833D01*
X63914883Y-104078833D01*
X64044462Y-104476803D01*
X64249191Y-104841846D01*
X64521203Y-105159934D01*
X64850044Y-105418844D01*
X65223077Y-105608625D01*
X65541167Y-105705113D01*
X65873000Y-105592165D01*
X65873000Y-103747000D01*
X66127000Y-103747000D01*
X66127000Y-105592165D01*
X66458833Y-105705113D01*
X66776923Y-105608625D01*
X67149956Y-105418844D01*
X67478797Y-105159934D01*
X67750809Y-104841846D01*
X67955538Y-104476803D01*
X68085117Y-104078833D01*
X67972473Y-103747000D01*
X66127000Y-103747000D01*
X65873000Y-103747000D01*
X64027527Y-103747000D01*
X63914883Y-104078833D01*
X63322505Y-104078833D01*
X63377000Y-103804868D01*
X63377000Y-103435132D01*
X63322506Y-103161167D01*
X63914883Y-103161167D01*
X64027527Y-103493000D01*
X65873000Y-103493000D01*
X65873000Y-101647835D01*
X66127000Y-101647835D01*
X66127000Y-103493000D01*
X67972473Y-103493000D01*
X68085117Y-103161167D01*
X67955538Y-102763197D01*
X67750809Y-102398154D01*
X67478797Y-102080066D01*
X67149956Y-101821156D01*
X66776923Y-101631375D01*
X66458833Y-101534887D01*
X66127000Y-101647835D01*
X65873000Y-101647835D01*
X65541167Y-101534887D01*
X65223077Y-101631375D01*
X64850044Y-101821156D01*
X64521203Y-102080066D01*
X64249191Y-102398154D01*
X64044462Y-102763197D01*
X63914883Y-103161167D01*
X63322506Y-103161167D01*
X63304868Y-103072499D01*
X63163376Y-102730907D01*
X62957961Y-102423482D01*
X62696518Y-102162039D01*
X62389093Y-101956624D01*
X62047501Y-101815132D01*
X61684868Y-101743000D01*
X61315132Y-101743000D01*
X60952499Y-101815132D01*
X60610907Y-101956624D01*
X60303482Y-102162039D01*
X60042039Y-102423482D01*
X59836624Y-102730907D01*
X59695132Y-103072499D01*
X59623000Y-103435132D01*
X21127000Y-103435132D01*
X21127000Y-99759528D01*
X33003000Y-99759528D01*
X33003000Y-100050472D01*
X33059760Y-100335825D01*
X33171099Y-100604622D01*
X33332739Y-100846533D01*
X33538467Y-101052261D01*
X33780378Y-101213901D01*
X34049175Y-101325240D01*
X34334528Y-101382000D01*
X34625472Y-101382000D01*
X34910825Y-101325240D01*
X35179622Y-101213901D01*
X35421533Y-101052261D01*
X35627261Y-100846533D01*
X35788901Y-100604622D01*
X35900240Y-100335825D01*
X35957000Y-100050472D01*
X35957000Y-99759528D01*
X35900240Y-99474175D01*
X35788901Y-99205378D01*
X35627261Y-98963467D01*
X35421533Y-98757739D01*
X35179622Y-98596099D01*
X34910825Y-98484760D01*
X34625472Y-98428000D01*
X34334528Y-98428000D01*
X34049175Y-98484760D01*
X33780378Y-98596099D01*
X33538467Y-98757739D01*
X33332739Y-98963467D01*
X33171099Y-99205378D01*
X33059760Y-99474175D01*
X33003000Y-99759528D01*
X21127000Y-99759528D01*
X21127000Y-97854528D01*
X27923000Y-97854528D01*
X27923000Y-98145472D01*
X27979760Y-98430825D01*
X28091099Y-98699622D01*
X28252739Y-98941533D01*
X28458467Y-99147261D01*
X28700378Y-99308901D01*
X28969175Y-99420240D01*
X29254528Y-99477000D01*
X29545472Y-99477000D01*
X29830825Y-99420240D01*
X30099622Y-99308901D01*
X30341533Y-99147261D01*
X30547261Y-98941533D01*
X30708901Y-98699622D01*
X30820240Y-98430825D01*
X30877000Y-98145472D01*
X30877000Y-97854528D01*
X30820240Y-97569175D01*
X30708901Y-97300378D01*
X30547261Y-97058467D01*
X30341533Y-96852739D01*
X30099622Y-96691099D01*
X29830825Y-96579760D01*
X29545472Y-96523000D01*
X29254528Y-96523000D01*
X28969175Y-96579760D01*
X28700378Y-96691099D01*
X28458467Y-96852739D01*
X28252739Y-97058467D01*
X28091099Y-97300378D01*
X27979760Y-97569175D01*
X27923000Y-97854528D01*
X21127000Y-97854528D01*
X21127000Y-95949528D01*
X33003000Y-95949528D01*
X33003000Y-96240472D01*
X33059760Y-96525825D01*
X33171099Y-96794622D01*
X33332739Y-97036533D01*
X33538467Y-97242261D01*
X33780378Y-97403901D01*
X34049175Y-97515240D01*
X34334528Y-97572000D01*
X34625472Y-97572000D01*
X34910825Y-97515240D01*
X35179622Y-97403901D01*
X35421533Y-97242261D01*
X35627261Y-97036533D01*
X35788901Y-96794622D01*
X35900240Y-96525825D01*
X35957000Y-96240472D01*
X35957000Y-95949528D01*
X35900240Y-95664175D01*
X35788901Y-95395378D01*
X35627261Y-95153467D01*
X35421533Y-94947739D01*
X35179622Y-94786099D01*
X34910825Y-94674760D01*
X34625472Y-94618000D01*
X34334528Y-94618000D01*
X34049175Y-94674760D01*
X33780378Y-94786099D01*
X33538467Y-94947739D01*
X33332739Y-95153467D01*
X33171099Y-95395378D01*
X33059760Y-95664175D01*
X33003000Y-95949528D01*
X21127000Y-95949528D01*
X21127000Y-95396712D01*
X28372893Y-95396712D01*
X28480726Y-95671338D01*
X28787384Y-95822216D01*
X29117585Y-95910369D01*
X29458639Y-95932409D01*
X29797439Y-95887489D01*
X30120966Y-95777336D01*
X30319274Y-95671338D01*
X30427107Y-95396712D01*
X29400000Y-94369605D01*
X28372893Y-95396712D01*
X21127000Y-95396712D01*
X21127000Y-94248639D01*
X27657591Y-94248639D01*
X27702511Y-94587439D01*
X27812664Y-94910966D01*
X27918662Y-95109274D01*
X28193288Y-95217107D01*
X29220395Y-94190000D01*
X29579605Y-94190000D01*
X30606712Y-95217107D01*
X30881338Y-95109274D01*
X31032216Y-94802616D01*
X31120369Y-94472415D01*
X31142409Y-94131361D01*
X31097489Y-93792561D01*
X30995058Y-93491712D01*
X33452893Y-93491712D01*
X33560726Y-93766338D01*
X33867384Y-93917216D01*
X34197585Y-94005369D01*
X34538639Y-94027409D01*
X34877439Y-93982489D01*
X35200966Y-93872336D01*
X35399274Y-93766338D01*
X35507107Y-93491712D01*
X34480000Y-92464605D01*
X33452893Y-93491712D01*
X30995058Y-93491712D01*
X30987336Y-93469034D01*
X30881338Y-93270726D01*
X30606712Y-93162893D01*
X29579605Y-94190000D01*
X29220395Y-94190000D01*
X28193288Y-93162893D01*
X27918662Y-93270726D01*
X27767784Y-93577384D01*
X27679631Y-93907585D01*
X27657591Y-94248639D01*
X21127000Y-94248639D01*
X21127000Y-92983288D01*
X28372893Y-92983288D01*
X29400000Y-94010395D01*
X30427107Y-92983288D01*
X30319274Y-92708662D01*
X30012616Y-92557784D01*
X29682415Y-92469631D01*
X29341361Y-92447591D01*
X29002561Y-92492511D01*
X28679034Y-92602664D01*
X28480726Y-92708662D01*
X28372893Y-92983288D01*
X21127000Y-92983288D01*
X21127000Y-92343639D01*
X32737591Y-92343639D01*
X32782511Y-92682439D01*
X32892664Y-93005966D01*
X32998662Y-93204274D01*
X33273288Y-93312107D01*
X34300395Y-92285000D01*
X34659605Y-92285000D01*
X35686712Y-93312107D01*
X35961338Y-93204274D01*
X36112216Y-92897616D01*
X36200369Y-92567415D01*
X36222409Y-92226361D01*
X36177489Y-91887561D01*
X36067336Y-91564034D01*
X35961338Y-91365726D01*
X35686712Y-91257893D01*
X34659605Y-92285000D01*
X34300395Y-92285000D01*
X33273288Y-91257893D01*
X32998662Y-91365726D01*
X32847784Y-91672384D01*
X32759631Y-92002585D01*
X32737591Y-92343639D01*
X21127000Y-92343639D01*
X21127000Y-90234528D01*
X27923000Y-90234528D01*
X27923000Y-90525472D01*
X27979760Y-90810825D01*
X28091099Y-91079622D01*
X28252739Y-91321533D01*
X28458467Y-91527261D01*
X28700378Y-91688901D01*
X28969175Y-91800240D01*
X29254528Y-91857000D01*
X29545472Y-91857000D01*
X29830825Y-91800240D01*
X30099622Y-91688901D01*
X30341533Y-91527261D01*
X30547261Y-91321533D01*
X30708901Y-91079622D01*
X30709453Y-91078288D01*
X33452893Y-91078288D01*
X34480000Y-92105395D01*
X35507107Y-91078288D01*
X35399274Y-90803662D01*
X35092616Y-90652784D01*
X34762415Y-90564631D01*
X34421361Y-90542591D01*
X34082561Y-90587511D01*
X33759034Y-90697664D01*
X33560726Y-90803662D01*
X33452893Y-91078288D01*
X30709453Y-91078288D01*
X30820240Y-90810825D01*
X30877000Y-90525472D01*
X30877000Y-90415132D01*
X59623000Y-90415132D01*
X59623000Y-90784868D01*
X59695132Y-91147501D01*
X59836624Y-91489093D01*
X60042039Y-91796518D01*
X60303482Y-92057961D01*
X60610907Y-92263376D01*
X60952499Y-92404868D01*
X61315132Y-92477000D01*
X61684868Y-92477000D01*
X62047501Y-92404868D01*
X62389093Y-92263376D01*
X62696518Y-92057961D01*
X62957961Y-91796518D01*
X63163376Y-91489093D01*
X63304868Y-91147501D01*
X63322505Y-91058833D01*
X63914883Y-91058833D01*
X64044462Y-91456803D01*
X64249191Y-91821846D01*
X64521203Y-92139934D01*
X64850044Y-92398844D01*
X65223077Y-92588625D01*
X65541167Y-92685113D01*
X65873000Y-92572165D01*
X65873000Y-90727000D01*
X66127000Y-90727000D01*
X66127000Y-92572165D01*
X66458833Y-92685113D01*
X66776923Y-92588625D01*
X67149956Y-92398844D01*
X67478797Y-92139934D01*
X67750809Y-91821846D01*
X67955538Y-91456803D01*
X68085117Y-91058833D01*
X67972473Y-90727000D01*
X66127000Y-90727000D01*
X65873000Y-90727000D01*
X64027527Y-90727000D01*
X63914883Y-91058833D01*
X63322505Y-91058833D01*
X63377000Y-90784868D01*
X63377000Y-90415132D01*
X63322506Y-90141167D01*
X63914883Y-90141167D01*
X64027527Y-90473000D01*
X65873000Y-90473000D01*
X65873000Y-88627835D01*
X66127000Y-88627835D01*
X66127000Y-90473000D01*
X67972473Y-90473000D01*
X68085117Y-90141167D01*
X67955538Y-89743197D01*
X67750809Y-89378154D01*
X67478797Y-89060066D01*
X67149956Y-88801156D01*
X66776923Y-88611375D01*
X66458833Y-88514887D01*
X66127000Y-88627835D01*
X65873000Y-88627835D01*
X65541167Y-88514887D01*
X65223077Y-88611375D01*
X64850044Y-88801156D01*
X64521203Y-89060066D01*
X64249191Y-89378154D01*
X64044462Y-89743197D01*
X63914883Y-90141167D01*
X63322506Y-90141167D01*
X63304868Y-90052499D01*
X63163376Y-89710907D01*
X62957961Y-89403482D01*
X62696518Y-89142039D01*
X62389093Y-88936624D01*
X62047501Y-88795132D01*
X61684868Y-88723000D01*
X61315132Y-88723000D01*
X60952499Y-88795132D01*
X60610907Y-88936624D01*
X60303482Y-89142039D01*
X60042039Y-89403482D01*
X59836624Y-89710907D01*
X59695132Y-90052499D01*
X59623000Y-90415132D01*
X30877000Y-90415132D01*
X30877000Y-90234528D01*
X30820240Y-89949175D01*
X30708901Y-89680378D01*
X30547261Y-89438467D01*
X30341533Y-89232739D01*
X30099622Y-89071099D01*
X29830825Y-88959760D01*
X29545472Y-88903000D01*
X29254528Y-88903000D01*
X28969175Y-88959760D01*
X28700378Y-89071099D01*
X28458467Y-89232739D01*
X28252739Y-89438467D01*
X28091099Y-89680378D01*
X27979760Y-89949175D01*
X27923000Y-90234528D01*
X21127000Y-90234528D01*
X21127000Y-88645340D01*
X22754265Y-88645340D01*
X23000416Y-89037704D01*
X23502822Y-89303312D01*
X24047393Y-89465801D01*
X24613199Y-89518928D01*
X25178498Y-89460652D01*
X25721566Y-89293210D01*
X26199584Y-89037704D01*
X26445735Y-88645340D01*
X24600000Y-86799605D01*
X22754265Y-88645340D01*
X21127000Y-88645340D01*
X21127000Y-86633199D01*
X21701072Y-86633199D01*
X21759348Y-87198498D01*
X21926790Y-87741566D01*
X22182296Y-88219584D01*
X22574660Y-88465735D01*
X24420395Y-86620000D01*
X24779605Y-86620000D01*
X26625340Y-88465735D01*
X26842453Y-88329528D01*
X33003000Y-88329528D01*
X33003000Y-88620472D01*
X33059760Y-88905825D01*
X33171099Y-89174622D01*
X33332739Y-89416533D01*
X33538467Y-89622261D01*
X33780378Y-89783901D01*
X34049175Y-89895240D01*
X34334528Y-89952000D01*
X34625472Y-89952000D01*
X34910825Y-89895240D01*
X35179622Y-89783901D01*
X35421533Y-89622261D01*
X35627261Y-89416533D01*
X35788901Y-89174622D01*
X35900240Y-88905825D01*
X35957000Y-88620472D01*
X35957000Y-88329528D01*
X35900240Y-88044175D01*
X35788901Y-87775378D01*
X35627261Y-87533467D01*
X35421533Y-87327739D01*
X35179622Y-87166099D01*
X34910825Y-87054760D01*
X34625472Y-86998000D01*
X34334528Y-86998000D01*
X34049175Y-87054760D01*
X33780378Y-87166099D01*
X33538467Y-87327739D01*
X33332739Y-87533467D01*
X33171099Y-87775378D01*
X33059760Y-88044175D01*
X33003000Y-88329528D01*
X26842453Y-88329528D01*
X27017704Y-88219584D01*
X27283312Y-87717178D01*
X27445801Y-87172607D01*
X27498928Y-86606801D01*
X27480138Y-86424528D01*
X27923000Y-86424528D01*
X27923000Y-86715472D01*
X27979760Y-87000825D01*
X28091099Y-87269622D01*
X28252739Y-87511533D01*
X28458467Y-87717261D01*
X28700378Y-87878901D01*
X28969175Y-87990240D01*
X29254528Y-88047000D01*
X29545472Y-88047000D01*
X29830825Y-87990240D01*
X30099622Y-87878901D01*
X30341533Y-87717261D01*
X30547261Y-87511533D01*
X30708901Y-87269622D01*
X30820240Y-87000825D01*
X30877000Y-86715472D01*
X30877000Y-86424528D01*
X30820240Y-86139175D01*
X30709454Y-85871712D01*
X33452893Y-85871712D01*
X33560726Y-86146338D01*
X33867384Y-86297216D01*
X34197585Y-86385369D01*
X34538639Y-86407409D01*
X34877439Y-86362489D01*
X35200966Y-86252336D01*
X35399274Y-86146338D01*
X35507107Y-85871712D01*
X34480000Y-84844605D01*
X33452893Y-85871712D01*
X30709454Y-85871712D01*
X30708901Y-85870378D01*
X30547261Y-85628467D01*
X30341533Y-85422739D01*
X30099622Y-85261099D01*
X29830825Y-85149760D01*
X29545472Y-85093000D01*
X29254528Y-85093000D01*
X28969175Y-85149760D01*
X28700378Y-85261099D01*
X28458467Y-85422739D01*
X28252739Y-85628467D01*
X28091099Y-85870378D01*
X27979760Y-86139175D01*
X27923000Y-86424528D01*
X27480138Y-86424528D01*
X27440652Y-86041502D01*
X27273210Y-85498434D01*
X27017704Y-85020416D01*
X26625340Y-84774265D01*
X24779605Y-86620000D01*
X24420395Y-86620000D01*
X22574660Y-84774265D01*
X22182296Y-85020416D01*
X21916688Y-85522822D01*
X21754199Y-86067393D01*
X21701072Y-86633199D01*
X21127000Y-86633199D01*
X21127000Y-84594660D01*
X22754265Y-84594660D01*
X24600000Y-86440395D01*
X26316756Y-84723639D01*
X32737591Y-84723639D01*
X32782511Y-85062439D01*
X32892664Y-85385966D01*
X32998662Y-85584274D01*
X33273288Y-85692107D01*
X34300395Y-84665000D01*
X34659605Y-84665000D01*
X35686712Y-85692107D01*
X35961338Y-85584274D01*
X36112216Y-85277616D01*
X36200369Y-84947415D01*
X36222409Y-84606361D01*
X36177489Y-84267561D01*
X36067336Y-83944034D01*
X35961338Y-83745726D01*
X35686712Y-83637893D01*
X34659605Y-84665000D01*
X34300395Y-84665000D01*
X33273288Y-83637893D01*
X32998662Y-83745726D01*
X32847784Y-84052384D01*
X32759631Y-84382585D01*
X32737591Y-84723639D01*
X26316756Y-84723639D01*
X26445735Y-84594660D01*
X26199584Y-84202296D01*
X25697178Y-83936688D01*
X25152607Y-83774199D01*
X24586801Y-83721072D01*
X24021502Y-83779348D01*
X23478434Y-83946790D01*
X23000416Y-84202296D01*
X22754265Y-84594660D01*
X21127000Y-84594660D01*
X21127000Y-82614528D01*
X27923000Y-82614528D01*
X27923000Y-82905472D01*
X27979760Y-83190825D01*
X28091099Y-83459622D01*
X28252739Y-83701533D01*
X28458467Y-83907261D01*
X28700378Y-84068901D01*
X28969175Y-84180240D01*
X29254528Y-84237000D01*
X29545472Y-84237000D01*
X29830825Y-84180240D01*
X30099622Y-84068901D01*
X30341533Y-83907261D01*
X30547261Y-83701533D01*
X30708901Y-83459622D01*
X30709453Y-83458288D01*
X33452893Y-83458288D01*
X34480000Y-84485395D01*
X35507107Y-83458288D01*
X35399274Y-83183662D01*
X35092616Y-83032784D01*
X34762415Y-82944631D01*
X34421361Y-82922591D01*
X34082561Y-82967511D01*
X33759034Y-83077664D01*
X33560726Y-83183662D01*
X33452893Y-83458288D01*
X30709453Y-83458288D01*
X30820240Y-83190825D01*
X30877000Y-82905472D01*
X30877000Y-82614528D01*
X30820240Y-82329175D01*
X30708901Y-82060378D01*
X30547261Y-81818467D01*
X30341533Y-81612739D01*
X30099622Y-81451099D01*
X29830825Y-81339760D01*
X29545472Y-81283000D01*
X29254528Y-81283000D01*
X28969175Y-81339760D01*
X28700378Y-81451099D01*
X28458467Y-81612739D01*
X28252739Y-81818467D01*
X28091099Y-82060378D01*
X27979760Y-82329175D01*
X27923000Y-82614528D01*
X21127000Y-82614528D01*
X21127000Y-80572702D01*
X23786903Y-80572702D01*
X23858486Y-80816671D01*
X24113996Y-80937571D01*
X24388184Y-81006300D01*
X24670512Y-81020217D01*
X24950130Y-80978787D01*
X25216292Y-80883603D01*
X25341514Y-80816671D01*
X25372950Y-80709528D01*
X33003000Y-80709528D01*
X33003000Y-81000472D01*
X33059760Y-81285825D01*
X33171099Y-81554622D01*
X33332739Y-81796533D01*
X33538467Y-82002261D01*
X33780378Y-82163901D01*
X34049175Y-82275240D01*
X34334528Y-82332000D01*
X34625472Y-82332000D01*
X34910825Y-82275240D01*
X35179622Y-82163901D01*
X35421533Y-82002261D01*
X35627261Y-81796533D01*
X35732016Y-81639755D01*
X64373000Y-81639755D01*
X64373000Y-81960245D01*
X64435525Y-82274578D01*
X64558172Y-82570673D01*
X64736227Y-82837152D01*
X64962848Y-83063773D01*
X65229327Y-83241828D01*
X65525422Y-83364475D01*
X65839755Y-83427000D01*
X66160245Y-83427000D01*
X66474578Y-83364475D01*
X66770673Y-83241828D01*
X67037152Y-83063773D01*
X67263773Y-82837152D01*
X67441828Y-82570673D01*
X67564475Y-82274578D01*
X67627000Y-81960245D01*
X67627000Y-81639755D01*
X67564475Y-81325422D01*
X67441828Y-81029327D01*
X67263773Y-80762848D01*
X67037152Y-80536227D01*
X66770673Y-80358172D01*
X66474578Y-80235525D01*
X66160245Y-80173000D01*
X65839755Y-80173000D01*
X65525422Y-80235525D01*
X65229327Y-80358172D01*
X64962848Y-80536227D01*
X64736227Y-80762848D01*
X64558172Y-81029327D01*
X64435525Y-81325422D01*
X64373000Y-81639755D01*
X35732016Y-81639755D01*
X35788901Y-81554622D01*
X35900240Y-81285825D01*
X35957000Y-81000472D01*
X35957000Y-80709528D01*
X35900240Y-80424175D01*
X35788901Y-80155378D01*
X35627261Y-79913467D01*
X35421533Y-79707739D01*
X35179622Y-79546099D01*
X34910825Y-79434760D01*
X34625472Y-79378000D01*
X34334528Y-79378000D01*
X34049175Y-79434760D01*
X33780378Y-79546099D01*
X33538467Y-79707739D01*
X33332739Y-79913467D01*
X33171099Y-80155378D01*
X33059760Y-80424175D01*
X33003000Y-80709528D01*
X25372950Y-80709528D01*
X25413097Y-80572702D01*
X24600000Y-79759605D01*
X23786903Y-80572702D01*
X21127000Y-80572702D01*
X21127000Y-79650512D01*
X23159783Y-79650512D01*
X23201213Y-79930130D01*
X23296397Y-80196292D01*
X23363329Y-80321514D01*
X23607298Y-80393097D01*
X24420395Y-79580000D01*
X24779605Y-79580000D01*
X25592702Y-80393097D01*
X25836671Y-80321514D01*
X25957571Y-80066004D01*
X26026300Y-79791816D01*
X26040217Y-79509488D01*
X25998787Y-79229870D01*
X25903603Y-78963708D01*
X25836671Y-78838486D01*
X25592702Y-78766903D01*
X24779605Y-79580000D01*
X24420395Y-79580000D01*
X23607298Y-78766903D01*
X23363329Y-78838486D01*
X23242429Y-79093996D01*
X23173700Y-79368184D01*
X23159783Y-79650512D01*
X21127000Y-79650512D01*
X21127000Y-79162212D01*
X21145764Y-79190294D01*
X21309706Y-79354236D01*
X21502481Y-79483044D01*
X21716682Y-79571769D01*
X21944076Y-79617000D01*
X22175924Y-79617000D01*
X22403318Y-79571769D01*
X22617519Y-79483044D01*
X22810294Y-79354236D01*
X22974236Y-79190294D01*
X23103044Y-78997519D01*
X23191769Y-78783318D01*
X23237000Y-78555924D01*
X23237000Y-78324076D01*
X23228771Y-78282702D01*
X23786903Y-78282702D01*
X23831589Y-78435000D01*
X23786903Y-78587298D01*
X24600000Y-79400395D01*
X25413097Y-78587298D01*
X25368411Y-78435000D01*
X25413097Y-78282702D01*
X24600000Y-77469605D01*
X23786903Y-78282702D01*
X23228771Y-78282702D01*
X23191769Y-78096682D01*
X23103044Y-77882481D01*
X22974236Y-77689706D01*
X22810294Y-77525764D01*
X22617519Y-77396956D01*
X22529536Y-77360512D01*
X23159783Y-77360512D01*
X23201213Y-77640130D01*
X23296397Y-77906292D01*
X23363329Y-78031514D01*
X23607298Y-78103097D01*
X24420395Y-77290000D01*
X24779605Y-77290000D01*
X25592702Y-78103097D01*
X25836671Y-78031514D01*
X25957571Y-77776004D01*
X26026300Y-77501816D01*
X26040217Y-77219488D01*
X25998787Y-76939870D01*
X25903603Y-76673708D01*
X25836671Y-76548486D01*
X25592702Y-76476903D01*
X24779605Y-77290000D01*
X24420395Y-77290000D01*
X23607298Y-76476903D01*
X23363329Y-76548486D01*
X23242429Y-76803996D01*
X23173700Y-77078184D01*
X23159783Y-77360512D01*
X22529536Y-77360512D01*
X22403318Y-77308231D01*
X22336801Y-77295000D01*
X22403318Y-77281769D01*
X22617519Y-77193044D01*
X22810294Y-77064236D01*
X22974236Y-76900294D01*
X23103044Y-76707519D01*
X23191769Y-76493318D01*
X23237000Y-76265924D01*
X23237000Y-76034076D01*
X23228771Y-75992702D01*
X23786903Y-75992702D01*
X23831589Y-76145000D01*
X23786903Y-76297298D01*
X24600000Y-77110395D01*
X25413097Y-76297298D01*
X25368411Y-76145000D01*
X25413097Y-75992702D01*
X24600000Y-75179605D01*
X23786903Y-75992702D01*
X23228771Y-75992702D01*
X23191769Y-75806682D01*
X23103044Y-75592481D01*
X22974236Y-75399706D01*
X22810294Y-75235764D01*
X22617519Y-75106956D01*
X22529536Y-75070512D01*
X23159783Y-75070512D01*
X23201213Y-75350130D01*
X23296397Y-75616292D01*
X23363329Y-75741514D01*
X23607298Y-75813097D01*
X24420395Y-75000000D01*
X24779605Y-75000000D01*
X25592702Y-75813097D01*
X25836671Y-75741514D01*
X25957571Y-75486004D01*
X26026300Y-75211816D01*
X26040217Y-74929488D01*
X25998787Y-74649870D01*
X25903603Y-74383708D01*
X25836671Y-74258486D01*
X25592702Y-74186903D01*
X24779605Y-75000000D01*
X24420395Y-75000000D01*
X23607298Y-74186903D01*
X23363329Y-74258486D01*
X23242429Y-74513996D01*
X23173700Y-74788184D01*
X23159783Y-75070512D01*
X22529536Y-75070512D01*
X22403318Y-75018231D01*
X22336801Y-75005000D01*
X22403318Y-74991769D01*
X22617519Y-74903044D01*
X22810294Y-74774236D01*
X22974236Y-74610294D01*
X23103044Y-74417519D01*
X23191769Y-74203318D01*
X23237000Y-73975924D01*
X23237000Y-73744076D01*
X23191769Y-73516682D01*
X23103044Y-73302481D01*
X22974236Y-73109706D01*
X22810294Y-72945764D01*
X22617519Y-72816956D01*
X22403318Y-72728231D01*
X22336801Y-72715000D01*
X22403318Y-72701769D01*
X22617519Y-72613044D01*
X22645906Y-72594076D01*
X23423000Y-72594076D01*
X23423000Y-72825924D01*
X23468231Y-73053318D01*
X23556956Y-73267519D01*
X23685764Y-73460294D01*
X23849706Y-73624236D01*
X23969260Y-73704119D01*
X23858486Y-73763329D01*
X23786903Y-74007298D01*
X24600000Y-74820395D01*
X25413097Y-74007298D01*
X25341514Y-73763329D01*
X25224787Y-73708097D01*
X25350294Y-73624236D01*
X25514236Y-73460294D01*
X25643044Y-73267519D01*
X25731769Y-73053318D01*
X25777000Y-72825924D01*
X25777000Y-72594076D01*
X25731769Y-72366682D01*
X25643044Y-72152481D01*
X25514236Y-71959706D01*
X25350294Y-71795764D01*
X25230740Y-71715881D01*
X25341514Y-71656671D01*
X25400957Y-71454076D01*
X25963000Y-71454076D01*
X25963000Y-71685924D01*
X26008231Y-71913318D01*
X26096956Y-72127519D01*
X26225764Y-72320294D01*
X26389706Y-72484236D01*
X26582481Y-72613044D01*
X26796682Y-72701769D01*
X26863199Y-72715000D01*
X26796682Y-72728231D01*
X26582481Y-72816956D01*
X26389706Y-72945764D01*
X26225764Y-73109706D01*
X26096956Y-73302481D01*
X26008231Y-73516682D01*
X25963000Y-73744076D01*
X25963000Y-73975924D01*
X26008231Y-74203318D01*
X26096956Y-74417519D01*
X26225764Y-74610294D01*
X26389706Y-74774236D01*
X26582481Y-74903044D01*
X26796682Y-74991769D01*
X26863199Y-75005000D01*
X26796682Y-75018231D01*
X26582481Y-75106956D01*
X26389706Y-75235764D01*
X26225764Y-75399706D01*
X26096956Y-75592481D01*
X26008231Y-75806682D01*
X25963000Y-76034076D01*
X25963000Y-76265924D01*
X26008231Y-76493318D01*
X26096956Y-76707519D01*
X26225764Y-76900294D01*
X26389706Y-77064236D01*
X26582481Y-77193044D01*
X26796682Y-77281769D01*
X26863199Y-77295000D01*
X26796682Y-77308231D01*
X26582481Y-77396956D01*
X26389706Y-77525764D01*
X26225764Y-77689706D01*
X26096956Y-77882481D01*
X26008231Y-78096682D01*
X25963000Y-78324076D01*
X25963000Y-78555924D01*
X26008231Y-78783318D01*
X26096956Y-78997519D01*
X26225764Y-79190294D01*
X26389706Y-79354236D01*
X26582481Y-79483044D01*
X26796682Y-79571769D01*
X27024076Y-79617000D01*
X27255924Y-79617000D01*
X27483318Y-79571769D01*
X27697519Y-79483044D01*
X27890294Y-79354236D01*
X27960505Y-79284025D01*
X27979760Y-79380825D01*
X28091099Y-79649622D01*
X28252739Y-79891533D01*
X28458467Y-80097261D01*
X28700378Y-80258901D01*
X28969175Y-80370240D01*
X29254528Y-80427000D01*
X29545472Y-80427000D01*
X29830825Y-80370240D01*
X30099622Y-80258901D01*
X30341533Y-80097261D01*
X30547261Y-79891533D01*
X30708901Y-79649622D01*
X30820240Y-79380825D01*
X30877000Y-79095472D01*
X30877000Y-78804528D01*
X30820240Y-78519175D01*
X30709454Y-78251712D01*
X33452893Y-78251712D01*
X33560726Y-78526338D01*
X33867384Y-78677216D01*
X34197585Y-78765369D01*
X34538639Y-78787409D01*
X34877439Y-78742489D01*
X35200966Y-78632336D01*
X35399274Y-78526338D01*
X35507107Y-78251712D01*
X34480000Y-77224605D01*
X33452893Y-78251712D01*
X30709454Y-78251712D01*
X30708901Y-78250378D01*
X30547261Y-78008467D01*
X30341533Y-77802739D01*
X30099622Y-77641099D01*
X30005228Y-77602000D01*
X30675347Y-77602000D01*
X30700000Y-77604428D01*
X30724653Y-77602000D01*
X30798409Y-77594736D01*
X30893036Y-77566031D01*
X30980245Y-77519417D01*
X31056684Y-77456684D01*
X31119417Y-77380245D01*
X31166031Y-77293036D01*
X31180894Y-77244040D01*
X31321295Y-77103639D01*
X32737591Y-77103639D01*
X32782511Y-77442439D01*
X32892664Y-77765966D01*
X32998662Y-77964274D01*
X33273288Y-78072107D01*
X34300395Y-77045000D01*
X34659605Y-77045000D01*
X35686712Y-78072107D01*
X35961338Y-77964274D01*
X36112216Y-77657616D01*
X36200369Y-77327415D01*
X36221527Y-77000000D01*
X59113918Y-77000000D01*
X59150159Y-77367956D01*
X59257487Y-77721772D01*
X59431780Y-78047851D01*
X59666339Y-78333661D01*
X59952149Y-78568220D01*
X60278228Y-78742513D01*
X60632044Y-78849841D01*
X60907790Y-78877000D01*
X62092210Y-78877000D01*
X62367956Y-78849841D01*
X62721772Y-78742513D01*
X63047851Y-78568220D01*
X63333661Y-78333661D01*
X63568220Y-78047851D01*
X63742513Y-77721772D01*
X63849841Y-77367956D01*
X63865000Y-77214046D01*
X63865000Y-77627000D01*
X63930800Y-78041078D01*
X64076118Y-78434362D01*
X64295370Y-78791739D01*
X64580130Y-79099475D01*
X64919454Y-79345744D01*
X65300303Y-79521083D01*
X65541167Y-79585113D01*
X65873000Y-79472165D01*
X65873000Y-77127000D01*
X66127000Y-77127000D01*
X66127000Y-79472165D01*
X66458833Y-79585113D01*
X66699697Y-79521083D01*
X67080546Y-79345744D01*
X67419870Y-79099475D01*
X67704630Y-78791739D01*
X67923882Y-78434362D01*
X68069200Y-78041078D01*
X68135000Y-77627000D01*
X68135000Y-77127000D01*
X66127000Y-77127000D01*
X65873000Y-77127000D01*
X65853000Y-77127000D01*
X65853000Y-76873000D01*
X65873000Y-76873000D01*
X65873000Y-74527835D01*
X66127000Y-74527835D01*
X66127000Y-76873000D01*
X68135000Y-76873000D01*
X68135000Y-76373000D01*
X68069200Y-75958922D01*
X67923882Y-75565638D01*
X67704630Y-75208261D01*
X67419870Y-74900525D01*
X67080546Y-74654256D01*
X66699697Y-74478917D01*
X66458833Y-74414887D01*
X66127000Y-74527835D01*
X65873000Y-74527835D01*
X65541167Y-74414887D01*
X65300303Y-74478917D01*
X64919454Y-74654256D01*
X64580130Y-74900525D01*
X64295370Y-75208261D01*
X64076118Y-75565638D01*
X63930800Y-75958922D01*
X63865000Y-76373000D01*
X63865000Y-76785954D01*
X63849841Y-76632044D01*
X63742513Y-76278228D01*
X63568220Y-75952149D01*
X63333661Y-75666339D01*
X63047851Y-75431780D01*
X62721772Y-75257487D01*
X62367956Y-75150159D01*
X62092210Y-75123000D01*
X60907790Y-75123000D01*
X60632044Y-75150159D01*
X60278228Y-75257487D01*
X59952149Y-75431780D01*
X59666339Y-75666339D01*
X59431780Y-75952149D01*
X59257487Y-76278228D01*
X59150159Y-76632044D01*
X59113918Y-77000000D01*
X36221527Y-77000000D01*
X36222409Y-76986361D01*
X36177489Y-76647561D01*
X36067336Y-76324034D01*
X35961338Y-76125726D01*
X35686712Y-76017893D01*
X34659605Y-77045000D01*
X34300395Y-77045000D01*
X33273288Y-76017893D01*
X32998662Y-76125726D01*
X32847784Y-76432384D01*
X32759631Y-76762585D01*
X32737591Y-77103639D01*
X31321295Y-77103639D01*
X32586646Y-75838288D01*
X33452893Y-75838288D01*
X34480000Y-76865395D01*
X35507107Y-75838288D01*
X35399274Y-75563662D01*
X35092616Y-75412784D01*
X34762415Y-75324631D01*
X34421361Y-75302591D01*
X34082561Y-75347511D01*
X33759034Y-75457664D01*
X33560726Y-75563662D01*
X33452893Y-75838288D01*
X32586646Y-75838288D01*
X33851552Y-74573382D01*
X34049175Y-74655240D01*
X34334528Y-74712000D01*
X34625472Y-74712000D01*
X34910825Y-74655240D01*
X35179622Y-74543901D01*
X35421533Y-74382261D01*
X35627261Y-74176533D01*
X35788901Y-73934622D01*
X35900240Y-73665825D01*
X35957000Y-73380472D01*
X35957000Y-73089528D01*
X35900240Y-72804175D01*
X35788901Y-72535378D01*
X35627261Y-72293467D01*
X35421533Y-72087739D01*
X35179622Y-71926099D01*
X34910825Y-71814760D01*
X34625472Y-71758000D01*
X34334528Y-71758000D01*
X34049175Y-71814760D01*
X33780378Y-71926099D01*
X33538467Y-72087739D01*
X33332739Y-72293467D01*
X33171099Y-72535378D01*
X33059760Y-72804175D01*
X33003000Y-73089528D01*
X33003000Y-73380472D01*
X33059760Y-73665825D01*
X33141618Y-73863448D01*
X30407066Y-76598000D01*
X30328438Y-76598000D01*
X30427107Y-76346712D01*
X29400000Y-75319605D01*
X29385858Y-75333748D01*
X29206253Y-75154143D01*
X29220395Y-75140000D01*
X29579605Y-75140000D01*
X30606712Y-76167107D01*
X30881338Y-76059274D01*
X31032216Y-75752616D01*
X31120369Y-75422415D01*
X31142409Y-75081361D01*
X31097489Y-74742561D01*
X30987336Y-74419034D01*
X30881338Y-74220726D01*
X30606712Y-74112893D01*
X29579605Y-75140000D01*
X29220395Y-75140000D01*
X29206253Y-75125858D01*
X29385858Y-74946253D01*
X29400000Y-74960395D01*
X30427107Y-73933288D01*
X30319274Y-73658662D01*
X30012616Y-73507784D01*
X29682415Y-73419631D01*
X29341361Y-73397591D01*
X29002561Y-73442511D01*
X28679034Y-73552664D01*
X28480726Y-73658662D01*
X28372894Y-73933286D01*
X28317000Y-73877392D01*
X28317000Y-73744076D01*
X28271769Y-73516682D01*
X28183044Y-73302481D01*
X28054236Y-73109706D01*
X27890294Y-72945764D01*
X27697519Y-72816956D01*
X27483318Y-72728231D01*
X27416801Y-72715000D01*
X27483318Y-72701769D01*
X27697519Y-72613044D01*
X27890294Y-72484236D01*
X28054236Y-72320294D01*
X28169778Y-72147373D01*
X28252739Y-72271533D01*
X28458467Y-72477261D01*
X28700378Y-72638901D01*
X28969175Y-72750240D01*
X29254528Y-72807000D01*
X29545472Y-72807000D01*
X29830825Y-72750240D01*
X30099622Y-72638901D01*
X30341533Y-72477261D01*
X30547261Y-72271533D01*
X30708901Y-72029622D01*
X30820240Y-71760825D01*
X30877000Y-71475472D01*
X30877000Y-71184528D01*
X30820240Y-70899175D01*
X30709454Y-70631712D01*
X33452893Y-70631712D01*
X33560726Y-70906338D01*
X33867384Y-71057216D01*
X34197585Y-71145369D01*
X34538639Y-71167409D01*
X34877439Y-71122489D01*
X35200966Y-71012336D01*
X35399274Y-70906338D01*
X35507107Y-70631712D01*
X34480000Y-69604605D01*
X33452893Y-70631712D01*
X30709454Y-70631712D01*
X30708901Y-70630378D01*
X30547261Y-70388467D01*
X30341533Y-70182739D01*
X30099622Y-70021099D01*
X29830825Y-69909760D01*
X29545472Y-69853000D01*
X29254528Y-69853000D01*
X28969175Y-69909760D01*
X28700378Y-70021099D01*
X28458467Y-70182739D01*
X28252739Y-70388467D01*
X28091099Y-70630378D01*
X28024849Y-70790319D01*
X27890294Y-70655764D01*
X27770740Y-70575881D01*
X27881514Y-70516671D01*
X27953097Y-70272702D01*
X27140000Y-69459605D01*
X26326903Y-70272702D01*
X26398486Y-70516671D01*
X26515213Y-70571903D01*
X26389706Y-70655764D01*
X26225764Y-70819706D01*
X26096956Y-71012481D01*
X26008231Y-71226682D01*
X25963000Y-71454076D01*
X25400957Y-71454076D01*
X25413097Y-71412702D01*
X24600000Y-70599605D01*
X23786903Y-71412702D01*
X23858486Y-71656671D01*
X23975213Y-71711903D01*
X23849706Y-71795764D01*
X23685764Y-71959706D01*
X23556956Y-72152481D01*
X23468231Y-72366682D01*
X23423000Y-72594076D01*
X22645906Y-72594076D01*
X22810294Y-72484236D01*
X22974236Y-72320294D01*
X23103044Y-72127519D01*
X23191769Y-71913318D01*
X23237000Y-71685924D01*
X23237000Y-71454076D01*
X23191769Y-71226682D01*
X23103044Y-71012481D01*
X22974236Y-70819706D01*
X22810294Y-70655764D01*
X22617519Y-70526956D01*
X22529536Y-70490512D01*
X23159783Y-70490512D01*
X23201213Y-70770130D01*
X23296397Y-71036292D01*
X23363329Y-71161514D01*
X23607298Y-71233097D01*
X24420395Y-70420000D01*
X24779605Y-70420000D01*
X25592702Y-71233097D01*
X25836671Y-71161514D01*
X25957571Y-70906004D01*
X26026300Y-70631816D01*
X26040217Y-70349488D01*
X25998787Y-70069870D01*
X25990657Y-70047137D01*
X26147298Y-70093097D01*
X26960395Y-69280000D01*
X26147298Y-68466903D01*
X25903329Y-68538486D01*
X25782429Y-68793996D01*
X25713700Y-69068184D01*
X25699783Y-69350512D01*
X25741213Y-69630130D01*
X25749343Y-69652863D01*
X25592702Y-69606903D01*
X24779605Y-70420000D01*
X24420395Y-70420000D01*
X23607298Y-69606903D01*
X23363329Y-69678486D01*
X23242429Y-69933996D01*
X23173700Y-70208184D01*
X23159783Y-70490512D01*
X22529536Y-70490512D01*
X22403318Y-70438231D01*
X22336801Y-70425000D01*
X22403318Y-70411769D01*
X22617519Y-70323044D01*
X22810294Y-70194236D01*
X22974236Y-70030294D01*
X23103044Y-69837519D01*
X23191769Y-69623318D01*
X23230759Y-69427298D01*
X23786903Y-69427298D01*
X24600000Y-70240395D01*
X25413097Y-69427298D01*
X25341514Y-69183329D01*
X25086004Y-69062429D01*
X24811816Y-68993700D01*
X24529488Y-68979783D01*
X24249870Y-69021213D01*
X23983708Y-69116397D01*
X23858486Y-69183329D01*
X23786903Y-69427298D01*
X23230759Y-69427298D01*
X23237000Y-69395924D01*
X23237000Y-69164076D01*
X23191769Y-68936682D01*
X23103044Y-68722481D01*
X22974236Y-68529706D01*
X22810294Y-68365764D01*
X22692862Y-68287298D01*
X26326903Y-68287298D01*
X27140000Y-69100395D01*
X27154143Y-69086253D01*
X27333748Y-69265858D01*
X27319605Y-69280000D01*
X28132702Y-70093097D01*
X28376671Y-70021514D01*
X28497571Y-69766004D01*
X28566300Y-69491816D01*
X28566703Y-69483639D01*
X32737591Y-69483639D01*
X32782511Y-69822439D01*
X32892664Y-70145966D01*
X32998662Y-70344274D01*
X33273288Y-70452107D01*
X34300395Y-69425000D01*
X34659605Y-69425000D01*
X35686712Y-70452107D01*
X35961338Y-70344274D01*
X36112216Y-70037616D01*
X36200369Y-69707415D01*
X36222409Y-69366361D01*
X36222146Y-69364377D01*
X60423000Y-69364377D01*
X60423000Y-69635623D01*
X60475917Y-69901656D01*
X60579718Y-70152254D01*
X60730414Y-70377787D01*
X60922213Y-70569586D01*
X61147746Y-70720282D01*
X61398344Y-70824083D01*
X61664377Y-70877000D01*
X61935623Y-70877000D01*
X62201656Y-70824083D01*
X62452254Y-70720282D01*
X62677787Y-70569586D01*
X62869586Y-70377787D01*
X63020282Y-70152254D01*
X63124083Y-69901656D01*
X63177000Y-69635623D01*
X63177000Y-69364377D01*
X63124083Y-69098344D01*
X63020282Y-68847746D01*
X62869586Y-68622213D01*
X62677787Y-68430414D01*
X62452254Y-68279718D01*
X62201656Y-68175917D01*
X61935623Y-68123000D01*
X61664377Y-68123000D01*
X61398344Y-68175917D01*
X61147746Y-68279718D01*
X60922213Y-68430414D01*
X60730414Y-68622213D01*
X60579718Y-68847746D01*
X60475917Y-69098344D01*
X60423000Y-69364377D01*
X36222146Y-69364377D01*
X36177489Y-69027561D01*
X36067336Y-68704034D01*
X35961338Y-68505726D01*
X35686712Y-68397893D01*
X34659605Y-69425000D01*
X34300395Y-69425000D01*
X33273288Y-68397893D01*
X32998662Y-68505726D01*
X32847784Y-68812384D01*
X32759631Y-69142585D01*
X32737591Y-69483639D01*
X28566703Y-69483639D01*
X28580217Y-69209488D01*
X28554774Y-69037770D01*
X28787384Y-69152216D01*
X29117585Y-69240369D01*
X29458639Y-69262409D01*
X29797439Y-69217489D01*
X30120966Y-69107336D01*
X30319274Y-69001338D01*
X30427107Y-68726712D01*
X29400000Y-67699605D01*
X29385858Y-67713748D01*
X29206253Y-67534143D01*
X29220395Y-67520000D01*
X29579605Y-67520000D01*
X30606712Y-68547107D01*
X30881338Y-68439274D01*
X30990064Y-68218288D01*
X33452893Y-68218288D01*
X34480000Y-69245395D01*
X35507107Y-68218288D01*
X35399274Y-67943662D01*
X35092616Y-67792784D01*
X34762415Y-67704631D01*
X34421361Y-67682591D01*
X34082561Y-67727511D01*
X33759034Y-67837664D01*
X33560726Y-67943662D01*
X33452893Y-68218288D01*
X30990064Y-68218288D01*
X31032216Y-68132616D01*
X31120369Y-67802415D01*
X31142409Y-67461361D01*
X31097489Y-67122561D01*
X30987336Y-66799034D01*
X30881338Y-66600726D01*
X30606712Y-66492893D01*
X29579605Y-67520000D01*
X29220395Y-67520000D01*
X28193288Y-66492893D01*
X27918662Y-66600726D01*
X27767784Y-66907384D01*
X27679631Y-67237585D01*
X27657591Y-67578639D01*
X27702511Y-67917439D01*
X27719229Y-67966540D01*
X27626004Y-67922429D01*
X27351816Y-67853700D01*
X27069488Y-67839783D01*
X26789870Y-67881213D01*
X26523708Y-67976397D01*
X26398486Y-68043329D01*
X26326903Y-68287298D01*
X22692862Y-68287298D01*
X22617519Y-68236956D01*
X22403318Y-68148231D01*
X22175924Y-68103000D01*
X21944076Y-68103000D01*
X21716682Y-68148231D01*
X21502481Y-68236956D01*
X21309706Y-68365764D01*
X21145764Y-68529706D01*
X21127000Y-68557788D01*
X21127000Y-66313288D01*
X28372893Y-66313288D01*
X29400000Y-67340395D01*
X30427107Y-66313288D01*
X30319274Y-66038662D01*
X30012616Y-65887784D01*
X29682415Y-65799631D01*
X29341361Y-65777591D01*
X29002561Y-65822511D01*
X28679034Y-65932664D01*
X28480726Y-66038662D01*
X28372893Y-66313288D01*
X21127000Y-66313288D01*
X21127000Y-65469528D01*
X33003000Y-65469528D01*
X33003000Y-65760472D01*
X33059760Y-66045825D01*
X33171099Y-66314622D01*
X33332739Y-66556533D01*
X33538467Y-66762261D01*
X33780378Y-66923901D01*
X34049175Y-67035240D01*
X34334528Y-67092000D01*
X34625472Y-67092000D01*
X34910825Y-67035240D01*
X35179622Y-66923901D01*
X35421533Y-66762261D01*
X35627261Y-66556533D01*
X35788901Y-66314622D01*
X35900240Y-66045825D01*
X35957000Y-65760472D01*
X35957000Y-65469528D01*
X35900240Y-65184175D01*
X35788901Y-64915378D01*
X35627261Y-64673467D01*
X35421533Y-64467739D01*
X35179622Y-64306099D01*
X34910825Y-64194760D01*
X34625472Y-64138000D01*
X34334528Y-64138000D01*
X34049175Y-64194760D01*
X33780378Y-64306099D01*
X33538467Y-64467739D01*
X33332739Y-64673467D01*
X33171099Y-64915378D01*
X33059760Y-65184175D01*
X33003000Y-65469528D01*
X21127000Y-65469528D01*
X21127000Y-63645340D01*
X22754265Y-63645340D01*
X23000416Y-64037704D01*
X23502822Y-64303312D01*
X24047393Y-64465801D01*
X24613199Y-64518928D01*
X25178498Y-64460652D01*
X25721566Y-64293210D01*
X26199584Y-64037704D01*
X26445735Y-63645340D01*
X26364923Y-63564528D01*
X27923000Y-63564528D01*
X27923000Y-63855472D01*
X27979760Y-64140825D01*
X28091099Y-64409622D01*
X28252739Y-64651533D01*
X28458467Y-64857261D01*
X28700378Y-65018901D01*
X28969175Y-65130240D01*
X29254528Y-65187000D01*
X29545472Y-65187000D01*
X29830825Y-65130240D01*
X30099622Y-65018901D01*
X30341533Y-64857261D01*
X30547261Y-64651533D01*
X30708901Y-64409622D01*
X30820240Y-64140825D01*
X30877000Y-63855472D01*
X30877000Y-63564528D01*
X30820240Y-63279175D01*
X30709454Y-63011712D01*
X33452893Y-63011712D01*
X33560726Y-63286338D01*
X33867384Y-63437216D01*
X34197585Y-63525369D01*
X34538639Y-63547409D01*
X34877439Y-63502489D01*
X35200966Y-63392336D01*
X35399274Y-63286338D01*
X35507107Y-63011712D01*
X34480000Y-61984605D01*
X33452893Y-63011712D01*
X30709454Y-63011712D01*
X30708901Y-63010378D01*
X30547261Y-62768467D01*
X30341533Y-62562739D01*
X30099622Y-62401099D01*
X29830825Y-62289760D01*
X29545472Y-62233000D01*
X29254528Y-62233000D01*
X28969175Y-62289760D01*
X28700378Y-62401099D01*
X28458467Y-62562739D01*
X28252739Y-62768467D01*
X28091099Y-63010378D01*
X27979760Y-63279175D01*
X27923000Y-63564528D01*
X26364923Y-63564528D01*
X24600000Y-61799605D01*
X22754265Y-63645340D01*
X21127000Y-63645340D01*
X21127000Y-61633199D01*
X21701072Y-61633199D01*
X21759348Y-62198498D01*
X21926790Y-62741566D01*
X22182296Y-63219584D01*
X22574660Y-63465735D01*
X24420395Y-61620000D01*
X24779605Y-61620000D01*
X26625340Y-63465735D01*
X27017704Y-63219584D01*
X27283312Y-62717178D01*
X27445801Y-62172607D01*
X27474811Y-61863639D01*
X32737591Y-61863639D01*
X32782511Y-62202439D01*
X32892664Y-62525966D01*
X32998662Y-62724274D01*
X33273288Y-62832107D01*
X34300395Y-61805000D01*
X34659605Y-61805000D01*
X35686712Y-62832107D01*
X35961338Y-62724274D01*
X36010933Y-62623472D01*
X45523000Y-62623472D01*
X45523000Y-62776528D01*
X45552859Y-62926643D01*
X45611431Y-63068048D01*
X45696464Y-63195309D01*
X45804691Y-63303536D01*
X45931952Y-63388569D01*
X46073357Y-63447141D01*
X46223472Y-63477000D01*
X46376528Y-63477000D01*
X46526643Y-63447141D01*
X46668048Y-63388569D01*
X46795309Y-63303536D01*
X46896845Y-63202000D01*
X48603155Y-63202000D01*
X48704691Y-63303536D01*
X48831952Y-63388569D01*
X48973357Y-63447141D01*
X49123472Y-63477000D01*
X49276528Y-63477000D01*
X49426643Y-63447141D01*
X49568048Y-63388569D01*
X49695309Y-63303536D01*
X49803536Y-63195309D01*
X49888569Y-63068048D01*
X49947141Y-62926643D01*
X49977000Y-62776528D01*
X49977000Y-62623472D01*
X49947141Y-62473357D01*
X49888569Y-62331952D01*
X49803536Y-62204691D01*
X49695309Y-62096464D01*
X49568048Y-62011431D01*
X49540452Y-62000000D01*
X59113918Y-62000000D01*
X59150159Y-62367956D01*
X59257487Y-62721772D01*
X59431780Y-63047851D01*
X59666339Y-63333661D01*
X59952149Y-63568220D01*
X60278228Y-63742513D01*
X60632044Y-63849841D01*
X60907790Y-63877000D01*
X62092210Y-63877000D01*
X62367956Y-63849841D01*
X62721772Y-63742513D01*
X63047851Y-63568220D01*
X63333661Y-63333661D01*
X63568220Y-63047851D01*
X63742513Y-62721772D01*
X63849841Y-62367956D01*
X63865000Y-62214046D01*
X63865000Y-62627000D01*
X63930800Y-63041078D01*
X64076118Y-63434362D01*
X64295370Y-63791739D01*
X64580130Y-64099475D01*
X64919454Y-64345744D01*
X65300303Y-64521083D01*
X65541167Y-64585113D01*
X65873000Y-64472165D01*
X65873000Y-62127000D01*
X66127000Y-62127000D01*
X66127000Y-64472165D01*
X66458833Y-64585113D01*
X66699697Y-64521083D01*
X67080546Y-64345744D01*
X67419870Y-64099475D01*
X67704630Y-63791739D01*
X67923882Y-63434362D01*
X68069200Y-63041078D01*
X68135000Y-62627000D01*
X68135000Y-62127000D01*
X66127000Y-62127000D01*
X65873000Y-62127000D01*
X65853000Y-62127000D01*
X65853000Y-61873000D01*
X65873000Y-61873000D01*
X65873000Y-59527835D01*
X66127000Y-59527835D01*
X66127000Y-61873000D01*
X68135000Y-61873000D01*
X68135000Y-61373000D01*
X68069200Y-60958922D01*
X67923882Y-60565638D01*
X67704630Y-60208261D01*
X67419870Y-59900525D01*
X67080546Y-59654256D01*
X66699697Y-59478917D01*
X66458833Y-59414887D01*
X66127000Y-59527835D01*
X65873000Y-59527835D01*
X65541167Y-59414887D01*
X65300303Y-59478917D01*
X64919454Y-59654256D01*
X64580130Y-59900525D01*
X64295370Y-60208261D01*
X64076118Y-60565638D01*
X63930800Y-60958922D01*
X63865000Y-61373000D01*
X63865000Y-61785954D01*
X63849841Y-61632044D01*
X63742513Y-61278228D01*
X63568220Y-60952149D01*
X63333661Y-60666339D01*
X63047851Y-60431780D01*
X62721772Y-60257487D01*
X62367956Y-60150159D01*
X62092210Y-60123000D01*
X60907790Y-60123000D01*
X60632044Y-60150159D01*
X60278228Y-60257487D01*
X59952149Y-60431780D01*
X59666339Y-60666339D01*
X59431780Y-60952149D01*
X59257487Y-61278228D01*
X59150159Y-61632044D01*
X59113918Y-62000000D01*
X49540452Y-62000000D01*
X49426643Y-61952859D01*
X49276528Y-61923000D01*
X49123472Y-61923000D01*
X48973357Y-61952859D01*
X48831952Y-62011431D01*
X48704691Y-62096464D01*
X48603155Y-62198000D01*
X46896845Y-62198000D01*
X46795309Y-62096464D01*
X46668048Y-62011431D01*
X46526643Y-61952859D01*
X46376528Y-61923000D01*
X46223472Y-61923000D01*
X46073357Y-61952859D01*
X45931952Y-62011431D01*
X45804691Y-62096464D01*
X45696464Y-62204691D01*
X45611431Y-62331952D01*
X45552859Y-62473357D01*
X45523000Y-62623472D01*
X36010933Y-62623472D01*
X36112216Y-62417616D01*
X36200369Y-62087415D01*
X36222409Y-61746361D01*
X36177489Y-61407561D01*
X36067336Y-61084034D01*
X35961338Y-60885726D01*
X35686712Y-60777893D01*
X34659605Y-61805000D01*
X34300395Y-61805000D01*
X33273288Y-60777893D01*
X32998662Y-60885726D01*
X32847784Y-61192384D01*
X32759631Y-61522585D01*
X32737591Y-61863639D01*
X27474811Y-61863639D01*
X27498928Y-61606801D01*
X27440652Y-61041502D01*
X27303998Y-60598288D01*
X33452893Y-60598288D01*
X34480000Y-61625395D01*
X35507107Y-60598288D01*
X35399274Y-60323662D01*
X35092616Y-60172784D01*
X34762415Y-60084631D01*
X34421361Y-60062591D01*
X34082561Y-60107511D01*
X33759034Y-60217664D01*
X33560726Y-60323662D01*
X33452893Y-60598288D01*
X27303998Y-60598288D01*
X27273210Y-60498434D01*
X27017704Y-60020416D01*
X26625340Y-59774265D01*
X24779605Y-61620000D01*
X24420395Y-61620000D01*
X22574660Y-59774265D01*
X22182296Y-60020416D01*
X21916688Y-60522822D01*
X21754199Y-61067393D01*
X21701072Y-61633199D01*
X21127000Y-61633199D01*
X21127000Y-59594660D01*
X22754265Y-59594660D01*
X24600000Y-61440395D01*
X26445735Y-59594660D01*
X26199584Y-59202296D01*
X25697178Y-58936688D01*
X25152607Y-58774199D01*
X24992345Y-58759151D01*
X44973000Y-58759151D01*
X44973000Y-59000849D01*
X45020153Y-59237903D01*
X45112647Y-59461202D01*
X45246927Y-59662167D01*
X45417833Y-59833073D01*
X45618798Y-59967353D01*
X45842097Y-60059847D01*
X46079151Y-60107000D01*
X46320849Y-60107000D01*
X46557903Y-60059847D01*
X46781202Y-59967353D01*
X46982167Y-59833073D01*
X47153073Y-59662167D01*
X47287353Y-59461202D01*
X47379847Y-59237903D01*
X47427000Y-59000849D01*
X47427000Y-58759151D01*
X47379847Y-58522097D01*
X47287353Y-58298798D01*
X47153073Y-58097833D01*
X46982167Y-57926927D01*
X46781202Y-57792647D01*
X46557903Y-57700153D01*
X46320849Y-57653000D01*
X46079151Y-57653000D01*
X45842097Y-57700153D01*
X45618798Y-57792647D01*
X45417833Y-57926927D01*
X45246927Y-58097833D01*
X45112647Y-58298798D01*
X45020153Y-58522097D01*
X44973000Y-58759151D01*
X24992345Y-58759151D01*
X24586801Y-58721072D01*
X24021502Y-58779348D01*
X23478434Y-58946790D01*
X23000416Y-59202296D01*
X22754265Y-59594660D01*
X21127000Y-59594660D01*
X21127000Y-57549722D01*
X31335314Y-57549722D01*
X31335314Y-57702778D01*
X31365173Y-57852893D01*
X31423745Y-57994298D01*
X31508778Y-58121559D01*
X31617005Y-58229786D01*
X31744266Y-58314819D01*
X31885671Y-58373391D01*
X32035786Y-58403250D01*
X32188842Y-58403250D01*
X32338957Y-58373391D01*
X32480362Y-58314819D01*
X32607623Y-58229786D01*
X32715850Y-58121559D01*
X32800883Y-57994298D01*
X32859455Y-57852893D01*
X32889314Y-57702778D01*
X32889314Y-57559184D01*
X33496500Y-56952000D01*
X39213155Y-56952000D01*
X39314691Y-57053536D01*
X39441952Y-57138569D01*
X39583357Y-57197141D01*
X39733472Y-57227000D01*
X39886528Y-57227000D01*
X40036643Y-57197141D01*
X40178048Y-57138569D01*
X40305309Y-57053536D01*
X40413536Y-56945309D01*
X40498569Y-56818048D01*
X40557141Y-56676643D01*
X40587000Y-56526528D01*
X40587000Y-56373472D01*
X40557141Y-56223357D01*
X40498569Y-56081952D01*
X40413536Y-55954691D01*
X40305309Y-55846464D01*
X40178048Y-55761431D01*
X40036643Y-55702859D01*
X39886528Y-55673000D01*
X39733472Y-55673000D01*
X39583357Y-55702859D01*
X39441952Y-55761431D01*
X39314691Y-55846464D01*
X39213155Y-55948000D01*
X33313207Y-55948000D01*
X33288564Y-55945573D01*
X33263921Y-55948000D01*
X33263911Y-55948000D01*
X33190155Y-55955264D01*
X33095528Y-55983969D01*
X33065538Y-55999999D01*
X33008318Y-56030583D01*
X32951028Y-56077600D01*
X32951020Y-56077608D01*
X32931880Y-56093316D01*
X32916171Y-56112457D01*
X32179380Y-56849250D01*
X32035786Y-56849250D01*
X31885671Y-56879109D01*
X31744266Y-56937681D01*
X31617005Y-57022714D01*
X31508778Y-57130941D01*
X31423745Y-57258202D01*
X31365173Y-57399607D01*
X31335314Y-57549722D01*
X21127000Y-57549722D01*
X21127000Y-54765886D01*
X24823000Y-54765886D01*
X24823000Y-55234114D01*
X24914347Y-55693345D01*
X25093530Y-56125932D01*
X25353664Y-56515249D01*
X25684751Y-56846336D01*
X26074068Y-57106470D01*
X26506655Y-57285653D01*
X26965886Y-57377000D01*
X27434114Y-57377000D01*
X27893345Y-57285653D01*
X28325932Y-57106470D01*
X28715249Y-56846336D01*
X29046336Y-56515249D01*
X29306470Y-56125932D01*
X29485653Y-55693345D01*
X29577000Y-55234114D01*
X29577000Y-54765886D01*
X29485653Y-54306655D01*
X29306470Y-53874068D01*
X29046336Y-53484751D01*
X28715249Y-53153664D01*
X28325932Y-52893530D01*
X27915375Y-52723472D01*
X35223000Y-52723472D01*
X35223000Y-52876528D01*
X35252859Y-53026643D01*
X35311431Y-53168048D01*
X35396464Y-53295309D01*
X35504691Y-53403536D01*
X35631952Y-53488569D01*
X35773357Y-53547141D01*
X35923472Y-53577000D01*
X36076528Y-53577000D01*
X36226643Y-53547141D01*
X36368048Y-53488569D01*
X36495309Y-53403536D01*
X36596845Y-53302000D01*
X39792066Y-53302000D01*
X42423000Y-55932935D01*
X42423000Y-56076528D01*
X42452859Y-56226643D01*
X42511431Y-56368048D01*
X42596464Y-56495309D01*
X42704691Y-56603536D01*
X42831952Y-56688569D01*
X42973357Y-56747141D01*
X43123472Y-56777000D01*
X43276528Y-56777000D01*
X43426643Y-56747141D01*
X43568048Y-56688569D01*
X43695309Y-56603536D01*
X43803536Y-56495309D01*
X43888569Y-56368048D01*
X43947141Y-56226643D01*
X43948631Y-56219151D01*
X44973000Y-56219151D01*
X44973000Y-56460849D01*
X45020153Y-56697903D01*
X45112647Y-56921202D01*
X45246927Y-57122167D01*
X45417833Y-57293073D01*
X45618798Y-57427353D01*
X45842097Y-57519847D01*
X46079151Y-57567000D01*
X46320849Y-57567000D01*
X46557903Y-57519847D01*
X46781202Y-57427353D01*
X46982167Y-57293073D01*
X47153073Y-57122167D01*
X47287353Y-56921202D01*
X47379847Y-56697903D01*
X47427000Y-56460849D01*
X47427000Y-56219151D01*
X47379847Y-55982097D01*
X47287353Y-55758798D01*
X47153073Y-55557833D01*
X46982167Y-55386927D01*
X46781202Y-55252647D01*
X46557903Y-55160153D01*
X46320849Y-55113000D01*
X46079151Y-55113000D01*
X45842097Y-55160153D01*
X45618798Y-55252647D01*
X45417833Y-55386927D01*
X45246927Y-55557833D01*
X45112647Y-55758798D01*
X45020153Y-55982097D01*
X44973000Y-56219151D01*
X43948631Y-56219151D01*
X43977000Y-56076528D01*
X43977000Y-55923472D01*
X43947141Y-55773357D01*
X43888569Y-55631952D01*
X43803536Y-55504691D01*
X43695309Y-55396464D01*
X43568048Y-55311431D01*
X43426643Y-55252859D01*
X43276528Y-55223000D01*
X43132935Y-55223000D01*
X40859935Y-52950000D01*
X44971176Y-52950000D01*
X44971176Y-54650000D01*
X44978455Y-54723905D01*
X45000012Y-54794970D01*
X45035019Y-54860463D01*
X45082131Y-54917869D01*
X45139537Y-54964981D01*
X45205030Y-54999988D01*
X45276095Y-55021545D01*
X45350000Y-55028824D01*
X47050000Y-55028824D01*
X47123905Y-55021545D01*
X47194970Y-54999988D01*
X47260463Y-54964981D01*
X47317869Y-54917869D01*
X47364981Y-54860463D01*
X47399988Y-54794970D01*
X47421545Y-54723905D01*
X47428824Y-54650000D01*
X47428824Y-54364377D01*
X60423000Y-54364377D01*
X60423000Y-54635623D01*
X60475917Y-54901656D01*
X60579718Y-55152254D01*
X60730414Y-55377787D01*
X60922213Y-55569586D01*
X61147746Y-55720282D01*
X61398344Y-55824083D01*
X61664377Y-55877000D01*
X61935623Y-55877000D01*
X62201656Y-55824083D01*
X62452254Y-55720282D01*
X62677787Y-55569586D01*
X62869586Y-55377787D01*
X63020282Y-55152254D01*
X63124083Y-54901656D01*
X63177000Y-54635623D01*
X63177000Y-54364377D01*
X63124083Y-54098344D01*
X63020282Y-53847746D01*
X62869586Y-53622213D01*
X62677787Y-53430414D01*
X62452254Y-53279718D01*
X62201656Y-53175917D01*
X61935623Y-53123000D01*
X61664377Y-53123000D01*
X61398344Y-53175917D01*
X61147746Y-53279718D01*
X60922213Y-53430414D01*
X60730414Y-53622213D01*
X60579718Y-53847746D01*
X60475917Y-54098344D01*
X60423000Y-54364377D01*
X47428824Y-54364377D01*
X47428824Y-52950000D01*
X47421545Y-52876095D01*
X47399988Y-52805030D01*
X47364981Y-52739537D01*
X47317869Y-52682131D01*
X47260463Y-52635019D01*
X47194970Y-52600012D01*
X47123905Y-52578455D01*
X47050000Y-52571176D01*
X45350000Y-52571176D01*
X45276095Y-52578455D01*
X45205030Y-52600012D01*
X45139537Y-52635019D01*
X45082131Y-52682131D01*
X45035019Y-52739537D01*
X45000012Y-52805030D01*
X44978455Y-52876095D01*
X44971176Y-52950000D01*
X40859935Y-52950000D01*
X40372402Y-52462468D01*
X40356684Y-52443316D01*
X40280245Y-52380583D01*
X40193036Y-52333969D01*
X40098409Y-52305264D01*
X40024653Y-52298000D01*
X40024643Y-52298000D01*
X40000000Y-52295573D01*
X39975357Y-52298000D01*
X36596845Y-52298000D01*
X36495309Y-52196464D01*
X36368048Y-52111431D01*
X36226643Y-52052859D01*
X36076528Y-52023000D01*
X35923472Y-52023000D01*
X35773357Y-52052859D01*
X35631952Y-52111431D01*
X35504691Y-52196464D01*
X35396464Y-52304691D01*
X35311431Y-52431952D01*
X35252859Y-52573357D01*
X35223000Y-52723472D01*
X27915375Y-52723472D01*
X27893345Y-52714347D01*
X27434114Y-52623000D01*
X26965886Y-52623000D01*
X26506655Y-52714347D01*
X26074068Y-52893530D01*
X25684751Y-53153664D01*
X25353664Y-53484751D01*
X25093530Y-53874068D01*
X24914347Y-54306655D01*
X24823000Y-54765886D01*
X21127000Y-54765886D01*
X21127000Y-53105000D01*
X21427000Y-53105000D01*
X21655742Y-53057454D01*
X21870813Y-52966196D01*
X22063948Y-52834734D01*
X22227725Y-52668119D01*
X22355850Y-52472754D01*
X22443399Y-52256147D01*
X22443803Y-52229744D01*
X23356197Y-52229744D01*
X23356601Y-52256147D01*
X23444150Y-52472754D01*
X23572275Y-52668119D01*
X23736052Y-52834734D01*
X23929187Y-52966196D01*
X24144258Y-53057454D01*
X24373000Y-53105000D01*
X24673000Y-53105000D01*
X24673000Y-52047000D01*
X24927000Y-52047000D01*
X24927000Y-53105000D01*
X25227000Y-53105000D01*
X25455742Y-53057454D01*
X25670813Y-52966196D01*
X25863948Y-52834734D01*
X26027725Y-52668119D01*
X26155850Y-52472754D01*
X26243399Y-52256147D01*
X26243803Y-52229744D01*
X26118361Y-52047000D01*
X24927000Y-52047000D01*
X24673000Y-52047000D01*
X23481639Y-52047000D01*
X23356197Y-52229744D01*
X22443803Y-52229744D01*
X22318361Y-52047000D01*
X21127000Y-52047000D01*
X21127000Y-51793000D01*
X22318361Y-51793000D01*
X22443803Y-51610256D01*
X23356197Y-51610256D01*
X23481639Y-51793000D01*
X24673000Y-51793000D01*
X24673000Y-50735000D01*
X24927000Y-50735000D01*
X24927000Y-51793000D01*
X26118361Y-51793000D01*
X26243803Y-51610256D01*
X26243399Y-51583853D01*
X26155850Y-51367246D01*
X26027725Y-51171881D01*
X25863948Y-51005266D01*
X25670813Y-50873804D01*
X25455742Y-50782546D01*
X25227000Y-50735000D01*
X24927000Y-50735000D01*
X24673000Y-50735000D01*
X24373000Y-50735000D01*
X24144258Y-50782546D01*
X23929187Y-50873804D01*
X23736052Y-51005266D01*
X23572275Y-51171881D01*
X23444150Y-51367246D01*
X23356601Y-51583853D01*
X23356197Y-51610256D01*
X22443803Y-51610256D01*
X22443399Y-51583853D01*
X22355850Y-51367246D01*
X22227725Y-51171881D01*
X22063948Y-51005266D01*
X21870813Y-50873804D01*
X21655742Y-50782546D01*
X21427000Y-50735000D01*
X21127000Y-50735000D01*
X21127000Y-47000000D01*
X59113918Y-47000000D01*
X59150159Y-47367956D01*
X59257487Y-47721772D01*
X59431780Y-48047851D01*
X59666339Y-48333661D01*
X59952149Y-48568220D01*
X60278228Y-48742513D01*
X60632044Y-48849841D01*
X60907790Y-48877000D01*
X62092210Y-48877000D01*
X62367956Y-48849841D01*
X62721772Y-48742513D01*
X63047851Y-48568220D01*
X63333661Y-48333661D01*
X63568220Y-48047851D01*
X63742513Y-47721772D01*
X63849841Y-47367956D01*
X63865000Y-47214046D01*
X63865000Y-47627000D01*
X63930800Y-48041078D01*
X64076118Y-48434362D01*
X64295370Y-48791739D01*
X64580130Y-49099475D01*
X64919454Y-49345744D01*
X65300303Y-49521083D01*
X65541167Y-49585113D01*
X65873000Y-49472165D01*
X65873000Y-47127000D01*
X66127000Y-47127000D01*
X66127000Y-49472165D01*
X66458833Y-49585113D01*
X66699697Y-49521083D01*
X67080546Y-49345744D01*
X67419870Y-49099475D01*
X67704630Y-48791739D01*
X67923882Y-48434362D01*
X68069200Y-48041078D01*
X68135000Y-47627000D01*
X68135000Y-47127000D01*
X66127000Y-47127000D01*
X65873000Y-47127000D01*
X65853000Y-47127000D01*
X65853000Y-46873000D01*
X65873000Y-46873000D01*
X65873000Y-44527835D01*
X66127000Y-44527835D01*
X66127000Y-46873000D01*
X68135000Y-46873000D01*
X68135000Y-46373000D01*
X68069200Y-45958922D01*
X67923882Y-45565638D01*
X67704630Y-45208261D01*
X67419870Y-44900525D01*
X67080546Y-44654256D01*
X66699697Y-44478917D01*
X66458833Y-44414887D01*
X66127000Y-44527835D01*
X65873000Y-44527835D01*
X65541167Y-44414887D01*
X65300303Y-44478917D01*
X64919454Y-44654256D01*
X64580130Y-44900525D01*
X64295370Y-45208261D01*
X64076118Y-45565638D01*
X63930800Y-45958922D01*
X63865000Y-46373000D01*
X63865000Y-46785954D01*
X63849841Y-46632044D01*
X63742513Y-46278228D01*
X63568220Y-45952149D01*
X63333661Y-45666339D01*
X63047851Y-45431780D01*
X62721772Y-45257487D01*
X62367956Y-45150159D01*
X62092210Y-45123000D01*
X60907790Y-45123000D01*
X60632044Y-45150159D01*
X60278228Y-45257487D01*
X59952149Y-45431780D01*
X59666339Y-45666339D01*
X59431780Y-45952149D01*
X59257487Y-46278228D01*
X59150159Y-46632044D01*
X59113918Y-47000000D01*
X21127000Y-47000000D01*
X21127000Y-44465000D01*
X21427000Y-44465000D01*
X21655742Y-44417454D01*
X21870813Y-44326196D01*
X22063948Y-44194734D01*
X22227725Y-44028119D01*
X22355850Y-43832754D01*
X22443399Y-43616147D01*
X22443803Y-43589744D01*
X23356197Y-43589744D01*
X23356601Y-43616147D01*
X23444150Y-43832754D01*
X23572275Y-44028119D01*
X23736052Y-44194734D01*
X23929187Y-44326196D01*
X24144258Y-44417454D01*
X24373000Y-44465000D01*
X24673000Y-44465000D01*
X24673000Y-43407000D01*
X24927000Y-43407000D01*
X24927000Y-44465000D01*
X25227000Y-44465000D01*
X25455742Y-44417454D01*
X25670813Y-44326196D01*
X25863948Y-44194734D01*
X26027725Y-44028119D01*
X26155850Y-43832754D01*
X26243399Y-43616147D01*
X26243803Y-43589744D01*
X26118361Y-43407000D01*
X24927000Y-43407000D01*
X24673000Y-43407000D01*
X23481639Y-43407000D01*
X23356197Y-43589744D01*
X22443803Y-43589744D01*
X22318361Y-43407000D01*
X21127000Y-43407000D01*
X21127000Y-43153000D01*
X22318361Y-43153000D01*
X22443803Y-42970256D01*
X23356197Y-42970256D01*
X23481639Y-43153000D01*
X24673000Y-43153000D01*
X24673000Y-42095000D01*
X24927000Y-42095000D01*
X24927000Y-43153000D01*
X26118361Y-43153000D01*
X26243803Y-42970256D01*
X26243399Y-42943853D01*
X26155850Y-42727246D01*
X26027725Y-42531881D01*
X25863948Y-42365266D01*
X25670813Y-42233804D01*
X25455742Y-42142546D01*
X25227000Y-42095000D01*
X24927000Y-42095000D01*
X24673000Y-42095000D01*
X24373000Y-42095000D01*
X24144258Y-42142546D01*
X23929187Y-42233804D01*
X23736052Y-42365266D01*
X23572275Y-42531881D01*
X23444150Y-42727246D01*
X23356601Y-42943853D01*
X23356197Y-42970256D01*
X22443803Y-42970256D01*
X22443399Y-42943853D01*
X22355850Y-42727246D01*
X22227725Y-42531881D01*
X22063948Y-42365266D01*
X21870813Y-42233804D01*
X21655742Y-42142546D01*
X21427000Y-42095000D01*
X21127000Y-42095000D01*
X21127000Y-41552606D01*
X21552606Y-41127000D01*
X64772075Y-41127000D01*
X64736227Y-41162848D01*
G04 #@! TA.AperFunction,Conductor*
D27*
G36*
X64736227Y-41162848D02*
G01*
X64558172Y-41429327D01*
X64435525Y-41725422D01*
X64373000Y-42039755D01*
X64373000Y-42360245D01*
X64435525Y-42674578D01*
X64558172Y-42970673D01*
X64736227Y-43237152D01*
X64962848Y-43463773D01*
X65229327Y-43641828D01*
X65525422Y-43764475D01*
X65839755Y-43827000D01*
X66160245Y-43827000D01*
X66474578Y-43764475D01*
X66770673Y-43641828D01*
X67037152Y-43463773D01*
X67263773Y-43237152D01*
X67441828Y-42970673D01*
X67564475Y-42674578D01*
X67627000Y-42360245D01*
X67627000Y-42039755D01*
X67564475Y-41725422D01*
X67441828Y-41429327D01*
X67263773Y-41162848D01*
X67227925Y-41127000D01*
X68447394Y-41127000D01*
X68873000Y-41552606D01*
X68873000Y-49963713D01*
X68699110Y-49998301D01*
X68421214Y-50113410D01*
X68171114Y-50280521D01*
X67958421Y-50493214D01*
X67791310Y-50743314D01*
X67676201Y-51021210D01*
X67617520Y-51316224D01*
X67617520Y-51617016D01*
X67676201Y-51912030D01*
X67791310Y-52189926D01*
X67958421Y-52440026D01*
X68171114Y-52652719D01*
X68421214Y-52819830D01*
X68699110Y-52934939D01*
X68873000Y-52969527D01*
X68873000Y-71030473D01*
X68699110Y-71065061D01*
X68421214Y-71180170D01*
X68171114Y-71347281D01*
X67958421Y-71559974D01*
X67791310Y-71810074D01*
X67676201Y-72087970D01*
X67617520Y-72382984D01*
X67617520Y-72683776D01*
X67676201Y-72978790D01*
X67791310Y-73256686D01*
X67958421Y-73506786D01*
X68171114Y-73719479D01*
X68421214Y-73886590D01*
X68699110Y-74001699D01*
X68873000Y-74036287D01*
X68873000Y-84899162D01*
X68719175Y-84929760D01*
X68450378Y-85041099D01*
X68208467Y-85202739D01*
X68002739Y-85408467D01*
X67841099Y-85650378D01*
X67729760Y-85919175D01*
X67673000Y-86204528D01*
X67673000Y-86495472D01*
X67729760Y-86780825D01*
X67841099Y-87049622D01*
X68002739Y-87291533D01*
X68208467Y-87497261D01*
X68450378Y-87658901D01*
X68719175Y-87770240D01*
X68873000Y-87800838D01*
X68873000Y-93399162D01*
X68719175Y-93429760D01*
X68450378Y-93541099D01*
X68208467Y-93702739D01*
X68002739Y-93908467D01*
X67841099Y-94150378D01*
X67729760Y-94419175D01*
X67673000Y-94704528D01*
X67673000Y-94995472D01*
X67729760Y-95280825D01*
X67841099Y-95549622D01*
X68002739Y-95791533D01*
X68208467Y-95997261D01*
X68450378Y-96158901D01*
X68719175Y-96270240D01*
X68873000Y-96300838D01*
X68873000Y-97919162D01*
X68719175Y-97949760D01*
X68450378Y-98061099D01*
X68208467Y-98222739D01*
X68002739Y-98428467D01*
X67841099Y-98670378D01*
X67729760Y-98939175D01*
X67673000Y-99224528D01*
X67673000Y-99515472D01*
X67729760Y-99800825D01*
X67841099Y-100069622D01*
X68002739Y-100311533D01*
X68208467Y-100517261D01*
X68450378Y-100678901D01*
X68719175Y-100790240D01*
X68873000Y-100820838D01*
X68873000Y-106419162D01*
X68719175Y-106449760D01*
X68450378Y-106561099D01*
X68208467Y-106722739D01*
X68002739Y-106928467D01*
X67841099Y-107170378D01*
X67729760Y-107439175D01*
X67673000Y-107724528D01*
X67673000Y-108015472D01*
X67729760Y-108300825D01*
X67841099Y-108569622D01*
X68002739Y-108811533D01*
X68064206Y-108873000D01*
X28958585Y-108873000D01*
X29046336Y-108785249D01*
X29306470Y-108395932D01*
X29485653Y-107963345D01*
X29577000Y-107504114D01*
X29577000Y-107035886D01*
X29485653Y-106576655D01*
X29306470Y-106144068D01*
X29046336Y-105754751D01*
X28715249Y-105423664D01*
X28325932Y-105163530D01*
X27893345Y-104984347D01*
X27434114Y-104893000D01*
X26965886Y-104893000D01*
X26506655Y-104984347D01*
X26074068Y-105163530D01*
X25684751Y-105423664D01*
X25353664Y-105754751D01*
X25093530Y-106144068D01*
X24914347Y-106576655D01*
X24823000Y-107035886D01*
X24823000Y-107504114D01*
X24914347Y-107963345D01*
X25093530Y-108395932D01*
X25353664Y-108785249D01*
X25441415Y-108873000D01*
X21552606Y-108873000D01*
X21127000Y-108447394D01*
X21127000Y-103435132D01*
X59623000Y-103435132D01*
X59623000Y-103804868D01*
X59695132Y-104167501D01*
X59836624Y-104509093D01*
X60042039Y-104816518D01*
X60303482Y-105077961D01*
X60610907Y-105283376D01*
X60952499Y-105424868D01*
X61315132Y-105497000D01*
X61684868Y-105497000D01*
X62047501Y-105424868D01*
X62389093Y-105283376D01*
X62696518Y-105077961D01*
X62957961Y-104816518D01*
X63163376Y-104509093D01*
X63304868Y-104167501D01*
X63322505Y-104078833D01*
X63914883Y-104078833D01*
X64044462Y-104476803D01*
X64249191Y-104841846D01*
X64521203Y-105159934D01*
X64850044Y-105418844D01*
X65223077Y-105608625D01*
X65541167Y-105705113D01*
X65873000Y-105592165D01*
X65873000Y-103747000D01*
X66127000Y-103747000D01*
X66127000Y-105592165D01*
X66458833Y-105705113D01*
X66776923Y-105608625D01*
X67149956Y-105418844D01*
X67478797Y-105159934D01*
X67750809Y-104841846D01*
X67955538Y-104476803D01*
X68085117Y-104078833D01*
X67972473Y-103747000D01*
X66127000Y-103747000D01*
X65873000Y-103747000D01*
X64027527Y-103747000D01*
X63914883Y-104078833D01*
X63322505Y-104078833D01*
X63377000Y-103804868D01*
X63377000Y-103435132D01*
X63322506Y-103161167D01*
X63914883Y-103161167D01*
X64027527Y-103493000D01*
X65873000Y-103493000D01*
X65873000Y-101647835D01*
X66127000Y-101647835D01*
X66127000Y-103493000D01*
X67972473Y-103493000D01*
X68085117Y-103161167D01*
X67955538Y-102763197D01*
X67750809Y-102398154D01*
X67478797Y-102080066D01*
X67149956Y-101821156D01*
X66776923Y-101631375D01*
X66458833Y-101534887D01*
X66127000Y-101647835D01*
X65873000Y-101647835D01*
X65541167Y-101534887D01*
X65223077Y-101631375D01*
X64850044Y-101821156D01*
X64521203Y-102080066D01*
X64249191Y-102398154D01*
X64044462Y-102763197D01*
X63914883Y-103161167D01*
X63322506Y-103161167D01*
X63304868Y-103072499D01*
X63163376Y-102730907D01*
X62957961Y-102423482D01*
X62696518Y-102162039D01*
X62389093Y-101956624D01*
X62047501Y-101815132D01*
X61684868Y-101743000D01*
X61315132Y-101743000D01*
X60952499Y-101815132D01*
X60610907Y-101956624D01*
X60303482Y-102162039D01*
X60042039Y-102423482D01*
X59836624Y-102730907D01*
X59695132Y-103072499D01*
X59623000Y-103435132D01*
X21127000Y-103435132D01*
X21127000Y-99759528D01*
X33003000Y-99759528D01*
X33003000Y-100050472D01*
X33059760Y-100335825D01*
X33171099Y-100604622D01*
X33332739Y-100846533D01*
X33538467Y-101052261D01*
X33780378Y-101213901D01*
X34049175Y-101325240D01*
X34334528Y-101382000D01*
X34625472Y-101382000D01*
X34910825Y-101325240D01*
X35179622Y-101213901D01*
X35421533Y-101052261D01*
X35627261Y-100846533D01*
X35788901Y-100604622D01*
X35900240Y-100335825D01*
X35957000Y-100050472D01*
X35957000Y-99759528D01*
X35900240Y-99474175D01*
X35788901Y-99205378D01*
X35627261Y-98963467D01*
X35421533Y-98757739D01*
X35179622Y-98596099D01*
X34910825Y-98484760D01*
X34625472Y-98428000D01*
X34334528Y-98428000D01*
X34049175Y-98484760D01*
X33780378Y-98596099D01*
X33538467Y-98757739D01*
X33332739Y-98963467D01*
X33171099Y-99205378D01*
X33059760Y-99474175D01*
X33003000Y-99759528D01*
X21127000Y-99759528D01*
X21127000Y-97854528D01*
X27923000Y-97854528D01*
X27923000Y-98145472D01*
X27979760Y-98430825D01*
X28091099Y-98699622D01*
X28252739Y-98941533D01*
X28458467Y-99147261D01*
X28700378Y-99308901D01*
X28969175Y-99420240D01*
X29254528Y-99477000D01*
X29545472Y-99477000D01*
X29830825Y-99420240D01*
X30099622Y-99308901D01*
X30341533Y-99147261D01*
X30547261Y-98941533D01*
X30708901Y-98699622D01*
X30820240Y-98430825D01*
X30877000Y-98145472D01*
X30877000Y-97854528D01*
X30820240Y-97569175D01*
X30708901Y-97300378D01*
X30547261Y-97058467D01*
X30341533Y-96852739D01*
X30099622Y-96691099D01*
X29830825Y-96579760D01*
X29545472Y-96523000D01*
X29254528Y-96523000D01*
X28969175Y-96579760D01*
X28700378Y-96691099D01*
X28458467Y-96852739D01*
X28252739Y-97058467D01*
X28091099Y-97300378D01*
X27979760Y-97569175D01*
X27923000Y-97854528D01*
X21127000Y-97854528D01*
X21127000Y-95949528D01*
X33003000Y-95949528D01*
X33003000Y-96240472D01*
X33059760Y-96525825D01*
X33171099Y-96794622D01*
X33332739Y-97036533D01*
X33538467Y-97242261D01*
X33780378Y-97403901D01*
X34049175Y-97515240D01*
X34334528Y-97572000D01*
X34625472Y-97572000D01*
X34910825Y-97515240D01*
X35179622Y-97403901D01*
X35421533Y-97242261D01*
X35627261Y-97036533D01*
X35788901Y-96794622D01*
X35900240Y-96525825D01*
X35957000Y-96240472D01*
X35957000Y-95949528D01*
X35900240Y-95664175D01*
X35788901Y-95395378D01*
X35627261Y-95153467D01*
X35421533Y-94947739D01*
X35179622Y-94786099D01*
X34910825Y-94674760D01*
X34625472Y-94618000D01*
X34334528Y-94618000D01*
X34049175Y-94674760D01*
X33780378Y-94786099D01*
X33538467Y-94947739D01*
X33332739Y-95153467D01*
X33171099Y-95395378D01*
X33059760Y-95664175D01*
X33003000Y-95949528D01*
X21127000Y-95949528D01*
X21127000Y-95396712D01*
X28372893Y-95396712D01*
X28480726Y-95671338D01*
X28787384Y-95822216D01*
X29117585Y-95910369D01*
X29458639Y-95932409D01*
X29797439Y-95887489D01*
X30120966Y-95777336D01*
X30319274Y-95671338D01*
X30427107Y-95396712D01*
X29400000Y-94369605D01*
X28372893Y-95396712D01*
X21127000Y-95396712D01*
X21127000Y-94248639D01*
X27657591Y-94248639D01*
X27702511Y-94587439D01*
X27812664Y-94910966D01*
X27918662Y-95109274D01*
X28193288Y-95217107D01*
X29220395Y-94190000D01*
X29579605Y-94190000D01*
X30606712Y-95217107D01*
X30881338Y-95109274D01*
X31032216Y-94802616D01*
X31120369Y-94472415D01*
X31142409Y-94131361D01*
X31097489Y-93792561D01*
X30995058Y-93491712D01*
X33452893Y-93491712D01*
X33560726Y-93766338D01*
X33867384Y-93917216D01*
X34197585Y-94005369D01*
X34538639Y-94027409D01*
X34877439Y-93982489D01*
X35200966Y-93872336D01*
X35399274Y-93766338D01*
X35507107Y-93491712D01*
X34480000Y-92464605D01*
X33452893Y-93491712D01*
X30995058Y-93491712D01*
X30987336Y-93469034D01*
X30881338Y-93270726D01*
X30606712Y-93162893D01*
X29579605Y-94190000D01*
X29220395Y-94190000D01*
X28193288Y-93162893D01*
X27918662Y-93270726D01*
X27767784Y-93577384D01*
X27679631Y-93907585D01*
X27657591Y-94248639D01*
X21127000Y-94248639D01*
X21127000Y-92983288D01*
X28372893Y-92983288D01*
X29400000Y-94010395D01*
X30427107Y-92983288D01*
X30319274Y-92708662D01*
X30012616Y-92557784D01*
X29682415Y-92469631D01*
X29341361Y-92447591D01*
X29002561Y-92492511D01*
X28679034Y-92602664D01*
X28480726Y-92708662D01*
X28372893Y-92983288D01*
X21127000Y-92983288D01*
X21127000Y-92343639D01*
X32737591Y-92343639D01*
X32782511Y-92682439D01*
X32892664Y-93005966D01*
X32998662Y-93204274D01*
X33273288Y-93312107D01*
X34300395Y-92285000D01*
X34659605Y-92285000D01*
X35686712Y-93312107D01*
X35961338Y-93204274D01*
X36112216Y-92897616D01*
X36200369Y-92567415D01*
X36222409Y-92226361D01*
X36177489Y-91887561D01*
X36067336Y-91564034D01*
X35961338Y-91365726D01*
X35686712Y-91257893D01*
X34659605Y-92285000D01*
X34300395Y-92285000D01*
X33273288Y-91257893D01*
X32998662Y-91365726D01*
X32847784Y-91672384D01*
X32759631Y-92002585D01*
X32737591Y-92343639D01*
X21127000Y-92343639D01*
X21127000Y-90234528D01*
X27923000Y-90234528D01*
X27923000Y-90525472D01*
X27979760Y-90810825D01*
X28091099Y-91079622D01*
X28252739Y-91321533D01*
X28458467Y-91527261D01*
X28700378Y-91688901D01*
X28969175Y-91800240D01*
X29254528Y-91857000D01*
X29545472Y-91857000D01*
X29830825Y-91800240D01*
X30099622Y-91688901D01*
X30341533Y-91527261D01*
X30547261Y-91321533D01*
X30708901Y-91079622D01*
X30709453Y-91078288D01*
X33452893Y-91078288D01*
X34480000Y-92105395D01*
X35507107Y-91078288D01*
X35399274Y-90803662D01*
X35092616Y-90652784D01*
X34762415Y-90564631D01*
X34421361Y-90542591D01*
X34082561Y-90587511D01*
X33759034Y-90697664D01*
X33560726Y-90803662D01*
X33452893Y-91078288D01*
X30709453Y-91078288D01*
X30820240Y-90810825D01*
X30877000Y-90525472D01*
X30877000Y-90415132D01*
X59623000Y-90415132D01*
X59623000Y-90784868D01*
X59695132Y-91147501D01*
X59836624Y-91489093D01*
X60042039Y-91796518D01*
X60303482Y-92057961D01*
X60610907Y-92263376D01*
X60952499Y-92404868D01*
X61315132Y-92477000D01*
X61684868Y-92477000D01*
X62047501Y-92404868D01*
X62389093Y-92263376D01*
X62696518Y-92057961D01*
X62957961Y-91796518D01*
X63163376Y-91489093D01*
X63304868Y-91147501D01*
X63322505Y-91058833D01*
X63914883Y-91058833D01*
X64044462Y-91456803D01*
X64249191Y-91821846D01*
X64521203Y-92139934D01*
X64850044Y-92398844D01*
X65223077Y-92588625D01*
X65541167Y-92685113D01*
X65873000Y-92572165D01*
X65873000Y-90727000D01*
X66127000Y-90727000D01*
X66127000Y-92572165D01*
X66458833Y-92685113D01*
X66776923Y-92588625D01*
X67149956Y-92398844D01*
X67478797Y-92139934D01*
X67750809Y-91821846D01*
X67955538Y-91456803D01*
X68085117Y-91058833D01*
X67972473Y-90727000D01*
X66127000Y-90727000D01*
X65873000Y-90727000D01*
X64027527Y-90727000D01*
X63914883Y-91058833D01*
X63322505Y-91058833D01*
X63377000Y-90784868D01*
X63377000Y-90415132D01*
X63322506Y-90141167D01*
X63914883Y-90141167D01*
X64027527Y-90473000D01*
X65873000Y-90473000D01*
X65873000Y-88627835D01*
X66127000Y-88627835D01*
X66127000Y-90473000D01*
X67972473Y-90473000D01*
X68085117Y-90141167D01*
X67955538Y-89743197D01*
X67750809Y-89378154D01*
X67478797Y-89060066D01*
X67149956Y-88801156D01*
X66776923Y-88611375D01*
X66458833Y-88514887D01*
X66127000Y-88627835D01*
X65873000Y-88627835D01*
X65541167Y-88514887D01*
X65223077Y-88611375D01*
X64850044Y-88801156D01*
X64521203Y-89060066D01*
X64249191Y-89378154D01*
X64044462Y-89743197D01*
X63914883Y-90141167D01*
X63322506Y-90141167D01*
X63304868Y-90052499D01*
X63163376Y-89710907D01*
X62957961Y-89403482D01*
X62696518Y-89142039D01*
X62389093Y-88936624D01*
X62047501Y-88795132D01*
X61684868Y-88723000D01*
X61315132Y-88723000D01*
X60952499Y-88795132D01*
X60610907Y-88936624D01*
X60303482Y-89142039D01*
X60042039Y-89403482D01*
X59836624Y-89710907D01*
X59695132Y-90052499D01*
X59623000Y-90415132D01*
X30877000Y-90415132D01*
X30877000Y-90234528D01*
X30820240Y-89949175D01*
X30708901Y-89680378D01*
X30547261Y-89438467D01*
X30341533Y-89232739D01*
X30099622Y-89071099D01*
X29830825Y-88959760D01*
X29545472Y-88903000D01*
X29254528Y-88903000D01*
X28969175Y-88959760D01*
X28700378Y-89071099D01*
X28458467Y-89232739D01*
X28252739Y-89438467D01*
X28091099Y-89680378D01*
X27979760Y-89949175D01*
X27923000Y-90234528D01*
X21127000Y-90234528D01*
X21127000Y-88645340D01*
X22754265Y-88645340D01*
X23000416Y-89037704D01*
X23502822Y-89303312D01*
X24047393Y-89465801D01*
X24613199Y-89518928D01*
X25178498Y-89460652D01*
X25721566Y-89293210D01*
X26199584Y-89037704D01*
X26445735Y-88645340D01*
X24600000Y-86799605D01*
X22754265Y-88645340D01*
X21127000Y-88645340D01*
X21127000Y-86633199D01*
X21701072Y-86633199D01*
X21759348Y-87198498D01*
X21926790Y-87741566D01*
X22182296Y-88219584D01*
X22574660Y-88465735D01*
X24420395Y-86620000D01*
X24779605Y-86620000D01*
X26625340Y-88465735D01*
X26842453Y-88329528D01*
X33003000Y-88329528D01*
X33003000Y-88620472D01*
X33059760Y-88905825D01*
X33171099Y-89174622D01*
X33332739Y-89416533D01*
X33538467Y-89622261D01*
X33780378Y-89783901D01*
X34049175Y-89895240D01*
X34334528Y-89952000D01*
X34625472Y-89952000D01*
X34910825Y-89895240D01*
X35179622Y-89783901D01*
X35421533Y-89622261D01*
X35627261Y-89416533D01*
X35788901Y-89174622D01*
X35900240Y-88905825D01*
X35957000Y-88620472D01*
X35957000Y-88329528D01*
X35900240Y-88044175D01*
X35788901Y-87775378D01*
X35627261Y-87533467D01*
X35421533Y-87327739D01*
X35179622Y-87166099D01*
X34910825Y-87054760D01*
X34625472Y-86998000D01*
X34334528Y-86998000D01*
X34049175Y-87054760D01*
X33780378Y-87166099D01*
X33538467Y-87327739D01*
X33332739Y-87533467D01*
X33171099Y-87775378D01*
X33059760Y-88044175D01*
X33003000Y-88329528D01*
X26842453Y-88329528D01*
X27017704Y-88219584D01*
X27283312Y-87717178D01*
X27445801Y-87172607D01*
X27498928Y-86606801D01*
X27480138Y-86424528D01*
X27923000Y-86424528D01*
X27923000Y-86715472D01*
X27979760Y-87000825D01*
X28091099Y-87269622D01*
X28252739Y-87511533D01*
X28458467Y-87717261D01*
X28700378Y-87878901D01*
X28969175Y-87990240D01*
X29254528Y-88047000D01*
X29545472Y-88047000D01*
X29830825Y-87990240D01*
X30099622Y-87878901D01*
X30341533Y-87717261D01*
X30547261Y-87511533D01*
X30708901Y-87269622D01*
X30820240Y-87000825D01*
X30877000Y-86715472D01*
X30877000Y-86424528D01*
X30820240Y-86139175D01*
X30709454Y-85871712D01*
X33452893Y-85871712D01*
X33560726Y-86146338D01*
X33867384Y-86297216D01*
X34197585Y-86385369D01*
X34538639Y-86407409D01*
X34877439Y-86362489D01*
X35200966Y-86252336D01*
X35399274Y-86146338D01*
X35507107Y-85871712D01*
X34480000Y-84844605D01*
X33452893Y-85871712D01*
X30709454Y-85871712D01*
X30708901Y-85870378D01*
X30547261Y-85628467D01*
X30341533Y-85422739D01*
X30099622Y-85261099D01*
X29830825Y-85149760D01*
X29545472Y-85093000D01*
X29254528Y-85093000D01*
X28969175Y-85149760D01*
X28700378Y-85261099D01*
X28458467Y-85422739D01*
X28252739Y-85628467D01*
X28091099Y-85870378D01*
X27979760Y-86139175D01*
X27923000Y-86424528D01*
X27480138Y-86424528D01*
X27440652Y-86041502D01*
X27273210Y-85498434D01*
X27017704Y-85020416D01*
X26625340Y-84774265D01*
X24779605Y-86620000D01*
X24420395Y-86620000D01*
X22574660Y-84774265D01*
X22182296Y-85020416D01*
X21916688Y-85522822D01*
X21754199Y-86067393D01*
X21701072Y-86633199D01*
X21127000Y-86633199D01*
X21127000Y-84594660D01*
X22754265Y-84594660D01*
X24600000Y-86440395D01*
X26316756Y-84723639D01*
X32737591Y-84723639D01*
X32782511Y-85062439D01*
X32892664Y-85385966D01*
X32998662Y-85584274D01*
X33273288Y-85692107D01*
X34300395Y-84665000D01*
X34659605Y-84665000D01*
X35686712Y-85692107D01*
X35961338Y-85584274D01*
X36112216Y-85277616D01*
X36200369Y-84947415D01*
X36222409Y-84606361D01*
X36177489Y-84267561D01*
X36067336Y-83944034D01*
X35961338Y-83745726D01*
X35686712Y-83637893D01*
X34659605Y-84665000D01*
X34300395Y-84665000D01*
X33273288Y-83637893D01*
X32998662Y-83745726D01*
X32847784Y-84052384D01*
X32759631Y-84382585D01*
X32737591Y-84723639D01*
X26316756Y-84723639D01*
X26445735Y-84594660D01*
X26199584Y-84202296D01*
X25697178Y-83936688D01*
X25152607Y-83774199D01*
X24586801Y-83721072D01*
X24021502Y-83779348D01*
X23478434Y-83946790D01*
X23000416Y-84202296D01*
X22754265Y-84594660D01*
X21127000Y-84594660D01*
X21127000Y-82614528D01*
X27923000Y-82614528D01*
X27923000Y-82905472D01*
X27979760Y-83190825D01*
X28091099Y-83459622D01*
X28252739Y-83701533D01*
X28458467Y-83907261D01*
X28700378Y-84068901D01*
X28969175Y-84180240D01*
X29254528Y-84237000D01*
X29545472Y-84237000D01*
X29830825Y-84180240D01*
X30099622Y-84068901D01*
X30341533Y-83907261D01*
X30547261Y-83701533D01*
X30708901Y-83459622D01*
X30709453Y-83458288D01*
X33452893Y-83458288D01*
X34480000Y-84485395D01*
X35507107Y-83458288D01*
X35399274Y-83183662D01*
X35092616Y-83032784D01*
X34762415Y-82944631D01*
X34421361Y-82922591D01*
X34082561Y-82967511D01*
X33759034Y-83077664D01*
X33560726Y-83183662D01*
X33452893Y-83458288D01*
X30709453Y-83458288D01*
X30820240Y-83190825D01*
X30877000Y-82905472D01*
X30877000Y-82614528D01*
X30820240Y-82329175D01*
X30708901Y-82060378D01*
X30547261Y-81818467D01*
X30341533Y-81612739D01*
X30099622Y-81451099D01*
X29830825Y-81339760D01*
X29545472Y-81283000D01*
X29254528Y-81283000D01*
X28969175Y-81339760D01*
X28700378Y-81451099D01*
X28458467Y-81612739D01*
X28252739Y-81818467D01*
X28091099Y-82060378D01*
X27979760Y-82329175D01*
X27923000Y-82614528D01*
X21127000Y-82614528D01*
X21127000Y-80572702D01*
X23786903Y-80572702D01*
X23858486Y-80816671D01*
X24113996Y-80937571D01*
X24388184Y-81006300D01*
X24670512Y-81020217D01*
X24950130Y-80978787D01*
X25216292Y-80883603D01*
X25341514Y-80816671D01*
X25372950Y-80709528D01*
X33003000Y-80709528D01*
X33003000Y-81000472D01*
X33059760Y-81285825D01*
X33171099Y-81554622D01*
X33332739Y-81796533D01*
X33538467Y-82002261D01*
X33780378Y-82163901D01*
X34049175Y-82275240D01*
X34334528Y-82332000D01*
X34625472Y-82332000D01*
X34910825Y-82275240D01*
X35179622Y-82163901D01*
X35421533Y-82002261D01*
X35627261Y-81796533D01*
X35732016Y-81639755D01*
X64373000Y-81639755D01*
X64373000Y-81960245D01*
X64435525Y-82274578D01*
X64558172Y-82570673D01*
X64736227Y-82837152D01*
X64962848Y-83063773D01*
X65229327Y-83241828D01*
X65525422Y-83364475D01*
X65839755Y-83427000D01*
X66160245Y-83427000D01*
X66474578Y-83364475D01*
X66770673Y-83241828D01*
X67037152Y-83063773D01*
X67263773Y-82837152D01*
X67441828Y-82570673D01*
X67564475Y-82274578D01*
X67627000Y-81960245D01*
X67627000Y-81639755D01*
X67564475Y-81325422D01*
X67441828Y-81029327D01*
X67263773Y-80762848D01*
X67037152Y-80536227D01*
X66770673Y-80358172D01*
X66474578Y-80235525D01*
X66160245Y-80173000D01*
X65839755Y-80173000D01*
X65525422Y-80235525D01*
X65229327Y-80358172D01*
X64962848Y-80536227D01*
X64736227Y-80762848D01*
X64558172Y-81029327D01*
X64435525Y-81325422D01*
X64373000Y-81639755D01*
X35732016Y-81639755D01*
X35788901Y-81554622D01*
X35900240Y-81285825D01*
X35957000Y-81000472D01*
X35957000Y-80709528D01*
X35900240Y-80424175D01*
X35788901Y-80155378D01*
X35627261Y-79913467D01*
X35421533Y-79707739D01*
X35179622Y-79546099D01*
X34910825Y-79434760D01*
X34625472Y-79378000D01*
X34334528Y-79378000D01*
X34049175Y-79434760D01*
X33780378Y-79546099D01*
X33538467Y-79707739D01*
X33332739Y-79913467D01*
X33171099Y-80155378D01*
X33059760Y-80424175D01*
X33003000Y-80709528D01*
X25372950Y-80709528D01*
X25413097Y-80572702D01*
X24600000Y-79759605D01*
X23786903Y-80572702D01*
X21127000Y-80572702D01*
X21127000Y-79650512D01*
X23159783Y-79650512D01*
X23201213Y-79930130D01*
X23296397Y-80196292D01*
X23363329Y-80321514D01*
X23607298Y-80393097D01*
X24420395Y-79580000D01*
X24779605Y-79580000D01*
X25592702Y-80393097D01*
X25836671Y-80321514D01*
X25957571Y-80066004D01*
X26026300Y-79791816D01*
X26040217Y-79509488D01*
X25998787Y-79229870D01*
X25903603Y-78963708D01*
X25836671Y-78838486D01*
X25592702Y-78766903D01*
X24779605Y-79580000D01*
X24420395Y-79580000D01*
X23607298Y-78766903D01*
X23363329Y-78838486D01*
X23242429Y-79093996D01*
X23173700Y-79368184D01*
X23159783Y-79650512D01*
X21127000Y-79650512D01*
X21127000Y-79162212D01*
X21145764Y-79190294D01*
X21309706Y-79354236D01*
X21502481Y-79483044D01*
X21716682Y-79571769D01*
X21944076Y-79617000D01*
X22175924Y-79617000D01*
X22403318Y-79571769D01*
X22617519Y-79483044D01*
X22810294Y-79354236D01*
X22974236Y-79190294D01*
X23103044Y-78997519D01*
X23191769Y-78783318D01*
X23237000Y-78555924D01*
X23237000Y-78324076D01*
X23228771Y-78282702D01*
X23786903Y-78282702D01*
X23831589Y-78435000D01*
X23786903Y-78587298D01*
X24600000Y-79400395D01*
X25413097Y-78587298D01*
X25368411Y-78435000D01*
X25413097Y-78282702D01*
X24600000Y-77469605D01*
X23786903Y-78282702D01*
X23228771Y-78282702D01*
X23191769Y-78096682D01*
X23103044Y-77882481D01*
X22974236Y-77689706D01*
X22810294Y-77525764D01*
X22617519Y-77396956D01*
X22529536Y-77360512D01*
X23159783Y-77360512D01*
X23201213Y-77640130D01*
X23296397Y-77906292D01*
X23363329Y-78031514D01*
X23607298Y-78103097D01*
X24420395Y-77290000D01*
X24779605Y-77290000D01*
X25592702Y-78103097D01*
X25836671Y-78031514D01*
X25957571Y-77776004D01*
X26026300Y-77501816D01*
X26040217Y-77219488D01*
X25998787Y-76939870D01*
X25903603Y-76673708D01*
X25836671Y-76548486D01*
X25592702Y-76476903D01*
X24779605Y-77290000D01*
X24420395Y-77290000D01*
X23607298Y-76476903D01*
X23363329Y-76548486D01*
X23242429Y-76803996D01*
X23173700Y-77078184D01*
X23159783Y-77360512D01*
X22529536Y-77360512D01*
X22403318Y-77308231D01*
X22336801Y-77295000D01*
X22403318Y-77281769D01*
X22617519Y-77193044D01*
X22810294Y-77064236D01*
X22974236Y-76900294D01*
X23103044Y-76707519D01*
X23191769Y-76493318D01*
X23237000Y-76265924D01*
X23237000Y-76034076D01*
X23228771Y-75992702D01*
X23786903Y-75992702D01*
X23831589Y-76145000D01*
X23786903Y-76297298D01*
X24600000Y-77110395D01*
X25413097Y-76297298D01*
X25368411Y-76145000D01*
X25413097Y-75992702D01*
X24600000Y-75179605D01*
X23786903Y-75992702D01*
X23228771Y-75992702D01*
X23191769Y-75806682D01*
X23103044Y-75592481D01*
X22974236Y-75399706D01*
X22810294Y-75235764D01*
X22617519Y-75106956D01*
X22529536Y-75070512D01*
X23159783Y-75070512D01*
X23201213Y-75350130D01*
X23296397Y-75616292D01*
X23363329Y-75741514D01*
X23607298Y-75813097D01*
X24420395Y-75000000D01*
X24779605Y-75000000D01*
X25592702Y-75813097D01*
X25836671Y-75741514D01*
X25957571Y-75486004D01*
X26026300Y-75211816D01*
X26040217Y-74929488D01*
X25998787Y-74649870D01*
X25903603Y-74383708D01*
X25836671Y-74258486D01*
X25592702Y-74186903D01*
X24779605Y-75000000D01*
X24420395Y-75000000D01*
X23607298Y-74186903D01*
X23363329Y-74258486D01*
X23242429Y-74513996D01*
X23173700Y-74788184D01*
X23159783Y-75070512D01*
X22529536Y-75070512D01*
X22403318Y-75018231D01*
X22336801Y-75005000D01*
X22403318Y-74991769D01*
X22617519Y-74903044D01*
X22810294Y-74774236D01*
X22974236Y-74610294D01*
X23103044Y-74417519D01*
X23191769Y-74203318D01*
X23237000Y-73975924D01*
X23237000Y-73744076D01*
X23191769Y-73516682D01*
X23103044Y-73302481D01*
X22974236Y-73109706D01*
X22810294Y-72945764D01*
X22617519Y-72816956D01*
X22403318Y-72728231D01*
X22336801Y-72715000D01*
X22403318Y-72701769D01*
X22617519Y-72613044D01*
X22645906Y-72594076D01*
X23423000Y-72594076D01*
X23423000Y-72825924D01*
X23468231Y-73053318D01*
X23556956Y-73267519D01*
X23685764Y-73460294D01*
X23849706Y-73624236D01*
X23969260Y-73704119D01*
X23858486Y-73763329D01*
X23786903Y-74007298D01*
X24600000Y-74820395D01*
X25413097Y-74007298D01*
X25341514Y-73763329D01*
X25224787Y-73708097D01*
X25350294Y-73624236D01*
X25514236Y-73460294D01*
X25643044Y-73267519D01*
X25731769Y-73053318D01*
X25777000Y-72825924D01*
X25777000Y-72594076D01*
X25731769Y-72366682D01*
X25643044Y-72152481D01*
X25514236Y-71959706D01*
X25350294Y-71795764D01*
X25230740Y-71715881D01*
X25341514Y-71656671D01*
X25400957Y-71454076D01*
X25963000Y-71454076D01*
X25963000Y-71685924D01*
X26008231Y-71913318D01*
X26096956Y-72127519D01*
X26225764Y-72320294D01*
X26389706Y-72484236D01*
X26582481Y-72613044D01*
X26796682Y-72701769D01*
X26863199Y-72715000D01*
X26796682Y-72728231D01*
X26582481Y-72816956D01*
X26389706Y-72945764D01*
X26225764Y-73109706D01*
X26096956Y-73302481D01*
X26008231Y-73516682D01*
X25963000Y-73744076D01*
X25963000Y-73975924D01*
X26008231Y-74203318D01*
X26096956Y-74417519D01*
X26225764Y-74610294D01*
X26389706Y-74774236D01*
X26582481Y-74903044D01*
X26796682Y-74991769D01*
X26863199Y-75005000D01*
X26796682Y-75018231D01*
X26582481Y-75106956D01*
X26389706Y-75235764D01*
X26225764Y-75399706D01*
X26096956Y-75592481D01*
X26008231Y-75806682D01*
X25963000Y-76034076D01*
X25963000Y-76265924D01*
X26008231Y-76493318D01*
X26096956Y-76707519D01*
X26225764Y-76900294D01*
X26389706Y-77064236D01*
X26582481Y-77193044D01*
X26796682Y-77281769D01*
X26863199Y-77295000D01*
X26796682Y-77308231D01*
X26582481Y-77396956D01*
X26389706Y-77525764D01*
X26225764Y-77689706D01*
X26096956Y-77882481D01*
X26008231Y-78096682D01*
X25963000Y-78324076D01*
X25963000Y-78555924D01*
X26008231Y-78783318D01*
X26096956Y-78997519D01*
X26225764Y-79190294D01*
X26389706Y-79354236D01*
X26582481Y-79483044D01*
X26796682Y-79571769D01*
X27024076Y-79617000D01*
X27255924Y-79617000D01*
X27483318Y-79571769D01*
X27697519Y-79483044D01*
X27890294Y-79354236D01*
X27960505Y-79284025D01*
X27979760Y-79380825D01*
X28091099Y-79649622D01*
X28252739Y-79891533D01*
X28458467Y-80097261D01*
X28700378Y-80258901D01*
X28969175Y-80370240D01*
X29254528Y-80427000D01*
X29545472Y-80427000D01*
X29830825Y-80370240D01*
X30099622Y-80258901D01*
X30341533Y-80097261D01*
X30547261Y-79891533D01*
X30708901Y-79649622D01*
X30820240Y-79380825D01*
X30877000Y-79095472D01*
X30877000Y-78804528D01*
X30820240Y-78519175D01*
X30709454Y-78251712D01*
X33452893Y-78251712D01*
X33560726Y-78526338D01*
X33867384Y-78677216D01*
X34197585Y-78765369D01*
X34538639Y-78787409D01*
X34877439Y-78742489D01*
X35200966Y-78632336D01*
X35399274Y-78526338D01*
X35507107Y-78251712D01*
X34480000Y-77224605D01*
X33452893Y-78251712D01*
X30709454Y-78251712D01*
X30708901Y-78250378D01*
X30547261Y-78008467D01*
X30341533Y-77802739D01*
X30099622Y-77641099D01*
X30005228Y-77602000D01*
X30675347Y-77602000D01*
X30700000Y-77604428D01*
X30724653Y-77602000D01*
X30798409Y-77594736D01*
X30893036Y-77566031D01*
X30980245Y-77519417D01*
X31056684Y-77456684D01*
X31119417Y-77380245D01*
X31166031Y-77293036D01*
X31180894Y-77244040D01*
X31321295Y-77103639D01*
X32737591Y-77103639D01*
X32782511Y-77442439D01*
X32892664Y-77765966D01*
X32998662Y-77964274D01*
X33273288Y-78072107D01*
X34300395Y-77045000D01*
X34659605Y-77045000D01*
X35686712Y-78072107D01*
X35961338Y-77964274D01*
X36112216Y-77657616D01*
X36200369Y-77327415D01*
X36221527Y-77000000D01*
X59113918Y-77000000D01*
X59150159Y-77367956D01*
X59257487Y-77721772D01*
X59431780Y-78047851D01*
X59666339Y-78333661D01*
X59952149Y-78568220D01*
X60278228Y-78742513D01*
X60632044Y-78849841D01*
X60907790Y-78877000D01*
X62092210Y-78877000D01*
X62367956Y-78849841D01*
X62721772Y-78742513D01*
X63047851Y-78568220D01*
X63333661Y-78333661D01*
X63568220Y-78047851D01*
X63742513Y-77721772D01*
X63849841Y-77367956D01*
X63865000Y-77214046D01*
X63865000Y-77627000D01*
X63930800Y-78041078D01*
X64076118Y-78434362D01*
X64295370Y-78791739D01*
X64580130Y-79099475D01*
X64919454Y-79345744D01*
X65300303Y-79521083D01*
X65541167Y-79585113D01*
X65873000Y-79472165D01*
X65873000Y-77127000D01*
X66127000Y-77127000D01*
X66127000Y-79472165D01*
X66458833Y-79585113D01*
X66699697Y-79521083D01*
X67080546Y-79345744D01*
X67419870Y-79099475D01*
X67704630Y-78791739D01*
X67923882Y-78434362D01*
X68069200Y-78041078D01*
X68135000Y-77627000D01*
X68135000Y-77127000D01*
X66127000Y-77127000D01*
X65873000Y-77127000D01*
X65853000Y-77127000D01*
X65853000Y-76873000D01*
X65873000Y-76873000D01*
X65873000Y-74527835D01*
X66127000Y-74527835D01*
X66127000Y-76873000D01*
X68135000Y-76873000D01*
X68135000Y-76373000D01*
X68069200Y-75958922D01*
X67923882Y-75565638D01*
X67704630Y-75208261D01*
X67419870Y-74900525D01*
X67080546Y-74654256D01*
X66699697Y-74478917D01*
X66458833Y-74414887D01*
X66127000Y-74527835D01*
X65873000Y-74527835D01*
X65541167Y-74414887D01*
X65300303Y-74478917D01*
X64919454Y-74654256D01*
X64580130Y-74900525D01*
X64295370Y-75208261D01*
X64076118Y-75565638D01*
X63930800Y-75958922D01*
X63865000Y-76373000D01*
X63865000Y-76785954D01*
X63849841Y-76632044D01*
X63742513Y-76278228D01*
X63568220Y-75952149D01*
X63333661Y-75666339D01*
X63047851Y-75431780D01*
X62721772Y-75257487D01*
X62367956Y-75150159D01*
X62092210Y-75123000D01*
X60907790Y-75123000D01*
X60632044Y-75150159D01*
X60278228Y-75257487D01*
X59952149Y-75431780D01*
X59666339Y-75666339D01*
X59431780Y-75952149D01*
X59257487Y-76278228D01*
X59150159Y-76632044D01*
X59113918Y-77000000D01*
X36221527Y-77000000D01*
X36222409Y-76986361D01*
X36177489Y-76647561D01*
X36067336Y-76324034D01*
X35961338Y-76125726D01*
X35686712Y-76017893D01*
X34659605Y-77045000D01*
X34300395Y-77045000D01*
X33273288Y-76017893D01*
X32998662Y-76125726D01*
X32847784Y-76432384D01*
X32759631Y-76762585D01*
X32737591Y-77103639D01*
X31321295Y-77103639D01*
X32586646Y-75838288D01*
X33452893Y-75838288D01*
X34480000Y-76865395D01*
X35507107Y-75838288D01*
X35399274Y-75563662D01*
X35092616Y-75412784D01*
X34762415Y-75324631D01*
X34421361Y-75302591D01*
X34082561Y-75347511D01*
X33759034Y-75457664D01*
X33560726Y-75563662D01*
X33452893Y-75838288D01*
X32586646Y-75838288D01*
X33851552Y-74573382D01*
X34049175Y-74655240D01*
X34334528Y-74712000D01*
X34625472Y-74712000D01*
X34910825Y-74655240D01*
X35179622Y-74543901D01*
X35421533Y-74382261D01*
X35627261Y-74176533D01*
X35788901Y-73934622D01*
X35900240Y-73665825D01*
X35957000Y-73380472D01*
X35957000Y-73089528D01*
X35900240Y-72804175D01*
X35788901Y-72535378D01*
X35627261Y-72293467D01*
X35421533Y-72087739D01*
X35179622Y-71926099D01*
X34910825Y-71814760D01*
X34625472Y-71758000D01*
X34334528Y-71758000D01*
X34049175Y-71814760D01*
X33780378Y-71926099D01*
X33538467Y-72087739D01*
X33332739Y-72293467D01*
X33171099Y-72535378D01*
X33059760Y-72804175D01*
X33003000Y-73089528D01*
X33003000Y-73380472D01*
X33059760Y-73665825D01*
X33141618Y-73863448D01*
X30407066Y-76598000D01*
X30328438Y-76598000D01*
X30427107Y-76346712D01*
X29400000Y-75319605D01*
X29385858Y-75333748D01*
X29206253Y-75154143D01*
X29220395Y-75140000D01*
X29579605Y-75140000D01*
X30606712Y-76167107D01*
X30881338Y-76059274D01*
X31032216Y-75752616D01*
X31120369Y-75422415D01*
X31142409Y-75081361D01*
X31097489Y-74742561D01*
X30987336Y-74419034D01*
X30881338Y-74220726D01*
X30606712Y-74112893D01*
X29579605Y-75140000D01*
X29220395Y-75140000D01*
X29206253Y-75125858D01*
X29385858Y-74946253D01*
X29400000Y-74960395D01*
X30427107Y-73933288D01*
X30319274Y-73658662D01*
X30012616Y-73507784D01*
X29682415Y-73419631D01*
X29341361Y-73397591D01*
X29002561Y-73442511D01*
X28679034Y-73552664D01*
X28480726Y-73658662D01*
X28372894Y-73933286D01*
X28317000Y-73877392D01*
X28317000Y-73744076D01*
X28271769Y-73516682D01*
X28183044Y-73302481D01*
X28054236Y-73109706D01*
X27890294Y-72945764D01*
X27697519Y-72816956D01*
X27483318Y-72728231D01*
X27416801Y-72715000D01*
X27483318Y-72701769D01*
X27697519Y-72613044D01*
X27890294Y-72484236D01*
X28054236Y-72320294D01*
X28169778Y-72147373D01*
X28252739Y-72271533D01*
X28458467Y-72477261D01*
X28700378Y-72638901D01*
X28969175Y-72750240D01*
X29254528Y-72807000D01*
X29545472Y-72807000D01*
X29830825Y-72750240D01*
X30099622Y-72638901D01*
X30341533Y-72477261D01*
X30547261Y-72271533D01*
X30708901Y-72029622D01*
X30820240Y-71760825D01*
X30877000Y-71475472D01*
X30877000Y-71184528D01*
X30820240Y-70899175D01*
X30709454Y-70631712D01*
X33452893Y-70631712D01*
X33560726Y-70906338D01*
X33867384Y-71057216D01*
X34197585Y-71145369D01*
X34538639Y-71167409D01*
X34877439Y-71122489D01*
X35200966Y-71012336D01*
X35399274Y-70906338D01*
X35507107Y-70631712D01*
X34480000Y-69604605D01*
X33452893Y-70631712D01*
X30709454Y-70631712D01*
X30708901Y-70630378D01*
X30547261Y-70388467D01*
X30341533Y-70182739D01*
X30099622Y-70021099D01*
X29830825Y-69909760D01*
X29545472Y-69853000D01*
X29254528Y-69853000D01*
X28969175Y-69909760D01*
X28700378Y-70021099D01*
X28458467Y-70182739D01*
X28252739Y-70388467D01*
X28091099Y-70630378D01*
X28024849Y-70790319D01*
X27890294Y-70655764D01*
X27770740Y-70575881D01*
X27881514Y-70516671D01*
X27953097Y-70272702D01*
X27140000Y-69459605D01*
X26326903Y-70272702D01*
X26398486Y-70516671D01*
X26515213Y-70571903D01*
X26389706Y-70655764D01*
X26225764Y-70819706D01*
X26096956Y-71012481D01*
X26008231Y-71226682D01*
X25963000Y-71454076D01*
X25400957Y-71454076D01*
X25413097Y-71412702D01*
X24600000Y-70599605D01*
X23786903Y-71412702D01*
X23858486Y-71656671D01*
X23975213Y-71711903D01*
X23849706Y-71795764D01*
X23685764Y-71959706D01*
X23556956Y-72152481D01*
X23468231Y-72366682D01*
X23423000Y-72594076D01*
X22645906Y-72594076D01*
X22810294Y-72484236D01*
X22974236Y-72320294D01*
X23103044Y-72127519D01*
X23191769Y-71913318D01*
X23237000Y-71685924D01*
X23237000Y-71454076D01*
X23191769Y-71226682D01*
X23103044Y-71012481D01*
X22974236Y-70819706D01*
X22810294Y-70655764D01*
X22617519Y-70526956D01*
X22529536Y-70490512D01*
X23159783Y-70490512D01*
X23201213Y-70770130D01*
X23296397Y-71036292D01*
X23363329Y-71161514D01*
X23607298Y-71233097D01*
X24420395Y-70420000D01*
X24779605Y-70420000D01*
X25592702Y-71233097D01*
X25836671Y-71161514D01*
X25957571Y-70906004D01*
X26026300Y-70631816D01*
X26040217Y-70349488D01*
X25998787Y-70069870D01*
X25990657Y-70047137D01*
X26147298Y-70093097D01*
X26960395Y-69280000D01*
X26147298Y-68466903D01*
X25903329Y-68538486D01*
X25782429Y-68793996D01*
X25713700Y-69068184D01*
X25699783Y-69350512D01*
X25741213Y-69630130D01*
X25749343Y-69652863D01*
X25592702Y-69606903D01*
X24779605Y-70420000D01*
X24420395Y-70420000D01*
X23607298Y-69606903D01*
X23363329Y-69678486D01*
X23242429Y-69933996D01*
X23173700Y-70208184D01*
X23159783Y-70490512D01*
X22529536Y-70490512D01*
X22403318Y-70438231D01*
X22336801Y-70425000D01*
X22403318Y-70411769D01*
X22617519Y-70323044D01*
X22810294Y-70194236D01*
X22974236Y-70030294D01*
X23103044Y-69837519D01*
X23191769Y-69623318D01*
X23230759Y-69427298D01*
X23786903Y-69427298D01*
X24600000Y-70240395D01*
X25413097Y-69427298D01*
X25341514Y-69183329D01*
X25086004Y-69062429D01*
X24811816Y-68993700D01*
X24529488Y-68979783D01*
X24249870Y-69021213D01*
X23983708Y-69116397D01*
X23858486Y-69183329D01*
X23786903Y-69427298D01*
X23230759Y-69427298D01*
X23237000Y-69395924D01*
X23237000Y-69164076D01*
X23191769Y-68936682D01*
X23103044Y-68722481D01*
X22974236Y-68529706D01*
X22810294Y-68365764D01*
X22692862Y-68287298D01*
X26326903Y-68287298D01*
X27140000Y-69100395D01*
X27154143Y-69086253D01*
X27333748Y-69265858D01*
X27319605Y-69280000D01*
X28132702Y-70093097D01*
X28376671Y-70021514D01*
X28497571Y-69766004D01*
X28566300Y-69491816D01*
X28566703Y-69483639D01*
X32737591Y-69483639D01*
X32782511Y-69822439D01*
X32892664Y-70145966D01*
X32998662Y-70344274D01*
X33273288Y-70452107D01*
X34300395Y-69425000D01*
X34659605Y-69425000D01*
X35686712Y-70452107D01*
X35961338Y-70344274D01*
X36112216Y-70037616D01*
X36200369Y-69707415D01*
X36222409Y-69366361D01*
X36222146Y-69364377D01*
X60423000Y-69364377D01*
X60423000Y-69635623D01*
X60475917Y-69901656D01*
X60579718Y-70152254D01*
X60730414Y-70377787D01*
X60922213Y-70569586D01*
X61147746Y-70720282D01*
X61398344Y-70824083D01*
X61664377Y-70877000D01*
X61935623Y-70877000D01*
X62201656Y-70824083D01*
X62452254Y-70720282D01*
X62677787Y-70569586D01*
X62869586Y-70377787D01*
X63020282Y-70152254D01*
X63124083Y-69901656D01*
X63177000Y-69635623D01*
X63177000Y-69364377D01*
X63124083Y-69098344D01*
X63020282Y-68847746D01*
X62869586Y-68622213D01*
X62677787Y-68430414D01*
X62452254Y-68279718D01*
X62201656Y-68175917D01*
X61935623Y-68123000D01*
X61664377Y-68123000D01*
X61398344Y-68175917D01*
X61147746Y-68279718D01*
X60922213Y-68430414D01*
X60730414Y-68622213D01*
X60579718Y-68847746D01*
X60475917Y-69098344D01*
X60423000Y-69364377D01*
X36222146Y-69364377D01*
X36177489Y-69027561D01*
X36067336Y-68704034D01*
X35961338Y-68505726D01*
X35686712Y-68397893D01*
X34659605Y-69425000D01*
X34300395Y-69425000D01*
X33273288Y-68397893D01*
X32998662Y-68505726D01*
X32847784Y-68812384D01*
X32759631Y-69142585D01*
X32737591Y-69483639D01*
X28566703Y-69483639D01*
X28580217Y-69209488D01*
X28554774Y-69037770D01*
X28787384Y-69152216D01*
X29117585Y-69240369D01*
X29458639Y-69262409D01*
X29797439Y-69217489D01*
X30120966Y-69107336D01*
X30319274Y-69001338D01*
X30427107Y-68726712D01*
X29400000Y-67699605D01*
X29385858Y-67713748D01*
X29206253Y-67534143D01*
X29220395Y-67520000D01*
X29579605Y-67520000D01*
X30606712Y-68547107D01*
X30881338Y-68439274D01*
X30990064Y-68218288D01*
X33452893Y-68218288D01*
X34480000Y-69245395D01*
X35507107Y-68218288D01*
X35399274Y-67943662D01*
X35092616Y-67792784D01*
X34762415Y-67704631D01*
X34421361Y-67682591D01*
X34082561Y-67727511D01*
X33759034Y-67837664D01*
X33560726Y-67943662D01*
X33452893Y-68218288D01*
X30990064Y-68218288D01*
X31032216Y-68132616D01*
X31120369Y-67802415D01*
X31142409Y-67461361D01*
X31097489Y-67122561D01*
X30987336Y-66799034D01*
X30881338Y-66600726D01*
X30606712Y-66492893D01*
X29579605Y-67520000D01*
X29220395Y-67520000D01*
X28193288Y-66492893D01*
X27918662Y-66600726D01*
X27767784Y-66907384D01*
X27679631Y-67237585D01*
X27657591Y-67578639D01*
X27702511Y-67917439D01*
X27719229Y-67966540D01*
X27626004Y-67922429D01*
X27351816Y-67853700D01*
X27069488Y-67839783D01*
X26789870Y-67881213D01*
X26523708Y-67976397D01*
X26398486Y-68043329D01*
X26326903Y-68287298D01*
X22692862Y-68287298D01*
X22617519Y-68236956D01*
X22403318Y-68148231D01*
X22175924Y-68103000D01*
X21944076Y-68103000D01*
X21716682Y-68148231D01*
X21502481Y-68236956D01*
X21309706Y-68365764D01*
X21145764Y-68529706D01*
X21127000Y-68557788D01*
X21127000Y-66313288D01*
X28372893Y-66313288D01*
X29400000Y-67340395D01*
X30427107Y-66313288D01*
X30319274Y-66038662D01*
X30012616Y-65887784D01*
X29682415Y-65799631D01*
X29341361Y-65777591D01*
X29002561Y-65822511D01*
X28679034Y-65932664D01*
X28480726Y-66038662D01*
X28372893Y-66313288D01*
X21127000Y-66313288D01*
X21127000Y-65469528D01*
X33003000Y-65469528D01*
X33003000Y-65760472D01*
X33059760Y-66045825D01*
X33171099Y-66314622D01*
X33332739Y-66556533D01*
X33538467Y-66762261D01*
X33780378Y-66923901D01*
X34049175Y-67035240D01*
X34334528Y-67092000D01*
X34625472Y-67092000D01*
X34910825Y-67035240D01*
X35179622Y-66923901D01*
X35421533Y-66762261D01*
X35627261Y-66556533D01*
X35788901Y-66314622D01*
X35900240Y-66045825D01*
X35957000Y-65760472D01*
X35957000Y-65469528D01*
X35900240Y-65184175D01*
X35788901Y-64915378D01*
X35627261Y-64673467D01*
X35421533Y-64467739D01*
X35179622Y-64306099D01*
X34910825Y-64194760D01*
X34625472Y-64138000D01*
X34334528Y-64138000D01*
X34049175Y-64194760D01*
X33780378Y-64306099D01*
X33538467Y-64467739D01*
X33332739Y-64673467D01*
X33171099Y-64915378D01*
X33059760Y-65184175D01*
X33003000Y-65469528D01*
X21127000Y-65469528D01*
X21127000Y-63645340D01*
X22754265Y-63645340D01*
X23000416Y-64037704D01*
X23502822Y-64303312D01*
X24047393Y-64465801D01*
X24613199Y-64518928D01*
X25178498Y-64460652D01*
X25721566Y-64293210D01*
X26199584Y-64037704D01*
X26445735Y-63645340D01*
X26364923Y-63564528D01*
X27923000Y-63564528D01*
X27923000Y-63855472D01*
X27979760Y-64140825D01*
X28091099Y-64409622D01*
X28252739Y-64651533D01*
X28458467Y-64857261D01*
X28700378Y-65018901D01*
X28969175Y-65130240D01*
X29254528Y-65187000D01*
X29545472Y-65187000D01*
X29830825Y-65130240D01*
X30099622Y-65018901D01*
X30341533Y-64857261D01*
X30547261Y-64651533D01*
X30708901Y-64409622D01*
X30820240Y-64140825D01*
X30877000Y-63855472D01*
X30877000Y-63564528D01*
X30820240Y-63279175D01*
X30709454Y-63011712D01*
X33452893Y-63011712D01*
X33560726Y-63286338D01*
X33867384Y-63437216D01*
X34197585Y-63525369D01*
X34538639Y-63547409D01*
X34877439Y-63502489D01*
X35200966Y-63392336D01*
X35399274Y-63286338D01*
X35507107Y-63011712D01*
X34480000Y-61984605D01*
X33452893Y-63011712D01*
X30709454Y-63011712D01*
X30708901Y-63010378D01*
X30547261Y-62768467D01*
X30341533Y-62562739D01*
X30099622Y-62401099D01*
X29830825Y-62289760D01*
X29545472Y-62233000D01*
X29254528Y-62233000D01*
X28969175Y-62289760D01*
X28700378Y-62401099D01*
X28458467Y-62562739D01*
X28252739Y-62768467D01*
X28091099Y-63010378D01*
X27979760Y-63279175D01*
X27923000Y-63564528D01*
X26364923Y-63564528D01*
X24600000Y-61799605D01*
X22754265Y-63645340D01*
X21127000Y-63645340D01*
X21127000Y-61633199D01*
X21701072Y-61633199D01*
X21759348Y-62198498D01*
X21926790Y-62741566D01*
X22182296Y-63219584D01*
X22574660Y-63465735D01*
X24420395Y-61620000D01*
X24779605Y-61620000D01*
X26625340Y-63465735D01*
X27017704Y-63219584D01*
X27283312Y-62717178D01*
X27445801Y-62172607D01*
X27474811Y-61863639D01*
X32737591Y-61863639D01*
X32782511Y-62202439D01*
X32892664Y-62525966D01*
X32998662Y-62724274D01*
X33273288Y-62832107D01*
X34300395Y-61805000D01*
X34659605Y-61805000D01*
X35686712Y-62832107D01*
X35961338Y-62724274D01*
X36010933Y-62623472D01*
X45523000Y-62623472D01*
X45523000Y-62776528D01*
X45552859Y-62926643D01*
X45611431Y-63068048D01*
X45696464Y-63195309D01*
X45804691Y-63303536D01*
X45931952Y-63388569D01*
X46073357Y-63447141D01*
X46223472Y-63477000D01*
X46376528Y-63477000D01*
X46526643Y-63447141D01*
X46668048Y-63388569D01*
X46795309Y-63303536D01*
X46896845Y-63202000D01*
X48603155Y-63202000D01*
X48704691Y-63303536D01*
X48831952Y-63388569D01*
X48973357Y-63447141D01*
X49123472Y-63477000D01*
X49276528Y-63477000D01*
X49426643Y-63447141D01*
X49568048Y-63388569D01*
X49695309Y-63303536D01*
X49803536Y-63195309D01*
X49888569Y-63068048D01*
X49947141Y-62926643D01*
X49977000Y-62776528D01*
X49977000Y-62623472D01*
X49947141Y-62473357D01*
X49888569Y-62331952D01*
X49803536Y-62204691D01*
X49695309Y-62096464D01*
X49568048Y-62011431D01*
X49540452Y-62000000D01*
X59113918Y-62000000D01*
X59150159Y-62367956D01*
X59257487Y-62721772D01*
X59431780Y-63047851D01*
X59666339Y-63333661D01*
X59952149Y-63568220D01*
X60278228Y-63742513D01*
X60632044Y-63849841D01*
X60907790Y-63877000D01*
X62092210Y-63877000D01*
X62367956Y-63849841D01*
X62721772Y-63742513D01*
X63047851Y-63568220D01*
X63333661Y-63333661D01*
X63568220Y-63047851D01*
X63742513Y-62721772D01*
X63849841Y-62367956D01*
X63865000Y-62214046D01*
X63865000Y-62627000D01*
X63930800Y-63041078D01*
X64076118Y-63434362D01*
X64295370Y-63791739D01*
X64580130Y-64099475D01*
X64919454Y-64345744D01*
X65300303Y-64521083D01*
X65541167Y-64585113D01*
X65873000Y-64472165D01*
X65873000Y-62127000D01*
X66127000Y-62127000D01*
X66127000Y-64472165D01*
X66458833Y-64585113D01*
X66699697Y-64521083D01*
X67080546Y-64345744D01*
X67419870Y-64099475D01*
X67704630Y-63791739D01*
X67923882Y-63434362D01*
X68069200Y-63041078D01*
X68135000Y-62627000D01*
X68135000Y-62127000D01*
X66127000Y-62127000D01*
X65873000Y-62127000D01*
X65853000Y-62127000D01*
X65853000Y-61873000D01*
X65873000Y-61873000D01*
X65873000Y-59527835D01*
X66127000Y-59527835D01*
X66127000Y-61873000D01*
X68135000Y-61873000D01*
X68135000Y-61373000D01*
X68069200Y-60958922D01*
X67923882Y-60565638D01*
X67704630Y-60208261D01*
X67419870Y-59900525D01*
X67080546Y-59654256D01*
X66699697Y-59478917D01*
X66458833Y-59414887D01*
X66127000Y-59527835D01*
X65873000Y-59527835D01*
X65541167Y-59414887D01*
X65300303Y-59478917D01*
X64919454Y-59654256D01*
X64580130Y-59900525D01*
X64295370Y-60208261D01*
X64076118Y-60565638D01*
X63930800Y-60958922D01*
X63865000Y-61373000D01*
X63865000Y-61785954D01*
X63849841Y-61632044D01*
X63742513Y-61278228D01*
X63568220Y-60952149D01*
X63333661Y-60666339D01*
X63047851Y-60431780D01*
X62721772Y-60257487D01*
X62367956Y-60150159D01*
X62092210Y-60123000D01*
X60907790Y-60123000D01*
X60632044Y-60150159D01*
X60278228Y-60257487D01*
X59952149Y-60431780D01*
X59666339Y-60666339D01*
X59431780Y-60952149D01*
X59257487Y-61278228D01*
X59150159Y-61632044D01*
X59113918Y-62000000D01*
X49540452Y-62000000D01*
X49426643Y-61952859D01*
X49276528Y-61923000D01*
X49123472Y-61923000D01*
X48973357Y-61952859D01*
X48831952Y-62011431D01*
X48704691Y-62096464D01*
X48603155Y-62198000D01*
X46896845Y-62198000D01*
X46795309Y-62096464D01*
X46668048Y-62011431D01*
X46526643Y-61952859D01*
X46376528Y-61923000D01*
X46223472Y-61923000D01*
X46073357Y-61952859D01*
X45931952Y-62011431D01*
X45804691Y-62096464D01*
X45696464Y-62204691D01*
X45611431Y-62331952D01*
X45552859Y-62473357D01*
X45523000Y-62623472D01*
X36010933Y-62623472D01*
X36112216Y-62417616D01*
X36200369Y-62087415D01*
X36222409Y-61746361D01*
X36177489Y-61407561D01*
X36067336Y-61084034D01*
X35961338Y-60885726D01*
X35686712Y-60777893D01*
X34659605Y-61805000D01*
X34300395Y-61805000D01*
X33273288Y-60777893D01*
X32998662Y-60885726D01*
X32847784Y-61192384D01*
X32759631Y-61522585D01*
X32737591Y-61863639D01*
X27474811Y-61863639D01*
X27498928Y-61606801D01*
X27440652Y-61041502D01*
X27303998Y-60598288D01*
X33452893Y-60598288D01*
X34480000Y-61625395D01*
X35507107Y-60598288D01*
X35399274Y-60323662D01*
X35092616Y-60172784D01*
X34762415Y-60084631D01*
X34421361Y-60062591D01*
X34082561Y-60107511D01*
X33759034Y-60217664D01*
X33560726Y-60323662D01*
X33452893Y-60598288D01*
X27303998Y-60598288D01*
X27273210Y-60498434D01*
X27017704Y-60020416D01*
X26625340Y-59774265D01*
X24779605Y-61620000D01*
X24420395Y-61620000D01*
X22574660Y-59774265D01*
X22182296Y-60020416D01*
X21916688Y-60522822D01*
X21754199Y-61067393D01*
X21701072Y-61633199D01*
X21127000Y-61633199D01*
X21127000Y-59594660D01*
X22754265Y-59594660D01*
X24600000Y-61440395D01*
X26445735Y-59594660D01*
X26199584Y-59202296D01*
X25697178Y-58936688D01*
X25152607Y-58774199D01*
X24992345Y-58759151D01*
X44973000Y-58759151D01*
X44973000Y-59000849D01*
X45020153Y-59237903D01*
X45112647Y-59461202D01*
X45246927Y-59662167D01*
X45417833Y-59833073D01*
X45618798Y-59967353D01*
X45842097Y-60059847D01*
X46079151Y-60107000D01*
X46320849Y-60107000D01*
X46557903Y-60059847D01*
X46781202Y-59967353D01*
X46982167Y-59833073D01*
X47153073Y-59662167D01*
X47287353Y-59461202D01*
X47379847Y-59237903D01*
X47427000Y-59000849D01*
X47427000Y-58759151D01*
X47379847Y-58522097D01*
X47287353Y-58298798D01*
X47153073Y-58097833D01*
X46982167Y-57926927D01*
X46781202Y-57792647D01*
X46557903Y-57700153D01*
X46320849Y-57653000D01*
X46079151Y-57653000D01*
X45842097Y-57700153D01*
X45618798Y-57792647D01*
X45417833Y-57926927D01*
X45246927Y-58097833D01*
X45112647Y-58298798D01*
X45020153Y-58522097D01*
X44973000Y-58759151D01*
X24992345Y-58759151D01*
X24586801Y-58721072D01*
X24021502Y-58779348D01*
X23478434Y-58946790D01*
X23000416Y-59202296D01*
X22754265Y-59594660D01*
X21127000Y-59594660D01*
X21127000Y-57549722D01*
X31335314Y-57549722D01*
X31335314Y-57702778D01*
X31365173Y-57852893D01*
X31423745Y-57994298D01*
X31508778Y-58121559D01*
X31617005Y-58229786D01*
X31744266Y-58314819D01*
X31885671Y-58373391D01*
X32035786Y-58403250D01*
X32188842Y-58403250D01*
X32338957Y-58373391D01*
X32480362Y-58314819D01*
X32607623Y-58229786D01*
X32715850Y-58121559D01*
X32800883Y-57994298D01*
X32859455Y-57852893D01*
X32889314Y-57702778D01*
X32889314Y-57559184D01*
X33496500Y-56952000D01*
X39213155Y-56952000D01*
X39314691Y-57053536D01*
X39441952Y-57138569D01*
X39583357Y-57197141D01*
X39733472Y-57227000D01*
X39886528Y-57227000D01*
X40036643Y-57197141D01*
X40178048Y-57138569D01*
X40305309Y-57053536D01*
X40413536Y-56945309D01*
X40498569Y-56818048D01*
X40557141Y-56676643D01*
X40587000Y-56526528D01*
X40587000Y-56373472D01*
X40557141Y-56223357D01*
X40498569Y-56081952D01*
X40413536Y-55954691D01*
X40305309Y-55846464D01*
X40178048Y-55761431D01*
X40036643Y-55702859D01*
X39886528Y-55673000D01*
X39733472Y-55673000D01*
X39583357Y-55702859D01*
X39441952Y-55761431D01*
X39314691Y-55846464D01*
X39213155Y-55948000D01*
X33313207Y-55948000D01*
X33288564Y-55945573D01*
X33263921Y-55948000D01*
X33263911Y-55948000D01*
X33190155Y-55955264D01*
X33095528Y-55983969D01*
X33065538Y-55999999D01*
X33008318Y-56030583D01*
X32951028Y-56077600D01*
X32951020Y-56077608D01*
X32931880Y-56093316D01*
X32916171Y-56112457D01*
X32179380Y-56849250D01*
X32035786Y-56849250D01*
X31885671Y-56879109D01*
X31744266Y-56937681D01*
X31617005Y-57022714D01*
X31508778Y-57130941D01*
X31423745Y-57258202D01*
X31365173Y-57399607D01*
X31335314Y-57549722D01*
X21127000Y-57549722D01*
X21127000Y-54765886D01*
X24823000Y-54765886D01*
X24823000Y-55234114D01*
X24914347Y-55693345D01*
X25093530Y-56125932D01*
X25353664Y-56515249D01*
X25684751Y-56846336D01*
X26074068Y-57106470D01*
X26506655Y-57285653D01*
X26965886Y-57377000D01*
X27434114Y-57377000D01*
X27893345Y-57285653D01*
X28325932Y-57106470D01*
X28715249Y-56846336D01*
X29046336Y-56515249D01*
X29306470Y-56125932D01*
X29485653Y-55693345D01*
X29577000Y-55234114D01*
X29577000Y-54765886D01*
X29485653Y-54306655D01*
X29306470Y-53874068D01*
X29046336Y-53484751D01*
X28715249Y-53153664D01*
X28325932Y-52893530D01*
X27915375Y-52723472D01*
X35223000Y-52723472D01*
X35223000Y-52876528D01*
X35252859Y-53026643D01*
X35311431Y-53168048D01*
X35396464Y-53295309D01*
X35504691Y-53403536D01*
X35631952Y-53488569D01*
X35773357Y-53547141D01*
X35923472Y-53577000D01*
X36076528Y-53577000D01*
X36226643Y-53547141D01*
X36368048Y-53488569D01*
X36495309Y-53403536D01*
X36596845Y-53302000D01*
X39792066Y-53302000D01*
X42423000Y-55932935D01*
X42423000Y-56076528D01*
X42452859Y-56226643D01*
X42511431Y-56368048D01*
X42596464Y-56495309D01*
X42704691Y-56603536D01*
X42831952Y-56688569D01*
X42973357Y-56747141D01*
X43123472Y-56777000D01*
X43276528Y-56777000D01*
X43426643Y-56747141D01*
X43568048Y-56688569D01*
X43695309Y-56603536D01*
X43803536Y-56495309D01*
X43888569Y-56368048D01*
X43947141Y-56226643D01*
X43948631Y-56219151D01*
X44973000Y-56219151D01*
X44973000Y-56460849D01*
X45020153Y-56697903D01*
X45112647Y-56921202D01*
X45246927Y-57122167D01*
X45417833Y-57293073D01*
X45618798Y-57427353D01*
X45842097Y-57519847D01*
X46079151Y-57567000D01*
X46320849Y-57567000D01*
X46557903Y-57519847D01*
X46781202Y-57427353D01*
X46982167Y-57293073D01*
X47153073Y-57122167D01*
X47287353Y-56921202D01*
X47379847Y-56697903D01*
X47427000Y-56460849D01*
X47427000Y-56219151D01*
X47379847Y-55982097D01*
X47287353Y-55758798D01*
X47153073Y-55557833D01*
X46982167Y-55386927D01*
X46781202Y-55252647D01*
X46557903Y-55160153D01*
X46320849Y-55113000D01*
X46079151Y-55113000D01*
X45842097Y-55160153D01*
X45618798Y-55252647D01*
X45417833Y-55386927D01*
X45246927Y-55557833D01*
X45112647Y-55758798D01*
X45020153Y-55982097D01*
X44973000Y-56219151D01*
X43948631Y-56219151D01*
X43977000Y-56076528D01*
X43977000Y-55923472D01*
X43947141Y-55773357D01*
X43888569Y-55631952D01*
X43803536Y-55504691D01*
X43695309Y-55396464D01*
X43568048Y-55311431D01*
X43426643Y-55252859D01*
X43276528Y-55223000D01*
X43132935Y-55223000D01*
X40859935Y-52950000D01*
X44971176Y-52950000D01*
X44971176Y-54650000D01*
X44978455Y-54723905D01*
X45000012Y-54794970D01*
X45035019Y-54860463D01*
X45082131Y-54917869D01*
X45139537Y-54964981D01*
X45205030Y-54999988D01*
X45276095Y-55021545D01*
X45350000Y-55028824D01*
X47050000Y-55028824D01*
X47123905Y-55021545D01*
X47194970Y-54999988D01*
X47260463Y-54964981D01*
X47317869Y-54917869D01*
X47364981Y-54860463D01*
X47399988Y-54794970D01*
X47421545Y-54723905D01*
X47428824Y-54650000D01*
X47428824Y-54364377D01*
X60423000Y-54364377D01*
X60423000Y-54635623D01*
X60475917Y-54901656D01*
X60579718Y-55152254D01*
X60730414Y-55377787D01*
X60922213Y-55569586D01*
X61147746Y-55720282D01*
X61398344Y-55824083D01*
X61664377Y-55877000D01*
X61935623Y-55877000D01*
X62201656Y-55824083D01*
X62452254Y-55720282D01*
X62677787Y-55569586D01*
X62869586Y-55377787D01*
X63020282Y-55152254D01*
X63124083Y-54901656D01*
X63177000Y-54635623D01*
X63177000Y-54364377D01*
X63124083Y-54098344D01*
X63020282Y-53847746D01*
X62869586Y-53622213D01*
X62677787Y-53430414D01*
X62452254Y-53279718D01*
X62201656Y-53175917D01*
X61935623Y-53123000D01*
X61664377Y-53123000D01*
X61398344Y-53175917D01*
X61147746Y-53279718D01*
X60922213Y-53430414D01*
X60730414Y-53622213D01*
X60579718Y-53847746D01*
X60475917Y-54098344D01*
X60423000Y-54364377D01*
X47428824Y-54364377D01*
X47428824Y-52950000D01*
X47421545Y-52876095D01*
X47399988Y-52805030D01*
X47364981Y-52739537D01*
X47317869Y-52682131D01*
X47260463Y-52635019D01*
X47194970Y-52600012D01*
X47123905Y-52578455D01*
X47050000Y-52571176D01*
X45350000Y-52571176D01*
X45276095Y-52578455D01*
X45205030Y-52600012D01*
X45139537Y-52635019D01*
X45082131Y-52682131D01*
X45035019Y-52739537D01*
X45000012Y-52805030D01*
X44978455Y-52876095D01*
X44971176Y-52950000D01*
X40859935Y-52950000D01*
X40372402Y-52462468D01*
X40356684Y-52443316D01*
X40280245Y-52380583D01*
X40193036Y-52333969D01*
X40098409Y-52305264D01*
X40024653Y-52298000D01*
X40024643Y-52298000D01*
X40000000Y-52295573D01*
X39975357Y-52298000D01*
X36596845Y-52298000D01*
X36495309Y-52196464D01*
X36368048Y-52111431D01*
X36226643Y-52052859D01*
X36076528Y-52023000D01*
X35923472Y-52023000D01*
X35773357Y-52052859D01*
X35631952Y-52111431D01*
X35504691Y-52196464D01*
X35396464Y-52304691D01*
X35311431Y-52431952D01*
X35252859Y-52573357D01*
X35223000Y-52723472D01*
X27915375Y-52723472D01*
X27893345Y-52714347D01*
X27434114Y-52623000D01*
X26965886Y-52623000D01*
X26506655Y-52714347D01*
X26074068Y-52893530D01*
X25684751Y-53153664D01*
X25353664Y-53484751D01*
X25093530Y-53874068D01*
X24914347Y-54306655D01*
X24823000Y-54765886D01*
X21127000Y-54765886D01*
X21127000Y-53105000D01*
X21427000Y-53105000D01*
X21655742Y-53057454D01*
X21870813Y-52966196D01*
X22063948Y-52834734D01*
X22227725Y-52668119D01*
X22355850Y-52472754D01*
X22443399Y-52256147D01*
X22443803Y-52229744D01*
X23356197Y-52229744D01*
X23356601Y-52256147D01*
X23444150Y-52472754D01*
X23572275Y-52668119D01*
X23736052Y-52834734D01*
X23929187Y-52966196D01*
X24144258Y-53057454D01*
X24373000Y-53105000D01*
X24673000Y-53105000D01*
X24673000Y-52047000D01*
X24927000Y-52047000D01*
X24927000Y-53105000D01*
X25227000Y-53105000D01*
X25455742Y-53057454D01*
X25670813Y-52966196D01*
X25863948Y-52834734D01*
X26027725Y-52668119D01*
X26155850Y-52472754D01*
X26243399Y-52256147D01*
X26243803Y-52229744D01*
X26118361Y-52047000D01*
X24927000Y-52047000D01*
X24673000Y-52047000D01*
X23481639Y-52047000D01*
X23356197Y-52229744D01*
X22443803Y-52229744D01*
X22318361Y-52047000D01*
X21127000Y-52047000D01*
X21127000Y-51793000D01*
X22318361Y-51793000D01*
X22443803Y-51610256D01*
X23356197Y-51610256D01*
X23481639Y-51793000D01*
X24673000Y-51793000D01*
X24673000Y-50735000D01*
X24927000Y-50735000D01*
X24927000Y-51793000D01*
X26118361Y-51793000D01*
X26243803Y-51610256D01*
X26243399Y-51583853D01*
X26155850Y-51367246D01*
X26027725Y-51171881D01*
X25863948Y-51005266D01*
X25670813Y-50873804D01*
X25455742Y-50782546D01*
X25227000Y-50735000D01*
X24927000Y-50735000D01*
X24673000Y-50735000D01*
X24373000Y-50735000D01*
X24144258Y-50782546D01*
X23929187Y-50873804D01*
X23736052Y-51005266D01*
X23572275Y-51171881D01*
X23444150Y-51367246D01*
X23356601Y-51583853D01*
X23356197Y-51610256D01*
X22443803Y-51610256D01*
X22443399Y-51583853D01*
X22355850Y-51367246D01*
X22227725Y-51171881D01*
X22063948Y-51005266D01*
X21870813Y-50873804D01*
X21655742Y-50782546D01*
X21427000Y-50735000D01*
X21127000Y-50735000D01*
X21127000Y-47000000D01*
X59113918Y-47000000D01*
X59150159Y-47367956D01*
X59257487Y-47721772D01*
X59431780Y-48047851D01*
X59666339Y-48333661D01*
X59952149Y-48568220D01*
X60278228Y-48742513D01*
X60632044Y-48849841D01*
X60907790Y-48877000D01*
X62092210Y-48877000D01*
X62367956Y-48849841D01*
X62721772Y-48742513D01*
X63047851Y-48568220D01*
X63333661Y-48333661D01*
X63568220Y-48047851D01*
X63742513Y-47721772D01*
X63849841Y-47367956D01*
X63865000Y-47214046D01*
X63865000Y-47627000D01*
X63930800Y-48041078D01*
X64076118Y-48434362D01*
X64295370Y-48791739D01*
X64580130Y-49099475D01*
X64919454Y-49345744D01*
X65300303Y-49521083D01*
X65541167Y-49585113D01*
X65873000Y-49472165D01*
X65873000Y-47127000D01*
X66127000Y-47127000D01*
X66127000Y-49472165D01*
X66458833Y-49585113D01*
X66699697Y-49521083D01*
X67080546Y-49345744D01*
X67419870Y-49099475D01*
X67704630Y-48791739D01*
X67923882Y-48434362D01*
X68069200Y-48041078D01*
X68135000Y-47627000D01*
X68135000Y-47127000D01*
X66127000Y-47127000D01*
X65873000Y-47127000D01*
X65853000Y-47127000D01*
X65853000Y-46873000D01*
X65873000Y-46873000D01*
X65873000Y-44527835D01*
X66127000Y-44527835D01*
X66127000Y-46873000D01*
X68135000Y-46873000D01*
X68135000Y-46373000D01*
X68069200Y-45958922D01*
X67923882Y-45565638D01*
X67704630Y-45208261D01*
X67419870Y-44900525D01*
X67080546Y-44654256D01*
X66699697Y-44478917D01*
X66458833Y-44414887D01*
X66127000Y-44527835D01*
X65873000Y-44527835D01*
X65541167Y-44414887D01*
X65300303Y-44478917D01*
X64919454Y-44654256D01*
X64580130Y-44900525D01*
X64295370Y-45208261D01*
X64076118Y-45565638D01*
X63930800Y-45958922D01*
X63865000Y-46373000D01*
X63865000Y-46785954D01*
X63849841Y-46632044D01*
X63742513Y-46278228D01*
X63568220Y-45952149D01*
X63333661Y-45666339D01*
X63047851Y-45431780D01*
X62721772Y-45257487D01*
X62367956Y-45150159D01*
X62092210Y-45123000D01*
X60907790Y-45123000D01*
X60632044Y-45150159D01*
X60278228Y-45257487D01*
X59952149Y-45431780D01*
X59666339Y-45666339D01*
X59431780Y-45952149D01*
X59257487Y-46278228D01*
X59150159Y-46632044D01*
X59113918Y-47000000D01*
X21127000Y-47000000D01*
X21127000Y-44465000D01*
X21427000Y-44465000D01*
X21655742Y-44417454D01*
X21870813Y-44326196D01*
X22063948Y-44194734D01*
X22227725Y-44028119D01*
X22355850Y-43832754D01*
X22443399Y-43616147D01*
X22443803Y-43589744D01*
X23356197Y-43589744D01*
X23356601Y-43616147D01*
X23444150Y-43832754D01*
X23572275Y-44028119D01*
X23736052Y-44194734D01*
X23929187Y-44326196D01*
X24144258Y-44417454D01*
X24373000Y-44465000D01*
X24673000Y-44465000D01*
X24673000Y-43407000D01*
X24927000Y-43407000D01*
X24927000Y-44465000D01*
X25227000Y-44465000D01*
X25455742Y-44417454D01*
X25670813Y-44326196D01*
X25863948Y-44194734D01*
X26027725Y-44028119D01*
X26155850Y-43832754D01*
X26243399Y-43616147D01*
X26243803Y-43589744D01*
X26118361Y-43407000D01*
X24927000Y-43407000D01*
X24673000Y-43407000D01*
X23481639Y-43407000D01*
X23356197Y-43589744D01*
X22443803Y-43589744D01*
X22318361Y-43407000D01*
X21127000Y-43407000D01*
X21127000Y-43153000D01*
X22318361Y-43153000D01*
X22443803Y-42970256D01*
X23356197Y-42970256D01*
X23481639Y-43153000D01*
X24673000Y-43153000D01*
X24673000Y-42095000D01*
X24927000Y-42095000D01*
X24927000Y-43153000D01*
X26118361Y-43153000D01*
X26243803Y-42970256D01*
X26243399Y-42943853D01*
X26155850Y-42727246D01*
X26027725Y-42531881D01*
X25863948Y-42365266D01*
X25670813Y-42233804D01*
X25455742Y-42142546D01*
X25227000Y-42095000D01*
X24927000Y-42095000D01*
X24673000Y-42095000D01*
X24373000Y-42095000D01*
X24144258Y-42142546D01*
X23929187Y-42233804D01*
X23736052Y-42365266D01*
X23572275Y-42531881D01*
X23444150Y-42727246D01*
X23356601Y-42943853D01*
X23356197Y-42970256D01*
X22443803Y-42970256D01*
X22443399Y-42943853D01*
X22355850Y-42727246D01*
X22227725Y-42531881D01*
X22063948Y-42365266D01*
X21870813Y-42233804D01*
X21655742Y-42142546D01*
X21427000Y-42095000D01*
X21127000Y-42095000D01*
X21127000Y-41552606D01*
X21552606Y-41127000D01*
X64772075Y-41127000D01*
X64736227Y-41162848D01*
G37*
G04 #@! TD.AperFunction*
M02*
