G04 #@! TF.GenerationSoftware,KiCad,Pcbnew,(5.1.8)-1*
G04 #@! TF.CreationDate,2021-01-22T17:08:18+13:00*
G04 #@! TF.ProjectId,comprgb,636f6d70-7267-4622-9e6b-696361645f70,rev?*
G04 #@! TF.SameCoordinates,Original*
G04 #@! TF.FileFunction,Soldermask,Top*
G04 #@! TF.FilePolarity,Negative*
%FSLAX46Y46*%
G04 Gerber Fmt 4.6, Leading zero omitted, Abs format (unit mm)*
G04 Created by KiCad (PCBNEW (5.1.8)-1) date 2021-01-22 17:08:18*
%MOMM*%
%LPD*%
G01*
G04 APERTURE LIST*
%ADD10C,4.602000*%
%ADD11C,1.702000*%
%ADD12C,2.102000*%
%ADD13C,2.402000*%
%ADD14O,4.102000X3.102000*%
%ADD15O,3.102000X4.102000*%
%ADD16O,2.602000X2.602000*%
%ADD17O,1.802000X1.802000*%
%ADD18C,2.302000*%
%ADD19O,3.102000X3.102000*%
%ADD20C,4.102000*%
%ADD21O,1.802000X1.202000*%
%ADD22C,0.100000*%
G04 APERTURE END LIST*
D10*
X24600000Y-61620000D03*
X24600000Y-86620000D03*
D11*
X22060000Y-69280000D03*
X22060000Y-71570000D03*
X22060000Y-73860000D03*
X22060000Y-76150000D03*
X22060000Y-78440000D03*
X24600000Y-77290000D03*
X24600000Y-79580000D03*
X27140000Y-69280000D03*
X27140000Y-71570000D03*
X27140000Y-73860000D03*
X27140000Y-76150000D03*
X27140000Y-78440000D03*
X24600000Y-70420000D03*
X24600000Y-72710000D03*
X24600000Y-75000000D03*
G36*
G01*
X51999000Y-62600500D02*
X51999000Y-61599500D01*
G75*
G02*
X52274500Y-61324000I275500J0D01*
G01*
X52825500Y-61324000D01*
G75*
G02*
X53101000Y-61599500I0J-275500D01*
G01*
X53101000Y-62600500D01*
G75*
G02*
X52825500Y-62876000I-275500J0D01*
G01*
X52274500Y-62876000D01*
G75*
G02*
X51999000Y-62600500I0J275500D01*
G01*
G37*
G36*
G01*
X50099000Y-62600500D02*
X50099000Y-61599500D01*
G75*
G02*
X50374500Y-61324000I275500J0D01*
G01*
X50925500Y-61324000D01*
G75*
G02*
X51201000Y-61599500I0J-275500D01*
G01*
X51201000Y-62600500D01*
G75*
G02*
X50925500Y-62876000I-275500J0D01*
G01*
X50374500Y-62876000D01*
G75*
G02*
X50099000Y-62600500I0J275500D01*
G01*
G37*
D12*
X61800000Y-54500000D03*
X61800000Y-69500000D03*
D13*
X69144520Y-72533380D03*
X69144520Y-51466620D03*
D14*
X61500000Y-47000000D03*
X61500000Y-77000000D03*
D15*
X66000000Y-77000000D03*
X66000000Y-62000000D03*
X66000000Y-47000000D03*
D16*
X66000000Y-42200000D03*
X66000000Y-81800000D03*
D14*
X61500000Y-62000000D03*
G36*
G01*
X32426000Y-42593250D02*
X32426000Y-43406750D01*
G75*
G02*
X32181750Y-43651000I-244250J0D01*
G01*
X31693250Y-43651000D01*
G75*
G02*
X31449000Y-43406750I0J244250D01*
G01*
X31449000Y-42593250D01*
G75*
G02*
X31693250Y-42349000I244250J0D01*
G01*
X32181750Y-42349000D01*
G75*
G02*
X32426000Y-42593250I0J-244250D01*
G01*
G37*
G36*
G01*
X34551000Y-42593250D02*
X34551000Y-43406750D01*
G75*
G02*
X34306750Y-43651000I-244250J0D01*
G01*
X33818250Y-43651000D01*
G75*
G02*
X33574000Y-43406750I0J244250D01*
G01*
X33574000Y-42593250D01*
G75*
G02*
X33818250Y-42349000I244250J0D01*
G01*
X34306750Y-42349000D01*
G75*
G02*
X34551000Y-42593250I0J-244250D01*
G01*
G37*
G36*
G01*
X29251000Y-47723876D02*
X29251000Y-48676124D01*
G75*
G02*
X28976124Y-48951000I-274876J0D01*
G01*
X28398876Y-48951000D01*
G75*
G02*
X28124000Y-48676124I0J274876D01*
G01*
X28124000Y-47723876D01*
G75*
G02*
X28398876Y-47449000I274876J0D01*
G01*
X28976124Y-47449000D01*
G75*
G02*
X29251000Y-47723876I0J-274876D01*
G01*
G37*
G36*
G01*
X31076000Y-47723876D02*
X31076000Y-48676124D01*
G75*
G02*
X30801124Y-48951000I-274876J0D01*
G01*
X30223876Y-48951000D01*
G75*
G02*
X29949000Y-48676124I0J274876D01*
G01*
X29949000Y-47723876D01*
G75*
G02*
X30223876Y-47449000I274876J0D01*
G01*
X30801124Y-47449000D01*
G75*
G02*
X31076000Y-47723876I0J-274876D01*
G01*
G37*
G36*
G01*
X29251000Y-45723876D02*
X29251000Y-46676124D01*
G75*
G02*
X28976124Y-46951000I-274876J0D01*
G01*
X28398876Y-46951000D01*
G75*
G02*
X28124000Y-46676124I0J274876D01*
G01*
X28124000Y-45723876D01*
G75*
G02*
X28398876Y-45449000I274876J0D01*
G01*
X28976124Y-45449000D01*
G75*
G02*
X29251000Y-45723876I0J-274876D01*
G01*
G37*
G36*
G01*
X31076000Y-45723876D02*
X31076000Y-46676124D01*
G75*
G02*
X30801124Y-46951000I-274876J0D01*
G01*
X30223876Y-46951000D01*
G75*
G02*
X29949000Y-46676124I0J274876D01*
G01*
X29949000Y-45723876D01*
G75*
G02*
X30223876Y-45449000I274876J0D01*
G01*
X30801124Y-45449000D01*
G75*
G02*
X31076000Y-45723876I0J-274876D01*
G01*
G37*
G36*
G01*
X39651000Y-73523876D02*
X39651000Y-74476124D01*
G75*
G02*
X39376124Y-74751000I-274876J0D01*
G01*
X38798876Y-74751000D01*
G75*
G02*
X38524000Y-74476124I0J274876D01*
G01*
X38524000Y-73523876D01*
G75*
G02*
X38798876Y-73249000I274876J0D01*
G01*
X39376124Y-73249000D01*
G75*
G02*
X39651000Y-73523876I0J-274876D01*
G01*
G37*
G36*
G01*
X41476000Y-73523876D02*
X41476000Y-74476124D01*
G75*
G02*
X41201124Y-74751000I-274876J0D01*
G01*
X40623876Y-74751000D01*
G75*
G02*
X40349000Y-74476124I0J274876D01*
G01*
X40349000Y-73523876D01*
G75*
G02*
X40623876Y-73249000I274876J0D01*
G01*
X41201124Y-73249000D01*
G75*
G02*
X41476000Y-73523876I0J-274876D01*
G01*
G37*
G36*
G01*
X40449000Y-71676124D02*
X40449000Y-70723876D01*
G75*
G02*
X40723876Y-70449000I274876J0D01*
G01*
X41301124Y-70449000D01*
G75*
G02*
X41576000Y-70723876I0J-274876D01*
G01*
X41576000Y-71676124D01*
G75*
G02*
X41301124Y-71951000I-274876J0D01*
G01*
X40723876Y-71951000D01*
G75*
G02*
X40449000Y-71676124I0J274876D01*
G01*
G37*
G36*
G01*
X38624000Y-71676124D02*
X38624000Y-70723876D01*
G75*
G02*
X38898876Y-70449000I274876J0D01*
G01*
X39476124Y-70449000D01*
G75*
G02*
X39751000Y-70723876I0J-274876D01*
G01*
X39751000Y-71676124D01*
G75*
G02*
X39476124Y-71951000I-274876J0D01*
G01*
X38898876Y-71951000D01*
G75*
G02*
X38624000Y-71676124I0J274876D01*
G01*
G37*
G36*
G01*
X56176124Y-71651000D02*
X55223876Y-71651000D01*
G75*
G02*
X54949000Y-71376124I0J274876D01*
G01*
X54949000Y-70798876D01*
G75*
G02*
X55223876Y-70524000I274876J0D01*
G01*
X56176124Y-70524000D01*
G75*
G02*
X56451000Y-70798876I0J-274876D01*
G01*
X56451000Y-71376124D01*
G75*
G02*
X56176124Y-71651000I-274876J0D01*
G01*
G37*
G36*
G01*
X56176124Y-73476000D02*
X55223876Y-73476000D01*
G75*
G02*
X54949000Y-73201124I0J274876D01*
G01*
X54949000Y-72623876D01*
G75*
G02*
X55223876Y-72349000I274876J0D01*
G01*
X56176124Y-72349000D01*
G75*
G02*
X56451000Y-72623876I0J-274876D01*
G01*
X56451000Y-73201124D01*
G75*
G02*
X56176124Y-73476000I-274876J0D01*
G01*
G37*
G36*
G01*
X57223876Y-48349000D02*
X58176124Y-48349000D01*
G75*
G02*
X58451000Y-48623876I0J-274876D01*
G01*
X58451000Y-49201124D01*
G75*
G02*
X58176124Y-49476000I-274876J0D01*
G01*
X57223876Y-49476000D01*
G75*
G02*
X56949000Y-49201124I0J274876D01*
G01*
X56949000Y-48623876D01*
G75*
G02*
X57223876Y-48349000I274876J0D01*
G01*
G37*
G36*
G01*
X57223876Y-46524000D02*
X58176124Y-46524000D01*
G75*
G02*
X58451000Y-46798876I0J-274876D01*
G01*
X58451000Y-47376124D01*
G75*
G02*
X58176124Y-47651000I-274876J0D01*
G01*
X57223876Y-47651000D01*
G75*
G02*
X56949000Y-47376124I0J274876D01*
G01*
X56949000Y-46798876D01*
G75*
G02*
X57223876Y-46524000I274876J0D01*
G01*
G37*
G36*
G01*
X58576124Y-58751000D02*
X57623876Y-58751000D01*
G75*
G02*
X57349000Y-58476124I0J274876D01*
G01*
X57349000Y-57898876D01*
G75*
G02*
X57623876Y-57624000I274876J0D01*
G01*
X58576124Y-57624000D01*
G75*
G02*
X58851000Y-57898876I0J-274876D01*
G01*
X58851000Y-58476124D01*
G75*
G02*
X58576124Y-58751000I-274876J0D01*
G01*
G37*
G36*
G01*
X58576124Y-60576000D02*
X57623876Y-60576000D01*
G75*
G02*
X57349000Y-60301124I0J274876D01*
G01*
X57349000Y-59723876D01*
G75*
G02*
X57623876Y-59449000I274876J0D01*
G01*
X58576124Y-59449000D01*
G75*
G02*
X58851000Y-59723876I0J-274876D01*
G01*
X58851000Y-60301124D01*
G75*
G02*
X58576124Y-60576000I-274876J0D01*
G01*
G37*
G36*
G01*
X57523876Y-76517000D02*
X58476124Y-76517000D01*
G75*
G02*
X58751000Y-76791876I0J-274876D01*
G01*
X58751000Y-77369124D01*
G75*
G02*
X58476124Y-77644000I-274876J0D01*
G01*
X57523876Y-77644000D01*
G75*
G02*
X57249000Y-77369124I0J274876D01*
G01*
X57249000Y-76791876D01*
G75*
G02*
X57523876Y-76517000I274876J0D01*
G01*
G37*
G36*
G01*
X57523876Y-78342000D02*
X58476124Y-78342000D01*
G75*
G02*
X58751000Y-78616876I0J-274876D01*
G01*
X58751000Y-79194124D01*
G75*
G02*
X58476124Y-79469000I-274876J0D01*
G01*
X57523876Y-79469000D01*
G75*
G02*
X57249000Y-79194124I0J274876D01*
G01*
X57249000Y-78616876D01*
G75*
G02*
X57523876Y-78342000I274876J0D01*
G01*
G37*
G36*
G01*
X40451000Y-47123876D02*
X40451000Y-48076124D01*
G75*
G02*
X40176124Y-48351000I-274876J0D01*
G01*
X39598876Y-48351000D01*
G75*
G02*
X39324000Y-48076124I0J274876D01*
G01*
X39324000Y-47123876D01*
G75*
G02*
X39598876Y-46849000I274876J0D01*
G01*
X40176124Y-46849000D01*
G75*
G02*
X40451000Y-47123876I0J-274876D01*
G01*
G37*
G36*
G01*
X42276000Y-47123876D02*
X42276000Y-48076124D01*
G75*
G02*
X42001124Y-48351000I-274876J0D01*
G01*
X41423876Y-48351000D01*
G75*
G02*
X41149000Y-48076124I0J274876D01*
G01*
X41149000Y-47123876D01*
G75*
G02*
X41423876Y-46849000I274876J0D01*
G01*
X42001124Y-46849000D01*
G75*
G02*
X42276000Y-47123876I0J-274876D01*
G01*
G37*
G36*
G01*
X44251000Y-47123876D02*
X44251000Y-48076124D01*
G75*
G02*
X43976124Y-48351000I-274876J0D01*
G01*
X43398876Y-48351000D01*
G75*
G02*
X43124000Y-48076124I0J274876D01*
G01*
X43124000Y-47123876D01*
G75*
G02*
X43398876Y-46849000I274876J0D01*
G01*
X43976124Y-46849000D01*
G75*
G02*
X44251000Y-47123876I0J-274876D01*
G01*
G37*
G36*
G01*
X46076000Y-47123876D02*
X46076000Y-48076124D01*
G75*
G02*
X45801124Y-48351000I-274876J0D01*
G01*
X45223876Y-48351000D01*
G75*
G02*
X44949000Y-48076124I0J274876D01*
G01*
X44949000Y-47123876D01*
G75*
G02*
X45223876Y-46849000I274876J0D01*
G01*
X45801124Y-46849000D01*
G75*
G02*
X46076000Y-47123876I0J-274876D01*
G01*
G37*
G36*
G01*
X55199500Y-76499000D02*
X56200500Y-76499000D01*
G75*
G02*
X56476000Y-76774500I0J-275500D01*
G01*
X56476000Y-77325500D01*
G75*
G02*
X56200500Y-77601000I-275500J0D01*
G01*
X55199500Y-77601000D01*
G75*
G02*
X54924000Y-77325500I0J275500D01*
G01*
X54924000Y-76774500D01*
G75*
G02*
X55199500Y-76499000I275500J0D01*
G01*
G37*
G36*
G01*
X55199500Y-74599000D02*
X56200500Y-74599000D01*
G75*
G02*
X56476000Y-74874500I0J-275500D01*
G01*
X56476000Y-75425500D01*
G75*
G02*
X56200500Y-75701000I-275500J0D01*
G01*
X55199500Y-75701000D01*
G75*
G02*
X54924000Y-75425500I0J275500D01*
G01*
X54924000Y-74874500D01*
G75*
G02*
X55199500Y-74599000I275500J0D01*
G01*
G37*
G36*
G01*
X48500500Y-84601000D02*
X47499500Y-84601000D01*
G75*
G02*
X47224000Y-84325500I0J275500D01*
G01*
X47224000Y-83774500D01*
G75*
G02*
X47499500Y-83499000I275500J0D01*
G01*
X48500500Y-83499000D01*
G75*
G02*
X48776000Y-83774500I0J-275500D01*
G01*
X48776000Y-84325500D01*
G75*
G02*
X48500500Y-84601000I-275500J0D01*
G01*
G37*
G36*
G01*
X48500500Y-86501000D02*
X47499500Y-86501000D01*
G75*
G02*
X47224000Y-86225500I0J275500D01*
G01*
X47224000Y-85674500D01*
G75*
G02*
X47499500Y-85399000I275500J0D01*
G01*
X48500500Y-85399000D01*
G75*
G02*
X48776000Y-85674500I0J-275500D01*
G01*
X48776000Y-86225500D01*
G75*
G02*
X48500500Y-86501000I-275500J0D01*
G01*
G37*
G36*
G01*
X44500500Y-66601000D02*
X43499500Y-66601000D01*
G75*
G02*
X43224000Y-66325500I0J275500D01*
G01*
X43224000Y-65774500D01*
G75*
G02*
X43499500Y-65499000I275500J0D01*
G01*
X44500500Y-65499000D01*
G75*
G02*
X44776000Y-65774500I0J-275500D01*
G01*
X44776000Y-66325500D01*
G75*
G02*
X44500500Y-66601000I-275500J0D01*
G01*
G37*
G36*
G01*
X44500500Y-68501000D02*
X43499500Y-68501000D01*
G75*
G02*
X43224000Y-68225500I0J275500D01*
G01*
X43224000Y-67674500D01*
G75*
G02*
X43499500Y-67399000I275500J0D01*
G01*
X44500500Y-67399000D01*
G75*
G02*
X44776000Y-67674500I0J-275500D01*
G01*
X44776000Y-68225500D01*
G75*
G02*
X44500500Y-68501000I-275500J0D01*
G01*
G37*
G36*
G01*
X38501000Y-52199500D02*
X38501000Y-53200500D01*
G75*
G02*
X38225500Y-53476000I-275500J0D01*
G01*
X37674500Y-53476000D01*
G75*
G02*
X37399000Y-53200500I0J275500D01*
G01*
X37399000Y-52199500D01*
G75*
G02*
X37674500Y-51924000I275500J0D01*
G01*
X38225500Y-51924000D01*
G75*
G02*
X38501000Y-52199500I0J-275500D01*
G01*
G37*
G36*
G01*
X40401000Y-52199500D02*
X40401000Y-53200500D01*
G75*
G02*
X40125500Y-53476000I-275500J0D01*
G01*
X39574500Y-53476000D01*
G75*
G02*
X39299000Y-53200500I0J275500D01*
G01*
X39299000Y-52199500D01*
G75*
G02*
X39574500Y-51924000I275500J0D01*
G01*
X40125500Y-51924000D01*
G75*
G02*
X40401000Y-52199500I0J-275500D01*
G01*
G37*
G36*
G01*
X44201000Y-49099500D02*
X44201000Y-50100500D01*
G75*
G02*
X43925500Y-50376000I-275500J0D01*
G01*
X43374500Y-50376000D01*
G75*
G02*
X43099000Y-50100500I0J275500D01*
G01*
X43099000Y-49099500D01*
G75*
G02*
X43374500Y-48824000I275500J0D01*
G01*
X43925500Y-48824000D01*
G75*
G02*
X44201000Y-49099500I0J-275500D01*
G01*
G37*
G36*
G01*
X46101000Y-49099500D02*
X46101000Y-50100500D01*
G75*
G02*
X45825500Y-50376000I-275500J0D01*
G01*
X45274500Y-50376000D01*
G75*
G02*
X44999000Y-50100500I0J275500D01*
G01*
X44999000Y-49099500D01*
G75*
G02*
X45274500Y-48824000I275500J0D01*
G01*
X45825500Y-48824000D01*
G75*
G02*
X46101000Y-49099500I0J-275500D01*
G01*
G37*
G36*
G01*
X38999500Y-44499000D02*
X40000500Y-44499000D01*
G75*
G02*
X40276000Y-44774500I0J-275500D01*
G01*
X40276000Y-45325500D01*
G75*
G02*
X40000500Y-45601000I-275500J0D01*
G01*
X38999500Y-45601000D01*
G75*
G02*
X38724000Y-45325500I0J275500D01*
G01*
X38724000Y-44774500D01*
G75*
G02*
X38999500Y-44499000I275500J0D01*
G01*
G37*
G36*
G01*
X38999500Y-42599000D02*
X40000500Y-42599000D01*
G75*
G02*
X40276000Y-42874500I0J-275500D01*
G01*
X40276000Y-43425500D01*
G75*
G02*
X40000500Y-43701000I-275500J0D01*
G01*
X38999500Y-43701000D01*
G75*
G02*
X38724000Y-43425500I0J275500D01*
G01*
X38724000Y-42874500D01*
G75*
G02*
X38999500Y-42599000I275500J0D01*
G01*
G37*
G36*
G01*
X42499500Y-75899000D02*
X43500500Y-75899000D01*
G75*
G02*
X43776000Y-76174500I0J-275500D01*
G01*
X43776000Y-76725500D01*
G75*
G02*
X43500500Y-77001000I-275500J0D01*
G01*
X42499500Y-77001000D01*
G75*
G02*
X42224000Y-76725500I0J275500D01*
G01*
X42224000Y-76174500D01*
G75*
G02*
X42499500Y-75899000I275500J0D01*
G01*
G37*
G36*
G01*
X42499500Y-73999000D02*
X43500500Y-73999000D01*
G75*
G02*
X43776000Y-74274500I0J-275500D01*
G01*
X43776000Y-74825500D01*
G75*
G02*
X43500500Y-75101000I-275500J0D01*
G01*
X42499500Y-75101000D01*
G75*
G02*
X42224000Y-74825500I0J275500D01*
G01*
X42224000Y-74274500D01*
G75*
G02*
X42499500Y-73999000I275500J0D01*
G01*
G37*
G36*
G01*
X44499500Y-75899000D02*
X45500500Y-75899000D01*
G75*
G02*
X45776000Y-76174500I0J-275500D01*
G01*
X45776000Y-76725500D01*
G75*
G02*
X45500500Y-77001000I-275500J0D01*
G01*
X44499500Y-77001000D01*
G75*
G02*
X44224000Y-76725500I0J275500D01*
G01*
X44224000Y-76174500D01*
G75*
G02*
X44499500Y-75899000I275500J0D01*
G01*
G37*
G36*
G01*
X44499500Y-73999000D02*
X45500500Y-73999000D01*
G75*
G02*
X45776000Y-74274500I0J-275500D01*
G01*
X45776000Y-74825500D01*
G75*
G02*
X45500500Y-75101000I-275500J0D01*
G01*
X44499500Y-75101000D01*
G75*
G02*
X44224000Y-74825500I0J275500D01*
G01*
X44224000Y-74274500D01*
G75*
G02*
X44499500Y-73999000I275500J0D01*
G01*
G37*
G36*
G01*
X46499500Y-75899000D02*
X47500500Y-75899000D01*
G75*
G02*
X47776000Y-76174500I0J-275500D01*
G01*
X47776000Y-76725500D01*
G75*
G02*
X47500500Y-77001000I-275500J0D01*
G01*
X46499500Y-77001000D01*
G75*
G02*
X46224000Y-76725500I0J275500D01*
G01*
X46224000Y-76174500D01*
G75*
G02*
X46499500Y-75899000I275500J0D01*
G01*
G37*
G36*
G01*
X46499500Y-73999000D02*
X47500500Y-73999000D01*
G75*
G02*
X47776000Y-74274500I0J-275500D01*
G01*
X47776000Y-74825500D01*
G75*
G02*
X47500500Y-75101000I-275500J0D01*
G01*
X46499500Y-75101000D01*
G75*
G02*
X46224000Y-74825500I0J275500D01*
G01*
X46224000Y-74274500D01*
G75*
G02*
X46499500Y-73999000I275500J0D01*
G01*
G37*
G36*
G01*
X52800500Y-58701000D02*
X51799500Y-58701000D01*
G75*
G02*
X51524000Y-58425500I0J275500D01*
G01*
X51524000Y-57874500D01*
G75*
G02*
X51799500Y-57599000I275500J0D01*
G01*
X52800500Y-57599000D01*
G75*
G02*
X53076000Y-57874500I0J-275500D01*
G01*
X53076000Y-58425500D01*
G75*
G02*
X52800500Y-58701000I-275500J0D01*
G01*
G37*
G36*
G01*
X52800500Y-60601000D02*
X51799500Y-60601000D01*
G75*
G02*
X51524000Y-60325500I0J275500D01*
G01*
X51524000Y-59774500D01*
G75*
G02*
X51799500Y-59499000I275500J0D01*
G01*
X52800500Y-59499000D01*
G75*
G02*
X53076000Y-59774500I0J-275500D01*
G01*
X53076000Y-60325500D01*
G75*
G02*
X52800500Y-60601000I-275500J0D01*
G01*
G37*
G36*
G01*
X58600500Y-62701000D02*
X57599500Y-62701000D01*
G75*
G02*
X57324000Y-62425500I0J275500D01*
G01*
X57324000Y-61874500D01*
G75*
G02*
X57599500Y-61599000I275500J0D01*
G01*
X58600500Y-61599000D01*
G75*
G02*
X58876000Y-61874500I0J-275500D01*
G01*
X58876000Y-62425500D01*
G75*
G02*
X58600500Y-62701000I-275500J0D01*
G01*
G37*
G36*
G01*
X58600500Y-64601000D02*
X57599500Y-64601000D01*
G75*
G02*
X57324000Y-64325500I0J275500D01*
G01*
X57324000Y-63774500D01*
G75*
G02*
X57599500Y-63499000I275500J0D01*
G01*
X58600500Y-63499000D01*
G75*
G02*
X58876000Y-63774500I0J-275500D01*
G01*
X58876000Y-64325500D01*
G75*
G02*
X58600500Y-64601000I-275500J0D01*
G01*
G37*
G36*
G01*
X57499500Y-72499000D02*
X58500500Y-72499000D01*
G75*
G02*
X58776000Y-72774500I0J-275500D01*
G01*
X58776000Y-73325500D01*
G75*
G02*
X58500500Y-73601000I-275500J0D01*
G01*
X57499500Y-73601000D01*
G75*
G02*
X57224000Y-73325500I0J275500D01*
G01*
X57224000Y-72774500D01*
G75*
G02*
X57499500Y-72499000I275500J0D01*
G01*
G37*
G36*
G01*
X57499500Y-74399000D02*
X58500500Y-74399000D01*
G75*
G02*
X58776000Y-74674500I0J-275500D01*
G01*
X58776000Y-75225500D01*
G75*
G02*
X58500500Y-75501000I-275500J0D01*
G01*
X57499500Y-75501000D01*
G75*
G02*
X57224000Y-75225500I0J275500D01*
G01*
X57224000Y-74674500D01*
G75*
G02*
X57499500Y-74399000I275500J0D01*
G01*
G37*
G36*
G01*
X45250000Y-86749000D02*
X45550000Y-86749000D01*
G75*
G02*
X45601000Y-86800000I0J-51000D01*
G01*
X45601000Y-88200000D01*
G75*
G02*
X45550000Y-88251000I-51000J0D01*
G01*
X45250000Y-88251000D01*
G75*
G02*
X45199000Y-88200000I0J51000D01*
G01*
X45199000Y-86800000D01*
G75*
G02*
X45250000Y-86749000I51000J0D01*
G01*
G37*
G36*
G01*
X44750000Y-86749000D02*
X45050000Y-86749000D01*
G75*
G02*
X45101000Y-86800000I0J-51000D01*
G01*
X45101000Y-88200000D01*
G75*
G02*
X45050000Y-88251000I-51000J0D01*
G01*
X44750000Y-88251000D01*
G75*
G02*
X44699000Y-88200000I0J51000D01*
G01*
X44699000Y-86800000D01*
G75*
G02*
X44750000Y-86749000I51000J0D01*
G01*
G37*
G36*
G01*
X44250000Y-86749000D02*
X44550000Y-86749000D01*
G75*
G02*
X44601000Y-86800000I0J-51000D01*
G01*
X44601000Y-88200000D01*
G75*
G02*
X44550000Y-88251000I-51000J0D01*
G01*
X44250000Y-88251000D01*
G75*
G02*
X44199000Y-88200000I0J51000D01*
G01*
X44199000Y-86800000D01*
G75*
G02*
X44250000Y-86749000I51000J0D01*
G01*
G37*
G36*
G01*
X43750000Y-86749000D02*
X44050000Y-86749000D01*
G75*
G02*
X44101000Y-86800000I0J-51000D01*
G01*
X44101000Y-88200000D01*
G75*
G02*
X44050000Y-88251000I-51000J0D01*
G01*
X43750000Y-88251000D01*
G75*
G02*
X43699000Y-88200000I0J51000D01*
G01*
X43699000Y-86800000D01*
G75*
G02*
X43750000Y-86749000I51000J0D01*
G01*
G37*
G36*
G01*
X43250000Y-86749000D02*
X43550000Y-86749000D01*
G75*
G02*
X43601000Y-86800000I0J-51000D01*
G01*
X43601000Y-88200000D01*
G75*
G02*
X43550000Y-88251000I-51000J0D01*
G01*
X43250000Y-88251000D01*
G75*
G02*
X43199000Y-88200000I0J51000D01*
G01*
X43199000Y-86800000D01*
G75*
G02*
X43250000Y-86749000I51000J0D01*
G01*
G37*
G36*
G01*
X43250000Y-82349000D02*
X43550000Y-82349000D01*
G75*
G02*
X43601000Y-82400000I0J-51000D01*
G01*
X43601000Y-83800000D01*
G75*
G02*
X43550000Y-83851000I-51000J0D01*
G01*
X43250000Y-83851000D01*
G75*
G02*
X43199000Y-83800000I0J51000D01*
G01*
X43199000Y-82400000D01*
G75*
G02*
X43250000Y-82349000I51000J0D01*
G01*
G37*
G36*
G01*
X43750000Y-82349000D02*
X44050000Y-82349000D01*
G75*
G02*
X44101000Y-82400000I0J-51000D01*
G01*
X44101000Y-83800000D01*
G75*
G02*
X44050000Y-83851000I-51000J0D01*
G01*
X43750000Y-83851000D01*
G75*
G02*
X43699000Y-83800000I0J51000D01*
G01*
X43699000Y-82400000D01*
G75*
G02*
X43750000Y-82349000I51000J0D01*
G01*
G37*
G36*
G01*
X44250000Y-82349000D02*
X44550000Y-82349000D01*
G75*
G02*
X44601000Y-82400000I0J-51000D01*
G01*
X44601000Y-83800000D01*
G75*
G02*
X44550000Y-83851000I-51000J0D01*
G01*
X44250000Y-83851000D01*
G75*
G02*
X44199000Y-83800000I0J51000D01*
G01*
X44199000Y-82400000D01*
G75*
G02*
X44250000Y-82349000I51000J0D01*
G01*
G37*
G36*
G01*
X44750000Y-82349000D02*
X45050000Y-82349000D01*
G75*
G02*
X45101000Y-82400000I0J-51000D01*
G01*
X45101000Y-83800000D01*
G75*
G02*
X45050000Y-83851000I-51000J0D01*
G01*
X44750000Y-83851000D01*
G75*
G02*
X44699000Y-83800000I0J51000D01*
G01*
X44699000Y-82400000D01*
G75*
G02*
X44750000Y-82349000I51000J0D01*
G01*
G37*
G36*
G01*
X45250000Y-82349000D02*
X45550000Y-82349000D01*
G75*
G02*
X45601000Y-82400000I0J-51000D01*
G01*
X45601000Y-83800000D01*
G75*
G02*
X45550000Y-83851000I-51000J0D01*
G01*
X45250000Y-83851000D01*
G75*
G02*
X45199000Y-83800000I0J51000D01*
G01*
X45199000Y-82400000D01*
G75*
G02*
X45250000Y-82349000I51000J0D01*
G01*
G37*
D17*
X46200000Y-58880000D03*
X46200000Y-56340000D03*
G36*
G01*
X45299000Y-54650000D02*
X45299000Y-52950000D01*
G75*
G02*
X45350000Y-52899000I51000J0D01*
G01*
X47050000Y-52899000D01*
G75*
G02*
X47101000Y-52950000I0J-51000D01*
G01*
X47101000Y-54650000D01*
G75*
G02*
X47050000Y-54701000I-51000J0D01*
G01*
X45350000Y-54701000D01*
G75*
G02*
X45299000Y-54650000I0J51000D01*
G01*
G37*
G36*
G01*
X52875000Y-69249000D02*
X53275000Y-69249000D01*
G75*
G02*
X53326000Y-69300000I0J-51000D01*
G01*
X53326000Y-70400000D01*
G75*
G02*
X53275000Y-70451000I-51000J0D01*
G01*
X52875000Y-70451000D01*
G75*
G02*
X52824000Y-70400000I0J51000D01*
G01*
X52824000Y-69300000D01*
G75*
G02*
X52875000Y-69249000I51000J0D01*
G01*
G37*
G36*
G01*
X52225000Y-69249000D02*
X52625000Y-69249000D01*
G75*
G02*
X52676000Y-69300000I0J-51000D01*
G01*
X52676000Y-70400000D01*
G75*
G02*
X52625000Y-70451000I-51000J0D01*
G01*
X52225000Y-70451000D01*
G75*
G02*
X52174000Y-70400000I0J51000D01*
G01*
X52174000Y-69300000D01*
G75*
G02*
X52225000Y-69249000I51000J0D01*
G01*
G37*
G36*
G01*
X51575000Y-69249000D02*
X51975000Y-69249000D01*
G75*
G02*
X52026000Y-69300000I0J-51000D01*
G01*
X52026000Y-70400000D01*
G75*
G02*
X51975000Y-70451000I-51000J0D01*
G01*
X51575000Y-70451000D01*
G75*
G02*
X51524000Y-70400000I0J51000D01*
G01*
X51524000Y-69300000D01*
G75*
G02*
X51575000Y-69249000I51000J0D01*
G01*
G37*
G36*
G01*
X50925000Y-69249000D02*
X51325000Y-69249000D01*
G75*
G02*
X51376000Y-69300000I0J-51000D01*
G01*
X51376000Y-70400000D01*
G75*
G02*
X51325000Y-70451000I-51000J0D01*
G01*
X50925000Y-70451000D01*
G75*
G02*
X50874000Y-70400000I0J51000D01*
G01*
X50874000Y-69300000D01*
G75*
G02*
X50925000Y-69249000I51000J0D01*
G01*
G37*
G36*
G01*
X50275000Y-69249000D02*
X50675000Y-69249000D01*
G75*
G02*
X50726000Y-69300000I0J-51000D01*
G01*
X50726000Y-70400000D01*
G75*
G02*
X50675000Y-70451000I-51000J0D01*
G01*
X50275000Y-70451000D01*
G75*
G02*
X50224000Y-70400000I0J51000D01*
G01*
X50224000Y-69300000D01*
G75*
G02*
X50275000Y-69249000I51000J0D01*
G01*
G37*
G36*
G01*
X49625000Y-69249000D02*
X50025000Y-69249000D01*
G75*
G02*
X50076000Y-69300000I0J-51000D01*
G01*
X50076000Y-70400000D01*
G75*
G02*
X50025000Y-70451000I-51000J0D01*
G01*
X49625000Y-70451000D01*
G75*
G02*
X49574000Y-70400000I0J51000D01*
G01*
X49574000Y-69300000D01*
G75*
G02*
X49625000Y-69249000I51000J0D01*
G01*
G37*
G36*
G01*
X48975000Y-69249000D02*
X49375000Y-69249000D01*
G75*
G02*
X49426000Y-69300000I0J-51000D01*
G01*
X49426000Y-70400000D01*
G75*
G02*
X49375000Y-70451000I-51000J0D01*
G01*
X48975000Y-70451000D01*
G75*
G02*
X48924000Y-70400000I0J51000D01*
G01*
X48924000Y-69300000D01*
G75*
G02*
X48975000Y-69249000I51000J0D01*
G01*
G37*
G36*
G01*
X48325000Y-69249000D02*
X48725000Y-69249000D01*
G75*
G02*
X48776000Y-69300000I0J-51000D01*
G01*
X48776000Y-70400000D01*
G75*
G02*
X48725000Y-70451000I-51000J0D01*
G01*
X48325000Y-70451000D01*
G75*
G02*
X48274000Y-70400000I0J51000D01*
G01*
X48274000Y-69300000D01*
G75*
G02*
X48325000Y-69249000I51000J0D01*
G01*
G37*
G36*
G01*
X47675000Y-69249000D02*
X48075000Y-69249000D01*
G75*
G02*
X48126000Y-69300000I0J-51000D01*
G01*
X48126000Y-70400000D01*
G75*
G02*
X48075000Y-70451000I-51000J0D01*
G01*
X47675000Y-70451000D01*
G75*
G02*
X47624000Y-70400000I0J51000D01*
G01*
X47624000Y-69300000D01*
G75*
G02*
X47675000Y-69249000I51000J0D01*
G01*
G37*
G36*
G01*
X47025000Y-69249000D02*
X47425000Y-69249000D01*
G75*
G02*
X47476000Y-69300000I0J-51000D01*
G01*
X47476000Y-70400000D01*
G75*
G02*
X47425000Y-70451000I-51000J0D01*
G01*
X47025000Y-70451000D01*
G75*
G02*
X46974000Y-70400000I0J51000D01*
G01*
X46974000Y-69300000D01*
G75*
G02*
X47025000Y-69249000I51000J0D01*
G01*
G37*
G36*
G01*
X46375000Y-69249000D02*
X46775000Y-69249000D01*
G75*
G02*
X46826000Y-69300000I0J-51000D01*
G01*
X46826000Y-70400000D01*
G75*
G02*
X46775000Y-70451000I-51000J0D01*
G01*
X46375000Y-70451000D01*
G75*
G02*
X46324000Y-70400000I0J51000D01*
G01*
X46324000Y-69300000D01*
G75*
G02*
X46375000Y-69249000I51000J0D01*
G01*
G37*
G36*
G01*
X45725000Y-69249000D02*
X46125000Y-69249000D01*
G75*
G02*
X46176000Y-69300000I0J-51000D01*
G01*
X46176000Y-70400000D01*
G75*
G02*
X46125000Y-70451000I-51000J0D01*
G01*
X45725000Y-70451000D01*
G75*
G02*
X45674000Y-70400000I0J51000D01*
G01*
X45674000Y-69300000D01*
G75*
G02*
X45725000Y-69249000I51000J0D01*
G01*
G37*
G36*
G01*
X45725000Y-63549000D02*
X46125000Y-63549000D01*
G75*
G02*
X46176000Y-63600000I0J-51000D01*
G01*
X46176000Y-64700000D01*
G75*
G02*
X46125000Y-64751000I-51000J0D01*
G01*
X45725000Y-64751000D01*
G75*
G02*
X45674000Y-64700000I0J51000D01*
G01*
X45674000Y-63600000D01*
G75*
G02*
X45725000Y-63549000I51000J0D01*
G01*
G37*
G36*
G01*
X46375000Y-63549000D02*
X46775000Y-63549000D01*
G75*
G02*
X46826000Y-63600000I0J-51000D01*
G01*
X46826000Y-64700000D01*
G75*
G02*
X46775000Y-64751000I-51000J0D01*
G01*
X46375000Y-64751000D01*
G75*
G02*
X46324000Y-64700000I0J51000D01*
G01*
X46324000Y-63600000D01*
G75*
G02*
X46375000Y-63549000I51000J0D01*
G01*
G37*
G36*
G01*
X47025000Y-63549000D02*
X47425000Y-63549000D01*
G75*
G02*
X47476000Y-63600000I0J-51000D01*
G01*
X47476000Y-64700000D01*
G75*
G02*
X47425000Y-64751000I-51000J0D01*
G01*
X47025000Y-64751000D01*
G75*
G02*
X46974000Y-64700000I0J51000D01*
G01*
X46974000Y-63600000D01*
G75*
G02*
X47025000Y-63549000I51000J0D01*
G01*
G37*
G36*
G01*
X47675000Y-63549000D02*
X48075000Y-63549000D01*
G75*
G02*
X48126000Y-63600000I0J-51000D01*
G01*
X48126000Y-64700000D01*
G75*
G02*
X48075000Y-64751000I-51000J0D01*
G01*
X47675000Y-64751000D01*
G75*
G02*
X47624000Y-64700000I0J51000D01*
G01*
X47624000Y-63600000D01*
G75*
G02*
X47675000Y-63549000I51000J0D01*
G01*
G37*
G36*
G01*
X48325000Y-63549000D02*
X48725000Y-63549000D01*
G75*
G02*
X48776000Y-63600000I0J-51000D01*
G01*
X48776000Y-64700000D01*
G75*
G02*
X48725000Y-64751000I-51000J0D01*
G01*
X48325000Y-64751000D01*
G75*
G02*
X48274000Y-64700000I0J51000D01*
G01*
X48274000Y-63600000D01*
G75*
G02*
X48325000Y-63549000I51000J0D01*
G01*
G37*
G36*
G01*
X48975000Y-63549000D02*
X49375000Y-63549000D01*
G75*
G02*
X49426000Y-63600000I0J-51000D01*
G01*
X49426000Y-64700000D01*
G75*
G02*
X49375000Y-64751000I-51000J0D01*
G01*
X48975000Y-64751000D01*
G75*
G02*
X48924000Y-64700000I0J51000D01*
G01*
X48924000Y-63600000D01*
G75*
G02*
X48975000Y-63549000I51000J0D01*
G01*
G37*
G36*
G01*
X49625000Y-63549000D02*
X50025000Y-63549000D01*
G75*
G02*
X50076000Y-63600000I0J-51000D01*
G01*
X50076000Y-64700000D01*
G75*
G02*
X50025000Y-64751000I-51000J0D01*
G01*
X49625000Y-64751000D01*
G75*
G02*
X49574000Y-64700000I0J51000D01*
G01*
X49574000Y-63600000D01*
G75*
G02*
X49625000Y-63549000I51000J0D01*
G01*
G37*
G36*
G01*
X50275000Y-63549000D02*
X50675000Y-63549000D01*
G75*
G02*
X50726000Y-63600000I0J-51000D01*
G01*
X50726000Y-64700000D01*
G75*
G02*
X50675000Y-64751000I-51000J0D01*
G01*
X50275000Y-64751000D01*
G75*
G02*
X50224000Y-64700000I0J51000D01*
G01*
X50224000Y-63600000D01*
G75*
G02*
X50275000Y-63549000I51000J0D01*
G01*
G37*
G36*
G01*
X50925000Y-63549000D02*
X51325000Y-63549000D01*
G75*
G02*
X51376000Y-63600000I0J-51000D01*
G01*
X51376000Y-64700000D01*
G75*
G02*
X51325000Y-64751000I-51000J0D01*
G01*
X50925000Y-64751000D01*
G75*
G02*
X50874000Y-64700000I0J51000D01*
G01*
X50874000Y-63600000D01*
G75*
G02*
X50925000Y-63549000I51000J0D01*
G01*
G37*
G36*
G01*
X51575000Y-63549000D02*
X51975000Y-63549000D01*
G75*
G02*
X52026000Y-63600000I0J-51000D01*
G01*
X52026000Y-64700000D01*
G75*
G02*
X51975000Y-64751000I-51000J0D01*
G01*
X51575000Y-64751000D01*
G75*
G02*
X51524000Y-64700000I0J51000D01*
G01*
X51524000Y-63600000D01*
G75*
G02*
X51575000Y-63549000I51000J0D01*
G01*
G37*
G36*
G01*
X52225000Y-63549000D02*
X52625000Y-63549000D01*
G75*
G02*
X52676000Y-63600000I0J-51000D01*
G01*
X52676000Y-64700000D01*
G75*
G02*
X52625000Y-64751000I-51000J0D01*
G01*
X52225000Y-64751000D01*
G75*
G02*
X52174000Y-64700000I0J51000D01*
G01*
X52174000Y-63600000D01*
G75*
G02*
X52225000Y-63549000I51000J0D01*
G01*
G37*
G36*
G01*
X52875000Y-63549000D02*
X53275000Y-63549000D01*
G75*
G02*
X53326000Y-63600000I0J-51000D01*
G01*
X53326000Y-64700000D01*
G75*
G02*
X53275000Y-64751000I-51000J0D01*
G01*
X52875000Y-64751000D01*
G75*
G02*
X52824000Y-64700000I0J51000D01*
G01*
X52824000Y-63600000D01*
G75*
G02*
X52875000Y-63549000I51000J0D01*
G01*
G37*
D18*
X69150000Y-86350000D03*
X69150000Y-94850000D03*
D19*
X66000000Y-90600000D03*
X61500000Y-90600000D03*
D18*
X69150000Y-99370000D03*
X69150000Y-107870000D03*
D19*
X66000000Y-103620000D03*
X61500000Y-103620000D03*
G36*
G01*
X43146000Y-43643000D02*
X42346000Y-43643000D01*
G75*
G02*
X42295000Y-43592000I0J51000D01*
G01*
X42295000Y-42692000D01*
G75*
G02*
X42346000Y-42641000I51000J0D01*
G01*
X43146000Y-42641000D01*
G75*
G02*
X43197000Y-42692000I0J-51000D01*
G01*
X43197000Y-43592000D01*
G75*
G02*
X43146000Y-43643000I-51000J0D01*
G01*
G37*
G36*
G01*
X44096000Y-45643000D02*
X43296000Y-45643000D01*
G75*
G02*
X43245000Y-45592000I0J51000D01*
G01*
X43245000Y-44692000D01*
G75*
G02*
X43296000Y-44641000I51000J0D01*
G01*
X44096000Y-44641000D01*
G75*
G02*
X44147000Y-44692000I0J-51000D01*
G01*
X44147000Y-45592000D01*
G75*
G02*
X44096000Y-45643000I-51000J0D01*
G01*
G37*
G36*
G01*
X42196000Y-45643000D02*
X41396000Y-45643000D01*
G75*
G02*
X41345000Y-45592000I0J51000D01*
G01*
X41345000Y-44692000D01*
G75*
G02*
X41396000Y-44641000I51000J0D01*
G01*
X42196000Y-44641000D01*
G75*
G02*
X42247000Y-44692000I0J-51000D01*
G01*
X42247000Y-45592000D01*
G75*
G02*
X42196000Y-45643000I-51000J0D01*
G01*
G37*
G36*
G01*
X51585063Y-45801000D02*
X50414937Y-45801000D01*
G75*
G02*
X50149000Y-45535063I0J265937D01*
G01*
X50149000Y-42464937D01*
G75*
G02*
X50414937Y-42199000I265937J0D01*
G01*
X51585063Y-42199000D01*
G75*
G02*
X51851000Y-42464937I0J-265937D01*
G01*
X51851000Y-45535063D01*
G75*
G02*
X51585063Y-45801000I-265937J0D01*
G01*
G37*
G36*
G01*
X51585063Y-51201000D02*
X50414937Y-51201000D01*
G75*
G02*
X50149000Y-50935063I0J265937D01*
G01*
X50149000Y-47864937D01*
G75*
G02*
X50414937Y-47599000I265937J0D01*
G01*
X51585063Y-47599000D01*
G75*
G02*
X51851000Y-47864937I0J-265937D01*
G01*
X51851000Y-50935063D01*
G75*
G02*
X51585063Y-51201000I-265937J0D01*
G01*
G37*
G36*
G01*
X39981750Y-86101000D02*
X39018250Y-86101000D01*
G75*
G02*
X38749000Y-85831750I0J269250D01*
G01*
X38749000Y-85293250D01*
G75*
G02*
X39018250Y-85024000I269250J0D01*
G01*
X39981750Y-85024000D01*
G75*
G02*
X40251000Y-85293250I0J-269250D01*
G01*
X40251000Y-85831750D01*
G75*
G02*
X39981750Y-86101000I-269250J0D01*
G01*
G37*
G36*
G01*
X39981750Y-87976000D02*
X39018250Y-87976000D01*
G75*
G02*
X38749000Y-87706750I0J269250D01*
G01*
X38749000Y-87168250D01*
G75*
G02*
X39018250Y-86899000I269250J0D01*
G01*
X39981750Y-86899000D01*
G75*
G02*
X40251000Y-87168250I0J-269250D01*
G01*
X40251000Y-87706750D01*
G75*
G02*
X39981750Y-87976000I-269250J0D01*
G01*
G37*
G36*
G01*
X39018250Y-78899000D02*
X39981750Y-78899000D01*
G75*
G02*
X40251000Y-79168250I0J-269250D01*
G01*
X40251000Y-79706750D01*
G75*
G02*
X39981750Y-79976000I-269250J0D01*
G01*
X39018250Y-79976000D01*
G75*
G02*
X38749000Y-79706750I0J269250D01*
G01*
X38749000Y-79168250D01*
G75*
G02*
X39018250Y-78899000I269250J0D01*
G01*
G37*
G36*
G01*
X39018250Y-77024000D02*
X39981750Y-77024000D01*
G75*
G02*
X40251000Y-77293250I0J-269250D01*
G01*
X40251000Y-77831750D01*
G75*
G02*
X39981750Y-78101000I-269250J0D01*
G01*
X39018250Y-78101000D01*
G75*
G02*
X38749000Y-77831750I0J269250D01*
G01*
X38749000Y-77293250D01*
G75*
G02*
X39018250Y-77024000I269250J0D01*
G01*
G37*
G36*
G01*
X39018250Y-82899000D02*
X39981750Y-82899000D01*
G75*
G02*
X40251000Y-83168250I0J-269250D01*
G01*
X40251000Y-83706750D01*
G75*
G02*
X39981750Y-83976000I-269250J0D01*
G01*
X39018250Y-83976000D01*
G75*
G02*
X38749000Y-83706750I0J269250D01*
G01*
X38749000Y-83168250D01*
G75*
G02*
X39018250Y-82899000I269250J0D01*
G01*
G37*
G36*
G01*
X39018250Y-81024000D02*
X39981750Y-81024000D01*
G75*
G02*
X40251000Y-81293250I0J-269250D01*
G01*
X40251000Y-81831750D01*
G75*
G02*
X39981750Y-82101000I-269250J0D01*
G01*
X39018250Y-82101000D01*
G75*
G02*
X38749000Y-81831750I0J269250D01*
G01*
X38749000Y-81293250D01*
G75*
G02*
X39018250Y-81024000I269250J0D01*
G01*
G37*
G36*
G01*
X39149000Y-54875001D02*
X39149000Y-54224999D01*
G75*
G02*
X39199999Y-54174000I50999J0D01*
G01*
X40420001Y-54174000D01*
G75*
G02*
X40471000Y-54224999I0J-50999D01*
G01*
X40471000Y-54875001D01*
G75*
G02*
X40420001Y-54926000I-50999J0D01*
G01*
X39199999Y-54926000D01*
G75*
G02*
X39149000Y-54875001I0J50999D01*
G01*
G37*
G36*
G01*
X39149000Y-56775001D02*
X39149000Y-56124999D01*
G75*
G02*
X39199999Y-56074000I50999J0D01*
G01*
X40420001Y-56074000D01*
G75*
G02*
X40471000Y-56124999I0J-50999D01*
G01*
X40471000Y-56775001D01*
G75*
G02*
X40420001Y-56826000I-50999J0D01*
G01*
X39199999Y-56826000D01*
G75*
G02*
X39149000Y-56775001I0J50999D01*
G01*
G37*
G36*
G01*
X36529000Y-56775001D02*
X36529000Y-56124999D01*
G75*
G02*
X36579999Y-56074000I50999J0D01*
G01*
X37800001Y-56074000D01*
G75*
G02*
X37851000Y-56124999I0J-50999D01*
G01*
X37851000Y-56775001D01*
G75*
G02*
X37800001Y-56826000I-50999J0D01*
G01*
X36579999Y-56826000D01*
G75*
G02*
X36529000Y-56775001I0J50999D01*
G01*
G37*
G36*
G01*
X36529000Y-55825001D02*
X36529000Y-55174999D01*
G75*
G02*
X36579999Y-55124000I50999J0D01*
G01*
X37800001Y-55124000D01*
G75*
G02*
X37851000Y-55174999I0J-50999D01*
G01*
X37851000Y-55825001D01*
G75*
G02*
X37800001Y-55876000I-50999J0D01*
G01*
X36579999Y-55876000D01*
G75*
G02*
X36529000Y-55825001I0J50999D01*
G01*
G37*
G36*
G01*
X36529000Y-54875001D02*
X36529000Y-54224999D01*
G75*
G02*
X36579999Y-54174000I50999J0D01*
G01*
X37800001Y-54174000D01*
G75*
G02*
X37851000Y-54224999I0J-50999D01*
G01*
X37851000Y-54875001D01*
G75*
G02*
X37800001Y-54926000I-50999J0D01*
G01*
X36579999Y-54926000D01*
G75*
G02*
X36529000Y-54875001I0J50999D01*
G01*
G37*
G36*
G01*
X34149000Y-54875001D02*
X34149000Y-54224999D01*
G75*
G02*
X34199999Y-54174000I50999J0D01*
G01*
X35420001Y-54174000D01*
G75*
G02*
X35471000Y-54224999I0J-50999D01*
G01*
X35471000Y-54875001D01*
G75*
G02*
X35420001Y-54926000I-50999J0D01*
G01*
X34199999Y-54926000D01*
G75*
G02*
X34149000Y-54875001I0J50999D01*
G01*
G37*
G36*
G01*
X34149000Y-56775001D02*
X34149000Y-56124999D01*
G75*
G02*
X34199999Y-56074000I50999J0D01*
G01*
X35420001Y-56074000D01*
G75*
G02*
X35471000Y-56124999I0J-50999D01*
G01*
X35471000Y-56775001D01*
G75*
G02*
X35420001Y-56826000I-50999J0D01*
G01*
X34199999Y-56826000D01*
G75*
G02*
X34149000Y-56775001I0J50999D01*
G01*
G37*
G36*
G01*
X31529000Y-56775001D02*
X31529000Y-56124999D01*
G75*
G02*
X31579999Y-56074000I50999J0D01*
G01*
X32800001Y-56074000D01*
G75*
G02*
X32851000Y-56124999I0J-50999D01*
G01*
X32851000Y-56775001D01*
G75*
G02*
X32800001Y-56826000I-50999J0D01*
G01*
X31579999Y-56826000D01*
G75*
G02*
X31529000Y-56775001I0J50999D01*
G01*
G37*
G36*
G01*
X31529000Y-55825001D02*
X31529000Y-55174999D01*
G75*
G02*
X31579999Y-55124000I50999J0D01*
G01*
X32800001Y-55124000D01*
G75*
G02*
X32851000Y-55174999I0J-50999D01*
G01*
X32851000Y-55825001D01*
G75*
G02*
X32800001Y-55876000I-50999J0D01*
G01*
X31579999Y-55876000D01*
G75*
G02*
X31529000Y-55825001I0J50999D01*
G01*
G37*
G36*
G01*
X31529000Y-54875001D02*
X31529000Y-54224999D01*
G75*
G02*
X31579999Y-54174000I50999J0D01*
G01*
X32800001Y-54174000D01*
G75*
G02*
X32851000Y-54224999I0J-50999D01*
G01*
X32851000Y-54875001D01*
G75*
G02*
X32800001Y-54926000I-50999J0D01*
G01*
X31579999Y-54926000D01*
G75*
G02*
X31529000Y-54875001I0J50999D01*
G01*
G37*
D18*
X34480000Y-99905000D03*
X34480000Y-61805000D03*
X29400000Y-67520000D03*
X34480000Y-65615000D03*
X29400000Y-71330000D03*
X34480000Y-69425000D03*
X29400000Y-75140000D03*
X34480000Y-73235000D03*
X29400000Y-63710000D03*
X34480000Y-77045000D03*
X29400000Y-78950000D03*
X34480000Y-80855000D03*
X29400000Y-82760000D03*
X34480000Y-84665000D03*
X29400000Y-86570000D03*
X34480000Y-88475000D03*
X29400000Y-90380000D03*
X34480000Y-92285000D03*
X29400000Y-94190000D03*
X34480000Y-96095000D03*
X29400000Y-98000000D03*
D20*
X27200000Y-55000000D03*
X27200000Y-107270000D03*
D21*
X24800000Y-43280000D03*
X24800000Y-51920000D03*
X21000000Y-51920000D03*
G36*
G01*
X25550000Y-45301000D02*
X24350000Y-45301000D01*
G75*
G02*
X24299000Y-45250000I0J51000D01*
G01*
X24299000Y-44450000D01*
G75*
G02*
X24350000Y-44399000I51000J0D01*
G01*
X25550000Y-44399000D01*
G75*
G02*
X25601000Y-44450000I0J-51000D01*
G01*
X25601000Y-45250000D01*
G75*
G02*
X25550000Y-45301000I-51000J0D01*
G01*
G37*
G36*
G01*
X25550000Y-46511000D02*
X24350000Y-46511000D01*
G75*
G02*
X24299000Y-46460000I0J51000D01*
G01*
X24299000Y-45700000D01*
G75*
G02*
X24350000Y-45649000I51000J0D01*
G01*
X25550000Y-45649000D01*
G75*
G02*
X25601000Y-45700000I0J-51000D01*
G01*
X25601000Y-46460000D01*
G75*
G02*
X25550000Y-46511000I-51000J0D01*
G01*
G37*
G36*
G01*
X25550001Y-48501000D02*
X24349999Y-48501000D01*
G75*
G02*
X24299000Y-48450001I0J50999D01*
G01*
X24299000Y-47749999D01*
G75*
G02*
X24349999Y-47699000I50999J0D01*
G01*
X25550001Y-47699000D01*
G75*
G02*
X25601000Y-47749999I0J-50999D01*
G01*
X25601000Y-48450001D01*
G75*
G02*
X25550001Y-48501000I-50999J0D01*
G01*
G37*
X21000000Y-43280000D03*
G36*
G01*
X25550000Y-49551000D02*
X24350000Y-49551000D01*
G75*
G02*
X24299000Y-49500000I0J51000D01*
G01*
X24299000Y-48740000D01*
G75*
G02*
X24350000Y-48689000I51000J0D01*
G01*
X25550000Y-48689000D01*
G75*
G02*
X25601000Y-48740000I0J-51000D01*
G01*
X25601000Y-49500000D01*
G75*
G02*
X25550000Y-49551000I-51000J0D01*
G01*
G37*
G36*
G01*
X25550000Y-50801000D02*
X24350000Y-50801000D01*
G75*
G02*
X24299000Y-50750000I0J51000D01*
G01*
X24299000Y-49950000D01*
G75*
G02*
X24350000Y-49899000I51000J0D01*
G01*
X25550000Y-49899000D01*
G75*
G02*
X25601000Y-49950000I0J-51000D01*
G01*
X25601000Y-50750000D01*
G75*
G02*
X25550000Y-50801000I-51000J0D01*
G01*
G37*
G36*
G01*
X25550001Y-47501000D02*
X24349999Y-47501000D01*
G75*
G02*
X24299000Y-47450001I0J50999D01*
G01*
X24299000Y-46749999D01*
G75*
G02*
X24349999Y-46699000I50999J0D01*
G01*
X25550001Y-46699000D01*
G75*
G02*
X25601000Y-46749999I0J-50999D01*
G01*
X25601000Y-47450001D01*
G75*
G02*
X25550001Y-47501000I-50999J0D01*
G01*
G37*
D22*
G36*
X45200732Y-86748000D02*
G01*
X45201000Y-86749000D01*
X45201000Y-88251000D01*
X45200000Y-88252732D01*
X45199000Y-88253000D01*
X45101000Y-88253000D01*
X45099268Y-88252000D01*
X45099000Y-88251000D01*
X45099000Y-86751000D01*
X44701000Y-86751000D01*
X44701000Y-88251000D01*
X44700000Y-88252732D01*
X44699000Y-88253000D01*
X44601000Y-88253000D01*
X44599268Y-88252000D01*
X44599000Y-88251000D01*
X44599000Y-86751000D01*
X44201000Y-86751000D01*
X44201000Y-88251000D01*
X44200000Y-88252732D01*
X44199000Y-88253000D01*
X44101000Y-88253000D01*
X44099268Y-88252000D01*
X44099000Y-88251000D01*
X44099000Y-86751000D01*
X43701000Y-86751000D01*
X43701000Y-88251000D01*
X43700000Y-88252732D01*
X43699000Y-88253000D01*
X43601000Y-88253000D01*
X43599268Y-88252000D01*
X43599000Y-88251000D01*
X43599000Y-86749000D01*
X43600000Y-86747268D01*
X43601000Y-86747000D01*
X45199000Y-86747000D01*
X45200732Y-86748000D01*
G37*
G36*
X45200732Y-82348000D02*
G01*
X45201000Y-82349000D01*
X45201000Y-83851000D01*
X45200000Y-83852732D01*
X45199000Y-83853000D01*
X45101000Y-83853000D01*
X45099268Y-83852000D01*
X45099000Y-83851000D01*
X45099000Y-82351000D01*
X44701000Y-82351000D01*
X44701000Y-83851000D01*
X44700000Y-83852732D01*
X44699000Y-83853000D01*
X44601000Y-83853000D01*
X44599268Y-83852000D01*
X44599000Y-83851000D01*
X44599000Y-82351000D01*
X44201000Y-82351000D01*
X44201000Y-83851000D01*
X44200000Y-83852732D01*
X44199000Y-83853000D01*
X44101000Y-83853000D01*
X44099268Y-83852000D01*
X44099000Y-83851000D01*
X44099000Y-82351000D01*
X43701000Y-82351000D01*
X43701000Y-83851000D01*
X43700000Y-83852732D01*
X43699000Y-83853000D01*
X43601000Y-83853000D01*
X43599268Y-83852000D01*
X43599000Y-83851000D01*
X43599000Y-82349000D01*
X43600000Y-82347268D01*
X43601000Y-82347000D01*
X45199000Y-82347000D01*
X45200732Y-82348000D01*
G37*
G36*
X52825732Y-69248000D02*
G01*
X52826000Y-69249000D01*
X52826000Y-70451000D01*
X52825000Y-70452732D01*
X52824000Y-70453000D01*
X52676000Y-70453000D01*
X52674268Y-70452000D01*
X52674000Y-70451000D01*
X52674000Y-69251000D01*
X52176000Y-69251000D01*
X52176000Y-70451000D01*
X52175000Y-70452732D01*
X52174000Y-70453000D01*
X52026000Y-70453000D01*
X52024268Y-70452000D01*
X52024000Y-70451000D01*
X52024000Y-69251000D01*
X51526000Y-69251000D01*
X51526000Y-70451000D01*
X51525000Y-70452732D01*
X51524000Y-70453000D01*
X51376000Y-70453000D01*
X51374268Y-70452000D01*
X51374000Y-70451000D01*
X51374000Y-69251000D01*
X50876000Y-69251000D01*
X50876000Y-70451000D01*
X50875000Y-70452732D01*
X50874000Y-70453000D01*
X50726000Y-70453000D01*
X50724268Y-70452000D01*
X50724000Y-70451000D01*
X50724000Y-69251000D01*
X50226000Y-69251000D01*
X50226000Y-70451000D01*
X50225000Y-70452732D01*
X50224000Y-70453000D01*
X50076000Y-70453000D01*
X50074268Y-70452000D01*
X50074000Y-70451000D01*
X50074000Y-69251000D01*
X49576000Y-69251000D01*
X49576000Y-70451000D01*
X49575000Y-70452732D01*
X49574000Y-70453000D01*
X49426000Y-70453000D01*
X49424268Y-70452000D01*
X49424000Y-70451000D01*
X49424000Y-69251000D01*
X48926000Y-69251000D01*
X48926000Y-70451000D01*
X48925000Y-70452732D01*
X48924000Y-70453000D01*
X48776000Y-70453000D01*
X48774268Y-70452000D01*
X48774000Y-70451000D01*
X48774000Y-69251000D01*
X48276000Y-69251000D01*
X48276000Y-70451000D01*
X48275000Y-70452732D01*
X48274000Y-70453000D01*
X48126000Y-70453000D01*
X48124268Y-70452000D01*
X48124000Y-70451000D01*
X48124000Y-69251000D01*
X47626000Y-69251000D01*
X47626000Y-70451000D01*
X47625000Y-70452732D01*
X47624000Y-70453000D01*
X47476000Y-70453000D01*
X47474268Y-70452000D01*
X47474000Y-70451000D01*
X47474000Y-69251000D01*
X46976000Y-69251000D01*
X46976000Y-70451000D01*
X46975000Y-70452732D01*
X46974000Y-70453000D01*
X46826000Y-70453000D01*
X46824268Y-70452000D01*
X46824000Y-70451000D01*
X46824000Y-69251000D01*
X46326000Y-69251000D01*
X46326000Y-70451000D01*
X46325000Y-70452732D01*
X46324000Y-70453000D01*
X46176000Y-70453000D01*
X46174268Y-70452000D01*
X46174000Y-70451000D01*
X46174000Y-69249000D01*
X46175000Y-69247268D01*
X46176000Y-69247000D01*
X52824000Y-69247000D01*
X52825732Y-69248000D01*
G37*
G36*
X52825732Y-63548000D02*
G01*
X52826000Y-63549000D01*
X52826000Y-64751000D01*
X52825000Y-64752732D01*
X52824000Y-64753000D01*
X52676000Y-64753000D01*
X52674268Y-64752000D01*
X52674000Y-64751000D01*
X52674000Y-63551000D01*
X52176000Y-63551000D01*
X52176000Y-64751000D01*
X52175000Y-64752732D01*
X52174000Y-64753000D01*
X52026000Y-64753000D01*
X52024268Y-64752000D01*
X52024000Y-64751000D01*
X52024000Y-63551000D01*
X51526000Y-63551000D01*
X51526000Y-64751000D01*
X51525000Y-64752732D01*
X51524000Y-64753000D01*
X51376000Y-64753000D01*
X51374268Y-64752000D01*
X51374000Y-64751000D01*
X51374000Y-63551000D01*
X50876000Y-63551000D01*
X50876000Y-64751000D01*
X50875000Y-64752732D01*
X50874000Y-64753000D01*
X50726000Y-64753000D01*
X50724268Y-64752000D01*
X50724000Y-64751000D01*
X50724000Y-63551000D01*
X50226000Y-63551000D01*
X50226000Y-64751000D01*
X50225000Y-64752732D01*
X50224000Y-64753000D01*
X50076000Y-64753000D01*
X50074268Y-64752000D01*
X50074000Y-64751000D01*
X50074000Y-63551000D01*
X49576000Y-63551000D01*
X49576000Y-64751000D01*
X49575000Y-64752732D01*
X49574000Y-64753000D01*
X49426000Y-64753000D01*
X49424268Y-64752000D01*
X49424000Y-64751000D01*
X49424000Y-63551000D01*
X48926000Y-63551000D01*
X48926000Y-64751000D01*
X48925000Y-64752732D01*
X48924000Y-64753000D01*
X48776000Y-64753000D01*
X48774268Y-64752000D01*
X48774000Y-64751000D01*
X48774000Y-63551000D01*
X48276000Y-63551000D01*
X48276000Y-64751000D01*
X48275000Y-64752732D01*
X48274000Y-64753000D01*
X48126000Y-64753000D01*
X48124268Y-64752000D01*
X48124000Y-64751000D01*
X48124000Y-63551000D01*
X47626000Y-63551000D01*
X47626000Y-64751000D01*
X47625000Y-64752732D01*
X47624000Y-64753000D01*
X47476000Y-64753000D01*
X47474268Y-64752000D01*
X47474000Y-64751000D01*
X47474000Y-63551000D01*
X46976000Y-63551000D01*
X46976000Y-64751000D01*
X46975000Y-64752732D01*
X46974000Y-64753000D01*
X46826000Y-64753000D01*
X46824268Y-64752000D01*
X46824000Y-64751000D01*
X46824000Y-63551000D01*
X46326000Y-63551000D01*
X46326000Y-64751000D01*
X46325000Y-64752732D01*
X46324000Y-64753000D01*
X46176000Y-64753000D01*
X46174268Y-64752000D01*
X46174000Y-64751000D01*
X46174000Y-63549000D01*
X46175000Y-63547268D01*
X46176000Y-63547000D01*
X52824000Y-63547000D01*
X52825732Y-63548000D01*
G37*
G36*
X32852732Y-55875000D02*
G01*
X32853000Y-55876000D01*
X32853000Y-56074000D01*
X32852000Y-56075732D01*
X32851000Y-56076000D01*
X31529000Y-56076000D01*
X31527268Y-56075000D01*
X31527000Y-56074000D01*
X31527000Y-55876000D01*
X31528000Y-55874268D01*
X31529000Y-55874000D01*
X32851000Y-55874000D01*
X32852732Y-55875000D01*
G37*
G36*
X37852732Y-55875000D02*
G01*
X37853000Y-55876000D01*
X37853000Y-56074000D01*
X37852000Y-56075732D01*
X37851000Y-56076000D01*
X36529000Y-56076000D01*
X36527268Y-56075000D01*
X36527000Y-56074000D01*
X36527000Y-55876000D01*
X36528000Y-55874268D01*
X36529000Y-55874000D01*
X37851000Y-55874000D01*
X37852732Y-55875000D01*
G37*
G36*
X32852732Y-54925000D02*
G01*
X32853000Y-54926000D01*
X32853000Y-55124000D01*
X32852000Y-55125732D01*
X32851000Y-55126000D01*
X31529000Y-55126000D01*
X31527268Y-55125000D01*
X31527000Y-55124000D01*
X31527000Y-54926000D01*
X31528000Y-54924268D01*
X31529000Y-54924000D01*
X32851000Y-54924000D01*
X32852732Y-54925000D01*
G37*
G36*
X37852732Y-54925000D02*
G01*
X37853000Y-54926000D01*
X37853000Y-55124000D01*
X37852000Y-55125732D01*
X37851000Y-55126000D01*
X36529000Y-55126000D01*
X36527268Y-55125000D01*
X36527000Y-55124000D01*
X36527000Y-54926000D01*
X36528000Y-54924268D01*
X36529000Y-54924000D01*
X37851000Y-54924000D01*
X37852732Y-54925000D01*
G37*
G36*
X25602732Y-48500000D02*
G01*
X25603000Y-48501000D01*
X25603000Y-48689000D01*
X25602000Y-48690732D01*
X25601000Y-48691000D01*
X24299000Y-48691000D01*
X24297268Y-48690000D01*
X24297000Y-48689000D01*
X24297000Y-48501000D01*
X24298000Y-48499268D01*
X24299000Y-48499000D01*
X25601000Y-48499000D01*
X25602732Y-48500000D01*
G37*
G36*
X25602732Y-47500000D02*
G01*
X25603000Y-47501000D01*
X25603000Y-47699000D01*
X25602000Y-47700732D01*
X25601000Y-47701000D01*
X24299000Y-47701000D01*
X24297268Y-47700000D01*
X24297000Y-47699000D01*
X24297000Y-47501000D01*
X24298000Y-47499268D01*
X24299000Y-47499000D01*
X25601000Y-47499000D01*
X25602732Y-47500000D01*
G37*
G36*
X25602732Y-46510000D02*
G01*
X25603000Y-46511000D01*
X25603000Y-46699000D01*
X25602000Y-46700732D01*
X25601000Y-46701000D01*
X24299000Y-46701000D01*
X24297268Y-46700000D01*
X24297000Y-46699000D01*
X24297000Y-46511000D01*
X24298000Y-46509268D01*
X24299000Y-46509000D01*
X25601000Y-46509000D01*
X25602732Y-46510000D01*
G37*
M02*
