G04 #@! TF.GenerationSoftware,KiCad,Pcbnew,(5.1.9)-1*
G04 #@! TF.CreationDate,2021-09-23T17:11:02+12:00*
G04 #@! TF.ProjectId,comprgb,636f6d70-7267-4622-9e6b-696361645f70,rev?*
G04 #@! TF.SameCoordinates,Original*
G04 #@! TF.FileFunction,Legend,Top*
G04 #@! TF.FilePolarity,Positive*
%FSLAX46Y46*%
G04 Gerber Fmt 4.6, Leading zero omitted, Abs format (unit mm)*
G04 Created by KiCad (PCBNEW (5.1.9)-1) date 2021-09-23 17:11:02*
%MOMM*%
%LPD*%
G01*
G04 APERTURE LIST*
%ADD10C,0.150000*%
%ADD11C,0.200000*%
%ADD12C,0.010000*%
%ADD13C,0.120000*%
G04 APERTURE END LIST*
D10*
X42492857Y-51469047D02*
X42445238Y-51421428D01*
X42397619Y-51278571D01*
X42397619Y-51183333D01*
X42445238Y-51040476D01*
X42540476Y-50945238D01*
X42635714Y-50897619D01*
X42826190Y-50850000D01*
X42969047Y-50850000D01*
X43159523Y-50897619D01*
X43254761Y-50945238D01*
X43350000Y-51040476D01*
X43397619Y-51183333D01*
X43397619Y-51278571D01*
X43350000Y-51421428D01*
X43302380Y-51469047D01*
X42445238Y-51850000D02*
X42397619Y-51992857D01*
X42397619Y-52230952D01*
X42445238Y-52326190D01*
X42492857Y-52373809D01*
X42588095Y-52421428D01*
X42683333Y-52421428D01*
X42778571Y-52373809D01*
X42826190Y-52326190D01*
X42873809Y-52230952D01*
X42921428Y-52040476D01*
X42969047Y-51945238D01*
X43016666Y-51897619D01*
X43111904Y-51850000D01*
X43207142Y-51850000D01*
X43302380Y-51897619D01*
X43350000Y-51945238D01*
X43397619Y-52040476D01*
X43397619Y-52278571D01*
X43350000Y-52421428D01*
X42873809Y-53040476D02*
X42397619Y-53040476D01*
X43397619Y-52707142D02*
X42873809Y-53040476D01*
X43397619Y-53373809D01*
X42397619Y-53707142D02*
X43397619Y-53707142D01*
X42397619Y-54278571D01*
X43397619Y-54278571D01*
X42492857Y-55326190D02*
X42445238Y-55278571D01*
X42397619Y-55135714D01*
X42397619Y-55040476D01*
X42445238Y-54897619D01*
X42540476Y-54802380D01*
X42635714Y-54754761D01*
X42826190Y-54707142D01*
X42969047Y-54707142D01*
X43159523Y-54754761D01*
X43254761Y-54802380D01*
X43350000Y-54897619D01*
X43397619Y-55040476D01*
X43397619Y-55135714D01*
X43350000Y-55278571D01*
X43302380Y-55326190D01*
X42778571Y-56516666D02*
X42778571Y-57278571D01*
X42397619Y-58516666D02*
X43397619Y-58516666D01*
X42921428Y-58516666D02*
X42921428Y-59088095D01*
X42397619Y-59088095D02*
X43397619Y-59088095D01*
X43397619Y-59421428D02*
X42397619Y-59754761D01*
X43397619Y-60088095D01*
X42445238Y-60373809D02*
X42397619Y-60516666D01*
X42397619Y-60754761D01*
X42445238Y-60849999D01*
X42492857Y-60897619D01*
X42588095Y-60945238D01*
X42683333Y-60945238D01*
X42778571Y-60897619D01*
X42826190Y-60849999D01*
X42873809Y-60754761D01*
X42921428Y-60564285D01*
X42969047Y-60469047D01*
X43016666Y-60421428D01*
X43111904Y-60373809D01*
X43207142Y-60373809D01*
X43302380Y-60421428D01*
X43350000Y-60469047D01*
X43397619Y-60564285D01*
X43397619Y-60802380D01*
X43350000Y-60945238D01*
X42873809Y-61564285D02*
X42397619Y-61564285D01*
X43397619Y-61230952D02*
X42873809Y-61564285D01*
X43397619Y-61897619D01*
X42397619Y-62230952D02*
X43397619Y-62230952D01*
X42397619Y-62802380D01*
X43397619Y-62802380D01*
X42492857Y-63849999D02*
X42445238Y-63802380D01*
X42397619Y-63659523D01*
X42397619Y-63564285D01*
X42445238Y-63421428D01*
X42540476Y-63326190D01*
X42635714Y-63278571D01*
X42826190Y-63230952D01*
X42969047Y-63230952D01*
X43159523Y-63278571D01*
X43254761Y-63326190D01*
X43350000Y-63421428D01*
X43397619Y-63564285D01*
X43397619Y-63659523D01*
X43350000Y-63802380D01*
X43302380Y-63849999D01*
D11*
X46231904Y-103414285D02*
X46231904Y-104128571D01*
X45798571Y-102628571D02*
X46231904Y-103414285D01*
X46665238Y-102628571D01*
X47098571Y-104128571D02*
X47098571Y-102628571D01*
X47593809Y-102628571D01*
X47717619Y-102700000D01*
X47779523Y-102771428D01*
X47841428Y-102914285D01*
X47841428Y-103128571D01*
X47779523Y-103271428D01*
X47717619Y-103342857D01*
X47593809Y-103414285D01*
X47098571Y-103414285D01*
X48398571Y-104128571D02*
X48398571Y-102628571D01*
X48398571Y-103200000D02*
X48522380Y-103128571D01*
X48770000Y-103128571D01*
X48893809Y-103200000D01*
X48955714Y-103271428D01*
X49017619Y-103414285D01*
X49017619Y-103842857D01*
X48955714Y-103985714D01*
X48893809Y-104057142D01*
X48770000Y-104128571D01*
X48522380Y-104128571D01*
X48398571Y-104057142D01*
X49574761Y-104128571D02*
X49574761Y-102628571D01*
X50070000Y-102628571D01*
X50193809Y-102700000D01*
X50255714Y-102771428D01*
X50317619Y-102914285D01*
X50317619Y-103128571D01*
X50255714Y-103271428D01*
X50193809Y-103342857D01*
X50070000Y-103414285D01*
X49574761Y-103414285D01*
X50874761Y-104128571D02*
X50874761Y-103128571D01*
X50874761Y-103414285D02*
X50936666Y-103271428D01*
X50998571Y-103200000D01*
X51122380Y-103128571D01*
X51246190Y-103128571D01*
X52484285Y-103128571D02*
X52979523Y-103128571D01*
X52670000Y-102628571D02*
X52670000Y-103914285D01*
X52731904Y-104057142D01*
X52855714Y-104128571D01*
X52979523Y-104128571D01*
X53598571Y-104128571D02*
X53474761Y-104057142D01*
X53412857Y-103985714D01*
X53350952Y-103842857D01*
X53350952Y-103414285D01*
X53412857Y-103271428D01*
X53474761Y-103200000D01*
X53598571Y-103128571D01*
X53784285Y-103128571D01*
X53908095Y-103200000D01*
X53970000Y-103271428D01*
X54031904Y-103414285D01*
X54031904Y-103842857D01*
X53970000Y-103985714D01*
X53908095Y-104057142D01*
X53784285Y-104128571D01*
X53598571Y-104128571D01*
X56322380Y-104128571D02*
X55889047Y-103414285D01*
X55579523Y-104128571D02*
X55579523Y-102628571D01*
X56074761Y-102628571D01*
X56198571Y-102700000D01*
X56260476Y-102771428D01*
X56322380Y-102914285D01*
X56322380Y-103128571D01*
X56260476Y-103271428D01*
X56198571Y-103342857D01*
X56074761Y-103414285D01*
X55579523Y-103414285D01*
X57560476Y-102700000D02*
X57436666Y-102628571D01*
X57250952Y-102628571D01*
X57065238Y-102700000D01*
X56941428Y-102842857D01*
X56879523Y-102985714D01*
X56817619Y-103271428D01*
X56817619Y-103485714D01*
X56879523Y-103771428D01*
X56941428Y-103914285D01*
X57065238Y-104057142D01*
X57250952Y-104128571D01*
X57374761Y-104128571D01*
X57560476Y-104057142D01*
X57622380Y-103985714D01*
X57622380Y-103485714D01*
X57374761Y-103485714D01*
X58612857Y-103342857D02*
X58798571Y-103414285D01*
X58860476Y-103485714D01*
X58922380Y-103628571D01*
X58922380Y-103842857D01*
X58860476Y-103985714D01*
X58798571Y-104057142D01*
X58674761Y-104128571D01*
X58179523Y-104128571D01*
X58179523Y-102628571D01*
X58612857Y-102628571D01*
X58736666Y-102700000D01*
X58798571Y-102771428D01*
X58860476Y-102914285D01*
X58860476Y-103057142D01*
X58798571Y-103200000D01*
X58736666Y-103271428D01*
X58612857Y-103342857D01*
X58179523Y-103342857D01*
X38308095Y-105221428D02*
X38370000Y-105150000D01*
X38493809Y-105078571D01*
X38803333Y-105078571D01*
X38927142Y-105150000D01*
X38989047Y-105221428D01*
X39050952Y-105364285D01*
X39050952Y-105507142D01*
X38989047Y-105721428D01*
X38246190Y-106578571D01*
X39050952Y-106578571D01*
X39855714Y-105078571D02*
X39979523Y-105078571D01*
X40103333Y-105150000D01*
X40165238Y-105221428D01*
X40227142Y-105364285D01*
X40289047Y-105650000D01*
X40289047Y-106007142D01*
X40227142Y-106292857D01*
X40165238Y-106435714D01*
X40103333Y-106507142D01*
X39979523Y-106578571D01*
X39855714Y-106578571D01*
X39731904Y-106507142D01*
X39670000Y-106435714D01*
X39608095Y-106292857D01*
X39546190Y-106007142D01*
X39546190Y-105650000D01*
X39608095Y-105364285D01*
X39670000Y-105221428D01*
X39731904Y-105150000D01*
X39855714Y-105078571D01*
X40784285Y-105221428D02*
X40846190Y-105150000D01*
X40970000Y-105078571D01*
X41279523Y-105078571D01*
X41403333Y-105150000D01*
X41465238Y-105221428D01*
X41527142Y-105364285D01*
X41527142Y-105507142D01*
X41465238Y-105721428D01*
X40722380Y-106578571D01*
X41527142Y-106578571D01*
X42765238Y-106578571D02*
X42022380Y-106578571D01*
X42393809Y-106578571D02*
X42393809Y-105078571D01*
X42270000Y-105292857D01*
X42146190Y-105435714D01*
X42022380Y-105507142D01*
X43322380Y-106007142D02*
X44312857Y-106007142D01*
X45179523Y-105078571D02*
X45303333Y-105078571D01*
X45427142Y-105150000D01*
X45489047Y-105221428D01*
X45550952Y-105364285D01*
X45612857Y-105650000D01*
X45612857Y-106007142D01*
X45550952Y-106292857D01*
X45489047Y-106435714D01*
X45427142Y-106507142D01*
X45303333Y-106578571D01*
X45179523Y-106578571D01*
X45055714Y-106507142D01*
X44993809Y-106435714D01*
X44931904Y-106292857D01*
X44870000Y-106007142D01*
X44870000Y-105650000D01*
X44931904Y-105364285D01*
X44993809Y-105221428D01*
X45055714Y-105150000D01*
X45179523Y-105078571D01*
X46231904Y-106578571D02*
X46479523Y-106578571D01*
X46603333Y-106507142D01*
X46665238Y-106435714D01*
X46789047Y-106221428D01*
X46850952Y-105935714D01*
X46850952Y-105364285D01*
X46789047Y-105221428D01*
X46727142Y-105150000D01*
X46603333Y-105078571D01*
X46355714Y-105078571D01*
X46231904Y-105150000D01*
X46170000Y-105221428D01*
X46108095Y-105364285D01*
X46108095Y-105721428D01*
X46170000Y-105864285D01*
X46231904Y-105935714D01*
X46355714Y-106007142D01*
X46603333Y-106007142D01*
X46727142Y-105935714D01*
X46789047Y-105864285D01*
X46850952Y-105721428D01*
X47408095Y-106007142D02*
X48398571Y-106007142D01*
X48955714Y-105221428D02*
X49017619Y-105150000D01*
X49141428Y-105078571D01*
X49450952Y-105078571D01*
X49574761Y-105150000D01*
X49636666Y-105221428D01*
X49698571Y-105364285D01*
X49698571Y-105507142D01*
X49636666Y-105721428D01*
X48893809Y-106578571D01*
X49698571Y-106578571D01*
X50131904Y-105078571D02*
X50936666Y-105078571D01*
X50503333Y-105650000D01*
X50689047Y-105650000D01*
X50812857Y-105721428D01*
X50874761Y-105792857D01*
X50936666Y-105935714D01*
X50936666Y-106292857D01*
X50874761Y-106435714D01*
X50812857Y-106507142D01*
X50689047Y-106578571D01*
X50317619Y-106578571D01*
X50193809Y-106507142D01*
X50131904Y-106435714D01*
X52484285Y-106578571D02*
X52484285Y-105578571D01*
X52484285Y-105864285D02*
X52546190Y-105721428D01*
X52608095Y-105650000D01*
X52731904Y-105578571D01*
X52855714Y-105578571D01*
X53784285Y-106507142D02*
X53660476Y-106578571D01*
X53412857Y-106578571D01*
X53289047Y-106507142D01*
X53227142Y-106364285D01*
X53227142Y-105792857D01*
X53289047Y-105650000D01*
X53412857Y-105578571D01*
X53660476Y-105578571D01*
X53784285Y-105650000D01*
X53846190Y-105792857D01*
X53846190Y-105935714D01*
X53227142Y-106078571D01*
X54279523Y-105578571D02*
X54589047Y-106578571D01*
X54898571Y-105578571D01*
X57065238Y-106578571D02*
X56322380Y-106578571D01*
X56693809Y-106578571D02*
X56693809Y-105078571D01*
X56570000Y-105292857D01*
X56446190Y-105435714D01*
X56322380Y-105507142D01*
X57622380Y-106435714D02*
X57684285Y-106507142D01*
X57622380Y-106578571D01*
X57560476Y-106507142D01*
X57622380Y-106435714D01*
X57622380Y-106578571D01*
X58179523Y-105221428D02*
X58241428Y-105150000D01*
X58365238Y-105078571D01*
X58674761Y-105078571D01*
X58798571Y-105150000D01*
X58860476Y-105221428D01*
X58922380Y-105364285D01*
X58922380Y-105507142D01*
X58860476Y-105721428D01*
X58117619Y-106578571D01*
X58922380Y-106578571D01*
X42517619Y-108028571D02*
X42765238Y-109028571D01*
X43012857Y-108314285D01*
X43260476Y-109028571D01*
X43508095Y-108028571D01*
X44560476Y-109028571D02*
X44560476Y-108242857D01*
X44498571Y-108100000D01*
X44374761Y-108028571D01*
X44127142Y-108028571D01*
X44003333Y-108100000D01*
X44560476Y-108957142D02*
X44436666Y-109028571D01*
X44127142Y-109028571D01*
X44003333Y-108957142D01*
X43941428Y-108814285D01*
X43941428Y-108671428D01*
X44003333Y-108528571D01*
X44127142Y-108457142D01*
X44436666Y-108457142D01*
X44560476Y-108385714D01*
X45179523Y-109028571D02*
X45179523Y-107528571D01*
X45303333Y-108457142D02*
X45674761Y-109028571D01*
X45674761Y-108028571D02*
X45179523Y-108600000D01*
X46789047Y-109028571D02*
X46789047Y-108242857D01*
X46727142Y-108100000D01*
X46603333Y-108028571D01*
X46355714Y-108028571D01*
X46231904Y-108100000D01*
X46789047Y-108957142D02*
X46665238Y-109028571D01*
X46355714Y-109028571D01*
X46231904Y-108957142D01*
X46170000Y-108814285D01*
X46170000Y-108671428D01*
X46231904Y-108528571D01*
X46355714Y-108457142D01*
X46665238Y-108457142D01*
X46789047Y-108385714D01*
X47408095Y-109028571D02*
X47408095Y-107528571D01*
X47408095Y-108100000D02*
X47531904Y-108028571D01*
X47779523Y-108028571D01*
X47903333Y-108100000D01*
X47965238Y-108171428D01*
X48027142Y-108314285D01*
X48027142Y-108742857D01*
X47965238Y-108885714D01*
X47903333Y-108957142D01*
X47779523Y-109028571D01*
X47531904Y-109028571D01*
X47408095Y-108957142D01*
X49141428Y-109028571D02*
X49141428Y-108242857D01*
X49079523Y-108100000D01*
X48955714Y-108028571D01*
X48708095Y-108028571D01*
X48584285Y-108100000D01*
X49141428Y-108957142D02*
X49017619Y-109028571D01*
X48708095Y-109028571D01*
X48584285Y-108957142D01*
X48522380Y-108814285D01*
X48522380Y-108671428D01*
X48584285Y-108528571D01*
X48708095Y-108457142D01*
X49017619Y-108457142D01*
X49141428Y-108385714D01*
X49636666Y-108028571D02*
X49946190Y-109028571D01*
X50255714Y-108028571D01*
X50750952Y-109028571D02*
X50750952Y-108028571D01*
X50750952Y-107528571D02*
X50689047Y-107600000D01*
X50750952Y-107671428D01*
X50812857Y-107600000D01*
X50750952Y-107528571D01*
X50750952Y-107671428D01*
X51927142Y-109028571D02*
X51927142Y-107528571D01*
X51927142Y-108957142D02*
X51803333Y-109028571D01*
X51555714Y-109028571D01*
X51431904Y-108957142D01*
X51370000Y-108885714D01*
X51308095Y-108742857D01*
X51308095Y-108314285D01*
X51370000Y-108171428D01*
X51431904Y-108100000D01*
X51555714Y-108028571D01*
X51803333Y-108028571D01*
X51927142Y-108100000D01*
X53041428Y-108957142D02*
X52917619Y-109028571D01*
X52670000Y-109028571D01*
X52546190Y-108957142D01*
X52484285Y-108814285D01*
X52484285Y-108242857D01*
X52546190Y-108100000D01*
X52670000Y-108028571D01*
X52917619Y-108028571D01*
X53041428Y-108100000D01*
X53103333Y-108242857D01*
X53103333Y-108385714D01*
X52484285Y-108528571D01*
X53846190Y-109028571D02*
X53722380Y-108957142D01*
X53660476Y-108885714D01*
X53598571Y-108742857D01*
X53598571Y-108314285D01*
X53660476Y-108171428D01*
X53722380Y-108100000D01*
X53846190Y-108028571D01*
X54031904Y-108028571D01*
X54155714Y-108100000D01*
X54217619Y-108171428D01*
X54279523Y-108314285D01*
X54279523Y-108742857D01*
X54217619Y-108885714D01*
X54155714Y-108957142D01*
X54031904Y-109028571D01*
X53846190Y-109028571D01*
X54836666Y-108885714D02*
X54898571Y-108957142D01*
X54836666Y-109028571D01*
X54774761Y-108957142D01*
X54836666Y-108885714D01*
X54836666Y-109028571D01*
X56012857Y-108957142D02*
X55889047Y-109028571D01*
X55641428Y-109028571D01*
X55517619Y-108957142D01*
X55455714Y-108885714D01*
X55393809Y-108742857D01*
X55393809Y-108314285D01*
X55455714Y-108171428D01*
X55517619Y-108100000D01*
X55641428Y-108028571D01*
X55889047Y-108028571D01*
X56012857Y-108100000D01*
X56755714Y-109028571D02*
X56631904Y-108957142D01*
X56570000Y-108885714D01*
X56508095Y-108742857D01*
X56508095Y-108314285D01*
X56570000Y-108171428D01*
X56631904Y-108100000D01*
X56755714Y-108028571D01*
X56941428Y-108028571D01*
X57065238Y-108100000D01*
X57127142Y-108171428D01*
X57189047Y-108314285D01*
X57189047Y-108742857D01*
X57127142Y-108885714D01*
X57065238Y-108957142D01*
X56941428Y-109028571D01*
X56755714Y-109028571D01*
X57746190Y-109028571D02*
X57746190Y-108028571D01*
X57746190Y-108171428D02*
X57808095Y-108100000D01*
X57931904Y-108028571D01*
X58117619Y-108028571D01*
X58241428Y-108100000D01*
X58303333Y-108242857D01*
X58303333Y-109028571D01*
X58303333Y-108242857D02*
X58365238Y-108100000D01*
X58489047Y-108028571D01*
X58674761Y-108028571D01*
X58798571Y-108100000D01*
X58860476Y-108242857D01*
X58860476Y-109028571D01*
D12*
G36*
X53327382Y-95489441D02*
G01*
X53334542Y-95496008D01*
X53386112Y-95638968D01*
X53277089Y-95794131D01*
X53015075Y-95954128D01*
X52748780Y-96063594D01*
X52245658Y-96225822D01*
X51859840Y-96309534D01*
X51601436Y-96313374D01*
X51480555Y-96235988D01*
X51479684Y-96233798D01*
X51465645Y-96064749D01*
X51588430Y-95950089D01*
X51849804Y-95877144D01*
X52097195Y-95815940D01*
X52422773Y-95712792D01*
X52701445Y-95610876D01*
X53019276Y-95497797D01*
X53217891Y-95459139D01*
X53327382Y-95489441D01*
G37*
X53327382Y-95489441D02*
X53334542Y-95496008D01*
X53386112Y-95638968D01*
X53277089Y-95794131D01*
X53015075Y-95954128D01*
X52748780Y-96063594D01*
X52245658Y-96225822D01*
X51859840Y-96309534D01*
X51601436Y-96313374D01*
X51480555Y-96235988D01*
X51479684Y-96233798D01*
X51465645Y-96064749D01*
X51588430Y-95950089D01*
X51849804Y-95877144D01*
X52097195Y-95815940D01*
X52422773Y-95712792D01*
X52701445Y-95610876D01*
X53019276Y-95497797D01*
X53217891Y-95459139D01*
X53327382Y-95489441D01*
G36*
X54200843Y-95704628D02*
G01*
X54492182Y-95850116D01*
X54543055Y-95883666D01*
X54949231Y-96066174D01*
X55202982Y-96096629D01*
X55533539Y-96128552D01*
X55714826Y-96219313D01*
X55741262Y-96365908D01*
X55735328Y-96383121D01*
X55656969Y-96465309D01*
X55479022Y-96507533D01*
X55192694Y-96518666D01*
X54881686Y-96503221D01*
X54638903Y-96439424D01*
X54382140Y-96301082D01*
X54261501Y-96221967D01*
X53989216Y-96014676D01*
X53870707Y-95861809D01*
X53869523Y-95798634D01*
X53988650Y-95686882D01*
X54200843Y-95704628D01*
G37*
X54200843Y-95704628D02*
X54492182Y-95850116D01*
X54543055Y-95883666D01*
X54949231Y-96066174D01*
X55202982Y-96096629D01*
X55533539Y-96128552D01*
X55714826Y-96219313D01*
X55741262Y-96365908D01*
X55735328Y-96383121D01*
X55656969Y-96465309D01*
X55479022Y-96507533D01*
X55192694Y-96518666D01*
X54881686Y-96503221D01*
X54638903Y-96439424D01*
X54382140Y-96301082D01*
X54261501Y-96221967D01*
X53989216Y-96014676D01*
X53870707Y-95861809D01*
X53869523Y-95798634D01*
X53988650Y-95686882D01*
X54200843Y-95704628D01*
G36*
X55183356Y-96962182D02*
G01*
X55239184Y-97179804D01*
X55232518Y-97371495D01*
X55151410Y-97545007D01*
X54967631Y-97756617D01*
X54931644Y-97792944D01*
X54623242Y-98039683D01*
X54353330Y-98122899D01*
X54118743Y-98043194D01*
X54032947Y-97964571D01*
X53921070Y-97761936D01*
X53852274Y-97489704D01*
X53838104Y-97221867D01*
X53887981Y-97035495D01*
X54012699Y-96952053D01*
X54141193Y-97001355D01*
X54227271Y-97154352D01*
X54239963Y-97256842D01*
X54263647Y-97469562D01*
X54307654Y-97596862D01*
X54414961Y-97646319D01*
X54560055Y-97571843D01*
X54708613Y-97402716D01*
X54826310Y-97168216D01*
X54832954Y-97148755D01*
X54947778Y-96930507D01*
X55075018Y-96869114D01*
X55183356Y-96962182D01*
G37*
X55183356Y-96962182D02*
X55239184Y-97179804D01*
X55232518Y-97371495D01*
X55151410Y-97545007D01*
X54967631Y-97756617D01*
X54931644Y-97792944D01*
X54623242Y-98039683D01*
X54353330Y-98122899D01*
X54118743Y-98043194D01*
X54032947Y-97964571D01*
X53921070Y-97761936D01*
X53852274Y-97489704D01*
X53838104Y-97221867D01*
X53887981Y-97035495D01*
X54012699Y-96952053D01*
X54141193Y-97001355D01*
X54227271Y-97154352D01*
X54239963Y-97256842D01*
X54263647Y-97469562D01*
X54307654Y-97596862D01*
X54414961Y-97646319D01*
X54560055Y-97571843D01*
X54708613Y-97402716D01*
X54826310Y-97168216D01*
X54832954Y-97148755D01*
X54947778Y-96930507D01*
X55075018Y-96869114D01*
X55183356Y-96962182D01*
G36*
X52851984Y-96830674D02*
G01*
X52953207Y-96945174D01*
X52954877Y-97143578D01*
X52876794Y-97389670D01*
X52738759Y-97647234D01*
X52560573Y-97880055D01*
X52362034Y-98051916D01*
X52162944Y-98126602D01*
X52143062Y-98127333D01*
X51954380Y-98069260D01*
X51740875Y-97925134D01*
X51692154Y-97879846D01*
X51511271Y-97644635D01*
X51447104Y-97381741D01*
X51444667Y-97296237D01*
X51473902Y-97045399D01*
X51553838Y-96918701D01*
X51561350Y-96915341D01*
X51719791Y-96927397D01*
X51830888Y-97074055D01*
X51868000Y-97294621D01*
X51932639Y-97524332D01*
X52036906Y-97619104D01*
X52161331Y-97657520D01*
X52264645Y-97592701D01*
X52375256Y-97431583D01*
X52485583Y-97229225D01*
X52542798Y-97082499D01*
X52545017Y-97064766D01*
X52611197Y-96912218D01*
X52756389Y-96825322D01*
X52851984Y-96830674D01*
G37*
X52851984Y-96830674D02*
X52953207Y-96945174D01*
X52954877Y-97143578D01*
X52876794Y-97389670D01*
X52738759Y-97647234D01*
X52560573Y-97880055D01*
X52362034Y-98051916D01*
X52162944Y-98126602D01*
X52143062Y-98127333D01*
X51954380Y-98069260D01*
X51740875Y-97925134D01*
X51692154Y-97879846D01*
X51511271Y-97644635D01*
X51447104Y-97381741D01*
X51444667Y-97296237D01*
X51473902Y-97045399D01*
X51553838Y-96918701D01*
X51561350Y-96915341D01*
X51719791Y-96927397D01*
X51830888Y-97074055D01*
X51868000Y-97294621D01*
X51932639Y-97524332D01*
X52036906Y-97619104D01*
X52161331Y-97657520D01*
X52264645Y-97592701D01*
X52375256Y-97431583D01*
X52485583Y-97229225D01*
X52542798Y-97082499D01*
X52545017Y-97064766D01*
X52611197Y-96912218D01*
X52756389Y-96825322D01*
X52851984Y-96830674D01*
G36*
X53481139Y-98931666D02*
G01*
X53415553Y-99018880D01*
X53344388Y-99045585D01*
X53240547Y-99024652D01*
X53241138Y-98960919D01*
X53325421Y-98864779D01*
X53432610Y-98856727D01*
X53481139Y-98931666D01*
G37*
X53481139Y-98931666D02*
X53415553Y-99018880D01*
X53344388Y-99045585D01*
X53240547Y-99024652D01*
X53241138Y-98960919D01*
X53325421Y-98864779D01*
X53432610Y-98856727D01*
X53481139Y-98931666D01*
G36*
X52798165Y-98872045D02*
G01*
X52829951Y-98931666D01*
X52816942Y-99040894D01*
X52754343Y-99058666D01*
X52644412Y-98990834D01*
X52630000Y-98931666D01*
X52670906Y-98818925D01*
X52705608Y-98804666D01*
X52798165Y-98872045D01*
G37*
X52798165Y-98872045D02*
X52829951Y-98931666D01*
X52816942Y-99040894D01*
X52754343Y-99058666D01*
X52644412Y-98990834D01*
X52630000Y-98931666D01*
X52670906Y-98818925D01*
X52705608Y-98804666D01*
X52798165Y-98872045D01*
G36*
X55893024Y-98700774D02*
G01*
X55819405Y-98861137D01*
X55805000Y-98889333D01*
X55693126Y-99061731D01*
X55595960Y-99142497D01*
X55588625Y-99143333D01*
X55577652Y-99085112D01*
X55655468Y-98940254D01*
X55691388Y-98889333D01*
X55819890Y-98724792D01*
X55900340Y-98638909D01*
X55907763Y-98635333D01*
X55893024Y-98700774D01*
G37*
X55893024Y-98700774D02*
X55819405Y-98861137D01*
X55805000Y-98889333D01*
X55693126Y-99061731D01*
X55595960Y-99142497D01*
X55588625Y-99143333D01*
X55577652Y-99085112D01*
X55655468Y-98940254D01*
X55691388Y-98889333D01*
X55819890Y-98724792D01*
X55900340Y-98638909D01*
X55907763Y-98635333D01*
X55893024Y-98700774D01*
G36*
X55621902Y-98658226D02*
G01*
X55611539Y-98678613D01*
X55481510Y-98860107D01*
X55326009Y-99016674D01*
X55206032Y-99115643D01*
X55190828Y-99113712D01*
X55282131Y-98998571D01*
X55338065Y-98931060D01*
X55530134Y-98701855D01*
X55631035Y-98589607D01*
X55656410Y-98579877D01*
X55621902Y-98658226D01*
G37*
X55621902Y-98658226D02*
X55611539Y-98678613D01*
X55481510Y-98860107D01*
X55326009Y-99016674D01*
X55206032Y-99115643D01*
X55190828Y-99113712D01*
X55282131Y-98998571D01*
X55338065Y-98931060D01*
X55530134Y-98701855D01*
X55631035Y-98589607D01*
X55656410Y-98579877D01*
X55621902Y-98658226D01*
G36*
X55210575Y-98692415D02*
G01*
X55177616Y-98762333D01*
X55047752Y-98993107D01*
X54955820Y-99110815D01*
X54917558Y-99095695D01*
X54917297Y-99089213D01*
X54967781Y-98961943D01*
X55090114Y-98792879D01*
X55197284Y-98677889D01*
X55210575Y-98692415D01*
G37*
X55210575Y-98692415D02*
X55177616Y-98762333D01*
X55047752Y-98993107D01*
X54955820Y-99110815D01*
X54917558Y-99095695D01*
X54917297Y-99089213D01*
X54967781Y-98961943D01*
X55090114Y-98792879D01*
X55197284Y-98677889D01*
X55210575Y-98692415D01*
G36*
X54997554Y-98593000D02*
G01*
X54948409Y-98706914D01*
X54823645Y-98883626D01*
X54784104Y-98931666D01*
X54671165Y-99050141D01*
X54636631Y-99054182D01*
X54651321Y-99016333D01*
X54760036Y-98825813D01*
X54875406Y-98666999D01*
X54965217Y-98579278D01*
X54997554Y-98593000D01*
G37*
X54997554Y-98593000D02*
X54948409Y-98706914D01*
X54823645Y-98883626D01*
X54784104Y-98931666D01*
X54671165Y-99050141D01*
X54636631Y-99054182D01*
X54651321Y-99016333D01*
X54760036Y-98825813D01*
X54875406Y-98666999D01*
X54965217Y-98579278D01*
X54997554Y-98593000D01*
G36*
X54466104Y-99028690D02*
G01*
X54450334Y-99058666D01*
X54370559Y-99139523D01*
X54355673Y-99143333D01*
X54349897Y-99088643D01*
X54365667Y-99058666D01*
X54445441Y-98977809D01*
X54460327Y-98974000D01*
X54466104Y-99028690D01*
G37*
X54466104Y-99028690D02*
X54450334Y-99058666D01*
X54370559Y-99139523D01*
X54355673Y-99143333D01*
X54349897Y-99088643D01*
X54365667Y-99058666D01*
X54445441Y-98977809D01*
X54460327Y-98974000D01*
X54466104Y-99028690D01*
G36*
X51698667Y-98774373D02*
G01*
X51650266Y-98898646D01*
X51566996Y-99021317D01*
X51479462Y-99125402D01*
X51479310Y-99096943D01*
X51536131Y-98974000D01*
X51637169Y-98776263D01*
X51687268Y-98721210D01*
X51698667Y-98774373D01*
G37*
X51698667Y-98774373D02*
X51650266Y-98898646D01*
X51566996Y-99021317D01*
X51479462Y-99125402D01*
X51479310Y-99096943D01*
X51536131Y-98974000D01*
X51637169Y-98776263D01*
X51687268Y-98721210D01*
X51698667Y-98774373D01*
G36*
X51184666Y-98762333D02*
G01*
X51145791Y-98892378D01*
X51063667Y-99058666D01*
X50979424Y-99182000D01*
X50942722Y-99188121D01*
X50942667Y-99185666D01*
X50981542Y-99055621D01*
X51063667Y-98889333D01*
X51147909Y-98765999D01*
X51184612Y-98759878D01*
X51184666Y-98762333D01*
G37*
X51184666Y-98762333D02*
X51145791Y-98892378D01*
X51063667Y-99058666D01*
X50979424Y-99182000D01*
X50942722Y-99188121D01*
X50942667Y-99185666D01*
X50981542Y-99055621D01*
X51063667Y-98889333D01*
X51147909Y-98765999D01*
X51184612Y-98759878D01*
X51184666Y-98762333D01*
G36*
X50890289Y-98801684D02*
G01*
X50829818Y-98943112D01*
X50727928Y-99107179D01*
X50614766Y-99206414D01*
X50531660Y-99213057D01*
X50513334Y-99155696D01*
X50566021Y-99051240D01*
X50695731Y-98887276D01*
X50725000Y-98855001D01*
X50874619Y-98701882D01*
X50926815Y-98681671D01*
X50890289Y-98801684D01*
G37*
X50890289Y-98801684D02*
X50829818Y-98943112D01*
X50727928Y-99107179D01*
X50614766Y-99206414D01*
X50531660Y-99213057D01*
X50513334Y-99155696D01*
X50566021Y-99051240D01*
X50695731Y-98887276D01*
X50725000Y-98855001D01*
X50874619Y-98701882D01*
X50926815Y-98681671D01*
X50890289Y-98801684D01*
G36*
X51780741Y-99016333D02*
G01*
X51738584Y-99155472D01*
X51698667Y-99228000D01*
X51631579Y-99295769D01*
X51616593Y-99270333D01*
X51658749Y-99131194D01*
X51698667Y-99058666D01*
X51765754Y-98990897D01*
X51780741Y-99016333D01*
G37*
X51780741Y-99016333D02*
X51738584Y-99155472D01*
X51698667Y-99228000D01*
X51631579Y-99295769D01*
X51616593Y-99270333D01*
X51658749Y-99131194D01*
X51698667Y-99058666D01*
X51765754Y-98990897D01*
X51780741Y-99016333D01*
G36*
X51472368Y-98702017D02*
G01*
X51410002Y-98869796D01*
X51360000Y-98974000D01*
X51229906Y-99211260D01*
X51161391Y-99300773D01*
X51160947Y-99242480D01*
X51235068Y-99036326D01*
X51260454Y-98974861D01*
X51360703Y-98768491D01*
X51445250Y-98648477D01*
X51467554Y-98636194D01*
X51472368Y-98702017D01*
G37*
X51472368Y-98702017D02*
X51410002Y-98869796D01*
X51360000Y-98974000D01*
X51229906Y-99211260D01*
X51161391Y-99300773D01*
X51160947Y-99242480D01*
X51235068Y-99036326D01*
X51260454Y-98974861D01*
X51360703Y-98768491D01*
X51445250Y-98648477D01*
X51467554Y-98636194D01*
X51472368Y-98702017D01*
G36*
X52307955Y-100037219D02*
G01*
X52496496Y-100139485D01*
X52513578Y-100152527D01*
X52678312Y-100265840D01*
X52786252Y-100272880D01*
X52882567Y-100202963D01*
X53089879Y-100084858D01*
X53270553Y-100133261D01*
X53354676Y-100222833D01*
X53438117Y-100312355D01*
X53524932Y-100299487D01*
X53671741Y-100174915D01*
X53677202Y-100169788D01*
X53864489Y-100048648D01*
X54035774Y-100022085D01*
X54141260Y-100091776D01*
X54154000Y-100153730D01*
X54094660Y-100288184D01*
X53948787Y-100472751D01*
X53764602Y-100657998D01*
X53590326Y-100794492D01*
X53489063Y-100835370D01*
X53292821Y-100789696D01*
X53226654Y-100756256D01*
X53056375Y-100714127D01*
X52867376Y-100725691D01*
X52654421Y-100716197D01*
X52437331Y-100626628D01*
X52245239Y-100486059D01*
X52107280Y-100323564D01*
X52052586Y-100168220D01*
X52110290Y-100049101D01*
X52161844Y-100021572D01*
X52307955Y-100037219D01*
G37*
X52307955Y-100037219D02*
X52496496Y-100139485D01*
X52513578Y-100152527D01*
X52678312Y-100265840D01*
X52786252Y-100272880D01*
X52882567Y-100202963D01*
X53089879Y-100084858D01*
X53270553Y-100133261D01*
X53354676Y-100222833D01*
X53438117Y-100312355D01*
X53524932Y-100299487D01*
X53671741Y-100174915D01*
X53677202Y-100169788D01*
X53864489Y-100048648D01*
X54035774Y-100022085D01*
X54141260Y-100091776D01*
X54154000Y-100153730D01*
X54094660Y-100288184D01*
X53948787Y-100472751D01*
X53764602Y-100657998D01*
X53590326Y-100794492D01*
X53489063Y-100835370D01*
X53292821Y-100789696D01*
X53226654Y-100756256D01*
X53056375Y-100714127D01*
X52867376Y-100725691D01*
X52654421Y-100716197D01*
X52437331Y-100626628D01*
X52245239Y-100486059D01*
X52107280Y-100323564D01*
X52052586Y-100168220D01*
X52110290Y-100049101D01*
X52161844Y-100021572D01*
X52307955Y-100037219D01*
G36*
X52799334Y-93454484D02*
G01*
X52844447Y-93571512D01*
X52908691Y-93672524D01*
X52988475Y-93760076D01*
X53085612Y-93777480D01*
X53256537Y-93725772D01*
X53370645Y-93680999D01*
X53739344Y-93587396D01*
X54182480Y-93578687D01*
X54720845Y-93656805D01*
X55375228Y-93823685D01*
X55582855Y-93886825D01*
X56043707Y-94030918D01*
X56373757Y-94126618D01*
X56604691Y-94173190D01*
X56768197Y-94169898D01*
X56895960Y-94116009D01*
X57019666Y-94010787D01*
X57171003Y-93853498D01*
X57174427Y-93849922D01*
X57399966Y-93620356D01*
X57534873Y-93505627D01*
X57601952Y-93494848D01*
X57624009Y-93577135D01*
X57625334Y-93634676D01*
X57651028Y-93742418D01*
X57759400Y-93770257D01*
X57910903Y-93752345D01*
X58131758Y-93745234D01*
X58254044Y-93799172D01*
X58254566Y-93800002D01*
X58240225Y-93878136D01*
X58159497Y-93894420D01*
X57996414Y-93946041D01*
X57790920Y-94072744D01*
X57752334Y-94103042D01*
X57498334Y-94311243D01*
X57820830Y-94314288D01*
X58024185Y-94335228D01*
X58096286Y-94386652D01*
X58091000Y-94402000D01*
X57972986Y-94470282D01*
X57853170Y-94486895D01*
X57763349Y-94500574D01*
X57770404Y-94557697D01*
X57887209Y-94682892D01*
X58019169Y-94804395D01*
X58496816Y-95331520D01*
X58862079Y-95957455D01*
X59077116Y-96522906D01*
X59160163Y-96813925D01*
X59216230Y-97088356D01*
X59250093Y-97391141D01*
X59266527Y-97767217D01*
X59270307Y-98261524D01*
X59270111Y-98339000D01*
X59246052Y-99096868D01*
X59174011Y-99725177D01*
X59045865Y-100258941D01*
X58853495Y-100733177D01*
X58622049Y-101133000D01*
X58454563Y-101372212D01*
X58318423Y-101502208D01*
X58159288Y-101559823D01*
X57963346Y-101579524D01*
X57488660Y-101527596D01*
X57225237Y-101423534D01*
X56874076Y-101173867D01*
X56618422Y-100814554D01*
X56442739Y-100322973D01*
X56428386Y-100263140D01*
X56328632Y-99830982D01*
X56085023Y-100137524D01*
X55756819Y-100478483D01*
X55354593Y-100750193D01*
X54831611Y-100983962D01*
X54808971Y-100992427D01*
X53912197Y-101266885D01*
X53089818Y-101396786D01*
X52345390Y-101382206D01*
X51682469Y-101223222D01*
X51104613Y-100919911D01*
X51094357Y-100912664D01*
X50931763Y-100812182D01*
X50834238Y-100815124D01*
X50761857Y-100885598D01*
X50501643Y-101082570D01*
X50135698Y-101210951D01*
X49715983Y-101263853D01*
X49294460Y-101234387D01*
X48945178Y-101126460D01*
X48767328Y-101027041D01*
X48651967Y-100906079D01*
X48580066Y-100722818D01*
X48532597Y-100436503D01*
X48508366Y-100201593D01*
X48653669Y-100201593D01*
X48661480Y-100432727D01*
X48699792Y-100588855D01*
X48777000Y-100716863D01*
X48836376Y-100789123D01*
X49016068Y-100949565D01*
X49244416Y-101036074D01*
X49476557Y-101069537D01*
X49890560Y-101084300D01*
X50202930Y-101027276D01*
X50470652Y-100885962D01*
X50535867Y-100837115D01*
X50755247Y-100664550D01*
X50514815Y-100401312D01*
X50324711Y-100079213D01*
X50216881Y-99640861D01*
X50190129Y-99117333D01*
X50243264Y-98539708D01*
X50375090Y-97939067D01*
X50584415Y-97346487D01*
X50636666Y-97229093D01*
X50787684Y-96872497D01*
X50911698Y-96524949D01*
X50986632Y-96249790D01*
X50994915Y-96201166D01*
X51042844Y-95981603D01*
X51105032Y-95854223D01*
X51129302Y-95841333D01*
X51185579Y-95913881D01*
X51183665Y-96109321D01*
X51130752Y-96394341D01*
X51034036Y-96735632D01*
X50900709Y-97099885D01*
X50815035Y-97296532D01*
X50556037Y-97995577D01*
X50411598Y-98708557D01*
X50389856Y-99387071D01*
X50419263Y-99650081D01*
X50477426Y-99923375D01*
X50570207Y-100128348D01*
X50734306Y-100327832D01*
X50918202Y-100504237D01*
X51471259Y-100912661D01*
X52069665Y-101158960D01*
X52722958Y-101246511D01*
X52991685Y-101238571D01*
X53483564Y-101171176D01*
X54035137Y-101043750D01*
X54586927Y-100874217D01*
X55079457Y-100680506D01*
X55406027Y-100510887D01*
X55664889Y-100304572D01*
X55922674Y-100027286D01*
X56038715Y-99868537D01*
X56308377Y-99450741D01*
X56285431Y-98217537D01*
X56260042Y-97523557D01*
X56208201Y-96963854D01*
X56123275Y-96504537D01*
X55998633Y-96111713D01*
X55827642Y-95751491D01*
X55789832Y-95684740D01*
X55665573Y-95427913D01*
X55640632Y-95265691D01*
X55656097Y-95236703D01*
X55733119Y-95265499D01*
X55862030Y-95438743D01*
X56033185Y-95743124D01*
X56057882Y-95791330D01*
X56379890Y-96425735D01*
X56448711Y-98059701D01*
X56479802Y-98753612D01*
X56509652Y-99301631D01*
X56541007Y-99727151D01*
X56576615Y-100053568D01*
X56619222Y-100304274D01*
X56671575Y-100502663D01*
X56736421Y-100672131D01*
X56761987Y-100727707D01*
X56969696Y-101017650D01*
X57259879Y-101237765D01*
X57591657Y-101375036D01*
X57924153Y-101416445D01*
X58216488Y-101348979D01*
X58367248Y-101238833D01*
X58653750Y-100831418D01*
X58886618Y-100295907D01*
X59060407Y-99666534D01*
X59169675Y-98977533D01*
X59208981Y-98263138D01*
X59172881Y-97557583D01*
X59057084Y-96899666D01*
X58945749Y-96521743D01*
X58809694Y-96153921D01*
X58667712Y-95839885D01*
X58538598Y-95623319D01*
X58482150Y-95563251D01*
X58345012Y-95414770D01*
X58219797Y-95218040D01*
X58075290Y-95023772D01*
X57913528Y-94906905D01*
X57730353Y-94803341D01*
X57519445Y-94640057D01*
X57492132Y-94615334D01*
X57340912Y-94455190D01*
X57306369Y-94337925D01*
X57353901Y-94229117D01*
X57449527Y-94038148D01*
X57430836Y-93967189D01*
X57307055Y-94020447D01*
X57156721Y-94139229D01*
X56960623Y-94291909D01*
X56774324Y-94370918D01*
X56526878Y-94399432D01*
X56352387Y-94402000D01*
X56083002Y-94389079D01*
X55900497Y-94355363D01*
X55847334Y-94317333D01*
X55914819Y-94233068D01*
X55953167Y-94224227D01*
X56002653Y-94203981D01*
X55925154Y-94169592D01*
X55761397Y-94130311D01*
X55552107Y-94095386D01*
X55338009Y-94074065D01*
X55281881Y-94071772D01*
X55024745Y-94036058D01*
X54828515Y-93957616D01*
X54797571Y-93932808D01*
X54508568Y-93744060D01*
X54141246Y-93684855D01*
X53684355Y-93754978D01*
X53249528Y-93902942D01*
X53056259Y-93965115D01*
X52934183Y-93934183D01*
X52816619Y-93809654D01*
X52653181Y-93607817D01*
X52555741Y-93789887D01*
X52458300Y-93971957D01*
X52151335Y-93763645D01*
X51905763Y-93610303D01*
X51774787Y-93567532D01*
X51744741Y-93635347D01*
X51782194Y-93764002D01*
X51821269Y-93951465D01*
X51749733Y-94011950D01*
X51570254Y-93944338D01*
X51481718Y-93889737D01*
X51218771Y-93776964D01*
X50912516Y-93728585D01*
X50638351Y-93752024D01*
X50531739Y-93796166D01*
X50517942Y-93862092D01*
X50666747Y-93943081D01*
X50761766Y-93976829D01*
X50985758Y-94073889D01*
X51043904Y-94155312D01*
X50939584Y-94211452D01*
X50676178Y-94232663D01*
X50672104Y-94232666D01*
X50322607Y-94271155D01*
X50021888Y-94405537D01*
X49730167Y-94639852D01*
X49551675Y-94824373D01*
X49513014Y-94913540D01*
X49613481Y-94906469D01*
X49852377Y-94802276D01*
X49857167Y-94799891D01*
X50102878Y-94711972D01*
X50409862Y-94649413D01*
X50732338Y-94615139D01*
X51024525Y-94612078D01*
X51240641Y-94643153D01*
X51333336Y-94705555D01*
X51282846Y-94791727D01*
X51118846Y-94903598D01*
X51017589Y-94954021D01*
X50635831Y-95194289D01*
X50382970Y-95525940D01*
X50257053Y-95873553D01*
X50191635Y-96059191D01*
X50062617Y-96364647D01*
X49883913Y-96759190D01*
X49669435Y-97212086D01*
X49437168Y-97684484D01*
X49183345Y-98193603D01*
X48995465Y-98581584D01*
X48862902Y-98878324D01*
X48775031Y-99113717D01*
X48721224Y-99317661D01*
X48690855Y-99520049D01*
X48673299Y-99750778D01*
X48667962Y-99848568D01*
X48653669Y-100201593D01*
X48508366Y-100201593D01*
X48506952Y-100187893D01*
X48491936Y-99817543D01*
X48526484Y-99463255D01*
X48620611Y-99088910D01*
X48784333Y-98658389D01*
X49027667Y-98135571D01*
X49136209Y-97918746D01*
X49403007Y-97391987D01*
X49604482Y-96990786D01*
X49752244Y-96689854D01*
X49857900Y-96463898D01*
X49933060Y-96287629D01*
X49989331Y-96135755D01*
X50038323Y-95982987D01*
X50063974Y-95897498D01*
X50226144Y-95458241D01*
X50423732Y-95146832D01*
X50683902Y-94921990D01*
X50721377Y-94898403D01*
X50979000Y-94741299D01*
X50682667Y-94742842D01*
X50321803Y-94804056D01*
X49903947Y-94968918D01*
X49484210Y-95214159D01*
X49369796Y-95297150D01*
X49172471Y-95422923D01*
X49081177Y-95422425D01*
X49096139Y-95301587D01*
X49217581Y-95066344D01*
X49353148Y-94855744D01*
X49720263Y-94447866D01*
X50051648Y-94232838D01*
X50471000Y-94021343D01*
X50174667Y-93972567D01*
X49878334Y-93923792D01*
X50301667Y-93732055D01*
X50687842Y-93598101D01*
X51052688Y-93571955D01*
X51119456Y-93576989D01*
X51361599Y-93588972D01*
X51466951Y-93561086D01*
X51470231Y-93499830D01*
X51494304Y-93410046D01*
X51642113Y-93389778D01*
X51883359Y-93438212D01*
X52101889Y-93516828D01*
X52309703Y-93594309D01*
X52423931Y-93597652D01*
X52503228Y-93526856D01*
X52510670Y-93516828D01*
X52632798Y-93412261D01*
X52750477Y-93389101D01*
X52799334Y-93454484D01*
G37*
X52799334Y-93454484D02*
X52844447Y-93571512D01*
X52908691Y-93672524D01*
X52988475Y-93760076D01*
X53085612Y-93777480D01*
X53256537Y-93725772D01*
X53370645Y-93680999D01*
X53739344Y-93587396D01*
X54182480Y-93578687D01*
X54720845Y-93656805D01*
X55375228Y-93823685D01*
X55582855Y-93886825D01*
X56043707Y-94030918D01*
X56373757Y-94126618D01*
X56604691Y-94173190D01*
X56768197Y-94169898D01*
X56895960Y-94116009D01*
X57019666Y-94010787D01*
X57171003Y-93853498D01*
X57174427Y-93849922D01*
X57399966Y-93620356D01*
X57534873Y-93505627D01*
X57601952Y-93494848D01*
X57624009Y-93577135D01*
X57625334Y-93634676D01*
X57651028Y-93742418D01*
X57759400Y-93770257D01*
X57910903Y-93752345D01*
X58131758Y-93745234D01*
X58254044Y-93799172D01*
X58254566Y-93800002D01*
X58240225Y-93878136D01*
X58159497Y-93894420D01*
X57996414Y-93946041D01*
X57790920Y-94072744D01*
X57752334Y-94103042D01*
X57498334Y-94311243D01*
X57820830Y-94314288D01*
X58024185Y-94335228D01*
X58096286Y-94386652D01*
X58091000Y-94402000D01*
X57972986Y-94470282D01*
X57853170Y-94486895D01*
X57763349Y-94500574D01*
X57770404Y-94557697D01*
X57887209Y-94682892D01*
X58019169Y-94804395D01*
X58496816Y-95331520D01*
X58862079Y-95957455D01*
X59077116Y-96522906D01*
X59160163Y-96813925D01*
X59216230Y-97088356D01*
X59250093Y-97391141D01*
X59266527Y-97767217D01*
X59270307Y-98261524D01*
X59270111Y-98339000D01*
X59246052Y-99096868D01*
X59174011Y-99725177D01*
X59045865Y-100258941D01*
X58853495Y-100733177D01*
X58622049Y-101133000D01*
X58454563Y-101372212D01*
X58318423Y-101502208D01*
X58159288Y-101559823D01*
X57963346Y-101579524D01*
X57488660Y-101527596D01*
X57225237Y-101423534D01*
X56874076Y-101173867D01*
X56618422Y-100814554D01*
X56442739Y-100322973D01*
X56428386Y-100263140D01*
X56328632Y-99830982D01*
X56085023Y-100137524D01*
X55756819Y-100478483D01*
X55354593Y-100750193D01*
X54831611Y-100983962D01*
X54808971Y-100992427D01*
X53912197Y-101266885D01*
X53089818Y-101396786D01*
X52345390Y-101382206D01*
X51682469Y-101223222D01*
X51104613Y-100919911D01*
X51094357Y-100912664D01*
X50931763Y-100812182D01*
X50834238Y-100815124D01*
X50761857Y-100885598D01*
X50501643Y-101082570D01*
X50135698Y-101210951D01*
X49715983Y-101263853D01*
X49294460Y-101234387D01*
X48945178Y-101126460D01*
X48767328Y-101027041D01*
X48651967Y-100906079D01*
X48580066Y-100722818D01*
X48532597Y-100436503D01*
X48508366Y-100201593D01*
X48653669Y-100201593D01*
X48661480Y-100432727D01*
X48699792Y-100588855D01*
X48777000Y-100716863D01*
X48836376Y-100789123D01*
X49016068Y-100949565D01*
X49244416Y-101036074D01*
X49476557Y-101069537D01*
X49890560Y-101084300D01*
X50202930Y-101027276D01*
X50470652Y-100885962D01*
X50535867Y-100837115D01*
X50755247Y-100664550D01*
X50514815Y-100401312D01*
X50324711Y-100079213D01*
X50216881Y-99640861D01*
X50190129Y-99117333D01*
X50243264Y-98539708D01*
X50375090Y-97939067D01*
X50584415Y-97346487D01*
X50636666Y-97229093D01*
X50787684Y-96872497D01*
X50911698Y-96524949D01*
X50986632Y-96249790D01*
X50994915Y-96201166D01*
X51042844Y-95981603D01*
X51105032Y-95854223D01*
X51129302Y-95841333D01*
X51185579Y-95913881D01*
X51183665Y-96109321D01*
X51130752Y-96394341D01*
X51034036Y-96735632D01*
X50900709Y-97099885D01*
X50815035Y-97296532D01*
X50556037Y-97995577D01*
X50411598Y-98708557D01*
X50389856Y-99387071D01*
X50419263Y-99650081D01*
X50477426Y-99923375D01*
X50570207Y-100128348D01*
X50734306Y-100327832D01*
X50918202Y-100504237D01*
X51471259Y-100912661D01*
X52069665Y-101158960D01*
X52722958Y-101246511D01*
X52991685Y-101238571D01*
X53483564Y-101171176D01*
X54035137Y-101043750D01*
X54586927Y-100874217D01*
X55079457Y-100680506D01*
X55406027Y-100510887D01*
X55664889Y-100304572D01*
X55922674Y-100027286D01*
X56038715Y-99868537D01*
X56308377Y-99450741D01*
X56285431Y-98217537D01*
X56260042Y-97523557D01*
X56208201Y-96963854D01*
X56123275Y-96504537D01*
X55998633Y-96111713D01*
X55827642Y-95751491D01*
X55789832Y-95684740D01*
X55665573Y-95427913D01*
X55640632Y-95265691D01*
X55656097Y-95236703D01*
X55733119Y-95265499D01*
X55862030Y-95438743D01*
X56033185Y-95743124D01*
X56057882Y-95791330D01*
X56379890Y-96425735D01*
X56448711Y-98059701D01*
X56479802Y-98753612D01*
X56509652Y-99301631D01*
X56541007Y-99727151D01*
X56576615Y-100053568D01*
X56619222Y-100304274D01*
X56671575Y-100502663D01*
X56736421Y-100672131D01*
X56761987Y-100727707D01*
X56969696Y-101017650D01*
X57259879Y-101237765D01*
X57591657Y-101375036D01*
X57924153Y-101416445D01*
X58216488Y-101348979D01*
X58367248Y-101238833D01*
X58653750Y-100831418D01*
X58886618Y-100295907D01*
X59060407Y-99666534D01*
X59169675Y-98977533D01*
X59208981Y-98263138D01*
X59172881Y-97557583D01*
X59057084Y-96899666D01*
X58945749Y-96521743D01*
X58809694Y-96153921D01*
X58667712Y-95839885D01*
X58538598Y-95623319D01*
X58482150Y-95563251D01*
X58345012Y-95414770D01*
X58219797Y-95218040D01*
X58075290Y-95023772D01*
X57913528Y-94906905D01*
X57730353Y-94803341D01*
X57519445Y-94640057D01*
X57492132Y-94615334D01*
X57340912Y-94455190D01*
X57306369Y-94337925D01*
X57353901Y-94229117D01*
X57449527Y-94038148D01*
X57430836Y-93967189D01*
X57307055Y-94020447D01*
X57156721Y-94139229D01*
X56960623Y-94291909D01*
X56774324Y-94370918D01*
X56526878Y-94399432D01*
X56352387Y-94402000D01*
X56083002Y-94389079D01*
X55900497Y-94355363D01*
X55847334Y-94317333D01*
X55914819Y-94233068D01*
X55953167Y-94224227D01*
X56002653Y-94203981D01*
X55925154Y-94169592D01*
X55761397Y-94130311D01*
X55552107Y-94095386D01*
X55338009Y-94074065D01*
X55281881Y-94071772D01*
X55024745Y-94036058D01*
X54828515Y-93957616D01*
X54797571Y-93932808D01*
X54508568Y-93744060D01*
X54141246Y-93684855D01*
X53684355Y-93754978D01*
X53249528Y-93902942D01*
X53056259Y-93965115D01*
X52934183Y-93934183D01*
X52816619Y-93809654D01*
X52653181Y-93607817D01*
X52555741Y-93789887D01*
X52458300Y-93971957D01*
X52151335Y-93763645D01*
X51905763Y-93610303D01*
X51774787Y-93567532D01*
X51744741Y-93635347D01*
X51782194Y-93764002D01*
X51821269Y-93951465D01*
X51749733Y-94011950D01*
X51570254Y-93944338D01*
X51481718Y-93889737D01*
X51218771Y-93776964D01*
X50912516Y-93728585D01*
X50638351Y-93752024D01*
X50531739Y-93796166D01*
X50517942Y-93862092D01*
X50666747Y-93943081D01*
X50761766Y-93976829D01*
X50985758Y-94073889D01*
X51043904Y-94155312D01*
X50939584Y-94211452D01*
X50676178Y-94232663D01*
X50672104Y-94232666D01*
X50322607Y-94271155D01*
X50021888Y-94405537D01*
X49730167Y-94639852D01*
X49551675Y-94824373D01*
X49513014Y-94913540D01*
X49613481Y-94906469D01*
X49852377Y-94802276D01*
X49857167Y-94799891D01*
X50102878Y-94711972D01*
X50409862Y-94649413D01*
X50732338Y-94615139D01*
X51024525Y-94612078D01*
X51240641Y-94643153D01*
X51333336Y-94705555D01*
X51282846Y-94791727D01*
X51118846Y-94903598D01*
X51017589Y-94954021D01*
X50635831Y-95194289D01*
X50382970Y-95525940D01*
X50257053Y-95873553D01*
X50191635Y-96059191D01*
X50062617Y-96364647D01*
X49883913Y-96759190D01*
X49669435Y-97212086D01*
X49437168Y-97684484D01*
X49183345Y-98193603D01*
X48995465Y-98581584D01*
X48862902Y-98878324D01*
X48775031Y-99113717D01*
X48721224Y-99317661D01*
X48690855Y-99520049D01*
X48673299Y-99750778D01*
X48667962Y-99848568D01*
X48653669Y-100201593D01*
X48508366Y-100201593D01*
X48506952Y-100187893D01*
X48491936Y-99817543D01*
X48526484Y-99463255D01*
X48620611Y-99088910D01*
X48784333Y-98658389D01*
X49027667Y-98135571D01*
X49136209Y-97918746D01*
X49403007Y-97391987D01*
X49604482Y-96990786D01*
X49752244Y-96689854D01*
X49857900Y-96463898D01*
X49933060Y-96287629D01*
X49989331Y-96135755D01*
X50038323Y-95982987D01*
X50063974Y-95897498D01*
X50226144Y-95458241D01*
X50423732Y-95146832D01*
X50683902Y-94921990D01*
X50721377Y-94898403D01*
X50979000Y-94741299D01*
X50682667Y-94742842D01*
X50321803Y-94804056D01*
X49903947Y-94968918D01*
X49484210Y-95214159D01*
X49369796Y-95297150D01*
X49172471Y-95422923D01*
X49081177Y-95422425D01*
X49096139Y-95301587D01*
X49217581Y-95066344D01*
X49353148Y-94855744D01*
X49720263Y-94447866D01*
X50051648Y-94232838D01*
X50471000Y-94021343D01*
X50174667Y-93972567D01*
X49878334Y-93923792D01*
X50301667Y-93732055D01*
X50687842Y-93598101D01*
X51052688Y-93571955D01*
X51119456Y-93576989D01*
X51361599Y-93588972D01*
X51466951Y-93561086D01*
X51470231Y-93499830D01*
X51494304Y-93410046D01*
X51642113Y-93389778D01*
X51883359Y-93438212D01*
X52101889Y-93516828D01*
X52309703Y-93594309D01*
X52423931Y-93597652D01*
X52503228Y-93526856D01*
X52510670Y-93516828D01*
X52632798Y-93412261D01*
X52750477Y-93389101D01*
X52799334Y-93454484D01*
D13*
X37265000Y-64182936D02*
X37265000Y-64637064D01*
X38735000Y-64182936D02*
X38735000Y-64637064D01*
X37265000Y-59772936D02*
X37265000Y-60227064D01*
X38735000Y-59772936D02*
X38735000Y-60227064D01*
D10*
X29470000Y-89400000D02*
X29470000Y-58600000D01*
X29470000Y-89400000D02*
X14890000Y-89400000D01*
X14890000Y-89400000D02*
X14890000Y-58600000D01*
X14890000Y-58600000D02*
X29470000Y-58600000D01*
D13*
X51338748Y-61365000D02*
X51861252Y-61365000D01*
X51338748Y-62835000D02*
X51861252Y-62835000D01*
D10*
X70000000Y-82000000D02*
X70000000Y-42000000D01*
X60000000Y-42000000D02*
X70000000Y-42000000D01*
X60000000Y-82000000D02*
X60000000Y-42000000D01*
X70000000Y-82000000D02*
X60000000Y-82000000D01*
X68171700Y-71800000D02*
X69977640Y-71800000D01*
X68171700Y-73250000D02*
X68171700Y-71800000D01*
X69992880Y-73250000D02*
X68171700Y-73250000D01*
X69992880Y-52200000D02*
X68171700Y-52200000D01*
X68171700Y-52200000D02*
X68171700Y-50750000D01*
X68171700Y-50750000D02*
X69977640Y-50750000D01*
X69947160Y-71827260D02*
X69959860Y-71822180D01*
X68176780Y-73249660D02*
X69947160Y-71827260D01*
X69970020Y-73254740D02*
X68202180Y-71834880D01*
X68199640Y-52175280D02*
X69937000Y-50785900D01*
X69982720Y-52198140D02*
X68222500Y-50785900D01*
D13*
X33399622Y-43860000D02*
X32600378Y-43860000D01*
X33399622Y-42740000D02*
X32600378Y-42740000D01*
D12*
G36*
X34587200Y-103161600D02*
G01*
X34587200Y-102755200D01*
X34993600Y-102755200D01*
X34993600Y-103161600D01*
X34587200Y-103161600D01*
G37*
X34587200Y-103161600D02*
X34587200Y-102755200D01*
X34993600Y-102755200D01*
X34993600Y-103161600D01*
X34587200Y-103161600D01*
G36*
X33774400Y-102348800D02*
G01*
X34587200Y-102348800D01*
X34587200Y-102755200D01*
X33774400Y-102755200D01*
X33774400Y-102348800D01*
G37*
X33774400Y-102348800D02*
X34587200Y-102348800D01*
X34587200Y-102755200D01*
X33774400Y-102755200D01*
X33774400Y-102348800D01*
G36*
X36212800Y-102348800D02*
G01*
X37025600Y-102348800D01*
X37025600Y-102755200D01*
X37432000Y-102755200D01*
X37432000Y-107225600D01*
X37025600Y-107225600D01*
X37025600Y-107632000D01*
X36619200Y-107632000D01*
X36619200Y-108038400D01*
X36212800Y-108038400D01*
X36212800Y-108444800D01*
X35806400Y-108444800D01*
X35806400Y-108851200D01*
X34993600Y-108851200D01*
X34993600Y-108444800D01*
X34587200Y-108444800D01*
X34587200Y-108038400D01*
X34180800Y-108038400D01*
X34180800Y-107632000D01*
X33774400Y-107632000D01*
X33774400Y-107225600D01*
X33368000Y-107225600D01*
X33368000Y-102755200D01*
X33774400Y-102755200D01*
X33774400Y-106819200D01*
X34180800Y-106819200D01*
X34180800Y-107225600D01*
X34587200Y-107225600D01*
X34587200Y-107632000D01*
X34993600Y-107632000D01*
X34993600Y-108038400D01*
X35806400Y-108038400D01*
X35806400Y-107632000D01*
X36212800Y-107632000D01*
X36212800Y-107225600D01*
X36619200Y-107225600D01*
X36619200Y-106819200D01*
X37025600Y-106819200D01*
X37025600Y-106412800D01*
X36619200Y-106412800D01*
X36619200Y-106006400D01*
X37025600Y-106006400D01*
X37025600Y-105600000D01*
X36619200Y-105600000D01*
X36619200Y-105193600D01*
X37025600Y-105193600D01*
X37025600Y-104787200D01*
X36619200Y-104787200D01*
X36619200Y-104380800D01*
X37025600Y-104380800D01*
X37025600Y-103974400D01*
X36619200Y-103974400D01*
X36619200Y-103568000D01*
X37025600Y-103568000D01*
X37025600Y-103161600D01*
X36619200Y-103161600D01*
X36619200Y-102755200D01*
X36212800Y-102755200D01*
X36212800Y-102348800D01*
G37*
X36212800Y-102348800D02*
X37025600Y-102348800D01*
X37025600Y-102755200D01*
X37432000Y-102755200D01*
X37432000Y-107225600D01*
X37025600Y-107225600D01*
X37025600Y-107632000D01*
X36619200Y-107632000D01*
X36619200Y-108038400D01*
X36212800Y-108038400D01*
X36212800Y-108444800D01*
X35806400Y-108444800D01*
X35806400Y-108851200D01*
X34993600Y-108851200D01*
X34993600Y-108444800D01*
X34587200Y-108444800D01*
X34587200Y-108038400D01*
X34180800Y-108038400D01*
X34180800Y-107632000D01*
X33774400Y-107632000D01*
X33774400Y-107225600D01*
X33368000Y-107225600D01*
X33368000Y-102755200D01*
X33774400Y-102755200D01*
X33774400Y-106819200D01*
X34180800Y-106819200D01*
X34180800Y-107225600D01*
X34587200Y-107225600D01*
X34587200Y-107632000D01*
X34993600Y-107632000D01*
X34993600Y-108038400D01*
X35806400Y-108038400D01*
X35806400Y-107632000D01*
X36212800Y-107632000D01*
X36212800Y-107225600D01*
X36619200Y-107225600D01*
X36619200Y-106819200D01*
X37025600Y-106819200D01*
X37025600Y-106412800D01*
X36619200Y-106412800D01*
X36619200Y-106006400D01*
X37025600Y-106006400D01*
X37025600Y-105600000D01*
X36619200Y-105600000D01*
X36619200Y-105193600D01*
X37025600Y-105193600D01*
X37025600Y-104787200D01*
X36619200Y-104787200D01*
X36619200Y-104380800D01*
X37025600Y-104380800D01*
X37025600Y-103974400D01*
X36619200Y-103974400D01*
X36619200Y-103568000D01*
X37025600Y-103568000D01*
X37025600Y-103161600D01*
X36619200Y-103161600D01*
X36619200Y-102755200D01*
X36212800Y-102755200D01*
X36212800Y-102348800D01*
G36*
X35806400Y-102755200D02*
G01*
X36212800Y-102755200D01*
X36212800Y-103161600D01*
X35806400Y-103161600D01*
X35806400Y-102755200D01*
G37*
X35806400Y-102755200D02*
X36212800Y-102755200D01*
X36212800Y-103161600D01*
X35806400Y-103161600D01*
X35806400Y-102755200D01*
G36*
X35806400Y-103161600D02*
G01*
X35806400Y-103568000D01*
X34993600Y-103568000D01*
X34993600Y-103161600D01*
X35806400Y-103161600D01*
G37*
X35806400Y-103161600D02*
X35806400Y-103568000D01*
X34993600Y-103568000D01*
X34993600Y-103161600D01*
X35806400Y-103161600D01*
G36*
X35806400Y-107632000D02*
G01*
X35400000Y-107632000D01*
X35400000Y-107225600D01*
X35806400Y-107225600D01*
X35806400Y-107632000D01*
G37*
X35806400Y-107632000D02*
X35400000Y-107632000D01*
X35400000Y-107225600D01*
X35806400Y-107225600D01*
X35806400Y-107632000D01*
G36*
X36212800Y-103161600D02*
G01*
X36619200Y-103161600D01*
X36619200Y-103568000D01*
X36212800Y-103568000D01*
X36212800Y-103161600D01*
G37*
X36212800Y-103161600D02*
X36619200Y-103161600D01*
X36619200Y-103568000D01*
X36212800Y-103568000D01*
X36212800Y-103161600D01*
G36*
X35806400Y-103568000D02*
G01*
X36212800Y-103568000D01*
X36212800Y-103974400D01*
X35806400Y-103974400D01*
X35806400Y-103568000D01*
G37*
X35806400Y-103568000D02*
X36212800Y-103568000D01*
X36212800Y-103974400D01*
X35806400Y-103974400D01*
X35806400Y-103568000D01*
G36*
X35400000Y-104380800D02*
G01*
X35400000Y-103974400D01*
X35806400Y-103974400D01*
X35806400Y-104380800D01*
X35400000Y-104380800D01*
G37*
X35400000Y-104380800D02*
X35400000Y-103974400D01*
X35806400Y-103974400D01*
X35806400Y-104380800D01*
X35400000Y-104380800D01*
G36*
X36212800Y-103974400D02*
G01*
X36619200Y-103974400D01*
X36619200Y-104380800D01*
X36212800Y-104380800D01*
X36212800Y-103974400D01*
G37*
X36212800Y-103974400D02*
X36619200Y-103974400D01*
X36619200Y-104380800D01*
X36212800Y-104380800D01*
X36212800Y-103974400D01*
G36*
X35400000Y-105193600D02*
G01*
X35400000Y-104787200D01*
X35806400Y-104787200D01*
X35806400Y-105193600D01*
X35400000Y-105193600D01*
G37*
X35400000Y-105193600D02*
X35400000Y-104787200D01*
X35806400Y-104787200D01*
X35806400Y-105193600D01*
X35400000Y-105193600D01*
G36*
X36212800Y-104787200D02*
G01*
X36619200Y-104787200D01*
X36619200Y-105193600D01*
X36212800Y-105193600D01*
X36212800Y-104787200D01*
G37*
X36212800Y-104787200D02*
X36619200Y-104787200D01*
X36619200Y-105193600D01*
X36212800Y-105193600D01*
X36212800Y-104787200D01*
G36*
X35400000Y-106006400D02*
G01*
X35400000Y-105600000D01*
X35806400Y-105600000D01*
X35806400Y-106006400D01*
X35400000Y-106006400D01*
G37*
X35400000Y-106006400D02*
X35400000Y-105600000D01*
X35806400Y-105600000D01*
X35806400Y-106006400D01*
X35400000Y-106006400D01*
G36*
X36212800Y-105600000D02*
G01*
X36619200Y-105600000D01*
X36619200Y-106006400D01*
X36212800Y-106006400D01*
X36212800Y-105600000D01*
G37*
X36212800Y-105600000D02*
X36619200Y-105600000D01*
X36619200Y-106006400D01*
X36212800Y-106006400D01*
X36212800Y-105600000D01*
G36*
X35400000Y-106819200D02*
G01*
X35400000Y-106412800D01*
X35806400Y-106412800D01*
X35806400Y-106819200D01*
X35400000Y-106819200D01*
G37*
X35400000Y-106819200D02*
X35400000Y-106412800D01*
X35806400Y-106412800D01*
X35806400Y-106819200D01*
X35400000Y-106819200D01*
G36*
X36212800Y-106412800D02*
G01*
X36619200Y-106412800D01*
X36619200Y-106819200D01*
X36212800Y-106819200D01*
X36212800Y-106412800D01*
G37*
X36212800Y-106412800D02*
X36619200Y-106412800D01*
X36619200Y-106819200D01*
X36212800Y-106819200D01*
X36212800Y-106412800D01*
G36*
X36212800Y-104787200D02*
G01*
X35806400Y-104787200D01*
X35806400Y-104380800D01*
X36212800Y-104380800D01*
X36212800Y-104787200D01*
G37*
X36212800Y-104787200D02*
X35806400Y-104787200D01*
X35806400Y-104380800D01*
X36212800Y-104380800D01*
X36212800Y-104787200D01*
G36*
X36212800Y-105600000D02*
G01*
X35806400Y-105600000D01*
X35806400Y-105193600D01*
X36212800Y-105193600D01*
X36212800Y-105600000D01*
G37*
X36212800Y-105600000D02*
X35806400Y-105600000D01*
X35806400Y-105193600D01*
X36212800Y-105193600D01*
X36212800Y-105600000D01*
G36*
X36212800Y-106412800D02*
G01*
X35806400Y-106412800D01*
X35806400Y-106006400D01*
X36212800Y-106006400D01*
X36212800Y-106412800D01*
G37*
X36212800Y-106412800D02*
X35806400Y-106412800D01*
X35806400Y-106006400D01*
X36212800Y-106006400D01*
X36212800Y-106412800D01*
G36*
X36212800Y-107225600D02*
G01*
X35806400Y-107225600D01*
X35806400Y-106819200D01*
X36212800Y-106819200D01*
X36212800Y-107225600D01*
G37*
X36212800Y-107225600D02*
X35806400Y-107225600D01*
X35806400Y-106819200D01*
X36212800Y-106819200D01*
X36212800Y-107225600D01*
D13*
X29827064Y-47465000D02*
X29372936Y-47465000D01*
X29827064Y-48935000D02*
X29372936Y-48935000D01*
X29827064Y-45465000D02*
X29372936Y-45465000D01*
X29827064Y-46935000D02*
X29372936Y-46935000D01*
X40227064Y-73265000D02*
X39772936Y-73265000D01*
X40227064Y-74735000D02*
X39772936Y-74735000D01*
X39872936Y-71935000D02*
X40327064Y-71935000D01*
X39872936Y-70465000D02*
X40327064Y-70465000D01*
X56435000Y-72227064D02*
X56435000Y-71772936D01*
X54965000Y-72227064D02*
X54965000Y-71772936D01*
X56965000Y-47772936D02*
X56965000Y-48227064D01*
X58435000Y-47772936D02*
X58435000Y-48227064D01*
X58835000Y-59327064D02*
X58835000Y-58872936D01*
X57365000Y-59327064D02*
X57365000Y-58872936D01*
X58735000Y-77765936D02*
X58735000Y-78220064D01*
X57265000Y-77765936D02*
X57265000Y-78220064D01*
X41027064Y-46865000D02*
X40572936Y-46865000D01*
X41027064Y-48335000D02*
X40572936Y-48335000D01*
X44827064Y-46865000D02*
X44372936Y-46865000D01*
X44827064Y-48335000D02*
X44372936Y-48335000D01*
X54965000Y-75838748D02*
X54965000Y-76361252D01*
X56435000Y-75838748D02*
X56435000Y-76361252D01*
X48735000Y-85261252D02*
X48735000Y-84738748D01*
X47265000Y-85261252D02*
X47265000Y-84738748D01*
X44735000Y-67261252D02*
X44735000Y-66738748D01*
X43265000Y-67261252D02*
X43265000Y-66738748D01*
X39161252Y-51965000D02*
X38638748Y-51965000D01*
X39161252Y-53435000D02*
X38638748Y-53435000D01*
X44861252Y-48865000D02*
X44338748Y-48865000D01*
X44861252Y-50335000D02*
X44338748Y-50335000D01*
X38765000Y-44138748D02*
X38765000Y-44661252D01*
X40235000Y-44138748D02*
X40235000Y-44661252D01*
X42265000Y-75238748D02*
X42265000Y-75761252D01*
X43735000Y-75238748D02*
X43735000Y-75761252D01*
X44265000Y-75238748D02*
X44265000Y-75761252D01*
X45735000Y-75238748D02*
X45735000Y-75761252D01*
X46265000Y-75238748D02*
X46265000Y-75761252D01*
X47735000Y-75238748D02*
X47735000Y-75761252D01*
X53035000Y-59361252D02*
X53035000Y-58838748D01*
X51565000Y-59361252D02*
X51565000Y-58838748D01*
X58835000Y-63361252D02*
X58835000Y-62838748D01*
X57365000Y-63361252D02*
X57365000Y-62838748D01*
X58735000Y-73738748D02*
X58735000Y-74261252D01*
X57265000Y-73738748D02*
X57265000Y-74261252D01*
D10*
X45850000Y-83625000D02*
X45850000Y-82400000D01*
X42725000Y-83625000D02*
X42725000Y-86975000D01*
X46075000Y-83625000D02*
X46075000Y-86975000D01*
X42725000Y-83625000D02*
X43025000Y-83625000D01*
X42725000Y-86975000D02*
X43025000Y-86975000D01*
X46075000Y-86975000D02*
X45775000Y-86975000D01*
X46075000Y-83625000D02*
X45850000Y-83625000D01*
D13*
X44870000Y-60210000D02*
X47530000Y-60210000D01*
X44870000Y-55070000D02*
X44870000Y-60210000D01*
X47530000Y-55070000D02*
X47530000Y-60210000D01*
X44870000Y-55070000D02*
X47530000Y-55070000D01*
X44870000Y-53800000D02*
X44870000Y-52470000D01*
X44870000Y-52470000D02*
X46200000Y-52470000D01*
D10*
X53525000Y-69325000D02*
X53500000Y-69325000D01*
X45475000Y-69325000D02*
X45500000Y-69325000D01*
X45475000Y-64675000D02*
X45500000Y-64675000D01*
X53575000Y-63600000D02*
X53575000Y-69325000D01*
X45475000Y-64675000D02*
X45475000Y-69325000D01*
D13*
X70000000Y-85400000D02*
X70000000Y-95800000D01*
X70000000Y-95800000D02*
X60000000Y-95800000D01*
X60000000Y-95800000D02*
X60000000Y-85400000D01*
X60000000Y-85400000D02*
X70000000Y-85400000D01*
X70000000Y-98420000D02*
X70000000Y-108820000D01*
X70000000Y-108820000D02*
X60000000Y-108820000D01*
X60000000Y-108820000D02*
X60000000Y-98420000D01*
X60000000Y-98420000D02*
X70000000Y-98420000D01*
X44326000Y-43682000D02*
X43396000Y-43682000D01*
X41166000Y-43682000D02*
X42096000Y-43682000D01*
X41166000Y-43682000D02*
X41166000Y-45842000D01*
X44326000Y-43682000D02*
X44326000Y-45142000D01*
X54410000Y-43290000D02*
X52060000Y-43290000D01*
X47590000Y-43290000D02*
X49940000Y-43290000D01*
X47590000Y-49045563D02*
X47590000Y-43290000D01*
X54410000Y-49045563D02*
X54410000Y-43290000D01*
X53345563Y-50110000D02*
X52060000Y-50110000D01*
X48654437Y-50110000D02*
X49940000Y-50110000D01*
X48654437Y-50110000D02*
X47590000Y-49045563D01*
X53345563Y-50110000D02*
X54410000Y-49045563D01*
X49152500Y-51137500D02*
X49152500Y-50350000D01*
X48758750Y-50743750D02*
X49546250Y-50743750D01*
X38790000Y-86758578D02*
X38790000Y-86241422D01*
X40210000Y-86758578D02*
X40210000Y-86241422D01*
X40210000Y-78241422D02*
X40210000Y-78758578D01*
X38790000Y-78241422D02*
X38790000Y-78758578D01*
X40210000Y-82241422D02*
X40210000Y-82758578D01*
X38790000Y-82241422D02*
X38790000Y-82758578D01*
X37620000Y-57060000D02*
X39380000Y-57060000D01*
X39380000Y-53990000D02*
X36950000Y-53990000D01*
X32620000Y-57060000D02*
X34380000Y-57060000D01*
X34380000Y-53990000D02*
X31950000Y-53990000D01*
D10*
X25457920Y-53508340D02*
X28925020Y-56475060D01*
X28940260Y-53500720D02*
X25460460Y-56472520D01*
X25442680Y-105767320D02*
X28945340Y-108756900D01*
X28947880Y-105759700D02*
X25455380Y-108746740D01*
X25450000Y-53490000D02*
X28950000Y-53490000D01*
X28950000Y-108760000D02*
X25450000Y-108760000D01*
X25450000Y-108760000D02*
X25450000Y-53490000D01*
X25450000Y-56490000D02*
X28950000Y-56490000D01*
X28950000Y-59105000D02*
X28950000Y-53490000D01*
X28950000Y-59105000D02*
X36400000Y-59105000D01*
X36400000Y-59105000D02*
X36400000Y-102605000D01*
X36400000Y-102605000D02*
X28950000Y-102605000D01*
X28950000Y-102605000D02*
X28950000Y-108760000D01*
X28950000Y-105760000D02*
X25450000Y-105760000D01*
X40102380Y-65052857D02*
X39626190Y-65386190D01*
X40102380Y-65624285D02*
X39102380Y-65624285D01*
X39102380Y-65243333D01*
X39150000Y-65148095D01*
X39197619Y-65100476D01*
X39292857Y-65052857D01*
X39435714Y-65052857D01*
X39530952Y-65100476D01*
X39578571Y-65148095D01*
X39626190Y-65243333D01*
X39626190Y-65624285D01*
X40102380Y-64100476D02*
X40102380Y-64671904D01*
X40102380Y-64386190D02*
X39102380Y-64386190D01*
X39245238Y-64481428D01*
X39340476Y-64576666D01*
X39388095Y-64671904D01*
X39102380Y-63767142D02*
X39102380Y-63148095D01*
X39483333Y-63481428D01*
X39483333Y-63338571D01*
X39530952Y-63243333D01*
X39578571Y-63195714D01*
X39673809Y-63148095D01*
X39911904Y-63148095D01*
X40007142Y-63195714D01*
X40054761Y-63243333D01*
X40102380Y-63338571D01*
X40102380Y-63624285D01*
X40054761Y-63719523D01*
X40007142Y-63767142D01*
X40102380Y-60642857D02*
X39626190Y-60976190D01*
X40102380Y-61214285D02*
X39102380Y-61214285D01*
X39102380Y-60833333D01*
X39150000Y-60738095D01*
X39197619Y-60690476D01*
X39292857Y-60642857D01*
X39435714Y-60642857D01*
X39530952Y-60690476D01*
X39578571Y-60738095D01*
X39626190Y-60833333D01*
X39626190Y-61214285D01*
X40102380Y-59690476D02*
X40102380Y-60261904D01*
X40102380Y-59976190D02*
X39102380Y-59976190D01*
X39245238Y-60071428D01*
X39340476Y-60166666D01*
X39388095Y-60261904D01*
X39197619Y-59309523D02*
X39150000Y-59261904D01*
X39102380Y-59166666D01*
X39102380Y-58928571D01*
X39150000Y-58833333D01*
X39197619Y-58785714D01*
X39292857Y-58738095D01*
X39388095Y-58738095D01*
X39530952Y-58785714D01*
X40102380Y-59357142D01*
X40102380Y-58738095D01*
X24271746Y-90154660D02*
X24271746Y-90868946D01*
X24224127Y-91011803D01*
X24128889Y-91107041D01*
X23986032Y-91154660D01*
X23890794Y-91154660D01*
X25271746Y-91154660D02*
X24700318Y-91154660D01*
X24986032Y-91154660D02*
X24986032Y-90154660D01*
X24890794Y-90297518D01*
X24795556Y-90392756D01*
X24700318Y-90440375D01*
X54457142Y-62142857D02*
X54504761Y-62190476D01*
X54552380Y-62333333D01*
X54552380Y-62428571D01*
X54504761Y-62571428D01*
X54409523Y-62666666D01*
X54314285Y-62714285D01*
X54123809Y-62761904D01*
X53980952Y-62761904D01*
X53790476Y-62714285D01*
X53695238Y-62666666D01*
X53600000Y-62571428D01*
X53552380Y-62428571D01*
X53552380Y-62333333D01*
X53600000Y-62190476D01*
X53647619Y-62142857D01*
X54552380Y-61190476D02*
X54552380Y-61761904D01*
X54552380Y-61476190D02*
X53552380Y-61476190D01*
X53695238Y-61571428D01*
X53790476Y-61666666D01*
X53838095Y-61761904D01*
X53885714Y-60333333D02*
X54552380Y-60333333D01*
X53504761Y-60571428D02*
X54219047Y-60809523D01*
X54219047Y-60190476D01*
X62085266Y-38737160D02*
X62085266Y-39451446D01*
X62037647Y-39594303D01*
X61942409Y-39689541D01*
X61799552Y-39737160D01*
X61704314Y-39737160D01*
X63037647Y-38737160D02*
X62561457Y-38737160D01*
X62513838Y-39213351D01*
X62561457Y-39165732D01*
X62656695Y-39118113D01*
X62894790Y-39118113D01*
X62990028Y-39165732D01*
X63037647Y-39213351D01*
X63085266Y-39308589D01*
X63085266Y-39546684D01*
X63037647Y-39641922D01*
X62990028Y-39689541D01*
X62894790Y-39737160D01*
X62656695Y-39737160D01*
X62561457Y-39689541D01*
X62513838Y-39641922D01*
X32166666Y-44778571D02*
X31833333Y-44778571D01*
X31833333Y-45302380D02*
X31833333Y-44302380D01*
X32309523Y-44302380D01*
X33023809Y-44778571D02*
X33166666Y-44826190D01*
X33214285Y-44873809D01*
X33261904Y-44969047D01*
X33261904Y-45111904D01*
X33214285Y-45207142D01*
X33166666Y-45254761D01*
X33071428Y-45302380D01*
X32690476Y-45302380D01*
X32690476Y-44302380D01*
X33023809Y-44302380D01*
X33119047Y-44350000D01*
X33166666Y-44397619D01*
X33214285Y-44492857D01*
X33214285Y-44588095D01*
X33166666Y-44683333D01*
X33119047Y-44730952D01*
X33023809Y-44778571D01*
X32690476Y-44778571D01*
X34214285Y-45302380D02*
X33642857Y-45302380D01*
X33928571Y-45302380D02*
X33928571Y-44302380D01*
X33833333Y-44445238D01*
X33738095Y-44540476D01*
X33642857Y-44588095D01*
X28957142Y-50302380D02*
X28623809Y-49826190D01*
X28385714Y-50302380D02*
X28385714Y-49302380D01*
X28766666Y-49302380D01*
X28861904Y-49350000D01*
X28909523Y-49397619D01*
X28957142Y-49492857D01*
X28957142Y-49635714D01*
X28909523Y-49730952D01*
X28861904Y-49778571D01*
X28766666Y-49826190D01*
X28385714Y-49826190D01*
X29909523Y-50302380D02*
X29338095Y-50302380D01*
X29623809Y-50302380D02*
X29623809Y-49302380D01*
X29528571Y-49445238D01*
X29433333Y-49540476D01*
X29338095Y-49588095D01*
X30242857Y-49302380D02*
X30909523Y-49302380D01*
X30480952Y-50302380D01*
X28957142Y-48302380D02*
X28623809Y-47826190D01*
X28385714Y-48302380D02*
X28385714Y-47302380D01*
X28766666Y-47302380D01*
X28861904Y-47350000D01*
X28909523Y-47397619D01*
X28957142Y-47492857D01*
X28957142Y-47635714D01*
X28909523Y-47730952D01*
X28861904Y-47778571D01*
X28766666Y-47826190D01*
X28385714Y-47826190D01*
X29909523Y-48302380D02*
X29338095Y-48302380D01*
X29623809Y-48302380D02*
X29623809Y-47302380D01*
X29528571Y-47445238D01*
X29433333Y-47540476D01*
X29338095Y-47588095D01*
X30766666Y-47302380D02*
X30576190Y-47302380D01*
X30480952Y-47350000D01*
X30433333Y-47397619D01*
X30338095Y-47540476D01*
X30290476Y-47730952D01*
X30290476Y-48111904D01*
X30338095Y-48207142D01*
X30385714Y-48254761D01*
X30480952Y-48302380D01*
X30671428Y-48302380D01*
X30766666Y-48254761D01*
X30814285Y-48207142D01*
X30861904Y-48111904D01*
X30861904Y-47873809D01*
X30814285Y-47778571D01*
X30766666Y-47730952D01*
X30671428Y-47683333D01*
X30480952Y-47683333D01*
X30385714Y-47730952D01*
X30338095Y-47778571D01*
X30290476Y-47873809D01*
X39833333Y-76102380D02*
X39500000Y-75626190D01*
X39261904Y-76102380D02*
X39261904Y-75102380D01*
X39642857Y-75102380D01*
X39738095Y-75150000D01*
X39785714Y-75197619D01*
X39833333Y-75292857D01*
X39833333Y-75435714D01*
X39785714Y-75530952D01*
X39738095Y-75578571D01*
X39642857Y-75626190D01*
X39261904Y-75626190D01*
X40404761Y-75530952D02*
X40309523Y-75483333D01*
X40261904Y-75435714D01*
X40214285Y-75340476D01*
X40214285Y-75292857D01*
X40261904Y-75197619D01*
X40309523Y-75150000D01*
X40404761Y-75102380D01*
X40595238Y-75102380D01*
X40690476Y-75150000D01*
X40738095Y-75197619D01*
X40785714Y-75292857D01*
X40785714Y-75340476D01*
X40738095Y-75435714D01*
X40690476Y-75483333D01*
X40595238Y-75530952D01*
X40404761Y-75530952D01*
X40309523Y-75578571D01*
X40261904Y-75626190D01*
X40214285Y-75721428D01*
X40214285Y-75911904D01*
X40261904Y-76007142D01*
X40309523Y-76054761D01*
X40404761Y-76102380D01*
X40595238Y-76102380D01*
X40690476Y-76054761D01*
X40738095Y-76007142D01*
X40785714Y-75911904D01*
X40785714Y-75721428D01*
X40738095Y-75626190D01*
X40690476Y-75578571D01*
X40595238Y-75530952D01*
X39933333Y-70002380D02*
X39600000Y-69526190D01*
X39361904Y-70002380D02*
X39361904Y-69002380D01*
X39742857Y-69002380D01*
X39838095Y-69050000D01*
X39885714Y-69097619D01*
X39933333Y-69192857D01*
X39933333Y-69335714D01*
X39885714Y-69430952D01*
X39838095Y-69478571D01*
X39742857Y-69526190D01*
X39361904Y-69526190D01*
X40266666Y-69002380D02*
X40933333Y-69002380D01*
X40504761Y-70002380D01*
X54502380Y-72166666D02*
X54026190Y-72500000D01*
X54502380Y-72738095D02*
X53502380Y-72738095D01*
X53502380Y-72357142D01*
X53550000Y-72261904D01*
X53597619Y-72214285D01*
X53692857Y-72166666D01*
X53835714Y-72166666D01*
X53930952Y-72214285D01*
X53978571Y-72261904D01*
X54026190Y-72357142D01*
X54026190Y-72738095D01*
X53502380Y-71309523D02*
X53502380Y-71500000D01*
X53550000Y-71595238D01*
X53597619Y-71642857D01*
X53740476Y-71738095D01*
X53930952Y-71785714D01*
X54311904Y-71785714D01*
X54407142Y-71738095D01*
X54454761Y-71690476D01*
X54502380Y-71595238D01*
X54502380Y-71404761D01*
X54454761Y-71309523D01*
X54407142Y-71261904D01*
X54311904Y-71214285D01*
X54073809Y-71214285D01*
X53978571Y-71261904D01*
X53930952Y-71309523D01*
X53883333Y-71404761D01*
X53883333Y-71595238D01*
X53930952Y-71690476D01*
X53978571Y-71738095D01*
X54073809Y-71785714D01*
X59802380Y-48166666D02*
X59326190Y-48500000D01*
X59802380Y-48738095D02*
X58802380Y-48738095D01*
X58802380Y-48357142D01*
X58850000Y-48261904D01*
X58897619Y-48214285D01*
X58992857Y-48166666D01*
X59135714Y-48166666D01*
X59230952Y-48214285D01*
X59278571Y-48261904D01*
X59326190Y-48357142D01*
X59326190Y-48738095D01*
X58802380Y-47261904D02*
X58802380Y-47738095D01*
X59278571Y-47785714D01*
X59230952Y-47738095D01*
X59183333Y-47642857D01*
X59183333Y-47404761D01*
X59230952Y-47309523D01*
X59278571Y-47261904D01*
X59373809Y-47214285D01*
X59611904Y-47214285D01*
X59707142Y-47261904D01*
X59754761Y-47309523D01*
X59802380Y-47404761D01*
X59802380Y-47642857D01*
X59754761Y-47738095D01*
X59707142Y-47785714D01*
X56902380Y-59266666D02*
X56426190Y-59600000D01*
X56902380Y-59838095D02*
X55902380Y-59838095D01*
X55902380Y-59457142D01*
X55950000Y-59361904D01*
X55997619Y-59314285D01*
X56092857Y-59266666D01*
X56235714Y-59266666D01*
X56330952Y-59314285D01*
X56378571Y-59361904D01*
X56426190Y-59457142D01*
X56426190Y-59838095D01*
X56235714Y-58409523D02*
X56902380Y-58409523D01*
X55854761Y-58647619D02*
X56569047Y-58885714D01*
X56569047Y-58266666D01*
X60102380Y-78159666D02*
X59626190Y-78493000D01*
X60102380Y-78731095D02*
X59102380Y-78731095D01*
X59102380Y-78350142D01*
X59150000Y-78254904D01*
X59197619Y-78207285D01*
X59292857Y-78159666D01*
X59435714Y-78159666D01*
X59530952Y-78207285D01*
X59578571Y-78254904D01*
X59626190Y-78350142D01*
X59626190Y-78731095D01*
X59102380Y-77826333D02*
X59102380Y-77207285D01*
X59483333Y-77540619D01*
X59483333Y-77397761D01*
X59530952Y-77302523D01*
X59578571Y-77254904D01*
X59673809Y-77207285D01*
X59911904Y-77207285D01*
X60007142Y-77254904D01*
X60054761Y-77302523D01*
X60102380Y-77397761D01*
X60102380Y-77683476D01*
X60054761Y-77778714D01*
X60007142Y-77826333D01*
X40633333Y-49702380D02*
X40300000Y-49226190D01*
X40061904Y-49702380D02*
X40061904Y-48702380D01*
X40442857Y-48702380D01*
X40538095Y-48750000D01*
X40585714Y-48797619D01*
X40633333Y-48892857D01*
X40633333Y-49035714D01*
X40585714Y-49130952D01*
X40538095Y-49178571D01*
X40442857Y-49226190D01*
X40061904Y-49226190D01*
X41014285Y-48797619D02*
X41061904Y-48750000D01*
X41157142Y-48702380D01*
X41395238Y-48702380D01*
X41490476Y-48750000D01*
X41538095Y-48797619D01*
X41585714Y-48892857D01*
X41585714Y-48988095D01*
X41538095Y-49130952D01*
X40966666Y-49702380D01*
X41585714Y-49702380D01*
X44433333Y-49702380D02*
X44100000Y-49226190D01*
X43861904Y-49702380D02*
X43861904Y-48702380D01*
X44242857Y-48702380D01*
X44338095Y-48750000D01*
X44385714Y-48797619D01*
X44433333Y-48892857D01*
X44433333Y-49035714D01*
X44385714Y-49130952D01*
X44338095Y-49178571D01*
X44242857Y-49226190D01*
X43861904Y-49226190D01*
X45385714Y-49702380D02*
X44814285Y-49702380D01*
X45100000Y-49702380D02*
X45100000Y-48702380D01*
X45004761Y-48845238D01*
X44909523Y-48940476D01*
X44814285Y-48988095D01*
X54457142Y-76742857D02*
X54504761Y-76790476D01*
X54552380Y-76933333D01*
X54552380Y-77028571D01*
X54504761Y-77171428D01*
X54409523Y-77266666D01*
X54314285Y-77314285D01*
X54123809Y-77361904D01*
X53980952Y-77361904D01*
X53790476Y-77314285D01*
X53695238Y-77266666D01*
X53600000Y-77171428D01*
X53552380Y-77028571D01*
X53552380Y-76933333D01*
X53600000Y-76790476D01*
X53647619Y-76742857D01*
X54552380Y-75790476D02*
X54552380Y-76361904D01*
X54552380Y-76076190D02*
X53552380Y-76076190D01*
X53695238Y-76171428D01*
X53790476Y-76266666D01*
X53838095Y-76361904D01*
X53552380Y-75457142D02*
X53552380Y-74838095D01*
X53933333Y-75171428D01*
X53933333Y-75028571D01*
X53980952Y-74933333D01*
X54028571Y-74885714D01*
X54123809Y-74838095D01*
X54361904Y-74838095D01*
X54457142Y-74885714D01*
X54504761Y-74933333D01*
X54552380Y-75028571D01*
X54552380Y-75314285D01*
X54504761Y-75409523D01*
X54457142Y-75457142D01*
X46677142Y-85642857D02*
X46724761Y-85690476D01*
X46772380Y-85833333D01*
X46772380Y-85928571D01*
X46724761Y-86071428D01*
X46629523Y-86166666D01*
X46534285Y-86214285D01*
X46343809Y-86261904D01*
X46200952Y-86261904D01*
X46010476Y-86214285D01*
X45915238Y-86166666D01*
X45820000Y-86071428D01*
X45772380Y-85928571D01*
X45772380Y-85833333D01*
X45820000Y-85690476D01*
X45867619Y-85642857D01*
X46772380Y-84690476D02*
X46772380Y-85261904D01*
X46772380Y-84976190D02*
X45772380Y-84976190D01*
X45915238Y-85071428D01*
X46010476Y-85166666D01*
X46058095Y-85261904D01*
X45867619Y-84309523D02*
X45820000Y-84261904D01*
X45772380Y-84166666D01*
X45772380Y-83928571D01*
X45820000Y-83833333D01*
X45867619Y-83785714D01*
X45962857Y-83738095D01*
X46058095Y-83738095D01*
X46200952Y-83785714D01*
X46772380Y-84357142D01*
X46772380Y-83738095D01*
X42677142Y-67642857D02*
X42724761Y-67690476D01*
X42772380Y-67833333D01*
X42772380Y-67928571D01*
X42724761Y-68071428D01*
X42629523Y-68166666D01*
X42534285Y-68214285D01*
X42343809Y-68261904D01*
X42200952Y-68261904D01*
X42010476Y-68214285D01*
X41915238Y-68166666D01*
X41820000Y-68071428D01*
X41772380Y-67928571D01*
X41772380Y-67833333D01*
X41820000Y-67690476D01*
X41867619Y-67642857D01*
X42772380Y-66690476D02*
X42772380Y-67261904D01*
X42772380Y-66976190D02*
X41772380Y-66976190D01*
X41915238Y-67071428D01*
X42010476Y-67166666D01*
X42058095Y-67261904D01*
X42772380Y-65738095D02*
X42772380Y-66309523D01*
X42772380Y-66023809D02*
X41772380Y-66023809D01*
X41915238Y-66119047D01*
X42010476Y-66214285D01*
X42058095Y-66309523D01*
X38257142Y-54737142D02*
X38209523Y-54784761D01*
X38066666Y-54832380D01*
X37971428Y-54832380D01*
X37828571Y-54784761D01*
X37733333Y-54689523D01*
X37685714Y-54594285D01*
X37638095Y-54403809D01*
X37638095Y-54260952D01*
X37685714Y-54070476D01*
X37733333Y-53975238D01*
X37828571Y-53880000D01*
X37971428Y-53832380D01*
X38066666Y-53832380D01*
X38209523Y-53880000D01*
X38257142Y-53927619D01*
X39209523Y-54832380D02*
X38638095Y-54832380D01*
X38923809Y-54832380D02*
X38923809Y-53832380D01*
X38828571Y-53975238D01*
X38733333Y-54070476D01*
X38638095Y-54118095D01*
X39828571Y-53832380D02*
X39923809Y-53832380D01*
X40019047Y-53880000D01*
X40066666Y-53927619D01*
X40114285Y-54022857D01*
X40161904Y-54213333D01*
X40161904Y-54451428D01*
X40114285Y-54641904D01*
X40066666Y-54737142D01*
X40019047Y-54784761D01*
X39923809Y-54832380D01*
X39828571Y-54832380D01*
X39733333Y-54784761D01*
X39685714Y-54737142D01*
X39638095Y-54641904D01*
X39590476Y-54451428D01*
X39590476Y-54213333D01*
X39638095Y-54022857D01*
X39685714Y-53927619D01*
X39733333Y-53880000D01*
X39828571Y-53832380D01*
X44433333Y-51637142D02*
X44385714Y-51684761D01*
X44242857Y-51732380D01*
X44147619Y-51732380D01*
X44004761Y-51684761D01*
X43909523Y-51589523D01*
X43861904Y-51494285D01*
X43814285Y-51303809D01*
X43814285Y-51160952D01*
X43861904Y-50970476D01*
X43909523Y-50875238D01*
X44004761Y-50780000D01*
X44147619Y-50732380D01*
X44242857Y-50732380D01*
X44385714Y-50780000D01*
X44433333Y-50827619D01*
X44909523Y-51732380D02*
X45100000Y-51732380D01*
X45195238Y-51684761D01*
X45242857Y-51637142D01*
X45338095Y-51494285D01*
X45385714Y-51303809D01*
X45385714Y-50922857D01*
X45338095Y-50827619D01*
X45290476Y-50780000D01*
X45195238Y-50732380D01*
X45004761Y-50732380D01*
X44909523Y-50780000D01*
X44861904Y-50827619D01*
X44814285Y-50922857D01*
X44814285Y-51160952D01*
X44861904Y-51256190D01*
X44909523Y-51303809D01*
X45004761Y-51351428D01*
X45195238Y-51351428D01*
X45290476Y-51303809D01*
X45338095Y-51256190D01*
X45385714Y-51160952D01*
X38057142Y-44766666D02*
X38104761Y-44814285D01*
X38152380Y-44957142D01*
X38152380Y-45052380D01*
X38104761Y-45195238D01*
X38009523Y-45290476D01*
X37914285Y-45338095D01*
X37723809Y-45385714D01*
X37580952Y-45385714D01*
X37390476Y-45338095D01*
X37295238Y-45290476D01*
X37200000Y-45195238D01*
X37152380Y-45052380D01*
X37152380Y-44957142D01*
X37200000Y-44814285D01*
X37247619Y-44766666D01*
X37580952Y-44195238D02*
X37533333Y-44290476D01*
X37485714Y-44338095D01*
X37390476Y-44385714D01*
X37342857Y-44385714D01*
X37247619Y-44338095D01*
X37200000Y-44290476D01*
X37152380Y-44195238D01*
X37152380Y-44004761D01*
X37200000Y-43909523D01*
X37247619Y-43861904D01*
X37342857Y-43814285D01*
X37390476Y-43814285D01*
X37485714Y-43861904D01*
X37533333Y-43909523D01*
X37580952Y-44004761D01*
X37580952Y-44195238D01*
X37628571Y-44290476D01*
X37676190Y-44338095D01*
X37771428Y-44385714D01*
X37961904Y-44385714D01*
X38057142Y-44338095D01*
X38104761Y-44290476D01*
X38152380Y-44195238D01*
X38152380Y-44004761D01*
X38104761Y-43909523D01*
X38057142Y-43861904D01*
X37961904Y-43814285D01*
X37771428Y-43814285D01*
X37676190Y-43861904D01*
X37628571Y-43909523D01*
X37580952Y-44004761D01*
X45037142Y-75666666D02*
X45084761Y-75714285D01*
X45132380Y-75857142D01*
X45132380Y-75952380D01*
X45084761Y-76095238D01*
X44989523Y-76190476D01*
X44894285Y-76238095D01*
X44703809Y-76285714D01*
X44560952Y-76285714D01*
X44370476Y-76238095D01*
X44275238Y-76190476D01*
X44180000Y-76095238D01*
X44132380Y-75952380D01*
X44132380Y-75857142D01*
X44180000Y-75714285D01*
X44227619Y-75666666D01*
X44132380Y-74809523D02*
X44132380Y-75000000D01*
X44180000Y-75095238D01*
X44227619Y-75142857D01*
X44370476Y-75238095D01*
X44560952Y-75285714D01*
X44941904Y-75285714D01*
X45037142Y-75238095D01*
X45084761Y-75190476D01*
X45132380Y-75095238D01*
X45132380Y-74904761D01*
X45084761Y-74809523D01*
X45037142Y-74761904D01*
X44941904Y-74714285D01*
X44703809Y-74714285D01*
X44608571Y-74761904D01*
X44560952Y-74809523D01*
X44513333Y-74904761D01*
X44513333Y-75095238D01*
X44560952Y-75190476D01*
X44608571Y-75238095D01*
X44703809Y-75285714D01*
X47037142Y-75666666D02*
X47084761Y-75714285D01*
X47132380Y-75857142D01*
X47132380Y-75952380D01*
X47084761Y-76095238D01*
X46989523Y-76190476D01*
X46894285Y-76238095D01*
X46703809Y-76285714D01*
X46560952Y-76285714D01*
X46370476Y-76238095D01*
X46275238Y-76190476D01*
X46180000Y-76095238D01*
X46132380Y-75952380D01*
X46132380Y-75857142D01*
X46180000Y-75714285D01*
X46227619Y-75666666D01*
X46132380Y-74761904D02*
X46132380Y-75238095D01*
X46608571Y-75285714D01*
X46560952Y-75238095D01*
X46513333Y-75142857D01*
X46513333Y-74904761D01*
X46560952Y-74809523D01*
X46608571Y-74761904D01*
X46703809Y-74714285D01*
X46941904Y-74714285D01*
X47037142Y-74761904D01*
X47084761Y-74809523D01*
X47132380Y-74904761D01*
X47132380Y-75142857D01*
X47084761Y-75238095D01*
X47037142Y-75285714D01*
X49037142Y-75666666D02*
X49084761Y-75714285D01*
X49132380Y-75857142D01*
X49132380Y-75952380D01*
X49084761Y-76095238D01*
X48989523Y-76190476D01*
X48894285Y-76238095D01*
X48703809Y-76285714D01*
X48560952Y-76285714D01*
X48370476Y-76238095D01*
X48275238Y-76190476D01*
X48180000Y-76095238D01*
X48132380Y-75952380D01*
X48132380Y-75857142D01*
X48180000Y-75714285D01*
X48227619Y-75666666D01*
X48465714Y-74809523D02*
X49132380Y-74809523D01*
X48084761Y-75047619D02*
X48799047Y-75285714D01*
X48799047Y-74666666D01*
X50977142Y-59266666D02*
X51024761Y-59314285D01*
X51072380Y-59457142D01*
X51072380Y-59552380D01*
X51024761Y-59695238D01*
X50929523Y-59790476D01*
X50834285Y-59838095D01*
X50643809Y-59885714D01*
X50500952Y-59885714D01*
X50310476Y-59838095D01*
X50215238Y-59790476D01*
X50120000Y-59695238D01*
X50072380Y-59552380D01*
X50072380Y-59457142D01*
X50120000Y-59314285D01*
X50167619Y-59266666D01*
X50072380Y-58933333D02*
X50072380Y-58314285D01*
X50453333Y-58647619D01*
X50453333Y-58504761D01*
X50500952Y-58409523D01*
X50548571Y-58361904D01*
X50643809Y-58314285D01*
X50881904Y-58314285D01*
X50977142Y-58361904D01*
X51024761Y-58409523D01*
X51072380Y-58504761D01*
X51072380Y-58790476D01*
X51024761Y-58885714D01*
X50977142Y-58933333D01*
X56777142Y-63266666D02*
X56824761Y-63314285D01*
X56872380Y-63457142D01*
X56872380Y-63552380D01*
X56824761Y-63695238D01*
X56729523Y-63790476D01*
X56634285Y-63838095D01*
X56443809Y-63885714D01*
X56300952Y-63885714D01*
X56110476Y-63838095D01*
X56015238Y-63790476D01*
X55920000Y-63695238D01*
X55872380Y-63552380D01*
X55872380Y-63457142D01*
X55920000Y-63314285D01*
X55967619Y-63266666D01*
X55967619Y-62885714D02*
X55920000Y-62838095D01*
X55872380Y-62742857D01*
X55872380Y-62504761D01*
X55920000Y-62409523D01*
X55967619Y-62361904D01*
X56062857Y-62314285D01*
X56158095Y-62314285D01*
X56300952Y-62361904D01*
X56872380Y-62933333D01*
X56872380Y-62314285D01*
X60037142Y-74166666D02*
X60084761Y-74214285D01*
X60132380Y-74357142D01*
X60132380Y-74452380D01*
X60084761Y-74595238D01*
X59989523Y-74690476D01*
X59894285Y-74738095D01*
X59703809Y-74785714D01*
X59560952Y-74785714D01*
X59370476Y-74738095D01*
X59275238Y-74690476D01*
X59180000Y-74595238D01*
X59132380Y-74452380D01*
X59132380Y-74357142D01*
X59180000Y-74214285D01*
X59227619Y-74166666D01*
X60132380Y-73214285D02*
X60132380Y-73785714D01*
X60132380Y-73500000D02*
X59132380Y-73500000D01*
X59275238Y-73595238D01*
X59370476Y-73690476D01*
X59418095Y-73785714D01*
X46452380Y-86061904D02*
X47261904Y-86061904D01*
X47357142Y-86014285D01*
X47404761Y-85966666D01*
X47452380Y-85871428D01*
X47452380Y-85680952D01*
X47404761Y-85585714D01*
X47357142Y-85538095D01*
X47261904Y-85490476D01*
X46452380Y-85490476D01*
X46452380Y-85109523D02*
X46452380Y-84490476D01*
X46833333Y-84823809D01*
X46833333Y-84680952D01*
X46880952Y-84585714D01*
X46928571Y-84538095D01*
X47023809Y-84490476D01*
X47261904Y-84490476D01*
X47357142Y-84538095D01*
X47404761Y-84585714D01*
X47452380Y-84680952D01*
X47452380Y-84966666D01*
X47404761Y-85061904D01*
X47357142Y-85109523D01*
X45866666Y-50922380D02*
X45866666Y-51636666D01*
X45819047Y-51779523D01*
X45723809Y-51874761D01*
X45580952Y-51922380D01*
X45485714Y-51922380D01*
X46295238Y-51017619D02*
X46342857Y-50970000D01*
X46438095Y-50922380D01*
X46676190Y-50922380D01*
X46771428Y-50970000D01*
X46819047Y-51017619D01*
X46866666Y-51112857D01*
X46866666Y-51208095D01*
X46819047Y-51350952D01*
X46247619Y-51922380D01*
X46866666Y-51922380D01*
X53902380Y-67761904D02*
X54711904Y-67761904D01*
X54807142Y-67714285D01*
X54854761Y-67666666D01*
X54902380Y-67571428D01*
X54902380Y-67380952D01*
X54854761Y-67285714D01*
X54807142Y-67238095D01*
X54711904Y-67190476D01*
X53902380Y-67190476D01*
X53997619Y-66761904D02*
X53950000Y-66714285D01*
X53902380Y-66619047D01*
X53902380Y-66380952D01*
X53950000Y-66285714D01*
X53997619Y-66238095D01*
X54092857Y-66190476D01*
X54188095Y-66190476D01*
X54330952Y-66238095D01*
X54902380Y-66809523D01*
X54902380Y-66190476D01*
X71992380Y-88893333D02*
X72706666Y-88893333D01*
X72849523Y-88940952D01*
X72944761Y-89036190D01*
X72992380Y-89179047D01*
X72992380Y-89274285D01*
X72992380Y-87845714D02*
X72516190Y-88179047D01*
X72992380Y-88417142D02*
X71992380Y-88417142D01*
X71992380Y-88036190D01*
X72040000Y-87940952D01*
X72087619Y-87893333D01*
X72182857Y-87845714D01*
X72325714Y-87845714D01*
X72420952Y-87893333D01*
X72468571Y-87940952D01*
X72516190Y-88036190D01*
X72516190Y-88417142D01*
X72992380Y-86893333D02*
X72992380Y-87464761D01*
X72992380Y-87179047D02*
X71992380Y-87179047D01*
X72135238Y-87274285D01*
X72230476Y-87369523D01*
X72278095Y-87464761D01*
X71992380Y-101937142D02*
X72706666Y-101937142D01*
X72849523Y-101984761D01*
X72944761Y-102080000D01*
X72992380Y-102222857D01*
X72992380Y-102318095D01*
X71992380Y-101460952D02*
X72801904Y-101460952D01*
X72897142Y-101413333D01*
X72944761Y-101365714D01*
X72992380Y-101270476D01*
X72992380Y-101080000D01*
X72944761Y-100984761D01*
X72897142Y-100937142D01*
X72801904Y-100889523D01*
X71992380Y-100889523D01*
X72992380Y-99889523D02*
X72992380Y-100460952D01*
X72992380Y-100175238D02*
X71992380Y-100175238D01*
X72135238Y-100270476D01*
X72230476Y-100365714D01*
X72278095Y-100460952D01*
X40538095Y-41802380D02*
X40538095Y-42611904D01*
X40585714Y-42707142D01*
X40633333Y-42754761D01*
X40728571Y-42802380D01*
X40919047Y-42802380D01*
X41014285Y-42754761D01*
X41061904Y-42707142D01*
X41109523Y-42611904D01*
X41109523Y-41802380D01*
X42109523Y-42802380D02*
X41538095Y-42802380D01*
X41823809Y-42802380D02*
X41823809Y-41802380D01*
X41728571Y-41945238D01*
X41633333Y-42040476D01*
X41538095Y-42088095D01*
X48133333Y-42957142D02*
X48085714Y-43004761D01*
X47942857Y-43052380D01*
X47847619Y-43052380D01*
X47704761Y-43004761D01*
X47609523Y-42909523D01*
X47561904Y-42814285D01*
X47514285Y-42623809D01*
X47514285Y-42480952D01*
X47561904Y-42290476D01*
X47609523Y-42195238D01*
X47704761Y-42100000D01*
X47847619Y-42052380D01*
X47942857Y-42052380D01*
X48085714Y-42100000D01*
X48133333Y-42147619D01*
X48466666Y-42052380D02*
X49133333Y-42052380D01*
X48704761Y-43052380D01*
X39852380Y-92066666D02*
X39376190Y-92400000D01*
X39852380Y-92638095D02*
X38852380Y-92638095D01*
X38852380Y-92257142D01*
X38900000Y-92161904D01*
X38947619Y-92114285D01*
X39042857Y-92066666D01*
X39185714Y-92066666D01*
X39280952Y-92114285D01*
X39328571Y-92161904D01*
X39376190Y-92257142D01*
X39376190Y-92638095D01*
X39852380Y-91590476D02*
X39852380Y-91400000D01*
X39804761Y-91304761D01*
X39757142Y-91257142D01*
X39614285Y-91161904D01*
X39423809Y-91114285D01*
X39042857Y-91114285D01*
X38947619Y-91161904D01*
X38900000Y-91209523D01*
X38852380Y-91304761D01*
X38852380Y-91495238D01*
X38900000Y-91590476D01*
X38947619Y-91638095D01*
X39042857Y-91685714D01*
X39280952Y-91685714D01*
X39376190Y-91638095D01*
X39423809Y-91590476D01*
X39471428Y-91495238D01*
X39471428Y-91304761D01*
X39423809Y-91209523D01*
X39376190Y-91161904D01*
X39280952Y-91114285D01*
X41602380Y-79142857D02*
X41126190Y-79476190D01*
X41602380Y-79714285D02*
X40602380Y-79714285D01*
X40602380Y-79333333D01*
X40650000Y-79238095D01*
X40697619Y-79190476D01*
X40792857Y-79142857D01*
X40935714Y-79142857D01*
X41030952Y-79190476D01*
X41078571Y-79238095D01*
X41126190Y-79333333D01*
X41126190Y-79714285D01*
X41602380Y-78190476D02*
X41602380Y-78761904D01*
X41602380Y-78476190D02*
X40602380Y-78476190D01*
X40745238Y-78571428D01*
X40840476Y-78666666D01*
X40888095Y-78761904D01*
X40602380Y-77571428D02*
X40602380Y-77476190D01*
X40650000Y-77380952D01*
X40697619Y-77333333D01*
X40792857Y-77285714D01*
X40983333Y-77238095D01*
X41221428Y-77238095D01*
X41411904Y-77285714D01*
X41507142Y-77333333D01*
X41554761Y-77380952D01*
X41602380Y-77476190D01*
X41602380Y-77571428D01*
X41554761Y-77666666D01*
X41507142Y-77714285D01*
X41411904Y-77761904D01*
X41221428Y-77809523D01*
X40983333Y-77809523D01*
X40792857Y-77761904D01*
X40697619Y-77714285D01*
X40650000Y-77666666D01*
X40602380Y-77571428D01*
X39852380Y-90242857D02*
X39376190Y-90576190D01*
X39852380Y-90814285D02*
X38852380Y-90814285D01*
X38852380Y-90433333D01*
X38900000Y-90338095D01*
X38947619Y-90290476D01*
X39042857Y-90242857D01*
X39185714Y-90242857D01*
X39280952Y-90290476D01*
X39328571Y-90338095D01*
X39376190Y-90433333D01*
X39376190Y-90814285D01*
X39852380Y-89290476D02*
X39852380Y-89861904D01*
X39852380Y-89576190D02*
X38852380Y-89576190D01*
X38995238Y-89671428D01*
X39090476Y-89766666D01*
X39138095Y-89861904D01*
X39852380Y-88338095D02*
X39852380Y-88909523D01*
X39852380Y-88623809D02*
X38852380Y-88623809D01*
X38995238Y-88719047D01*
X39090476Y-88814285D01*
X39138095Y-88909523D01*
X37688095Y-50552380D02*
X37688095Y-51361904D01*
X37735714Y-51457142D01*
X37783333Y-51504761D01*
X37878571Y-51552380D01*
X38069047Y-51552380D01*
X38164285Y-51504761D01*
X38211904Y-51457142D01*
X38259523Y-51361904D01*
X38259523Y-50552380D01*
X39164285Y-50552380D02*
X38973809Y-50552380D01*
X38878571Y-50600000D01*
X38830952Y-50647619D01*
X38735714Y-50790476D01*
X38688095Y-50980952D01*
X38688095Y-51361904D01*
X38735714Y-51457142D01*
X38783333Y-51504761D01*
X38878571Y-51552380D01*
X39069047Y-51552380D01*
X39164285Y-51504761D01*
X39211904Y-51457142D01*
X39259523Y-51361904D01*
X39259523Y-51123809D01*
X39211904Y-51028571D01*
X39164285Y-50980952D01*
X39069047Y-50933333D01*
X38878571Y-50933333D01*
X38783333Y-50980952D01*
X38735714Y-51028571D01*
X38688095Y-51123809D01*
X32788095Y-50552380D02*
X32788095Y-51361904D01*
X32835714Y-51457142D01*
X32883333Y-51504761D01*
X32978571Y-51552380D01*
X33169047Y-51552380D01*
X33264285Y-51504761D01*
X33311904Y-51457142D01*
X33359523Y-51361904D01*
X33359523Y-50552380D01*
X33740476Y-50552380D02*
X34407142Y-50552380D01*
X33978571Y-51552380D01*
X24252380Y-98383333D02*
X24966666Y-98383333D01*
X25109523Y-98430952D01*
X25204761Y-98526190D01*
X25252380Y-98669047D01*
X25252380Y-98764285D01*
X24585714Y-97478571D02*
X25252380Y-97478571D01*
X24204761Y-97716666D02*
X24919047Y-97954761D01*
X24919047Y-97335714D01*
X26234380Y-47933333D02*
X26948666Y-47933333D01*
X27091523Y-47980952D01*
X27186761Y-48076190D01*
X27234380Y-48219047D01*
X27234380Y-48314285D01*
X26234380Y-47552380D02*
X26234380Y-46933333D01*
X26615333Y-47266666D01*
X26615333Y-47123809D01*
X26662952Y-47028571D01*
X26710571Y-46980952D01*
X26805809Y-46933333D01*
X27043904Y-46933333D01*
X27139142Y-46980952D01*
X27186761Y-47028571D01*
X27234380Y-47123809D01*
X27234380Y-47409523D01*
X27186761Y-47504761D01*
X27139142Y-47552380D01*
M02*
