G04 #@! TF.GenerationSoftware,KiCad,Pcbnew,(5.1.12)-1*
G04 #@! TF.CreationDate,2022-05-19T17:30:52+12:00*
G04 #@! TF.ProjectId,comprgb,636f6d70-7267-4622-9e6b-696361645f70,rev?*
G04 #@! TF.SameCoordinates,Original*
G04 #@! TF.FileFunction,Soldermask,Bot*
G04 #@! TF.FilePolarity,Negative*
%FSLAX46Y46*%
G04 Gerber Fmt 4.6, Leading zero omitted, Abs format (unit mm)*
G04 Created by KiCad (PCBNEW (5.1.12)-1) date 2022-05-19 17:30:52*
%MOMM*%
%LPD*%
G01*
G04 APERTURE LIST*
%ADD10C,4.602000*%
%ADD11C,1.702000*%
%ADD12C,2.102000*%
%ADD13C,2.402000*%
%ADD14O,4.102000X3.102000*%
%ADD15O,3.102000X4.102000*%
%ADD16O,2.602000X2.602000*%
%ADD17O,1.802000X1.802000*%
%ADD18C,2.302000*%
%ADD19O,3.102000X3.102000*%
%ADD20C,4.102000*%
%ADD21O,1.802000X1.202000*%
G04 APERTURE END LIST*
D10*
X24600000Y-61620000D03*
X24600000Y-86620000D03*
D11*
X22060000Y-69280000D03*
X22060000Y-71570000D03*
X22060000Y-73860000D03*
X22060000Y-76150000D03*
X22060000Y-78440000D03*
X24600000Y-77290000D03*
X24600000Y-79580000D03*
X27140000Y-69280000D03*
X27140000Y-71570000D03*
X27140000Y-73860000D03*
X27140000Y-76150000D03*
X27140000Y-78440000D03*
X24600000Y-70420000D03*
X24600000Y-72710000D03*
X24600000Y-75000000D03*
D12*
X61800000Y-54500000D03*
X61800000Y-69500000D03*
D13*
X69144520Y-72533380D03*
X69144520Y-51466620D03*
D14*
X61500000Y-47000000D03*
X61500000Y-77000000D03*
D15*
X66000000Y-77000000D03*
X66000000Y-62000000D03*
X66000000Y-47000000D03*
D16*
X66000000Y-42200000D03*
X66000000Y-81800000D03*
D14*
X61500000Y-62000000D03*
D17*
X46200000Y-58880000D03*
X46200000Y-56340000D03*
G36*
G01*
X45299000Y-54650000D02*
X45299000Y-52950000D01*
G75*
G02*
X45350000Y-52899000I51000J0D01*
G01*
X47050000Y-52899000D01*
G75*
G02*
X47101000Y-52950000I0J-51000D01*
G01*
X47101000Y-54650000D01*
G75*
G02*
X47050000Y-54701000I-51000J0D01*
G01*
X45350000Y-54701000D01*
G75*
G02*
X45299000Y-54650000I0J51000D01*
G01*
G37*
D18*
X69150000Y-86350000D03*
X69150000Y-94850000D03*
D19*
X66000000Y-90600000D03*
X61500000Y-90600000D03*
D18*
X69150000Y-99370000D03*
X69150000Y-107870000D03*
D19*
X66000000Y-103620000D03*
X61500000Y-103620000D03*
D18*
X34480000Y-99905000D03*
X34480000Y-61805000D03*
X29400000Y-67520000D03*
X34480000Y-65615000D03*
X29400000Y-71330000D03*
X34480000Y-69425000D03*
X29400000Y-75140000D03*
X34480000Y-73235000D03*
X29400000Y-63710000D03*
X34480000Y-77045000D03*
X29400000Y-78950000D03*
X34480000Y-80855000D03*
X29400000Y-82760000D03*
X34480000Y-84665000D03*
X29400000Y-86570000D03*
X34480000Y-88475000D03*
X29400000Y-90380000D03*
X34480000Y-92285000D03*
X29400000Y-94190000D03*
X34480000Y-96095000D03*
X29400000Y-98000000D03*
D20*
X27200000Y-55000000D03*
X27200000Y-107270000D03*
D21*
X24800000Y-43280000D03*
X24800000Y-51920000D03*
X21000000Y-51920000D03*
X21000000Y-43280000D03*
M02*
