G04 #@! TF.GenerationSoftware,KiCad,Pcbnew,(5.1.12)-1*
G04 #@! TF.CreationDate,2022-05-19T17:30:52+12:00*
G04 #@! TF.ProjectId,comprgb,636f6d70-7267-4622-9e6b-696361645f70,rev?*
G04 #@! TF.SameCoordinates,Original*
G04 #@! TF.FileFunction,Soldermask,Top*
G04 #@! TF.FilePolarity,Negative*
%FSLAX46Y46*%
G04 Gerber Fmt 4.6, Leading zero omitted, Abs format (unit mm)*
G04 Created by KiCad (PCBNEW (5.1.12)-1) date 2022-05-19 17:30:52*
%MOMM*%
%LPD*%
G01*
G04 APERTURE LIST*
%ADD10C,4.602000*%
%ADD11C,1.702000*%
%ADD12C,2.102000*%
%ADD13C,2.402000*%
%ADD14O,4.102000X3.102000*%
%ADD15O,3.102000X4.102000*%
%ADD16O,2.602000X2.602000*%
%ADD17O,1.802000X1.802000*%
%ADD18C,2.302000*%
%ADD19O,3.102000X3.102000*%
%ADD20C,4.102000*%
%ADD21O,1.802000X1.202000*%
%ADD22C,0.100000*%
G04 APERTURE END LIST*
G36*
G01*
X45924500Y-86974000D02*
X46175500Y-86974000D01*
G75*
G02*
X46301000Y-87099500I0J-125500D01*
G01*
X46301000Y-88425500D01*
G75*
G02*
X46175500Y-88551000I-125500J0D01*
G01*
X45924500Y-88551000D01*
G75*
G02*
X45799000Y-88425500I0J125500D01*
G01*
X45799000Y-87099500D01*
G75*
G02*
X45924500Y-86974000I125500J0D01*
G01*
G37*
G36*
G01*
X45274500Y-86974000D02*
X45525500Y-86974000D01*
G75*
G02*
X45651000Y-87099500I0J-125500D01*
G01*
X45651000Y-88425500D01*
G75*
G02*
X45525500Y-88551000I-125500J0D01*
G01*
X45274500Y-88551000D01*
G75*
G02*
X45149000Y-88425500I0J125500D01*
G01*
X45149000Y-87099500D01*
G75*
G02*
X45274500Y-86974000I125500J0D01*
G01*
G37*
G36*
G01*
X44624500Y-86974000D02*
X44875500Y-86974000D01*
G75*
G02*
X45001000Y-87099500I0J-125500D01*
G01*
X45001000Y-88425500D01*
G75*
G02*
X44875500Y-88551000I-125500J0D01*
G01*
X44624500Y-88551000D01*
G75*
G02*
X44499000Y-88425500I0J125500D01*
G01*
X44499000Y-87099500D01*
G75*
G02*
X44624500Y-86974000I125500J0D01*
G01*
G37*
G36*
G01*
X43974500Y-86974000D02*
X44225500Y-86974000D01*
G75*
G02*
X44351000Y-87099500I0J-125500D01*
G01*
X44351000Y-88425500D01*
G75*
G02*
X44225500Y-88551000I-125500J0D01*
G01*
X43974500Y-88551000D01*
G75*
G02*
X43849000Y-88425500I0J125500D01*
G01*
X43849000Y-87099500D01*
G75*
G02*
X43974500Y-86974000I125500J0D01*
G01*
G37*
G36*
G01*
X43324500Y-86974000D02*
X43575500Y-86974000D01*
G75*
G02*
X43701000Y-87099500I0J-125500D01*
G01*
X43701000Y-88425500D01*
G75*
G02*
X43575500Y-88551000I-125500J0D01*
G01*
X43324500Y-88551000D01*
G75*
G02*
X43199000Y-88425500I0J125500D01*
G01*
X43199000Y-87099500D01*
G75*
G02*
X43324500Y-86974000I125500J0D01*
G01*
G37*
G36*
G01*
X42674500Y-86974000D02*
X42925500Y-86974000D01*
G75*
G02*
X43051000Y-87099500I0J-125500D01*
G01*
X43051000Y-88425500D01*
G75*
G02*
X42925500Y-88551000I-125500J0D01*
G01*
X42674500Y-88551000D01*
G75*
G02*
X42549000Y-88425500I0J125500D01*
G01*
X42549000Y-87099500D01*
G75*
G02*
X42674500Y-86974000I125500J0D01*
G01*
G37*
G36*
G01*
X42024500Y-86974000D02*
X42275500Y-86974000D01*
G75*
G02*
X42401000Y-87099500I0J-125500D01*
G01*
X42401000Y-88425500D01*
G75*
G02*
X42275500Y-88551000I-125500J0D01*
G01*
X42024500Y-88551000D01*
G75*
G02*
X41899000Y-88425500I0J125500D01*
G01*
X41899000Y-87099500D01*
G75*
G02*
X42024500Y-86974000I125500J0D01*
G01*
G37*
G36*
G01*
X42024500Y-81249000D02*
X42275500Y-81249000D01*
G75*
G02*
X42401000Y-81374500I0J-125500D01*
G01*
X42401000Y-82700500D01*
G75*
G02*
X42275500Y-82826000I-125500J0D01*
G01*
X42024500Y-82826000D01*
G75*
G02*
X41899000Y-82700500I0J125500D01*
G01*
X41899000Y-81374500D01*
G75*
G02*
X42024500Y-81249000I125500J0D01*
G01*
G37*
G36*
G01*
X42674500Y-81249000D02*
X42925500Y-81249000D01*
G75*
G02*
X43051000Y-81374500I0J-125500D01*
G01*
X43051000Y-82700500D01*
G75*
G02*
X42925500Y-82826000I-125500J0D01*
G01*
X42674500Y-82826000D01*
G75*
G02*
X42549000Y-82700500I0J125500D01*
G01*
X42549000Y-81374500D01*
G75*
G02*
X42674500Y-81249000I125500J0D01*
G01*
G37*
G36*
G01*
X43324500Y-81249000D02*
X43575500Y-81249000D01*
G75*
G02*
X43701000Y-81374500I0J-125500D01*
G01*
X43701000Y-82700500D01*
G75*
G02*
X43575500Y-82826000I-125500J0D01*
G01*
X43324500Y-82826000D01*
G75*
G02*
X43199000Y-82700500I0J125500D01*
G01*
X43199000Y-81374500D01*
G75*
G02*
X43324500Y-81249000I125500J0D01*
G01*
G37*
G36*
G01*
X43974500Y-81249000D02*
X44225500Y-81249000D01*
G75*
G02*
X44351000Y-81374500I0J-125500D01*
G01*
X44351000Y-82700500D01*
G75*
G02*
X44225500Y-82826000I-125500J0D01*
G01*
X43974500Y-82826000D01*
G75*
G02*
X43849000Y-82700500I0J125500D01*
G01*
X43849000Y-81374500D01*
G75*
G02*
X43974500Y-81249000I125500J0D01*
G01*
G37*
G36*
G01*
X44624500Y-81249000D02*
X44875500Y-81249000D01*
G75*
G02*
X45001000Y-81374500I0J-125500D01*
G01*
X45001000Y-82700500D01*
G75*
G02*
X44875500Y-82826000I-125500J0D01*
G01*
X44624500Y-82826000D01*
G75*
G02*
X44499000Y-82700500I0J125500D01*
G01*
X44499000Y-81374500D01*
G75*
G02*
X44624500Y-81249000I125500J0D01*
G01*
G37*
G36*
G01*
X45274500Y-81249000D02*
X45525500Y-81249000D01*
G75*
G02*
X45651000Y-81374500I0J-125500D01*
G01*
X45651000Y-82700500D01*
G75*
G02*
X45525500Y-82826000I-125500J0D01*
G01*
X45274500Y-82826000D01*
G75*
G02*
X45149000Y-82700500I0J125500D01*
G01*
X45149000Y-81374500D01*
G75*
G02*
X45274500Y-81249000I125500J0D01*
G01*
G37*
G36*
G01*
X45924500Y-81249000D02*
X46175500Y-81249000D01*
G75*
G02*
X46301000Y-81374500I0J-125500D01*
G01*
X46301000Y-82700500D01*
G75*
G02*
X46175500Y-82826000I-125500J0D01*
G01*
X45924500Y-82826000D01*
G75*
G02*
X45799000Y-82700500I0J125500D01*
G01*
X45799000Y-81374500D01*
G75*
G02*
X45924500Y-81249000I125500J0D01*
G01*
G37*
G36*
G01*
X57559000Y-45631124D02*
X57559000Y-44678876D01*
G75*
G02*
X57833876Y-44404000I274876J0D01*
G01*
X58411124Y-44404000D01*
G75*
G02*
X58686000Y-44678876I0J-274876D01*
G01*
X58686000Y-45631124D01*
G75*
G02*
X58411124Y-45906000I-274876J0D01*
G01*
X57833876Y-45906000D01*
G75*
G02*
X57559000Y-45631124I0J274876D01*
G01*
G37*
G36*
G01*
X55734000Y-45631124D02*
X55734000Y-44678876D01*
G75*
G02*
X56008876Y-44404000I274876J0D01*
G01*
X56586124Y-44404000D01*
G75*
G02*
X56861000Y-44678876I0J-274876D01*
G01*
X56861000Y-45631124D01*
G75*
G02*
X56586124Y-45906000I-274876J0D01*
G01*
X56008876Y-45906000D01*
G75*
G02*
X55734000Y-45631124I0J274876D01*
G01*
G37*
G36*
G01*
X57649000Y-43631750D02*
X57649000Y-42668250D01*
G75*
G02*
X57918250Y-42399000I269250J0D01*
G01*
X58456750Y-42399000D01*
G75*
G02*
X58726000Y-42668250I0J-269250D01*
G01*
X58726000Y-43631750D01*
G75*
G02*
X58456750Y-43901000I-269250J0D01*
G01*
X57918250Y-43901000D01*
G75*
G02*
X57649000Y-43631750I0J269250D01*
G01*
G37*
G36*
G01*
X55774000Y-43631750D02*
X55774000Y-42668250D01*
G75*
G02*
X56043250Y-42399000I269250J0D01*
G01*
X56581750Y-42399000D01*
G75*
G02*
X56851000Y-42668250I0J-269250D01*
G01*
X56851000Y-43631750D01*
G75*
G02*
X56581750Y-43901000I-269250J0D01*
G01*
X56043250Y-43901000D01*
G75*
G02*
X55774000Y-43631750I0J269250D01*
G01*
G37*
G36*
G01*
X37523875Y-64759000D02*
X38476125Y-64759000D01*
G75*
G02*
X38751000Y-65033875I0J-274875D01*
G01*
X38751000Y-65611125D01*
G75*
G02*
X38476125Y-65886000I-274875J0D01*
G01*
X37523875Y-65886000D01*
G75*
G02*
X37249000Y-65611125I0J274875D01*
G01*
X37249000Y-65033875D01*
G75*
G02*
X37523875Y-64759000I274875J0D01*
G01*
G37*
G36*
G01*
X37523875Y-62934000D02*
X38476125Y-62934000D01*
G75*
G02*
X38751000Y-63208875I0J-274875D01*
G01*
X38751000Y-63786125D01*
G75*
G02*
X38476125Y-64061000I-274875J0D01*
G01*
X37523875Y-64061000D01*
G75*
G02*
X37249000Y-63786125I0J274875D01*
G01*
X37249000Y-63208875D01*
G75*
G02*
X37523875Y-62934000I274875J0D01*
G01*
G37*
G36*
G01*
X37523875Y-60349000D02*
X38476125Y-60349000D01*
G75*
G02*
X38751000Y-60623875I0J-274875D01*
G01*
X38751000Y-61201125D01*
G75*
G02*
X38476125Y-61476000I-274875J0D01*
G01*
X37523875Y-61476000D01*
G75*
G02*
X37249000Y-61201125I0J274875D01*
G01*
X37249000Y-60623875D01*
G75*
G02*
X37523875Y-60349000I274875J0D01*
G01*
G37*
G36*
G01*
X37523875Y-58524000D02*
X38476125Y-58524000D01*
G75*
G02*
X38751000Y-58798875I0J-274875D01*
G01*
X38751000Y-59376125D01*
G75*
G02*
X38476125Y-59651000I-274875J0D01*
G01*
X37523875Y-59651000D01*
G75*
G02*
X37249000Y-59376125I0J274875D01*
G01*
X37249000Y-58798875D01*
G75*
G02*
X37523875Y-58524000I274875J0D01*
G01*
G37*
D10*
X24600000Y-61620000D03*
X24600000Y-86620000D03*
D11*
X22060000Y-69280000D03*
X22060000Y-71570000D03*
X22060000Y-73860000D03*
X22060000Y-76150000D03*
X22060000Y-78440000D03*
X24600000Y-77290000D03*
X24600000Y-79580000D03*
X27140000Y-69280000D03*
X27140000Y-71570000D03*
X27140000Y-73860000D03*
X27140000Y-76150000D03*
X27140000Y-78440000D03*
X24600000Y-70420000D03*
X24600000Y-72710000D03*
X24600000Y-75000000D03*
G36*
G01*
X51999000Y-62600500D02*
X51999000Y-61599500D01*
G75*
G02*
X52274500Y-61324000I275500J0D01*
G01*
X52825500Y-61324000D01*
G75*
G02*
X53101000Y-61599500I0J-275500D01*
G01*
X53101000Y-62600500D01*
G75*
G02*
X52825500Y-62876000I-275500J0D01*
G01*
X52274500Y-62876000D01*
G75*
G02*
X51999000Y-62600500I0J275500D01*
G01*
G37*
G36*
G01*
X50099000Y-62600500D02*
X50099000Y-61599500D01*
G75*
G02*
X50374500Y-61324000I275500J0D01*
G01*
X50925500Y-61324000D01*
G75*
G02*
X51201000Y-61599500I0J-275500D01*
G01*
X51201000Y-62600500D01*
G75*
G02*
X50925500Y-62876000I-275500J0D01*
G01*
X50374500Y-62876000D01*
G75*
G02*
X50099000Y-62600500I0J275500D01*
G01*
G37*
D12*
X61800000Y-54500000D03*
X61800000Y-69500000D03*
D13*
X69144520Y-72533380D03*
X69144520Y-51466620D03*
D14*
X61500000Y-47000000D03*
X61500000Y-77000000D03*
D15*
X66000000Y-77000000D03*
X66000000Y-62000000D03*
X66000000Y-47000000D03*
D16*
X66000000Y-42200000D03*
X66000000Y-81800000D03*
D14*
X61500000Y-62000000D03*
G36*
G01*
X32426000Y-42893250D02*
X32426000Y-43706750D01*
G75*
G02*
X32181750Y-43951000I-244250J0D01*
G01*
X31693250Y-43951000D01*
G75*
G02*
X31449000Y-43706750I0J244250D01*
G01*
X31449000Y-42893250D01*
G75*
G02*
X31693250Y-42649000I244250J0D01*
G01*
X32181750Y-42649000D01*
G75*
G02*
X32426000Y-42893250I0J-244250D01*
G01*
G37*
G36*
G01*
X34551000Y-42893250D02*
X34551000Y-43706750D01*
G75*
G02*
X34306750Y-43951000I-244250J0D01*
G01*
X33818250Y-43951000D01*
G75*
G02*
X33574000Y-43706750I0J244250D01*
G01*
X33574000Y-42893250D01*
G75*
G02*
X33818250Y-42649000I244250J0D01*
G01*
X34306750Y-42649000D01*
G75*
G02*
X34551000Y-42893250I0J-244250D01*
G01*
G37*
G36*
G01*
X29251000Y-47723875D02*
X29251000Y-48676125D01*
G75*
G02*
X28976125Y-48951000I-274875J0D01*
G01*
X28398875Y-48951000D01*
G75*
G02*
X28124000Y-48676125I0J274875D01*
G01*
X28124000Y-47723875D01*
G75*
G02*
X28398875Y-47449000I274875J0D01*
G01*
X28976125Y-47449000D01*
G75*
G02*
X29251000Y-47723875I0J-274875D01*
G01*
G37*
G36*
G01*
X31076000Y-47723875D02*
X31076000Y-48676125D01*
G75*
G02*
X30801125Y-48951000I-274875J0D01*
G01*
X30223875Y-48951000D01*
G75*
G02*
X29949000Y-48676125I0J274875D01*
G01*
X29949000Y-47723875D01*
G75*
G02*
X30223875Y-47449000I274875J0D01*
G01*
X30801125Y-47449000D01*
G75*
G02*
X31076000Y-47723875I0J-274875D01*
G01*
G37*
G36*
G01*
X29251000Y-45723875D02*
X29251000Y-46676125D01*
G75*
G02*
X28976125Y-46951000I-274875J0D01*
G01*
X28398875Y-46951000D01*
G75*
G02*
X28124000Y-46676125I0J274875D01*
G01*
X28124000Y-45723875D01*
G75*
G02*
X28398875Y-45449000I274875J0D01*
G01*
X28976125Y-45449000D01*
G75*
G02*
X29251000Y-45723875I0J-274875D01*
G01*
G37*
G36*
G01*
X31076000Y-45723875D02*
X31076000Y-46676125D01*
G75*
G02*
X30801125Y-46951000I-274875J0D01*
G01*
X30223875Y-46951000D01*
G75*
G02*
X29949000Y-46676125I0J274875D01*
G01*
X29949000Y-45723875D01*
G75*
G02*
X30223875Y-45449000I274875J0D01*
G01*
X30801125Y-45449000D01*
G75*
G02*
X31076000Y-45723875I0J-274875D01*
G01*
G37*
G36*
G01*
X39651000Y-73523875D02*
X39651000Y-74476125D01*
G75*
G02*
X39376125Y-74751000I-274875J0D01*
G01*
X38798875Y-74751000D01*
G75*
G02*
X38524000Y-74476125I0J274875D01*
G01*
X38524000Y-73523875D01*
G75*
G02*
X38798875Y-73249000I274875J0D01*
G01*
X39376125Y-73249000D01*
G75*
G02*
X39651000Y-73523875I0J-274875D01*
G01*
G37*
G36*
G01*
X41476000Y-73523875D02*
X41476000Y-74476125D01*
G75*
G02*
X41201125Y-74751000I-274875J0D01*
G01*
X40623875Y-74751000D01*
G75*
G02*
X40349000Y-74476125I0J274875D01*
G01*
X40349000Y-73523875D01*
G75*
G02*
X40623875Y-73249000I274875J0D01*
G01*
X41201125Y-73249000D01*
G75*
G02*
X41476000Y-73523875I0J-274875D01*
G01*
G37*
G36*
G01*
X40449000Y-71676125D02*
X40449000Y-70723875D01*
G75*
G02*
X40723875Y-70449000I274875J0D01*
G01*
X41301125Y-70449000D01*
G75*
G02*
X41576000Y-70723875I0J-274875D01*
G01*
X41576000Y-71676125D01*
G75*
G02*
X41301125Y-71951000I-274875J0D01*
G01*
X40723875Y-71951000D01*
G75*
G02*
X40449000Y-71676125I0J274875D01*
G01*
G37*
G36*
G01*
X38624000Y-71676125D02*
X38624000Y-70723875D01*
G75*
G02*
X38898875Y-70449000I274875J0D01*
G01*
X39476125Y-70449000D01*
G75*
G02*
X39751000Y-70723875I0J-274875D01*
G01*
X39751000Y-71676125D01*
G75*
G02*
X39476125Y-71951000I-274875J0D01*
G01*
X38898875Y-71951000D01*
G75*
G02*
X38624000Y-71676125I0J274875D01*
G01*
G37*
G36*
G01*
X56176125Y-71651000D02*
X55223875Y-71651000D01*
G75*
G02*
X54949000Y-71376125I0J274875D01*
G01*
X54949000Y-70798875D01*
G75*
G02*
X55223875Y-70524000I274875J0D01*
G01*
X56176125Y-70524000D01*
G75*
G02*
X56451000Y-70798875I0J-274875D01*
G01*
X56451000Y-71376125D01*
G75*
G02*
X56176125Y-71651000I-274875J0D01*
G01*
G37*
G36*
G01*
X56176125Y-73476000D02*
X55223875Y-73476000D01*
G75*
G02*
X54949000Y-73201125I0J274875D01*
G01*
X54949000Y-72623875D01*
G75*
G02*
X55223875Y-72349000I274875J0D01*
G01*
X56176125Y-72349000D01*
G75*
G02*
X56451000Y-72623875I0J-274875D01*
G01*
X56451000Y-73201125D01*
G75*
G02*
X56176125Y-73476000I-274875J0D01*
G01*
G37*
G36*
G01*
X57223875Y-48349000D02*
X58176125Y-48349000D01*
G75*
G02*
X58451000Y-48623875I0J-274875D01*
G01*
X58451000Y-49201125D01*
G75*
G02*
X58176125Y-49476000I-274875J0D01*
G01*
X57223875Y-49476000D01*
G75*
G02*
X56949000Y-49201125I0J274875D01*
G01*
X56949000Y-48623875D01*
G75*
G02*
X57223875Y-48349000I274875J0D01*
G01*
G37*
G36*
G01*
X57223875Y-46524000D02*
X58176125Y-46524000D01*
G75*
G02*
X58451000Y-46798875I0J-274875D01*
G01*
X58451000Y-47376125D01*
G75*
G02*
X58176125Y-47651000I-274875J0D01*
G01*
X57223875Y-47651000D01*
G75*
G02*
X56949000Y-47376125I0J274875D01*
G01*
X56949000Y-46798875D01*
G75*
G02*
X57223875Y-46524000I274875J0D01*
G01*
G37*
G36*
G01*
X58576125Y-58751000D02*
X57623875Y-58751000D01*
G75*
G02*
X57349000Y-58476125I0J274875D01*
G01*
X57349000Y-57898875D01*
G75*
G02*
X57623875Y-57624000I274875J0D01*
G01*
X58576125Y-57624000D01*
G75*
G02*
X58851000Y-57898875I0J-274875D01*
G01*
X58851000Y-58476125D01*
G75*
G02*
X58576125Y-58751000I-274875J0D01*
G01*
G37*
G36*
G01*
X58576125Y-60576000D02*
X57623875Y-60576000D01*
G75*
G02*
X57349000Y-60301125I0J274875D01*
G01*
X57349000Y-59723875D01*
G75*
G02*
X57623875Y-59449000I274875J0D01*
G01*
X58576125Y-59449000D01*
G75*
G02*
X58851000Y-59723875I0J-274875D01*
G01*
X58851000Y-60301125D01*
G75*
G02*
X58576125Y-60576000I-274875J0D01*
G01*
G37*
G36*
G01*
X57523875Y-76517000D02*
X58476125Y-76517000D01*
G75*
G02*
X58751000Y-76791875I0J-274875D01*
G01*
X58751000Y-77369125D01*
G75*
G02*
X58476125Y-77644000I-274875J0D01*
G01*
X57523875Y-77644000D01*
G75*
G02*
X57249000Y-77369125I0J274875D01*
G01*
X57249000Y-76791875D01*
G75*
G02*
X57523875Y-76517000I274875J0D01*
G01*
G37*
G36*
G01*
X57523875Y-78342000D02*
X58476125Y-78342000D01*
G75*
G02*
X58751000Y-78616875I0J-274875D01*
G01*
X58751000Y-79194125D01*
G75*
G02*
X58476125Y-79469000I-274875J0D01*
G01*
X57523875Y-79469000D01*
G75*
G02*
X57249000Y-79194125I0J274875D01*
G01*
X57249000Y-78616875D01*
G75*
G02*
X57523875Y-78342000I274875J0D01*
G01*
G37*
G36*
G01*
X40451000Y-47123875D02*
X40451000Y-48076125D01*
G75*
G02*
X40176125Y-48351000I-274875J0D01*
G01*
X39598875Y-48351000D01*
G75*
G02*
X39324000Y-48076125I0J274875D01*
G01*
X39324000Y-47123875D01*
G75*
G02*
X39598875Y-46849000I274875J0D01*
G01*
X40176125Y-46849000D01*
G75*
G02*
X40451000Y-47123875I0J-274875D01*
G01*
G37*
G36*
G01*
X42276000Y-47123875D02*
X42276000Y-48076125D01*
G75*
G02*
X42001125Y-48351000I-274875J0D01*
G01*
X41423875Y-48351000D01*
G75*
G02*
X41149000Y-48076125I0J274875D01*
G01*
X41149000Y-47123875D01*
G75*
G02*
X41423875Y-46849000I274875J0D01*
G01*
X42001125Y-46849000D01*
G75*
G02*
X42276000Y-47123875I0J-274875D01*
G01*
G37*
G36*
G01*
X44251000Y-47123875D02*
X44251000Y-48076125D01*
G75*
G02*
X43976125Y-48351000I-274875J0D01*
G01*
X43398875Y-48351000D01*
G75*
G02*
X43124000Y-48076125I0J274875D01*
G01*
X43124000Y-47123875D01*
G75*
G02*
X43398875Y-46849000I274875J0D01*
G01*
X43976125Y-46849000D01*
G75*
G02*
X44251000Y-47123875I0J-274875D01*
G01*
G37*
G36*
G01*
X46076000Y-47123875D02*
X46076000Y-48076125D01*
G75*
G02*
X45801125Y-48351000I-274875J0D01*
G01*
X45223875Y-48351000D01*
G75*
G02*
X44949000Y-48076125I0J274875D01*
G01*
X44949000Y-47123875D01*
G75*
G02*
X45223875Y-46849000I274875J0D01*
G01*
X45801125Y-46849000D01*
G75*
G02*
X46076000Y-47123875I0J-274875D01*
G01*
G37*
G36*
G01*
X55199500Y-76499000D02*
X56200500Y-76499000D01*
G75*
G02*
X56476000Y-76774500I0J-275500D01*
G01*
X56476000Y-77325500D01*
G75*
G02*
X56200500Y-77601000I-275500J0D01*
G01*
X55199500Y-77601000D01*
G75*
G02*
X54924000Y-77325500I0J275500D01*
G01*
X54924000Y-76774500D01*
G75*
G02*
X55199500Y-76499000I275500J0D01*
G01*
G37*
G36*
G01*
X55199500Y-74599000D02*
X56200500Y-74599000D01*
G75*
G02*
X56476000Y-74874500I0J-275500D01*
G01*
X56476000Y-75425500D01*
G75*
G02*
X56200500Y-75701000I-275500J0D01*
G01*
X55199500Y-75701000D01*
G75*
G02*
X54924000Y-75425500I0J275500D01*
G01*
X54924000Y-74874500D01*
G75*
G02*
X55199500Y-74599000I275500J0D01*
G01*
G37*
G36*
G01*
X48500500Y-84601000D02*
X47499500Y-84601000D01*
G75*
G02*
X47224000Y-84325500I0J275500D01*
G01*
X47224000Y-83774500D01*
G75*
G02*
X47499500Y-83499000I275500J0D01*
G01*
X48500500Y-83499000D01*
G75*
G02*
X48776000Y-83774500I0J-275500D01*
G01*
X48776000Y-84325500D01*
G75*
G02*
X48500500Y-84601000I-275500J0D01*
G01*
G37*
G36*
G01*
X48500500Y-86501000D02*
X47499500Y-86501000D01*
G75*
G02*
X47224000Y-86225500I0J275500D01*
G01*
X47224000Y-85674500D01*
G75*
G02*
X47499500Y-85399000I275500J0D01*
G01*
X48500500Y-85399000D01*
G75*
G02*
X48776000Y-85674500I0J-275500D01*
G01*
X48776000Y-86225500D01*
G75*
G02*
X48500500Y-86501000I-275500J0D01*
G01*
G37*
G36*
G01*
X44500500Y-66601000D02*
X43499500Y-66601000D01*
G75*
G02*
X43224000Y-66325500I0J275500D01*
G01*
X43224000Y-65774500D01*
G75*
G02*
X43499500Y-65499000I275500J0D01*
G01*
X44500500Y-65499000D01*
G75*
G02*
X44776000Y-65774500I0J-275500D01*
G01*
X44776000Y-66325500D01*
G75*
G02*
X44500500Y-66601000I-275500J0D01*
G01*
G37*
G36*
G01*
X44500500Y-68501000D02*
X43499500Y-68501000D01*
G75*
G02*
X43224000Y-68225500I0J275500D01*
G01*
X43224000Y-67674500D01*
G75*
G02*
X43499500Y-67399000I275500J0D01*
G01*
X44500500Y-67399000D01*
G75*
G02*
X44776000Y-67674500I0J-275500D01*
G01*
X44776000Y-68225500D01*
G75*
G02*
X44500500Y-68501000I-275500J0D01*
G01*
G37*
G36*
G01*
X38501000Y-52199500D02*
X38501000Y-53200500D01*
G75*
G02*
X38225500Y-53476000I-275500J0D01*
G01*
X37674500Y-53476000D01*
G75*
G02*
X37399000Y-53200500I0J275500D01*
G01*
X37399000Y-52199500D01*
G75*
G02*
X37674500Y-51924000I275500J0D01*
G01*
X38225500Y-51924000D01*
G75*
G02*
X38501000Y-52199500I0J-275500D01*
G01*
G37*
G36*
G01*
X40401000Y-52199500D02*
X40401000Y-53200500D01*
G75*
G02*
X40125500Y-53476000I-275500J0D01*
G01*
X39574500Y-53476000D01*
G75*
G02*
X39299000Y-53200500I0J275500D01*
G01*
X39299000Y-52199500D01*
G75*
G02*
X39574500Y-51924000I275500J0D01*
G01*
X40125500Y-51924000D01*
G75*
G02*
X40401000Y-52199500I0J-275500D01*
G01*
G37*
G36*
G01*
X44201000Y-49099500D02*
X44201000Y-50100500D01*
G75*
G02*
X43925500Y-50376000I-275500J0D01*
G01*
X43374500Y-50376000D01*
G75*
G02*
X43099000Y-50100500I0J275500D01*
G01*
X43099000Y-49099500D01*
G75*
G02*
X43374500Y-48824000I275500J0D01*
G01*
X43925500Y-48824000D01*
G75*
G02*
X44201000Y-49099500I0J-275500D01*
G01*
G37*
G36*
G01*
X46101000Y-49099500D02*
X46101000Y-50100500D01*
G75*
G02*
X45825500Y-50376000I-275500J0D01*
G01*
X45274500Y-50376000D01*
G75*
G02*
X44999000Y-50100500I0J275500D01*
G01*
X44999000Y-49099500D01*
G75*
G02*
X45274500Y-48824000I275500J0D01*
G01*
X45825500Y-48824000D01*
G75*
G02*
X46101000Y-49099500I0J-275500D01*
G01*
G37*
G36*
G01*
X38999500Y-44799000D02*
X40000500Y-44799000D01*
G75*
G02*
X40276000Y-45074500I0J-275500D01*
G01*
X40276000Y-45625500D01*
G75*
G02*
X40000500Y-45901000I-275500J0D01*
G01*
X38999500Y-45901000D01*
G75*
G02*
X38724000Y-45625500I0J275500D01*
G01*
X38724000Y-45074500D01*
G75*
G02*
X38999500Y-44799000I275500J0D01*
G01*
G37*
G36*
G01*
X38999500Y-42899000D02*
X40000500Y-42899000D01*
G75*
G02*
X40276000Y-43174500I0J-275500D01*
G01*
X40276000Y-43725500D01*
G75*
G02*
X40000500Y-44001000I-275500J0D01*
G01*
X38999500Y-44001000D01*
G75*
G02*
X38724000Y-43725500I0J275500D01*
G01*
X38724000Y-43174500D01*
G75*
G02*
X38999500Y-42899000I275500J0D01*
G01*
G37*
G36*
G01*
X42499500Y-75899000D02*
X43500500Y-75899000D01*
G75*
G02*
X43776000Y-76174500I0J-275500D01*
G01*
X43776000Y-76725500D01*
G75*
G02*
X43500500Y-77001000I-275500J0D01*
G01*
X42499500Y-77001000D01*
G75*
G02*
X42224000Y-76725500I0J275500D01*
G01*
X42224000Y-76174500D01*
G75*
G02*
X42499500Y-75899000I275500J0D01*
G01*
G37*
G36*
G01*
X42499500Y-73999000D02*
X43500500Y-73999000D01*
G75*
G02*
X43776000Y-74274500I0J-275500D01*
G01*
X43776000Y-74825500D01*
G75*
G02*
X43500500Y-75101000I-275500J0D01*
G01*
X42499500Y-75101000D01*
G75*
G02*
X42224000Y-74825500I0J275500D01*
G01*
X42224000Y-74274500D01*
G75*
G02*
X42499500Y-73999000I275500J0D01*
G01*
G37*
G36*
G01*
X44499500Y-75899000D02*
X45500500Y-75899000D01*
G75*
G02*
X45776000Y-76174500I0J-275500D01*
G01*
X45776000Y-76725500D01*
G75*
G02*
X45500500Y-77001000I-275500J0D01*
G01*
X44499500Y-77001000D01*
G75*
G02*
X44224000Y-76725500I0J275500D01*
G01*
X44224000Y-76174500D01*
G75*
G02*
X44499500Y-75899000I275500J0D01*
G01*
G37*
G36*
G01*
X44499500Y-73999000D02*
X45500500Y-73999000D01*
G75*
G02*
X45776000Y-74274500I0J-275500D01*
G01*
X45776000Y-74825500D01*
G75*
G02*
X45500500Y-75101000I-275500J0D01*
G01*
X44499500Y-75101000D01*
G75*
G02*
X44224000Y-74825500I0J275500D01*
G01*
X44224000Y-74274500D01*
G75*
G02*
X44499500Y-73999000I275500J0D01*
G01*
G37*
G36*
G01*
X46499500Y-75899000D02*
X47500500Y-75899000D01*
G75*
G02*
X47776000Y-76174500I0J-275500D01*
G01*
X47776000Y-76725500D01*
G75*
G02*
X47500500Y-77001000I-275500J0D01*
G01*
X46499500Y-77001000D01*
G75*
G02*
X46224000Y-76725500I0J275500D01*
G01*
X46224000Y-76174500D01*
G75*
G02*
X46499500Y-75899000I275500J0D01*
G01*
G37*
G36*
G01*
X46499500Y-73999000D02*
X47500500Y-73999000D01*
G75*
G02*
X47776000Y-74274500I0J-275500D01*
G01*
X47776000Y-74825500D01*
G75*
G02*
X47500500Y-75101000I-275500J0D01*
G01*
X46499500Y-75101000D01*
G75*
G02*
X46224000Y-74825500I0J275500D01*
G01*
X46224000Y-74274500D01*
G75*
G02*
X46499500Y-73999000I275500J0D01*
G01*
G37*
G36*
G01*
X52800500Y-58701000D02*
X51799500Y-58701000D01*
G75*
G02*
X51524000Y-58425500I0J275500D01*
G01*
X51524000Y-57874500D01*
G75*
G02*
X51799500Y-57599000I275500J0D01*
G01*
X52800500Y-57599000D01*
G75*
G02*
X53076000Y-57874500I0J-275500D01*
G01*
X53076000Y-58425500D01*
G75*
G02*
X52800500Y-58701000I-275500J0D01*
G01*
G37*
G36*
G01*
X52800500Y-60601000D02*
X51799500Y-60601000D01*
G75*
G02*
X51524000Y-60325500I0J275500D01*
G01*
X51524000Y-59774500D01*
G75*
G02*
X51799500Y-59499000I275500J0D01*
G01*
X52800500Y-59499000D01*
G75*
G02*
X53076000Y-59774500I0J-275500D01*
G01*
X53076000Y-60325500D01*
G75*
G02*
X52800500Y-60601000I-275500J0D01*
G01*
G37*
G36*
G01*
X58600500Y-62701000D02*
X57599500Y-62701000D01*
G75*
G02*
X57324000Y-62425500I0J275500D01*
G01*
X57324000Y-61874500D01*
G75*
G02*
X57599500Y-61599000I275500J0D01*
G01*
X58600500Y-61599000D01*
G75*
G02*
X58876000Y-61874500I0J-275500D01*
G01*
X58876000Y-62425500D01*
G75*
G02*
X58600500Y-62701000I-275500J0D01*
G01*
G37*
G36*
G01*
X58600500Y-64601000D02*
X57599500Y-64601000D01*
G75*
G02*
X57324000Y-64325500I0J275500D01*
G01*
X57324000Y-63774500D01*
G75*
G02*
X57599500Y-63499000I275500J0D01*
G01*
X58600500Y-63499000D01*
G75*
G02*
X58876000Y-63774500I0J-275500D01*
G01*
X58876000Y-64325500D01*
G75*
G02*
X58600500Y-64601000I-275500J0D01*
G01*
G37*
G36*
G01*
X57499500Y-72499000D02*
X58500500Y-72499000D01*
G75*
G02*
X58776000Y-72774500I0J-275500D01*
G01*
X58776000Y-73325500D01*
G75*
G02*
X58500500Y-73601000I-275500J0D01*
G01*
X57499500Y-73601000D01*
G75*
G02*
X57224000Y-73325500I0J275500D01*
G01*
X57224000Y-72774500D01*
G75*
G02*
X57499500Y-72499000I275500J0D01*
G01*
G37*
G36*
G01*
X57499500Y-74399000D02*
X58500500Y-74399000D01*
G75*
G02*
X58776000Y-74674500I0J-275500D01*
G01*
X58776000Y-75225500D01*
G75*
G02*
X58500500Y-75501000I-275500J0D01*
G01*
X57499500Y-75501000D01*
G75*
G02*
X57224000Y-75225500I0J275500D01*
G01*
X57224000Y-74674500D01*
G75*
G02*
X57499500Y-74399000I275500J0D01*
G01*
G37*
D17*
X46200000Y-58880000D03*
X46200000Y-56340000D03*
G36*
G01*
X45299000Y-54650000D02*
X45299000Y-52950000D01*
G75*
G02*
X45350000Y-52899000I51000J0D01*
G01*
X47050000Y-52899000D01*
G75*
G02*
X47101000Y-52950000I0J-51000D01*
G01*
X47101000Y-54650000D01*
G75*
G02*
X47050000Y-54701000I-51000J0D01*
G01*
X45350000Y-54701000D01*
G75*
G02*
X45299000Y-54650000I0J51000D01*
G01*
G37*
G36*
G01*
X52875000Y-69249000D02*
X53275000Y-69249000D01*
G75*
G02*
X53326000Y-69300000I0J-51000D01*
G01*
X53326000Y-70400000D01*
G75*
G02*
X53275000Y-70451000I-51000J0D01*
G01*
X52875000Y-70451000D01*
G75*
G02*
X52824000Y-70400000I0J51000D01*
G01*
X52824000Y-69300000D01*
G75*
G02*
X52875000Y-69249000I51000J0D01*
G01*
G37*
G36*
G01*
X52225000Y-69249000D02*
X52625000Y-69249000D01*
G75*
G02*
X52676000Y-69300000I0J-51000D01*
G01*
X52676000Y-70400000D01*
G75*
G02*
X52625000Y-70451000I-51000J0D01*
G01*
X52225000Y-70451000D01*
G75*
G02*
X52174000Y-70400000I0J51000D01*
G01*
X52174000Y-69300000D01*
G75*
G02*
X52225000Y-69249000I51000J0D01*
G01*
G37*
G36*
G01*
X51575000Y-69249000D02*
X51975000Y-69249000D01*
G75*
G02*
X52026000Y-69300000I0J-51000D01*
G01*
X52026000Y-70400000D01*
G75*
G02*
X51975000Y-70451000I-51000J0D01*
G01*
X51575000Y-70451000D01*
G75*
G02*
X51524000Y-70400000I0J51000D01*
G01*
X51524000Y-69300000D01*
G75*
G02*
X51575000Y-69249000I51000J0D01*
G01*
G37*
G36*
G01*
X50925000Y-69249000D02*
X51325000Y-69249000D01*
G75*
G02*
X51376000Y-69300000I0J-51000D01*
G01*
X51376000Y-70400000D01*
G75*
G02*
X51325000Y-70451000I-51000J0D01*
G01*
X50925000Y-70451000D01*
G75*
G02*
X50874000Y-70400000I0J51000D01*
G01*
X50874000Y-69300000D01*
G75*
G02*
X50925000Y-69249000I51000J0D01*
G01*
G37*
G36*
G01*
X50275000Y-69249000D02*
X50675000Y-69249000D01*
G75*
G02*
X50726000Y-69300000I0J-51000D01*
G01*
X50726000Y-70400000D01*
G75*
G02*
X50675000Y-70451000I-51000J0D01*
G01*
X50275000Y-70451000D01*
G75*
G02*
X50224000Y-70400000I0J51000D01*
G01*
X50224000Y-69300000D01*
G75*
G02*
X50275000Y-69249000I51000J0D01*
G01*
G37*
G36*
G01*
X49625000Y-69249000D02*
X50025000Y-69249000D01*
G75*
G02*
X50076000Y-69300000I0J-51000D01*
G01*
X50076000Y-70400000D01*
G75*
G02*
X50025000Y-70451000I-51000J0D01*
G01*
X49625000Y-70451000D01*
G75*
G02*
X49574000Y-70400000I0J51000D01*
G01*
X49574000Y-69300000D01*
G75*
G02*
X49625000Y-69249000I51000J0D01*
G01*
G37*
G36*
G01*
X48975000Y-69249000D02*
X49375000Y-69249000D01*
G75*
G02*
X49426000Y-69300000I0J-51000D01*
G01*
X49426000Y-70400000D01*
G75*
G02*
X49375000Y-70451000I-51000J0D01*
G01*
X48975000Y-70451000D01*
G75*
G02*
X48924000Y-70400000I0J51000D01*
G01*
X48924000Y-69300000D01*
G75*
G02*
X48975000Y-69249000I51000J0D01*
G01*
G37*
G36*
G01*
X48325000Y-69249000D02*
X48725000Y-69249000D01*
G75*
G02*
X48776000Y-69300000I0J-51000D01*
G01*
X48776000Y-70400000D01*
G75*
G02*
X48725000Y-70451000I-51000J0D01*
G01*
X48325000Y-70451000D01*
G75*
G02*
X48274000Y-70400000I0J51000D01*
G01*
X48274000Y-69300000D01*
G75*
G02*
X48325000Y-69249000I51000J0D01*
G01*
G37*
G36*
G01*
X47675000Y-69249000D02*
X48075000Y-69249000D01*
G75*
G02*
X48126000Y-69300000I0J-51000D01*
G01*
X48126000Y-70400000D01*
G75*
G02*
X48075000Y-70451000I-51000J0D01*
G01*
X47675000Y-70451000D01*
G75*
G02*
X47624000Y-70400000I0J51000D01*
G01*
X47624000Y-69300000D01*
G75*
G02*
X47675000Y-69249000I51000J0D01*
G01*
G37*
G36*
G01*
X47025000Y-69249000D02*
X47425000Y-69249000D01*
G75*
G02*
X47476000Y-69300000I0J-51000D01*
G01*
X47476000Y-70400000D01*
G75*
G02*
X47425000Y-70451000I-51000J0D01*
G01*
X47025000Y-70451000D01*
G75*
G02*
X46974000Y-70400000I0J51000D01*
G01*
X46974000Y-69300000D01*
G75*
G02*
X47025000Y-69249000I51000J0D01*
G01*
G37*
G36*
G01*
X46375000Y-69249000D02*
X46775000Y-69249000D01*
G75*
G02*
X46826000Y-69300000I0J-51000D01*
G01*
X46826000Y-70400000D01*
G75*
G02*
X46775000Y-70451000I-51000J0D01*
G01*
X46375000Y-70451000D01*
G75*
G02*
X46324000Y-70400000I0J51000D01*
G01*
X46324000Y-69300000D01*
G75*
G02*
X46375000Y-69249000I51000J0D01*
G01*
G37*
G36*
G01*
X45725000Y-69249000D02*
X46125000Y-69249000D01*
G75*
G02*
X46176000Y-69300000I0J-51000D01*
G01*
X46176000Y-70400000D01*
G75*
G02*
X46125000Y-70451000I-51000J0D01*
G01*
X45725000Y-70451000D01*
G75*
G02*
X45674000Y-70400000I0J51000D01*
G01*
X45674000Y-69300000D01*
G75*
G02*
X45725000Y-69249000I51000J0D01*
G01*
G37*
G36*
G01*
X45725000Y-63549000D02*
X46125000Y-63549000D01*
G75*
G02*
X46176000Y-63600000I0J-51000D01*
G01*
X46176000Y-64700000D01*
G75*
G02*
X46125000Y-64751000I-51000J0D01*
G01*
X45725000Y-64751000D01*
G75*
G02*
X45674000Y-64700000I0J51000D01*
G01*
X45674000Y-63600000D01*
G75*
G02*
X45725000Y-63549000I51000J0D01*
G01*
G37*
G36*
G01*
X46375000Y-63549000D02*
X46775000Y-63549000D01*
G75*
G02*
X46826000Y-63600000I0J-51000D01*
G01*
X46826000Y-64700000D01*
G75*
G02*
X46775000Y-64751000I-51000J0D01*
G01*
X46375000Y-64751000D01*
G75*
G02*
X46324000Y-64700000I0J51000D01*
G01*
X46324000Y-63600000D01*
G75*
G02*
X46375000Y-63549000I51000J0D01*
G01*
G37*
G36*
G01*
X47025000Y-63549000D02*
X47425000Y-63549000D01*
G75*
G02*
X47476000Y-63600000I0J-51000D01*
G01*
X47476000Y-64700000D01*
G75*
G02*
X47425000Y-64751000I-51000J0D01*
G01*
X47025000Y-64751000D01*
G75*
G02*
X46974000Y-64700000I0J51000D01*
G01*
X46974000Y-63600000D01*
G75*
G02*
X47025000Y-63549000I51000J0D01*
G01*
G37*
G36*
G01*
X47675000Y-63549000D02*
X48075000Y-63549000D01*
G75*
G02*
X48126000Y-63600000I0J-51000D01*
G01*
X48126000Y-64700000D01*
G75*
G02*
X48075000Y-64751000I-51000J0D01*
G01*
X47675000Y-64751000D01*
G75*
G02*
X47624000Y-64700000I0J51000D01*
G01*
X47624000Y-63600000D01*
G75*
G02*
X47675000Y-63549000I51000J0D01*
G01*
G37*
G36*
G01*
X48325000Y-63549000D02*
X48725000Y-63549000D01*
G75*
G02*
X48776000Y-63600000I0J-51000D01*
G01*
X48776000Y-64700000D01*
G75*
G02*
X48725000Y-64751000I-51000J0D01*
G01*
X48325000Y-64751000D01*
G75*
G02*
X48274000Y-64700000I0J51000D01*
G01*
X48274000Y-63600000D01*
G75*
G02*
X48325000Y-63549000I51000J0D01*
G01*
G37*
G36*
G01*
X48975000Y-63549000D02*
X49375000Y-63549000D01*
G75*
G02*
X49426000Y-63600000I0J-51000D01*
G01*
X49426000Y-64700000D01*
G75*
G02*
X49375000Y-64751000I-51000J0D01*
G01*
X48975000Y-64751000D01*
G75*
G02*
X48924000Y-64700000I0J51000D01*
G01*
X48924000Y-63600000D01*
G75*
G02*
X48975000Y-63549000I51000J0D01*
G01*
G37*
G36*
G01*
X49625000Y-63549000D02*
X50025000Y-63549000D01*
G75*
G02*
X50076000Y-63600000I0J-51000D01*
G01*
X50076000Y-64700000D01*
G75*
G02*
X50025000Y-64751000I-51000J0D01*
G01*
X49625000Y-64751000D01*
G75*
G02*
X49574000Y-64700000I0J51000D01*
G01*
X49574000Y-63600000D01*
G75*
G02*
X49625000Y-63549000I51000J0D01*
G01*
G37*
G36*
G01*
X50275000Y-63549000D02*
X50675000Y-63549000D01*
G75*
G02*
X50726000Y-63600000I0J-51000D01*
G01*
X50726000Y-64700000D01*
G75*
G02*
X50675000Y-64751000I-51000J0D01*
G01*
X50275000Y-64751000D01*
G75*
G02*
X50224000Y-64700000I0J51000D01*
G01*
X50224000Y-63600000D01*
G75*
G02*
X50275000Y-63549000I51000J0D01*
G01*
G37*
G36*
G01*
X50925000Y-63549000D02*
X51325000Y-63549000D01*
G75*
G02*
X51376000Y-63600000I0J-51000D01*
G01*
X51376000Y-64700000D01*
G75*
G02*
X51325000Y-64751000I-51000J0D01*
G01*
X50925000Y-64751000D01*
G75*
G02*
X50874000Y-64700000I0J51000D01*
G01*
X50874000Y-63600000D01*
G75*
G02*
X50925000Y-63549000I51000J0D01*
G01*
G37*
G36*
G01*
X51575000Y-63549000D02*
X51975000Y-63549000D01*
G75*
G02*
X52026000Y-63600000I0J-51000D01*
G01*
X52026000Y-64700000D01*
G75*
G02*
X51975000Y-64751000I-51000J0D01*
G01*
X51575000Y-64751000D01*
G75*
G02*
X51524000Y-64700000I0J51000D01*
G01*
X51524000Y-63600000D01*
G75*
G02*
X51575000Y-63549000I51000J0D01*
G01*
G37*
G36*
G01*
X52225000Y-63549000D02*
X52625000Y-63549000D01*
G75*
G02*
X52676000Y-63600000I0J-51000D01*
G01*
X52676000Y-64700000D01*
G75*
G02*
X52625000Y-64751000I-51000J0D01*
G01*
X52225000Y-64751000D01*
G75*
G02*
X52174000Y-64700000I0J51000D01*
G01*
X52174000Y-63600000D01*
G75*
G02*
X52225000Y-63549000I51000J0D01*
G01*
G37*
G36*
G01*
X52875000Y-63549000D02*
X53275000Y-63549000D01*
G75*
G02*
X53326000Y-63600000I0J-51000D01*
G01*
X53326000Y-64700000D01*
G75*
G02*
X53275000Y-64751000I-51000J0D01*
G01*
X52875000Y-64751000D01*
G75*
G02*
X52824000Y-64700000I0J51000D01*
G01*
X52824000Y-63600000D01*
G75*
G02*
X52875000Y-63549000I51000J0D01*
G01*
G37*
D18*
X69150000Y-86350000D03*
X69150000Y-94850000D03*
D19*
X66000000Y-90600000D03*
X61500000Y-90600000D03*
D18*
X69150000Y-99370000D03*
X69150000Y-107870000D03*
D19*
X66000000Y-103620000D03*
X61500000Y-103620000D03*
G36*
G01*
X43146000Y-43943000D02*
X42346000Y-43943000D01*
G75*
G02*
X42295000Y-43892000I0J51000D01*
G01*
X42295000Y-42992000D01*
G75*
G02*
X42346000Y-42941000I51000J0D01*
G01*
X43146000Y-42941000D01*
G75*
G02*
X43197000Y-42992000I0J-51000D01*
G01*
X43197000Y-43892000D01*
G75*
G02*
X43146000Y-43943000I-51000J0D01*
G01*
G37*
G36*
G01*
X44096000Y-45943000D02*
X43296000Y-45943000D01*
G75*
G02*
X43245000Y-45892000I0J51000D01*
G01*
X43245000Y-44992000D01*
G75*
G02*
X43296000Y-44941000I51000J0D01*
G01*
X44096000Y-44941000D01*
G75*
G02*
X44147000Y-44992000I0J-51000D01*
G01*
X44147000Y-45892000D01*
G75*
G02*
X44096000Y-45943000I-51000J0D01*
G01*
G37*
G36*
G01*
X42196000Y-45943000D02*
X41396000Y-45943000D01*
G75*
G02*
X41345000Y-45892000I0J51000D01*
G01*
X41345000Y-44992000D01*
G75*
G02*
X41396000Y-44941000I51000J0D01*
G01*
X42196000Y-44941000D01*
G75*
G02*
X42247000Y-44992000I0J-51000D01*
G01*
X42247000Y-45892000D01*
G75*
G02*
X42196000Y-45943000I-51000J0D01*
G01*
G37*
G36*
G01*
X51585063Y-45801000D02*
X50414937Y-45801000D01*
G75*
G02*
X50149000Y-45535063I0J265937D01*
G01*
X50149000Y-42464937D01*
G75*
G02*
X50414937Y-42199000I265937J0D01*
G01*
X51585063Y-42199000D01*
G75*
G02*
X51851000Y-42464937I0J-265937D01*
G01*
X51851000Y-45535063D01*
G75*
G02*
X51585063Y-45801000I-265937J0D01*
G01*
G37*
G36*
G01*
X51585063Y-51201000D02*
X50414937Y-51201000D01*
G75*
G02*
X50149000Y-50935063I0J265937D01*
G01*
X50149000Y-47864937D01*
G75*
G02*
X50414937Y-47599000I265937J0D01*
G01*
X51585063Y-47599000D01*
G75*
G02*
X51851000Y-47864937I0J-265937D01*
G01*
X51851000Y-50935063D01*
G75*
G02*
X51585063Y-51201000I-265937J0D01*
G01*
G37*
G36*
G01*
X39981750Y-86101000D02*
X39018250Y-86101000D01*
G75*
G02*
X38749000Y-85831750I0J269250D01*
G01*
X38749000Y-85293250D01*
G75*
G02*
X39018250Y-85024000I269250J0D01*
G01*
X39981750Y-85024000D01*
G75*
G02*
X40251000Y-85293250I0J-269250D01*
G01*
X40251000Y-85831750D01*
G75*
G02*
X39981750Y-86101000I-269250J0D01*
G01*
G37*
G36*
G01*
X39981750Y-87976000D02*
X39018250Y-87976000D01*
G75*
G02*
X38749000Y-87706750I0J269250D01*
G01*
X38749000Y-87168250D01*
G75*
G02*
X39018250Y-86899000I269250J0D01*
G01*
X39981750Y-86899000D01*
G75*
G02*
X40251000Y-87168250I0J-269250D01*
G01*
X40251000Y-87706750D01*
G75*
G02*
X39981750Y-87976000I-269250J0D01*
G01*
G37*
G36*
G01*
X39018250Y-78899000D02*
X39981750Y-78899000D01*
G75*
G02*
X40251000Y-79168250I0J-269250D01*
G01*
X40251000Y-79706750D01*
G75*
G02*
X39981750Y-79976000I-269250J0D01*
G01*
X39018250Y-79976000D01*
G75*
G02*
X38749000Y-79706750I0J269250D01*
G01*
X38749000Y-79168250D01*
G75*
G02*
X39018250Y-78899000I269250J0D01*
G01*
G37*
G36*
G01*
X39018250Y-77024000D02*
X39981750Y-77024000D01*
G75*
G02*
X40251000Y-77293250I0J-269250D01*
G01*
X40251000Y-77831750D01*
G75*
G02*
X39981750Y-78101000I-269250J0D01*
G01*
X39018250Y-78101000D01*
G75*
G02*
X38749000Y-77831750I0J269250D01*
G01*
X38749000Y-77293250D01*
G75*
G02*
X39018250Y-77024000I269250J0D01*
G01*
G37*
G36*
G01*
X39018250Y-82899000D02*
X39981750Y-82899000D01*
G75*
G02*
X40251000Y-83168250I0J-269250D01*
G01*
X40251000Y-83706750D01*
G75*
G02*
X39981750Y-83976000I-269250J0D01*
G01*
X39018250Y-83976000D01*
G75*
G02*
X38749000Y-83706750I0J269250D01*
G01*
X38749000Y-83168250D01*
G75*
G02*
X39018250Y-82899000I269250J0D01*
G01*
G37*
G36*
G01*
X39018250Y-81024000D02*
X39981750Y-81024000D01*
G75*
G02*
X40251000Y-81293250I0J-269250D01*
G01*
X40251000Y-81831750D01*
G75*
G02*
X39981750Y-82101000I-269250J0D01*
G01*
X39018250Y-82101000D01*
G75*
G02*
X38749000Y-81831750I0J269250D01*
G01*
X38749000Y-81293250D01*
G75*
G02*
X39018250Y-81024000I269250J0D01*
G01*
G37*
G36*
G01*
X39149000Y-54875001D02*
X39149000Y-54224999D01*
G75*
G02*
X39199999Y-54174000I50999J0D01*
G01*
X40420001Y-54174000D01*
G75*
G02*
X40471000Y-54224999I0J-50999D01*
G01*
X40471000Y-54875001D01*
G75*
G02*
X40420001Y-54926000I-50999J0D01*
G01*
X39199999Y-54926000D01*
G75*
G02*
X39149000Y-54875001I0J50999D01*
G01*
G37*
G36*
G01*
X39149000Y-56775001D02*
X39149000Y-56124999D01*
G75*
G02*
X39199999Y-56074000I50999J0D01*
G01*
X40420001Y-56074000D01*
G75*
G02*
X40471000Y-56124999I0J-50999D01*
G01*
X40471000Y-56775001D01*
G75*
G02*
X40420001Y-56826000I-50999J0D01*
G01*
X39199999Y-56826000D01*
G75*
G02*
X39149000Y-56775001I0J50999D01*
G01*
G37*
G36*
G01*
X36529000Y-56775001D02*
X36529000Y-56124999D01*
G75*
G02*
X36579999Y-56074000I50999J0D01*
G01*
X37800001Y-56074000D01*
G75*
G02*
X37851000Y-56124999I0J-50999D01*
G01*
X37851000Y-56775001D01*
G75*
G02*
X37800001Y-56826000I-50999J0D01*
G01*
X36579999Y-56826000D01*
G75*
G02*
X36529000Y-56775001I0J50999D01*
G01*
G37*
G36*
G01*
X36529000Y-55825001D02*
X36529000Y-55174999D01*
G75*
G02*
X36579999Y-55124000I50999J0D01*
G01*
X37800001Y-55124000D01*
G75*
G02*
X37851000Y-55174999I0J-50999D01*
G01*
X37851000Y-55825001D01*
G75*
G02*
X37800001Y-55876000I-50999J0D01*
G01*
X36579999Y-55876000D01*
G75*
G02*
X36529000Y-55825001I0J50999D01*
G01*
G37*
G36*
G01*
X36529000Y-54875001D02*
X36529000Y-54224999D01*
G75*
G02*
X36579999Y-54174000I50999J0D01*
G01*
X37800001Y-54174000D01*
G75*
G02*
X37851000Y-54224999I0J-50999D01*
G01*
X37851000Y-54875001D01*
G75*
G02*
X37800001Y-54926000I-50999J0D01*
G01*
X36579999Y-54926000D01*
G75*
G02*
X36529000Y-54875001I0J50999D01*
G01*
G37*
G36*
G01*
X34149000Y-54875001D02*
X34149000Y-54224999D01*
G75*
G02*
X34199999Y-54174000I50999J0D01*
G01*
X35420001Y-54174000D01*
G75*
G02*
X35471000Y-54224999I0J-50999D01*
G01*
X35471000Y-54875001D01*
G75*
G02*
X35420001Y-54926000I-50999J0D01*
G01*
X34199999Y-54926000D01*
G75*
G02*
X34149000Y-54875001I0J50999D01*
G01*
G37*
G36*
G01*
X34149000Y-56775001D02*
X34149000Y-56124999D01*
G75*
G02*
X34199999Y-56074000I50999J0D01*
G01*
X35420001Y-56074000D01*
G75*
G02*
X35471000Y-56124999I0J-50999D01*
G01*
X35471000Y-56775001D01*
G75*
G02*
X35420001Y-56826000I-50999J0D01*
G01*
X34199999Y-56826000D01*
G75*
G02*
X34149000Y-56775001I0J50999D01*
G01*
G37*
G36*
G01*
X31529000Y-56775001D02*
X31529000Y-56124999D01*
G75*
G02*
X31579999Y-56074000I50999J0D01*
G01*
X32800001Y-56074000D01*
G75*
G02*
X32851000Y-56124999I0J-50999D01*
G01*
X32851000Y-56775001D01*
G75*
G02*
X32800001Y-56826000I-50999J0D01*
G01*
X31579999Y-56826000D01*
G75*
G02*
X31529000Y-56775001I0J50999D01*
G01*
G37*
G36*
G01*
X31529000Y-55825001D02*
X31529000Y-55174999D01*
G75*
G02*
X31579999Y-55124000I50999J0D01*
G01*
X32800001Y-55124000D01*
G75*
G02*
X32851000Y-55174999I0J-50999D01*
G01*
X32851000Y-55825001D01*
G75*
G02*
X32800001Y-55876000I-50999J0D01*
G01*
X31579999Y-55876000D01*
G75*
G02*
X31529000Y-55825001I0J50999D01*
G01*
G37*
G36*
G01*
X31529000Y-54875001D02*
X31529000Y-54224999D01*
G75*
G02*
X31579999Y-54174000I50999J0D01*
G01*
X32800001Y-54174000D01*
G75*
G02*
X32851000Y-54224999I0J-50999D01*
G01*
X32851000Y-54875001D01*
G75*
G02*
X32800001Y-54926000I-50999J0D01*
G01*
X31579999Y-54926000D01*
G75*
G02*
X31529000Y-54875001I0J50999D01*
G01*
G37*
D18*
X34480000Y-99905000D03*
X34480000Y-61805000D03*
X29400000Y-67520000D03*
X34480000Y-65615000D03*
X29400000Y-71330000D03*
X34480000Y-69425000D03*
X29400000Y-75140000D03*
X34480000Y-73235000D03*
X29400000Y-63710000D03*
X34480000Y-77045000D03*
X29400000Y-78950000D03*
X34480000Y-80855000D03*
X29400000Y-82760000D03*
X34480000Y-84665000D03*
X29400000Y-86570000D03*
X34480000Y-88475000D03*
X29400000Y-90380000D03*
X34480000Y-92285000D03*
X29400000Y-94190000D03*
X34480000Y-96095000D03*
X29400000Y-98000000D03*
D20*
X27200000Y-55000000D03*
X27200000Y-107270000D03*
D21*
X24800000Y-43280000D03*
X24800000Y-51920000D03*
X21000000Y-51920000D03*
G36*
G01*
X25550000Y-45301000D02*
X24350000Y-45301000D01*
G75*
G02*
X24299000Y-45250000I0J51000D01*
G01*
X24299000Y-44450000D01*
G75*
G02*
X24350000Y-44399000I51000J0D01*
G01*
X25550000Y-44399000D01*
G75*
G02*
X25601000Y-44450000I0J-51000D01*
G01*
X25601000Y-45250000D01*
G75*
G02*
X25550000Y-45301000I-51000J0D01*
G01*
G37*
G36*
G01*
X25550000Y-46511000D02*
X24350000Y-46511000D01*
G75*
G02*
X24299000Y-46460000I0J51000D01*
G01*
X24299000Y-45700000D01*
G75*
G02*
X24350000Y-45649000I51000J0D01*
G01*
X25550000Y-45649000D01*
G75*
G02*
X25601000Y-45700000I0J-51000D01*
G01*
X25601000Y-46460000D01*
G75*
G02*
X25550000Y-46511000I-51000J0D01*
G01*
G37*
G36*
G01*
X25550001Y-48501000D02*
X24349999Y-48501000D01*
G75*
G02*
X24299000Y-48450001I0J50999D01*
G01*
X24299000Y-47749999D01*
G75*
G02*
X24349999Y-47699000I50999J0D01*
G01*
X25550001Y-47699000D01*
G75*
G02*
X25601000Y-47749999I0J-50999D01*
G01*
X25601000Y-48450001D01*
G75*
G02*
X25550001Y-48501000I-50999J0D01*
G01*
G37*
X21000000Y-43280000D03*
G36*
G01*
X25550000Y-49551000D02*
X24350000Y-49551000D01*
G75*
G02*
X24299000Y-49500000I0J51000D01*
G01*
X24299000Y-48740000D01*
G75*
G02*
X24350000Y-48689000I51000J0D01*
G01*
X25550000Y-48689000D01*
G75*
G02*
X25601000Y-48740000I0J-51000D01*
G01*
X25601000Y-49500000D01*
G75*
G02*
X25550000Y-49551000I-51000J0D01*
G01*
G37*
G36*
G01*
X25550000Y-50801000D02*
X24350000Y-50801000D01*
G75*
G02*
X24299000Y-50750000I0J51000D01*
G01*
X24299000Y-49950000D01*
G75*
G02*
X24350000Y-49899000I51000J0D01*
G01*
X25550000Y-49899000D01*
G75*
G02*
X25601000Y-49950000I0J-51000D01*
G01*
X25601000Y-50750000D01*
G75*
G02*
X25550000Y-50801000I-51000J0D01*
G01*
G37*
G36*
G01*
X25550001Y-47501000D02*
X24349999Y-47501000D01*
G75*
G02*
X24299000Y-47450001I0J50999D01*
G01*
X24299000Y-46749999D01*
G75*
G02*
X24349999Y-46699000I50999J0D01*
G01*
X25550001Y-46699000D01*
G75*
G02*
X25601000Y-46749999I0J-50999D01*
G01*
X25601000Y-47450001D01*
G75*
G02*
X25550001Y-47501000I-50999J0D01*
G01*
G37*
D22*
G36*
X43632058Y-86972010D02*
G01*
X43650366Y-86973813D01*
X43650751Y-86973889D01*
X43662456Y-86977440D01*
X43662818Y-86977590D01*
X43673608Y-86983357D01*
X43673934Y-86983575D01*
X43687957Y-86995084D01*
X43688102Y-86995216D01*
X43696978Y-87004091D01*
X43717025Y-87017486D01*
X43739299Y-87026711D01*
X43762950Y-87031415D01*
X43787056Y-87031415D01*
X43810706Y-87026710D01*
X43832979Y-87017483D01*
X43853027Y-87004088D01*
X43861903Y-86995212D01*
X43862048Y-86995080D01*
X43876066Y-86983575D01*
X43876392Y-86983357D01*
X43887182Y-86977590D01*
X43887544Y-86977440D01*
X43899249Y-86973889D01*
X43899634Y-86973813D01*
X43917942Y-86972010D01*
X43918138Y-86972000D01*
X43974500Y-86972000D01*
X43976232Y-86973000D01*
X43976232Y-86975000D01*
X43974696Y-86975990D01*
X43950411Y-86978381D01*
X43927242Y-86985410D01*
X43905892Y-86996822D01*
X43887179Y-87012179D01*
X43871822Y-87030892D01*
X43860410Y-87052242D01*
X43853381Y-87075411D01*
X43851000Y-87099594D01*
X43851000Y-88425406D01*
X43853381Y-88449589D01*
X43860410Y-88472758D01*
X43871822Y-88494108D01*
X43887179Y-88512821D01*
X43905892Y-88528178D01*
X43927242Y-88539590D01*
X43950411Y-88546619D01*
X43974696Y-88549010D01*
X43976322Y-88550175D01*
X43976126Y-88552165D01*
X43974500Y-88553000D01*
X43918138Y-88553000D01*
X43917942Y-88552990D01*
X43899634Y-88551187D01*
X43899249Y-88551111D01*
X43887544Y-88547560D01*
X43887182Y-88547410D01*
X43876392Y-88541643D01*
X43876066Y-88541425D01*
X43862043Y-88529916D01*
X43861898Y-88529784D01*
X43853022Y-88520909D01*
X43832975Y-88507514D01*
X43810701Y-88498289D01*
X43787050Y-88493585D01*
X43762944Y-88493585D01*
X43739294Y-88498290D01*
X43717021Y-88507517D01*
X43696973Y-88520912D01*
X43688097Y-88529788D01*
X43687952Y-88529920D01*
X43673934Y-88541425D01*
X43673608Y-88541643D01*
X43662818Y-88547410D01*
X43662456Y-88547560D01*
X43650751Y-88551111D01*
X43650366Y-88551187D01*
X43632058Y-88552990D01*
X43631862Y-88553000D01*
X43575500Y-88553000D01*
X43573768Y-88552000D01*
X43573768Y-88550000D01*
X43575304Y-88549010D01*
X43599589Y-88546619D01*
X43622758Y-88539590D01*
X43644108Y-88528178D01*
X43662821Y-88512821D01*
X43678178Y-88494108D01*
X43689590Y-88472758D01*
X43696619Y-88449589D01*
X43699000Y-88425406D01*
X43699000Y-87099594D01*
X43696619Y-87075411D01*
X43689590Y-87052242D01*
X43678178Y-87030892D01*
X43662821Y-87012179D01*
X43644108Y-86996822D01*
X43622758Y-86985410D01*
X43599589Y-86978381D01*
X43575304Y-86975990D01*
X43573678Y-86974825D01*
X43573874Y-86972835D01*
X43575500Y-86972000D01*
X43631862Y-86972000D01*
X43632058Y-86972010D01*
G37*
G36*
X44282058Y-86972010D02*
G01*
X44300366Y-86973813D01*
X44300751Y-86973889D01*
X44312456Y-86977440D01*
X44312818Y-86977590D01*
X44323608Y-86983357D01*
X44323934Y-86983575D01*
X44337957Y-86995084D01*
X44338102Y-86995216D01*
X44346978Y-87004091D01*
X44367025Y-87017486D01*
X44389299Y-87026711D01*
X44412950Y-87031415D01*
X44437056Y-87031415D01*
X44460706Y-87026710D01*
X44482979Y-87017483D01*
X44503027Y-87004088D01*
X44511903Y-86995212D01*
X44512048Y-86995080D01*
X44526066Y-86983575D01*
X44526392Y-86983357D01*
X44537182Y-86977590D01*
X44537544Y-86977440D01*
X44549249Y-86973889D01*
X44549634Y-86973813D01*
X44567942Y-86972010D01*
X44568138Y-86972000D01*
X44624500Y-86972000D01*
X44626232Y-86973000D01*
X44626232Y-86975000D01*
X44624696Y-86975990D01*
X44600411Y-86978381D01*
X44577242Y-86985410D01*
X44555892Y-86996822D01*
X44537179Y-87012179D01*
X44521822Y-87030892D01*
X44510410Y-87052242D01*
X44503381Y-87075411D01*
X44501000Y-87099594D01*
X44501000Y-88425406D01*
X44503381Y-88449589D01*
X44510410Y-88472758D01*
X44521822Y-88494108D01*
X44537179Y-88512821D01*
X44555892Y-88528178D01*
X44577242Y-88539590D01*
X44600411Y-88546619D01*
X44624696Y-88549010D01*
X44626322Y-88550175D01*
X44626126Y-88552165D01*
X44624500Y-88553000D01*
X44568138Y-88553000D01*
X44567942Y-88552990D01*
X44549634Y-88551187D01*
X44549249Y-88551111D01*
X44537544Y-88547560D01*
X44537182Y-88547410D01*
X44526392Y-88541643D01*
X44526066Y-88541425D01*
X44512043Y-88529916D01*
X44511898Y-88529784D01*
X44503022Y-88520909D01*
X44482975Y-88507514D01*
X44460701Y-88498289D01*
X44437050Y-88493585D01*
X44412944Y-88493585D01*
X44389294Y-88498290D01*
X44367021Y-88507517D01*
X44346973Y-88520912D01*
X44338097Y-88529788D01*
X44337952Y-88529920D01*
X44323934Y-88541425D01*
X44323608Y-88541643D01*
X44312818Y-88547410D01*
X44312456Y-88547560D01*
X44300751Y-88551111D01*
X44300366Y-88551187D01*
X44282058Y-88552990D01*
X44281862Y-88553000D01*
X44225500Y-88553000D01*
X44223768Y-88552000D01*
X44223768Y-88550000D01*
X44225304Y-88549010D01*
X44249589Y-88546619D01*
X44272758Y-88539590D01*
X44294108Y-88528178D01*
X44312821Y-88512821D01*
X44328178Y-88494108D01*
X44339590Y-88472758D01*
X44346619Y-88449589D01*
X44349000Y-88425406D01*
X44349000Y-87099594D01*
X44346619Y-87075411D01*
X44339590Y-87052242D01*
X44328178Y-87030892D01*
X44312821Y-87012179D01*
X44294108Y-86996822D01*
X44272758Y-86985410D01*
X44249589Y-86978381D01*
X44225304Y-86975990D01*
X44223678Y-86974825D01*
X44223874Y-86972835D01*
X44225500Y-86972000D01*
X44281862Y-86972000D01*
X44282058Y-86972010D01*
G37*
G36*
X42332058Y-86972010D02*
G01*
X42350366Y-86973813D01*
X42350751Y-86973889D01*
X42362456Y-86977440D01*
X42362818Y-86977590D01*
X42373608Y-86983357D01*
X42373934Y-86983575D01*
X42387957Y-86995084D01*
X42388102Y-86995216D01*
X42396978Y-87004091D01*
X42417025Y-87017486D01*
X42439299Y-87026711D01*
X42462950Y-87031415D01*
X42487056Y-87031415D01*
X42510706Y-87026710D01*
X42532979Y-87017483D01*
X42553027Y-87004088D01*
X42561903Y-86995212D01*
X42562048Y-86995080D01*
X42576066Y-86983575D01*
X42576392Y-86983357D01*
X42587182Y-86977590D01*
X42587544Y-86977440D01*
X42599249Y-86973889D01*
X42599634Y-86973813D01*
X42617942Y-86972010D01*
X42618138Y-86972000D01*
X42674500Y-86972000D01*
X42676232Y-86973000D01*
X42676232Y-86975000D01*
X42674696Y-86975990D01*
X42650411Y-86978381D01*
X42627242Y-86985410D01*
X42605892Y-86996822D01*
X42587179Y-87012179D01*
X42571822Y-87030892D01*
X42560410Y-87052242D01*
X42553381Y-87075411D01*
X42551000Y-87099594D01*
X42551000Y-88425406D01*
X42553381Y-88449589D01*
X42560410Y-88472758D01*
X42571822Y-88494108D01*
X42587179Y-88512821D01*
X42605892Y-88528178D01*
X42627242Y-88539590D01*
X42650411Y-88546619D01*
X42674696Y-88549010D01*
X42676322Y-88550175D01*
X42676126Y-88552165D01*
X42674500Y-88553000D01*
X42618138Y-88553000D01*
X42617942Y-88552990D01*
X42599634Y-88551187D01*
X42599249Y-88551111D01*
X42587544Y-88547560D01*
X42587182Y-88547410D01*
X42576392Y-88541643D01*
X42576066Y-88541425D01*
X42562043Y-88529916D01*
X42561898Y-88529784D01*
X42553022Y-88520909D01*
X42532975Y-88507514D01*
X42510701Y-88498289D01*
X42487050Y-88493585D01*
X42462944Y-88493585D01*
X42439294Y-88498290D01*
X42417021Y-88507517D01*
X42396973Y-88520912D01*
X42388097Y-88529788D01*
X42387952Y-88529920D01*
X42373934Y-88541425D01*
X42373608Y-88541643D01*
X42362818Y-88547410D01*
X42362456Y-88547560D01*
X42350751Y-88551111D01*
X42350366Y-88551187D01*
X42332058Y-88552990D01*
X42331862Y-88553000D01*
X42275500Y-88553000D01*
X42273768Y-88552000D01*
X42273768Y-88550000D01*
X42275304Y-88549010D01*
X42299589Y-88546619D01*
X42322758Y-88539590D01*
X42344108Y-88528178D01*
X42362821Y-88512821D01*
X42378178Y-88494108D01*
X42389590Y-88472758D01*
X42396619Y-88449589D01*
X42399000Y-88425406D01*
X42399000Y-87099594D01*
X42396619Y-87075411D01*
X42389590Y-87052242D01*
X42378178Y-87030892D01*
X42362821Y-87012179D01*
X42344108Y-86996822D01*
X42322758Y-86985410D01*
X42299589Y-86978381D01*
X42275304Y-86975990D01*
X42273678Y-86974825D01*
X42273874Y-86972835D01*
X42275500Y-86972000D01*
X42331862Y-86972000D01*
X42332058Y-86972010D01*
G37*
G36*
X42982058Y-86972010D02*
G01*
X43000366Y-86973813D01*
X43000751Y-86973889D01*
X43012456Y-86977440D01*
X43012818Y-86977590D01*
X43023608Y-86983357D01*
X43023934Y-86983575D01*
X43037957Y-86995084D01*
X43038102Y-86995216D01*
X43046978Y-87004091D01*
X43067025Y-87017486D01*
X43089299Y-87026711D01*
X43112950Y-87031415D01*
X43137056Y-87031415D01*
X43160706Y-87026710D01*
X43182979Y-87017483D01*
X43203027Y-87004088D01*
X43211903Y-86995212D01*
X43212048Y-86995080D01*
X43226066Y-86983575D01*
X43226392Y-86983357D01*
X43237182Y-86977590D01*
X43237544Y-86977440D01*
X43249249Y-86973889D01*
X43249634Y-86973813D01*
X43267942Y-86972010D01*
X43268138Y-86972000D01*
X43324500Y-86972000D01*
X43326232Y-86973000D01*
X43326232Y-86975000D01*
X43324696Y-86975990D01*
X43300411Y-86978381D01*
X43277242Y-86985410D01*
X43255892Y-86996822D01*
X43237179Y-87012179D01*
X43221822Y-87030892D01*
X43210410Y-87052242D01*
X43203381Y-87075411D01*
X43201000Y-87099594D01*
X43201000Y-88425406D01*
X43203381Y-88449589D01*
X43210410Y-88472758D01*
X43221822Y-88494108D01*
X43237179Y-88512821D01*
X43255892Y-88528178D01*
X43277242Y-88539590D01*
X43300411Y-88546619D01*
X43324696Y-88549010D01*
X43326322Y-88550175D01*
X43326126Y-88552165D01*
X43324500Y-88553000D01*
X43268138Y-88553000D01*
X43267942Y-88552990D01*
X43249634Y-88551187D01*
X43249249Y-88551111D01*
X43237544Y-88547560D01*
X43237182Y-88547410D01*
X43226392Y-88541643D01*
X43226066Y-88541425D01*
X43212043Y-88529916D01*
X43211898Y-88529784D01*
X43203022Y-88520909D01*
X43182975Y-88507514D01*
X43160701Y-88498289D01*
X43137050Y-88493585D01*
X43112944Y-88493585D01*
X43089294Y-88498290D01*
X43067021Y-88507517D01*
X43046973Y-88520912D01*
X43038097Y-88529788D01*
X43037952Y-88529920D01*
X43023934Y-88541425D01*
X43023608Y-88541643D01*
X43012818Y-88547410D01*
X43012456Y-88547560D01*
X43000751Y-88551111D01*
X43000366Y-88551187D01*
X42982058Y-88552990D01*
X42981862Y-88553000D01*
X42925500Y-88553000D01*
X42923768Y-88552000D01*
X42923768Y-88550000D01*
X42925304Y-88549010D01*
X42949589Y-88546619D01*
X42972758Y-88539590D01*
X42994108Y-88528178D01*
X43012821Y-88512821D01*
X43028178Y-88494108D01*
X43039590Y-88472758D01*
X43046619Y-88449589D01*
X43049000Y-88425406D01*
X43049000Y-87099594D01*
X43046619Y-87075411D01*
X43039590Y-87052242D01*
X43028178Y-87030892D01*
X43012821Y-87012179D01*
X42994108Y-86996822D01*
X42972758Y-86985410D01*
X42949589Y-86978381D01*
X42925304Y-86975990D01*
X42923678Y-86974825D01*
X42923874Y-86972835D01*
X42925500Y-86972000D01*
X42981862Y-86972000D01*
X42982058Y-86972010D01*
G37*
G36*
X45582058Y-86972010D02*
G01*
X45600366Y-86973813D01*
X45600751Y-86973889D01*
X45612456Y-86977440D01*
X45612818Y-86977590D01*
X45623608Y-86983357D01*
X45623934Y-86983575D01*
X45637957Y-86995084D01*
X45638102Y-86995216D01*
X45646978Y-87004091D01*
X45667025Y-87017486D01*
X45689299Y-87026711D01*
X45712950Y-87031415D01*
X45737056Y-87031415D01*
X45760706Y-87026710D01*
X45782979Y-87017483D01*
X45803027Y-87004088D01*
X45811903Y-86995212D01*
X45812048Y-86995080D01*
X45826066Y-86983575D01*
X45826392Y-86983357D01*
X45837182Y-86977590D01*
X45837544Y-86977440D01*
X45849249Y-86973889D01*
X45849634Y-86973813D01*
X45867942Y-86972010D01*
X45868138Y-86972000D01*
X45924500Y-86972000D01*
X45926232Y-86973000D01*
X45926232Y-86975000D01*
X45924696Y-86975990D01*
X45900411Y-86978381D01*
X45877242Y-86985410D01*
X45855892Y-86996822D01*
X45837179Y-87012179D01*
X45821822Y-87030892D01*
X45810410Y-87052242D01*
X45803381Y-87075411D01*
X45801000Y-87099594D01*
X45801000Y-88425406D01*
X45803381Y-88449589D01*
X45810410Y-88472758D01*
X45821822Y-88494108D01*
X45837179Y-88512821D01*
X45855892Y-88528178D01*
X45877242Y-88539590D01*
X45900411Y-88546619D01*
X45924696Y-88549010D01*
X45926322Y-88550175D01*
X45926126Y-88552165D01*
X45924500Y-88553000D01*
X45868138Y-88553000D01*
X45867942Y-88552990D01*
X45849634Y-88551187D01*
X45849249Y-88551111D01*
X45837544Y-88547560D01*
X45837182Y-88547410D01*
X45826392Y-88541643D01*
X45826066Y-88541425D01*
X45812043Y-88529916D01*
X45811898Y-88529784D01*
X45803022Y-88520909D01*
X45782975Y-88507514D01*
X45760701Y-88498289D01*
X45737050Y-88493585D01*
X45712944Y-88493585D01*
X45689294Y-88498290D01*
X45667021Y-88507517D01*
X45646973Y-88520912D01*
X45638097Y-88529788D01*
X45637952Y-88529920D01*
X45623934Y-88541425D01*
X45623608Y-88541643D01*
X45612818Y-88547410D01*
X45612456Y-88547560D01*
X45600751Y-88551111D01*
X45600366Y-88551187D01*
X45582058Y-88552990D01*
X45581862Y-88553000D01*
X45525500Y-88553000D01*
X45523768Y-88552000D01*
X45523768Y-88550000D01*
X45525304Y-88549010D01*
X45549589Y-88546619D01*
X45572758Y-88539590D01*
X45594108Y-88528178D01*
X45612821Y-88512821D01*
X45628178Y-88494108D01*
X45639590Y-88472758D01*
X45646619Y-88449589D01*
X45649000Y-88425406D01*
X45649000Y-87099594D01*
X45646619Y-87075411D01*
X45639590Y-87052242D01*
X45628178Y-87030892D01*
X45612821Y-87012179D01*
X45594108Y-86996822D01*
X45572758Y-86985410D01*
X45549589Y-86978381D01*
X45525304Y-86975990D01*
X45523678Y-86974825D01*
X45523874Y-86972835D01*
X45525500Y-86972000D01*
X45581862Y-86972000D01*
X45582058Y-86972010D01*
G37*
G36*
X44932058Y-86972010D02*
G01*
X44950366Y-86973813D01*
X44950751Y-86973889D01*
X44962456Y-86977440D01*
X44962818Y-86977590D01*
X44973608Y-86983357D01*
X44973934Y-86983575D01*
X44987957Y-86995084D01*
X44988102Y-86995216D01*
X44996978Y-87004091D01*
X45017025Y-87017486D01*
X45039299Y-87026711D01*
X45062950Y-87031415D01*
X45087056Y-87031415D01*
X45110706Y-87026710D01*
X45132979Y-87017483D01*
X45153027Y-87004088D01*
X45161903Y-86995212D01*
X45162048Y-86995080D01*
X45176066Y-86983575D01*
X45176392Y-86983357D01*
X45187182Y-86977590D01*
X45187544Y-86977440D01*
X45199249Y-86973889D01*
X45199634Y-86973813D01*
X45217942Y-86972010D01*
X45218138Y-86972000D01*
X45274500Y-86972000D01*
X45276232Y-86973000D01*
X45276232Y-86975000D01*
X45274696Y-86975990D01*
X45250411Y-86978381D01*
X45227242Y-86985410D01*
X45205892Y-86996822D01*
X45187179Y-87012179D01*
X45171822Y-87030892D01*
X45160410Y-87052242D01*
X45153381Y-87075411D01*
X45151000Y-87099594D01*
X45151000Y-88425406D01*
X45153381Y-88449589D01*
X45160410Y-88472758D01*
X45171822Y-88494108D01*
X45187179Y-88512821D01*
X45205892Y-88528178D01*
X45227242Y-88539590D01*
X45250411Y-88546619D01*
X45274696Y-88549010D01*
X45276322Y-88550175D01*
X45276126Y-88552165D01*
X45274500Y-88553000D01*
X45218138Y-88553000D01*
X45217942Y-88552990D01*
X45199634Y-88551187D01*
X45199249Y-88551111D01*
X45187544Y-88547560D01*
X45187182Y-88547410D01*
X45176392Y-88541643D01*
X45176066Y-88541425D01*
X45162043Y-88529916D01*
X45161898Y-88529784D01*
X45153022Y-88520909D01*
X45132975Y-88507514D01*
X45110701Y-88498289D01*
X45087050Y-88493585D01*
X45062944Y-88493585D01*
X45039294Y-88498290D01*
X45017021Y-88507517D01*
X44996973Y-88520912D01*
X44988097Y-88529788D01*
X44987952Y-88529920D01*
X44973934Y-88541425D01*
X44973608Y-88541643D01*
X44962818Y-88547410D01*
X44962456Y-88547560D01*
X44950751Y-88551111D01*
X44950366Y-88551187D01*
X44932058Y-88552990D01*
X44931862Y-88553000D01*
X44875500Y-88553000D01*
X44873768Y-88552000D01*
X44873768Y-88550000D01*
X44875304Y-88549010D01*
X44899589Y-88546619D01*
X44922758Y-88539590D01*
X44944108Y-88528178D01*
X44962821Y-88512821D01*
X44978178Y-88494108D01*
X44989590Y-88472758D01*
X44996619Y-88449589D01*
X44999000Y-88425406D01*
X44999000Y-87099594D01*
X44996619Y-87075411D01*
X44989590Y-87052242D01*
X44978178Y-87030892D01*
X44962821Y-87012179D01*
X44944108Y-86996822D01*
X44922758Y-86985410D01*
X44899589Y-86978381D01*
X44875304Y-86975990D01*
X44873678Y-86974825D01*
X44873874Y-86972835D01*
X44875500Y-86972000D01*
X44931862Y-86972000D01*
X44932058Y-86972010D01*
G37*
G36*
X42332058Y-81247010D02*
G01*
X42350366Y-81248813D01*
X42350751Y-81248889D01*
X42362456Y-81252440D01*
X42362818Y-81252590D01*
X42373608Y-81258357D01*
X42373934Y-81258575D01*
X42387957Y-81270084D01*
X42388102Y-81270216D01*
X42396978Y-81279091D01*
X42417025Y-81292486D01*
X42439299Y-81301711D01*
X42462950Y-81306415D01*
X42487056Y-81306415D01*
X42510706Y-81301710D01*
X42532979Y-81292483D01*
X42553027Y-81279088D01*
X42561903Y-81270212D01*
X42562048Y-81270080D01*
X42576066Y-81258575D01*
X42576392Y-81258357D01*
X42587182Y-81252590D01*
X42587544Y-81252440D01*
X42599249Y-81248889D01*
X42599634Y-81248813D01*
X42617942Y-81247010D01*
X42618138Y-81247000D01*
X42674500Y-81247000D01*
X42676232Y-81248000D01*
X42676232Y-81250000D01*
X42674696Y-81250990D01*
X42650411Y-81253381D01*
X42627242Y-81260410D01*
X42605892Y-81271822D01*
X42587179Y-81287179D01*
X42571822Y-81305892D01*
X42560410Y-81327242D01*
X42553381Y-81350411D01*
X42551000Y-81374594D01*
X42551000Y-82700406D01*
X42553381Y-82724589D01*
X42560410Y-82747758D01*
X42571822Y-82769108D01*
X42587179Y-82787821D01*
X42605892Y-82803178D01*
X42627242Y-82814590D01*
X42650411Y-82821619D01*
X42674696Y-82824010D01*
X42676322Y-82825175D01*
X42676126Y-82827165D01*
X42674500Y-82828000D01*
X42618138Y-82828000D01*
X42617942Y-82827990D01*
X42599634Y-82826187D01*
X42599249Y-82826111D01*
X42587544Y-82822560D01*
X42587182Y-82822410D01*
X42576392Y-82816643D01*
X42576066Y-82816425D01*
X42562043Y-82804916D01*
X42561898Y-82804784D01*
X42553022Y-82795909D01*
X42532975Y-82782514D01*
X42510701Y-82773289D01*
X42487050Y-82768585D01*
X42462944Y-82768585D01*
X42439294Y-82773290D01*
X42417021Y-82782517D01*
X42396973Y-82795912D01*
X42388097Y-82804788D01*
X42387952Y-82804920D01*
X42373934Y-82816425D01*
X42373608Y-82816643D01*
X42362818Y-82822410D01*
X42362456Y-82822560D01*
X42350751Y-82826111D01*
X42350366Y-82826187D01*
X42332058Y-82827990D01*
X42331862Y-82828000D01*
X42275500Y-82828000D01*
X42273768Y-82827000D01*
X42273768Y-82825000D01*
X42275304Y-82824010D01*
X42299589Y-82821619D01*
X42322758Y-82814590D01*
X42344108Y-82803178D01*
X42362821Y-82787821D01*
X42378178Y-82769108D01*
X42389590Y-82747758D01*
X42396619Y-82724589D01*
X42399000Y-82700406D01*
X42399000Y-81374594D01*
X42396619Y-81350411D01*
X42389590Y-81327242D01*
X42378178Y-81305892D01*
X42362821Y-81287179D01*
X42344108Y-81271822D01*
X42322758Y-81260410D01*
X42299589Y-81253381D01*
X42275304Y-81250990D01*
X42273678Y-81249825D01*
X42273874Y-81247835D01*
X42275500Y-81247000D01*
X42331862Y-81247000D01*
X42332058Y-81247010D01*
G37*
G36*
X45582058Y-81247010D02*
G01*
X45600366Y-81248813D01*
X45600751Y-81248889D01*
X45612456Y-81252440D01*
X45612818Y-81252590D01*
X45623608Y-81258357D01*
X45623934Y-81258575D01*
X45637957Y-81270084D01*
X45638102Y-81270216D01*
X45646978Y-81279091D01*
X45667025Y-81292486D01*
X45689299Y-81301711D01*
X45712950Y-81306415D01*
X45737056Y-81306415D01*
X45760706Y-81301710D01*
X45782979Y-81292483D01*
X45803027Y-81279088D01*
X45811903Y-81270212D01*
X45812048Y-81270080D01*
X45826066Y-81258575D01*
X45826392Y-81258357D01*
X45837182Y-81252590D01*
X45837544Y-81252440D01*
X45849249Y-81248889D01*
X45849634Y-81248813D01*
X45867942Y-81247010D01*
X45868138Y-81247000D01*
X45924500Y-81247000D01*
X45926232Y-81248000D01*
X45926232Y-81250000D01*
X45924696Y-81250990D01*
X45900411Y-81253381D01*
X45877242Y-81260410D01*
X45855892Y-81271822D01*
X45837179Y-81287179D01*
X45821822Y-81305892D01*
X45810410Y-81327242D01*
X45803381Y-81350411D01*
X45801000Y-81374594D01*
X45801000Y-82700406D01*
X45803381Y-82724589D01*
X45810410Y-82747758D01*
X45821822Y-82769108D01*
X45837179Y-82787821D01*
X45855892Y-82803178D01*
X45877242Y-82814590D01*
X45900411Y-82821619D01*
X45924696Y-82824010D01*
X45926322Y-82825175D01*
X45926126Y-82827165D01*
X45924500Y-82828000D01*
X45868138Y-82828000D01*
X45867942Y-82827990D01*
X45849634Y-82826187D01*
X45849249Y-82826111D01*
X45837544Y-82822560D01*
X45837182Y-82822410D01*
X45826392Y-82816643D01*
X45826066Y-82816425D01*
X45812043Y-82804916D01*
X45811898Y-82804784D01*
X45803022Y-82795909D01*
X45782975Y-82782514D01*
X45760701Y-82773289D01*
X45737050Y-82768585D01*
X45712944Y-82768585D01*
X45689294Y-82773290D01*
X45667021Y-82782517D01*
X45646973Y-82795912D01*
X45638097Y-82804788D01*
X45637952Y-82804920D01*
X45623934Y-82816425D01*
X45623608Y-82816643D01*
X45612818Y-82822410D01*
X45612456Y-82822560D01*
X45600751Y-82826111D01*
X45600366Y-82826187D01*
X45582058Y-82827990D01*
X45581862Y-82828000D01*
X45525500Y-82828000D01*
X45523768Y-82827000D01*
X45523768Y-82825000D01*
X45525304Y-82824010D01*
X45549589Y-82821619D01*
X45572758Y-82814590D01*
X45594108Y-82803178D01*
X45612821Y-82787821D01*
X45628178Y-82769108D01*
X45639590Y-82747758D01*
X45646619Y-82724589D01*
X45649000Y-82700406D01*
X45649000Y-81374594D01*
X45646619Y-81350411D01*
X45639590Y-81327242D01*
X45628178Y-81305892D01*
X45612821Y-81287179D01*
X45594108Y-81271822D01*
X45572758Y-81260410D01*
X45549589Y-81253381D01*
X45525304Y-81250990D01*
X45523678Y-81249825D01*
X45523874Y-81247835D01*
X45525500Y-81247000D01*
X45581862Y-81247000D01*
X45582058Y-81247010D01*
G37*
G36*
X44282058Y-81247010D02*
G01*
X44300366Y-81248813D01*
X44300751Y-81248889D01*
X44312456Y-81252440D01*
X44312818Y-81252590D01*
X44323608Y-81258357D01*
X44323934Y-81258575D01*
X44337957Y-81270084D01*
X44338102Y-81270216D01*
X44346978Y-81279091D01*
X44367025Y-81292486D01*
X44389299Y-81301711D01*
X44412950Y-81306415D01*
X44437056Y-81306415D01*
X44460706Y-81301710D01*
X44482979Y-81292483D01*
X44503027Y-81279088D01*
X44511903Y-81270212D01*
X44512048Y-81270080D01*
X44526066Y-81258575D01*
X44526392Y-81258357D01*
X44537182Y-81252590D01*
X44537544Y-81252440D01*
X44549249Y-81248889D01*
X44549634Y-81248813D01*
X44567942Y-81247010D01*
X44568138Y-81247000D01*
X44624500Y-81247000D01*
X44626232Y-81248000D01*
X44626232Y-81250000D01*
X44624696Y-81250990D01*
X44600411Y-81253381D01*
X44577242Y-81260410D01*
X44555892Y-81271822D01*
X44537179Y-81287179D01*
X44521822Y-81305892D01*
X44510410Y-81327242D01*
X44503381Y-81350411D01*
X44501000Y-81374594D01*
X44501000Y-82700406D01*
X44503381Y-82724589D01*
X44510410Y-82747758D01*
X44521822Y-82769108D01*
X44537179Y-82787821D01*
X44555892Y-82803178D01*
X44577242Y-82814590D01*
X44600411Y-82821619D01*
X44624696Y-82824010D01*
X44626322Y-82825175D01*
X44626126Y-82827165D01*
X44624500Y-82828000D01*
X44568138Y-82828000D01*
X44567942Y-82827990D01*
X44549634Y-82826187D01*
X44549249Y-82826111D01*
X44537544Y-82822560D01*
X44537182Y-82822410D01*
X44526392Y-82816643D01*
X44526066Y-82816425D01*
X44512043Y-82804916D01*
X44511898Y-82804784D01*
X44503022Y-82795909D01*
X44482975Y-82782514D01*
X44460701Y-82773289D01*
X44437050Y-82768585D01*
X44412944Y-82768585D01*
X44389294Y-82773290D01*
X44367021Y-82782517D01*
X44346973Y-82795912D01*
X44338097Y-82804788D01*
X44337952Y-82804920D01*
X44323934Y-82816425D01*
X44323608Y-82816643D01*
X44312818Y-82822410D01*
X44312456Y-82822560D01*
X44300751Y-82826111D01*
X44300366Y-82826187D01*
X44282058Y-82827990D01*
X44281862Y-82828000D01*
X44225500Y-82828000D01*
X44223768Y-82827000D01*
X44223768Y-82825000D01*
X44225304Y-82824010D01*
X44249589Y-82821619D01*
X44272758Y-82814590D01*
X44294108Y-82803178D01*
X44312821Y-82787821D01*
X44328178Y-82769108D01*
X44339590Y-82747758D01*
X44346619Y-82724589D01*
X44349000Y-82700406D01*
X44349000Y-81374594D01*
X44346619Y-81350411D01*
X44339590Y-81327242D01*
X44328178Y-81305892D01*
X44312821Y-81287179D01*
X44294108Y-81271822D01*
X44272758Y-81260410D01*
X44249589Y-81253381D01*
X44225304Y-81250990D01*
X44223678Y-81249825D01*
X44223874Y-81247835D01*
X44225500Y-81247000D01*
X44281862Y-81247000D01*
X44282058Y-81247010D01*
G37*
G36*
X44932058Y-81247010D02*
G01*
X44950366Y-81248813D01*
X44950751Y-81248889D01*
X44962456Y-81252440D01*
X44962818Y-81252590D01*
X44973608Y-81258357D01*
X44973934Y-81258575D01*
X44987957Y-81270084D01*
X44988102Y-81270216D01*
X44996978Y-81279091D01*
X45017025Y-81292486D01*
X45039299Y-81301711D01*
X45062950Y-81306415D01*
X45087056Y-81306415D01*
X45110706Y-81301710D01*
X45132979Y-81292483D01*
X45153027Y-81279088D01*
X45161903Y-81270212D01*
X45162048Y-81270080D01*
X45176066Y-81258575D01*
X45176392Y-81258357D01*
X45187182Y-81252590D01*
X45187544Y-81252440D01*
X45199249Y-81248889D01*
X45199634Y-81248813D01*
X45217942Y-81247010D01*
X45218138Y-81247000D01*
X45274500Y-81247000D01*
X45276232Y-81248000D01*
X45276232Y-81250000D01*
X45274696Y-81250990D01*
X45250411Y-81253381D01*
X45227242Y-81260410D01*
X45205892Y-81271822D01*
X45187179Y-81287179D01*
X45171822Y-81305892D01*
X45160410Y-81327242D01*
X45153381Y-81350411D01*
X45151000Y-81374594D01*
X45151000Y-82700406D01*
X45153381Y-82724589D01*
X45160410Y-82747758D01*
X45171822Y-82769108D01*
X45187179Y-82787821D01*
X45205892Y-82803178D01*
X45227242Y-82814590D01*
X45250411Y-82821619D01*
X45274696Y-82824010D01*
X45276322Y-82825175D01*
X45276126Y-82827165D01*
X45274500Y-82828000D01*
X45218138Y-82828000D01*
X45217942Y-82827990D01*
X45199634Y-82826187D01*
X45199249Y-82826111D01*
X45187544Y-82822560D01*
X45187182Y-82822410D01*
X45176392Y-82816643D01*
X45176066Y-82816425D01*
X45162043Y-82804916D01*
X45161898Y-82804784D01*
X45153022Y-82795909D01*
X45132975Y-82782514D01*
X45110701Y-82773289D01*
X45087050Y-82768585D01*
X45062944Y-82768585D01*
X45039294Y-82773290D01*
X45017021Y-82782517D01*
X44996973Y-82795912D01*
X44988097Y-82804788D01*
X44987952Y-82804920D01*
X44973934Y-82816425D01*
X44973608Y-82816643D01*
X44962818Y-82822410D01*
X44962456Y-82822560D01*
X44950751Y-82826111D01*
X44950366Y-82826187D01*
X44932058Y-82827990D01*
X44931862Y-82828000D01*
X44875500Y-82828000D01*
X44873768Y-82827000D01*
X44873768Y-82825000D01*
X44875304Y-82824010D01*
X44899589Y-82821619D01*
X44922758Y-82814590D01*
X44944108Y-82803178D01*
X44962821Y-82787821D01*
X44978178Y-82769108D01*
X44989590Y-82747758D01*
X44996619Y-82724589D01*
X44999000Y-82700406D01*
X44999000Y-81374594D01*
X44996619Y-81350411D01*
X44989590Y-81327242D01*
X44978178Y-81305892D01*
X44962821Y-81287179D01*
X44944108Y-81271822D01*
X44922758Y-81260410D01*
X44899589Y-81253381D01*
X44875304Y-81250990D01*
X44873678Y-81249825D01*
X44873874Y-81247835D01*
X44875500Y-81247000D01*
X44931862Y-81247000D01*
X44932058Y-81247010D01*
G37*
G36*
X42982058Y-81247010D02*
G01*
X43000366Y-81248813D01*
X43000751Y-81248889D01*
X43012456Y-81252440D01*
X43012818Y-81252590D01*
X43023608Y-81258357D01*
X43023934Y-81258575D01*
X43037957Y-81270084D01*
X43038102Y-81270216D01*
X43046978Y-81279091D01*
X43067025Y-81292486D01*
X43089299Y-81301711D01*
X43112950Y-81306415D01*
X43137056Y-81306415D01*
X43160706Y-81301710D01*
X43182979Y-81292483D01*
X43203027Y-81279088D01*
X43211903Y-81270212D01*
X43212048Y-81270080D01*
X43226066Y-81258575D01*
X43226392Y-81258357D01*
X43237182Y-81252590D01*
X43237544Y-81252440D01*
X43249249Y-81248889D01*
X43249634Y-81248813D01*
X43267942Y-81247010D01*
X43268138Y-81247000D01*
X43324500Y-81247000D01*
X43326232Y-81248000D01*
X43326232Y-81250000D01*
X43324696Y-81250990D01*
X43300411Y-81253381D01*
X43277242Y-81260410D01*
X43255892Y-81271822D01*
X43237179Y-81287179D01*
X43221822Y-81305892D01*
X43210410Y-81327242D01*
X43203381Y-81350411D01*
X43201000Y-81374594D01*
X43201000Y-82700406D01*
X43203381Y-82724589D01*
X43210410Y-82747758D01*
X43221822Y-82769108D01*
X43237179Y-82787821D01*
X43255892Y-82803178D01*
X43277242Y-82814590D01*
X43300411Y-82821619D01*
X43324696Y-82824010D01*
X43326322Y-82825175D01*
X43326126Y-82827165D01*
X43324500Y-82828000D01*
X43268138Y-82828000D01*
X43267942Y-82827990D01*
X43249634Y-82826187D01*
X43249249Y-82826111D01*
X43237544Y-82822560D01*
X43237182Y-82822410D01*
X43226392Y-82816643D01*
X43226066Y-82816425D01*
X43212043Y-82804916D01*
X43211898Y-82804784D01*
X43203022Y-82795909D01*
X43182975Y-82782514D01*
X43160701Y-82773289D01*
X43137050Y-82768585D01*
X43112944Y-82768585D01*
X43089294Y-82773290D01*
X43067021Y-82782517D01*
X43046973Y-82795912D01*
X43038097Y-82804788D01*
X43037952Y-82804920D01*
X43023934Y-82816425D01*
X43023608Y-82816643D01*
X43012818Y-82822410D01*
X43012456Y-82822560D01*
X43000751Y-82826111D01*
X43000366Y-82826187D01*
X42982058Y-82827990D01*
X42981862Y-82828000D01*
X42925500Y-82828000D01*
X42923768Y-82827000D01*
X42923768Y-82825000D01*
X42925304Y-82824010D01*
X42949589Y-82821619D01*
X42972758Y-82814590D01*
X42994108Y-82803178D01*
X43012821Y-82787821D01*
X43028178Y-82769108D01*
X43039590Y-82747758D01*
X43046619Y-82724589D01*
X43049000Y-82700406D01*
X43049000Y-81374594D01*
X43046619Y-81350411D01*
X43039590Y-81327242D01*
X43028178Y-81305892D01*
X43012821Y-81287179D01*
X42994108Y-81271822D01*
X42972758Y-81260410D01*
X42949589Y-81253381D01*
X42925304Y-81250990D01*
X42923678Y-81249825D01*
X42923874Y-81247835D01*
X42925500Y-81247000D01*
X42981862Y-81247000D01*
X42982058Y-81247010D01*
G37*
G36*
X43632058Y-81247010D02*
G01*
X43650366Y-81248813D01*
X43650751Y-81248889D01*
X43662456Y-81252440D01*
X43662818Y-81252590D01*
X43673608Y-81258357D01*
X43673934Y-81258575D01*
X43687957Y-81270084D01*
X43688102Y-81270216D01*
X43696978Y-81279091D01*
X43717025Y-81292486D01*
X43739299Y-81301711D01*
X43762950Y-81306415D01*
X43787056Y-81306415D01*
X43810706Y-81301710D01*
X43832979Y-81292483D01*
X43853027Y-81279088D01*
X43861903Y-81270212D01*
X43862048Y-81270080D01*
X43876066Y-81258575D01*
X43876392Y-81258357D01*
X43887182Y-81252590D01*
X43887544Y-81252440D01*
X43899249Y-81248889D01*
X43899634Y-81248813D01*
X43917942Y-81247010D01*
X43918138Y-81247000D01*
X43974500Y-81247000D01*
X43976232Y-81248000D01*
X43976232Y-81250000D01*
X43974696Y-81250990D01*
X43950411Y-81253381D01*
X43927242Y-81260410D01*
X43905892Y-81271822D01*
X43887179Y-81287179D01*
X43871822Y-81305892D01*
X43860410Y-81327242D01*
X43853381Y-81350411D01*
X43851000Y-81374594D01*
X43851000Y-82700406D01*
X43853381Y-82724589D01*
X43860410Y-82747758D01*
X43871822Y-82769108D01*
X43887179Y-82787821D01*
X43905892Y-82803178D01*
X43927242Y-82814590D01*
X43950411Y-82821619D01*
X43974696Y-82824010D01*
X43976322Y-82825175D01*
X43976126Y-82827165D01*
X43974500Y-82828000D01*
X43918138Y-82828000D01*
X43917942Y-82827990D01*
X43899634Y-82826187D01*
X43899249Y-82826111D01*
X43887544Y-82822560D01*
X43887182Y-82822410D01*
X43876392Y-82816643D01*
X43876066Y-82816425D01*
X43862043Y-82804916D01*
X43861898Y-82804784D01*
X43853022Y-82795909D01*
X43832975Y-82782514D01*
X43810701Y-82773289D01*
X43787050Y-82768585D01*
X43762944Y-82768585D01*
X43739294Y-82773290D01*
X43717021Y-82782517D01*
X43696973Y-82795912D01*
X43688097Y-82804788D01*
X43687952Y-82804920D01*
X43673934Y-82816425D01*
X43673608Y-82816643D01*
X43662818Y-82822410D01*
X43662456Y-82822560D01*
X43650751Y-82826111D01*
X43650366Y-82826187D01*
X43632058Y-82827990D01*
X43631862Y-82828000D01*
X43575500Y-82828000D01*
X43573768Y-82827000D01*
X43573768Y-82825000D01*
X43575304Y-82824010D01*
X43599589Y-82821619D01*
X43622758Y-82814590D01*
X43644108Y-82803178D01*
X43662821Y-82787821D01*
X43678178Y-82769108D01*
X43689590Y-82747758D01*
X43696619Y-82724589D01*
X43699000Y-82700406D01*
X43699000Y-81374594D01*
X43696619Y-81350411D01*
X43689590Y-81327242D01*
X43678178Y-81305892D01*
X43662821Y-81287179D01*
X43644108Y-81271822D01*
X43622758Y-81260410D01*
X43599589Y-81253381D01*
X43575304Y-81250990D01*
X43573678Y-81249825D01*
X43573874Y-81247835D01*
X43575500Y-81247000D01*
X43631862Y-81247000D01*
X43632058Y-81247010D01*
G37*
G36*
X46975732Y-69248000D02*
G01*
X46976000Y-69249000D01*
X46976000Y-70451000D01*
X46975000Y-70452732D01*
X46974000Y-70453000D01*
X46826000Y-70453000D01*
X46824268Y-70452000D01*
X46824000Y-70451000D01*
X46824000Y-69249000D01*
X46825000Y-69247268D01*
X46826000Y-69247000D01*
X46974000Y-69247000D01*
X46975732Y-69248000D01*
G37*
G36*
X46325732Y-69248000D02*
G01*
X46326000Y-69249000D01*
X46326000Y-70451000D01*
X46325000Y-70452732D01*
X46324000Y-70453000D01*
X46176000Y-70453000D01*
X46174268Y-70452000D01*
X46174000Y-70451000D01*
X46174000Y-69249000D01*
X46175000Y-69247268D01*
X46176000Y-69247000D01*
X46324000Y-69247000D01*
X46325732Y-69248000D01*
G37*
G36*
X47625732Y-69248000D02*
G01*
X47626000Y-69249000D01*
X47626000Y-70451000D01*
X47625000Y-70452732D01*
X47624000Y-70453000D01*
X47476000Y-70453000D01*
X47474268Y-70452000D01*
X47474000Y-70451000D01*
X47474000Y-69249000D01*
X47475000Y-69247268D01*
X47476000Y-69247000D01*
X47624000Y-69247000D01*
X47625732Y-69248000D01*
G37*
G36*
X48275732Y-69248000D02*
G01*
X48276000Y-69249000D01*
X48276000Y-70451000D01*
X48275000Y-70452732D01*
X48274000Y-70453000D01*
X48126000Y-70453000D01*
X48124268Y-70452000D01*
X48124000Y-70451000D01*
X48124000Y-69249000D01*
X48125000Y-69247268D01*
X48126000Y-69247000D01*
X48274000Y-69247000D01*
X48275732Y-69248000D01*
G37*
G36*
X48925732Y-69248000D02*
G01*
X48926000Y-69249000D01*
X48926000Y-70451000D01*
X48925000Y-70452732D01*
X48924000Y-70453000D01*
X48776000Y-70453000D01*
X48774268Y-70452000D01*
X48774000Y-70451000D01*
X48774000Y-69249000D01*
X48775000Y-69247268D01*
X48776000Y-69247000D01*
X48924000Y-69247000D01*
X48925732Y-69248000D01*
G37*
G36*
X49575732Y-69248000D02*
G01*
X49576000Y-69249000D01*
X49576000Y-70451000D01*
X49575000Y-70452732D01*
X49574000Y-70453000D01*
X49426000Y-70453000D01*
X49424268Y-70452000D01*
X49424000Y-70451000D01*
X49424000Y-69249000D01*
X49425000Y-69247268D01*
X49426000Y-69247000D01*
X49574000Y-69247000D01*
X49575732Y-69248000D01*
G37*
G36*
X50225732Y-69248000D02*
G01*
X50226000Y-69249000D01*
X50226000Y-70451000D01*
X50225000Y-70452732D01*
X50224000Y-70453000D01*
X50076000Y-70453000D01*
X50074268Y-70452000D01*
X50074000Y-70451000D01*
X50074000Y-69249000D01*
X50075000Y-69247268D01*
X50076000Y-69247000D01*
X50224000Y-69247000D01*
X50225732Y-69248000D01*
G37*
G36*
X50875732Y-69248000D02*
G01*
X50876000Y-69249000D01*
X50876000Y-70451000D01*
X50875000Y-70452732D01*
X50874000Y-70453000D01*
X50726000Y-70453000D01*
X50724268Y-70452000D01*
X50724000Y-70451000D01*
X50724000Y-69249000D01*
X50725000Y-69247268D01*
X50726000Y-69247000D01*
X50874000Y-69247000D01*
X50875732Y-69248000D01*
G37*
G36*
X51525732Y-69248000D02*
G01*
X51526000Y-69249000D01*
X51526000Y-70451000D01*
X51525000Y-70452732D01*
X51524000Y-70453000D01*
X51376000Y-70453000D01*
X51374268Y-70452000D01*
X51374000Y-70451000D01*
X51374000Y-69249000D01*
X51375000Y-69247268D01*
X51376000Y-69247000D01*
X51524000Y-69247000D01*
X51525732Y-69248000D01*
G37*
G36*
X52175732Y-69248000D02*
G01*
X52176000Y-69249000D01*
X52176000Y-70451000D01*
X52175000Y-70452732D01*
X52174000Y-70453000D01*
X52026000Y-70453000D01*
X52024268Y-70452000D01*
X52024000Y-70451000D01*
X52024000Y-69249000D01*
X52025000Y-69247268D01*
X52026000Y-69247000D01*
X52174000Y-69247000D01*
X52175732Y-69248000D01*
G37*
G36*
X52825732Y-69248000D02*
G01*
X52826000Y-69249000D01*
X52826000Y-70451000D01*
X52825000Y-70452732D01*
X52824000Y-70453000D01*
X52676000Y-70453000D01*
X52674268Y-70452000D01*
X52674000Y-70451000D01*
X52674000Y-69249000D01*
X52675000Y-69247268D01*
X52676000Y-69247000D01*
X52824000Y-69247000D01*
X52825732Y-69248000D01*
G37*
G36*
X47625732Y-63548000D02*
G01*
X47626000Y-63549000D01*
X47626000Y-64751000D01*
X47625000Y-64752732D01*
X47624000Y-64753000D01*
X47476000Y-64753000D01*
X47474268Y-64752000D01*
X47474000Y-64751000D01*
X47474000Y-63549000D01*
X47475000Y-63547268D01*
X47476000Y-63547000D01*
X47624000Y-63547000D01*
X47625732Y-63548000D01*
G37*
G36*
X50225732Y-63548000D02*
G01*
X50226000Y-63549000D01*
X50226000Y-64751000D01*
X50225000Y-64752732D01*
X50224000Y-64753000D01*
X50076000Y-64753000D01*
X50074268Y-64752000D01*
X50074000Y-64751000D01*
X50074000Y-63549000D01*
X50075000Y-63547268D01*
X50076000Y-63547000D01*
X50224000Y-63547000D01*
X50225732Y-63548000D01*
G37*
G36*
X46975732Y-63548000D02*
G01*
X46976000Y-63549000D01*
X46976000Y-64751000D01*
X46975000Y-64752732D01*
X46974000Y-64753000D01*
X46826000Y-64753000D01*
X46824268Y-64752000D01*
X46824000Y-64751000D01*
X46824000Y-63549000D01*
X46825000Y-63547268D01*
X46826000Y-63547000D01*
X46974000Y-63547000D01*
X46975732Y-63548000D01*
G37*
G36*
X52825732Y-63548000D02*
G01*
X52826000Y-63549000D01*
X52826000Y-64751000D01*
X52825000Y-64752732D01*
X52824000Y-64753000D01*
X52676000Y-64753000D01*
X52674268Y-64752000D01*
X52674000Y-64751000D01*
X52674000Y-63549000D01*
X52675000Y-63547268D01*
X52676000Y-63547000D01*
X52824000Y-63547000D01*
X52825732Y-63548000D01*
G37*
G36*
X52175732Y-63548000D02*
G01*
X52176000Y-63549000D01*
X52176000Y-64751000D01*
X52175000Y-64752732D01*
X52174000Y-64753000D01*
X52026000Y-64753000D01*
X52024268Y-64752000D01*
X52024000Y-64751000D01*
X52024000Y-63549000D01*
X52025000Y-63547268D01*
X52026000Y-63547000D01*
X52174000Y-63547000D01*
X52175732Y-63548000D01*
G37*
G36*
X51525732Y-63548000D02*
G01*
X51526000Y-63549000D01*
X51526000Y-64751000D01*
X51525000Y-64752732D01*
X51524000Y-64753000D01*
X51376000Y-64753000D01*
X51374268Y-64752000D01*
X51374000Y-64751000D01*
X51374000Y-63549000D01*
X51375000Y-63547268D01*
X51376000Y-63547000D01*
X51524000Y-63547000D01*
X51525732Y-63548000D01*
G37*
G36*
X50875732Y-63548000D02*
G01*
X50876000Y-63549000D01*
X50876000Y-64751000D01*
X50875000Y-64752732D01*
X50874000Y-64753000D01*
X50726000Y-64753000D01*
X50724268Y-64752000D01*
X50724000Y-64751000D01*
X50724000Y-63549000D01*
X50725000Y-63547268D01*
X50726000Y-63547000D01*
X50874000Y-63547000D01*
X50875732Y-63548000D01*
G37*
G36*
X49575732Y-63548000D02*
G01*
X49576000Y-63549000D01*
X49576000Y-64751000D01*
X49575000Y-64752732D01*
X49574000Y-64753000D01*
X49426000Y-64753000D01*
X49424268Y-64752000D01*
X49424000Y-64751000D01*
X49424000Y-63549000D01*
X49425000Y-63547268D01*
X49426000Y-63547000D01*
X49574000Y-63547000D01*
X49575732Y-63548000D01*
G37*
G36*
X48925732Y-63548000D02*
G01*
X48926000Y-63549000D01*
X48926000Y-64751000D01*
X48925000Y-64752732D01*
X48924000Y-64753000D01*
X48776000Y-64753000D01*
X48774268Y-64752000D01*
X48774000Y-64751000D01*
X48774000Y-63549000D01*
X48775000Y-63547268D01*
X48776000Y-63547000D01*
X48924000Y-63547000D01*
X48925732Y-63548000D01*
G37*
G36*
X48275732Y-63548000D02*
G01*
X48276000Y-63549000D01*
X48276000Y-64751000D01*
X48275000Y-64752732D01*
X48274000Y-64753000D01*
X48126000Y-64753000D01*
X48124268Y-64752000D01*
X48124000Y-64751000D01*
X48124000Y-63549000D01*
X48125000Y-63547268D01*
X48126000Y-63547000D01*
X48274000Y-63547000D01*
X48275732Y-63548000D01*
G37*
G36*
X46325732Y-63548000D02*
G01*
X46326000Y-63549000D01*
X46326000Y-64751000D01*
X46325000Y-64752732D01*
X46324000Y-64753000D01*
X46176000Y-64753000D01*
X46174268Y-64752000D01*
X46174000Y-64751000D01*
X46174000Y-63549000D01*
X46175000Y-63547268D01*
X46176000Y-63547000D01*
X46324000Y-63547000D01*
X46325732Y-63548000D01*
G37*
G36*
X37852732Y-55875000D02*
G01*
X37853000Y-55876000D01*
X37853000Y-56074000D01*
X37852000Y-56075732D01*
X37851000Y-56076000D01*
X36529000Y-56076000D01*
X36527268Y-56075000D01*
X36527000Y-56074000D01*
X36527000Y-55876000D01*
X36528000Y-55874268D01*
X36529000Y-55874000D01*
X37851000Y-55874000D01*
X37852732Y-55875000D01*
G37*
G36*
X32852732Y-55875000D02*
G01*
X32853000Y-55876000D01*
X32853000Y-56074000D01*
X32852000Y-56075732D01*
X32851000Y-56076000D01*
X31529000Y-56076000D01*
X31527268Y-56075000D01*
X31527000Y-56074000D01*
X31527000Y-55876000D01*
X31528000Y-55874268D01*
X31529000Y-55874000D01*
X32851000Y-55874000D01*
X32852732Y-55875000D01*
G37*
G36*
X37852732Y-54925000D02*
G01*
X37853000Y-54926000D01*
X37853000Y-55124000D01*
X37852000Y-55125732D01*
X37851000Y-55126000D01*
X36529000Y-55126000D01*
X36527268Y-55125000D01*
X36527000Y-55124000D01*
X36527000Y-54926000D01*
X36528000Y-54924268D01*
X36529000Y-54924000D01*
X37851000Y-54924000D01*
X37852732Y-54925000D01*
G37*
G36*
X32852732Y-54925000D02*
G01*
X32853000Y-54926000D01*
X32853000Y-55124000D01*
X32852000Y-55125732D01*
X32851000Y-55126000D01*
X31529000Y-55126000D01*
X31527268Y-55125000D01*
X31527000Y-55124000D01*
X31527000Y-54926000D01*
X31528000Y-54924268D01*
X31529000Y-54924000D01*
X32851000Y-54924000D01*
X32852732Y-54925000D01*
G37*
G36*
X25602732Y-48500000D02*
G01*
X25603000Y-48501000D01*
X25603000Y-48689000D01*
X25602000Y-48690732D01*
X25601000Y-48691000D01*
X24299000Y-48691000D01*
X24297268Y-48690000D01*
X24297000Y-48689000D01*
X24297000Y-48501000D01*
X24298000Y-48499268D01*
X24299000Y-48499000D01*
X25601000Y-48499000D01*
X25602732Y-48500000D01*
G37*
G36*
X25602732Y-47500000D02*
G01*
X25603000Y-47501000D01*
X25603000Y-47699000D01*
X25602000Y-47700732D01*
X25601000Y-47701000D01*
X24299000Y-47701000D01*
X24297268Y-47700000D01*
X24297000Y-47699000D01*
X24297000Y-47501000D01*
X24298000Y-47499268D01*
X24299000Y-47499000D01*
X25601000Y-47499000D01*
X25602732Y-47500000D01*
G37*
G36*
X25602732Y-46510000D02*
G01*
X25603000Y-46511000D01*
X25603000Y-46699000D01*
X25602000Y-46700732D01*
X25601000Y-46701000D01*
X24299000Y-46701000D01*
X24297268Y-46700000D01*
X24297000Y-46699000D01*
X24297000Y-46511000D01*
X24298000Y-46509268D01*
X24299000Y-46509000D01*
X25601000Y-46509000D01*
X25602732Y-46510000D01*
G37*
M02*
