M48
; DRILL file {KiCad (5.1.12)-1} date 05/19/22 17:30:54
; FORMAT={-:-/ absolute / inch / decimal}
; #@! TF.CreationDate,2022-05-19T17:30:54+12:00
; #@! TF.GenerationSoftware,Kicad,Pcbnew,(5.1.12)-1
; #@! TF.FileFunction,Plated,1,2,PTH
FMAT,2
INCH
T1C0.0157
T2C0.0236
T3C0.0394
T4C0.0472
T5C0.0512
T6C0.0787
T7C0.0906
T8C0.0984
T9C0.1260
T10C0.1417
%
G90
G05
T1
X0.8819Y-3.622
X0.8858Y-4.2441
X0.9449Y-3.2205
X1.0866Y-3.1969
X1.1299Y-1.6614
X1.1575Y-2.3071
X1.1811Y-3.9764
X1.2362Y-3.7953
X1.252Y-2.7087
X1.252Y-2.9055
X1.2559Y-3.4449
X1.2643Y-2.2687
X1.2677Y-3.2598
X1.2677Y-4.1024
X1.2835Y-2.4173
X1.3346Y-1.8031
X1.3622Y-2.2953
X1.4055Y-4.2559
X1.4173Y-1.874
X1.4173Y-2.0787
X1.4252Y-2.9606
X1.4488Y-2.7244
X1.4646Y-2.2598
X1.4646Y-3.1024
X1.4724Y-3.315
X1.4843Y-2.8071
X1.5Y-2.6417
X1.5Y-4.0
X1.5433Y-2.4528
X1.5591Y-3.874
X1.5673Y-2.2224
X1.5709Y-3.5039
X1.6181Y-2.1772
X1.626Y-1.9606
X1.626Y-2.9646
X1.6299Y-2.2795
X1.6339Y-2.4173
X1.6496Y-3.1142
X1.6654Y-2.1102
X1.6693Y-2.6378
X1.6752Y-2.8445
X1.6811Y-2.5472
X1.7008Y-2.2047
X1.7362Y-3.0748
X1.7638Y-2.5197
X1.7756Y-2.7165
X1.7835Y-1.7205
X1.7874Y-2.4094
X1.811Y-3.0709
X1.8189Y-2.6417
X1.8228Y-2.4685
X1.8465Y-3.8031
X1.8661Y-3.1535
X1.874Y-2.0
X1.9016Y-2.9685
X1.937Y-2.4685
X1.9409Y-3.9921
X1.9449Y-1.7638
X1.9488Y-3.3071
X1.9528Y-2.0472
X1.9606Y-2.2874
X1.9685Y-2.8858
X2.0472Y-2.189
X2.0512Y-2.811
X2.063Y-3.2441
X2.0669Y-2.9685
X2.0866Y-2.0551
X2.0906Y-1.9567
X2.1181Y-2.4803
X2.122Y-2.378
X2.1299Y-2.5591
X2.1339Y-2.7638
X2.1378Y-3.3071
X2.1417Y-2.9094
X2.1417Y-3.063
X2.1535Y-2.2835
X2.1654Y-3.5669
X2.1732Y-1.8425
X2.189Y-2.6693
X2.1969Y-2.3071
X2.2047Y-1.9488
X2.2126Y-2.1575
X2.2205Y-2.7402
X2.2244Y-2.3976
X2.2244Y-3.1299
X2.2323Y-2.5315
X2.2362Y-3.9764
X2.248Y-4.2559
X2.252Y-2.8189
X2.2559Y-2.6102
X2.3071Y-3.685
X2.315Y-3.4724
X2.3386Y-2.8189
X2.3425Y-2.5039
X2.3583Y-2.2953
T3
X0.8685Y-2.7276
X0.8685Y-2.8177
X0.8685Y-2.9079
X0.8685Y-2.998
X0.8685Y-3.0882
X0.9685Y-2.7724
X0.9685Y-2.8626
X0.9685Y-2.9528
X0.9685Y-3.0429
X0.9685Y-3.1331
X1.0685Y-2.7276
X1.0685Y-2.8177
X1.0685Y-2.9079
X1.0685Y-2.998
X1.0685Y-3.0882
X1.8189Y-2.1181
X1.8189Y-2.2181
X1.8189Y-2.3181
T5
X1.1575Y-2.5083
X1.1575Y-2.6583
X1.1575Y-2.8083
X1.1575Y-2.9583
X1.1575Y-3.1083
X1.1575Y-3.2583
X1.1575Y-3.4083
X1.1575Y-3.5583
X1.1575Y-3.7083
X1.1575Y-3.8583
X1.3575Y-2.4333
X1.3575Y-2.5833
X1.3575Y-2.7333
X1.3575Y-2.8833
X1.3575Y-3.0333
X1.3575Y-3.1833
X1.3575Y-3.3333
X1.3575Y-3.4833
X1.3575Y-3.6333
X1.3575Y-3.7833
X1.3575Y-3.9333
T6
X2.4331Y-2.1457
X2.4331Y-2.7362
T7
X2.7222Y-2.0262
X2.7222Y-2.8556
T8
X2.5984Y-1.6614
X2.5984Y-3.2205
T9
X0.9685Y-2.426
X0.9685Y-3.4102
T10
X1.0709Y-2.1654
X1.0709Y-4.2232
T2
G00X0.815Y-1.7039
M15
G01X0.8386Y-1.7039
M16
G05
G00X0.815Y-2.0441
M15
G01X0.8386Y-2.0441
M16
G05
G00X0.9646Y-1.7039
M15
G01X0.9882Y-1.7039
M16
G05
G00X0.9646Y-2.0441
M15
G01X0.9882Y-2.0441
M16
G05
T3
G00X2.4508Y-3.5669
M15
G01X2.3917Y-3.5669
M16
G05
G00X2.4508Y-4.0795
M15
G01X2.3917Y-4.0795
M16
G05
T4
G00X2.3858Y-1.8504
M15
G01X2.4567Y-1.8504
M16
G05
G00X2.3858Y-2.4409
M15
G01X2.4567Y-2.4409
M16
G05
G00X2.3858Y-3.0315
M15
G01X2.4567Y-3.0315
M16
G05
G00X2.5984Y-1.8823
M15
G01X2.5984Y-1.8185
M16
G05
G00X2.5984Y-2.4728
M15
G01X2.5984Y-2.4091
M16
G05
G00X2.5984Y-3.0634
M15
G01X2.5984Y-2.9996
M16
G05
T5
G00X2.5984Y-3.5433
M15
G01X2.5984Y-3.5906
M16
G05
G00X2.5984Y-4.0559
M15
G01X2.5984Y-4.1031
M16
G05
T0
M30
