G04 #@! TF.GenerationSoftware,KiCad,Pcbnew,(5.1.8)-1*
G04 #@! TF.CreationDate,2021-01-22T17:08:18+13:00*
G04 #@! TF.ProjectId,comprgb,636f6d70-7267-4622-9e6b-696361645f70,rev?*
G04 #@! TF.SameCoordinates,Original*
G04 #@! TF.FileFunction,Paste,Top*
G04 #@! TF.FilePolarity,Positive*
%FSLAX46Y46*%
G04 Gerber Fmt 4.6, Leading zero omitted, Abs format (unit mm)*
G04 Created by KiCad (PCBNEW (5.1.8)-1) date 2021-01-22 17:08:18*
%MOMM*%
%LPD*%
G01*
G04 APERTURE LIST*
%ADD10R,0.300000X1.400000*%
%ADD11R,0.400000X1.100000*%
%ADD12R,0.800000X0.900000*%
%ADD13R,1.220000X0.650000*%
G04 APERTURE END LIST*
G36*
G01*
X52050000Y-62575000D02*
X52050000Y-61625000D01*
G75*
G02*
X52300000Y-61375000I250000J0D01*
G01*
X52800000Y-61375000D01*
G75*
G02*
X53050000Y-61625000I0J-250000D01*
G01*
X53050000Y-62575000D01*
G75*
G02*
X52800000Y-62825000I-250000J0D01*
G01*
X52300000Y-62825000D01*
G75*
G02*
X52050000Y-62575000I0J250000D01*
G01*
G37*
G36*
G01*
X50150000Y-62575000D02*
X50150000Y-61625000D01*
G75*
G02*
X50400000Y-61375000I250000J0D01*
G01*
X50900000Y-61375000D01*
G75*
G02*
X51150000Y-61625000I0J-250000D01*
G01*
X51150000Y-62575000D01*
G75*
G02*
X50900000Y-62825000I-250000J0D01*
G01*
X50400000Y-62825000D01*
G75*
G02*
X50150000Y-62575000I0J250000D01*
G01*
G37*
G36*
G01*
X32375000Y-42618750D02*
X32375000Y-43381250D01*
G75*
G02*
X32156250Y-43600000I-218750J0D01*
G01*
X31718750Y-43600000D01*
G75*
G02*
X31500000Y-43381250I0J218750D01*
G01*
X31500000Y-42618750D01*
G75*
G02*
X31718750Y-42400000I218750J0D01*
G01*
X32156250Y-42400000D01*
G75*
G02*
X32375000Y-42618750I0J-218750D01*
G01*
G37*
G36*
G01*
X34500000Y-42618750D02*
X34500000Y-43381250D01*
G75*
G02*
X34281250Y-43600000I-218750J0D01*
G01*
X33843750Y-43600000D01*
G75*
G02*
X33625000Y-43381250I0J218750D01*
G01*
X33625000Y-42618750D01*
G75*
G02*
X33843750Y-42400000I218750J0D01*
G01*
X34281250Y-42400000D01*
G75*
G02*
X34500000Y-42618750I0J-218750D01*
G01*
G37*
G36*
G01*
X29200000Y-47749999D02*
X29200000Y-48650001D01*
G75*
G02*
X28950001Y-48900000I-249999J0D01*
G01*
X28424999Y-48900000D01*
G75*
G02*
X28175000Y-48650001I0J249999D01*
G01*
X28175000Y-47749999D01*
G75*
G02*
X28424999Y-47500000I249999J0D01*
G01*
X28950001Y-47500000D01*
G75*
G02*
X29200000Y-47749999I0J-249999D01*
G01*
G37*
G36*
G01*
X31025000Y-47749999D02*
X31025000Y-48650001D01*
G75*
G02*
X30775001Y-48900000I-249999J0D01*
G01*
X30249999Y-48900000D01*
G75*
G02*
X30000000Y-48650001I0J249999D01*
G01*
X30000000Y-47749999D01*
G75*
G02*
X30249999Y-47500000I249999J0D01*
G01*
X30775001Y-47500000D01*
G75*
G02*
X31025000Y-47749999I0J-249999D01*
G01*
G37*
G36*
G01*
X29200000Y-45749999D02*
X29200000Y-46650001D01*
G75*
G02*
X28950001Y-46900000I-249999J0D01*
G01*
X28424999Y-46900000D01*
G75*
G02*
X28175000Y-46650001I0J249999D01*
G01*
X28175000Y-45749999D01*
G75*
G02*
X28424999Y-45500000I249999J0D01*
G01*
X28950001Y-45500000D01*
G75*
G02*
X29200000Y-45749999I0J-249999D01*
G01*
G37*
G36*
G01*
X31025000Y-45749999D02*
X31025000Y-46650001D01*
G75*
G02*
X30775001Y-46900000I-249999J0D01*
G01*
X30249999Y-46900000D01*
G75*
G02*
X30000000Y-46650001I0J249999D01*
G01*
X30000000Y-45749999D01*
G75*
G02*
X30249999Y-45500000I249999J0D01*
G01*
X30775001Y-45500000D01*
G75*
G02*
X31025000Y-45749999I0J-249999D01*
G01*
G37*
G36*
G01*
X39600000Y-73549999D02*
X39600000Y-74450001D01*
G75*
G02*
X39350001Y-74700000I-249999J0D01*
G01*
X38824999Y-74700000D01*
G75*
G02*
X38575000Y-74450001I0J249999D01*
G01*
X38575000Y-73549999D01*
G75*
G02*
X38824999Y-73300000I249999J0D01*
G01*
X39350001Y-73300000D01*
G75*
G02*
X39600000Y-73549999I0J-249999D01*
G01*
G37*
G36*
G01*
X41425000Y-73549999D02*
X41425000Y-74450001D01*
G75*
G02*
X41175001Y-74700000I-249999J0D01*
G01*
X40649999Y-74700000D01*
G75*
G02*
X40400000Y-74450001I0J249999D01*
G01*
X40400000Y-73549999D01*
G75*
G02*
X40649999Y-73300000I249999J0D01*
G01*
X41175001Y-73300000D01*
G75*
G02*
X41425000Y-73549999I0J-249999D01*
G01*
G37*
G36*
G01*
X40500000Y-71650001D02*
X40500000Y-70749999D01*
G75*
G02*
X40749999Y-70500000I249999J0D01*
G01*
X41275001Y-70500000D01*
G75*
G02*
X41525000Y-70749999I0J-249999D01*
G01*
X41525000Y-71650001D01*
G75*
G02*
X41275001Y-71900000I-249999J0D01*
G01*
X40749999Y-71900000D01*
G75*
G02*
X40500000Y-71650001I0J249999D01*
G01*
G37*
G36*
G01*
X38675000Y-71650001D02*
X38675000Y-70749999D01*
G75*
G02*
X38924999Y-70500000I249999J0D01*
G01*
X39450001Y-70500000D01*
G75*
G02*
X39700000Y-70749999I0J-249999D01*
G01*
X39700000Y-71650001D01*
G75*
G02*
X39450001Y-71900000I-249999J0D01*
G01*
X38924999Y-71900000D01*
G75*
G02*
X38675000Y-71650001I0J249999D01*
G01*
G37*
G36*
G01*
X56150001Y-71600000D02*
X55249999Y-71600000D01*
G75*
G02*
X55000000Y-71350001I0J249999D01*
G01*
X55000000Y-70824999D01*
G75*
G02*
X55249999Y-70575000I249999J0D01*
G01*
X56150001Y-70575000D01*
G75*
G02*
X56400000Y-70824999I0J-249999D01*
G01*
X56400000Y-71350001D01*
G75*
G02*
X56150001Y-71600000I-249999J0D01*
G01*
G37*
G36*
G01*
X56150001Y-73425000D02*
X55249999Y-73425000D01*
G75*
G02*
X55000000Y-73175001I0J249999D01*
G01*
X55000000Y-72649999D01*
G75*
G02*
X55249999Y-72400000I249999J0D01*
G01*
X56150001Y-72400000D01*
G75*
G02*
X56400000Y-72649999I0J-249999D01*
G01*
X56400000Y-73175001D01*
G75*
G02*
X56150001Y-73425000I-249999J0D01*
G01*
G37*
G36*
G01*
X57249999Y-48400000D02*
X58150001Y-48400000D01*
G75*
G02*
X58400000Y-48649999I0J-249999D01*
G01*
X58400000Y-49175001D01*
G75*
G02*
X58150001Y-49425000I-249999J0D01*
G01*
X57249999Y-49425000D01*
G75*
G02*
X57000000Y-49175001I0J249999D01*
G01*
X57000000Y-48649999D01*
G75*
G02*
X57249999Y-48400000I249999J0D01*
G01*
G37*
G36*
G01*
X57249999Y-46575000D02*
X58150001Y-46575000D01*
G75*
G02*
X58400000Y-46824999I0J-249999D01*
G01*
X58400000Y-47350001D01*
G75*
G02*
X58150001Y-47600000I-249999J0D01*
G01*
X57249999Y-47600000D01*
G75*
G02*
X57000000Y-47350001I0J249999D01*
G01*
X57000000Y-46824999D01*
G75*
G02*
X57249999Y-46575000I249999J0D01*
G01*
G37*
G36*
G01*
X58550001Y-58700000D02*
X57649999Y-58700000D01*
G75*
G02*
X57400000Y-58450001I0J249999D01*
G01*
X57400000Y-57924999D01*
G75*
G02*
X57649999Y-57675000I249999J0D01*
G01*
X58550001Y-57675000D01*
G75*
G02*
X58800000Y-57924999I0J-249999D01*
G01*
X58800000Y-58450001D01*
G75*
G02*
X58550001Y-58700000I-249999J0D01*
G01*
G37*
G36*
G01*
X58550001Y-60525000D02*
X57649999Y-60525000D01*
G75*
G02*
X57400000Y-60275001I0J249999D01*
G01*
X57400000Y-59749999D01*
G75*
G02*
X57649999Y-59500000I249999J0D01*
G01*
X58550001Y-59500000D01*
G75*
G02*
X58800000Y-59749999I0J-249999D01*
G01*
X58800000Y-60275001D01*
G75*
G02*
X58550001Y-60525000I-249999J0D01*
G01*
G37*
G36*
G01*
X57549999Y-76568000D02*
X58450001Y-76568000D01*
G75*
G02*
X58700000Y-76817999I0J-249999D01*
G01*
X58700000Y-77343001D01*
G75*
G02*
X58450001Y-77593000I-249999J0D01*
G01*
X57549999Y-77593000D01*
G75*
G02*
X57300000Y-77343001I0J249999D01*
G01*
X57300000Y-76817999D01*
G75*
G02*
X57549999Y-76568000I249999J0D01*
G01*
G37*
G36*
G01*
X57549999Y-78393000D02*
X58450001Y-78393000D01*
G75*
G02*
X58700000Y-78642999I0J-249999D01*
G01*
X58700000Y-79168001D01*
G75*
G02*
X58450001Y-79418000I-249999J0D01*
G01*
X57549999Y-79418000D01*
G75*
G02*
X57300000Y-79168001I0J249999D01*
G01*
X57300000Y-78642999D01*
G75*
G02*
X57549999Y-78393000I249999J0D01*
G01*
G37*
G36*
G01*
X40400000Y-47149999D02*
X40400000Y-48050001D01*
G75*
G02*
X40150001Y-48300000I-249999J0D01*
G01*
X39624999Y-48300000D01*
G75*
G02*
X39375000Y-48050001I0J249999D01*
G01*
X39375000Y-47149999D01*
G75*
G02*
X39624999Y-46900000I249999J0D01*
G01*
X40150001Y-46900000D01*
G75*
G02*
X40400000Y-47149999I0J-249999D01*
G01*
G37*
G36*
G01*
X42225000Y-47149999D02*
X42225000Y-48050001D01*
G75*
G02*
X41975001Y-48300000I-249999J0D01*
G01*
X41449999Y-48300000D01*
G75*
G02*
X41200000Y-48050001I0J249999D01*
G01*
X41200000Y-47149999D01*
G75*
G02*
X41449999Y-46900000I249999J0D01*
G01*
X41975001Y-46900000D01*
G75*
G02*
X42225000Y-47149999I0J-249999D01*
G01*
G37*
G36*
G01*
X44200000Y-47149999D02*
X44200000Y-48050001D01*
G75*
G02*
X43950001Y-48300000I-249999J0D01*
G01*
X43424999Y-48300000D01*
G75*
G02*
X43175000Y-48050001I0J249999D01*
G01*
X43175000Y-47149999D01*
G75*
G02*
X43424999Y-46900000I249999J0D01*
G01*
X43950001Y-46900000D01*
G75*
G02*
X44200000Y-47149999I0J-249999D01*
G01*
G37*
G36*
G01*
X46025000Y-47149999D02*
X46025000Y-48050001D01*
G75*
G02*
X45775001Y-48300000I-249999J0D01*
G01*
X45249999Y-48300000D01*
G75*
G02*
X45000000Y-48050001I0J249999D01*
G01*
X45000000Y-47149999D01*
G75*
G02*
X45249999Y-46900000I249999J0D01*
G01*
X45775001Y-46900000D01*
G75*
G02*
X46025000Y-47149999I0J-249999D01*
G01*
G37*
G36*
G01*
X55225000Y-76550000D02*
X56175000Y-76550000D01*
G75*
G02*
X56425000Y-76800000I0J-250000D01*
G01*
X56425000Y-77300000D01*
G75*
G02*
X56175000Y-77550000I-250000J0D01*
G01*
X55225000Y-77550000D01*
G75*
G02*
X54975000Y-77300000I0J250000D01*
G01*
X54975000Y-76800000D01*
G75*
G02*
X55225000Y-76550000I250000J0D01*
G01*
G37*
G36*
G01*
X55225000Y-74650000D02*
X56175000Y-74650000D01*
G75*
G02*
X56425000Y-74900000I0J-250000D01*
G01*
X56425000Y-75400000D01*
G75*
G02*
X56175000Y-75650000I-250000J0D01*
G01*
X55225000Y-75650000D01*
G75*
G02*
X54975000Y-75400000I0J250000D01*
G01*
X54975000Y-74900000D01*
G75*
G02*
X55225000Y-74650000I250000J0D01*
G01*
G37*
G36*
G01*
X48475000Y-84550000D02*
X47525000Y-84550000D01*
G75*
G02*
X47275000Y-84300000I0J250000D01*
G01*
X47275000Y-83800000D01*
G75*
G02*
X47525000Y-83550000I250000J0D01*
G01*
X48475000Y-83550000D01*
G75*
G02*
X48725000Y-83800000I0J-250000D01*
G01*
X48725000Y-84300000D01*
G75*
G02*
X48475000Y-84550000I-250000J0D01*
G01*
G37*
G36*
G01*
X48475000Y-86450000D02*
X47525000Y-86450000D01*
G75*
G02*
X47275000Y-86200000I0J250000D01*
G01*
X47275000Y-85700000D01*
G75*
G02*
X47525000Y-85450000I250000J0D01*
G01*
X48475000Y-85450000D01*
G75*
G02*
X48725000Y-85700000I0J-250000D01*
G01*
X48725000Y-86200000D01*
G75*
G02*
X48475000Y-86450000I-250000J0D01*
G01*
G37*
G36*
G01*
X44475000Y-66550000D02*
X43525000Y-66550000D01*
G75*
G02*
X43275000Y-66300000I0J250000D01*
G01*
X43275000Y-65800000D01*
G75*
G02*
X43525000Y-65550000I250000J0D01*
G01*
X44475000Y-65550000D01*
G75*
G02*
X44725000Y-65800000I0J-250000D01*
G01*
X44725000Y-66300000D01*
G75*
G02*
X44475000Y-66550000I-250000J0D01*
G01*
G37*
G36*
G01*
X44475000Y-68450000D02*
X43525000Y-68450000D01*
G75*
G02*
X43275000Y-68200000I0J250000D01*
G01*
X43275000Y-67700000D01*
G75*
G02*
X43525000Y-67450000I250000J0D01*
G01*
X44475000Y-67450000D01*
G75*
G02*
X44725000Y-67700000I0J-250000D01*
G01*
X44725000Y-68200000D01*
G75*
G02*
X44475000Y-68450000I-250000J0D01*
G01*
G37*
G36*
G01*
X38450000Y-52225000D02*
X38450000Y-53175000D01*
G75*
G02*
X38200000Y-53425000I-250000J0D01*
G01*
X37700000Y-53425000D01*
G75*
G02*
X37450000Y-53175000I0J250000D01*
G01*
X37450000Y-52225000D01*
G75*
G02*
X37700000Y-51975000I250000J0D01*
G01*
X38200000Y-51975000D01*
G75*
G02*
X38450000Y-52225000I0J-250000D01*
G01*
G37*
G36*
G01*
X40350000Y-52225000D02*
X40350000Y-53175000D01*
G75*
G02*
X40100000Y-53425000I-250000J0D01*
G01*
X39600000Y-53425000D01*
G75*
G02*
X39350000Y-53175000I0J250000D01*
G01*
X39350000Y-52225000D01*
G75*
G02*
X39600000Y-51975000I250000J0D01*
G01*
X40100000Y-51975000D01*
G75*
G02*
X40350000Y-52225000I0J-250000D01*
G01*
G37*
G36*
G01*
X44150000Y-49125000D02*
X44150000Y-50075000D01*
G75*
G02*
X43900000Y-50325000I-250000J0D01*
G01*
X43400000Y-50325000D01*
G75*
G02*
X43150000Y-50075000I0J250000D01*
G01*
X43150000Y-49125000D01*
G75*
G02*
X43400000Y-48875000I250000J0D01*
G01*
X43900000Y-48875000D01*
G75*
G02*
X44150000Y-49125000I0J-250000D01*
G01*
G37*
G36*
G01*
X46050000Y-49125000D02*
X46050000Y-50075000D01*
G75*
G02*
X45800000Y-50325000I-250000J0D01*
G01*
X45300000Y-50325000D01*
G75*
G02*
X45050000Y-50075000I0J250000D01*
G01*
X45050000Y-49125000D01*
G75*
G02*
X45300000Y-48875000I250000J0D01*
G01*
X45800000Y-48875000D01*
G75*
G02*
X46050000Y-49125000I0J-250000D01*
G01*
G37*
G36*
G01*
X39025000Y-44550000D02*
X39975000Y-44550000D01*
G75*
G02*
X40225000Y-44800000I0J-250000D01*
G01*
X40225000Y-45300000D01*
G75*
G02*
X39975000Y-45550000I-250000J0D01*
G01*
X39025000Y-45550000D01*
G75*
G02*
X38775000Y-45300000I0J250000D01*
G01*
X38775000Y-44800000D01*
G75*
G02*
X39025000Y-44550000I250000J0D01*
G01*
G37*
G36*
G01*
X39025000Y-42650000D02*
X39975000Y-42650000D01*
G75*
G02*
X40225000Y-42900000I0J-250000D01*
G01*
X40225000Y-43400000D01*
G75*
G02*
X39975000Y-43650000I-250000J0D01*
G01*
X39025000Y-43650000D01*
G75*
G02*
X38775000Y-43400000I0J250000D01*
G01*
X38775000Y-42900000D01*
G75*
G02*
X39025000Y-42650000I250000J0D01*
G01*
G37*
G36*
G01*
X42525000Y-75950000D02*
X43475000Y-75950000D01*
G75*
G02*
X43725000Y-76200000I0J-250000D01*
G01*
X43725000Y-76700000D01*
G75*
G02*
X43475000Y-76950000I-250000J0D01*
G01*
X42525000Y-76950000D01*
G75*
G02*
X42275000Y-76700000I0J250000D01*
G01*
X42275000Y-76200000D01*
G75*
G02*
X42525000Y-75950000I250000J0D01*
G01*
G37*
G36*
G01*
X42525000Y-74050000D02*
X43475000Y-74050000D01*
G75*
G02*
X43725000Y-74300000I0J-250000D01*
G01*
X43725000Y-74800000D01*
G75*
G02*
X43475000Y-75050000I-250000J0D01*
G01*
X42525000Y-75050000D01*
G75*
G02*
X42275000Y-74800000I0J250000D01*
G01*
X42275000Y-74300000D01*
G75*
G02*
X42525000Y-74050000I250000J0D01*
G01*
G37*
G36*
G01*
X44525000Y-75950000D02*
X45475000Y-75950000D01*
G75*
G02*
X45725000Y-76200000I0J-250000D01*
G01*
X45725000Y-76700000D01*
G75*
G02*
X45475000Y-76950000I-250000J0D01*
G01*
X44525000Y-76950000D01*
G75*
G02*
X44275000Y-76700000I0J250000D01*
G01*
X44275000Y-76200000D01*
G75*
G02*
X44525000Y-75950000I250000J0D01*
G01*
G37*
G36*
G01*
X44525000Y-74050000D02*
X45475000Y-74050000D01*
G75*
G02*
X45725000Y-74300000I0J-250000D01*
G01*
X45725000Y-74800000D01*
G75*
G02*
X45475000Y-75050000I-250000J0D01*
G01*
X44525000Y-75050000D01*
G75*
G02*
X44275000Y-74800000I0J250000D01*
G01*
X44275000Y-74300000D01*
G75*
G02*
X44525000Y-74050000I250000J0D01*
G01*
G37*
G36*
G01*
X46525000Y-75950000D02*
X47475000Y-75950000D01*
G75*
G02*
X47725000Y-76200000I0J-250000D01*
G01*
X47725000Y-76700000D01*
G75*
G02*
X47475000Y-76950000I-250000J0D01*
G01*
X46525000Y-76950000D01*
G75*
G02*
X46275000Y-76700000I0J250000D01*
G01*
X46275000Y-76200000D01*
G75*
G02*
X46525000Y-75950000I250000J0D01*
G01*
G37*
G36*
G01*
X46525000Y-74050000D02*
X47475000Y-74050000D01*
G75*
G02*
X47725000Y-74300000I0J-250000D01*
G01*
X47725000Y-74800000D01*
G75*
G02*
X47475000Y-75050000I-250000J0D01*
G01*
X46525000Y-75050000D01*
G75*
G02*
X46275000Y-74800000I0J250000D01*
G01*
X46275000Y-74300000D01*
G75*
G02*
X46525000Y-74050000I250000J0D01*
G01*
G37*
G36*
G01*
X52775000Y-58650000D02*
X51825000Y-58650000D01*
G75*
G02*
X51575000Y-58400000I0J250000D01*
G01*
X51575000Y-57900000D01*
G75*
G02*
X51825000Y-57650000I250000J0D01*
G01*
X52775000Y-57650000D01*
G75*
G02*
X53025000Y-57900000I0J-250000D01*
G01*
X53025000Y-58400000D01*
G75*
G02*
X52775000Y-58650000I-250000J0D01*
G01*
G37*
G36*
G01*
X52775000Y-60550000D02*
X51825000Y-60550000D01*
G75*
G02*
X51575000Y-60300000I0J250000D01*
G01*
X51575000Y-59800000D01*
G75*
G02*
X51825000Y-59550000I250000J0D01*
G01*
X52775000Y-59550000D01*
G75*
G02*
X53025000Y-59800000I0J-250000D01*
G01*
X53025000Y-60300000D01*
G75*
G02*
X52775000Y-60550000I-250000J0D01*
G01*
G37*
G36*
G01*
X58575000Y-62650000D02*
X57625000Y-62650000D01*
G75*
G02*
X57375000Y-62400000I0J250000D01*
G01*
X57375000Y-61900000D01*
G75*
G02*
X57625000Y-61650000I250000J0D01*
G01*
X58575000Y-61650000D01*
G75*
G02*
X58825000Y-61900000I0J-250000D01*
G01*
X58825000Y-62400000D01*
G75*
G02*
X58575000Y-62650000I-250000J0D01*
G01*
G37*
G36*
G01*
X58575000Y-64550000D02*
X57625000Y-64550000D01*
G75*
G02*
X57375000Y-64300000I0J250000D01*
G01*
X57375000Y-63800000D01*
G75*
G02*
X57625000Y-63550000I250000J0D01*
G01*
X58575000Y-63550000D01*
G75*
G02*
X58825000Y-63800000I0J-250000D01*
G01*
X58825000Y-64300000D01*
G75*
G02*
X58575000Y-64550000I-250000J0D01*
G01*
G37*
G36*
G01*
X57525000Y-72550000D02*
X58475000Y-72550000D01*
G75*
G02*
X58725000Y-72800000I0J-250000D01*
G01*
X58725000Y-73300000D01*
G75*
G02*
X58475000Y-73550000I-250000J0D01*
G01*
X57525000Y-73550000D01*
G75*
G02*
X57275000Y-73300000I0J250000D01*
G01*
X57275000Y-72800000D01*
G75*
G02*
X57525000Y-72550000I250000J0D01*
G01*
G37*
G36*
G01*
X57525000Y-74450000D02*
X58475000Y-74450000D01*
G75*
G02*
X58725000Y-74700000I0J-250000D01*
G01*
X58725000Y-75200000D01*
G75*
G02*
X58475000Y-75450000I-250000J0D01*
G01*
X57525000Y-75450000D01*
G75*
G02*
X57275000Y-75200000I0J250000D01*
G01*
X57275000Y-74700000D01*
G75*
G02*
X57525000Y-74450000I250000J0D01*
G01*
G37*
D10*
X45400000Y-87500000D03*
X44900000Y-87500000D03*
X44400000Y-87500000D03*
X43900000Y-87500000D03*
X43400000Y-87500000D03*
X43400000Y-83100000D03*
X43900000Y-83100000D03*
X44400000Y-83100000D03*
X44900000Y-83100000D03*
X45400000Y-83100000D03*
D11*
X53075000Y-69850000D03*
X52425000Y-69850000D03*
X51775000Y-69850000D03*
X51125000Y-69850000D03*
X50475000Y-69850000D03*
X49825000Y-69850000D03*
X49175000Y-69850000D03*
X48525000Y-69850000D03*
X47875000Y-69850000D03*
X47225000Y-69850000D03*
X46575000Y-69850000D03*
X45925000Y-69850000D03*
X45925000Y-64150000D03*
X46575000Y-64150000D03*
X47225000Y-64150000D03*
X47875000Y-64150000D03*
X48525000Y-64150000D03*
X49175000Y-64150000D03*
X49825000Y-64150000D03*
X50475000Y-64150000D03*
X51125000Y-64150000D03*
X51775000Y-64150000D03*
X52425000Y-64150000D03*
X53075000Y-64150000D03*
D12*
X42746000Y-43142000D03*
X43696000Y-45142000D03*
X41796000Y-45142000D03*
G36*
G01*
X51550000Y-45750000D02*
X50450000Y-45750000D01*
G75*
G02*
X50200000Y-45500000I0J250000D01*
G01*
X50200000Y-42500000D01*
G75*
G02*
X50450000Y-42250000I250000J0D01*
G01*
X51550000Y-42250000D01*
G75*
G02*
X51800000Y-42500000I0J-250000D01*
G01*
X51800000Y-45500000D01*
G75*
G02*
X51550000Y-45750000I-250000J0D01*
G01*
G37*
G36*
G01*
X51550000Y-51150000D02*
X50450000Y-51150000D01*
G75*
G02*
X50200000Y-50900000I0J250000D01*
G01*
X50200000Y-47900000D01*
G75*
G02*
X50450000Y-47650000I250000J0D01*
G01*
X51550000Y-47650000D01*
G75*
G02*
X51800000Y-47900000I0J-250000D01*
G01*
X51800000Y-50900000D01*
G75*
G02*
X51550000Y-51150000I-250000J0D01*
G01*
G37*
G36*
G01*
X39956250Y-86050000D02*
X39043750Y-86050000D01*
G75*
G02*
X38800000Y-85806250I0J243750D01*
G01*
X38800000Y-85318750D01*
G75*
G02*
X39043750Y-85075000I243750J0D01*
G01*
X39956250Y-85075000D01*
G75*
G02*
X40200000Y-85318750I0J-243750D01*
G01*
X40200000Y-85806250D01*
G75*
G02*
X39956250Y-86050000I-243750J0D01*
G01*
G37*
G36*
G01*
X39956250Y-87925000D02*
X39043750Y-87925000D01*
G75*
G02*
X38800000Y-87681250I0J243750D01*
G01*
X38800000Y-87193750D01*
G75*
G02*
X39043750Y-86950000I243750J0D01*
G01*
X39956250Y-86950000D01*
G75*
G02*
X40200000Y-87193750I0J-243750D01*
G01*
X40200000Y-87681250D01*
G75*
G02*
X39956250Y-87925000I-243750J0D01*
G01*
G37*
G36*
G01*
X39043750Y-78950000D02*
X39956250Y-78950000D01*
G75*
G02*
X40200000Y-79193750I0J-243750D01*
G01*
X40200000Y-79681250D01*
G75*
G02*
X39956250Y-79925000I-243750J0D01*
G01*
X39043750Y-79925000D01*
G75*
G02*
X38800000Y-79681250I0J243750D01*
G01*
X38800000Y-79193750D01*
G75*
G02*
X39043750Y-78950000I243750J0D01*
G01*
G37*
G36*
G01*
X39043750Y-77075000D02*
X39956250Y-77075000D01*
G75*
G02*
X40200000Y-77318750I0J-243750D01*
G01*
X40200000Y-77806250D01*
G75*
G02*
X39956250Y-78050000I-243750J0D01*
G01*
X39043750Y-78050000D01*
G75*
G02*
X38800000Y-77806250I0J243750D01*
G01*
X38800000Y-77318750D01*
G75*
G02*
X39043750Y-77075000I243750J0D01*
G01*
G37*
G36*
G01*
X39043750Y-82950000D02*
X39956250Y-82950000D01*
G75*
G02*
X40200000Y-83193750I0J-243750D01*
G01*
X40200000Y-83681250D01*
G75*
G02*
X39956250Y-83925000I-243750J0D01*
G01*
X39043750Y-83925000D01*
G75*
G02*
X38800000Y-83681250I0J243750D01*
G01*
X38800000Y-83193750D01*
G75*
G02*
X39043750Y-82950000I243750J0D01*
G01*
G37*
G36*
G01*
X39043750Y-81075000D02*
X39956250Y-81075000D01*
G75*
G02*
X40200000Y-81318750I0J-243750D01*
G01*
X40200000Y-81806250D01*
G75*
G02*
X39956250Y-82050000I-243750J0D01*
G01*
X39043750Y-82050000D01*
G75*
G02*
X38800000Y-81806250I0J243750D01*
G01*
X38800000Y-81318750D01*
G75*
G02*
X39043750Y-81075000I243750J0D01*
G01*
G37*
D13*
X39810000Y-54550000D03*
X39810000Y-56450000D03*
X37190000Y-56450000D03*
X37190000Y-55500000D03*
X37190000Y-54550000D03*
X34810000Y-54550000D03*
X34810000Y-56450000D03*
X32190000Y-56450000D03*
X32190000Y-55500000D03*
X32190000Y-54550000D03*
M02*
