M48
; DRILL file {KiCad 9.0.5} date 2025-10-18T14:04:28+1300
; FORMAT={-:-/ absolute / inch / decimal}
; #@! TF.CreationDate,2025-10-18T14:04:28+13:00
; #@! TF.GenerationSoftware,Kicad,Pcbnew,9.0.5
; #@! TF.FileFunction,Plated,1,2,PTH
FMAT,2
INCH
; #@! TA.AperFunction,Plated,PTH,ViaDrill
T1C0.0157
; #@! TA.AperFunction,Plated,PTH,ComponentDrill
T2C0.0236
; #@! TA.AperFunction,Plated,PTH,ComponentDrill
T3C0.0394
; #@! TA.AperFunction,Plated,PTH,ComponentDrill
T4C0.0472
; #@! TA.AperFunction,Plated,PTH,ComponentDrill
T5C0.0512
; #@! TA.AperFunction,Plated,PTH,ComponentDrill
T6C0.0787
; #@! TA.AperFunction,Plated,PTH,ComponentDrill
T7C0.0906
; #@! TA.AperFunction,Plated,PTH,ComponentDrill
T8C0.0984
; #@! TA.AperFunction,Plated,PTH,ComponentDrill
T9C0.1260
; #@! TA.AperFunction,Plated,PTH,ComponentDrill
T10C0.1417
%
G90
G05
T1
X-2.0709Y-0.6693
X-2.0669Y-1.2913
X-2.0079Y-0.2677
X-1.8661Y-0.2441
X-1.8228Y1.2913
X-1.7953Y0.6457
X-1.7717Y-1.0236
X-1.7165Y-0.8425
X-1.7008Y0.2441
X-1.7008Y0.0472
X-1.6969Y-0.4921
X-1.6885Y0.684
X-1.685Y-0.3071
X-1.685Y-1.1496
X-1.6693Y0.5354
X-1.6181Y1.1496
X-1.5906Y0.6575
X-1.5472Y-1.3031
X-1.5354Y1.0787
X-1.5354Y0.874
X-1.5276Y-0.0079
X-1.5039Y0.2283
X-1.4882Y0.6929
X-1.4882Y-0.1496
X-1.4803Y-0.3622
X-1.4685Y0.1457
X-1.4528Y0.311
X-1.4528Y-1.0472
X-1.4094Y0.5
X-1.3937Y-0.9213
X-1.3854Y0.7303
X-1.3819Y-0.5512
X-1.3346Y0.7756
X-1.3268Y0.9921
X-1.3268Y-0.0118
X-1.3228Y0.6732
X-1.3189Y0.5354
X-1.3031Y-0.1614
X-1.2874Y0.8425
X-1.2835Y0.315
X-1.2776Y0.1083
X-1.2717Y0.4055
X-1.252Y0.748
X-1.2165Y-0.122
X-1.189Y0.4331
X-1.1772Y0.2362
X-1.1693Y1.2323
X-1.1654Y0.5433
X-1.1417Y-0.1181
X-1.1339Y0.311
X-1.1299Y0.4843
X-1.1063Y-0.8504
X-1.0866Y-0.2008
X-1.0787Y0.9528
X-1.0512Y-0.0157
X-1.0157Y0.4843
X-1.0118Y-1.0394
X-1.0079Y1.189
X-1.0039Y-0.3543
X-1.0Y0.9055
X-0.9921Y0.6654
X-0.9843Y0.0669
X-0.9055Y0.7638
X-0.9016Y0.1417
X-0.8898Y-0.2913
X-0.8858Y-0.0157
X-0.8661Y0.8976
X-0.8622Y0.9961
X-0.8346Y0.4724
X-0.8307Y0.5748
X-0.8228Y0.3937
X-0.8189Y0.189
X-0.815Y-0.3543
X-0.811Y0.0433
X-0.811Y-0.1102
X-0.7992Y0.6693
X-0.7874Y-0.6142
X-0.7795Y1.1102
X-0.7638Y0.2835
X-0.7559Y0.6457
X-0.748Y1.0039
X-0.7402Y0.7953
X-0.7323Y0.2126
X-0.7283Y0.5551
X-0.7283Y-0.1772
X-0.7205Y0.4213
X-0.7165Y-1.0236
X-0.7047Y-1.3031
X-0.7008Y0.1339
X-0.6969Y0.3425
X-0.6457Y-0.7323
X-0.6378Y-0.5197
X-0.6142Y0.1339
X-0.6102Y0.4488
X-0.5945Y0.6575
T3
X-2.0843Y0.2252
X-2.0843Y0.135
X-2.0843Y0.0449
X-2.0843Y-0.0453
X-2.0843Y-0.1354
X-1.9843Y0.1803
X-1.9843Y0.0902
X-1.9843Y0.0
X-1.9843Y-0.0902
X-1.9843Y-0.1803
X-1.8843Y0.2252
X-1.8843Y0.135
X-1.8843Y0.0449
X-1.8843Y-0.0453
X-1.8843Y-0.1354
X-1.1339Y0.8346
X-1.1339Y0.7346
X-1.1339Y0.6346
T5
X-1.7953Y0.4445
X-1.7953Y0.2945
X-1.7953Y0.1445
X-1.7953Y-0.0055
X-1.7953Y-0.1555
X-1.7953Y-0.3055
X-1.7953Y-0.4555
X-1.7953Y-0.6055
X-1.7953Y-0.7555
X-1.7953Y-0.9055
X-1.5953Y0.5195
X-1.5953Y0.3695
X-1.5953Y0.2195
X-1.5953Y0.0695
X-1.5953Y-0.0805
X-1.5953Y-0.2305
X-1.5953Y-0.3805
X-1.5953Y-0.5305
X-1.5953Y-0.6805
X-1.5953Y-0.8305
X-1.5953Y-0.9805
T6
X-0.5197Y0.8071
X-0.5197Y0.2165
T7
X-0.2305Y0.9265
X-0.2305Y0.0971
T8
X-0.3543Y1.2913
X-0.3543Y-0.2677
T9
X-1.9843Y0.5268
X-1.9843Y-0.4575
T10
X-1.8819Y0.7874
X-1.8819Y-1.2705
T2
G00X-2.1378Y1.2488
M15
G01X-2.1142Y1.2488
M16
G05
G00X-2.1378Y0.9087
M15
G01X-2.1142Y0.9087
M16
G05
G00X-1.9882Y1.2488
M15
G01X-1.9646Y1.2488
M16
G05
G00X-1.9882Y0.9087
M15
G01X-1.9646Y0.9087
M16
G05
T3
G00X-0.502Y-0.6142
M15
G01X-0.561Y-0.6142
M16
G05
G00X-0.502Y-1.1268
M15
G01X-0.561Y-1.1268
M16
G05
T4
G00X-0.5669Y1.1024
M15
G01X-0.4961Y1.1024
M16
G05
G00X-0.5669Y0.5118
M15
G01X-0.4961Y0.5118
M16
G05
G00X-0.5669Y-0.0787
M15
G01X-0.4961Y-0.0787
M16
G05
G00X-0.3543Y1.0705
M15
G01X-0.3543Y1.1343
M16
G05
G00X-0.3543Y0.4799
M15
G01X-0.3543Y0.5437
M16
G05
G00X-0.3543Y-0.1106
M15
G01X-0.3543Y-0.0469
M16
G05
T5
G00X-0.3543Y-0.5906
M15
G01X-0.3543Y-0.6378
M16
G05
G00X-0.3543Y-1.1031
M15
G01X-0.3543Y-1.1504
M16
G05
M30
