%TF.GenerationSoftware,KiCad,Pcbnew,9.0.1*%
%TF.CreationDate,2025-09-13T02:56:57+12:00*%
%TF.ProjectId,comprgb,636f6d70-7267-4622-9e6b-696361645f70,rev?*%
%TF.SameCoordinates,Original*%
%TF.FileFunction,Soldermask,Bot*%
%TF.FilePolarity,Negative*%
%FSLAX46Y46*%
G04 Gerber Fmt 4.6, Leading zero omitted, Abs format (unit mm)*
G04 Created by KiCad (PCBNEW 9.0.1) date 2025-09-13 02:56:57*
%MOMM*%
%LPD*%
G01*
G04 APERTURE LIST*
G04 Aperture macros list*
%AMRoundRect*
0 Rectangle with rounded corners*
0 $1 Rounding radius*
0 $2 $3 $4 $5 $6 $7 $8 $9 X,Y pos of 4 corners*
0 Add a 4 corners polygon primitive as box body*
4,1,4,$2,$3,$4,$5,$6,$7,$8,$9,$2,$3,0*
0 Add four circle primitives for the rounded corners*
1,1,$1+$1,$2,$3*
1,1,$1+$1,$4,$5*
1,1,$1+$1,$6,$7*
1,1,$1+$1,$8,$9*
0 Add four rect primitives between the rounded corners*
20,1,$1+$1,$2,$3,$4,$5,0*
20,1,$1+$1,$4,$5,$6,$7,0*
20,1,$1+$1,$6,$7,$8,$9,0*
20,1,$1+$1,$8,$9,$2,$3,0*%
G04 Aperture macros list end*
%ADD10C,4.102000*%
%ADD11C,2.302000*%
%ADD12O,2.602000X2.602000*%
%ADD13C,2.402000*%
%ADD14C,2.102000*%
%ADD15O,4.102000X3.102000*%
%ADD16O,3.102000X4.102000*%
%ADD17O,1.802000X1.202000*%
%ADD18C,1.702000*%
%ADD19C,4.602000*%
%ADD20O,3.102000X3.102000*%
%ADD21RoundRect,0.051000X-0.850000X-0.850000X0.850000X-0.850000X0.850000X0.850000X-0.850000X0.850000X0*%
%ADD22O,1.802000X1.802000*%
G04 APERTURE END LIST*
D10*
%TO.C,J4*%
X-47800000Y20000000D03*
X-47800000Y-32270000D03*
D11*
X-40520000Y-24905000D03*
X-45600000Y-23000000D03*
X-40520000Y-21095000D03*
X-45600000Y-19190000D03*
X-40520000Y-17285000D03*
X-45600000Y-15380000D03*
X-40520000Y-13475000D03*
X-45600000Y-11570000D03*
X-40520000Y-9665000D03*
X-45600000Y-7760000D03*
X-40520000Y-5855000D03*
X-45600000Y-3950000D03*
X-40520000Y-2045000D03*
X-45600000Y-140000D03*
X-40520000Y1765000D03*
X-45600000Y3670000D03*
X-40520000Y5575000D03*
X-45600000Y7480000D03*
X-40520000Y9385000D03*
X-45600000Y11290000D03*
X-40520000Y13195000D03*
%TD*%
D12*
%TO.C,J5*%
X-9000000Y-6800000D03*
D13*
X-5855480Y2466620D03*
D14*
X-13200000Y5500000D03*
X-13200000Y20500000D03*
D13*
X-5855480Y23533380D03*
D12*
X-9000000Y32800000D03*
D15*
X-13500000Y13000000D03*
X-13500000Y28000000D03*
X-13500000Y-2000000D03*
D16*
X-9000000Y-2000000D03*
X-9000000Y13000000D03*
X-9000000Y28000000D03*
%TD*%
D17*
%TO.C,J3*%
X-54000000Y23080000D03*
X-50200000Y23080000D03*
X-54000000Y31720000D03*
X-50200000Y31720000D03*
%TD*%
D18*
%TO.C,J1*%
X-47860000Y-3440000D03*
X-47860000Y-1150000D03*
X-47860000Y1140000D03*
X-47860000Y3430000D03*
X-47860000Y5720000D03*
X-50400000Y-4580000D03*
X-50400000Y-2290000D03*
X-50400000Y0D03*
X-50400000Y2290000D03*
D19*
X-50400000Y13380000D03*
D18*
X-50400000Y4580000D03*
D19*
X-50400000Y-11620000D03*
D18*
X-52940000Y-3440000D03*
X-52940000Y-1150000D03*
X-52940000Y1140000D03*
X-52940000Y3430000D03*
X-52940000Y5720000D03*
%TD*%
D11*
%TO.C,JR1*%
X-5850000Y-11350000D03*
X-5850000Y-19850000D03*
D20*
X-13500000Y-15600000D03*
X-9000000Y-15600000D03*
%TD*%
D11*
%TO.C,JU1*%
X-5850000Y-24370000D03*
X-5850000Y-32870000D03*
D20*
X-13500000Y-28620000D03*
X-9000000Y-28620000D03*
%TD*%
D21*
%TO.C,J2*%
X-28800000Y21200000D03*
D22*
X-28800000Y18660000D03*
X-28800000Y16120000D03*
%TD*%
M02*
