%TF.GenerationSoftware,KiCad,Pcbnew,9.0.1*%
%TF.CreationDate,2025-09-13T02:56:57+12:00*%
%TF.ProjectId,comprgb,636f6d70-7267-4622-9e6b-696361645f70,rev?*%
%TF.SameCoordinates,Original*%
%TF.FileFunction,Copper,L2,Bot*%
%TF.FilePolarity,Positive*%
%FSLAX46Y46*%
G04 Gerber Fmt 4.6, Leading zero omitted, Abs format (unit mm)*
G04 Created by KiCad (PCBNEW 9.0.1) date 2025-09-13 02:56:57*
%MOMM*%
%LPD*%
G01*
G04 APERTURE LIST*
%TA.AperFunction,ComponentPad*%
%ADD10C,4.000000*%
%TD*%
%TA.AperFunction,ComponentPad*%
%ADD11C,2.200000*%
%TD*%
%TA.AperFunction,ComponentPad*%
%ADD12O,2.500000X2.500000*%
%TD*%
%TA.AperFunction,ComponentPad*%
%ADD13C,2.300000*%
%TD*%
%TA.AperFunction,ComponentPad*%
%ADD14C,2.000000*%
%TD*%
%TA.AperFunction,ComponentPad*%
%ADD15O,4.000000X3.000000*%
%TD*%
%TA.AperFunction,ComponentPad*%
%ADD16O,3.000000X4.000000*%
%TD*%
%TA.AperFunction,ComponentPad*%
%ADD17O,1.700000X1.100000*%
%TD*%
%TA.AperFunction,ComponentPad*%
%ADD18C,1.600000*%
%TD*%
%TA.AperFunction,ComponentPad*%
%ADD19C,4.500000*%
%TD*%
%TA.AperFunction,WasherPad*%
%ADD20C,2.200000*%
%TD*%
%TA.AperFunction,ComponentPad*%
%ADD21O,3.000000X3.000000*%
%TD*%
%TA.AperFunction,ComponentPad*%
%ADD22R,1.700000X1.700000*%
%TD*%
%TA.AperFunction,ComponentPad*%
%ADD23O,1.700000X1.700000*%
%TD*%
%TA.AperFunction,ViaPad*%
%ADD24C,0.800000*%
%TD*%
%TA.AperFunction,Conductor*%
%ADD25C,0.250000*%
%TD*%
G04 APERTURE END LIST*
D10*
%TO.P,J4,0*%
%TO.N,N/C*%
X-47800000Y20000000D03*
X-47800000Y-32270000D03*
D11*
%TO.P,J4,1*%
%TO.N,Net-(J4-Pad1)*%
X-40520000Y-24905000D03*
%TO.P,J4,2*%
%TO.N,Net-(J4-Pad2)*%
X-45600000Y-23000000D03*
%TO.P,J4,3*%
%TO.N,Net-(J4-Pad3)*%
X-40520000Y-21095000D03*
%TO.P,J4,4*%
%TO.N,GND*%
X-45600000Y-19190000D03*
%TO.P,J4,5*%
X-40520000Y-17285000D03*
%TO.P,J4,6*%
%TO.N,Net-(J4-Pad6)*%
X-45600000Y-15380000D03*
%TO.P,J4,7*%
%TO.N,/Blue*%
X-40520000Y-13475000D03*
%TO.P,J4,8*%
%TO.N,VCC*%
X-45600000Y-11570000D03*
%TO.P,J4,9*%
%TO.N,GND*%
X-40520000Y-9665000D03*
%TO.P,J4,10*%
%TO.N,Net-(J4-Pad10)*%
X-45600000Y-7760000D03*
%TO.P,J4,11*%
%TO.N,/Green*%
X-40520000Y-5855000D03*
%TO.P,J4,12*%
%TO.N,Net-(J4-Pad12)*%
X-45600000Y-3950000D03*
%TO.P,J4,13*%
%TO.N,GND*%
X-40520000Y-2045000D03*
%TO.P,J4,14*%
X-45600000Y-140000D03*
%TO.P,J4,15*%
%TO.N,/Red*%
X-40520000Y1765000D03*
%TO.P,J4,16*%
%TO.N,Net-(J4-Pad16)*%
X-45600000Y3670000D03*
%TO.P,J4,17*%
%TO.N,GND*%
X-40520000Y5575000D03*
%TO.P,J4,18*%
X-45600000Y7480000D03*
%TO.P,J4,19*%
%TO.N,Net-(J4-Pad19)*%
X-40520000Y9385000D03*
%TO.P,J4,20*%
%TO.N,Net-(J4-Pad20)*%
X-45600000Y11290000D03*
%TO.P,J4,21*%
%TO.N,GND*%
X-40520000Y13195000D03*
%TD*%
D12*
%TO.P,J5,*%
%TO.N,*%
X-9000000Y-6800000D03*
D13*
X-5855480Y2466620D03*
D14*
X-13200000Y5500000D03*
X-13200000Y20500000D03*
D13*
X-5855480Y23533380D03*
D12*
X-9000000Y32800000D03*
D15*
%TO.P,J5,1*%
%TO.N,Net-(C2-Pad2)*%
X-13500000Y13000000D03*
%TO.P,J5,2*%
%TO.N,Net-(C3-Pad2)*%
X-13500000Y28000000D03*
%TO.P,J5,3*%
%TO.N,Net-(C1-Pad2)*%
X-13500000Y-2000000D03*
D16*
%TO.P,J5,4*%
%TO.N,GND*%
X-9000000Y-2000000D03*
X-9000000Y13000000D03*
X-9000000Y28000000D03*
%TD*%
D17*
%TO.P,J3,S1*%
%TO.N,GND*%
X-54000000Y23080000D03*
X-50200000Y23080000D03*
X-54000000Y31720000D03*
X-50200000Y31720000D03*
%TD*%
D18*
%TO.P,J1,1*%
%TO.N,/Red*%
X-47860000Y-3440000D03*
%TO.P,J1,2*%
%TO.N,/Green*%
X-47860000Y-1150000D03*
%TO.P,J1,3*%
%TO.N,/Blue*%
X-47860000Y1140000D03*
%TO.P,J1,4*%
%TO.N,Net-(J1-Pad4)*%
X-47860000Y3430000D03*
%TO.P,J1,5*%
%TO.N,GND*%
X-47860000Y5720000D03*
%TO.P,J1,6*%
X-50400000Y-4580000D03*
%TO.P,J1,7*%
X-50400000Y-2290000D03*
%TO.P,J1,8*%
X-50400000Y0D03*
%TO.P,J1,9*%
%TO.N,VS*%
X-50400000Y2290000D03*
D19*
%TO.P,J1,10*%
%TO.N,GND*%
X-50400000Y13380000D03*
D18*
X-50400000Y4580000D03*
D19*
X-50400000Y-11620000D03*
D18*
%TO.P,J1,11*%
%TO.N,Net-(J1-Pad11)*%
X-52940000Y-3440000D03*
%TO.P,J1,12*%
%TO.N,Net-(J1-Pad12)*%
X-52940000Y-1150000D03*
%TO.P,J1,13*%
%TO.N,/CSYNC*%
X-52940000Y1140000D03*
%TO.P,J1,14*%
%TO.N,/VSYNC*%
X-52940000Y3430000D03*
%TO.P,J1,15*%
%TO.N,Net-(J1-Pad15)*%
X-52940000Y5720000D03*
%TD*%
D20*
%TO.P,JR1,*%
%TO.N,*%
X-5850000Y-11350000D03*
X-5850000Y-19850000D03*
D21*
%TO.P,JR1,1*%
%TO.N,Net-(J4-Pad1)*%
X-13500000Y-15600000D03*
%TO.P,JR1,2*%
%TO.N,GND*%
X-9000000Y-15600000D03*
%TD*%
D20*
%TO.P,JU1,*%
%TO.N,*%
X-5850000Y-24370000D03*
X-5850000Y-32870000D03*
D21*
%TO.P,JU1,1*%
%TO.N,Net-(J4-Pad3)*%
X-13500000Y-28620000D03*
%TO.P,JU1,2*%
%TO.N,GND*%
X-9000000Y-28620000D03*
%TD*%
D22*
%TO.P,J2,1*%
%TO.N,/VSYNC*%
X-28800000Y21200000D03*
D23*
%TO.P,J2,2*%
X-28800000Y18660000D03*
%TO.P,J2,3*%
%TO.N,VCC*%
X-28800000Y16120000D03*
%TD*%
D24*
%TO.N,VCC*%
X-25800000Y12300000D03*
X-28700000Y12300000D03*
%TO.N,GND*%
X-52500000Y-32800000D03*
X-18800000Y20200000D03*
X-18600000Y5400000D03*
X-40400000Y16700000D03*
X-22900000Y3600000D03*
X-25600000Y30200000D03*
X-30900000Y-3100000D03*
X-29900000Y6000000D03*
X-46300000Y32800000D03*
X-25700000Y-26400000D03*
X-41100000Y29200000D03*
X-22500000Y-400000D03*
X-33700000Y25200000D03*
X-32300000Y10300000D03*
X-15600000Y3400000D03*
X-19000000Y25500000D03*
X-21100000Y14600000D03*
X-33500000Y13600000D03*
X-25200000Y16900000D03*
X-30200000Y11000000D03*
X-33700000Y-300000D03*
X-21200000Y12000000D03*
X-19400000Y7200000D03*
X-25400000Y23000000D03*
X-35400000Y-23400000D03*
X-51000000Y-6800000D03*
X-36900000Y7900000D03*
X-22600000Y-7400000D03*
X-35800000Y12700000D03*
X-33100000Y-4100000D03*
X-28800000Y7900000D03*
X-43200000Y1200000D03*
X-18500000Y14100000D03*
X-52600000Y-17000000D03*
X-15500000Y11400000D03*
X-19200000Y16400000D03*
X-16400000Y-18600000D03*
X-37800000Y17600000D03*
X-43100000Y-12500000D03*
X-29700000Y31300000D03*
X-37800000Y-3800000D03*
X-35100000Y-14000000D03*
X-20900000Y10000000D03*
X-15100000Y16700000D03*
X-22000000Y22800000D03*
X-39000000Y27400000D03*
X-39300000Y-33100000D03*
X-20000000Y-15600000D03*
X-27400000Y24200000D03*
X-17800000Y3400000D03*
X-18200000Y-26000000D03*
X-37600000Y-9200000D03*
X-43600000Y-21400000D03*
X-29000000Y-3000000D03*
X-27600000Y-5100000D03*
X-20600000Y1100000D03*
X-32700000Y21400000D03*
X-38200000Y5800000D03*
X-23000000Y19400000D03*
X-38800000Y-200000D03*
X-29600000Y13800000D03*
X-26700000Y-400000D03*
X-18300000Y10700000D03*
X-42800000Y-29200000D03*
X-25500000Y-9000000D03*
X-36900000Y-26600000D03*
X-33600000Y17100000D03*
X-20300000Y17000000D03*
X-37300000Y3700000D03*
X-20800000Y4800000D03*
X-28100000Y-21600000D03*
X-16200000Y-13200000D03*
X-32450000Y2750000D03*
X-17900000Y-33100000D03*
X-45600000Y16400000D03*
X-17700000Y8700000D03*
X-43200000Y6200000D03*
X-18500000Y-4500000D03*
X-42400000Y13600000D03*
X-47400000Y-6200000D03*
X-25000000Y1700000D03*
X-21900000Y25300000D03*
X-33900000Y19700000D03*
X-32600000Y8000000D03*
X-42800000Y-7800000D03*
X-20600000Y-2800000D03*
X-19800000Y28200000D03*
X-20700000Y-9000000D03*
X-45000000Y-26000000D03*
%TO.N,/VSYNC*%
X-31800000Y19000000D03*
X-35190000Y18550000D03*
X-39000000Y22200000D03*
X-42887686Y17373750D03*
%TD*%
D25*
%TO.N,/Red*%
X-47860000Y-3440000D02*
X-46520000Y-2100000D01*
X-44300000Y-2015000D02*
X-40520000Y1765000D01*
X-46520000Y-2100000D02*
X-44300000Y-2100000D01*
X-44300000Y-2100000D02*
X-44300000Y-2015000D01*
%TO.N,VCC*%
X-25800000Y12300000D02*
X-28700000Y12300000D01*
%TO.N,/VSYNC*%
X-35190000Y18550000D02*
X-41711436Y18550000D01*
X-41711436Y18550000D02*
X-42487687Y17773749D01*
X-42487687Y17773749D02*
X-42887686Y17373750D01*
X-31800000Y19000000D02*
X-35000000Y22200000D01*
X-35000000Y22200000D02*
X-39000000Y22200000D01*
%TD*%
%TA.AperFunction,Conductor*%
%TO.N,GND*%
G36*
X-10158097Y33979998D02*
G01*
X-10111604Y33926342D01*
X-10101500Y33856068D01*
X-10130994Y33791488D01*
X-10137123Y33784905D01*
X-10144511Y33777518D01*
X-10144520Y33777508D01*
X-10158544Y33758206D01*
X-10167773Y33746936D01*
X-10188164Y33724785D01*
X-10188165Y33724784D01*
X-10234110Y33654460D01*
X-10237657Y33649315D01*
X-10283343Y33586434D01*
X-10297235Y33559169D01*
X-10304015Y33547463D01*
X-10310912Y33536905D01*
X-10324174Y33516606D01*
X-10355212Y33445848D01*
X-10358331Y33439263D01*
X-10390566Y33375997D01*
X-10390572Y33375983D01*
X-10402109Y33340476D01*
X-10406553Y33328802D01*
X-10424062Y33288887D01*
X-10424065Y33288878D01*
X-10441377Y33220515D01*
X-10443687Y33212515D01*
X-10463551Y33151375D01*
X-10463555Y33151362D01*
X-10470451Y33107825D01*
X-10472754Y33096612D01*
X-10485107Y33047828D01*
X-10490377Y32984234D01*
X-10491498Y32974932D01*
X-10500500Y32918092D01*
X-10500500Y32867283D01*
X-10500930Y32856879D01*
X-10505643Y32800001D01*
X-10500930Y32743124D01*
X-10500500Y32732719D01*
X-10500500Y32681908D01*
X-10498415Y32668744D01*
X-10491498Y32625068D01*
X-10490377Y32615769D01*
X-10485108Y32552179D01*
X-10485108Y32552176D01*
X-10485107Y32552175D01*
X-10485106Y32552168D01*
X-10472754Y32503387D01*
X-10470451Y32492174D01*
X-10463555Y32448639D01*
X-10463552Y32448627D01*
X-10443690Y32387499D01*
X-10441379Y32379495D01*
X-10424064Y32311120D01*
X-10424062Y32311115D01*
X-10406555Y32271205D01*
X-10402108Y32259525D01*
X-10390570Y32224013D01*
X-10390565Y32224001D01*
X-10358325Y32160727D01*
X-10355216Y32154163D01*
X-10334663Y32107306D01*
X-10324173Y32083392D01*
X-10304018Y32052543D01*
X-10297235Y32040831D01*
X-10291007Y32028608D01*
X-10283343Y32013567D01*
X-10237638Y31950660D01*
X-10234121Y31945559D01*
X-10188167Y31875220D01*
X-10188161Y31875211D01*
X-10167771Y31853062D01*
X-10158538Y31841788D01*
X-10144517Y31822490D01*
X-10084783Y31762756D01*
X-10081223Y31759046D01*
X-10049823Y31724937D01*
X-10019744Y31692261D01*
X-10001308Y31677912D01*
X-9989604Y31667576D01*
X-9977516Y31655488D01*
X-9977513Y31655486D01*
X-9977510Y31655483D01*
X-9906930Y31604204D01*
X-9903766Y31601905D01*
X-9900437Y31599402D01*
X-9823509Y31539526D01*
X-9808902Y31531621D01*
X-9794814Y31522746D01*
X-9786433Y31516657D01*
X-9699188Y31472204D01*
X-9696458Y31470770D01*
X-9604816Y31421175D01*
X-9604810Y31421172D01*
X-9604800Y31421168D01*
X-9595486Y31417970D01*
X-9579204Y31411068D01*
X-9575996Y31409434D01*
X-9575992Y31409432D01*
X-9501110Y31385102D01*
X-9476536Y31377117D01*
X-9474559Y31376457D01*
X-9369614Y31340429D01*
X-9366565Y31339921D01*
X-9356222Y31337391D01*
X-9356171Y31337600D01*
X-9351369Y31336447D01*
X-9329301Y31332952D01*
X-9241184Y31318997D01*
X-9240535Y31318891D01*
X-9124335Y31299500D01*
X-8875665Y31299500D01*
X-8759491Y31318887D01*
X-8758797Y31319000D01*
X-8648632Y31336447D01*
X-8648623Y31336451D01*
X-8643816Y31337603D01*
X-8643766Y31337393D01*
X-8633442Y31339920D01*
X-8630386Y31340429D01*
X-8525385Y31376477D01*
X-8523493Y31377109D01*
X-8424008Y31409432D01*
X-8420805Y31411065D01*
X-8404519Y31417970D01*
X-8395190Y31421172D01*
X-8303543Y31470770D01*
X-8300811Y31472205D01*
X-8213567Y31516657D01*
X-8205188Y31522746D01*
X-8191098Y31531622D01*
X-8176491Y31539526D01*
X-8099534Y31599426D01*
X-8096298Y31601860D01*
X-8022490Y31655483D01*
X-8010397Y31667578D01*
X-7998689Y31677916D01*
X-7980256Y31692262D01*
X-7918777Y31759048D01*
X-7915219Y31762756D01*
X-7855483Y31822490D01*
X-7841457Y31841797D01*
X-7832244Y31853048D01*
X-7811836Y31875215D01*
X-7765893Y31945538D01*
X-7762343Y31950688D01*
X-7716657Y32013567D01*
X-7702758Y32040849D01*
X-7695990Y32052534D01*
X-7675827Y32083393D01*
X-7644783Y32154169D01*
X-7641690Y32160700D01*
X-7609432Y32224008D01*
X-7597889Y32259538D01*
X-7593459Y32271177D01*
X-7575937Y32311119D01*
X-7558618Y32379514D01*
X-7556310Y32387502D01*
X-7536449Y32448625D01*
X-7536449Y32448627D01*
X-7536447Y32448632D01*
X-7529548Y32492199D01*
X-7527251Y32503379D01*
X-7514892Y32552179D01*
X-7509624Y32615777D01*
X-7508502Y32625079D01*
X-7499500Y32681908D01*
X-7499500Y32732719D01*
X-7499070Y32743124D01*
X-7494357Y32800000D01*
X-7499070Y32856879D01*
X-7499500Y32867283D01*
X-7499500Y32918094D01*
X-7508502Y32974922D01*
X-7509624Y32984231D01*
X-7509624Y32984234D01*
X-7514892Y33047821D01*
X-7527248Y33096612D01*
X-7529552Y33107830D01*
X-7536447Y33151368D01*
X-7556320Y33212529D01*
X-7558617Y33220485D01*
X-7575937Y33288881D01*
X-7593451Y33328806D01*
X-7597894Y33340479D01*
X-7609431Y33375988D01*
X-7609432Y33375992D01*
X-7641680Y33439280D01*
X-7644790Y33445848D01*
X-7675827Y33516607D01*
X-7695985Y33547460D01*
X-7702766Y33559169D01*
X-7716657Y33586433D01*
X-7762347Y33649319D01*
X-7765896Y33654467D01*
X-7811836Y33724785D01*
X-7832231Y33746940D01*
X-7841459Y33758207D01*
X-7855483Y33777510D01*
X-7855491Y33777518D01*
X-7855494Y33777522D01*
X-7862877Y33784905D01*
X-7896903Y33847217D01*
X-7891838Y33918032D01*
X-7849291Y33974868D01*
X-7782771Y33999679D01*
X-7773782Y34000000D01*
X-6552190Y34000000D01*
X-6484069Y33979998D01*
X-6463095Y33963095D01*
X-6036905Y33536905D01*
X-6002879Y33474593D01*
X-6000000Y33447810D01*
X-6000000Y25036063D01*
X-6020002Y24967942D01*
X-6073658Y24921449D01*
X-6106288Y24911614D01*
X-6183441Y24899394D01*
X-6188242Y24898241D01*
X-6188298Y24898475D01*
X-6198213Y24896054D01*
X-6200456Y24895680D01*
X-6200468Y24895677D01*
X-6298274Y24862100D01*
X-6300249Y24861440D01*
X-6393079Y24831278D01*
X-6393092Y24831273D01*
X-6395576Y24830007D01*
X-6411845Y24823110D01*
X-6419985Y24820316D01*
X-6505366Y24774111D01*
X-6508127Y24772661D01*
X-6589502Y24731196D01*
X-6589509Y24731192D01*
X-6596882Y24725835D01*
X-6610964Y24716963D01*
X-6624101Y24709854D01*
X-6624106Y24709850D01*
X-6695758Y24654082D01*
X-6699086Y24651580D01*
X-6767844Y24601624D01*
X-6767847Y24601621D01*
X-6778778Y24590691D01*
X-6790472Y24580364D01*
X-6807266Y24567292D01*
X-6807272Y24567287D01*
X-6864489Y24505133D01*
X-6868092Y24501377D01*
X-6923720Y24445748D01*
X-6936535Y24428111D01*
X-6945763Y24416843D01*
X-6964458Y24396535D01*
X-7007211Y24331097D01*
X-7010755Y24325956D01*
X-7053294Y24267404D01*
X-7053296Y24267401D01*
X-7066062Y24242348D01*
X-7072842Y24230643D01*
X-7091401Y24202236D01*
X-7091408Y24202223D01*
X-7120273Y24136420D01*
X-7123391Y24129835D01*
X-7153377Y24070982D01*
X-7153378Y24070981D01*
X-7164020Y24038228D01*
X-7168462Y24026559D01*
X-7184638Y23989677D01*
X-7184639Y23989676D01*
X-7200730Y23926135D01*
X-7203040Y23918135D01*
X-7221493Y23861338D01*
X-7221497Y23861325D01*
X-7227873Y23821072D01*
X-7230176Y23809859D01*
X-7241614Y23764691D01*
X-7241615Y23764683D01*
X-7246509Y23705638D01*
X-7247629Y23696340D01*
X-7255980Y23643603D01*
X-7255980Y23596525D01*
X-7256410Y23586121D01*
X-7260780Y23533381D01*
X-7256410Y23480641D01*
X-7255980Y23470237D01*
X-7255980Y23423158D01*
X-7247629Y23370421D01*
X-7246509Y23361123D01*
X-7241615Y23302078D01*
X-7241613Y23302069D01*
X-7230178Y23256913D01*
X-7227874Y23245696D01*
X-7221497Y23205438D01*
X-7221493Y23205423D01*
X-7203038Y23148619D01*
X-7200728Y23140619D01*
X-7184639Y23077085D01*
X-7184636Y23077076D01*
X-7168464Y23040208D01*
X-7164022Y23028538D01*
X-7153375Y22995774D01*
X-7137289Y22964204D01*
X-7123385Y22936916D01*
X-7120265Y22930327D01*
X-7091405Y22864532D01*
X-7072843Y22836121D01*
X-7066060Y22824410D01*
X-7053296Y22799359D01*
X-7010766Y22740821D01*
X-7007220Y22735677D01*
X-6964459Y22670227D01*
X-6945758Y22649913D01*
X-6936532Y22638647D01*
X-6923722Y22621015D01*
X-6868071Y22565364D01*
X-6864487Y22561628D01*
X-6807269Y22499471D01*
X-6807265Y22499467D01*
X-6790475Y22486399D01*
X-6778771Y22476063D01*
X-6767847Y22465139D01*
X-6699097Y22415190D01*
X-6695767Y22412685D01*
X-6624110Y22356913D01*
X-6624097Y22356904D01*
X-6610969Y22349800D01*
X-6596877Y22340923D01*
X-6592808Y22337967D01*
X-6589502Y22335565D01*
X-6589500Y22335564D01*
X-6508162Y22294119D01*
X-6505397Y22292667D01*
X-6493016Y22285967D01*
X-6419983Y22246444D01*
X-6411854Y22243654D01*
X-6395560Y22236746D01*
X-6393086Y22235485D01*
X-6300169Y22205296D01*
X-6298254Y22204655D01*
X-6200468Y22171084D01*
X-6200466Y22171084D01*
X-6200461Y22171082D01*
X-6198246Y22170713D01*
X-6188311Y22168282D01*
X-6188253Y22168522D01*
X-6183439Y22167367D01*
X-6183436Y22167367D01*
X-6183431Y22167365D01*
X-6106290Y22155148D01*
X-6042137Y22124736D01*
X-6004610Y22064469D01*
X-6000000Y22030699D01*
X-6000000Y3969303D01*
X-6020002Y3901182D01*
X-6073658Y3854689D01*
X-6106288Y3844854D01*
X-6183441Y3832634D01*
X-6188242Y3831481D01*
X-6188298Y3831715D01*
X-6198213Y3829294D01*
X-6200456Y3828920D01*
X-6200468Y3828917D01*
X-6298274Y3795340D01*
X-6300249Y3794680D01*
X-6393079Y3764518D01*
X-6393092Y3764513D01*
X-6395576Y3763247D01*
X-6411845Y3756350D01*
X-6419985Y3753556D01*
X-6505366Y3707351D01*
X-6508127Y3705901D01*
X-6589502Y3664436D01*
X-6589509Y3664432D01*
X-6596882Y3659075D01*
X-6610964Y3650203D01*
X-6624101Y3643094D01*
X-6624106Y3643090D01*
X-6695758Y3587322D01*
X-6699086Y3584820D01*
X-6767844Y3534864D01*
X-6767847Y3534861D01*
X-6778778Y3523931D01*
X-6790472Y3513604D01*
X-6807266Y3500532D01*
X-6807272Y3500527D01*
X-6864489Y3438373D01*
X-6868092Y3434617D01*
X-6923720Y3378988D01*
X-6936535Y3361351D01*
X-6945763Y3350083D01*
X-6964458Y3329775D01*
X-6985557Y3297482D01*
X-7006626Y3265232D01*
X-7007211Y3264337D01*
X-7010755Y3259196D01*
X-7053294Y3200644D01*
X-7053296Y3200641D01*
X-7066062Y3175588D01*
X-7072842Y3163883D01*
X-7091401Y3135476D01*
X-7091408Y3135463D01*
X-7120273Y3069660D01*
X-7123391Y3063075D01*
X-7153377Y3004222D01*
X-7153378Y3004221D01*
X-7164020Y2971468D01*
X-7168462Y2959799D01*
X-7169352Y2957769D01*
X-7182188Y2928502D01*
X-7184638Y2922917D01*
X-7184639Y2922916D01*
X-7200730Y2859375D01*
X-7203040Y2851375D01*
X-7221493Y2794578D01*
X-7221497Y2794565D01*
X-7227873Y2754312D01*
X-7230176Y2743099D01*
X-7241614Y2697931D01*
X-7241615Y2697923D01*
X-7246509Y2638878D01*
X-7247629Y2629580D01*
X-7255980Y2576843D01*
X-7255980Y2529765D01*
X-7256410Y2519361D01*
X-7260780Y2466621D01*
X-7256410Y2413881D01*
X-7255980Y2403477D01*
X-7255980Y2356398D01*
X-7247629Y2303661D01*
X-7246509Y2294363D01*
X-7241615Y2235318D01*
X-7241613Y2235309D01*
X-7230178Y2190153D01*
X-7227874Y2178936D01*
X-7221497Y2138678D01*
X-7221493Y2138663D01*
X-7203038Y2081859D01*
X-7200728Y2073859D01*
X-7184639Y2010325D01*
X-7184636Y2010316D01*
X-7168464Y1973448D01*
X-7164022Y1961778D01*
X-7153375Y1929014D01*
X-7123385Y1870156D01*
X-7120265Y1863567D01*
X-7091405Y1797772D01*
X-7072843Y1769361D01*
X-7066060Y1757650D01*
X-7053296Y1732599D01*
X-7010766Y1674061D01*
X-7007220Y1668917D01*
X-6964459Y1603467D01*
X-6945758Y1583153D01*
X-6936532Y1571887D01*
X-6923722Y1554255D01*
X-6868071Y1498604D01*
X-6864487Y1494868D01*
X-6807269Y1432711D01*
X-6807265Y1432707D01*
X-6790475Y1419639D01*
X-6778771Y1409303D01*
X-6767847Y1398379D01*
X-6699097Y1348430D01*
X-6695767Y1345925D01*
X-6624110Y1290153D01*
X-6624097Y1290144D01*
X-6610969Y1283040D01*
X-6596877Y1274163D01*
X-6592808Y1271207D01*
X-6589502Y1268805D01*
X-6589500Y1268804D01*
X-6508162Y1227359D01*
X-6505397Y1225907D01*
X-6486805Y1215846D01*
X-6419983Y1179684D01*
X-6411854Y1176894D01*
X-6395560Y1169986D01*
X-6393086Y1168725D01*
X-6300169Y1138536D01*
X-6298254Y1137895D01*
X-6200468Y1104324D01*
X-6200466Y1104324D01*
X-6200461Y1104322D01*
X-6198246Y1103953D01*
X-6188311Y1101522D01*
X-6188253Y1101762D01*
X-6183439Y1100607D01*
X-6183436Y1100607D01*
X-6183431Y1100605D01*
X-6106290Y1088388D01*
X-6042137Y1057976D01*
X-6004610Y997709D01*
X-6000000Y963939D01*
X-6000000Y-9895369D01*
X-6020002Y-9963490D01*
X-6073658Y-10009983D01*
X-6093384Y-10017073D01*
X-6185229Y-10041683D01*
X-6313662Y-10076096D01*
X-6313666Y-10076098D01*
X-6527833Y-10175966D01*
X-6721393Y-10311498D01*
X-6721404Y-10311507D01*
X-6888493Y-10478596D01*
X-6888502Y-10478607D01*
X-7024034Y-10672167D01*
X-7123902Y-10886334D01*
X-7123904Y-10886338D01*
X-7185063Y-11114588D01*
X-7205659Y-11350000D01*
X-7185063Y-11585411D01*
X-7123904Y-11813661D01*
X-7123903Y-11813663D01*
X-7046707Y-11979210D01*
X-7024035Y-12027830D01*
X-6902712Y-12201098D01*
X-6888495Y-12221401D01*
X-6721401Y-12388495D01*
X-6527830Y-12524035D01*
X-6313663Y-12623903D01*
X-6093388Y-12682924D01*
X-6032767Y-12719875D01*
X-6001745Y-12783736D01*
X-6000000Y-12804631D01*
X-6000000Y-18395369D01*
X-6020002Y-18463490D01*
X-6073658Y-18509983D01*
X-6093384Y-18517073D01*
X-6185229Y-18541683D01*
X-6313662Y-18576096D01*
X-6313666Y-18576098D01*
X-6527833Y-18675966D01*
X-6721393Y-18811498D01*
X-6721404Y-18811507D01*
X-6888493Y-18978596D01*
X-6888502Y-18978607D01*
X-7024034Y-19172167D01*
X-7123902Y-19386334D01*
X-7123904Y-19386338D01*
X-7185063Y-19614588D01*
X-7205659Y-19850000D01*
X-7185063Y-20085411D01*
X-7123904Y-20313661D01*
X-7123902Y-20313665D01*
X-7024035Y-20527830D01*
X-6954479Y-20627167D01*
X-6888495Y-20721401D01*
X-6721401Y-20888495D01*
X-6527830Y-21024035D01*
X-6313663Y-21123903D01*
X-6093388Y-21182924D01*
X-6032767Y-21219875D01*
X-6001745Y-21283736D01*
X-6000000Y-21304631D01*
X-6000000Y-22915369D01*
X-6020002Y-22983490D01*
X-6073658Y-23029983D01*
X-6093384Y-23037073D01*
X-6185229Y-23061683D01*
X-6313662Y-23096096D01*
X-6313666Y-23096098D01*
X-6527833Y-23195966D01*
X-6721393Y-23331498D01*
X-6721404Y-23331507D01*
X-6888493Y-23498596D01*
X-6888502Y-23498607D01*
X-7024034Y-23692167D01*
X-7123902Y-23906334D01*
X-7123904Y-23906338D01*
X-7185063Y-24134588D01*
X-7205659Y-24370000D01*
X-7185063Y-24605411D01*
X-7123904Y-24833661D01*
X-7123903Y-24833663D01*
X-7024035Y-25047830D01*
X-6888495Y-25241401D01*
X-6721401Y-25408495D01*
X-6527830Y-25544035D01*
X-6313663Y-25643903D01*
X-6093388Y-25702924D01*
X-6032767Y-25739875D01*
X-6001745Y-25803736D01*
X-6000000Y-25824631D01*
X-6000000Y-31415369D01*
X-6020002Y-31483490D01*
X-6073658Y-31529983D01*
X-6093384Y-31537073D01*
X-6185229Y-31561683D01*
X-6313662Y-31596096D01*
X-6313666Y-31596098D01*
X-6527833Y-31695966D01*
X-6721393Y-31831498D01*
X-6721404Y-31831507D01*
X-6888493Y-31998596D01*
X-6888502Y-31998607D01*
X-7024034Y-32192167D01*
X-7123902Y-32406334D01*
X-7123904Y-32406338D01*
X-7185063Y-32634588D01*
X-7205659Y-32870000D01*
X-7185063Y-33105411D01*
X-7123904Y-33333661D01*
X-7123902Y-33333665D01*
X-7024035Y-33547830D01*
X-6888498Y-33741397D01*
X-6888493Y-33741403D01*
X-6844991Y-33784905D01*
X-6810965Y-33847217D01*
X-6816030Y-33918032D01*
X-6858577Y-33974868D01*
X-6925097Y-33999679D01*
X-6934086Y-34000000D01*
X-46045758Y-34000000D01*
X-46113879Y-33979998D01*
X-46160372Y-33926342D01*
X-46170476Y-33856068D01*
X-46140982Y-33791488D01*
X-46140567Y-33791010D01*
X-46010727Y-33642957D01*
X-45846828Y-33397665D01*
X-45716348Y-33133077D01*
X-45621519Y-32853722D01*
X-45563966Y-32564380D01*
X-45544671Y-32270000D01*
X-45549773Y-32192167D01*
X-45554319Y-32122810D01*
X-45563966Y-31975620D01*
X-45621519Y-31686278D01*
X-45716348Y-31406923D01*
X-45846828Y-31142336D01*
X-46010727Y-30897043D01*
X-46205242Y-30675242D01*
X-46427043Y-30480727D01*
X-46427042Y-30480727D01*
X-46427045Y-30480725D01*
X-46672338Y-30316826D01*
X-46936917Y-30186351D01*
X-46936923Y-30186348D01*
X-47072787Y-30140228D01*
X-47216273Y-30091520D01*
X-47216280Y-30091518D01*
X-47505607Y-30033968D01*
X-47505625Y-30033965D01*
X-47799997Y-30014671D01*
X-47800003Y-30014671D01*
X-48094376Y-30033965D01*
X-48094394Y-30033968D01*
X-48383721Y-30091518D01*
X-48383728Y-30091520D01*
X-48663077Y-30186347D01*
X-48927662Y-30316826D01*
X-49172950Y-30480721D01*
X-49394758Y-30675242D01*
X-49589279Y-30897050D01*
X-49753174Y-31142338D01*
X-49883653Y-31406923D01*
X-49978480Y-31686272D01*
X-49978482Y-31686279D01*
X-50036032Y-31975606D01*
X-50036035Y-31975624D01*
X-50055329Y-32269996D01*
X-50055329Y-32270003D01*
X-50036035Y-32564375D01*
X-50036032Y-32564393D01*
X-49978482Y-32853720D01*
X-49978480Y-32853727D01*
X-49915813Y-33038336D01*
X-49883652Y-33133077D01*
X-49883649Y-33133083D01*
X-49753174Y-33397662D01*
X-49589275Y-33642955D01*
X-49589273Y-33642957D01*
X-49459510Y-33790923D01*
X-49429633Y-33855326D01*
X-49439319Y-33925659D01*
X-49485492Y-33979591D01*
X-49553492Y-33999998D01*
X-49554242Y-34000000D01*
X-53447810Y-34000000D01*
X-53515931Y-33979998D01*
X-53536905Y-33963095D01*
X-53963095Y-33536905D01*
X-53997121Y-33474593D01*
X-54000000Y-33447810D01*
X-54000000Y-28620000D01*
X-15255408Y-28620000D01*
X-15235802Y-28881633D01*
X-15177420Y-29137417D01*
X-15177419Y-29137419D01*
X-15081570Y-29381639D01*
X-15081567Y-29381647D01*
X-14950389Y-29608853D01*
X-14950387Y-29608856D01*
X-14950386Y-29608857D01*
X-14786805Y-29813981D01*
X-14594479Y-29992433D01*
X-14594473Y-29992437D01*
X-14377714Y-30140222D01*
X-14377707Y-30140226D01*
X-14377704Y-30140228D01*
X-14241430Y-30205854D01*
X-14141328Y-30254061D01*
X-14141315Y-30254066D01*
X-13890620Y-30331395D01*
X-13890617Y-30331395D01*
X-13890615Y-30331396D01*
X-13631182Y-30370500D01*
X-13631177Y-30370500D01*
X-13368823Y-30370500D01*
X-13368818Y-30370500D01*
X-13109385Y-30331396D01*
X-13109383Y-30331395D01*
X-13109381Y-30331395D01*
X-12858686Y-30254066D01*
X-12858684Y-30254064D01*
X-12858677Y-30254063D01*
X-12622296Y-30140228D01*
X-12405521Y-29992433D01*
X-12213195Y-29813981D01*
X-12049614Y-29608857D01*
X-11918432Y-29381643D01*
X-11822580Y-29137416D01*
X-11764198Y-28881630D01*
X-11763626Y-28874000D01*
X-10995319Y-28874000D01*
X-10993948Y-28894050D01*
X-10993948Y-28894051D01*
X-10938058Y-29163011D01*
X-10938056Y-29163019D01*
X-10846062Y-29421865D01*
X-10719686Y-29665756D01*
X-10719678Y-29665770D01*
X-10561271Y-29890182D01*
X-10373772Y-30090944D01*
X-10373764Y-30090951D01*
X-10160675Y-30264312D01*
X-9925970Y-30407038D01*
X-9674011Y-30516480D01*
X-9409491Y-30590595D01*
X-9254002Y-30611967D01*
X-9254000Y-30611966D01*
X-9254000Y-29818344D01*
X-9189598Y-29845021D01*
X-9064019Y-29870000D01*
X-8935981Y-29870000D01*
X-8810402Y-29845021D01*
X-8746000Y-29818344D01*
X-8746000Y-30611966D01*
X-8745999Y-30611967D01*
X-8590510Y-30590595D01*
X-8325990Y-30516480D01*
X-8074031Y-30407038D01*
X-7839326Y-30264312D01*
X-7626237Y-30090951D01*
X-7626229Y-30090944D01*
X-7438730Y-29890182D01*
X-7280323Y-29665770D01*
X-7280315Y-29665756D01*
X-7153939Y-29421865D01*
X-7061945Y-29163019D01*
X-7061943Y-29163011D01*
X-7006053Y-28894051D01*
X-7006053Y-28894050D01*
X-7004682Y-28874000D01*
X-8350000Y-28874000D01*
X-8350000Y-28366000D01*
X-7004682Y-28366000D01*
X-7004682Y-28365999D01*
X-7006053Y-28345949D01*
X-7006053Y-28345948D01*
X-7061943Y-28076988D01*
X-7061945Y-28076980D01*
X-7153939Y-27818134D01*
X-7280315Y-27574243D01*
X-7280323Y-27574229D01*
X-7438730Y-27349817D01*
X-7626229Y-27149055D01*
X-7626237Y-27149048D01*
X-7839326Y-26975687D01*
X-8074031Y-26832961D01*
X-8325990Y-26723519D01*
X-8590510Y-26649404D01*
X-8746000Y-26628031D01*
X-8746000Y-27421655D01*
X-8810402Y-27394979D01*
X-8935981Y-27370000D01*
X-9064019Y-27370000D01*
X-9189598Y-27394979D01*
X-9254000Y-27421655D01*
X-9254000Y-26628032D01*
X-9254001Y-26628031D01*
X-9409489Y-26649404D01*
X-9409493Y-26649404D01*
X-9674011Y-26723519D01*
X-9925970Y-26832961D01*
X-10160675Y-26975687D01*
X-10373764Y-27149048D01*
X-10373772Y-27149055D01*
X-10561271Y-27349817D01*
X-10719678Y-27574229D01*
X-10719686Y-27574243D01*
X-10846062Y-27818134D01*
X-10938056Y-28076980D01*
X-10938058Y-28076988D01*
X-10993948Y-28345948D01*
X-10993948Y-28345949D01*
X-10995319Y-28365999D01*
X-10995318Y-28366000D01*
X-9650000Y-28366000D01*
X-9650000Y-28874000D01*
X-10995319Y-28874000D01*
X-11763626Y-28874000D01*
X-11744592Y-28620000D01*
X-11764198Y-28358370D01*
X-11822580Y-28102584D01*
X-11918432Y-27858357D01*
X-11918433Y-27858356D01*
X-11918434Y-27858352D01*
X-12049612Y-27631146D01*
X-12094991Y-27574243D01*
X-12213195Y-27426019D01*
X-12405521Y-27247567D01*
X-12405528Y-27247562D01*
X-12622287Y-27099777D01*
X-12622294Y-27099773D01*
X-12858673Y-26985938D01*
X-12858686Y-26985933D01*
X-13109381Y-26908604D01*
X-13224689Y-26891224D01*
X-13368818Y-26869500D01*
X-13631182Y-26869500D01*
X-13760899Y-26889052D01*
X-13890620Y-26908604D01*
X-14141315Y-26985933D01*
X-14141328Y-26985938D01*
X-14377707Y-27099773D01*
X-14377714Y-27099777D01*
X-14594473Y-27247562D01*
X-14594478Y-27247566D01*
X-14786805Y-27426018D01*
X-14950389Y-27631146D01*
X-15081567Y-27858352D01*
X-15081570Y-27858360D01*
X-15177419Y-28102580D01*
X-15177420Y-28102582D01*
X-15235802Y-28358366D01*
X-15255408Y-28620000D01*
X-54000000Y-28620000D01*
X-54000000Y-24905000D01*
X-41875659Y-24905000D01*
X-41855063Y-25140411D01*
X-41793904Y-25368661D01*
X-41793902Y-25368665D01*
X-41694035Y-25582830D01*
X-41608447Y-25705063D01*
X-41558495Y-25776401D01*
X-41391401Y-25943495D01*
X-41197830Y-26079035D01*
X-40983663Y-26178903D01*
X-40755408Y-26240063D01*
X-40520000Y-26260659D01*
X-40284592Y-26240063D01*
X-40056337Y-26178903D01*
X-39842170Y-26079035D01*
X-39648599Y-25943495D01*
X-39481505Y-25776401D01*
X-39345965Y-25582830D01*
X-39246097Y-25368663D01*
X-39184937Y-25140408D01*
X-39164341Y-24905000D01*
X-39184937Y-24669592D01*
X-39246097Y-24441337D01*
X-39345965Y-24227171D01*
X-39345966Y-24227170D01*
X-39345967Y-24227167D01*
X-39481499Y-24033607D01*
X-39481502Y-24033603D01*
X-39481505Y-24033599D01*
X-39648599Y-23866505D01*
X-39842170Y-23730965D01*
X-40056337Y-23631097D01*
X-40056339Y-23631096D01*
X-40284589Y-23569937D01*
X-40520000Y-23549341D01*
X-40755412Y-23569937D01*
X-40983662Y-23631096D01*
X-40983666Y-23631098D01*
X-41197833Y-23730966D01*
X-41391393Y-23866498D01*
X-41391404Y-23866507D01*
X-41558493Y-24033596D01*
X-41558502Y-24033607D01*
X-41694034Y-24227167D01*
X-41793902Y-24441334D01*
X-41793904Y-24441338D01*
X-41855063Y-24669588D01*
X-41875659Y-24905000D01*
X-54000000Y-24905000D01*
X-54000000Y-23000000D01*
X-46955659Y-23000000D01*
X-46935063Y-23235411D01*
X-46873904Y-23463661D01*
X-46873902Y-23463665D01*
X-46774035Y-23677830D01*
X-46641926Y-23866502D01*
X-46638495Y-23871401D01*
X-46471401Y-24038495D01*
X-46277830Y-24174035D01*
X-46063663Y-24273903D01*
X-45835408Y-24335063D01*
X-45600000Y-24355659D01*
X-45364592Y-24335063D01*
X-45136337Y-24273903D01*
X-44922170Y-24174035D01*
X-44728599Y-24038495D01*
X-44561505Y-23871401D01*
X-44425965Y-23677830D01*
X-44326097Y-23463663D01*
X-44264937Y-23235408D01*
X-44244341Y-23000000D01*
X-44264937Y-22764592D01*
X-44326097Y-22536337D01*
X-44425965Y-22322171D01*
X-44425966Y-22322170D01*
X-44425967Y-22322167D01*
X-44561499Y-22128607D01*
X-44561502Y-22128603D01*
X-44561505Y-22128599D01*
X-44728599Y-21961505D01*
X-44922170Y-21825965D01*
X-45136337Y-21726097D01*
X-45136339Y-21726096D01*
X-45364589Y-21664937D01*
X-45600000Y-21644341D01*
X-45835412Y-21664937D01*
X-46063662Y-21726096D01*
X-46063666Y-21726098D01*
X-46277833Y-21825966D01*
X-46471393Y-21961498D01*
X-46471404Y-21961507D01*
X-46638493Y-22128596D01*
X-46638502Y-22128607D01*
X-46774034Y-22322167D01*
X-46873902Y-22536334D01*
X-46873904Y-22536338D01*
X-46935063Y-22764588D01*
X-46955659Y-23000000D01*
X-54000000Y-23000000D01*
X-54000000Y-21095000D01*
X-41875659Y-21095000D01*
X-41855063Y-21330411D01*
X-41793904Y-21558661D01*
X-41793902Y-21558665D01*
X-41694035Y-21772830D01*
X-41561926Y-21961502D01*
X-41558495Y-21966401D01*
X-41391401Y-22133495D01*
X-41197830Y-22269035D01*
X-40983663Y-22368903D01*
X-40755408Y-22430063D01*
X-40520000Y-22450659D01*
X-40284592Y-22430063D01*
X-40056337Y-22368903D01*
X-39842170Y-22269035D01*
X-39648599Y-22133495D01*
X-39481505Y-21966401D01*
X-39345965Y-21772830D01*
X-39246097Y-21558663D01*
X-39184937Y-21330408D01*
X-39164341Y-21095000D01*
X-39184937Y-20859592D01*
X-39246097Y-20631337D01*
X-39345965Y-20417171D01*
X-39345966Y-20417170D01*
X-39345967Y-20417167D01*
X-39481499Y-20223607D01*
X-39481502Y-20223603D01*
X-39481505Y-20223599D01*
X-39648599Y-20056505D01*
X-39842170Y-19920965D01*
X-40056337Y-19821097D01*
X-40056339Y-19821096D01*
X-40284589Y-19759937D01*
X-40520000Y-19739341D01*
X-40755412Y-19759937D01*
X-40983662Y-19821096D01*
X-40983666Y-19821098D01*
X-41197833Y-19920966D01*
X-41391393Y-20056498D01*
X-41391404Y-20056507D01*
X-41558493Y-20223596D01*
X-41558502Y-20223607D01*
X-41694034Y-20417167D01*
X-41793902Y-20631334D01*
X-41793904Y-20631338D01*
X-41855063Y-20859588D01*
X-41875659Y-21095000D01*
X-54000000Y-21095000D01*
X-54000000Y-19190000D01*
X-47212972Y-19190000D01*
X-47193114Y-19442323D01*
X-47134029Y-19688434D01*
X-47037170Y-19922272D01*
X-46905823Y-20136611D01*
X-46905822Y-20136611D01*
X-46202699Y-19433488D01*
X-46176022Y-19497890D01*
X-46104888Y-19604351D01*
X-46014351Y-19694888D01*
X-45907890Y-19766022D01*
X-45843490Y-19792698D01*
X-46546613Y-20495820D01*
X-46546613Y-20495822D01*
X-46332273Y-20627169D01*
X-46098435Y-20724028D01*
X-45852324Y-20783113D01*
X-45600000Y-20802971D01*
X-45347677Y-20783113D01*
X-45101566Y-20724028D01*
X-44867723Y-20627167D01*
X-44653389Y-20495822D01*
X-44653389Y-20495820D01*
X-45356511Y-19792698D01*
X-45292110Y-19766022D01*
X-45185649Y-19694888D01*
X-45095112Y-19604351D01*
X-45023978Y-19497890D01*
X-44997302Y-19433489D01*
X-44294180Y-20136611D01*
X-44294178Y-20136611D01*
X-44162833Y-19922277D01*
X-44065972Y-19688434D01*
X-44006887Y-19442323D01*
X-43987029Y-19190000D01*
X-44006887Y-18937676D01*
X-44065972Y-18691565D01*
X-44162831Y-18457727D01*
X-44294178Y-18243387D01*
X-44294180Y-18243387D01*
X-44997303Y-18946509D01*
X-45023978Y-18882110D01*
X-45095112Y-18775649D01*
X-45185649Y-18685112D01*
X-45292110Y-18613978D01*
X-45356512Y-18587301D01*
X-44653389Y-17884178D01*
X-44653389Y-17884177D01*
X-44867728Y-17752830D01*
X-45101566Y-17655971D01*
X-45347677Y-17596886D01*
X-45600000Y-17577028D01*
X-45852324Y-17596886D01*
X-46098435Y-17655971D01*
X-46332273Y-17752830D01*
X-46546613Y-17884176D01*
X-46546613Y-17884178D01*
X-45843490Y-18587301D01*
X-45907890Y-18613978D01*
X-46014351Y-18685112D01*
X-46104888Y-18775649D01*
X-46176022Y-18882110D01*
X-46202699Y-18946510D01*
X-46905822Y-18243387D01*
X-46905824Y-18243387D01*
X-47037170Y-18457727D01*
X-47134029Y-18691565D01*
X-47193114Y-18937676D01*
X-47212972Y-19190000D01*
X-54000000Y-19190000D01*
X-54000000Y-17285000D01*
X-42132972Y-17285000D01*
X-42113114Y-17537323D01*
X-42054029Y-17783434D01*
X-41957170Y-18017272D01*
X-41825823Y-18231611D01*
X-41825822Y-18231611D01*
X-41122699Y-17528488D01*
X-41096022Y-17592890D01*
X-41024888Y-17699351D01*
X-40934351Y-17789888D01*
X-40827890Y-17861022D01*
X-40763490Y-17887698D01*
X-41466613Y-18590820D01*
X-41466613Y-18590822D01*
X-41252273Y-18722169D01*
X-41018435Y-18819028D01*
X-40772324Y-18878113D01*
X-40520000Y-18897971D01*
X-40267677Y-18878113D01*
X-40021566Y-18819028D01*
X-39787723Y-18722167D01*
X-39573389Y-18590822D01*
X-39573389Y-18590820D01*
X-40276511Y-17887698D01*
X-40212110Y-17861022D01*
X-40105649Y-17789888D01*
X-40015112Y-17699351D01*
X-39943978Y-17592890D01*
X-39917302Y-17528489D01*
X-39214180Y-18231611D01*
X-39214178Y-18231611D01*
X-39082833Y-18017277D01*
X-38985972Y-17783434D01*
X-38926887Y-17537323D01*
X-38907029Y-17285000D01*
X-38926887Y-17032676D01*
X-38985972Y-16786565D01*
X-39082831Y-16552727D01*
X-39214178Y-16338387D01*
X-39214180Y-16338387D01*
X-39917303Y-17041509D01*
X-39943978Y-16977110D01*
X-40015112Y-16870649D01*
X-40105649Y-16780112D01*
X-40212110Y-16708978D01*
X-40276512Y-16682301D01*
X-39573389Y-15979178D01*
X-39573389Y-15979177D01*
X-39787728Y-15847830D01*
X-40021566Y-15750971D01*
X-40267677Y-15691886D01*
X-40520000Y-15672028D01*
X-40772324Y-15691886D01*
X-41018435Y-15750971D01*
X-41252273Y-15847830D01*
X-41466613Y-15979176D01*
X-41466613Y-15979178D01*
X-40763490Y-16682301D01*
X-40827890Y-16708978D01*
X-40934351Y-16780112D01*
X-41024888Y-16870649D01*
X-41096022Y-16977110D01*
X-41122699Y-17041510D01*
X-41825822Y-16338387D01*
X-41825824Y-16338387D01*
X-41957170Y-16552727D01*
X-42054029Y-16786565D01*
X-42113114Y-17032676D01*
X-42132972Y-17285000D01*
X-54000000Y-17285000D01*
X-54000000Y-15380000D01*
X-46955659Y-15380000D01*
X-46935063Y-15615411D01*
X-46873904Y-15843661D01*
X-46873903Y-15843663D01*
X-46774035Y-16057830D01*
X-46638495Y-16251401D01*
X-46471401Y-16418495D01*
X-46277830Y-16554035D01*
X-46063663Y-16653903D01*
X-45835408Y-16715063D01*
X-45600000Y-16735659D01*
X-45364592Y-16715063D01*
X-45136337Y-16653903D01*
X-44922170Y-16554035D01*
X-44728599Y-16418495D01*
X-44561505Y-16251401D01*
X-44425965Y-16057830D01*
X-44326097Y-15843663D01*
X-44264937Y-15615408D01*
X-44263589Y-15600000D01*
X-15255408Y-15600000D01*
X-15235802Y-15861633D01*
X-15177420Y-16117417D01*
X-15177419Y-16117419D01*
X-15081570Y-16361639D01*
X-15081567Y-16361647D01*
X-14950389Y-16588853D01*
X-14950387Y-16588856D01*
X-14950386Y-16588857D01*
X-14786805Y-16793981D01*
X-14594479Y-16972433D01*
X-14594473Y-16972437D01*
X-14377714Y-17120222D01*
X-14377707Y-17120226D01*
X-14377704Y-17120228D01*
X-14241430Y-17185854D01*
X-14141328Y-17234061D01*
X-14141315Y-17234066D01*
X-13890620Y-17311395D01*
X-13890617Y-17311395D01*
X-13890615Y-17311396D01*
X-13631182Y-17350500D01*
X-13631177Y-17350500D01*
X-13368823Y-17350500D01*
X-13368818Y-17350500D01*
X-13109385Y-17311396D01*
X-13109383Y-17311395D01*
X-13109381Y-17311395D01*
X-12858686Y-17234066D01*
X-12858684Y-17234064D01*
X-12858677Y-17234063D01*
X-12622296Y-17120228D01*
X-12405521Y-16972433D01*
X-12213195Y-16793981D01*
X-12049614Y-16588857D01*
X-11951257Y-16418497D01*
X-11918434Y-16361647D01*
X-11918432Y-16361643D01*
X-11822580Y-16117416D01*
X-11764198Y-15861630D01*
X-11763626Y-15854000D01*
X-10995319Y-15854000D01*
X-10993948Y-15874050D01*
X-10993948Y-15874051D01*
X-10938058Y-16143011D01*
X-10938056Y-16143019D01*
X-10846062Y-16401865D01*
X-10719686Y-16645756D01*
X-10719678Y-16645770D01*
X-10561271Y-16870182D01*
X-10373772Y-17070944D01*
X-10373764Y-17070951D01*
X-10160675Y-17244312D01*
X-9925970Y-17387038D01*
X-9674011Y-17496480D01*
X-9409491Y-17570595D01*
X-9254002Y-17591967D01*
X-9254000Y-17591966D01*
X-9254000Y-16798344D01*
X-9189598Y-16825021D01*
X-9064019Y-16850000D01*
X-8935981Y-16850000D01*
X-8810402Y-16825021D01*
X-8746000Y-16798344D01*
X-8746000Y-17591966D01*
X-8745999Y-17591967D01*
X-8590510Y-17570595D01*
X-8325990Y-17496480D01*
X-8074031Y-17387038D01*
X-7839326Y-17244312D01*
X-7626237Y-17070951D01*
X-7626229Y-17070944D01*
X-7438730Y-16870182D01*
X-7280323Y-16645770D01*
X-7280315Y-16645756D01*
X-7153939Y-16401865D01*
X-7061945Y-16143019D01*
X-7061943Y-16143011D01*
X-7006053Y-15874051D01*
X-7006053Y-15874050D01*
X-7004682Y-15854000D01*
X-8350000Y-15854000D01*
X-8350000Y-15346000D01*
X-7004682Y-15346000D01*
X-7004682Y-15345999D01*
X-7006053Y-15325949D01*
X-7006053Y-15325948D01*
X-7061943Y-15056988D01*
X-7061945Y-15056980D01*
X-7153939Y-14798134D01*
X-7280315Y-14554243D01*
X-7280323Y-14554229D01*
X-7438730Y-14329817D01*
X-7626229Y-14129055D01*
X-7626237Y-14129048D01*
X-7839326Y-13955687D01*
X-8074031Y-13812961D01*
X-8325990Y-13703519D01*
X-8590510Y-13629404D01*
X-8746000Y-13608031D01*
X-8746000Y-14401655D01*
X-8810402Y-14374979D01*
X-8935981Y-14350000D01*
X-9064019Y-14350000D01*
X-9189598Y-14374979D01*
X-9254000Y-14401655D01*
X-9254000Y-13608032D01*
X-9254001Y-13608031D01*
X-9409489Y-13629404D01*
X-9409493Y-13629404D01*
X-9674011Y-13703519D01*
X-9925970Y-13812961D01*
X-10160675Y-13955687D01*
X-10373764Y-14129048D01*
X-10373772Y-14129055D01*
X-10561271Y-14329817D01*
X-10719678Y-14554229D01*
X-10719686Y-14554243D01*
X-10846062Y-14798134D01*
X-10938056Y-15056980D01*
X-10938058Y-15056988D01*
X-10993948Y-15325948D01*
X-10993948Y-15325949D01*
X-10995319Y-15345999D01*
X-10995318Y-15346000D01*
X-9650000Y-15346000D01*
X-9650000Y-15854000D01*
X-10995319Y-15854000D01*
X-11763626Y-15854000D01*
X-11744592Y-15600000D01*
X-11764198Y-15338370D01*
X-11822580Y-15082584D01*
X-11918432Y-14838357D01*
X-11918433Y-14838356D01*
X-11918434Y-14838352D01*
X-12049612Y-14611146D01*
X-12094991Y-14554243D01*
X-12213195Y-14406019D01*
X-12405521Y-14227567D01*
X-12405528Y-14227562D01*
X-12622287Y-14079777D01*
X-12622294Y-14079773D01*
X-12858673Y-13965938D01*
X-12858686Y-13965933D01*
X-13109381Y-13888604D01*
X-13224689Y-13871224D01*
X-13368818Y-13849500D01*
X-13631182Y-13849500D01*
X-13760899Y-13869052D01*
X-13890620Y-13888604D01*
X-14141315Y-13965933D01*
X-14141328Y-13965938D01*
X-14377707Y-14079773D01*
X-14377714Y-14079777D01*
X-14594473Y-14227562D01*
X-14594478Y-14227566D01*
X-14786805Y-14406018D01*
X-14950389Y-14611146D01*
X-15081567Y-14838352D01*
X-15081570Y-14838360D01*
X-15177419Y-15082580D01*
X-15177420Y-15082582D01*
X-15235802Y-15338366D01*
X-15255408Y-15600000D01*
X-44263589Y-15600000D01*
X-44244341Y-15380000D01*
X-44264937Y-15144592D01*
X-44326097Y-14916337D01*
X-44425965Y-14702171D01*
X-44425966Y-14702170D01*
X-44425967Y-14702167D01*
X-44561499Y-14508607D01*
X-44561502Y-14508603D01*
X-44561505Y-14508599D01*
X-44728599Y-14341505D01*
X-44922170Y-14205965D01*
X-45136337Y-14106097D01*
X-45136339Y-14106096D01*
X-45364589Y-14044937D01*
X-45600000Y-14024341D01*
X-45835412Y-14044937D01*
X-46063662Y-14106096D01*
X-46063666Y-14106098D01*
X-46277833Y-14205966D01*
X-46471393Y-14341498D01*
X-46471404Y-14341507D01*
X-46638493Y-14508596D01*
X-46638502Y-14508607D01*
X-46774034Y-14702167D01*
X-46873902Y-14916334D01*
X-46873904Y-14916338D01*
X-46935063Y-15144588D01*
X-46955659Y-15380000D01*
X-54000000Y-15380000D01*
X-54000000Y-11620001D01*
X-53163041Y-11620001D01*
X-53142896Y-11953045D01*
X-53142895Y-11953048D01*
X-53082753Y-12281236D01*
X-52983486Y-12599795D01*
X-52846557Y-12904038D01*
X-52846554Y-12904044D01*
X-52673942Y-13189579D01*
X-52522322Y-13383111D01*
X-51696633Y-12557421D01*
X-51620412Y-12662330D01*
X-51442330Y-12840412D01*
X-51337424Y-12916631D01*
X-52163113Y-13742320D01*
X-51969580Y-13893941D01*
X-51684045Y-14066553D01*
X-51684039Y-14066556D01*
X-51379796Y-14203485D01*
X-51061237Y-14302752D01*
X-50733049Y-14362894D01*
X-50733046Y-14362895D01*
X-50400001Y-14383041D01*
X-50399999Y-14383041D01*
X-50066955Y-14362895D01*
X-50066952Y-14362894D01*
X-49738764Y-14302752D01*
X-49420205Y-14203485D01*
X-49115962Y-14066556D01*
X-49115956Y-14066553D01*
X-48830415Y-13893938D01*
X-48636890Y-13742321D01*
X-48636889Y-13742320D01*
X-48904209Y-13475000D01*
X-41875659Y-13475000D01*
X-41855063Y-13710411D01*
X-41793904Y-13938661D01*
X-41793903Y-13938663D01*
X-41781187Y-13965933D01*
X-41694035Y-14152830D01*
X-41561926Y-14341502D01*
X-41558495Y-14346401D01*
X-41391401Y-14513495D01*
X-41197830Y-14649035D01*
X-40983663Y-14748903D01*
X-40755408Y-14810063D01*
X-40520000Y-14830659D01*
X-40284592Y-14810063D01*
X-40056337Y-14748903D01*
X-39842170Y-14649035D01*
X-39648599Y-14513495D01*
X-39481505Y-14346401D01*
X-39345965Y-14152830D01*
X-39246097Y-13938663D01*
X-39184937Y-13710408D01*
X-39164341Y-13475000D01*
X-39184937Y-13239592D01*
X-39246097Y-13011337D01*
X-39345965Y-12797171D01*
X-39345966Y-12797170D01*
X-39345967Y-12797167D01*
X-39481499Y-12603607D01*
X-39481502Y-12603603D01*
X-39481505Y-12603599D01*
X-39648599Y-12436505D01*
X-39717169Y-12388492D01*
X-39842170Y-12300965D01*
X-39956118Y-12247830D01*
X-40056337Y-12201097D01*
X-40056339Y-12201096D01*
X-40284589Y-12139937D01*
X-40520000Y-12119341D01*
X-40755412Y-12139937D01*
X-40983662Y-12201096D01*
X-40983666Y-12201098D01*
X-41197833Y-12300966D01*
X-41391393Y-12436498D01*
X-41391404Y-12436507D01*
X-41558493Y-12603596D01*
X-41558502Y-12603607D01*
X-41694034Y-12797167D01*
X-41793902Y-13011334D01*
X-41793904Y-13011338D01*
X-41855063Y-13239588D01*
X-41875659Y-13475000D01*
X-48904209Y-13475000D01*
X-49462578Y-12916631D01*
X-49357670Y-12840412D01*
X-49179588Y-12662330D01*
X-49103369Y-12557422D01*
X-48277680Y-13383111D01*
X-48277679Y-13383110D01*
X-48126062Y-13189585D01*
X-47953447Y-12904044D01*
X-47953444Y-12904038D01*
X-47816515Y-12599795D01*
X-47717248Y-12281236D01*
X-47657106Y-11953048D01*
X-47657105Y-11953045D01*
X-47636959Y-11620001D01*
X-47636959Y-11619998D01*
X-47639983Y-11570000D01*
X-46955659Y-11570000D01*
X-46935063Y-11805411D01*
X-46873904Y-12033661D01*
X-46873902Y-12033665D01*
X-46774035Y-12247830D01*
X-46641926Y-12436502D01*
X-46638495Y-12441401D01*
X-46471401Y-12608495D01*
X-46277830Y-12744035D01*
X-46063663Y-12843903D01*
X-45883641Y-12892139D01*
X-45839234Y-12904038D01*
X-45835408Y-12905063D01*
X-45600000Y-12925659D01*
X-45364592Y-12905063D01*
X-45136337Y-12843903D01*
X-44922170Y-12744035D01*
X-44728599Y-12608495D01*
X-44561505Y-12441401D01*
X-44425965Y-12247830D01*
X-44326097Y-12033663D01*
X-44264937Y-11805408D01*
X-44244341Y-11570000D01*
X-44264937Y-11334592D01*
X-44326097Y-11106337D01*
X-44425965Y-10892171D01*
X-44425966Y-10892170D01*
X-44425967Y-10892167D01*
X-44561499Y-10698607D01*
X-44561502Y-10698603D01*
X-44561505Y-10698599D01*
X-44728599Y-10531505D01*
X-44804157Y-10478599D01*
X-44922170Y-10395965D01*
X-45050849Y-10335961D01*
X-45136337Y-10296097D01*
X-45136339Y-10296096D01*
X-45364589Y-10234937D01*
X-45600000Y-10214341D01*
X-45835412Y-10234937D01*
X-46063662Y-10296096D01*
X-46063666Y-10296098D01*
X-46277833Y-10395966D01*
X-46471393Y-10531498D01*
X-46471404Y-10531507D01*
X-46638493Y-10698596D01*
X-46638502Y-10698607D01*
X-46774034Y-10892167D01*
X-46873902Y-11106334D01*
X-46873904Y-11106338D01*
X-46935063Y-11334588D01*
X-46955659Y-11570000D01*
X-47639983Y-11570000D01*
X-47657105Y-11286954D01*
X-47657106Y-11286951D01*
X-47717248Y-10958763D01*
X-47816515Y-10640204D01*
X-47953444Y-10335961D01*
X-47953447Y-10335955D01*
X-48126059Y-10050420D01*
X-48277680Y-9856887D01*
X-49103369Y-10682576D01*
X-49179588Y-10577670D01*
X-49357670Y-10399588D01*
X-49462578Y-10323367D01*
X-48804211Y-9665000D01*
X-42132972Y-9665000D01*
X-42113114Y-9917323D01*
X-42054029Y-10163434D01*
X-41957170Y-10397272D01*
X-41825823Y-10611611D01*
X-41825822Y-10611611D01*
X-41122699Y-9908488D01*
X-41096022Y-9972890D01*
X-41024888Y-10079351D01*
X-40934351Y-10169888D01*
X-40827890Y-10241022D01*
X-40763490Y-10267698D01*
X-41466613Y-10970820D01*
X-41466613Y-10970822D01*
X-41252273Y-11102169D01*
X-41018435Y-11199028D01*
X-40772324Y-11258113D01*
X-40520000Y-11277971D01*
X-40267677Y-11258113D01*
X-40021566Y-11199028D01*
X-39787723Y-11102167D01*
X-39573389Y-10970822D01*
X-39573389Y-10970820D01*
X-40276511Y-10267698D01*
X-40212110Y-10241022D01*
X-40105649Y-10169888D01*
X-40015112Y-10079351D01*
X-39943978Y-9972890D01*
X-39917302Y-9908489D01*
X-39214180Y-10611611D01*
X-39214178Y-10611611D01*
X-39082833Y-10397277D01*
X-38985972Y-10163434D01*
X-38926887Y-9917323D01*
X-38907029Y-9665000D01*
X-38926887Y-9412676D01*
X-38985972Y-9166565D01*
X-39082831Y-8932727D01*
X-39214178Y-8718387D01*
X-39214180Y-8718387D01*
X-39917303Y-9421509D01*
X-39943978Y-9357110D01*
X-40015112Y-9250649D01*
X-40105649Y-9160112D01*
X-40212110Y-9088978D01*
X-40276512Y-9062301D01*
X-39573389Y-8359178D01*
X-39573389Y-8359177D01*
X-39787728Y-8227830D01*
X-40021566Y-8130971D01*
X-40267677Y-8071886D01*
X-40520000Y-8052028D01*
X-40772324Y-8071886D01*
X-41018435Y-8130971D01*
X-41252273Y-8227830D01*
X-41466613Y-8359176D01*
X-41466613Y-8359178D01*
X-40763490Y-9062301D01*
X-40827890Y-9088978D01*
X-40934351Y-9160112D01*
X-41024888Y-9250649D01*
X-41096022Y-9357110D01*
X-41122699Y-9421510D01*
X-41825822Y-8718387D01*
X-41825824Y-8718387D01*
X-41957170Y-8932727D01*
X-42054029Y-9166565D01*
X-42113114Y-9412676D01*
X-42132972Y-9665000D01*
X-48804211Y-9665000D01*
X-48636889Y-9497678D01*
X-48830421Y-9346058D01*
X-49115956Y-9173446D01*
X-49115962Y-9173443D01*
X-49420205Y-9036514D01*
X-49738764Y-8937247D01*
X-50066952Y-8877105D01*
X-50066955Y-8877104D01*
X-50399999Y-8856959D01*
X-50400001Y-8856959D01*
X-50733046Y-8877104D01*
X-50733049Y-8877105D01*
X-51061237Y-8937247D01*
X-51379796Y-9036514D01*
X-51684039Y-9173443D01*
X-51684045Y-9173446D01*
X-51969586Y-9346061D01*
X-52163113Y-9497678D01*
X-51337423Y-10323368D01*
X-51442330Y-10399588D01*
X-51620412Y-10577670D01*
X-51696632Y-10682577D01*
X-52522322Y-9856887D01*
X-52673939Y-10050414D01*
X-52846554Y-10335955D01*
X-52846557Y-10335961D01*
X-52983486Y-10640204D01*
X-53082753Y-10958763D01*
X-53142895Y-11286951D01*
X-53142896Y-11286954D01*
X-53163041Y-11619998D01*
X-53163041Y-11620001D01*
X-54000000Y-11620001D01*
X-54000000Y-7760000D01*
X-46955659Y-7760000D01*
X-46935063Y-7995411D01*
X-46873904Y-8223661D01*
X-46873903Y-8223663D01*
X-46774035Y-8437830D01*
X-46638495Y-8631401D01*
X-46471401Y-8798495D01*
X-46277830Y-8934035D01*
X-46063663Y-9033903D01*
X-45835408Y-9095063D01*
X-45600000Y-9115659D01*
X-45364592Y-9095063D01*
X-45136337Y-9033903D01*
X-44922170Y-8934035D01*
X-44728599Y-8798495D01*
X-44561505Y-8631401D01*
X-44425965Y-8437830D01*
X-44326097Y-8223663D01*
X-44264937Y-7995408D01*
X-44244341Y-7760000D01*
X-44264937Y-7524592D01*
X-44267077Y-7516607D01*
X-44304755Y-7375987D01*
X-44326097Y-7296337D01*
X-44425965Y-7082171D01*
X-44425966Y-7082170D01*
X-44425967Y-7082167D01*
X-44561499Y-6888607D01*
X-44561502Y-6888603D01*
X-44561505Y-6888599D01*
X-44728599Y-6721505D01*
X-44879606Y-6615769D01*
X-44922170Y-6585965D01*
X-45099248Y-6503392D01*
X-45136337Y-6486097D01*
X-45136339Y-6486096D01*
X-45364589Y-6424937D01*
X-45600000Y-6404341D01*
X-45835412Y-6424937D01*
X-46063662Y-6486096D01*
X-46063666Y-6486098D01*
X-46277833Y-6585966D01*
X-46471393Y-6721498D01*
X-46471404Y-6721507D01*
X-46638493Y-6888596D01*
X-46638502Y-6888607D01*
X-46774034Y-7082167D01*
X-46873902Y-7296334D01*
X-46873904Y-7296338D01*
X-46935063Y-7524588D01*
X-46955659Y-7760000D01*
X-54000000Y-7760000D01*
X-54000000Y-4580000D01*
X-51712996Y-4580000D01*
X-51693049Y-4808002D01*
X-51633814Y-5029068D01*
X-51633812Y-5029073D01*
X-51537087Y-5236501D01*
X-51487101Y-5307888D01*
X-50884159Y-4704946D01*
X-50865925Y-4772993D01*
X-50800099Y-4887007D01*
X-50707007Y-4980099D01*
X-50592993Y-5045925D01*
X-50524949Y-5064157D01*
X-51127890Y-5667098D01*
X-51127890Y-5667100D01*
X-51056502Y-5717086D01*
X-50849074Y-5813811D01*
X-50849069Y-5813813D01*
X-50628001Y-5873048D01*
X-50628005Y-5873048D01*
X-50400000Y-5892995D01*
X-50171998Y-5873048D01*
X-50104643Y-5855000D01*
X-41875659Y-5855000D01*
X-41855063Y-6090411D01*
X-41793904Y-6318661D01*
X-41793902Y-6318665D01*
X-41694035Y-6532830D01*
X-41561926Y-6721502D01*
X-41558495Y-6726401D01*
X-41391401Y-6893495D01*
X-41197830Y-7029035D01*
X-40983663Y-7128903D01*
X-40755408Y-7190063D01*
X-40520000Y-7210659D01*
X-40284592Y-7190063D01*
X-40056337Y-7128903D01*
X-39842170Y-7029035D01*
X-39648599Y-6893495D01*
X-39555103Y-6799999D01*
X-10505643Y-6799999D01*
X-10500930Y-6856876D01*
X-10500500Y-6867281D01*
X-10500500Y-6918092D01*
X-10498415Y-6931256D01*
X-10491498Y-6974932D01*
X-10490377Y-6984231D01*
X-10485108Y-7047821D01*
X-10485108Y-7047824D01*
X-10485107Y-7047825D01*
X-10485106Y-7047832D01*
X-10472754Y-7096613D01*
X-10470451Y-7107826D01*
X-10463555Y-7151361D01*
X-10463552Y-7151373D01*
X-10443690Y-7212501D01*
X-10441379Y-7220505D01*
X-10424064Y-7288880D01*
X-10424062Y-7288885D01*
X-10406555Y-7328795D01*
X-10402108Y-7340475D01*
X-10390570Y-7375987D01*
X-10390565Y-7375999D01*
X-10358325Y-7439273D01*
X-10355216Y-7445837D01*
X-10334663Y-7492694D01*
X-10324173Y-7516608D01*
X-10304018Y-7547457D01*
X-10297235Y-7559169D01*
X-10283346Y-7586428D01*
X-10283343Y-7586433D01*
X-10237638Y-7649340D01*
X-10234121Y-7654441D01*
X-10188167Y-7724780D01*
X-10188161Y-7724789D01*
X-10167771Y-7746938D01*
X-10158538Y-7758212D01*
X-10144517Y-7777510D01*
X-10084783Y-7837244D01*
X-10081223Y-7840954D01*
X-10049823Y-7875063D01*
X-10019744Y-7907739D01*
X-10001308Y-7922088D01*
X-9989604Y-7932424D01*
X-9977516Y-7944512D01*
X-9977513Y-7944514D01*
X-9977510Y-7944517D01*
X-9907464Y-7995408D01*
X-9903766Y-7998095D01*
X-9900437Y-8000598D01*
X-9823509Y-8060474D01*
X-9808902Y-8068379D01*
X-9794814Y-8077254D01*
X-9786433Y-8083343D01*
X-9699188Y-8127796D01*
X-9696458Y-8129230D01*
X-9604816Y-8178825D01*
X-9604810Y-8178828D01*
X-9604800Y-8178832D01*
X-9595486Y-8182030D01*
X-9579204Y-8188932D01*
X-9575996Y-8190566D01*
X-9575992Y-8190568D01*
X-9501110Y-8214898D01*
X-9476536Y-8222883D01*
X-9474559Y-8223543D01*
X-9462071Y-8227830D01*
X-9369614Y-8259571D01*
X-9366565Y-8260079D01*
X-9356222Y-8262609D01*
X-9356171Y-8262400D01*
X-9351369Y-8263553D01*
X-9329301Y-8267048D01*
X-9241184Y-8281003D01*
X-9240535Y-8281109D01*
X-9124335Y-8300500D01*
X-8875665Y-8300500D01*
X-8759491Y-8281113D01*
X-8758797Y-8281000D01*
X-8648632Y-8263553D01*
X-8648623Y-8263549D01*
X-8643816Y-8262397D01*
X-8643766Y-8262607D01*
X-8633442Y-8260080D01*
X-8630386Y-8259571D01*
X-8525385Y-8223523D01*
X-8523493Y-8222891D01*
X-8424008Y-8190568D01*
X-8420805Y-8188935D01*
X-8404519Y-8182030D01*
X-8395190Y-8178828D01*
X-8303543Y-8129230D01*
X-8300811Y-8127795D01*
X-8213567Y-8083343D01*
X-8205188Y-8077254D01*
X-8191098Y-8068378D01*
X-8176491Y-8060474D01*
X-8099534Y-8000574D01*
X-8096298Y-7998140D01*
X-8022490Y-7944517D01*
X-8010397Y-7932422D01*
X-7998689Y-7922084D01*
X-7980256Y-7907738D01*
X-7918777Y-7840952D01*
X-7915219Y-7837244D01*
X-7855483Y-7777510D01*
X-7841457Y-7758203D01*
X-7832244Y-7746952D01*
X-7811836Y-7724785D01*
X-7765893Y-7654462D01*
X-7762343Y-7649312D01*
X-7716657Y-7586433D01*
X-7702758Y-7559151D01*
X-7695990Y-7547466D01*
X-7675827Y-7516607D01*
X-7644783Y-7445831D01*
X-7641690Y-7439300D01*
X-7609432Y-7375992D01*
X-7597889Y-7340462D01*
X-7593459Y-7328823D01*
X-7575937Y-7288881D01*
X-7558618Y-7220486D01*
X-7556310Y-7212498D01*
X-7536449Y-7151375D01*
X-7536449Y-7151373D01*
X-7536447Y-7151368D01*
X-7529548Y-7107801D01*
X-7527251Y-7096621D01*
X-7514892Y-7047821D01*
X-7509624Y-6984223D01*
X-7508502Y-6974921D01*
X-7499500Y-6918092D01*
X-7499500Y-6867281D01*
X-7499070Y-6856876D01*
X-7494357Y-6800000D01*
X-7499070Y-6743121D01*
X-7499500Y-6732717D01*
X-7499500Y-6681906D01*
X-7508502Y-6625078D01*
X-7509624Y-6615769D01*
X-7509624Y-6615766D01*
X-7514892Y-6552179D01*
X-7527248Y-6503388D01*
X-7529552Y-6492170D01*
X-7536447Y-6448632D01*
X-7556320Y-6387471D01*
X-7558617Y-6379515D01*
X-7575937Y-6311119D01*
X-7593451Y-6271194D01*
X-7597894Y-6259521D01*
X-7609431Y-6224012D01*
X-7609432Y-6224008D01*
X-7641680Y-6160720D01*
X-7644790Y-6154152D01*
X-7675827Y-6083393D01*
X-7695985Y-6052540D01*
X-7702766Y-6040831D01*
X-7716657Y-6013567D01*
X-7762347Y-5950681D01*
X-7765896Y-5945533D01*
X-7800220Y-5892995D01*
X-7811836Y-5875215D01*
X-7832231Y-5853060D01*
X-7841459Y-5841793D01*
X-7855483Y-5822490D01*
X-7915220Y-5762753D01*
X-7918803Y-5759018D01*
X-7980252Y-5692266D01*
X-7980254Y-5692265D01*
X-7980256Y-5692262D01*
X-7998699Y-5677907D01*
X-8010396Y-5667577D01*
X-8022490Y-5655483D01*
X-8096236Y-5601903D01*
X-8099565Y-5599399D01*
X-8176493Y-5539524D01*
X-8191102Y-5531618D01*
X-8205190Y-5522743D01*
X-8213563Y-5516660D01*
X-8213567Y-5516657D01*
X-8218751Y-5514015D01*
X-8300796Y-5472210D01*
X-8303561Y-5470758D01*
X-8395186Y-5421174D01*
X-8395187Y-5421173D01*
X-8395190Y-5421172D01*
X-8404521Y-5417968D01*
X-8420793Y-5411070D01*
X-8424010Y-5409431D01*
X-8523504Y-5377103D01*
X-8525478Y-5376443D01*
X-8630386Y-5340429D01*
X-8633453Y-5339917D01*
X-8643773Y-5337395D01*
X-8643822Y-5337601D01*
X-8648625Y-5336448D01*
X-8758602Y-5319029D01*
X-8759628Y-5318862D01*
X-8828504Y-5307369D01*
X-8875665Y-5299500D01*
X-9124335Y-5299500D01*
X-9161239Y-5305658D01*
X-9240374Y-5318862D01*
X-9241399Y-5319029D01*
X-9308256Y-5329618D01*
X-9351368Y-5336447D01*
X-9351371Y-5336447D01*
X-9351372Y-5336448D01*
X-9356180Y-5337602D01*
X-9356230Y-5337396D01*
X-9366540Y-5339915D01*
X-9369601Y-5340426D01*
X-9369614Y-5340429D01*
X-9474525Y-5376444D01*
X-9476497Y-5377103D01*
X-9576001Y-5409435D01*
X-9579216Y-5411073D01*
X-9595474Y-5417965D01*
X-9604802Y-5421168D01*
X-9604809Y-5421171D01*
X-9604810Y-5421172D01*
X-9696440Y-5470759D01*
X-9699203Y-5472210D01*
X-9786437Y-5516659D01*
X-9786442Y-5516662D01*
X-9794817Y-5522747D01*
X-9808893Y-5531615D01*
X-9823507Y-5539524D01*
X-9900408Y-5599378D01*
X-9903735Y-5601879D01*
X-9977506Y-5655479D01*
X-9977514Y-5655485D01*
X-9989610Y-5667581D01*
X-10001305Y-5677909D01*
X-10019746Y-5692263D01*
X-10019752Y-5692268D01*
X-10081201Y-5759019D01*
X-10084804Y-5762775D01*
X-10144516Y-5822488D01*
X-10144520Y-5822492D01*
X-10158544Y-5841794D01*
X-10167773Y-5853064D01*
X-10188164Y-5875215D01*
X-10188165Y-5875216D01*
X-10234110Y-5945540D01*
X-10237657Y-5950685D01*
X-10283343Y-6013566D01*
X-10297235Y-6040831D01*
X-10304015Y-6052537D01*
X-10313998Y-6067817D01*
X-10324174Y-6083394D01*
X-10355212Y-6154152D01*
X-10358331Y-6160737D01*
X-10390566Y-6224003D01*
X-10390572Y-6224017D01*
X-10402109Y-6259524D01*
X-10406553Y-6271198D01*
X-10424062Y-6311113D01*
X-10424065Y-6311122D01*
X-10441377Y-6379485D01*
X-10443687Y-6387485D01*
X-10463551Y-6448625D01*
X-10463555Y-6448638D01*
X-10470451Y-6492175D01*
X-10472754Y-6503388D01*
X-10485107Y-6552172D01*
X-10485108Y-6552176D01*
X-10485108Y-6552179D01*
X-10490377Y-6615766D01*
X-10491498Y-6625068D01*
X-10500500Y-6681908D01*
X-10500500Y-6732717D01*
X-10500930Y-6743121D01*
X-10505643Y-6799999D01*
X-39555103Y-6799999D01*
X-39481505Y-6726401D01*
X-39345965Y-6532830D01*
X-39246097Y-6318663D01*
X-39184937Y-6090408D01*
X-39164341Y-5855000D01*
X-39184937Y-5619592D01*
X-39246097Y-5391337D01*
X-39345965Y-5177171D01*
X-39345966Y-5177170D01*
X-39345967Y-5177167D01*
X-39481499Y-4983607D01*
X-39481502Y-4983603D01*
X-39481505Y-4983599D01*
X-39648599Y-4816505D01*
X-39660743Y-4808002D01*
X-39842170Y-4680965D01*
X-40056335Y-4581098D01*
X-40056339Y-4581096D01*
X-40284589Y-4519937D01*
X-40520000Y-4499341D01*
X-40755412Y-4519937D01*
X-40983662Y-4581096D01*
X-40983666Y-4581098D01*
X-41197833Y-4680966D01*
X-41391393Y-4816498D01*
X-41391404Y-4816507D01*
X-41558493Y-4983596D01*
X-41558502Y-4983607D01*
X-41694034Y-5177167D01*
X-41793902Y-5391334D01*
X-41793904Y-5391338D01*
X-41855063Y-5619588D01*
X-41875659Y-5855000D01*
X-50104643Y-5855000D01*
X-49950932Y-5813813D01*
X-49950927Y-5813811D01*
X-49743503Y-5717088D01*
X-49672112Y-5667099D01*
X-49672112Y-5667097D01*
X-50275052Y-5064157D01*
X-50207007Y-5045925D01*
X-50092993Y-4980099D01*
X-49999901Y-4887007D01*
X-49934075Y-4772993D01*
X-49915843Y-4704948D01*
X-49312903Y-5307888D01*
X-49312901Y-5307888D01*
X-49262912Y-5236497D01*
X-49166189Y-5029073D01*
X-49166187Y-5029068D01*
X-49106952Y-4808002D01*
X-49087005Y-4580000D01*
X-49106952Y-4351997D01*
X-49166187Y-4130931D01*
X-49166189Y-4130926D01*
X-49262914Y-3923498D01*
X-49312900Y-3852110D01*
X-49312902Y-3852110D01*
X-49915843Y-4455051D01*
X-49934075Y-4387007D01*
X-49999901Y-4272993D01*
X-50092993Y-4179901D01*
X-50207007Y-4114075D01*
X-50275053Y-4095841D01*
X-49672112Y-3492899D01*
X-49676216Y-3445981D01*
X-49676216Y-3424017D01*
X-49672111Y-3377098D01*
X-50275052Y-2774157D01*
X-50207007Y-2755925D01*
X-50092993Y-2690099D01*
X-49999901Y-2597007D01*
X-49934075Y-2482993D01*
X-49915843Y-2414948D01*
X-49312903Y-3017888D01*
X-49312901Y-3017888D01*
X-49262912Y-2946497D01*
X-49166189Y-2739073D01*
X-49166187Y-2739068D01*
X-49106952Y-2518002D01*
X-49087005Y-2290000D01*
X-49106952Y-2061997D01*
X-49166187Y-1840931D01*
X-49166189Y-1840926D01*
X-49262914Y-1633498D01*
X-49312900Y-1562110D01*
X-49312902Y-1562110D01*
X-49915843Y-2165051D01*
X-49934075Y-2097007D01*
X-49999901Y-1982993D01*
X-50092993Y-1889901D01*
X-50207007Y-1824075D01*
X-50275053Y-1805841D01*
X-49672112Y-1202899D01*
X-49676216Y-1155981D01*
X-49676216Y-1134017D01*
X-49672111Y-1087098D01*
X-50275052Y-484157D01*
X-50207007Y-465925D01*
X-50092993Y-400099D01*
X-49999901Y-307007D01*
X-49934075Y-192993D01*
X-49915843Y-124948D01*
X-49312903Y-727888D01*
X-49312901Y-727888D01*
X-49262912Y-656497D01*
X-49166189Y-449073D01*
X-49166187Y-449068D01*
X-49106952Y-228002D01*
X-49087005Y0D01*
X-49106952Y228003D01*
X-49166187Y449069D01*
X-49166189Y449074D01*
X-49262914Y656502D01*
X-49312900Y727890D01*
X-49312902Y727890D01*
X-49915843Y124949D01*
X-49934075Y192993D01*
X-49999901Y307007D01*
X-50092993Y400099D01*
X-50207007Y465925D01*
X-50275053Y484159D01*
X-49672112Y1087101D01*
X-49672112Y1087102D01*
X-49743499Y1137087D01*
X-49827500Y1176257D01*
X-49880785Y1223174D01*
X-49900246Y1291452D01*
X-49879704Y1359412D01*
X-49833648Y1401573D01*
X-49813550Y1412315D01*
X-49653590Y1543590D01*
X-49522315Y1703550D01*
X-49424768Y1886046D01*
X-49364700Y2084066D01*
X-49359322Y2138663D01*
X-49344417Y2289997D01*
X-49344417Y2290004D01*
X-49364699Y2495928D01*
X-49364700Y2495930D01*
X-49364700Y2495934D01*
X-49424768Y2693954D01*
X-49522315Y2876450D01*
X-49653590Y3036410D01*
X-49813550Y3167685D01*
X-49813552Y3167686D01*
X-49813553Y3167687D01*
X-49833648Y3178428D01*
X-49884295Y3228181D01*
X-49900004Y3297418D01*
X-49875787Y3364156D01*
X-49827499Y3403744D01*
X-49743507Y3442910D01*
X-49743504Y3442912D01*
X-49672112Y3492901D01*
X-49672112Y3492903D01*
X-50275052Y4095843D01*
X-50207007Y4114075D01*
X-50092993Y4179901D01*
X-49999901Y4272993D01*
X-49934075Y4387007D01*
X-49915843Y4455052D01*
X-49312903Y3852112D01*
X-49312901Y3852112D01*
X-49262912Y3923503D01*
X-49166189Y4130927D01*
X-49166187Y4130932D01*
X-49106952Y4351998D01*
X-49087005Y4580000D01*
X-49106952Y4808005D01*
X-49114731Y4837035D01*
X-49113043Y4908012D01*
X-49073249Y4966808D01*
X-49007985Y4994757D01*
X-48982043Y4995169D01*
X-48947101Y4992112D01*
X-48344159Y5595054D01*
X-48325925Y5527007D01*
X-48260099Y5412993D01*
X-48167007Y5319901D01*
X-48052993Y5254075D01*
X-47984949Y5235843D01*
X-48587890Y4632902D01*
X-48587890Y4632900D01*
X-48516502Y4582914D01*
X-48516499Y4582912D01*
X-48432502Y4543744D01*
X-48379216Y4496827D01*
X-48359755Y4428550D01*
X-48380297Y4360590D01*
X-48426351Y4318429D01*
X-48446447Y4307687D01*
X-48446449Y4307686D01*
X-48446450Y4307685D01*
X-48523170Y4244723D01*
X-48606410Y4176410D01*
X-48737687Y4016448D01*
X-48835232Y3833955D01*
X-48895302Y3635928D01*
X-48915583Y3430004D01*
X-48915583Y3429997D01*
X-48895302Y3224073D01*
X-48895301Y3224067D01*
X-48895300Y3224066D01*
X-48848462Y3069660D01*
X-48835232Y3026046D01*
X-48776212Y2915627D01*
X-48737685Y2843550D01*
X-48606410Y2683590D01*
X-48446450Y2552315D01*
X-48263954Y2454768D01*
X-48101782Y2405575D01*
X-48042401Y2366660D01*
X-48013486Y2301819D01*
X-48024216Y2231638D01*
X-48071185Y2178399D01*
X-48101781Y2164427D01*
X-48186711Y2138663D01*
X-48263955Y2115232D01*
X-48446448Y2017687D01*
X-48606410Y1886410D01*
X-48737687Y1726448D01*
X-48835232Y1543955D01*
X-48895302Y1345928D01*
X-48915583Y1140004D01*
X-48915583Y1139997D01*
X-48895302Y934073D01*
X-48835232Y736046D01*
X-48757685Y590966D01*
X-48737685Y553550D01*
X-48606410Y393590D01*
X-48446450Y262315D01*
X-48263954Y164768D01*
X-48101782Y115575D01*
X-48042401Y76660D01*
X-48013486Y11819D01*
X-48024216Y-58362D01*
X-48071185Y-111601D01*
X-48101781Y-125573D01*
X-48198942Y-155046D01*
X-48263955Y-174768D01*
X-48446448Y-272313D01*
X-48606410Y-403590D01*
X-48737687Y-563552D01*
X-48835232Y-746045D01*
X-48895302Y-944072D01*
X-48915583Y-1149996D01*
X-48915583Y-1150003D01*
X-48895302Y-1355927D01*
X-48895301Y-1355933D01*
X-48895300Y-1355934D01*
X-48875872Y-1419979D01*
X-48835232Y-1553954D01*
X-48739556Y-1732951D01*
X-48737685Y-1736450D01*
X-48606410Y-1896410D01*
X-48446450Y-2027685D01*
X-48263954Y-2125232D01*
X-48101782Y-2174425D01*
X-48042401Y-2213340D01*
X-48013486Y-2278181D01*
X-48024216Y-2348362D01*
X-48071185Y-2401601D01*
X-48101781Y-2415573D01*
X-48198942Y-2445046D01*
X-48263955Y-2464768D01*
X-48446448Y-2562313D01*
X-48606410Y-2693590D01*
X-48737687Y-2853552D01*
X-48835232Y-3036045D01*
X-48895302Y-3234072D01*
X-48915583Y-3439996D01*
X-48915583Y-3440003D01*
X-48895302Y-3645927D01*
X-48835232Y-3843954D01*
X-48792714Y-3923500D01*
X-48737685Y-4026450D01*
X-48606410Y-4186410D01*
X-48446450Y-4317685D01*
X-48263954Y-4415232D01*
X-48065934Y-4475300D01*
X-48065930Y-4475300D01*
X-48065928Y-4475301D01*
X-47860003Y-4495583D01*
X-47860000Y-4495583D01*
X-47859997Y-4495583D01*
X-47654073Y-4475301D01*
X-47654072Y-4475300D01*
X-47654066Y-4475300D01*
X-47456046Y-4415232D01*
X-47273550Y-4317685D01*
X-47118085Y-4190098D01*
X-47052739Y-4162346D01*
X-46982761Y-4174328D01*
X-46930369Y-4222241D01*
X-46916446Y-4254888D01*
X-46873904Y-4413661D01*
X-46873902Y-4413665D01*
X-46774035Y-4627830D01*
X-46641926Y-4816502D01*
X-46638495Y-4821401D01*
X-46471401Y-4988495D01*
X-46277830Y-5124035D01*
X-46063663Y-5223903D01*
X-45835408Y-5285063D01*
X-45600000Y-5305659D01*
X-45364592Y-5285063D01*
X-45136337Y-5223903D01*
X-44922170Y-5124035D01*
X-44728599Y-4988495D01*
X-44561505Y-4821401D01*
X-44425965Y-4627830D01*
X-44326097Y-4413663D01*
X-44264937Y-4185408D01*
X-44244341Y-3950000D01*
X-44264937Y-3714592D01*
X-44326097Y-3486337D01*
X-44425965Y-3272171D01*
X-44425966Y-3272170D01*
X-44425967Y-3272167D01*
X-44561499Y-3078607D01*
X-44561502Y-3078603D01*
X-44561505Y-3078599D01*
X-44728599Y-2911505D01*
X-44823067Y-2845358D01*
X-44922170Y-2775965D01*
X-45051419Y-2715695D01*
X-45104704Y-2668778D01*
X-45124165Y-2600500D01*
X-45103623Y-2532540D01*
X-45049600Y-2486475D01*
X-44998169Y-2475500D01*
X-44250567Y-2475500D01*
X-44250565Y-2475500D01*
X-44155062Y-2449910D01*
X-44069438Y-2400475D01*
X-43999525Y-2330562D01*
X-43950090Y-2244938D01*
X-43940961Y-2210867D01*
X-43908352Y-2154387D01*
X-43798965Y-2045000D01*
X-42132972Y-2045000D01*
X-42113114Y-2297323D01*
X-42054029Y-2543434D01*
X-41957170Y-2777272D01*
X-41825823Y-2991611D01*
X-41825822Y-2991611D01*
X-41122699Y-2288488D01*
X-41096022Y-2352890D01*
X-41024888Y-2459351D01*
X-40934351Y-2549888D01*
X-40827890Y-2621022D01*
X-40763490Y-2647698D01*
X-41466613Y-3350820D01*
X-41466613Y-3350822D01*
X-41252273Y-3482169D01*
X-41018435Y-3579028D01*
X-40772324Y-3638113D01*
X-40520000Y-3657971D01*
X-40267677Y-3638113D01*
X-40021566Y-3579028D01*
X-39787723Y-3482167D01*
X-39573389Y-3350822D01*
X-39573389Y-3350820D01*
X-40276511Y-2647698D01*
X-40212110Y-2621022D01*
X-40105649Y-2549888D01*
X-40015112Y-2459351D01*
X-39943978Y-2352890D01*
X-39917302Y-2288489D01*
X-39214180Y-2991611D01*
X-39214178Y-2991611D01*
X-39082833Y-2777277D01*
X-38985972Y-2543434D01*
X-38926887Y-2297323D01*
X-38912517Y-2114736D01*
X-15750500Y-2114736D01*
X-15720550Y-2342231D01*
X-15720548Y-2342238D01*
X-15661158Y-2563887D01*
X-15573344Y-2775888D01*
X-15573343Y-2775889D01*
X-15573338Y-2775900D01*
X-15458614Y-2974608D01*
X-15458609Y-2974615D01*
X-15318927Y-3156652D01*
X-15318908Y-3156673D01*
X-15156674Y-3318907D01*
X-15156653Y-3318926D01*
X-14974616Y-3458608D01*
X-14974609Y-3458613D01*
X-14775901Y-3573337D01*
X-14775897Y-3573338D01*
X-14775888Y-3573344D01*
X-14563887Y-3661158D01*
X-14342238Y-3720548D01*
X-14342234Y-3720548D01*
X-14342232Y-3720549D01*
X-14283602Y-3728267D01*
X-14114734Y-3750500D01*
X-14114727Y-3750500D01*
X-12885273Y-3750500D01*
X-12885266Y-3750500D01*
X-12679655Y-3723430D01*
X-12657769Y-3720549D01*
X-12657769Y-3720548D01*
X-12657762Y-3720548D01*
X-12436113Y-3661158D01*
X-12224112Y-3573344D01*
X-12025388Y-3458611D01*
X-11843339Y-3318919D01*
X-11681081Y-3156661D01*
X-11541389Y-2974612D01*
X-11426656Y-2775888D01*
X-11338842Y-2563887D01*
X-11279452Y-2342238D01*
X-11258922Y-2186298D01*
X-11230200Y-2121372D01*
X-11170935Y-2082280D01*
X-11099943Y-2081435D01*
X-11039764Y-2119105D01*
X-11009505Y-2183330D01*
X-11008000Y-2202745D01*
X-11008000Y-2631613D01*
X-10973645Y-2892575D01*
X-10905516Y-3146835D01*
X-10804784Y-3390023D01*
X-10804779Y-3390034D01*
X-10673177Y-3617975D01*
X-10512934Y-3826807D01*
X-10512925Y-3826818D01*
X-10326819Y-4012924D01*
X-10326808Y-4012933D01*
X-10117976Y-4173176D01*
X-9890035Y-4304778D01*
X-9890024Y-4304783D01*
X-9646836Y-4405515D01*
X-9392578Y-4473643D01*
X-9392575Y-4473644D01*
X-9254000Y-4491887D01*
X-9254000Y-3356173D01*
X-9231591Y-3369111D01*
X-9078991Y-3410000D01*
X-8921009Y-3410000D01*
X-8768409Y-3369111D01*
X-8746000Y-3356173D01*
X-8746000Y-4491887D01*
X-8607426Y-4473644D01*
X-8607423Y-4473643D01*
X-8353165Y-4405515D01*
X-8109977Y-4304783D01*
X-8109966Y-4304778D01*
X-7882025Y-4173176D01*
X-7673193Y-4012933D01*
X-7673182Y-4012924D01*
X-7487076Y-3826818D01*
X-7487067Y-3826807D01*
X-7326824Y-3617975D01*
X-7195222Y-3390034D01*
X-7195217Y-3390023D01*
X-7094485Y-3146835D01*
X-7026356Y-2892575D01*
X-6992001Y-2631613D01*
X-6992000Y-2631604D01*
X-6992000Y-2254000D01*
X-8400000Y-2254000D01*
X-8400000Y-1746000D01*
X-6992000Y-1746000D01*
X-6992000Y-1368396D01*
X-6992001Y-1368386D01*
X-7026356Y-1107424D01*
X-7094485Y-853164D01*
X-7195217Y-609976D01*
X-7195222Y-609965D01*
X-7326824Y-382024D01*
X-7487067Y-173192D01*
X-7487076Y-173181D01*
X-7673182Y12925D01*
X-7673193Y12934D01*
X-7882025Y173177D01*
X-8109966Y304779D01*
X-8109977Y304784D01*
X-8353165Y405516D01*
X-8607426Y473645D01*
X-8746000Y491889D01*
X-8746000Y-643826D01*
X-8768409Y-630889D01*
X-8921009Y-590000D01*
X-9078991Y-590000D01*
X-9231591Y-630889D01*
X-9254000Y-643826D01*
X-9254000Y491888D01*
X-9254001Y491889D01*
X-9392575Y473645D01*
X-9646836Y405516D01*
X-9890024Y304784D01*
X-9890035Y304779D01*
X-10117976Y173177D01*
X-10326808Y12934D01*
X-10326819Y12925D01*
X-10512925Y-173181D01*
X-10512934Y-173192D01*
X-10673177Y-382024D01*
X-10804779Y-609965D01*
X-10804784Y-609976D01*
X-10905516Y-853164D01*
X-10973645Y-1107424D01*
X-11008000Y-1368386D01*
X-11008000Y-1797254D01*
X-11028002Y-1865375D01*
X-11081658Y-1911868D01*
X-11151932Y-1921972D01*
X-11216512Y-1892478D01*
X-11254896Y-1832752D01*
X-11258922Y-1813700D01*
X-11279451Y-1657769D01*
X-11279452Y-1657768D01*
X-11279452Y-1657762D01*
X-11338842Y-1436113D01*
X-11426656Y-1224112D01*
X-11426662Y-1224103D01*
X-11426663Y-1224099D01*
X-11541387Y-1025391D01*
X-11541392Y-1025384D01*
X-11681074Y-843347D01*
X-11681093Y-843326D01*
X-11843327Y-681092D01*
X-11843348Y-681073D01*
X-12025385Y-541391D01*
X-12025392Y-541386D01*
X-12224100Y-426662D01*
X-12224108Y-426658D01*
X-12224112Y-426656D01*
X-12436113Y-338842D01*
X-12657762Y-279452D01*
X-12657769Y-279450D01*
X-12885264Y-249500D01*
X-12885266Y-249500D01*
X-14114734Y-249500D01*
X-14114737Y-249500D01*
X-14342232Y-279450D01*
X-14529388Y-329598D01*
X-14563887Y-338842D01*
X-14613059Y-359210D01*
X-14775890Y-426657D01*
X-14775901Y-426662D01*
X-14974609Y-541386D01*
X-14974616Y-541391D01*
X-15156653Y-681073D01*
X-15156674Y-681092D01*
X-15318908Y-843326D01*
X-15318927Y-843347D01*
X-15458609Y-1025384D01*
X-15458614Y-1025391D01*
X-15573338Y-1224099D01*
X-15573343Y-1224110D01*
X-15661158Y-1436113D01*
X-15720550Y-1657768D01*
X-15750500Y-1885263D01*
X-15750500Y-2114736D01*
X-38912517Y-2114736D01*
X-38907029Y-2045000D01*
X-38926887Y-1792676D01*
X-38985972Y-1546565D01*
X-39082831Y-1312727D01*
X-39214178Y-1098387D01*
X-39214180Y-1098387D01*
X-39917303Y-1801509D01*
X-39943978Y-1737110D01*
X-40015112Y-1630649D01*
X-40105649Y-1540112D01*
X-40212110Y-1468978D01*
X-40276512Y-1442301D01*
X-39573389Y-739178D01*
X-39573389Y-739177D01*
X-39787728Y-607830D01*
X-40021566Y-510971D01*
X-40267677Y-451886D01*
X-40520000Y-432028D01*
X-40772324Y-451886D01*
X-41018435Y-510971D01*
X-41252273Y-607830D01*
X-41466613Y-739176D01*
X-41466613Y-739178D01*
X-40763490Y-1442301D01*
X-40827890Y-1468978D01*
X-40934351Y-1540112D01*
X-41024888Y-1630649D01*
X-41096022Y-1737110D01*
X-41122699Y-1801510D01*
X-41825822Y-1098387D01*
X-41825824Y-1098387D01*
X-41957170Y-1312727D01*
X-42054029Y-1546565D01*
X-42113114Y-1792676D01*
X-42132972Y-2045000D01*
X-43798965Y-2045000D01*
X-41236460Y517505D01*
X-41174150Y551529D01*
X-41103335Y546464D01*
X-41094128Y542608D01*
X-40983663Y491097D01*
X-40755408Y429937D01*
X-40520000Y409341D01*
X-40284592Y429937D01*
X-40056337Y491097D01*
X-39842170Y590965D01*
X-39648599Y726505D01*
X-39481505Y893599D01*
X-39345965Y1087170D01*
X-39246097Y1301337D01*
X-39184937Y1529592D01*
X-39164341Y1765000D01*
X-39184937Y2000408D01*
X-39246097Y2228663D01*
X-39345965Y2442829D01*
X-39345966Y2442830D01*
X-39345967Y2442833D01*
X-39481499Y2636393D01*
X-39481502Y2636397D01*
X-39481505Y2636401D01*
X-39648599Y2803495D01*
X-39656147Y2808780D01*
X-39842170Y2939035D01*
X-39956118Y2992170D01*
X-40056337Y3038903D01*
X-40056339Y3038904D01*
X-40284589Y3100063D01*
X-40520000Y3120659D01*
X-40755412Y3100063D01*
X-40983662Y3038904D01*
X-40983666Y3038902D01*
X-41197833Y2939034D01*
X-41391393Y2803502D01*
X-41391404Y2803493D01*
X-41558493Y2636404D01*
X-41558502Y2636393D01*
X-41694034Y2442833D01*
X-41793902Y2228666D01*
X-41793904Y2228662D01*
X-41855063Y2000412D01*
X-41875659Y1765000D01*
X-41855063Y1529589D01*
X-41793904Y1301339D01*
X-41793900Y1301330D01*
X-41742399Y1190884D01*
X-41731738Y1120693D01*
X-41760718Y1055880D01*
X-41767499Y1048540D01*
X-44503632Y-1687595D01*
X-44565944Y-1721620D01*
X-44592727Y-1724500D01*
X-44661387Y-1724500D01*
X-44729508Y-1704498D01*
X-44776001Y-1650842D01*
X-44786105Y-1580568D01*
X-44756611Y-1515988D01*
X-44727222Y-1491068D01*
X-44653389Y-1445822D01*
X-44653389Y-1445820D01*
X-45356511Y-742698D01*
X-45292110Y-716022D01*
X-45185649Y-644888D01*
X-45095112Y-554351D01*
X-45023978Y-447890D01*
X-44997302Y-383489D01*
X-44294180Y-1086611D01*
X-44294178Y-1086611D01*
X-44162833Y-872277D01*
X-44065972Y-638434D01*
X-44006887Y-392323D01*
X-43987029Y-140000D01*
X-44006887Y112324D01*
X-44065972Y358435D01*
X-44162831Y592273D01*
X-44294178Y806613D01*
X-44294180Y806613D01*
X-44997303Y103491D01*
X-45023978Y167890D01*
X-45095112Y274351D01*
X-45185649Y364888D01*
X-45292110Y436022D01*
X-45356513Y462699D01*
X-44653389Y1165822D01*
X-44653389Y1165823D01*
X-44867728Y1297170D01*
X-45101566Y1394029D01*
X-45347677Y1453114D01*
X-45600000Y1472972D01*
X-45852324Y1453114D01*
X-46098435Y1394029D01*
X-46332273Y1297170D01*
X-46548080Y1164923D01*
X-46603230Y1117820D01*
X-46668020Y1088790D01*
X-46738220Y1099395D01*
X-46791542Y1146270D01*
X-46810453Y1201282D01*
X-46824699Y1345928D01*
X-46824700Y1345930D01*
X-46824700Y1345934D01*
X-46884768Y1543954D01*
X-46982315Y1726450D01*
X-47113590Y1886410D01*
X-47273550Y2017685D01*
X-47273552Y2017686D01*
X-47273553Y2017687D01*
X-47456046Y2115232D01*
X-47618221Y2164427D01*
X-47677599Y2203340D01*
X-47706515Y2268181D01*
X-47695785Y2338362D01*
X-47648816Y2391601D01*
X-47618223Y2405573D01*
X-47456046Y2454768D01*
X-47273550Y2552315D01*
X-47113590Y2683590D01*
X-46982315Y2843550D01*
X-46943789Y2915628D01*
X-46894037Y2966275D01*
X-46824800Y2981985D01*
X-46758061Y2957769D01*
X-46729455Y2928503D01*
X-46725543Y2922917D01*
X-46641926Y2803498D01*
X-46638495Y2798599D01*
X-46471401Y2631505D01*
X-46277830Y2495965D01*
X-46063663Y2396097D01*
X-45883641Y2347861D01*
X-45848191Y2338362D01*
X-45835408Y2334937D01*
X-45600000Y2314341D01*
X-45364592Y2334937D01*
X-45136337Y2396097D01*
X-44922170Y2495965D01*
X-44728599Y2631505D01*
X-44561505Y2798599D01*
X-44425965Y2992170D01*
X-44326097Y3206337D01*
X-44264937Y3434592D01*
X-44244341Y3670000D01*
X-44264937Y3905408D01*
X-44326097Y4133663D01*
X-44425965Y4347829D01*
X-44425966Y4347830D01*
X-44425967Y4347833D01*
X-44561499Y4541393D01*
X-44561502Y4541397D01*
X-44561505Y4541401D01*
X-44728599Y4708495D01*
X-44780404Y4744769D01*
X-44922170Y4844035D01*
X-44982922Y4872364D01*
X-45136337Y4943903D01*
X-45136339Y4943904D01*
X-45364589Y5005063D01*
X-45600000Y5025659D01*
X-45835412Y5005063D01*
X-46063662Y4943904D01*
X-46063666Y4943902D01*
X-46277833Y4844034D01*
X-46471393Y4708502D01*
X-46471404Y4708493D01*
X-46638493Y4541404D01*
X-46638502Y4541393D01*
X-46774034Y4347833D01*
X-46774036Y4347829D01*
X-46863438Y4156108D01*
X-46910355Y4102824D01*
X-46978632Y4083363D01*
X-47046592Y4103905D01*
X-47075030Y4129425D01*
X-47113590Y4176410D01*
X-47273550Y4307685D01*
X-47273552Y4307686D01*
X-47273553Y4307687D01*
X-47293648Y4318428D01*
X-47344295Y4368181D01*
X-47360004Y4437418D01*
X-47335787Y4504156D01*
X-47287499Y4543744D01*
X-47203507Y4582910D01*
X-47203504Y4582912D01*
X-47132112Y4632901D01*
X-47132112Y4632903D01*
X-47735052Y5235843D01*
X-47667007Y5254075D01*
X-47552993Y5319901D01*
X-47459901Y5412993D01*
X-47394075Y5527007D01*
X-47375843Y5595052D01*
X-46772903Y4992112D01*
X-46772901Y4992112D01*
X-46722912Y5063503D01*
X-46626189Y5270927D01*
X-46626187Y5270932D01*
X-46566952Y5491998D01*
X-46559690Y5575000D01*
X-42132972Y5575000D01*
X-42113114Y5322677D01*
X-42054029Y5076566D01*
X-41957170Y4842728D01*
X-41825823Y4628389D01*
X-41825822Y4628389D01*
X-41122699Y5331512D01*
X-41096022Y5267110D01*
X-41024888Y5160649D01*
X-40934351Y5070112D01*
X-40827890Y4998978D01*
X-40763490Y4972302D01*
X-41466613Y4269180D01*
X-41466613Y4269178D01*
X-41252273Y4137831D01*
X-41018435Y4040972D01*
X-40772324Y3981887D01*
X-40520000Y3962029D01*
X-40267677Y3981887D01*
X-40021566Y4040972D01*
X-39787723Y4137833D01*
X-39573389Y4269178D01*
X-39573389Y4269180D01*
X-40276511Y4972302D01*
X-40212110Y4998978D01*
X-40105649Y5070112D01*
X-40015112Y5160649D01*
X-39943978Y5267110D01*
X-39917302Y5331511D01*
X-39214180Y4628389D01*
X-39214178Y4628389D01*
X-39082833Y4842723D01*
X-38985972Y5076566D01*
X-38926887Y5322677D01*
X-38912931Y5500001D01*
X-14455277Y5500001D01*
X-14450979Y5450874D01*
X-14450500Y5439893D01*
X-14450500Y5401585D01*
X-14442626Y5351868D01*
X-14441555Y5343141D01*
X-14436208Y5282028D01*
X-14436207Y5282020D01*
X-14426561Y5246019D01*
X-14423820Y5233125D01*
X-14421074Y5215790D01*
X-14419709Y5207174D01*
X-14400433Y5147845D01*
X-14398566Y5141542D01*
X-14379575Y5070670D01*
X-14368919Y5047818D01*
X-14368917Y5047815D01*
X-14363281Y5033506D01*
X-14358884Y5019975D01*
X-14358883Y5019973D01*
X-14358882Y5019969D01*
X-14325119Y4953705D01*
X-14323192Y4949754D01*
X-14287103Y4872361D01*
X-14287100Y4872357D01*
X-14279560Y4861589D01*
X-14270507Y4846524D01*
X-14269524Y4844595D01*
X-14218698Y4774639D01*
X-14217480Y4772930D01*
X-14161602Y4693128D01*
X-14161600Y4693125D01*
X-14161599Y4693124D01*
X-14161598Y4693123D01*
X-14006877Y4538402D01*
X-14006874Y4538400D01*
X-14006869Y4538396D01*
X-13927073Y4482522D01*
X-13925333Y4481282D01*
X-13855405Y4430476D01*
X-13855403Y4430475D01*
X-13853497Y4429504D01*
X-13838410Y4420440D01*
X-13827639Y4412898D01*
X-13750200Y4376788D01*
X-13746341Y4374906D01*
X-13680025Y4341116D01*
X-13680023Y4341116D01*
X-13680022Y4341115D01*
X-13666500Y4336722D01*
X-13652185Y4331084D01*
X-13629330Y4320425D01*
X-13581791Y4307687D01*
X-13558455Y4301434D01*
X-13552130Y4299560D01*
X-13492826Y4280291D01*
X-13466868Y4276181D01*
X-13453995Y4273445D01*
X-13417977Y4263793D01*
X-13356864Y4258448D01*
X-13348143Y4257377D01*
X-13298417Y4249500D01*
X-13260108Y4249500D01*
X-13249128Y4249021D01*
X-13200000Y4244723D01*
X-13150872Y4249021D01*
X-13139892Y4249500D01*
X-13101583Y4249500D01*
X-13051864Y4257376D01*
X-13043151Y4258446D01*
X-12982023Y4263793D01*
X-12946014Y4273443D01*
X-12933130Y4276181D01*
X-12907174Y4280291D01*
X-12847826Y4299575D01*
X-12841552Y4301433D01*
X-12805897Y4310987D01*
X-12770680Y4320422D01*
X-12770677Y4320424D01*
X-12770670Y4320425D01*
X-12751986Y4329139D01*
X-12747818Y4331082D01*
X-12733501Y4336723D01*
X-12719975Y4341116D01*
X-12653677Y4374897D01*
X-12649753Y4376810D01*
X-12627885Y4387007D01*
X-12572361Y4412898D01*
X-12561587Y4420443D01*
X-12546514Y4429499D01*
X-12544595Y4430476D01*
X-12474710Y4481253D01*
X-12472983Y4482485D01*
X-12393123Y4538402D01*
X-12238402Y4693123D01*
X-12182477Y4772993D01*
X-12181228Y4774743D01*
X-12130476Y4844595D01*
X-12129499Y4846514D01*
X-12120443Y4861587D01*
X-12112898Y4872361D01*
X-12076806Y4949762D01*
X-12074897Y4953677D01*
X-12041116Y5019975D01*
X-12036723Y5033501D01*
X-12031082Y5047818D01*
X-12029139Y5051986D01*
X-12020425Y5070670D01*
X-12001433Y5141552D01*
X-11999575Y5147826D01*
X-11980291Y5207174D01*
X-11976181Y5233130D01*
X-11973441Y5246019D01*
X-11963793Y5282023D01*
X-11958446Y5343151D01*
X-11957374Y5351876D01*
X-11949500Y5401583D01*
X-11949500Y5439893D01*
X-11949021Y5450874D01*
X-11947963Y5462965D01*
X-11944723Y5500000D01*
X-11949021Y5549129D01*
X-11949500Y5560109D01*
X-11949500Y5598415D01*
X-11957376Y5648140D01*
X-11958448Y5656871D01*
X-11959343Y5667102D01*
X-11963793Y5717977D01*
X-11973445Y5753995D01*
X-11976181Y5766868D01*
X-11980291Y5792826D01*
X-11999560Y5852130D01*
X-12001434Y5858454D01*
X-12001439Y5858472D01*
X-12020425Y5929330D01*
X-12031086Y5952191D01*
X-12036722Y5966501D01*
X-12041117Y5980027D01*
X-12074886Y6046303D01*
X-12076810Y6050247D01*
X-12112898Y6127638D01*
X-12120439Y6138408D01*
X-12129497Y6153483D01*
X-12130476Y6155405D01*
X-12181309Y6225370D01*
X-12182498Y6227037D01*
X-12238402Y6306877D01*
X-12238405Y6306880D01*
X-12238407Y6306883D01*
X-12393119Y6461595D01*
X-12393128Y6461602D01*
X-12472930Y6517480D01*
X-12474639Y6518698D01*
X-12544595Y6569524D01*
X-12546524Y6570507D01*
X-12561589Y6579560D01*
X-12572357Y6587100D01*
X-12572361Y6587103D01*
X-12649754Y6623192D01*
X-12653705Y6625119D01*
X-12719969Y6658882D01*
X-12719973Y6658883D01*
X-12719974Y6658884D01*
X-12719975Y6658884D01*
X-12733506Y6663281D01*
X-12747812Y6668916D01*
X-12770670Y6679575D01*
X-12841531Y6698563D01*
X-12841542Y6698566D01*
X-12847845Y6700433D01*
X-12907174Y6719709D01*
X-12907178Y6719710D01*
X-12907179Y6719710D01*
X-12933125Y6723820D01*
X-12946019Y6726561D01*
X-12982020Y6736207D01*
X-12982028Y6736208D01*
X-13043141Y6741555D01*
X-13051865Y6742626D01*
X-13101583Y6750500D01*
X-13101585Y6750500D01*
X-13139892Y6750500D01*
X-13150872Y6750979D01*
X-13200000Y6755277D01*
X-13249128Y6750979D01*
X-13260108Y6750500D01*
X-13298417Y6750500D01*
X-13315951Y6747723D01*
X-13348135Y6742626D01*
X-13356861Y6741555D01*
X-13417973Y6736208D01*
X-13417982Y6736207D01*
X-13453979Y6726561D01*
X-13466875Y6723820D01*
X-13492828Y6719709D01*
X-13492830Y6719709D01*
X-13552153Y6700435D01*
X-13558472Y6698563D01*
X-13629325Y6679577D01*
X-13629337Y6679573D01*
X-13652189Y6668917D01*
X-13666491Y6663283D01*
X-13680018Y6658888D01*
X-13680024Y6658885D01*
X-13746304Y6625114D01*
X-13750254Y6623188D01*
X-13827640Y6587102D01*
X-13838422Y6579553D01*
X-13853457Y6570518D01*
X-13855388Y6569535D01*
X-13855411Y6569521D01*
X-13925294Y6518747D01*
X-13927083Y6517471D01*
X-14006878Y6461598D01*
X-14006882Y6461595D01*
X-14161595Y6306882D01*
X-14161598Y6306878D01*
X-14217471Y6227083D01*
X-14218747Y6225294D01*
X-14269521Y6155411D01*
X-14269535Y6155388D01*
X-14270518Y6153457D01*
X-14279553Y6138422D01*
X-14287102Y6127640D01*
X-14323188Y6050254D01*
X-14325114Y6046304D01*
X-14358885Y5980024D01*
X-14358888Y5980018D01*
X-14363283Y5966491D01*
X-14368917Y5952189D01*
X-14379573Y5929337D01*
X-14379577Y5929325D01*
X-14398563Y5858472D01*
X-14400435Y5852153D01*
X-14419709Y5792830D01*
X-14419709Y5792828D01*
X-14423820Y5766875D01*
X-14426561Y5753979D01*
X-14436207Y5717982D01*
X-14436208Y5717973D01*
X-14441555Y5656861D01*
X-14442626Y5648135D01*
X-14450500Y5598417D01*
X-14450500Y5560109D01*
X-14450979Y5549129D01*
X-14455277Y5500001D01*
X-38912931Y5500001D01*
X-38907029Y5575000D01*
X-38926887Y5827324D01*
X-38985972Y6073435D01*
X-39082831Y6307273D01*
X-39214178Y6521613D01*
X-39214180Y6521613D01*
X-39917303Y5818491D01*
X-39943978Y5882890D01*
X-40015112Y5989351D01*
X-40105649Y6079888D01*
X-40212110Y6151022D01*
X-40276512Y6177699D01*
X-39573389Y6880822D01*
X-39573389Y6880823D01*
X-39787728Y7012170D01*
X-40021566Y7109029D01*
X-40267677Y7168114D01*
X-40520000Y7187972D01*
X-40772324Y7168114D01*
X-41018435Y7109029D01*
X-41252273Y7012170D01*
X-41466613Y6880824D01*
X-41466613Y6880822D01*
X-40763490Y6177699D01*
X-40827890Y6151022D01*
X-40934351Y6079888D01*
X-41024888Y5989351D01*
X-41096022Y5882890D01*
X-41122699Y5818490D01*
X-41825822Y6521613D01*
X-41825824Y6521613D01*
X-41957170Y6307273D01*
X-42054029Y6073435D01*
X-42113114Y5827324D01*
X-42132972Y5575000D01*
X-46559690Y5575000D01*
X-46547005Y5720000D01*
X-46567226Y5951133D01*
X-46553237Y6020738D01*
X-46503837Y6071731D01*
X-46434711Y6087921D01*
X-46375869Y6069547D01*
X-46332275Y6042832D01*
X-46098435Y5945972D01*
X-45852324Y5886887D01*
X-45600000Y5867029D01*
X-45347677Y5886887D01*
X-45101566Y5945972D01*
X-44867723Y6042833D01*
X-44653389Y6174178D01*
X-44653389Y6174180D01*
X-45356512Y6877302D01*
X-45292110Y6903978D01*
X-45185649Y6975112D01*
X-45095112Y7065649D01*
X-45023978Y7172110D01*
X-44997302Y7236511D01*
X-44294180Y6533389D01*
X-44294178Y6533389D01*
X-44162833Y6747723D01*
X-44065972Y6981566D01*
X-44006887Y7227677D01*
X-43987029Y7480000D01*
X-44006887Y7732324D01*
X-44065972Y7978435D01*
X-44162831Y8212273D01*
X-44294178Y8426613D01*
X-44294180Y8426613D01*
X-44997303Y7723491D01*
X-45023978Y7787890D01*
X-45095112Y7894351D01*
X-45185649Y7984888D01*
X-45292110Y8056022D01*
X-45356512Y8082699D01*
X-44653389Y8785822D01*
X-44653389Y8785823D01*
X-44867728Y8917170D01*
X-45101566Y9014029D01*
X-45347677Y9073114D01*
X-45600000Y9092972D01*
X-45852324Y9073114D01*
X-46098435Y9014029D01*
X-46332273Y8917170D01*
X-46546613Y8785824D01*
X-46546613Y8785822D01*
X-45843490Y8082699D01*
X-45907890Y8056022D01*
X-46014351Y7984888D01*
X-46104888Y7894351D01*
X-46176022Y7787890D01*
X-46202699Y7723489D01*
X-46905822Y8426613D01*
X-46905824Y8426613D01*
X-47037170Y8212273D01*
X-47134029Y7978435D01*
X-47193114Y7732324D01*
X-47212972Y7480000D01*
X-47193114Y7227677D01*
X-47152600Y7058924D01*
X-47156147Y6988016D01*
X-47197467Y6930282D01*
X-47263441Y6904052D01*
X-47328369Y6915315D01*
X-47410926Y6953812D01*
X-47410932Y6953814D01*
X-47632000Y7013049D01*
X-47631996Y7013049D01*
X-47860000Y7032996D01*
X-48088003Y7013049D01*
X-48309069Y6953814D01*
X-48309074Y6953812D01*
X-48516500Y6857087D01*
X-48587891Y6807101D01*
X-47984948Y6204159D01*
X-48052993Y6185925D01*
X-48167007Y6120099D01*
X-48260099Y6027007D01*
X-48325925Y5912993D01*
X-48344158Y5844949D01*
X-48947100Y6447891D01*
X-48997087Y6376500D01*
X-49093812Y6169074D01*
X-49093814Y6169069D01*
X-49153049Y5948003D01*
X-49172996Y5720000D01*
X-49153049Y5491998D01*
X-49145269Y5462965D01*
X-49146959Y5391989D01*
X-49186753Y5333193D01*
X-49252018Y5305245D01*
X-49277956Y5304833D01*
X-49312902Y5307890D01*
X-49915843Y4704949D01*
X-49934075Y4772993D01*
X-49999901Y4887007D01*
X-50092993Y4980099D01*
X-50207007Y5045925D01*
X-50275053Y5064159D01*
X-49672112Y5667101D01*
X-49672112Y5667102D01*
X-49743499Y5717087D01*
X-49950927Y5813812D01*
X-49950932Y5813814D01*
X-50172000Y5873049D01*
X-50171996Y5873049D01*
X-50400000Y5892996D01*
X-50628003Y5873049D01*
X-50849069Y5813814D01*
X-50849074Y5813812D01*
X-51056500Y5717087D01*
X-51127891Y5667100D01*
X-50524949Y5064158D01*
X-50592993Y5045925D01*
X-50707007Y4980099D01*
X-50800099Y4887007D01*
X-50865925Y4772993D01*
X-50884158Y4704949D01*
X-51487100Y5307891D01*
X-51537087Y5236500D01*
X-51633812Y5029074D01*
X-51633814Y5029069D01*
X-51693049Y4808003D01*
X-51712996Y4580000D01*
X-51693049Y4351998D01*
X-51633814Y4130932D01*
X-51633812Y4130927D01*
X-51537087Y3923499D01*
X-51487101Y3852112D01*
X-50884159Y4455054D01*
X-50865925Y4387007D01*
X-50800099Y4272993D01*
X-50707007Y4179901D01*
X-50592993Y4114075D01*
X-50524949Y4095843D01*
X-51127890Y3492902D01*
X-51127890Y3492900D01*
X-51056502Y3442914D01*
X-51056499Y3442912D01*
X-50972502Y3403744D01*
X-50919216Y3356827D01*
X-50899755Y3288550D01*
X-50920297Y3220590D01*
X-50966351Y3178429D01*
X-50986447Y3167687D01*
X-50986449Y3167686D01*
X-50986450Y3167685D01*
X-51113918Y3063075D01*
X-51146410Y3036410D01*
X-51277687Y2876448D01*
X-51375232Y2693955D01*
X-51435302Y2495928D01*
X-51455583Y2290004D01*
X-51455583Y2289997D01*
X-51435302Y2084073D01*
X-51435301Y2084067D01*
X-51435300Y2084066D01*
X-51433432Y2077907D01*
X-51375232Y1886046D01*
X-51289925Y1726448D01*
X-51277685Y1703550D01*
X-51146410Y1543590D01*
X-50986450Y1412315D01*
X-50986448Y1412314D01*
X-50966355Y1401574D01*
X-50915707Y1351822D01*
X-50899997Y1282585D01*
X-50924213Y1215846D01*
X-50972500Y1176258D01*
X-51056497Y1137090D01*
X-51056499Y1137088D01*
X-51127891Y1087100D01*
X-50524949Y484158D01*
X-50592993Y465925D01*
X-50707007Y400099D01*
X-50800099Y307007D01*
X-50865925Y192993D01*
X-50884158Y124949D01*
X-51487100Y727891D01*
X-51537087Y656500D01*
X-51633812Y449074D01*
X-51633814Y449069D01*
X-51693049Y228003D01*
X-51712996Y0D01*
X-51693049Y-228002D01*
X-51633814Y-449068D01*
X-51633812Y-449073D01*
X-51537087Y-656501D01*
X-51487101Y-727888D01*
X-50884159Y-124946D01*
X-50865925Y-192993D01*
X-50800099Y-307007D01*
X-50707007Y-400099D01*
X-50592993Y-465925D01*
X-50524949Y-484157D01*
X-51127890Y-1087098D01*
X-51123785Y-1134023D01*
X-51123786Y-1155985D01*
X-51127891Y-1202900D01*
X-50524949Y-1805842D01*
X-50592993Y-1824075D01*
X-50707007Y-1889901D01*
X-50800099Y-1982993D01*
X-50865925Y-2097007D01*
X-50884158Y-2165051D01*
X-51487100Y-1562109D01*
X-51537087Y-1633500D01*
X-51633812Y-1840926D01*
X-51633814Y-1840931D01*
X-51693049Y-2061997D01*
X-51712996Y-2290000D01*
X-51693049Y-2518002D01*
X-51633814Y-2739068D01*
X-51633812Y-2739073D01*
X-51537087Y-2946501D01*
X-51487101Y-3017888D01*
X-50884159Y-2414946D01*
X-50865925Y-2482993D01*
X-50800099Y-2597007D01*
X-50707007Y-2690099D01*
X-50592993Y-2755925D01*
X-50524949Y-2774157D01*
X-51127890Y-3377098D01*
X-51123785Y-3424023D01*
X-51123786Y-3445985D01*
X-51127891Y-3492900D01*
X-50524949Y-4095842D01*
X-50592993Y-4114075D01*
X-50707007Y-4179901D01*
X-50800099Y-4272993D01*
X-50865925Y-4387007D01*
X-50884158Y-4455051D01*
X-51487100Y-3852109D01*
X-51537087Y-3923500D01*
X-51633812Y-4130926D01*
X-51633814Y-4130931D01*
X-51693049Y-4351997D01*
X-51712996Y-4580000D01*
X-54000000Y-4580000D01*
X-54000000Y-4156444D01*
X-53979998Y-4088323D01*
X-53926342Y-4041830D01*
X-53856068Y-4031726D01*
X-53791488Y-4061220D01*
X-53776608Y-4076502D01*
X-53686410Y-4186410D01*
X-53526450Y-4317685D01*
X-53343954Y-4415232D01*
X-53145934Y-4475300D01*
X-53145930Y-4475300D01*
X-53145928Y-4475301D01*
X-52940003Y-4495583D01*
X-52940000Y-4495583D01*
X-52939997Y-4495583D01*
X-52734073Y-4475301D01*
X-52734072Y-4475300D01*
X-52734066Y-4475300D01*
X-52536046Y-4415232D01*
X-52353550Y-4317685D01*
X-52193590Y-4186410D01*
X-52062315Y-4026450D01*
X-51964768Y-3843954D01*
X-51904700Y-3645934D01*
X-51903929Y-3638113D01*
X-51884417Y-3440003D01*
X-51884417Y-3439996D01*
X-51904699Y-3234072D01*
X-51904700Y-3234070D01*
X-51904700Y-3234066D01*
X-51964768Y-3036046D01*
X-52062315Y-2853550D01*
X-52193590Y-2693590D01*
X-52353550Y-2562315D01*
X-52353552Y-2562314D01*
X-52353553Y-2562313D01*
X-52536046Y-2464768D01*
X-52553904Y-2459351D01*
X-52698221Y-2415573D01*
X-52757599Y-2376660D01*
X-52786515Y-2311819D01*
X-52775785Y-2241638D01*
X-52728816Y-2188399D01*
X-52698223Y-2174427D01*
X-52536046Y-2125232D01*
X-52353550Y-2027685D01*
X-52193590Y-1896410D01*
X-52062315Y-1736450D01*
X-51964768Y-1553954D01*
X-51904700Y-1355934D01*
X-51903696Y-1345747D01*
X-51884417Y-1150003D01*
X-51884417Y-1149996D01*
X-51904699Y-944072D01*
X-51904700Y-944070D01*
X-51904700Y-944066D01*
X-51964768Y-746046D01*
X-52062315Y-563550D01*
X-52193590Y-403590D01*
X-52353550Y-272315D01*
X-52353552Y-272314D01*
X-52353553Y-272313D01*
X-52536046Y-174768D01*
X-52698221Y-125573D01*
X-52757599Y-86660D01*
X-52786515Y-21819D01*
X-52775785Y48362D01*
X-52728816Y101601D01*
X-52698223Y115573D01*
X-52536046Y164768D01*
X-52353550Y262315D01*
X-52193590Y393590D01*
X-52062315Y553550D01*
X-51964768Y736046D01*
X-51904700Y934066D01*
X-51901757Y963939D01*
X-51884417Y1139997D01*
X-51884417Y1140004D01*
X-51904699Y1345928D01*
X-51904700Y1345930D01*
X-51904700Y1345934D01*
X-51964768Y1543954D01*
X-52062315Y1726450D01*
X-52193590Y1886410D01*
X-52353550Y2017685D01*
X-52353552Y2017686D01*
X-52353553Y2017687D01*
X-52536046Y2115232D01*
X-52698221Y2164427D01*
X-52757599Y2203340D01*
X-52786515Y2268181D01*
X-52775785Y2338362D01*
X-52728816Y2391601D01*
X-52698223Y2405573D01*
X-52536046Y2454768D01*
X-52353550Y2552315D01*
X-52193590Y2683590D01*
X-52062315Y2843550D01*
X-51964768Y3026046D01*
X-51904700Y3224066D01*
X-51904294Y3228181D01*
X-51884417Y3429997D01*
X-51884417Y3430004D01*
X-51904699Y3635928D01*
X-51904700Y3635930D01*
X-51904700Y3635934D01*
X-51964768Y3833954D01*
X-52062315Y4016450D01*
X-52193590Y4176410D01*
X-52353550Y4307685D01*
X-52353552Y4307686D01*
X-52353553Y4307687D01*
X-52536046Y4405232D01*
X-52698221Y4454427D01*
X-52757599Y4493340D01*
X-52786515Y4558181D01*
X-52775785Y4628362D01*
X-52728816Y4681601D01*
X-52698223Y4695573D01*
X-52536046Y4744768D01*
X-52353550Y4842315D01*
X-52193590Y4973590D01*
X-52062315Y5133550D01*
X-51964768Y5316046D01*
X-51904700Y5514066D01*
X-51901246Y5549129D01*
X-51884417Y5719997D01*
X-51884417Y5720004D01*
X-51904699Y5925928D01*
X-51904700Y5925930D01*
X-51904700Y5925934D01*
X-51964768Y6123954D01*
X-52062315Y6306450D01*
X-52193590Y6466410D01*
X-52353550Y6597685D01*
X-52353552Y6597686D01*
X-52353553Y6597687D01*
X-52536046Y6695232D01*
X-52671124Y6736207D01*
X-52734066Y6755300D01*
X-52734067Y6755301D01*
X-52734073Y6755302D01*
X-52939997Y6775583D01*
X-52940003Y6775583D01*
X-53145928Y6755302D01*
X-53343955Y6695232D01*
X-53526448Y6597687D01*
X-53619145Y6521613D01*
X-53686410Y6466410D01*
X-53760196Y6376500D01*
X-53776600Y6356512D01*
X-53835277Y6316543D01*
X-53906248Y6314642D01*
X-53966981Y6351412D01*
X-53998193Y6415180D01*
X-54000000Y6436445D01*
X-54000000Y9385000D01*
X-41875659Y9385000D01*
X-41855063Y9149589D01*
X-41793904Y8921339D01*
X-41793903Y8921337D01*
X-41694035Y8707170D01*
X-41558495Y8513599D01*
X-41391401Y8346505D01*
X-41197830Y8210965D01*
X-40983663Y8111097D01*
X-40755408Y8049937D01*
X-40520000Y8029341D01*
X-40284592Y8049937D01*
X-40056337Y8111097D01*
X-39842170Y8210965D01*
X-39648599Y8346505D01*
X-39481505Y8513599D01*
X-39345965Y8707170D01*
X-39246097Y8921337D01*
X-39184937Y9149592D01*
X-39164341Y9385000D01*
X-39184937Y9620408D01*
X-39246097Y9848663D01*
X-39345965Y10062829D01*
X-39345966Y10062830D01*
X-39345967Y10062833D01*
X-39481499Y10256393D01*
X-39481502Y10256397D01*
X-39481505Y10256401D01*
X-39648599Y10423495D01*
X-39842170Y10559035D01*
X-40056337Y10658903D01*
X-40056339Y10658904D01*
X-40284589Y10720063D01*
X-40520000Y10740659D01*
X-40755412Y10720063D01*
X-40983662Y10658904D01*
X-40983666Y10658902D01*
X-41197833Y10559034D01*
X-41391393Y10423502D01*
X-41391404Y10423493D01*
X-41558493Y10256404D01*
X-41558502Y10256393D01*
X-41694034Y10062833D01*
X-41793902Y9848666D01*
X-41793904Y9848662D01*
X-41855063Y9620412D01*
X-41875659Y9385000D01*
X-54000000Y9385000D01*
X-54000000Y13379999D01*
X-53163041Y13379999D01*
X-53142896Y13046955D01*
X-53142895Y13046952D01*
X-53082753Y12718764D01*
X-52983486Y12400205D01*
X-52846557Y12095962D01*
X-52846554Y12095956D01*
X-52673942Y11810421D01*
X-52522322Y11616889D01*
X-51696633Y12442579D01*
X-51620412Y12337670D01*
X-51442330Y12159588D01*
X-51337424Y12083369D01*
X-52163113Y11257680D01*
X-51969580Y11106059D01*
X-51684045Y10933447D01*
X-51684039Y10933444D01*
X-51379796Y10796515D01*
X-51061237Y10697248D01*
X-50733049Y10637106D01*
X-50733046Y10637105D01*
X-50400001Y10616959D01*
X-50399999Y10616959D01*
X-50066955Y10637105D01*
X-50066952Y10637106D01*
X-49738764Y10697248D01*
X-49420205Y10796515D01*
X-49115962Y10933444D01*
X-49115956Y10933447D01*
X-48830415Y11106062D01*
X-48636890Y11257679D01*
X-48636889Y11257680D01*
X-48669209Y11290000D01*
X-46955659Y11290000D01*
X-46935063Y11054589D01*
X-46873904Y10826339D01*
X-46873902Y10826335D01*
X-46774035Y10612170D01*
X-46641926Y10423498D01*
X-46638495Y10418599D01*
X-46471401Y10251505D01*
X-46277830Y10115965D01*
X-46063663Y10016097D01*
X-45835408Y9954937D01*
X-45600000Y9934341D01*
X-45364592Y9954937D01*
X-45136337Y10016097D01*
X-44922170Y10115965D01*
X-44728599Y10251505D01*
X-44561505Y10418599D01*
X-44425965Y10612170D01*
X-44326097Y10826337D01*
X-44264937Y11054592D01*
X-44244341Y11290000D01*
X-44264937Y11525408D01*
X-44269219Y11541387D01*
X-44308316Y11687303D01*
X-44326097Y11753663D01*
X-44425965Y11967829D01*
X-44425966Y11967830D01*
X-44425967Y11967833D01*
X-44561499Y12161393D01*
X-44561502Y12161397D01*
X-44561505Y12161401D01*
X-44728599Y12328495D01*
X-44785571Y12368387D01*
X-44922170Y12464035D01*
X-45136335Y12563902D01*
X-45136339Y12563904D01*
X-45364589Y12625063D01*
X-45600000Y12645659D01*
X-45835412Y12625063D01*
X-46063662Y12563904D01*
X-46063666Y12563902D01*
X-46277833Y12464034D01*
X-46471393Y12328502D01*
X-46471404Y12328493D01*
X-46638493Y12161404D01*
X-46638502Y12161393D01*
X-46774034Y11967833D01*
X-46873902Y11753666D01*
X-46873904Y11753662D01*
X-46935063Y11525412D01*
X-46955659Y11290000D01*
X-48669209Y11290000D01*
X-49462578Y12083369D01*
X-49357670Y12159588D01*
X-49179588Y12337670D01*
X-49103369Y12442578D01*
X-48277680Y11616889D01*
X-48277679Y11616890D01*
X-48126062Y11810415D01*
X-47953447Y12095956D01*
X-47953444Y12095962D01*
X-47816515Y12400205D01*
X-47717248Y12718764D01*
X-47657106Y13046952D01*
X-47657105Y13046955D01*
X-47648150Y13195000D01*
X-42132972Y13195000D01*
X-42113114Y12942677D01*
X-42054029Y12696566D01*
X-41957170Y12462728D01*
X-41825823Y12248389D01*
X-41825822Y12248389D01*
X-41122699Y12951512D01*
X-41096022Y12887110D01*
X-41024888Y12780649D01*
X-40934351Y12690112D01*
X-40827890Y12618978D01*
X-40763490Y12592302D01*
X-41466613Y11889180D01*
X-41466613Y11889178D01*
X-41252273Y11757831D01*
X-41018435Y11660972D01*
X-40772324Y11601887D01*
X-40520000Y11582029D01*
X-40267677Y11601887D01*
X-40021566Y11660972D01*
X-39787723Y11757833D01*
X-39573389Y11889178D01*
X-39573389Y11889180D01*
X-40276511Y12592302D01*
X-40212110Y12618978D01*
X-40105649Y12690112D01*
X-40015112Y12780649D01*
X-39943978Y12887110D01*
X-39917302Y12951511D01*
X-39214180Y12248389D01*
X-39214178Y12248389D01*
X-39182552Y12299997D01*
X-29355278Y12299997D01*
X-29336239Y12143185D01*
X-29318329Y12095962D01*
X-29280220Y11995477D01*
X-29280219Y11995475D01*
X-29280218Y11995474D01*
X-29280217Y11995471D01*
X-29190484Y11865471D01*
X-29190482Y11865469D01*
X-29140954Y11821592D01*
X-29072240Y11760717D01*
X-28932365Y11687304D01*
X-28932364Y11687304D01*
X-28932362Y11687303D01*
X-28855675Y11668402D01*
X-28778985Y11649500D01*
X-28778983Y11649500D01*
X-28621017Y11649500D01*
X-28621015Y11649500D01*
X-28467635Y11687304D01*
X-28327760Y11760717D01*
X-28209517Y11865470D01*
X-28206340Y11870074D01*
X-28151184Y11914774D01*
X-28102642Y11924500D01*
X-26397358Y11924500D01*
X-26329237Y11904498D01*
X-26293661Y11870074D01*
X-26290483Y11865470D01*
X-26172240Y11760717D01*
X-26032365Y11687304D01*
X-26032364Y11687304D01*
X-26032362Y11687303D01*
X-25955675Y11668402D01*
X-25878985Y11649500D01*
X-25878983Y11649500D01*
X-25721017Y11649500D01*
X-25721015Y11649500D01*
X-25567635Y11687304D01*
X-25427760Y11760717D01*
X-25309517Y11865470D01*
X-25219780Y11995477D01*
X-25163763Y12143182D01*
X-25163763Y12143183D01*
X-25163762Y12143185D01*
X-25144722Y12299997D01*
X-25144722Y12300004D01*
X-25163762Y12456816D01*
X-25171608Y12477502D01*
X-25219780Y12604523D01*
X-25219784Y12604528D01*
X-25219784Y12604530D01*
X-25309517Y12734530D01*
X-25309519Y12734532D01*
X-25427760Y12839283D01*
X-25515368Y12885264D01*
X-15750500Y12885264D01*
X-15720550Y12657769D01*
X-15720548Y12657762D01*
X-15661158Y12436113D01*
X-15573344Y12224112D01*
X-15573343Y12224111D01*
X-15573338Y12224100D01*
X-15458614Y12025392D01*
X-15458609Y12025385D01*
X-15318927Y11843348D01*
X-15318908Y11843327D01*
X-15156674Y11681093D01*
X-15156653Y11681074D01*
X-14974616Y11541392D01*
X-14974609Y11541387D01*
X-14775901Y11426663D01*
X-14775897Y11426662D01*
X-14775888Y11426656D01*
X-14563887Y11338842D01*
X-14342238Y11279452D01*
X-14342234Y11279452D01*
X-14342232Y11279451D01*
X-14283602Y11271733D01*
X-14114734Y11249500D01*
X-14114727Y11249500D01*
X-12885273Y11249500D01*
X-12885266Y11249500D01*
X-12679655Y11276570D01*
X-12657769Y11279451D01*
X-12657769Y11279452D01*
X-12657762Y11279452D01*
X-12436113Y11338842D01*
X-12224112Y11426656D01*
X-12025388Y11541389D01*
X-11843339Y11681081D01*
X-11681081Y11843339D01*
X-11541389Y12025388D01*
X-11426656Y12224112D01*
X-11338842Y12436113D01*
X-11279452Y12657762D01*
X-11258922Y12813702D01*
X-11230200Y12878628D01*
X-11170935Y12917720D01*
X-11099943Y12918565D01*
X-11039764Y12880895D01*
X-11009505Y12816670D01*
X-11008000Y12797255D01*
X-11008000Y12368387D01*
X-10973645Y12107425D01*
X-10905516Y11853165D01*
X-10804784Y11609977D01*
X-10804779Y11609966D01*
X-10673177Y11382025D01*
X-10512934Y11173193D01*
X-10512925Y11173182D01*
X-10326819Y10987076D01*
X-10326808Y10987067D01*
X-10117976Y10826824D01*
X-9890035Y10695222D01*
X-9890024Y10695217D01*
X-9646836Y10594485D01*
X-9392578Y10526357D01*
X-9392575Y10526356D01*
X-9254000Y10508113D01*
X-9254000Y11643827D01*
X-9231591Y11630889D01*
X-9078991Y11590000D01*
X-8921009Y11590000D01*
X-8768409Y11630889D01*
X-8746000Y11643827D01*
X-8746000Y10508113D01*
X-8607426Y10526356D01*
X-8607423Y10526357D01*
X-8353165Y10594485D01*
X-8109977Y10695217D01*
X-8109966Y10695222D01*
X-7882025Y10826824D01*
X-7673193Y10987067D01*
X-7673182Y10987076D01*
X-7487076Y11173182D01*
X-7487067Y11173193D01*
X-7326824Y11382025D01*
X-7195222Y11609966D01*
X-7195217Y11609977D01*
X-7094485Y11853165D01*
X-7026356Y12107425D01*
X-6992001Y12368387D01*
X-6992000Y12368396D01*
X-6992000Y12746000D01*
X-8400000Y12746000D01*
X-8400000Y13254000D01*
X-6992000Y13254000D01*
X-6992000Y13631604D01*
X-6992001Y13631614D01*
X-7026356Y13892576D01*
X-7094485Y14146836D01*
X-7195217Y14390024D01*
X-7195222Y14390035D01*
X-7326824Y14617976D01*
X-7487067Y14826808D01*
X-7487076Y14826819D01*
X-7673182Y15012925D01*
X-7673193Y15012934D01*
X-7882025Y15173177D01*
X-8109966Y15304779D01*
X-8109977Y15304784D01*
X-8353165Y15405516D01*
X-8607426Y15473645D01*
X-8746000Y15491889D01*
X-8746000Y14356174D01*
X-8768409Y14369111D01*
X-8921009Y14410000D01*
X-9078991Y14410000D01*
X-9231591Y14369111D01*
X-9254000Y14356174D01*
X-9254000Y15491888D01*
X-9254001Y15491889D01*
X-9392575Y15473645D01*
X-9646836Y15405516D01*
X-9890024Y15304784D01*
X-9890035Y15304779D01*
X-10117976Y15173177D01*
X-10326808Y15012934D01*
X-10326819Y15012925D01*
X-10512925Y14826819D01*
X-10512934Y14826808D01*
X-10673177Y14617976D01*
X-10804779Y14390035D01*
X-10804784Y14390024D01*
X-10905516Y14146836D01*
X-10973645Y13892576D01*
X-11008000Y13631614D01*
X-11008000Y13202746D01*
X-11028002Y13134625D01*
X-11081658Y13088132D01*
X-11151932Y13078028D01*
X-11216512Y13107522D01*
X-11254896Y13167248D01*
X-11258922Y13186300D01*
X-11279451Y13342231D01*
X-11279452Y13342232D01*
X-11279452Y13342238D01*
X-11338842Y13563887D01*
X-11426656Y13775888D01*
X-11426662Y13775897D01*
X-11426663Y13775901D01*
X-11541387Y13974609D01*
X-11541392Y13974616D01*
X-11681074Y14156653D01*
X-11681093Y14156674D01*
X-11843327Y14318908D01*
X-11843348Y14318927D01*
X-12025385Y14458609D01*
X-12025392Y14458614D01*
X-12224100Y14573338D01*
X-12224108Y14573342D01*
X-12224112Y14573344D01*
X-12436113Y14661158D01*
X-12657762Y14720548D01*
X-12657769Y14720550D01*
X-12885264Y14750500D01*
X-12885266Y14750500D01*
X-14114734Y14750500D01*
X-14114737Y14750500D01*
X-14342232Y14720550D01*
X-14563887Y14661158D01*
X-14775890Y14573343D01*
X-14775901Y14573338D01*
X-14974609Y14458614D01*
X-14974616Y14458609D01*
X-15156653Y14318927D01*
X-15156674Y14318908D01*
X-15318908Y14156674D01*
X-15318927Y14156653D01*
X-15458609Y13974616D01*
X-15458614Y13974609D01*
X-15573338Y13775901D01*
X-15573343Y13775890D01*
X-15573344Y13775888D01*
X-15599373Y13713049D01*
X-15661158Y13563887D01*
X-15720550Y13342232D01*
X-15750500Y13114737D01*
X-15750500Y12885264D01*
X-25515368Y12885264D01*
X-25567635Y12912696D01*
X-25567639Y12912698D01*
X-25721013Y12950500D01*
X-25721015Y12950500D01*
X-25878985Y12950500D01*
X-25878988Y12950500D01*
X-26032362Y12912698D01*
X-26032366Y12912696D01*
X-26172241Y12839283D01*
X-26290483Y12734531D01*
X-26293660Y12729927D01*
X-26348816Y12685226D01*
X-26397358Y12675500D01*
X-28102642Y12675500D01*
X-28170763Y12695502D01*
X-28206340Y12729927D01*
X-28209518Y12734531D01*
X-28327760Y12839283D01*
X-28467635Y12912696D01*
X-28467639Y12912698D01*
X-28621013Y12950500D01*
X-28621015Y12950500D01*
X-28778985Y12950500D01*
X-28778988Y12950500D01*
X-28932362Y12912698D01*
X-28932366Y12912696D01*
X-29072241Y12839283D01*
X-29190482Y12734532D01*
X-29190484Y12734530D01*
X-29280217Y12604530D01*
X-29280218Y12604527D01*
X-29336239Y12456816D01*
X-29355278Y12300004D01*
X-29355278Y12299997D01*
X-39182552Y12299997D01*
X-39082833Y12462723D01*
X-38985972Y12696566D01*
X-38926887Y12942677D01*
X-38907029Y13195000D01*
X-38926887Y13447324D01*
X-38985972Y13693435D01*
X-39082831Y13927273D01*
X-39214178Y14141613D01*
X-39214180Y14141613D01*
X-39917303Y13438491D01*
X-39943978Y13502890D01*
X-40015112Y13609351D01*
X-40105649Y13699888D01*
X-40212110Y13771022D01*
X-40276512Y13797699D01*
X-39573389Y14500822D01*
X-39573389Y14500823D01*
X-39787728Y14632170D01*
X-40021566Y14729029D01*
X-40267677Y14788114D01*
X-40520000Y14807972D01*
X-40772324Y14788114D01*
X-41018435Y14729029D01*
X-41252273Y14632170D01*
X-41466613Y14500824D01*
X-41466613Y14500822D01*
X-40763490Y13797699D01*
X-40827890Y13771022D01*
X-40934351Y13699888D01*
X-41024888Y13609351D01*
X-41096022Y13502890D01*
X-41122699Y13438490D01*
X-41825822Y14141613D01*
X-41825824Y14141613D01*
X-41957170Y13927273D01*
X-42054029Y13693435D01*
X-42113114Y13447324D01*
X-42132972Y13195000D01*
X-47648150Y13195000D01*
X-47636959Y13379999D01*
X-47636959Y13380002D01*
X-47657105Y13713046D01*
X-47657106Y13713049D01*
X-47717248Y14041237D01*
X-47816515Y14359796D01*
X-47953444Y14664039D01*
X-47953447Y14664045D01*
X-48126059Y14949580D01*
X-48277680Y15143113D01*
X-49103369Y14317424D01*
X-49179588Y14422330D01*
X-49357670Y14600412D01*
X-49462578Y14676633D01*
X-48636889Y15502322D01*
X-48830421Y15653942D01*
X-49115956Y15826554D01*
X-49115962Y15826557D01*
X-49420205Y15963486D01*
X-49738764Y16062753D01*
X-50051154Y16120000D01*
X-29905215Y16120000D01*
X-29886397Y15916916D01*
X-29830584Y15720755D01*
X-29830583Y15720753D01*
X-29830582Y15720750D01*
X-29739673Y15538179D01*
X-29739672Y15538178D01*
X-29739671Y15538176D01*
X-29616766Y15375422D01*
X-29466041Y15238019D01*
X-29466040Y15238018D01*
X-29292649Y15130659D01*
X-29292646Y15130658D01*
X-29292637Y15130652D01*
X-29102456Y15056976D01*
X-28901976Y15019500D01*
X-28901974Y15019500D01*
X-28698026Y15019500D01*
X-28698024Y15019500D01*
X-28497544Y15056976D01*
X-28307363Y15130652D01*
X-28133959Y15238019D01*
X-27983236Y15375421D01*
X-27860327Y15538179D01*
X-27769418Y15720750D01*
X-27713603Y15916917D01*
X-27694785Y16120000D01*
X-27713603Y16323083D01*
X-27769418Y16519250D01*
X-27860327Y16701821D01*
X-27905057Y16761053D01*
X-27983235Y16864579D01*
X-28133960Y17001982D01*
X-28133961Y17001983D01*
X-28307352Y17109342D01*
X-28307359Y17109346D01*
X-28307363Y17109348D01*
X-28423867Y17154482D01*
X-28497543Y17183024D01*
X-28564371Y17195516D01*
X-28698024Y17220500D01*
X-28901976Y17220500D01*
X-29002216Y17201762D01*
X-29102458Y17183024D01*
X-29249810Y17125940D01*
X-29292637Y17109348D01*
X-29292638Y17109348D01*
X-29292639Y17109347D01*
X-29292649Y17109342D01*
X-29466040Y17001983D01*
X-29466041Y17001982D01*
X-29616766Y16864579D01*
X-29739671Y16701825D01*
X-29830584Y16519246D01*
X-29886397Y16323085D01*
X-29905215Y16120000D01*
X-50051154Y16120000D01*
X-50066952Y16122895D01*
X-50066955Y16122896D01*
X-50399999Y16143041D01*
X-50400001Y16143041D01*
X-50733046Y16122896D01*
X-50733049Y16122895D01*
X-51061237Y16062753D01*
X-51379796Y15963486D01*
X-51684039Y15826557D01*
X-51684045Y15826554D01*
X-51969586Y15653939D01*
X-52163113Y15502322D01*
X-51337423Y14676632D01*
X-51442330Y14600412D01*
X-51620412Y14422330D01*
X-51696632Y14317423D01*
X-52522322Y15143113D01*
X-52673939Y14949586D01*
X-52846554Y14664045D01*
X-52846557Y14664039D01*
X-52983486Y14359796D01*
X-53082753Y14041237D01*
X-53142895Y13713049D01*
X-53142896Y13713046D01*
X-53163041Y13380002D01*
X-53163041Y13379999D01*
X-54000000Y13379999D01*
X-54000000Y17373747D01*
X-43542964Y17373747D01*
X-43523925Y17216935D01*
X-43495915Y17143080D01*
X-43467906Y17069227D01*
X-43467905Y17069225D01*
X-43467904Y17069224D01*
X-43467903Y17069221D01*
X-43421490Y17001981D01*
X-43378169Y16939220D01*
X-43259926Y16834467D01*
X-43120051Y16761054D01*
X-43120050Y16761054D01*
X-43120048Y16761053D01*
X-43043361Y16742152D01*
X-42966671Y16723250D01*
X-42966669Y16723250D01*
X-42808703Y16723250D01*
X-42808701Y16723250D01*
X-42655321Y16761054D01*
X-42515446Y16834467D01*
X-42397203Y16939220D01*
X-42307466Y17069227D01*
X-42251449Y17216932D01*
X-42251449Y17216933D01*
X-42251448Y17216935D01*
X-42232408Y17373748D01*
X-42232408Y17373750D01*
X-42232408Y17373754D01*
X-42238466Y17423637D01*
X-42226822Y17493669D01*
X-42202481Y17527919D01*
X-42187213Y17543186D01*
X-42187214Y17543186D01*
X-42127709Y17602690D01*
X-42127699Y17602702D01*
X-41592802Y18137596D01*
X-41530490Y18171621D01*
X-41503707Y18174500D01*
X-35787358Y18174500D01*
X-35719237Y18154498D01*
X-35683661Y18120074D01*
X-35680483Y18115470D01*
X-35562240Y18010717D01*
X-35422365Y17937304D01*
X-35422364Y17937304D01*
X-35422362Y17937303D01*
X-35345675Y17918402D01*
X-35268985Y17899500D01*
X-35268983Y17899500D01*
X-35111017Y17899500D01*
X-35111015Y17899500D01*
X-34957635Y17937304D01*
X-34817760Y18010717D01*
X-34699517Y18115470D01*
X-34609780Y18245477D01*
X-34553763Y18393182D01*
X-34553763Y18393183D01*
X-34553762Y18393185D01*
X-34534722Y18549997D01*
X-34534722Y18550004D01*
X-34553762Y18706816D01*
X-34561608Y18727502D01*
X-34609780Y18854523D01*
X-34609784Y18854528D01*
X-34609784Y18854530D01*
X-34699517Y18984530D01*
X-34699519Y18984532D01*
X-34817760Y19089283D01*
X-34957635Y19162696D01*
X-34957639Y19162698D01*
X-35111013Y19200500D01*
X-35111015Y19200500D01*
X-35268985Y19200500D01*
X-35268988Y19200500D01*
X-35422362Y19162698D01*
X-35422366Y19162696D01*
X-35562241Y19089283D01*
X-35680483Y18984531D01*
X-35683660Y18979927D01*
X-35738816Y18935226D01*
X-35787358Y18925500D01*
X-41662000Y18925500D01*
X-41760872Y18925500D01*
X-41819323Y18909839D01*
X-41856378Y18899910D01*
X-41941996Y18850478D01*
X-41942002Y18850473D01*
X-42718249Y18074224D01*
X-42718250Y18074224D01*
X-42731319Y18061155D01*
X-42793631Y18027129D01*
X-42820414Y18024250D01*
X-42966674Y18024250D01*
X-43120048Y17986448D01*
X-43120052Y17986446D01*
X-43259927Y17913033D01*
X-43378168Y17808282D01*
X-43378170Y17808280D01*
X-43467903Y17678280D01*
X-43467904Y17678277D01*
X-43467905Y17678275D01*
X-43467906Y17678273D01*
X-43470795Y17670654D01*
X-43523925Y17530566D01*
X-43542964Y17373754D01*
X-43542964Y17373747D01*
X-54000000Y17373747D01*
X-54000000Y19999997D01*
X-50055329Y19999997D01*
X-50036035Y19705625D01*
X-50036032Y19705607D01*
X-49978482Y19416280D01*
X-49978480Y19416273D01*
X-49919262Y19241825D01*
X-49883652Y19136923D01*
X-49883649Y19136917D01*
X-49753174Y18872338D01*
X-49589275Y18627045D01*
X-49589273Y18627043D01*
X-49394758Y18405242D01*
X-49230003Y18260755D01*
X-49172956Y18210726D01*
X-49063509Y18137596D01*
X-48927665Y18046828D01*
X-48663077Y17916348D01*
X-48383722Y17821519D01*
X-48094380Y17763966D01*
X-47926163Y17752941D01*
X-47800003Y17744671D01*
X-47800000Y17744671D01*
X-47799997Y17744671D01*
X-47689608Y17751907D01*
X-47505620Y17763966D01*
X-47216278Y17821519D01*
X-46936923Y17916348D01*
X-46672335Y18046828D01*
X-46427043Y18210727D01*
X-46205242Y18405242D01*
X-46010727Y18627043D01*
X-45846828Y18872335D01*
X-45716348Y19136923D01*
X-45621519Y19416278D01*
X-45563966Y19705620D01*
X-45544671Y20000000D01*
X-45563966Y20294380D01*
X-45621519Y20583722D01*
X-45716348Y20863077D01*
X-45846828Y21127664D01*
X-45966574Y21306877D01*
X-46010722Y21372950D01*
X-46010724Y21372952D01*
X-46010727Y21372957D01*
X-46205242Y21594758D01*
X-46405150Y21770073D01*
X-46427045Y21789275D01*
X-46672338Y21953174D01*
X-46936917Y22083649D01*
X-46936923Y22083652D01*
X-47031664Y22115813D01*
X-47216273Y22178480D01*
X-47216280Y22178482D01*
X-47324445Y22199997D01*
X-39655278Y22199997D01*
X-39636239Y22043185D01*
X-39628204Y22022000D01*
X-39580220Y21895477D01*
X-39580219Y21895475D01*
X-39580218Y21895474D01*
X-39580217Y21895471D01*
X-39490484Y21765471D01*
X-39490482Y21765469D01*
X-39463488Y21741555D01*
X-39372240Y21660717D01*
X-39232365Y21587304D01*
X-39232364Y21587304D01*
X-39232362Y21587303D01*
X-39160272Y21569535D01*
X-39078985Y21549500D01*
X-39078983Y21549500D01*
X-38921017Y21549500D01*
X-38921015Y21549500D01*
X-38768455Y21587102D01*
X-38767639Y21587303D01*
X-38767639Y21587304D01*
X-38767635Y21587304D01*
X-38627760Y21660717D01*
X-38509517Y21765470D01*
X-38506340Y21770074D01*
X-38451184Y21814774D01*
X-38402642Y21824500D01*
X-35207727Y21824500D01*
X-35139606Y21804498D01*
X-35118632Y21787595D01*
X-32485207Y19154170D01*
X-32451181Y19091858D01*
X-32449221Y19049888D01*
X-32455278Y19000003D01*
X-32455278Y18999997D01*
X-32436239Y18843185D01*
X-32408229Y18769330D01*
X-32380220Y18695477D01*
X-32380219Y18695475D01*
X-32380218Y18695474D01*
X-32380217Y18695471D01*
X-32332984Y18627043D01*
X-32290483Y18565470D01*
X-32172240Y18460717D01*
X-32032365Y18387304D01*
X-32032364Y18387304D01*
X-32032362Y18387303D01*
X-31955675Y18368402D01*
X-31878985Y18349500D01*
X-31878983Y18349500D01*
X-31721017Y18349500D01*
X-31721015Y18349500D01*
X-31567635Y18387304D01*
X-31427760Y18460717D01*
X-31309517Y18565470D01*
X-31244268Y18660000D01*
X-29905215Y18660000D01*
X-29886397Y18456916D01*
X-29830584Y18260755D01*
X-29830583Y18260753D01*
X-29830582Y18260750D01*
X-29739673Y18078179D01*
X-29739672Y18078178D01*
X-29739671Y18078176D01*
X-29616766Y17915422D01*
X-29466041Y17778019D01*
X-29466040Y17778018D01*
X-29292649Y17670659D01*
X-29292646Y17670658D01*
X-29292637Y17670652D01*
X-29102456Y17596976D01*
X-28901976Y17559500D01*
X-28901974Y17559500D01*
X-28698026Y17559500D01*
X-28698024Y17559500D01*
X-28497544Y17596976D01*
X-28307363Y17670652D01*
X-28133959Y17778019D01*
X-27983236Y17915421D01*
X-27860327Y18078179D01*
X-27769418Y18260750D01*
X-27713603Y18456917D01*
X-27694785Y18660000D01*
X-27713603Y18863083D01*
X-27769418Y19059250D01*
X-27860327Y19241821D01*
X-27872072Y19257374D01*
X-27983235Y19404579D01*
X-28133960Y19541982D01*
X-28133961Y19541983D01*
X-28307352Y19649342D01*
X-28307359Y19649346D01*
X-28307363Y19649348D01*
X-28452585Y19705607D01*
X-28497543Y19723024D01*
X-28564371Y19735516D01*
X-28698024Y19760500D01*
X-28901976Y19760500D01*
X-29002216Y19741762D01*
X-29102458Y19723024D01*
X-29238032Y19670502D01*
X-29292637Y19649348D01*
X-29292638Y19649348D01*
X-29292639Y19649347D01*
X-29292649Y19649342D01*
X-29466040Y19541983D01*
X-29466041Y19541982D01*
X-29616766Y19404579D01*
X-29739671Y19241825D01*
X-29830584Y19059246D01*
X-29886397Y18863085D01*
X-29905215Y18660000D01*
X-31244268Y18660000D01*
X-31219780Y18695477D01*
X-31163763Y18843182D01*
X-31163763Y18843183D01*
X-31163762Y18843185D01*
X-31144722Y18999997D01*
X-31144722Y19000004D01*
X-31163762Y19156816D01*
X-31171608Y19177502D01*
X-31219780Y19304523D01*
X-31219784Y19304528D01*
X-31219784Y19304530D01*
X-31309517Y19434530D01*
X-31309519Y19434532D01*
X-31427760Y19539283D01*
X-31567635Y19612696D01*
X-31567639Y19612698D01*
X-31721013Y19650500D01*
X-31721015Y19650500D01*
X-31867273Y19650500D01*
X-31935394Y19670502D01*
X-31956368Y19687405D01*
X-32594286Y20325323D01*
X-29900500Y20325323D01*
X-29885967Y20252261D01*
X-29885966Y20252260D01*
X-29830601Y20169399D01*
X-29747740Y20114034D01*
X-29674674Y20099500D01*
X-27925326Y20099500D01*
X-27852260Y20114034D01*
X-27769399Y20169399D01*
X-27714034Y20252260D01*
X-27699500Y20325326D01*
X-27699500Y20500001D01*
X-14455277Y20500001D01*
X-14450979Y20450874D01*
X-14450500Y20439893D01*
X-14450500Y20401585D01*
X-14442626Y20351868D01*
X-14441555Y20343141D01*
X-14436208Y20282028D01*
X-14436207Y20282020D01*
X-14426561Y20246019D01*
X-14423820Y20233125D01*
X-14423818Y20233115D01*
X-14419709Y20207174D01*
X-14400433Y20147845D01*
X-14398566Y20141542D01*
X-14379575Y20070670D01*
X-14368919Y20047818D01*
X-14368917Y20047815D01*
X-14363281Y20033506D01*
X-14358884Y20019975D01*
X-14358883Y20019973D01*
X-14358882Y20019969D01*
X-14325119Y19953705D01*
X-14323192Y19949754D01*
X-14287103Y19872361D01*
X-14287100Y19872357D01*
X-14279560Y19861589D01*
X-14270507Y19846524D01*
X-14269524Y19844595D01*
X-14218698Y19774639D01*
X-14217480Y19772930D01*
X-14161602Y19693128D01*
X-14161600Y19693125D01*
X-14161599Y19693124D01*
X-14161598Y19693123D01*
X-14006877Y19538402D01*
X-14006874Y19538400D01*
X-14006869Y19538396D01*
X-13927073Y19482522D01*
X-13925333Y19481282D01*
X-13855405Y19430476D01*
X-13855403Y19430475D01*
X-13853497Y19429504D01*
X-13838410Y19420440D01*
X-13827639Y19412898D01*
X-13750200Y19376788D01*
X-13746341Y19374906D01*
X-13680025Y19341116D01*
X-13680023Y19341116D01*
X-13680022Y19341115D01*
X-13666500Y19336722D01*
X-13652185Y19331084D01*
X-13629330Y19320425D01*
X-13574657Y19305776D01*
X-13558455Y19301434D01*
X-13552130Y19299560D01*
X-13492826Y19280291D01*
X-13466868Y19276181D01*
X-13453995Y19273445D01*
X-13417977Y19263793D01*
X-13356864Y19258448D01*
X-13348143Y19257377D01*
X-13298417Y19249500D01*
X-13260108Y19249500D01*
X-13249128Y19249021D01*
X-13200000Y19244723D01*
X-13150872Y19249021D01*
X-13139892Y19249500D01*
X-13101583Y19249500D01*
X-13051864Y19257376D01*
X-13043151Y19258446D01*
X-12982023Y19263793D01*
X-12946014Y19273443D01*
X-12933130Y19276181D01*
X-12907174Y19280291D01*
X-12847826Y19299575D01*
X-12841552Y19301433D01*
X-12805897Y19310987D01*
X-12770680Y19320422D01*
X-12770677Y19320424D01*
X-12770670Y19320425D01*
X-12751986Y19329139D01*
X-12747818Y19331082D01*
X-12733501Y19336723D01*
X-12719975Y19341116D01*
X-12653677Y19374897D01*
X-12649753Y19376810D01*
X-12572361Y19412898D01*
X-12561587Y19420443D01*
X-12546514Y19429499D01*
X-12544595Y19430476D01*
X-12474710Y19481253D01*
X-12472983Y19482485D01*
X-12393123Y19538402D01*
X-12238402Y19693123D01*
X-12182485Y19772983D01*
X-12181228Y19774743D01*
X-12130476Y19844595D01*
X-12129499Y19846514D01*
X-12120443Y19861587D01*
X-12112898Y19872361D01*
X-12076806Y19949762D01*
X-12074897Y19953677D01*
X-12041116Y20019975D01*
X-12036723Y20033501D01*
X-12031082Y20047818D01*
X-12020427Y20070666D01*
X-12020425Y20070670D01*
X-12001433Y20141552D01*
X-11999575Y20147826D01*
X-11980291Y20207174D01*
X-11976181Y20233130D01*
X-11973441Y20246019D01*
X-11963793Y20282023D01*
X-11958446Y20343151D01*
X-11957374Y20351876D01*
X-11949500Y20401583D01*
X-11949500Y20439893D01*
X-11949021Y20450874D01*
X-11944723Y20500000D01*
X-11949021Y20549129D01*
X-11949500Y20560109D01*
X-11949500Y20598415D01*
X-11957376Y20648140D01*
X-11958448Y20656871D01*
X-11963793Y20717977D01*
X-11973445Y20753995D01*
X-11976181Y20766868D01*
X-11980291Y20792826D01*
X-11999560Y20852130D01*
X-12001434Y20858454D01*
X-12020424Y20929325D01*
X-12020425Y20929330D01*
X-12031086Y20952191D01*
X-12036722Y20966501D01*
X-12041117Y20980027D01*
X-12074886Y21046303D01*
X-12076810Y21050247D01*
X-12112898Y21127638D01*
X-12120439Y21138408D01*
X-12129497Y21153483D01*
X-12130476Y21155405D01*
X-12181309Y21225370D01*
X-12182498Y21227037D01*
X-12238402Y21306877D01*
X-12238405Y21306880D01*
X-12238407Y21306883D01*
X-12393119Y21461595D01*
X-12393128Y21461602D01*
X-12472930Y21517480D01*
X-12474639Y21518698D01*
X-12544595Y21569524D01*
X-12546524Y21570507D01*
X-12561589Y21579560D01*
X-12572357Y21587100D01*
X-12572361Y21587103D01*
X-12649754Y21623192D01*
X-12653705Y21625119D01*
X-12719969Y21658882D01*
X-12719973Y21658883D01*
X-12719974Y21658884D01*
X-12719975Y21658884D01*
X-12733506Y21663281D01*
X-12747812Y21668916D01*
X-12770670Y21679575D01*
X-12841531Y21698563D01*
X-12841542Y21698566D01*
X-12847845Y21700433D01*
X-12907174Y21719709D01*
X-12907178Y21719710D01*
X-12907179Y21719710D01*
X-12933125Y21723820D01*
X-12946019Y21726561D01*
X-12982020Y21736207D01*
X-12982028Y21736208D01*
X-13043141Y21741555D01*
X-13051865Y21742626D01*
X-13101583Y21750500D01*
X-13101585Y21750500D01*
X-13139892Y21750500D01*
X-13150872Y21750979D01*
X-13200000Y21755277D01*
X-13249128Y21750979D01*
X-13260108Y21750500D01*
X-13298417Y21750500D01*
X-13319452Y21747169D01*
X-13348135Y21742626D01*
X-13356861Y21741555D01*
X-13417973Y21736208D01*
X-13417982Y21736207D01*
X-13453979Y21726561D01*
X-13466875Y21723820D01*
X-13492828Y21719709D01*
X-13492830Y21719709D01*
X-13552153Y21700435D01*
X-13558472Y21698563D01*
X-13629325Y21679577D01*
X-13629337Y21679573D01*
X-13652189Y21668917D01*
X-13666491Y21663283D01*
X-13680018Y21658888D01*
X-13680024Y21658885D01*
X-13746304Y21625114D01*
X-13750254Y21623188D01*
X-13827640Y21587102D01*
X-13838422Y21579553D01*
X-13853457Y21570518D01*
X-13855388Y21569535D01*
X-13855411Y21569521D01*
X-13925294Y21518747D01*
X-13927083Y21517471D01*
X-14006878Y21461598D01*
X-14006882Y21461595D01*
X-14161595Y21306882D01*
X-14161598Y21306878D01*
X-14217471Y21227083D01*
X-14218747Y21225294D01*
X-14269521Y21155411D01*
X-14269535Y21155388D01*
X-14270518Y21153457D01*
X-14279553Y21138422D01*
X-14287102Y21127640D01*
X-14323188Y21050254D01*
X-14325114Y21046304D01*
X-14358885Y20980024D01*
X-14358888Y20980018D01*
X-14363283Y20966491D01*
X-14368917Y20952189D01*
X-14379573Y20929337D01*
X-14379577Y20929325D01*
X-14398563Y20858472D01*
X-14400435Y20852153D01*
X-14419709Y20792830D01*
X-14419709Y20792828D01*
X-14423820Y20766875D01*
X-14426561Y20753979D01*
X-14436207Y20717982D01*
X-14436208Y20717973D01*
X-14441555Y20656861D01*
X-14442626Y20648135D01*
X-14450500Y20598417D01*
X-14450500Y20560109D01*
X-14450979Y20549129D01*
X-14455277Y20500001D01*
X-27699500Y20500001D01*
X-27699500Y22074674D01*
X-27714034Y22147740D01*
X-27769399Y22230601D01*
X-27852260Y22285966D01*
X-27852261Y22285967D01*
X-27925323Y22300500D01*
X-27925326Y22300500D01*
X-29674674Y22300500D01*
X-29674678Y22300500D01*
X-29747740Y22285967D01*
X-29830601Y22230601D01*
X-29885967Y22147740D01*
X-29900500Y22074678D01*
X-29900500Y20325323D01*
X-32594286Y20325323D01*
X-34769437Y22500474D01*
X-34769442Y22500478D01*
X-34855058Y22549908D01*
X-34855060Y22549909D01*
X-34855062Y22549910D01*
X-34855065Y22549911D01*
X-34855070Y22549913D01*
X-34902815Y22562706D01*
X-34902816Y22562706D01*
X-34950561Y22575500D01*
X-34950564Y22575500D01*
X-34950565Y22575500D01*
X-38402642Y22575500D01*
X-38470763Y22595502D01*
X-38506340Y22629927D01*
X-38509518Y22634531D01*
X-38627760Y22739283D01*
X-38767635Y22812696D01*
X-38767639Y22812698D01*
X-38921013Y22850500D01*
X-38921015Y22850500D01*
X-39078985Y22850500D01*
X-39078988Y22850500D01*
X-39232362Y22812698D01*
X-39232366Y22812696D01*
X-39372241Y22739283D01*
X-39490482Y22634532D01*
X-39490484Y22634530D01*
X-39580217Y22504530D01*
X-39580218Y22504527D01*
X-39580219Y22504525D01*
X-39580220Y22504523D01*
X-39588915Y22481596D01*
X-39636239Y22356816D01*
X-39655278Y22200004D01*
X-39655278Y22199997D01*
X-47324445Y22199997D01*
X-47505607Y22236032D01*
X-47505625Y22236035D01*
X-47799997Y22255329D01*
X-47800003Y22255329D01*
X-48094376Y22236035D01*
X-48094394Y22236032D01*
X-48383721Y22178482D01*
X-48383728Y22178480D01*
X-48663077Y22083653D01*
X-48927662Y21953174D01*
X-49172950Y21789279D01*
X-49172957Y21789274D01*
X-49172957Y21789273D01*
X-49316626Y21663278D01*
X-49394758Y21594758D01*
X-49589279Y21372950D01*
X-49753174Y21127662D01*
X-49883653Y20863077D01*
X-49978480Y20583728D01*
X-49978482Y20583721D01*
X-50036032Y20294394D01*
X-50036035Y20294376D01*
X-50055329Y20000004D01*
X-50055329Y19999997D01*
X-54000000Y19999997D01*
X-54000000Y21896000D01*
X-53979998Y21964121D01*
X-53926342Y22010614D01*
X-53874000Y22022000D01*
X-53595796Y22022000D01*
X-53595793Y22022001D01*
X-53391393Y22062660D01*
X-53391390Y22062661D01*
X-53198849Y22142414D01*
X-53025569Y22258196D01*
X-53025562Y22258201D01*
X-52878201Y22405562D01*
X-52878196Y22405569D01*
X-52762414Y22578849D01*
X-52682662Y22771388D01*
X-52682660Y22771393D01*
X-52671797Y22826000D01*
X-51528203Y22826000D01*
X-51517341Y22771393D01*
X-51517339Y22771388D01*
X-51437587Y22578849D01*
X-51321805Y22405569D01*
X-51321800Y22405562D01*
X-51174439Y22258201D01*
X-51174432Y22258196D01*
X-51001152Y22142414D01*
X-50808611Y22062661D01*
X-50808608Y22062660D01*
X-50604208Y22022001D01*
X-50604204Y22022000D01*
X-50454000Y22022000D01*
X-50454000Y22780000D01*
X-49946000Y22780000D01*
X-49946000Y22022000D01*
X-49795796Y22022000D01*
X-49795793Y22022001D01*
X-49591393Y22062660D01*
X-49591390Y22062661D01*
X-49398849Y22142414D01*
X-49225569Y22258196D01*
X-49225562Y22258201D01*
X-49078201Y22405562D01*
X-49078196Y22405569D01*
X-48962414Y22578849D01*
X-48882662Y22771388D01*
X-48882660Y22771393D01*
X-48871797Y22826000D01*
X-49739940Y22826000D01*
X-49715795Y22839940D01*
X-49659940Y22895795D01*
X-49620444Y22964204D01*
X-49600000Y23040504D01*
X-49600000Y23119496D01*
X-49620444Y23195796D01*
X-49659940Y23264205D01*
X-49715795Y23320060D01*
X-49739940Y23334000D01*
X-48871798Y23334000D01*
X-48882660Y23388608D01*
X-48882662Y23388613D01*
X-48962414Y23581152D01*
X-49078196Y23754432D01*
X-49078201Y23754439D01*
X-49225562Y23901800D01*
X-49225569Y23901805D01*
X-49398849Y24017587D01*
X-49591390Y24097340D01*
X-49591393Y24097341D01*
X-49795793Y24138000D01*
X-49946000Y24138000D01*
X-49946000Y23380000D01*
X-50454000Y23380000D01*
X-50454000Y24138000D01*
X-50604208Y24138000D01*
X-50808608Y24097341D01*
X-50808611Y24097340D01*
X-51001152Y24017587D01*
X-51174432Y23901805D01*
X-51174439Y23901800D01*
X-51321800Y23754439D01*
X-51321805Y23754432D01*
X-51437587Y23581152D01*
X-51517339Y23388613D01*
X-51517341Y23388608D01*
X-51528203Y23334000D01*
X-50660060Y23334000D01*
X-50684205Y23320060D01*
X-50740060Y23264205D01*
X-50779556Y23195796D01*
X-50800000Y23119496D01*
X-50800000Y23040504D01*
X-50779556Y22964204D01*
X-50740060Y22895795D01*
X-50684205Y22839940D01*
X-50660060Y22826000D01*
X-51528203Y22826000D01*
X-52671797Y22826000D01*
X-53539940Y22826000D01*
X-53515795Y22839940D01*
X-53459940Y22895795D01*
X-53420444Y22964204D01*
X-53400000Y23040504D01*
X-53400000Y23119496D01*
X-53420444Y23195796D01*
X-53459940Y23264205D01*
X-53515795Y23320060D01*
X-53539940Y23334000D01*
X-52671798Y23334000D01*
X-52682660Y23388608D01*
X-52682662Y23388613D01*
X-52762414Y23581152D01*
X-52878196Y23754432D01*
X-52878201Y23754439D01*
X-53025562Y23901800D01*
X-53025569Y23901805D01*
X-53198849Y24017587D01*
X-53391390Y24097340D01*
X-53391393Y24097341D01*
X-53595793Y24138000D01*
X-53874000Y24138000D01*
X-53942121Y24158002D01*
X-53988614Y24211658D01*
X-54000000Y24264000D01*
X-54000000Y27885264D01*
X-15750500Y27885264D01*
X-15720550Y27657769D01*
X-15720548Y27657762D01*
X-15661158Y27436113D01*
X-15573344Y27224112D01*
X-15573343Y27224111D01*
X-15573338Y27224100D01*
X-15458614Y27025392D01*
X-15458609Y27025385D01*
X-15318927Y26843348D01*
X-15318908Y26843327D01*
X-15156674Y26681093D01*
X-15156653Y26681074D01*
X-14974616Y26541392D01*
X-14974609Y26541387D01*
X-14775901Y26426663D01*
X-14775897Y26426662D01*
X-14775888Y26426656D01*
X-14563887Y26338842D01*
X-14342238Y26279452D01*
X-14342234Y26279452D01*
X-14342232Y26279451D01*
X-14283602Y26271733D01*
X-14114734Y26249500D01*
X-14114727Y26249500D01*
X-12885273Y26249500D01*
X-12885266Y26249500D01*
X-12679655Y26276570D01*
X-12657769Y26279451D01*
X-12657769Y26279452D01*
X-12657762Y26279452D01*
X-12436113Y26338842D01*
X-12224112Y26426656D01*
X-12025388Y26541389D01*
X-11843339Y26681081D01*
X-11681081Y26843339D01*
X-11541389Y27025388D01*
X-11426656Y27224112D01*
X-11338842Y27436113D01*
X-11279452Y27657762D01*
X-11258922Y27813702D01*
X-11230200Y27878628D01*
X-11170935Y27917720D01*
X-11099943Y27918565D01*
X-11039764Y27880895D01*
X-11009505Y27816670D01*
X-11008000Y27797255D01*
X-11008000Y27368387D01*
X-10973645Y27107425D01*
X-10905516Y26853165D01*
X-10804784Y26609977D01*
X-10804779Y26609966D01*
X-10673177Y26382025D01*
X-10512934Y26173193D01*
X-10512925Y26173182D01*
X-10326819Y25987076D01*
X-10326808Y25987067D01*
X-10117976Y25826824D01*
X-9890035Y25695222D01*
X-9890024Y25695217D01*
X-9646836Y25594485D01*
X-9392578Y25526357D01*
X-9392575Y25526356D01*
X-9254000Y25508113D01*
X-9254000Y26643827D01*
X-9231591Y26630889D01*
X-9078991Y26590000D01*
X-8921009Y26590000D01*
X-8768409Y26630889D01*
X-8746000Y26643827D01*
X-8746000Y25508113D01*
X-8607426Y25526356D01*
X-8607423Y25526357D01*
X-8353165Y25594485D01*
X-8109977Y25695217D01*
X-8109966Y25695222D01*
X-7882025Y25826824D01*
X-7673193Y25987067D01*
X-7673182Y25987076D01*
X-7487076Y26173182D01*
X-7487067Y26173193D01*
X-7326824Y26382025D01*
X-7195222Y26609966D01*
X-7195217Y26609977D01*
X-7094485Y26853165D01*
X-7026356Y27107425D01*
X-6992001Y27368387D01*
X-6992000Y27368396D01*
X-6992000Y27746000D01*
X-8400000Y27746000D01*
X-8400000Y28254000D01*
X-6992000Y28254000D01*
X-6992000Y28631604D01*
X-6992001Y28631614D01*
X-7026356Y28892576D01*
X-7094485Y29146836D01*
X-7195217Y29390024D01*
X-7195222Y29390035D01*
X-7326824Y29617976D01*
X-7487067Y29826808D01*
X-7487076Y29826819D01*
X-7673182Y30012925D01*
X-7673193Y30012934D01*
X-7882025Y30173177D01*
X-8109966Y30304779D01*
X-8109977Y30304784D01*
X-8353165Y30405516D01*
X-8607426Y30473645D01*
X-8746000Y30491889D01*
X-8746000Y29356174D01*
X-8768409Y29369111D01*
X-8921009Y29410000D01*
X-9078991Y29410000D01*
X-9231591Y29369111D01*
X-9254000Y29356174D01*
X-9254000Y30491888D01*
X-9254001Y30491889D01*
X-9392575Y30473645D01*
X-9646836Y30405516D01*
X-9890024Y30304784D01*
X-9890035Y30304779D01*
X-10117976Y30173177D01*
X-10326808Y30012934D01*
X-10326819Y30012925D01*
X-10512925Y29826819D01*
X-10512934Y29826808D01*
X-10673177Y29617976D01*
X-10804779Y29390035D01*
X-10804784Y29390024D01*
X-10905516Y29146836D01*
X-10973645Y28892576D01*
X-11008000Y28631614D01*
X-11008000Y28202746D01*
X-11028002Y28134625D01*
X-11081658Y28088132D01*
X-11151932Y28078028D01*
X-11216512Y28107522D01*
X-11254896Y28167248D01*
X-11258922Y28186300D01*
X-11279451Y28342231D01*
X-11279452Y28342232D01*
X-11279452Y28342238D01*
X-11338842Y28563887D01*
X-11426656Y28775888D01*
X-11426662Y28775897D01*
X-11426663Y28775901D01*
X-11541387Y28974609D01*
X-11541392Y28974616D01*
X-11681074Y29156653D01*
X-11681093Y29156674D01*
X-11843327Y29318908D01*
X-11843348Y29318927D01*
X-12025385Y29458609D01*
X-12025392Y29458614D01*
X-12224100Y29573338D01*
X-12224108Y29573342D01*
X-12224112Y29573344D01*
X-12436113Y29661158D01*
X-12657762Y29720548D01*
X-12657769Y29720550D01*
X-12885264Y29750500D01*
X-12885266Y29750500D01*
X-14114734Y29750500D01*
X-14114737Y29750500D01*
X-14342232Y29720550D01*
X-14563887Y29661158D01*
X-14775890Y29573343D01*
X-14775901Y29573338D01*
X-14974609Y29458614D01*
X-14974616Y29458609D01*
X-15156653Y29318927D01*
X-15156674Y29318908D01*
X-15318908Y29156674D01*
X-15318927Y29156653D01*
X-15458609Y28974616D01*
X-15458614Y28974609D01*
X-15573338Y28775901D01*
X-15573343Y28775890D01*
X-15661158Y28563887D01*
X-15720550Y28342232D01*
X-15750500Y28114737D01*
X-15750500Y27885264D01*
X-54000000Y27885264D01*
X-54000000Y30536000D01*
X-53979998Y30604121D01*
X-53926342Y30650614D01*
X-53874000Y30662000D01*
X-53595796Y30662000D01*
X-53595793Y30662001D01*
X-53391393Y30702660D01*
X-53391390Y30702661D01*
X-53198849Y30782414D01*
X-53025569Y30898196D01*
X-53025562Y30898201D01*
X-52878201Y31045562D01*
X-52878196Y31045569D01*
X-52762414Y31218849D01*
X-52682662Y31411388D01*
X-52682660Y31411393D01*
X-52671797Y31466000D01*
X-51528203Y31466000D01*
X-51517341Y31411393D01*
X-51517339Y31411388D01*
X-51437587Y31218849D01*
X-51321805Y31045569D01*
X-51321800Y31045562D01*
X-51174439Y30898201D01*
X-51174432Y30898196D01*
X-51001152Y30782414D01*
X-50808611Y30702661D01*
X-50808608Y30702660D01*
X-50604208Y30662001D01*
X-50604204Y30662000D01*
X-50454000Y30662000D01*
X-50454000Y31420000D01*
X-49946000Y31420000D01*
X-49946000Y30662000D01*
X-49795796Y30662000D01*
X-49795793Y30662001D01*
X-49591393Y30702660D01*
X-49591390Y30702661D01*
X-49398849Y30782414D01*
X-49225569Y30898196D01*
X-49225562Y30898201D01*
X-49078201Y31045562D01*
X-49078196Y31045569D01*
X-48962414Y31218849D01*
X-48882662Y31411388D01*
X-48882660Y31411393D01*
X-48871797Y31466000D01*
X-49739940Y31466000D01*
X-49715795Y31479940D01*
X-49659940Y31535795D01*
X-49620444Y31604204D01*
X-49600000Y31680504D01*
X-49600000Y31759496D01*
X-49620444Y31835796D01*
X-49659940Y31904205D01*
X-49715795Y31960060D01*
X-49739940Y31974000D01*
X-48871798Y31974000D01*
X-48882660Y32028608D01*
X-48882662Y32028613D01*
X-48962414Y32221152D01*
X-49078196Y32394432D01*
X-49078201Y32394439D01*
X-49225562Y32541800D01*
X-49225569Y32541805D01*
X-49398849Y32657587D01*
X-49591390Y32737340D01*
X-49591393Y32737341D01*
X-49795793Y32778000D01*
X-49946000Y32778000D01*
X-49946000Y32020000D01*
X-50454000Y32020000D01*
X-50454000Y32778000D01*
X-50604208Y32778000D01*
X-50808608Y32737341D01*
X-50808611Y32737340D01*
X-51001152Y32657587D01*
X-51174432Y32541805D01*
X-51174439Y32541800D01*
X-51321800Y32394439D01*
X-51321805Y32394432D01*
X-51437587Y32221152D01*
X-51517339Y32028613D01*
X-51517341Y32028608D01*
X-51528203Y31974000D01*
X-50660060Y31974000D01*
X-50684205Y31960060D01*
X-50740060Y31904205D01*
X-50779556Y31835796D01*
X-50800000Y31759496D01*
X-50800000Y31680504D01*
X-50779556Y31604204D01*
X-50740060Y31535795D01*
X-50684205Y31479940D01*
X-50660060Y31466000D01*
X-51528203Y31466000D01*
X-52671797Y31466000D01*
X-53539940Y31466000D01*
X-53515795Y31479940D01*
X-53459940Y31535795D01*
X-53420444Y31604204D01*
X-53400000Y31680504D01*
X-53400000Y31759496D01*
X-53420444Y31835796D01*
X-53459940Y31904205D01*
X-53515795Y31960060D01*
X-53539940Y31974000D01*
X-52671798Y31974000D01*
X-52682660Y32028608D01*
X-52682662Y32028613D01*
X-52762414Y32221152D01*
X-52878196Y32394432D01*
X-52878201Y32394439D01*
X-53025562Y32541800D01*
X-53025569Y32541805D01*
X-53198849Y32657587D01*
X-53391390Y32737340D01*
X-53391393Y32737341D01*
X-53595793Y32778000D01*
X-53874000Y32778000D01*
X-53942121Y32798002D01*
X-53988614Y32851658D01*
X-54000000Y32904000D01*
X-54000000Y33447810D01*
X-53979998Y33515931D01*
X-53963095Y33536905D01*
X-53536905Y33963095D01*
X-53474593Y33997121D01*
X-53447810Y34000000D01*
X-10226218Y34000000D01*
X-10158097Y33979998D01*
G37*
%TD.AperFunction*%
%TD*%
M02*
