%TF.GenerationSoftware,KiCad,Pcbnew,9.0.5*%
%TF.CreationDate,2025-10-18T14:04:28+13:00*%
%TF.ProjectId,comprgb,636f6d70-7267-4622-9e6b-696361645f70,rev?*%
%TF.SameCoordinates,Original*%
%TF.FileFunction,Copper,L2,Bot*%
%TF.FilePolarity,Positive*%
%FSLAX46Y46*%
G04 Gerber Fmt 4.6, Leading zero omitted, Abs format (unit mm)*
G04 Created by KiCad (PCBNEW 9.0.5) date 2025-10-18 14:04:28*
%MOMM*%
%LPD*%
G01*
G04 APERTURE LIST*
%TA.AperFunction,ComponentPad*%
%ADD10R,1.700000X1.700000*%
%TD*%
%TA.AperFunction,ComponentPad*%
%ADD11C,1.700000*%
%TD*%
%TA.AperFunction,ComponentPad*%
%ADD12C,4.000000*%
%TD*%
%TA.AperFunction,ComponentPad*%
%ADD13C,2.200000*%
%TD*%
%TA.AperFunction,ComponentPad*%
%ADD14O,2.500000X2.500000*%
%TD*%
%TA.AperFunction,ComponentPad*%
%ADD15C,2.300000*%
%TD*%
%TA.AperFunction,ComponentPad*%
%ADD16C,2.000000*%
%TD*%
%TA.AperFunction,ComponentPad*%
%ADD17O,4.000000X3.000000*%
%TD*%
%TA.AperFunction,ComponentPad*%
%ADD18O,3.000000X4.000000*%
%TD*%
%TA.AperFunction,ComponentPad*%
%ADD19O,1.700000X1.100000*%
%TD*%
%TA.AperFunction,ComponentPad*%
%ADD20C,1.600000*%
%TD*%
%TA.AperFunction,ComponentPad*%
%ADD21C,4.500000*%
%TD*%
%TA.AperFunction,WasherPad*%
%ADD22C,2.200000*%
%TD*%
%TA.AperFunction,ComponentPad*%
%ADD23O,3.000000X3.000000*%
%TD*%
%TA.AperFunction,ViaPad*%
%ADD24C,0.800000*%
%TD*%
%TA.AperFunction,Conductor*%
%ADD25C,0.250000*%
%TD*%
G04 APERTURE END LIST*
D10*
%TO.P,J2,1*%
%TO.N,/VSYNC*%
X-28800000Y21200000D03*
D11*
%TO.P,J2,2*%
X-28800000Y18660000D03*
%TO.P,J2,3*%
%TO.N,VCC*%
X-28800000Y16120000D03*
%TD*%
D12*
%TO.P,J4,0*%
%TO.N,N/C*%
X-47800000Y20000000D03*
X-47800000Y-32270000D03*
D13*
%TO.P,J4,1*%
%TO.N,Net-(J4-Pad1)*%
X-40520000Y-24905000D03*
%TO.P,J4,2*%
%TO.N,Net-(J4-Pad2)*%
X-45600000Y-23000000D03*
%TO.P,J4,3*%
%TO.N,Net-(J4-Pad3)*%
X-40520000Y-21095000D03*
%TO.P,J4,4*%
%TO.N,GND*%
X-45600000Y-19190000D03*
%TO.P,J4,5*%
X-40520000Y-17285000D03*
%TO.P,J4,6*%
%TO.N,Net-(J4-Pad6)*%
X-45600000Y-15380000D03*
%TO.P,J4,7*%
%TO.N,/Blue*%
X-40520000Y-13475000D03*
%TO.P,J4,8*%
%TO.N,VCC*%
X-45600000Y-11570000D03*
%TO.P,J4,9*%
%TO.N,GND*%
X-40520000Y-9665000D03*
%TO.P,J4,10*%
%TO.N,Net-(J4-Pad10)*%
X-45600000Y-7760000D03*
%TO.P,J4,11*%
%TO.N,/Green*%
X-40520000Y-5855000D03*
%TO.P,J4,12*%
%TO.N,Net-(J4-Pad12)*%
X-45600000Y-3950000D03*
%TO.P,J4,13*%
%TO.N,GND*%
X-40520000Y-2045000D03*
%TO.P,J4,14*%
X-45600000Y-140000D03*
%TO.P,J4,15*%
%TO.N,/Red*%
X-40520000Y1765000D03*
%TO.P,J4,16*%
%TO.N,Net-(J4-Pad16)*%
X-45600000Y3670000D03*
%TO.P,J4,17*%
%TO.N,GND*%
X-40520000Y5575000D03*
%TO.P,J4,18*%
X-45600000Y7480000D03*
%TO.P,J4,19*%
%TO.N,Net-(J4-Pad19)*%
X-40520000Y9385000D03*
%TO.P,J4,20*%
%TO.N,Net-(J4-Pad20)*%
X-45600000Y11290000D03*
%TO.P,J4,21*%
%TO.N,GND*%
X-40520000Y13195000D03*
%TD*%
D14*
%TO.P,J5,*%
%TO.N,*%
X-9000000Y-6800000D03*
D15*
X-5855480Y2466620D03*
D16*
X-13200000Y5500000D03*
X-13200000Y20500000D03*
D15*
X-5855480Y23533380D03*
D14*
X-9000000Y32800000D03*
D17*
%TO.P,J5,1*%
%TO.N,Net-(C2-Pad2)*%
X-13500000Y13000000D03*
%TO.P,J5,2*%
%TO.N,Net-(C3-Pad2)*%
X-13500000Y28000000D03*
%TO.P,J5,3*%
%TO.N,Net-(C1-Pad2)*%
X-13500000Y-2000000D03*
D18*
%TO.P,J5,4*%
%TO.N,GND*%
X-9000000Y-2000000D03*
X-9000000Y13000000D03*
X-9000000Y28000000D03*
%TD*%
D19*
%TO.P,J3,S1*%
%TO.N,GND*%
X-54000000Y23080000D03*
X-50200000Y23080000D03*
X-54000000Y31720000D03*
X-50200000Y31720000D03*
%TD*%
D20*
%TO.P,J1,1*%
%TO.N,/Red*%
X-47860000Y-3440000D03*
%TO.P,J1,2*%
%TO.N,/Green*%
X-47860000Y-1150000D03*
%TO.P,J1,3*%
%TO.N,/Blue*%
X-47860000Y1140000D03*
%TO.P,J1,4*%
%TO.N,Net-(J1-Pad4)*%
X-47860000Y3430000D03*
%TO.P,J1,5*%
%TO.N,GND*%
X-47860000Y5720000D03*
%TO.P,J1,6*%
X-50400000Y-4580000D03*
%TO.P,J1,7*%
X-50400000Y-2290000D03*
%TO.P,J1,8*%
X-50400000Y0D03*
%TO.P,J1,9*%
%TO.N,VS*%
X-50400000Y2290000D03*
D21*
%TO.P,J1,10*%
%TO.N,GND*%
X-50400000Y13380000D03*
D20*
X-50400000Y4580000D03*
D21*
X-50400000Y-11620000D03*
D20*
%TO.P,J1,11*%
%TO.N,Net-(J1-Pad11)*%
X-52940000Y-3440000D03*
%TO.P,J1,12*%
%TO.N,Net-(J1-Pad12)*%
X-52940000Y-1150000D03*
%TO.P,J1,13*%
%TO.N,/CSYNC*%
X-52940000Y1140000D03*
%TO.P,J1,14*%
%TO.N,/VSYNC*%
X-52940000Y3430000D03*
%TO.P,J1,15*%
%TO.N,Net-(J1-Pad15)*%
X-52940000Y5720000D03*
%TD*%
D22*
%TO.P,JR1,*%
%TO.N,*%
X-5850000Y-11350000D03*
X-5850000Y-19850000D03*
D23*
%TO.P,JR1,1*%
%TO.N,Net-(J4-Pad1)*%
X-13500000Y-15600000D03*
%TO.P,JR1,2*%
%TO.N,GND*%
X-9000000Y-15600000D03*
%TD*%
D22*
%TO.P,JU1,*%
%TO.N,*%
X-5850000Y-24370000D03*
X-5850000Y-32870000D03*
D23*
%TO.P,JU1,1*%
%TO.N,Net-(J4-Pad3)*%
X-13500000Y-28620000D03*
%TO.P,JU1,2*%
%TO.N,GND*%
X-9000000Y-28620000D03*
%TD*%
D24*
%TO.N,VCC*%
X-25800000Y12300000D03*
X-28700000Y12300000D03*
%TO.N,GND*%
X-52500000Y-32800000D03*
X-18800000Y20200000D03*
X-18600000Y5400000D03*
X-40400000Y16700000D03*
X-22900000Y3600000D03*
X-25600000Y30200000D03*
X-30900000Y-3100000D03*
X-29900000Y6000000D03*
X-46300000Y32800000D03*
X-25700000Y-26400000D03*
X-41100000Y29200000D03*
X-22500000Y-400000D03*
X-33700000Y25200000D03*
X-32300000Y10300000D03*
X-15600000Y3400000D03*
X-19000000Y25500000D03*
X-21100000Y14600000D03*
X-33500000Y13600000D03*
X-25200000Y16900000D03*
X-30200000Y11000000D03*
X-33700000Y-300000D03*
X-21200000Y12000000D03*
X-19400000Y7200000D03*
X-25400000Y23000000D03*
X-35400000Y-23400000D03*
X-51000000Y-6800000D03*
X-36900000Y7900000D03*
X-22600000Y-7400000D03*
X-35800000Y12700000D03*
X-33100000Y-4100000D03*
X-28800000Y7900000D03*
X-43200000Y1200000D03*
X-18500000Y14100000D03*
X-52600000Y-17000000D03*
X-15500000Y11400000D03*
X-19200000Y16400000D03*
X-16400000Y-18600000D03*
X-37800000Y17600000D03*
X-43100000Y-12500000D03*
X-29700000Y31300000D03*
X-37800000Y-3800000D03*
X-35100000Y-14000000D03*
X-20900000Y10000000D03*
X-15100000Y16700000D03*
X-22000000Y22800000D03*
X-39000000Y27400000D03*
X-39300000Y-33100000D03*
X-20000000Y-15600000D03*
X-27400000Y24200000D03*
X-17800000Y3400000D03*
X-18200000Y-26000000D03*
X-37600000Y-9200000D03*
X-43600000Y-21400000D03*
X-29000000Y-3000000D03*
X-27600000Y-5100000D03*
X-20600000Y1100000D03*
X-32700000Y21400000D03*
X-38200000Y5800000D03*
X-23000000Y19400000D03*
X-38800000Y-200000D03*
X-29600000Y13800000D03*
X-26700000Y-400000D03*
X-18300000Y10700000D03*
X-42800000Y-29200000D03*
X-25500000Y-9000000D03*
X-36900000Y-26600000D03*
X-33600000Y17100000D03*
X-20300000Y17000000D03*
X-37300000Y3700000D03*
X-20800000Y4800000D03*
X-28100000Y-21600000D03*
X-16200000Y-13200000D03*
X-32450000Y2750000D03*
X-17900000Y-33100000D03*
X-45600000Y16400000D03*
X-17700000Y8700000D03*
X-43200000Y6200000D03*
X-18500000Y-4500000D03*
X-42400000Y13600000D03*
X-47400000Y-6200000D03*
X-25000000Y1700000D03*
X-21900000Y25300000D03*
X-33900000Y19700000D03*
X-32600000Y8000000D03*
X-42800000Y-7800000D03*
X-20600000Y-2800000D03*
X-19800000Y28200000D03*
X-20700000Y-9000000D03*
X-45000000Y-26000000D03*
%TO.N,/VSYNC*%
X-31800000Y19000000D03*
X-35190000Y18550000D03*
X-39000000Y22200000D03*
X-42887686Y17373750D03*
%TD*%
D25*
%TO.N,/Red*%
X-47860000Y-3440000D02*
X-46520000Y-2100000D01*
X-44300000Y-2015000D02*
X-40520000Y1765000D01*
X-46520000Y-2100000D02*
X-44300000Y-2100000D01*
X-44300000Y-2100000D02*
X-44300000Y-2015000D01*
%TO.N,VCC*%
X-25800000Y12300000D02*
X-28700000Y12300000D01*
%TO.N,/VSYNC*%
X-35190000Y18550000D02*
X-41711436Y18550000D01*
X-41711436Y18550000D02*
X-42487687Y17773749D01*
X-42487687Y17773749D02*
X-42887686Y17373750D01*
X-31800000Y19000000D02*
X-35000000Y22200000D01*
X-35000000Y22200000D02*
X-39000000Y22200000D01*
%TD*%
%TA.AperFunction,Conductor*%
%TO.N,GND*%
G36*
X-10158097Y33979998D02*
G01*
X-10111604Y33926342D01*
X-10101500Y33856068D01*
X-10130994Y33791488D01*
X-10137123Y33784905D01*
X-10144513Y33777516D01*
X-10144516Y33777513D01*
X-10283341Y33586437D01*
X-10283343Y33586433D01*
X-10390568Y33375992D01*
X-10463553Y33151368D01*
X-10500500Y32918092D01*
X-10500500Y32681908D01*
X-10463553Y32448632D01*
X-10390568Y32224008D01*
X-10283343Y32013567D01*
X-10283341Y32013564D01*
X-10144516Y31822488D01*
X-9977513Y31655485D01*
X-9977510Y31655483D01*
X-9786433Y31516657D01*
X-9575992Y31409432D01*
X-9351368Y31336447D01*
X-9118092Y31299500D01*
X-9118089Y31299500D01*
X-8881911Y31299500D01*
X-8881908Y31299500D01*
X-8648632Y31336447D01*
X-8424008Y31409432D01*
X-8213567Y31516657D01*
X-8022490Y31655483D01*
X-7855483Y31822490D01*
X-7716657Y32013567D01*
X-7609432Y32224008D01*
X-7536447Y32448632D01*
X-7499500Y32681908D01*
X-7499500Y32918092D01*
X-7536447Y33151368D01*
X-7609432Y33375992D01*
X-7716657Y33586433D01*
X-7855483Y33777510D01*
X-7855485Y33777513D01*
X-7862877Y33784905D01*
X-7896903Y33847217D01*
X-7891838Y33918032D01*
X-7849291Y33974868D01*
X-7782771Y33999679D01*
X-7773782Y34000000D01*
X-6552190Y34000000D01*
X-6484069Y33979998D01*
X-6463095Y33963095D01*
X-6036905Y33536905D01*
X-6002879Y33474593D01*
X-6000000Y33447810D01*
X-6000000Y25036062D01*
X-6020002Y24967941D01*
X-6073658Y24921448D01*
X-6106286Y24911614D01*
X-6162476Y24902715D01*
X-6183438Y24899394D01*
X-6393082Y24831277D01*
X-6393088Y24831274D01*
X-6589506Y24731193D01*
X-6767848Y24601620D01*
X-6767851Y24601618D01*
X-6923718Y24445751D01*
X-6923720Y24445748D01*
X-7053293Y24267406D01*
X-7153374Y24070988D01*
X-7153377Y24070982D01*
X-7208346Y23901800D01*
X-7221495Y23861331D01*
X-7255980Y23643602D01*
X-7255980Y23423158D01*
X-7221495Y23205429D01*
X-7221494Y23205426D01*
X-7167909Y23040504D01*
X-7153375Y22995774D01*
X-7053295Y22799358D01*
X-6923722Y22621015D01*
X-6923720Y22621013D01*
X-6923718Y22621010D01*
X-6767851Y22465143D01*
X-6767848Y22465141D01*
X-6767845Y22465138D01*
X-6589502Y22335565D01*
X-6393086Y22235485D01*
X-6183431Y22167365D01*
X-6106287Y22155147D01*
X-6042137Y22124736D01*
X-6004609Y22064468D01*
X-6000000Y22030699D01*
X-6000000Y3969302D01*
X-6020002Y3901181D01*
X-6073658Y3854688D01*
X-6106286Y3844854D01*
X-6162476Y3835955D01*
X-6183438Y3832634D01*
X-6393082Y3764517D01*
X-6393088Y3764514D01*
X-6589506Y3664433D01*
X-6767848Y3534860D01*
X-6767851Y3534858D01*
X-6923718Y3378991D01*
X-6923720Y3378988D01*
X-7053293Y3200646D01*
X-7153374Y3004228D01*
X-7153377Y3004222D01*
X-7221323Y2795100D01*
X-7221495Y2794571D01*
X-7255980Y2576842D01*
X-7255980Y2356398D01*
X-7221495Y2138669D01*
X-7221494Y2138666D01*
X-7162136Y1955976D01*
X-7153375Y1929014D01*
X-7053295Y1732598D01*
X-6923722Y1554255D01*
X-6923720Y1554253D01*
X-6923718Y1554250D01*
X-6767851Y1398383D01*
X-6767848Y1398381D01*
X-6767845Y1398378D01*
X-6589502Y1268805D01*
X-6393086Y1168725D01*
X-6183431Y1100605D01*
X-6106287Y1088387D01*
X-6042137Y1057976D01*
X-6004609Y997708D01*
X-6000000Y963939D01*
X-6000000Y-9898809D01*
X-6020002Y-9966930D01*
X-6073658Y-10013423D01*
X-6106288Y-10023257D01*
X-6166243Y-10032754D01*
X-6166246Y-10032754D01*
X-6166247Y-10032755D01*
X-6368412Y-10098443D01*
X-6368414Y-10098444D01*
X-6557820Y-10194951D01*
X-6729795Y-10319898D01*
X-6729798Y-10319900D01*
X-6880100Y-10470202D01*
X-6880102Y-10470205D01*
X-7005049Y-10642180D01*
X-7101556Y-10831586D01*
X-7101557Y-10831588D01*
X-7158166Y-11005813D01*
X-7167246Y-11033757D01*
X-7200500Y-11243713D01*
X-7200500Y-11456287D01*
X-7167246Y-11666243D01*
X-7101557Y-11868412D01*
X-7005051Y-12057816D01*
X-6880104Y-12229792D01*
X-6880102Y-12229794D01*
X-6880100Y-12229797D01*
X-6729798Y-12380099D01*
X-6729795Y-12380101D01*
X-6729792Y-12380104D01*
X-6557816Y-12505051D01*
X-6368412Y-12601557D01*
X-6166243Y-12667246D01*
X-6106287Y-12676742D01*
X-6042136Y-12707153D01*
X-6004609Y-12767421D01*
X-6000000Y-12801190D01*
X-6000000Y-18398809D01*
X-6020002Y-18466930D01*
X-6073658Y-18513423D01*
X-6106288Y-18523257D01*
X-6166243Y-18532754D01*
X-6166246Y-18532754D01*
X-6166247Y-18532755D01*
X-6368412Y-18598443D01*
X-6368414Y-18598444D01*
X-6557820Y-18694951D01*
X-6729795Y-18819898D01*
X-6729798Y-18819900D01*
X-6880100Y-18970202D01*
X-6880102Y-18970205D01*
X-7005049Y-19142180D01*
X-7101556Y-19331586D01*
X-7101557Y-19331588D01*
X-7117156Y-19379598D01*
X-7167246Y-19533757D01*
X-7200500Y-19743713D01*
X-7200500Y-19956287D01*
X-7167246Y-20166243D01*
X-7101557Y-20368412D01*
X-7005051Y-20557816D01*
X-7005049Y-20557819D01*
X-6974160Y-20600334D01*
X-6880104Y-20729792D01*
X-6880102Y-20729794D01*
X-6880100Y-20729797D01*
X-6729798Y-20880099D01*
X-6729795Y-20880101D01*
X-6729792Y-20880104D01*
X-6557816Y-21005051D01*
X-6368412Y-21101557D01*
X-6166243Y-21167246D01*
X-6106287Y-21176742D01*
X-6042136Y-21207153D01*
X-6004609Y-21267421D01*
X-6000000Y-21301190D01*
X-6000000Y-22918809D01*
X-6020002Y-22986930D01*
X-6073658Y-23033423D01*
X-6106288Y-23043257D01*
X-6166243Y-23052754D01*
X-6166246Y-23052754D01*
X-6166247Y-23052755D01*
X-6368412Y-23118443D01*
X-6368414Y-23118444D01*
X-6557820Y-23214951D01*
X-6729795Y-23339898D01*
X-6729798Y-23339900D01*
X-6880100Y-23490202D01*
X-6880102Y-23490205D01*
X-7005049Y-23662180D01*
X-7005051Y-23662184D01*
X-7101557Y-23851588D01*
X-7167246Y-24053757D01*
X-7200500Y-24263713D01*
X-7200500Y-24476287D01*
X-7167246Y-24686243D01*
X-7101557Y-24888412D01*
X-7005051Y-25077816D01*
X-6880104Y-25249792D01*
X-6880102Y-25249794D01*
X-6880100Y-25249797D01*
X-6729798Y-25400099D01*
X-6729795Y-25400101D01*
X-6729792Y-25400104D01*
X-6557816Y-25525051D01*
X-6368412Y-25621557D01*
X-6166243Y-25687246D01*
X-6106287Y-25696742D01*
X-6042136Y-25727153D01*
X-6004609Y-25787421D01*
X-6000000Y-25821190D01*
X-6000000Y-31418809D01*
X-6020002Y-31486930D01*
X-6073658Y-31533423D01*
X-6106288Y-31543257D01*
X-6166243Y-31552754D01*
X-6166246Y-31552754D01*
X-6166247Y-31552755D01*
X-6368412Y-31618443D01*
X-6368414Y-31618444D01*
X-6557820Y-31714951D01*
X-6729795Y-31839898D01*
X-6729798Y-31839900D01*
X-6880100Y-31990202D01*
X-6880102Y-31990205D01*
X-7005049Y-32162180D01*
X-7005051Y-32162184D01*
X-7101557Y-32351588D01*
X-7167246Y-32553757D01*
X-7200500Y-32763713D01*
X-7200500Y-32976287D01*
X-7167246Y-33186243D01*
X-7101557Y-33388412D01*
X-7005051Y-33577816D01*
X-6880104Y-33749792D01*
X-6880102Y-33749794D01*
X-6880100Y-33749797D01*
X-6844992Y-33784905D01*
X-6810966Y-33847217D01*
X-6816031Y-33918032D01*
X-6858578Y-33974868D01*
X-6925098Y-33999679D01*
X-6934087Y-34000000D01*
X-46043121Y-34000000D01*
X-46111242Y-33979998D01*
X-46157735Y-33926342D01*
X-46167839Y-33856068D01*
X-46138345Y-33791488D01*
X-46132216Y-33784905D01*
X-46104366Y-33757054D01*
X-46104354Y-33757042D01*
X-45924762Y-33522994D01*
X-45777257Y-33267507D01*
X-45664361Y-32994952D01*
X-45588007Y-32709993D01*
X-45549500Y-32417506D01*
X-45549500Y-32122494D01*
X-45583588Y-31863574D01*
X-45588006Y-31830014D01*
X-45588007Y-31830013D01*
X-45588007Y-31830007D01*
X-45664361Y-31545048D01*
X-45777257Y-31272493D01*
X-45777263Y-31272484D01*
X-45777264Y-31272480D01*
X-45924760Y-31017009D01*
X-45924765Y-31017002D01*
X-46104347Y-30782966D01*
X-46104366Y-30782945D01*
X-46312946Y-30574365D01*
X-46312967Y-30574346D01*
X-46547003Y-30394764D01*
X-46547010Y-30394759D01*
X-46802481Y-30247263D01*
X-46802489Y-30247259D01*
X-46802493Y-30247257D01*
X-47075048Y-30134361D01*
X-47360007Y-30058007D01*
X-47360009Y-30058006D01*
X-47360015Y-30058005D01*
X-47652492Y-30019500D01*
X-47652494Y-30019500D01*
X-47947506Y-30019500D01*
X-47947509Y-30019500D01*
X-48239986Y-30058005D01*
X-48519589Y-30132924D01*
X-48524952Y-30134361D01*
X-48667349Y-30193344D01*
X-48797509Y-30247258D01*
X-48797520Y-30247263D01*
X-49052991Y-30394759D01*
X-49052998Y-30394764D01*
X-49287034Y-30574346D01*
X-49287055Y-30574365D01*
X-49495635Y-30782945D01*
X-49495654Y-30782966D01*
X-49675236Y-31017002D01*
X-49675241Y-31017009D01*
X-49822737Y-31272480D01*
X-49822742Y-31272491D01*
X-49935639Y-31545048D01*
X-50011995Y-31830014D01*
X-50050500Y-32122491D01*
X-50050500Y-32417508D01*
X-50011995Y-32709985D01*
X-50011994Y-32709991D01*
X-50011993Y-32709993D01*
X-49935639Y-32994952D01*
X-49822743Y-33267507D01*
X-49822742Y-33267508D01*
X-49822737Y-33267519D01*
X-49675241Y-33522990D01*
X-49675236Y-33522997D01*
X-49495654Y-33757033D01*
X-49495635Y-33757054D01*
X-49467784Y-33784905D01*
X-49433758Y-33847217D01*
X-49438823Y-33918032D01*
X-49481370Y-33974868D01*
X-49547890Y-33999679D01*
X-49556879Y-34000000D01*
X-53447810Y-34000000D01*
X-53515931Y-33979998D01*
X-53536905Y-33963095D01*
X-53963095Y-33536905D01*
X-53997121Y-33474593D01*
X-54000000Y-33447810D01*
X-54000000Y-28505263D01*
X-15250500Y-28505263D01*
X-15250500Y-28734736D01*
X-15220550Y-28962231D01*
X-15220548Y-28962238D01*
X-15161158Y-29183887D01*
X-15073344Y-29395888D01*
X-15073343Y-29395889D01*
X-15073338Y-29395900D01*
X-14958614Y-29594608D01*
X-14958609Y-29594615D01*
X-14818927Y-29776652D01*
X-14818908Y-29776673D01*
X-14656674Y-29938907D01*
X-14656653Y-29938926D01*
X-14474616Y-30078608D01*
X-14474609Y-30078613D01*
X-14275901Y-30193337D01*
X-14275897Y-30193338D01*
X-14275888Y-30193344D01*
X-14063887Y-30281158D01*
X-13842238Y-30340548D01*
X-13842234Y-30340548D01*
X-13842232Y-30340549D01*
X-13783602Y-30348267D01*
X-13614734Y-30370500D01*
X-13614727Y-30370500D01*
X-13385273Y-30370500D01*
X-13385266Y-30370500D01*
X-13179655Y-30343430D01*
X-13157769Y-30340549D01*
X-13157769Y-30340548D01*
X-13157762Y-30340548D01*
X-12936113Y-30281158D01*
X-12724112Y-30193344D01*
X-12525388Y-30078611D01*
X-12343339Y-29938919D01*
X-12181081Y-29776661D01*
X-12041389Y-29594612D01*
X-11926656Y-29395888D01*
X-11838842Y-29183887D01*
X-11779452Y-28962238D01*
X-11749500Y-28734734D01*
X-11749500Y-28505266D01*
X-11767835Y-28366000D01*
X-10991887Y-28366000D01*
X-9650000Y-28366000D01*
X-9650000Y-28874000D01*
X-10991887Y-28874000D01*
X-10973645Y-29012574D01*
X-10973644Y-29012577D01*
X-10905516Y-29266835D01*
X-10804784Y-29510023D01*
X-10804779Y-29510034D01*
X-10673177Y-29737975D01*
X-10512934Y-29946807D01*
X-10512925Y-29946818D01*
X-10326819Y-30132924D01*
X-10326808Y-30132933D01*
X-10117976Y-30293176D01*
X-9890035Y-30424778D01*
X-9890024Y-30424783D01*
X-9646836Y-30525515D01*
X-9392578Y-30593643D01*
X-9392575Y-30593644D01*
X-9254000Y-30611887D01*
X-9254000Y-29818344D01*
X-9189598Y-29845021D01*
X-9064019Y-29870000D01*
X-8935981Y-29870000D01*
X-8810402Y-29845021D01*
X-8746000Y-29818344D01*
X-8746000Y-30611887D01*
X-8607426Y-30593644D01*
X-8607423Y-30593643D01*
X-8353165Y-30525515D01*
X-8109977Y-30424783D01*
X-8109966Y-30424778D01*
X-7882025Y-30293176D01*
X-7673193Y-30132933D01*
X-7673182Y-30132924D01*
X-7487076Y-29946818D01*
X-7487067Y-29946807D01*
X-7326824Y-29737975D01*
X-7195222Y-29510034D01*
X-7195217Y-29510023D01*
X-7094485Y-29266835D01*
X-7026357Y-29012577D01*
X-7026356Y-29012574D01*
X-7008113Y-28874000D01*
X-8350000Y-28874000D01*
X-8350000Y-28366000D01*
X-7008113Y-28366000D01*
X-7026356Y-28227425D01*
X-7026357Y-28227422D01*
X-7094485Y-27973164D01*
X-7195217Y-27729976D01*
X-7195222Y-27729965D01*
X-7326824Y-27502024D01*
X-7487067Y-27293192D01*
X-7487076Y-27293181D01*
X-7673182Y-27107075D01*
X-7673193Y-27107066D01*
X-7882025Y-26946823D01*
X-8109966Y-26815221D01*
X-8109977Y-26815216D01*
X-8353165Y-26714484D01*
X-8607426Y-26646355D01*
X-8746000Y-26628111D01*
X-8746000Y-27421655D01*
X-8810402Y-27394979D01*
X-8935981Y-27370000D01*
X-9064019Y-27370000D01*
X-9189598Y-27394979D01*
X-9254000Y-27421655D01*
X-9254000Y-26628112D01*
X-9254001Y-26628111D01*
X-9392575Y-26646355D01*
X-9646836Y-26714484D01*
X-9890024Y-26815216D01*
X-9890035Y-26815221D01*
X-10117976Y-26946823D01*
X-10326808Y-27107066D01*
X-10326819Y-27107075D01*
X-10512925Y-27293181D01*
X-10512934Y-27293192D01*
X-10673177Y-27502024D01*
X-10804779Y-27729965D01*
X-10804784Y-27729976D01*
X-10905516Y-27973164D01*
X-10973644Y-28227422D01*
X-10973645Y-28227425D01*
X-10991887Y-28366000D01*
X-11767835Y-28366000D01*
X-11779452Y-28277762D01*
X-11838842Y-28056113D01*
X-11926656Y-27844112D01*
X-11926662Y-27844103D01*
X-11926663Y-27844099D01*
X-12041387Y-27645391D01*
X-12041392Y-27645384D01*
X-12181074Y-27463347D01*
X-12181093Y-27463326D01*
X-12343327Y-27301092D01*
X-12343348Y-27301073D01*
X-12525385Y-27161391D01*
X-12525392Y-27161386D01*
X-12724100Y-27046662D01*
X-12724108Y-27046658D01*
X-12724112Y-27046656D01*
X-12936113Y-26958842D01*
X-13157762Y-26899452D01*
X-13157769Y-26899450D01*
X-13385264Y-26869500D01*
X-13385266Y-26869500D01*
X-13614734Y-26869500D01*
X-13614737Y-26869500D01*
X-13842232Y-26899450D01*
X-14063887Y-26958842D01*
X-14275890Y-27046657D01*
X-14275901Y-27046662D01*
X-14474609Y-27161386D01*
X-14474616Y-27161391D01*
X-14656653Y-27301073D01*
X-14656674Y-27301092D01*
X-14818908Y-27463326D01*
X-14818927Y-27463347D01*
X-14958609Y-27645384D01*
X-14958614Y-27645391D01*
X-15073338Y-27844099D01*
X-15073343Y-27844110D01*
X-15161158Y-28056113D01*
X-15220550Y-28277768D01*
X-15250500Y-28505263D01*
X-54000000Y-28505263D01*
X-54000000Y-24798713D01*
X-41870500Y-24798713D01*
X-41870500Y-25011287D01*
X-41837246Y-25221243D01*
X-41771557Y-25423412D01*
X-41675051Y-25612816D01*
X-41550104Y-25784792D01*
X-41550102Y-25784794D01*
X-41550100Y-25784797D01*
X-41399798Y-25935099D01*
X-41399795Y-25935101D01*
X-41399792Y-25935104D01*
X-41227816Y-26060051D01*
X-41038412Y-26156557D01*
X-40836243Y-26222246D01*
X-40626287Y-26255500D01*
X-40626284Y-26255500D01*
X-40413716Y-26255500D01*
X-40413713Y-26255500D01*
X-40203757Y-26222246D01*
X-40001588Y-26156557D01*
X-39812184Y-26060051D01*
X-39640208Y-25935104D01*
X-39489896Y-25784792D01*
X-39364949Y-25612816D01*
X-39268443Y-25423412D01*
X-39202754Y-25221243D01*
X-39169500Y-25011287D01*
X-39169500Y-24798713D01*
X-39202754Y-24588757D01*
X-39268443Y-24386588D01*
X-39364949Y-24197184D01*
X-39489896Y-24025208D01*
X-39489899Y-24025205D01*
X-39489901Y-24025202D01*
X-39640203Y-23874900D01*
X-39640206Y-23874898D01*
X-39640208Y-23874896D01*
X-39812184Y-23749949D01*
X-40001588Y-23653443D01*
X-40203757Y-23587754D01*
X-40413713Y-23554500D01*
X-40626287Y-23554500D01*
X-40836243Y-23587754D01*
X-40836246Y-23587754D01*
X-40836247Y-23587755D01*
X-41038412Y-23653443D01*
X-41038414Y-23653444D01*
X-41227820Y-23749951D01*
X-41399795Y-23874898D01*
X-41399798Y-23874900D01*
X-41550100Y-24025202D01*
X-41550102Y-24025205D01*
X-41675049Y-24197180D01*
X-41675051Y-24197184D01*
X-41771557Y-24386588D01*
X-41837246Y-24588757D01*
X-41870500Y-24798713D01*
X-54000000Y-24798713D01*
X-54000000Y-22893713D01*
X-46950500Y-22893713D01*
X-46950500Y-23106287D01*
X-46917246Y-23316243D01*
X-46851557Y-23518412D01*
X-46755051Y-23707816D01*
X-46630104Y-23879792D01*
X-46630102Y-23879794D01*
X-46630100Y-23879797D01*
X-46479798Y-24030099D01*
X-46479795Y-24030101D01*
X-46479792Y-24030104D01*
X-46307816Y-24155051D01*
X-46118412Y-24251557D01*
X-45916243Y-24317246D01*
X-45706287Y-24350500D01*
X-45706284Y-24350500D01*
X-45493716Y-24350500D01*
X-45493713Y-24350500D01*
X-45283757Y-24317246D01*
X-45081588Y-24251557D01*
X-44892184Y-24155051D01*
X-44720208Y-24030104D01*
X-44569896Y-23879792D01*
X-44444949Y-23707816D01*
X-44348443Y-23518412D01*
X-44282754Y-23316243D01*
X-44249500Y-23106287D01*
X-44249500Y-22893713D01*
X-44282754Y-22683757D01*
X-44348443Y-22481588D01*
X-44444949Y-22292184D01*
X-44569896Y-22120208D01*
X-44569899Y-22120205D01*
X-44569901Y-22120202D01*
X-44720203Y-21969900D01*
X-44720206Y-21969898D01*
X-44720208Y-21969896D01*
X-44892184Y-21844949D01*
X-45081588Y-21748443D01*
X-45283757Y-21682754D01*
X-45493713Y-21649500D01*
X-45706287Y-21649500D01*
X-45916243Y-21682754D01*
X-45916246Y-21682754D01*
X-45916247Y-21682755D01*
X-46118412Y-21748443D01*
X-46118414Y-21748444D01*
X-46307820Y-21844951D01*
X-46479795Y-21969898D01*
X-46479798Y-21969900D01*
X-46630100Y-22120202D01*
X-46630102Y-22120205D01*
X-46755049Y-22292180D01*
X-46755051Y-22292184D01*
X-46851557Y-22481588D01*
X-46917246Y-22683757D01*
X-46950500Y-22893713D01*
X-54000000Y-22893713D01*
X-54000000Y-20988713D01*
X-41870500Y-20988713D01*
X-41870500Y-21201287D01*
X-41837246Y-21411243D01*
X-41771557Y-21613412D01*
X-41675051Y-21802816D01*
X-41550104Y-21974792D01*
X-41550102Y-21974794D01*
X-41550100Y-21974797D01*
X-41399798Y-22125099D01*
X-41399795Y-22125101D01*
X-41399792Y-22125104D01*
X-41227816Y-22250051D01*
X-41038412Y-22346557D01*
X-40836243Y-22412246D01*
X-40626287Y-22445500D01*
X-40626284Y-22445500D01*
X-40413716Y-22445500D01*
X-40413713Y-22445500D01*
X-40203757Y-22412246D01*
X-40001588Y-22346557D01*
X-39812184Y-22250051D01*
X-39640208Y-22125104D01*
X-39489896Y-21974792D01*
X-39364949Y-21802816D01*
X-39268443Y-21613412D01*
X-39202754Y-21411243D01*
X-39169500Y-21201287D01*
X-39169500Y-20988713D01*
X-39202754Y-20778757D01*
X-39268443Y-20576588D01*
X-39364949Y-20387184D01*
X-39489896Y-20215208D01*
X-39489899Y-20215205D01*
X-39489901Y-20215202D01*
X-39640203Y-20064900D01*
X-39640206Y-20064898D01*
X-39640208Y-20064896D01*
X-39769666Y-19970840D01*
X-39812181Y-19939951D01*
X-39812182Y-19939950D01*
X-39812184Y-19939949D01*
X-40001588Y-19843443D01*
X-40203757Y-19777754D01*
X-40413713Y-19744500D01*
X-40626287Y-19744500D01*
X-40836243Y-19777754D01*
X-40836246Y-19777754D01*
X-40836247Y-19777755D01*
X-41038412Y-19843443D01*
X-41038414Y-19843444D01*
X-41227820Y-19939951D01*
X-41399795Y-20064898D01*
X-41399798Y-20064900D01*
X-41550100Y-20215202D01*
X-41550102Y-20215205D01*
X-41675049Y-20387180D01*
X-41771556Y-20576586D01*
X-41771557Y-20576588D01*
X-41805220Y-20680193D01*
X-41837246Y-20778757D01*
X-41870500Y-20988713D01*
X-54000000Y-20988713D01*
X-54000000Y-19063451D01*
X-47208000Y-19063451D01*
X-47208000Y-19316548D01*
X-47168404Y-19566546D01*
X-47090194Y-19807253D01*
X-47090191Y-19807259D01*
X-46975283Y-20032779D01*
X-46902361Y-20133148D01*
X-46902359Y-20133148D01*
X-46202699Y-19433488D01*
X-46176022Y-19497890D01*
X-46104888Y-19604351D01*
X-46014351Y-19694888D01*
X-45907890Y-19766022D01*
X-45843490Y-19792698D01*
X-46543150Y-20492357D01*
X-46543150Y-20492359D01*
X-46442780Y-20565282D01*
X-46217260Y-20680190D01*
X-46217254Y-20680193D01*
X-45976546Y-20758403D01*
X-45976549Y-20758403D01*
X-45726549Y-20798000D01*
X-45473451Y-20798000D01*
X-45223454Y-20758403D01*
X-44982747Y-20680193D01*
X-44982741Y-20680190D01*
X-44757225Y-20565284D01*
X-44656852Y-20492358D01*
X-44656852Y-20492357D01*
X-45356511Y-19792698D01*
X-45292110Y-19766022D01*
X-45185649Y-19694888D01*
X-45095112Y-19604351D01*
X-45023978Y-19497890D01*
X-44997302Y-19433489D01*
X-44297643Y-20133148D01*
X-44297642Y-20133148D01*
X-44224716Y-20032775D01*
X-44109810Y-19807259D01*
X-44109807Y-19807253D01*
X-44031597Y-19566546D01*
X-43992000Y-19316548D01*
X-43992000Y-19063451D01*
X-44031597Y-18813453D01*
X-44108008Y-18578285D01*
X-44108011Y-18578275D01*
X-44109810Y-18572740D01*
X-44224718Y-18347220D01*
X-44297641Y-18246850D01*
X-44297643Y-18246850D01*
X-44997303Y-18946509D01*
X-45023978Y-18882110D01*
X-45095112Y-18775649D01*
X-45185649Y-18685112D01*
X-45292110Y-18613978D01*
X-45356512Y-18587301D01*
X-44656852Y-17887641D01*
X-44656852Y-17887639D01*
X-44757221Y-17814717D01*
X-44982741Y-17699809D01*
X-44982747Y-17699806D01*
X-45223455Y-17621596D01*
X-45223452Y-17621596D01*
X-45473451Y-17582000D01*
X-45726549Y-17582000D01*
X-45976547Y-17621596D01*
X-46217254Y-17699806D01*
X-46217260Y-17699809D01*
X-46442775Y-17814714D01*
X-46442776Y-17814715D01*
X-46543150Y-17887640D01*
X-46543150Y-17887641D01*
X-45843490Y-18587301D01*
X-45907890Y-18613978D01*
X-46014351Y-18685112D01*
X-46104888Y-18775649D01*
X-46176022Y-18882110D01*
X-46202699Y-18946510D01*
X-46902359Y-18246850D01*
X-46902360Y-18246850D01*
X-46975285Y-18347224D01*
X-46975286Y-18347225D01*
X-47090191Y-18572740D01*
X-47090194Y-18572746D01*
X-47168404Y-18813453D01*
X-47208000Y-19063451D01*
X-54000000Y-19063451D01*
X-54000000Y-17158451D01*
X-42128000Y-17158451D01*
X-42128000Y-17411548D01*
X-42088404Y-17661546D01*
X-42010194Y-17902253D01*
X-42010191Y-17902259D01*
X-41895283Y-18127779D01*
X-41822361Y-18228148D01*
X-41822359Y-18228148D01*
X-41122699Y-17528488D01*
X-41096022Y-17592890D01*
X-41024888Y-17699351D01*
X-40934351Y-17789888D01*
X-40827890Y-17861022D01*
X-40763490Y-17887698D01*
X-41463150Y-18587357D01*
X-41463150Y-18587359D01*
X-41362780Y-18660282D01*
X-41137260Y-18775190D01*
X-41137254Y-18775193D01*
X-40896546Y-18853403D01*
X-40896549Y-18853403D01*
X-40646549Y-18893000D01*
X-40393451Y-18893000D01*
X-40143454Y-18853403D01*
X-39902747Y-18775193D01*
X-39902741Y-18775190D01*
X-39677225Y-18660284D01*
X-39576852Y-18587358D01*
X-39576852Y-18587357D01*
X-40276511Y-17887698D01*
X-40212110Y-17861022D01*
X-40105649Y-17789888D01*
X-40015112Y-17699351D01*
X-39943978Y-17592890D01*
X-39917302Y-17528489D01*
X-39217643Y-18228148D01*
X-39217642Y-18228148D01*
X-39144716Y-18127775D01*
X-39029810Y-17902259D01*
X-39029807Y-17902253D01*
X-38951597Y-17661546D01*
X-38912000Y-17411548D01*
X-38912000Y-17158451D01*
X-38951597Y-16908453D01*
X-39029807Y-16667746D01*
X-39029810Y-16667740D01*
X-39144718Y-16442220D01*
X-39217641Y-16341850D01*
X-39217643Y-16341850D01*
X-39917303Y-17041509D01*
X-39943978Y-16977110D01*
X-40015112Y-16870649D01*
X-40105649Y-16780112D01*
X-40212110Y-16708978D01*
X-40276512Y-16682301D01*
X-39576852Y-15982641D01*
X-39576852Y-15982639D01*
X-39677221Y-15909717D01*
X-39902741Y-15794809D01*
X-39902747Y-15794806D01*
X-40143455Y-15716596D01*
X-40143452Y-15716596D01*
X-40393451Y-15677000D01*
X-40646549Y-15677000D01*
X-40896547Y-15716596D01*
X-41137254Y-15794806D01*
X-41137260Y-15794809D01*
X-41362775Y-15909714D01*
X-41362776Y-15909715D01*
X-41463150Y-15982640D01*
X-41463150Y-15982641D01*
X-40763490Y-16682301D01*
X-40827890Y-16708978D01*
X-40934351Y-16780112D01*
X-41024888Y-16870649D01*
X-41096022Y-16977110D01*
X-41122699Y-17041510D01*
X-41822359Y-16341850D01*
X-41822360Y-16341850D01*
X-41895285Y-16442224D01*
X-41895286Y-16442225D01*
X-42010191Y-16667740D01*
X-42010194Y-16667746D01*
X-42088404Y-16908453D01*
X-42128000Y-17158451D01*
X-54000000Y-17158451D01*
X-54000000Y-15273713D01*
X-46950500Y-15273713D01*
X-46950500Y-15486287D01*
X-46917246Y-15696243D01*
X-46851557Y-15898412D01*
X-46755051Y-16087816D01*
X-46630104Y-16259792D01*
X-46630102Y-16259794D01*
X-46630100Y-16259797D01*
X-46479798Y-16410099D01*
X-46479795Y-16410101D01*
X-46479792Y-16410104D01*
X-46307816Y-16535051D01*
X-46118412Y-16631557D01*
X-45916243Y-16697246D01*
X-45706287Y-16730500D01*
X-45706284Y-16730500D01*
X-45493716Y-16730500D01*
X-45493713Y-16730500D01*
X-45283757Y-16697246D01*
X-45081588Y-16631557D01*
X-44892184Y-16535051D01*
X-44720208Y-16410104D01*
X-44569896Y-16259792D01*
X-44444949Y-16087816D01*
X-44348443Y-15898412D01*
X-44282754Y-15696243D01*
X-44249500Y-15486287D01*
X-44249500Y-15485263D01*
X-15250500Y-15485263D01*
X-15250500Y-15714736D01*
X-15220550Y-15942231D01*
X-15209723Y-15982639D01*
X-15161158Y-16163887D01*
X-15073344Y-16375888D01*
X-15073343Y-16375889D01*
X-15073338Y-16375900D01*
X-14958614Y-16574608D01*
X-14958609Y-16574615D01*
X-14818927Y-16756652D01*
X-14818908Y-16756673D01*
X-14656674Y-16918907D01*
X-14656653Y-16918926D01*
X-14474616Y-17058608D01*
X-14474609Y-17058613D01*
X-14275901Y-17173337D01*
X-14275897Y-17173338D01*
X-14275888Y-17173344D01*
X-14063887Y-17261158D01*
X-13842238Y-17320548D01*
X-13842234Y-17320548D01*
X-13842232Y-17320549D01*
X-13783602Y-17328267D01*
X-13614734Y-17350500D01*
X-13614727Y-17350500D01*
X-13385273Y-17350500D01*
X-13385266Y-17350500D01*
X-13179655Y-17323430D01*
X-13157769Y-17320549D01*
X-13157769Y-17320548D01*
X-13157762Y-17320548D01*
X-12936113Y-17261158D01*
X-12724112Y-17173344D01*
X-12525388Y-17058611D01*
X-12343339Y-16918919D01*
X-12181081Y-16756661D01*
X-12041389Y-16574612D01*
X-11926656Y-16375888D01*
X-11838842Y-16163887D01*
X-11779452Y-15942238D01*
X-11749500Y-15714734D01*
X-11749500Y-15485266D01*
X-11767835Y-15346000D01*
X-10991887Y-15346000D01*
X-9650000Y-15346000D01*
X-9650000Y-15854000D01*
X-10991887Y-15854000D01*
X-10973645Y-15992574D01*
X-10973644Y-15992577D01*
X-10905516Y-16246835D01*
X-10804784Y-16490023D01*
X-10804779Y-16490034D01*
X-10673177Y-16717975D01*
X-10512934Y-16926807D01*
X-10512925Y-16926818D01*
X-10326819Y-17112924D01*
X-10326808Y-17112933D01*
X-10117976Y-17273176D01*
X-9890035Y-17404778D01*
X-9890024Y-17404783D01*
X-9646836Y-17505515D01*
X-9392578Y-17573643D01*
X-9392575Y-17573644D01*
X-9254000Y-17591887D01*
X-9254000Y-16798344D01*
X-9189598Y-16825021D01*
X-9064019Y-16850000D01*
X-8935981Y-16850000D01*
X-8810402Y-16825021D01*
X-8746000Y-16798344D01*
X-8746000Y-17591887D01*
X-8607426Y-17573644D01*
X-8607423Y-17573643D01*
X-8353165Y-17505515D01*
X-8109977Y-17404783D01*
X-8109966Y-17404778D01*
X-7882025Y-17273176D01*
X-7673193Y-17112933D01*
X-7673182Y-17112924D01*
X-7487076Y-16926818D01*
X-7487067Y-16926807D01*
X-7326824Y-16717975D01*
X-7195222Y-16490034D01*
X-7195217Y-16490023D01*
X-7094485Y-16246835D01*
X-7026357Y-15992577D01*
X-7026356Y-15992574D01*
X-7008113Y-15854000D01*
X-8350000Y-15854000D01*
X-8350000Y-15346000D01*
X-7008113Y-15346000D01*
X-7026356Y-15207425D01*
X-7026357Y-15207422D01*
X-7094485Y-14953164D01*
X-7195217Y-14709976D01*
X-7195222Y-14709965D01*
X-7326824Y-14482024D01*
X-7487067Y-14273192D01*
X-7487076Y-14273181D01*
X-7673182Y-14087075D01*
X-7673193Y-14087066D01*
X-7882025Y-13926823D01*
X-8109966Y-13795221D01*
X-8109977Y-13795216D01*
X-8353165Y-13694484D01*
X-8607426Y-13626355D01*
X-8746000Y-13608111D01*
X-8746000Y-14401655D01*
X-8810402Y-14374979D01*
X-8935981Y-14350000D01*
X-9064019Y-14350000D01*
X-9189598Y-14374979D01*
X-9254000Y-14401655D01*
X-9254000Y-13608112D01*
X-9254001Y-13608111D01*
X-9392575Y-13626355D01*
X-9646836Y-13694484D01*
X-9890024Y-13795216D01*
X-9890035Y-13795221D01*
X-10117976Y-13926823D01*
X-10326808Y-14087066D01*
X-10326819Y-14087075D01*
X-10512925Y-14273181D01*
X-10512934Y-14273192D01*
X-10673177Y-14482024D01*
X-10804779Y-14709965D01*
X-10804784Y-14709976D01*
X-10905516Y-14953164D01*
X-10973644Y-15207422D01*
X-10973645Y-15207425D01*
X-10991887Y-15346000D01*
X-11767835Y-15346000D01*
X-11777352Y-15273716D01*
X-11779451Y-15257769D01*
X-11779452Y-15257768D01*
X-11779452Y-15257762D01*
X-11838842Y-15036113D01*
X-11926656Y-14824112D01*
X-11926662Y-14824103D01*
X-11926663Y-14824099D01*
X-12041387Y-14625391D01*
X-12041392Y-14625384D01*
X-12181074Y-14443347D01*
X-12181093Y-14443326D01*
X-12343327Y-14281092D01*
X-12343348Y-14281073D01*
X-12525385Y-14141391D01*
X-12525392Y-14141386D01*
X-12724100Y-14026662D01*
X-12724108Y-14026658D01*
X-12724112Y-14026656D01*
X-12936113Y-13938842D01*
X-13157762Y-13879452D01*
X-13157769Y-13879450D01*
X-13385264Y-13849500D01*
X-13385266Y-13849500D01*
X-13614734Y-13849500D01*
X-13614737Y-13849500D01*
X-13842232Y-13879450D01*
X-14019031Y-13926823D01*
X-14063887Y-13938842D01*
X-14195632Y-13993413D01*
X-14275890Y-14026657D01*
X-14275901Y-14026662D01*
X-14474609Y-14141386D01*
X-14474616Y-14141391D01*
X-14656653Y-14281073D01*
X-14656674Y-14281092D01*
X-14818908Y-14443326D01*
X-14818927Y-14443347D01*
X-14958609Y-14625384D01*
X-14958614Y-14625391D01*
X-15073338Y-14824099D01*
X-15073343Y-14824110D01*
X-15161158Y-15036113D01*
X-15220550Y-15257768D01*
X-15250500Y-15485263D01*
X-44249500Y-15485263D01*
X-44249500Y-15273713D01*
X-44282754Y-15063757D01*
X-44348443Y-14861588D01*
X-44444949Y-14672184D01*
X-44569896Y-14500208D01*
X-44569899Y-14500205D01*
X-44569901Y-14500202D01*
X-44720203Y-14349900D01*
X-44720206Y-14349898D01*
X-44720208Y-14349896D01*
X-44892184Y-14224949D01*
X-45081588Y-14128443D01*
X-45283757Y-14062754D01*
X-45493713Y-14029500D01*
X-45706287Y-14029500D01*
X-45916243Y-14062754D01*
X-45916246Y-14062754D01*
X-45916247Y-14062755D01*
X-46118412Y-14128443D01*
X-46118414Y-14128444D01*
X-46307820Y-14224951D01*
X-46479795Y-14349898D01*
X-46479798Y-14349900D01*
X-46630100Y-14500202D01*
X-46630102Y-14500205D01*
X-46755049Y-14672180D01*
X-46755051Y-14672184D01*
X-46851557Y-14861588D01*
X-46917246Y-15063757D01*
X-46950500Y-15273713D01*
X-54000000Y-15273713D01*
X-54000000Y-11465112D01*
X-53158000Y-11465112D01*
X-53158000Y-11774887D01*
X-53123317Y-12082713D01*
X-53054385Y-12384721D01*
X-52952082Y-12677086D01*
X-52952071Y-12677113D01*
X-52817673Y-12956194D01*
X-52817668Y-12956203D01*
X-52652861Y-13218490D01*
X-52521910Y-13382697D01*
X-52521909Y-13382697D01*
X-51696633Y-12557421D01*
X-51620412Y-12662330D01*
X-51442330Y-12840412D01*
X-51337424Y-12916631D01*
X-52162699Y-13741907D01*
X-52162699Y-13741908D01*
X-51998488Y-13872863D01*
X-51736204Y-14037667D01*
X-51736195Y-14037672D01*
X-51457114Y-14172070D01*
X-51457087Y-14172081D01*
X-51164722Y-14274384D01*
X-50862713Y-14343316D01*
X-50862715Y-14343316D01*
X-50554888Y-14378000D01*
X-50245112Y-14378000D01*
X-49937287Y-14343316D01*
X-49635279Y-14274384D01*
X-49342914Y-14172081D01*
X-49342887Y-14172070D01*
X-49063806Y-14037672D01*
X-49063797Y-14037667D01*
X-48801513Y-13872863D01*
X-48637302Y-13741908D01*
X-49462578Y-12916631D01*
X-49357670Y-12840412D01*
X-49179588Y-12662330D01*
X-49103368Y-12557422D01*
X-48278092Y-13382698D01*
X-48266939Y-13368713D01*
X-41870500Y-13368713D01*
X-41870500Y-13581287D01*
X-41837246Y-13791243D01*
X-41771557Y-13993412D01*
X-41675051Y-14182816D01*
X-41550104Y-14354792D01*
X-41550102Y-14354794D01*
X-41550100Y-14354797D01*
X-41399798Y-14505099D01*
X-41399795Y-14505101D01*
X-41399792Y-14505104D01*
X-41227816Y-14630051D01*
X-41038412Y-14726557D01*
X-40836243Y-14792246D01*
X-40626287Y-14825500D01*
X-40626284Y-14825500D01*
X-40413716Y-14825500D01*
X-40413713Y-14825500D01*
X-40203757Y-14792246D01*
X-40001588Y-14726557D01*
X-39812184Y-14630051D01*
X-39640208Y-14505104D01*
X-39489896Y-14354792D01*
X-39364949Y-14182816D01*
X-39268443Y-13993412D01*
X-39202754Y-13791243D01*
X-39169500Y-13581287D01*
X-39169500Y-13368713D01*
X-39202754Y-13158757D01*
X-39268443Y-12956588D01*
X-39364949Y-12767184D01*
X-39489896Y-12595208D01*
X-39489899Y-12595205D01*
X-39489901Y-12595202D01*
X-39640203Y-12444900D01*
X-39640206Y-12444898D01*
X-39640208Y-12444896D01*
X-39812184Y-12319949D01*
X-40001588Y-12223443D01*
X-40203757Y-12157754D01*
X-40413713Y-12124500D01*
X-40626287Y-12124500D01*
X-40836243Y-12157754D01*
X-40836246Y-12157754D01*
X-40836247Y-12157755D01*
X-41038412Y-12223443D01*
X-41038414Y-12223444D01*
X-41227820Y-12319951D01*
X-41399795Y-12444898D01*
X-41399798Y-12444900D01*
X-41550100Y-12595202D01*
X-41550102Y-12595205D01*
X-41675049Y-12767180D01*
X-41675051Y-12767184D01*
X-41771557Y-12956588D01*
X-41837246Y-13158757D01*
X-41870500Y-13368713D01*
X-48266939Y-13368713D01*
X-48200341Y-13285202D01*
X-48200339Y-13285200D01*
X-48147141Y-13218492D01*
X-47982333Y-12956203D01*
X-47982328Y-12956194D01*
X-47847930Y-12677113D01*
X-47847919Y-12677086D01*
X-47745616Y-12384721D01*
X-47676684Y-12082713D01*
X-47642000Y-11774887D01*
X-47642000Y-11465112D01*
X-47642158Y-11463713D01*
X-46950500Y-11463713D01*
X-46950500Y-11676287D01*
X-46917246Y-11886243D01*
X-46851557Y-12088412D01*
X-46755051Y-12277816D01*
X-46630104Y-12449792D01*
X-46630102Y-12449794D01*
X-46630100Y-12449797D01*
X-46479798Y-12600099D01*
X-46479795Y-12600101D01*
X-46479792Y-12600104D01*
X-46307816Y-12725051D01*
X-46118412Y-12821557D01*
X-45916243Y-12887246D01*
X-45706287Y-12920500D01*
X-45706284Y-12920500D01*
X-45493716Y-12920500D01*
X-45493713Y-12920500D01*
X-45283757Y-12887246D01*
X-45081588Y-12821557D01*
X-44892184Y-12725051D01*
X-44720208Y-12600104D01*
X-44569896Y-12449792D01*
X-44444949Y-12277816D01*
X-44348443Y-12088412D01*
X-44282754Y-11886243D01*
X-44249500Y-11676287D01*
X-44249500Y-11463713D01*
X-44282754Y-11253757D01*
X-44348443Y-11051588D01*
X-44444949Y-10862184D01*
X-44569896Y-10690208D01*
X-44569899Y-10690205D01*
X-44569901Y-10690202D01*
X-44720203Y-10539900D01*
X-44720206Y-10539898D01*
X-44720208Y-10539896D01*
X-44892184Y-10414949D01*
X-45081588Y-10318443D01*
X-45283757Y-10252754D01*
X-45493713Y-10219500D01*
X-45706287Y-10219500D01*
X-45916243Y-10252754D01*
X-45916246Y-10252754D01*
X-45916247Y-10252755D01*
X-46118412Y-10318443D01*
X-46118414Y-10318444D01*
X-46307820Y-10414951D01*
X-46479795Y-10539898D01*
X-46479798Y-10539900D01*
X-46630100Y-10690202D01*
X-46630102Y-10690205D01*
X-46755049Y-10862180D01*
X-46851556Y-11051586D01*
X-46851557Y-11051588D01*
X-46913983Y-11243716D01*
X-46917246Y-11253757D01*
X-46950500Y-11463713D01*
X-47642158Y-11463713D01*
X-47676684Y-11157286D01*
X-47745616Y-10855278D01*
X-47847919Y-10562913D01*
X-47847930Y-10562886D01*
X-47982328Y-10283805D01*
X-47982333Y-10283796D01*
X-48147137Y-10021512D01*
X-48278092Y-9857301D01*
X-48278093Y-9857301D01*
X-49103369Y-10682576D01*
X-49179588Y-10577670D01*
X-49357670Y-10399588D01*
X-49462579Y-10323367D01*
X-48677663Y-9538451D01*
X-42128000Y-9538451D01*
X-42128000Y-9791548D01*
X-42088404Y-10041546D01*
X-42010194Y-10282253D01*
X-42010191Y-10282259D01*
X-41895283Y-10507779D01*
X-41822361Y-10608148D01*
X-41822359Y-10608148D01*
X-41122699Y-9908488D01*
X-41096022Y-9972890D01*
X-41024888Y-10079351D01*
X-40934351Y-10169888D01*
X-40827890Y-10241022D01*
X-40763490Y-10267698D01*
X-41463150Y-10967357D01*
X-41463150Y-10967359D01*
X-41362780Y-11040282D01*
X-41137260Y-11155190D01*
X-41137254Y-11155193D01*
X-40896546Y-11233403D01*
X-40896549Y-11233403D01*
X-40646549Y-11273000D01*
X-40393451Y-11273000D01*
X-40143454Y-11233403D01*
X-39902747Y-11155193D01*
X-39902741Y-11155190D01*
X-39677225Y-11040284D01*
X-39576852Y-10967358D01*
X-39576852Y-10967357D01*
X-40276511Y-10267698D01*
X-40212110Y-10241022D01*
X-40105649Y-10169888D01*
X-40015112Y-10079351D01*
X-39943978Y-9972890D01*
X-39917302Y-9908489D01*
X-39217643Y-10608148D01*
X-39217642Y-10608148D01*
X-39144716Y-10507775D01*
X-39029810Y-10282259D01*
X-39029807Y-10282253D01*
X-38951597Y-10041546D01*
X-38912000Y-9791548D01*
X-38912000Y-9538451D01*
X-38951597Y-9288453D01*
X-39029807Y-9047746D01*
X-39029810Y-9047740D01*
X-39144718Y-8822220D01*
X-39217641Y-8721850D01*
X-39217643Y-8721850D01*
X-39917303Y-9421509D01*
X-39943978Y-9357110D01*
X-40015112Y-9250649D01*
X-40105649Y-9160112D01*
X-40212110Y-9088978D01*
X-40276512Y-9062301D01*
X-39576852Y-8362641D01*
X-39576852Y-8362639D01*
X-39677221Y-8289717D01*
X-39902741Y-8174809D01*
X-39902747Y-8174806D01*
X-40143455Y-8096596D01*
X-40143452Y-8096596D01*
X-40393451Y-8057000D01*
X-40646549Y-8057000D01*
X-40896547Y-8096596D01*
X-41137254Y-8174806D01*
X-41137260Y-8174809D01*
X-41362775Y-8289714D01*
X-41362776Y-8289715D01*
X-41463150Y-8362640D01*
X-41463150Y-8362641D01*
X-40763490Y-9062301D01*
X-40827890Y-9088978D01*
X-40934351Y-9160112D01*
X-41024888Y-9250649D01*
X-41096022Y-9357110D01*
X-41122699Y-9421510D01*
X-41822359Y-8721850D01*
X-41822360Y-8721850D01*
X-41895285Y-8822224D01*
X-41895286Y-8822225D01*
X-42010191Y-9047740D01*
X-42010194Y-9047746D01*
X-42088404Y-9288453D01*
X-42128000Y-9538451D01*
X-48677663Y-9538451D01*
X-48637303Y-9498091D01*
X-48637303Y-9498090D01*
X-48801510Y-9367139D01*
X-49063797Y-9202332D01*
X-49063806Y-9202327D01*
X-49342887Y-9067929D01*
X-49342914Y-9067918D01*
X-49635279Y-8965615D01*
X-49937288Y-8896683D01*
X-49937286Y-8896683D01*
X-50245112Y-8862000D01*
X-50554888Y-8862000D01*
X-50862714Y-8896683D01*
X-51164722Y-8965615D01*
X-51457087Y-9067918D01*
X-51457114Y-9067929D01*
X-51736195Y-9202327D01*
X-51736204Y-9202332D01*
X-51998491Y-9367139D01*
X-52162699Y-9498089D01*
X-52162699Y-9498091D01*
X-51337423Y-10323367D01*
X-51442330Y-10399588D01*
X-51620412Y-10577670D01*
X-51696633Y-10682577D01*
X-52521909Y-9857301D01*
X-52521911Y-9857301D01*
X-52652861Y-10021509D01*
X-52817668Y-10283796D01*
X-52817673Y-10283805D01*
X-52952071Y-10562886D01*
X-52952082Y-10562913D01*
X-53054385Y-10855278D01*
X-53123317Y-11157286D01*
X-53158000Y-11465112D01*
X-54000000Y-11465112D01*
X-54000000Y-7653713D01*
X-46950500Y-7653713D01*
X-46950500Y-7866287D01*
X-46917246Y-8076243D01*
X-46851557Y-8278412D01*
X-46755051Y-8467816D01*
X-46630104Y-8639792D01*
X-46630102Y-8639794D01*
X-46630100Y-8639797D01*
X-46479798Y-8790099D01*
X-46479795Y-8790101D01*
X-46479792Y-8790104D01*
X-46307816Y-8915051D01*
X-46118412Y-9011557D01*
X-45916243Y-9077246D01*
X-45706287Y-9110500D01*
X-45706284Y-9110500D01*
X-45493716Y-9110500D01*
X-45493713Y-9110500D01*
X-45283757Y-9077246D01*
X-45081588Y-9011557D01*
X-44892184Y-8915051D01*
X-44720208Y-8790104D01*
X-44569896Y-8639792D01*
X-44444949Y-8467816D01*
X-44348443Y-8278412D01*
X-44282754Y-8076243D01*
X-44249500Y-7866287D01*
X-44249500Y-7653713D01*
X-44282754Y-7443757D01*
X-44348443Y-7241588D01*
X-44444949Y-7052184D01*
X-44569896Y-6880208D01*
X-44569899Y-6880205D01*
X-44569901Y-6880202D01*
X-44720203Y-6729900D01*
X-44720206Y-6729898D01*
X-44720208Y-6729896D01*
X-44892184Y-6604949D01*
X-45081588Y-6508443D01*
X-45283757Y-6442754D01*
X-45493713Y-6409500D01*
X-45706287Y-6409500D01*
X-45916243Y-6442754D01*
X-45916246Y-6442754D01*
X-45916247Y-6442755D01*
X-46118412Y-6508443D01*
X-46118414Y-6508444D01*
X-46307820Y-6604951D01*
X-46479795Y-6729898D01*
X-46479798Y-6729900D01*
X-46630100Y-6880202D01*
X-46630102Y-6880205D01*
X-46755049Y-7052180D01*
X-46851556Y-7241586D01*
X-46851557Y-7241588D01*
X-46895227Y-7375991D01*
X-46917246Y-7443757D01*
X-46950500Y-7653713D01*
X-54000000Y-7653713D01*
X-54000000Y-4159814D01*
X-53979998Y-4091693D01*
X-53926342Y-4045200D01*
X-53856068Y-4035096D01*
X-53791488Y-4064590D01*
X-53769238Y-4089809D01*
X-53755977Y-4109655D01*
X-53755976Y-4109656D01*
X-53755971Y-4109662D01*
X-53609663Y-4255970D01*
X-53609657Y-4255975D01*
X-53609655Y-4255977D01*
X-53437598Y-4370941D01*
X-53246420Y-4450130D01*
X-53043465Y-4490500D01*
X-53043464Y-4490500D01*
X-52836536Y-4490500D01*
X-52836535Y-4490500D01*
X-52633580Y-4450130D01*
X-52442402Y-4370941D01*
X-52270345Y-4255977D01*
X-52124023Y-4109655D01*
X-52009059Y-3937598D01*
X-51929870Y-3746420D01*
X-51889500Y-3543465D01*
X-51889500Y-3336535D01*
X-51929870Y-3133580D01*
X-52009059Y-2942402D01*
X-52124023Y-2770345D01*
X-52124025Y-2770343D01*
X-52124030Y-2770337D01*
X-52270338Y-2624029D01*
X-52270344Y-2624024D01*
X-52270345Y-2624023D01*
X-52442402Y-2509059D01*
X-52633580Y-2429870D01*
X-52690348Y-2418578D01*
X-52753255Y-2385671D01*
X-52788387Y-2323976D01*
X-52784587Y-2253081D01*
X-52743061Y-2195495D01*
X-52690348Y-2171421D01*
X-52633580Y-2160130D01*
X-52442402Y-2080941D01*
X-52270345Y-1965977D01*
X-52124023Y-1819655D01*
X-52009059Y-1647598D01*
X-51929870Y-1456420D01*
X-51889500Y-1253465D01*
X-51889500Y-1046535D01*
X-51929870Y-843580D01*
X-52009059Y-652402D01*
X-52124023Y-480345D01*
X-52124025Y-480343D01*
X-52124030Y-480337D01*
X-52270338Y-334029D01*
X-52270344Y-334024D01*
X-52311842Y-306296D01*
X-52442402Y-219059D01*
X-52633264Y-140001D01*
X-52633575Y-139872D01*
X-52633580Y-139870D01*
X-52690348Y-128578D01*
X-52753255Y-95671D01*
X-52788387Y-33976D01*
X-52784587Y36919D01*
X-52743061Y94505D01*
X-52690348Y118579D01*
X-52633580Y129870D01*
X-52442402Y209059D01*
X-52270345Y324023D01*
X-52124023Y470345D01*
X-52009059Y642402D01*
X-51929870Y833580D01*
X-51889500Y1036535D01*
X-51889500Y1243465D01*
X-51929870Y1446420D01*
X-52009059Y1637598D01*
X-52124023Y1809655D01*
X-52124025Y1809657D01*
X-52124030Y1809663D01*
X-52270338Y1955971D01*
X-52270344Y1955976D01*
X-52311649Y1983575D01*
X-52442402Y2070941D01*
X-52633580Y2150130D01*
X-52690348Y2161422D01*
X-52753255Y2194329D01*
X-52788387Y2256024D01*
X-52784587Y2326919D01*
X-52743061Y2384505D01*
X-52690348Y2408579D01*
X-52633580Y2419870D01*
X-52442402Y2499059D01*
X-52270345Y2614023D01*
X-52124023Y2760345D01*
X-52009059Y2932402D01*
X-51929870Y3123580D01*
X-51889500Y3326535D01*
X-51889500Y3533465D01*
X-51929870Y3736420D01*
X-52009059Y3927598D01*
X-52124023Y4099655D01*
X-52124025Y4099657D01*
X-52124030Y4099663D01*
X-52270338Y4245971D01*
X-52270344Y4245976D01*
X-52296509Y4263459D01*
X-52442402Y4360941D01*
X-52633580Y4440130D01*
X-52690348Y4451422D01*
X-52753255Y4484329D01*
X-52788387Y4546024D01*
X-52784587Y4616919D01*
X-52743061Y4674505D01*
X-52724594Y4682939D01*
X-51708000Y4682939D01*
X-51708000Y4477062D01*
X-51675792Y4273704D01*
X-51612174Y4077907D01*
X-51612171Y4077901D01*
X-51518703Y3894460D01*
X-51518702Y3894459D01*
X-51487584Y3851628D01*
X-50884159Y4455053D01*
X-50865925Y4387007D01*
X-50800099Y4272993D01*
X-50707007Y4179901D01*
X-50592993Y4114075D01*
X-50524949Y4095843D01*
X-51128374Y3492418D01*
X-51128374Y3492417D01*
X-51085546Y3461301D01*
X-50966367Y3400576D01*
X-50914752Y3351828D01*
X-50897686Y3282913D01*
X-50920587Y3215711D01*
X-50953568Y3183544D01*
X-51016726Y3141343D01*
X-51055402Y3115500D01*
X-51069656Y3105976D01*
X-51069663Y3105971D01*
X-51215971Y2959663D01*
X-51215976Y2959657D01*
X-51330941Y2787598D01*
X-51410128Y2596426D01*
X-51410130Y2596421D01*
X-51450500Y2393468D01*
X-51450500Y2186533D01*
X-51429557Y2081247D01*
X-51410130Y1983580D01*
X-51330941Y1792402D01*
X-51241616Y1658717D01*
X-51215976Y1620344D01*
X-51215971Y1620338D01*
X-51069663Y1474030D01*
X-51069659Y1474027D01*
X-51069655Y1474023D01*
X-50953568Y1396457D01*
X-50908040Y1341980D01*
X-50899192Y1271537D01*
X-50929833Y1207493D01*
X-50966366Y1179426D01*
X-51085545Y1118701D01*
X-51085547Y1118699D01*
X-51128375Y1087584D01*
X-50524949Y484158D01*
X-50592993Y465925D01*
X-50707007Y400099D01*
X-50800099Y307007D01*
X-50865925Y192993D01*
X-50884158Y124949D01*
X-51487584Y728375D01*
X-51518699Y685548D01*
X-51612171Y502100D01*
X-51612174Y502094D01*
X-51675792Y306297D01*
X-51708000Y102939D01*
X-51708000Y-102938D01*
X-51675792Y-306296D01*
X-51612174Y-502093D01*
X-51612171Y-502099D01*
X-51518703Y-685540D01*
X-51518702Y-685541D01*
X-51487584Y-728372D01*
X-50884159Y-124947D01*
X-50865925Y-192993D01*
X-50800099Y-307007D01*
X-50707007Y-400099D01*
X-50592993Y-465925D01*
X-50524949Y-484157D01*
X-51128374Y-1087582D01*
X-51124633Y-1135119D01*
X-51124634Y-1154886D01*
X-51124634Y-1154891D01*
X-51128375Y-1202416D01*
X-50524949Y-1805842D01*
X-50592993Y-1824075D01*
X-50707007Y-1889901D01*
X-50800099Y-1982993D01*
X-50865925Y-2097007D01*
X-50884158Y-2165051D01*
X-51487584Y-1561625D01*
X-51518699Y-1604452D01*
X-51612171Y-1787900D01*
X-51612174Y-1787906D01*
X-51675792Y-1983703D01*
X-51708000Y-2187061D01*
X-51708000Y-2392938D01*
X-51675792Y-2596296D01*
X-51612174Y-2792093D01*
X-51612171Y-2792099D01*
X-51518703Y-2975540D01*
X-51518702Y-2975541D01*
X-51487584Y-3018372D01*
X-50884159Y-2414947D01*
X-50865925Y-2482993D01*
X-50800099Y-2597007D01*
X-50707007Y-2690099D01*
X-50592993Y-2755925D01*
X-50524949Y-2774157D01*
X-51128374Y-3377582D01*
X-51124633Y-3425119D01*
X-51124634Y-3444886D01*
X-51124634Y-3444891D01*
X-51128375Y-3492416D01*
X-50524949Y-4095842D01*
X-50592993Y-4114075D01*
X-50707007Y-4179901D01*
X-50800099Y-4272993D01*
X-50865925Y-4387007D01*
X-50884158Y-4455051D01*
X-51487584Y-3851625D01*
X-51518699Y-3894452D01*
X-51612171Y-4077900D01*
X-51612174Y-4077906D01*
X-51675792Y-4273703D01*
X-51708000Y-4477061D01*
X-51708000Y-4682938D01*
X-51675792Y-4886296D01*
X-51612174Y-5082093D01*
X-51612171Y-5082099D01*
X-51518703Y-5265540D01*
X-51518702Y-5265541D01*
X-51487584Y-5308372D01*
X-50884159Y-4704947D01*
X-50865925Y-4772993D01*
X-50800099Y-4887007D01*
X-50707007Y-4980099D01*
X-50592993Y-5045925D01*
X-50524949Y-5064157D01*
X-51128374Y-5667582D01*
X-51128374Y-5667583D01*
X-51085546Y-5698699D01*
X-50902100Y-5792170D01*
X-50902094Y-5792173D01*
X-50706295Y-5855791D01*
X-50706299Y-5855791D01*
X-50502939Y-5888000D01*
X-50297061Y-5888000D01*
X-50093704Y-5855791D01*
X-49897907Y-5792173D01*
X-49897901Y-5792170D01*
X-49812612Y-5748713D01*
X-41870500Y-5748713D01*
X-41870500Y-5961287D01*
X-41837246Y-6171243D01*
X-41771557Y-6373412D01*
X-41675051Y-6562816D01*
X-41550104Y-6734792D01*
X-41550102Y-6734794D01*
X-41550100Y-6734797D01*
X-41399798Y-6885099D01*
X-41399795Y-6885101D01*
X-41399792Y-6885104D01*
X-41227816Y-7010051D01*
X-41038412Y-7106557D01*
X-40836243Y-7172246D01*
X-40626287Y-7205500D01*
X-40626284Y-7205500D01*
X-40413716Y-7205500D01*
X-40413713Y-7205500D01*
X-40203757Y-7172246D01*
X-40001588Y-7106557D01*
X-39812184Y-7010051D01*
X-39640208Y-6885104D01*
X-39489896Y-6734792D01*
X-39451474Y-6681908D01*
X-10500500Y-6681908D01*
X-10500500Y-6918092D01*
X-10463553Y-7151368D01*
X-10390568Y-7375992D01*
X-10390567Y-7375993D01*
X-10283341Y-7586436D01*
X-10144516Y-7777512D01*
X-9977513Y-7944515D01*
X-9977510Y-7944517D01*
X-9786433Y-8083343D01*
X-9575992Y-8190568D01*
X-9351368Y-8263553D01*
X-9118092Y-8300500D01*
X-9118089Y-8300500D01*
X-8881911Y-8300500D01*
X-8881908Y-8300500D01*
X-8648632Y-8263553D01*
X-8424008Y-8190568D01*
X-8213567Y-8083343D01*
X-8022490Y-7944517D01*
X-7855483Y-7777510D01*
X-7716657Y-7586433D01*
X-7609432Y-7375992D01*
X-7536447Y-7151368D01*
X-7499500Y-6918092D01*
X-7499500Y-6681908D01*
X-7536447Y-6448632D01*
X-7609432Y-6224008D01*
X-7716657Y-6013567D01*
X-7855483Y-5822490D01*
X-7855485Y-5822487D01*
X-8022488Y-5655484D01*
X-8213564Y-5516659D01*
X-8213565Y-5516658D01*
X-8213567Y-5516657D01*
X-8424008Y-5409432D01*
X-8648632Y-5336447D01*
X-8881908Y-5299500D01*
X-9118092Y-5299500D01*
X-9351368Y-5336447D01*
X-9351371Y-5336447D01*
X-9351372Y-5336448D01*
X-9575992Y-5409432D01*
X-9575994Y-5409433D01*
X-9786437Y-5516659D01*
X-9977513Y-5655484D01*
X-10144516Y-5822487D01*
X-10283341Y-6013563D01*
X-10390567Y-6224006D01*
X-10390568Y-6224008D01*
X-10461643Y-6442755D01*
X-10463553Y-6448632D01*
X-10500500Y-6681908D01*
X-39451474Y-6681908D01*
X-39364949Y-6562816D01*
X-39268443Y-6373412D01*
X-39202754Y-6171243D01*
X-39169500Y-5961287D01*
X-39169500Y-5748713D01*
X-39202754Y-5538757D01*
X-39268443Y-5336588D01*
X-39364949Y-5147184D01*
X-39489896Y-4975208D01*
X-39489899Y-4975205D01*
X-39489901Y-4975202D01*
X-39640203Y-4824900D01*
X-39640206Y-4824898D01*
X-39640208Y-4824896D01*
X-39812184Y-4699949D01*
X-40001588Y-4603443D01*
X-40203757Y-4537754D01*
X-40413713Y-4504500D01*
X-40626287Y-4504500D01*
X-40836243Y-4537754D01*
X-40836246Y-4537754D01*
X-40836247Y-4537755D01*
X-41038412Y-4603443D01*
X-41038414Y-4603444D01*
X-41227820Y-4699951D01*
X-41399795Y-4824898D01*
X-41399798Y-4824900D01*
X-41550100Y-4975202D01*
X-41550102Y-4975205D01*
X-41675049Y-5147180D01*
X-41771556Y-5336586D01*
X-41771557Y-5336588D01*
X-41830065Y-5516657D01*
X-41837246Y-5538757D01*
X-41870500Y-5748713D01*
X-49812612Y-5748713D01*
X-49714459Y-5698701D01*
X-49671628Y-5667582D01*
X-49671628Y-5667581D01*
X-50275052Y-5064157D01*
X-50207007Y-5045925D01*
X-50092993Y-4980099D01*
X-49999901Y-4887007D01*
X-49934075Y-4772993D01*
X-49915843Y-4704948D01*
X-49312419Y-5308372D01*
X-49312418Y-5308372D01*
X-49281299Y-5265541D01*
X-49187830Y-5082099D01*
X-49187827Y-5082093D01*
X-49124209Y-4886296D01*
X-49092000Y-4682938D01*
X-49092000Y-4477061D01*
X-49124209Y-4273703D01*
X-49187827Y-4077906D01*
X-49187830Y-4077900D01*
X-49281301Y-3894454D01*
X-49312417Y-3851626D01*
X-49312418Y-3851626D01*
X-49915843Y-4455051D01*
X-49934075Y-4387007D01*
X-49999901Y-4272993D01*
X-50092993Y-4179901D01*
X-50207007Y-4114075D01*
X-50275053Y-4095841D01*
X-49671628Y-3492416D01*
X-49675369Y-3444886D01*
X-49675369Y-3425112D01*
X-49671628Y-3377581D01*
X-50275052Y-2774157D01*
X-50207007Y-2755925D01*
X-50092993Y-2690099D01*
X-49999901Y-2597007D01*
X-49934075Y-2482993D01*
X-49915843Y-2414948D01*
X-49312419Y-3018372D01*
X-49312418Y-3018372D01*
X-49281299Y-2975541D01*
X-49187830Y-2792099D01*
X-49187827Y-2792093D01*
X-49124209Y-2596296D01*
X-49092000Y-2392938D01*
X-49092000Y-2187061D01*
X-49124209Y-1983703D01*
X-49187827Y-1787906D01*
X-49187830Y-1787900D01*
X-49281301Y-1604454D01*
X-49312417Y-1561626D01*
X-49312418Y-1561626D01*
X-49915843Y-2165051D01*
X-49934075Y-2097007D01*
X-49999901Y-1982993D01*
X-50092993Y-1889901D01*
X-50207007Y-1824075D01*
X-50275053Y-1805841D01*
X-49671628Y-1202416D01*
X-49675369Y-1154886D01*
X-49675369Y-1135112D01*
X-49671628Y-1087581D01*
X-50275052Y-484157D01*
X-50207007Y-465925D01*
X-50092993Y-400099D01*
X-49999901Y-307007D01*
X-49934075Y-192993D01*
X-49915843Y-124948D01*
X-49312419Y-728372D01*
X-49312418Y-728372D01*
X-49281299Y-685541D01*
X-49187830Y-502099D01*
X-49187827Y-502093D01*
X-49124209Y-306296D01*
X-49092000Y-102938D01*
X-49092000Y102939D01*
X-49124209Y306297D01*
X-49187827Y502094D01*
X-49187830Y502100D01*
X-49281301Y685546D01*
X-49312417Y728374D01*
X-49312418Y728374D01*
X-49915843Y124949D01*
X-49934075Y192993D01*
X-49999901Y307007D01*
X-50092993Y400099D01*
X-50207007Y465925D01*
X-50275053Y484159D01*
X-49671628Y1087584D01*
X-49714459Y1118702D01*
X-49714460Y1118703D01*
X-49833634Y1179425D01*
X-49885249Y1228174D01*
X-49902315Y1297088D01*
X-49879414Y1364290D01*
X-49846437Y1396454D01*
X-49730345Y1474023D01*
X-49584023Y1620345D01*
X-49469059Y1792402D01*
X-49389870Y1983580D01*
X-49349500Y2186535D01*
X-49349500Y2393465D01*
X-49389870Y2596420D01*
X-49469059Y2787598D01*
X-49584023Y2959655D01*
X-49584025Y2959657D01*
X-49584030Y2959663D01*
X-49730338Y3105971D01*
X-49730344Y3105976D01*
X-49744598Y3115500D01*
X-49846433Y3183544D01*
X-49891961Y3238021D01*
X-49900809Y3308464D01*
X-49870167Y3372508D01*
X-49833633Y3400576D01*
X-49714461Y3461297D01*
X-49671628Y3492418D01*
X-49671628Y3492419D01*
X-50275052Y4095843D01*
X-50207007Y4114075D01*
X-50092993Y4179901D01*
X-49999901Y4272993D01*
X-49934075Y4387007D01*
X-49915843Y4455052D01*
X-49312419Y3851628D01*
X-49312418Y3851628D01*
X-49281299Y3894459D01*
X-49187830Y4077901D01*
X-49187827Y4077907D01*
X-49124209Y4273704D01*
X-49092000Y4477062D01*
X-49092000Y4682939D01*
X-49118329Y4849171D01*
X-49109229Y4919582D01*
X-49063508Y4973896D01*
X-48995680Y4994869D01*
X-48983993Y4994493D01*
X-48947584Y4991628D01*
X-48344159Y5595053D01*
X-48325925Y5527007D01*
X-48260099Y5412993D01*
X-48167007Y5319901D01*
X-48052993Y5254075D01*
X-47984949Y5235843D01*
X-48588374Y4632418D01*
X-48588374Y4632417D01*
X-48545546Y4601301D01*
X-48426367Y4540576D01*
X-48374752Y4491828D01*
X-48357686Y4422913D01*
X-48380587Y4355711D01*
X-48413568Y4323544D01*
X-48529656Y4245976D01*
X-48529663Y4245971D01*
X-48675971Y4099663D01*
X-48675976Y4099657D01*
X-48790941Y3927598D01*
X-48870128Y3736426D01*
X-48870130Y3736421D01*
X-48910500Y3533468D01*
X-48910500Y3326533D01*
X-48882058Y3183544D01*
X-48870130Y3123580D01*
X-48790941Y2932402D01*
X-48675977Y2760345D01*
X-48675976Y2760344D01*
X-48675971Y2760338D01*
X-48529663Y2614030D01*
X-48529657Y2614025D01*
X-48529655Y2614023D01*
X-48357598Y2499059D01*
X-48166420Y2419870D01*
X-48109655Y2408579D01*
X-48046746Y2375671D01*
X-48011614Y2313976D01*
X-48015414Y2243081D01*
X-48056940Y2185495D01*
X-48109655Y2161422D01*
X-48137234Y2155936D01*
X-48166421Y2150130D01*
X-48166426Y2150128D01*
X-48357598Y2070941D01*
X-48529657Y1955976D01*
X-48529663Y1955971D01*
X-48675971Y1809663D01*
X-48675976Y1809657D01*
X-48790941Y1637598D01*
X-48870128Y1446426D01*
X-48870130Y1446421D01*
X-48910500Y1243468D01*
X-48910500Y1243465D01*
X-48910500Y1036535D01*
X-48870130Y833580D01*
X-48790941Y642402D01*
X-48686707Y486404D01*
X-48675976Y470344D01*
X-48675971Y470338D01*
X-48529663Y324030D01*
X-48529657Y324025D01*
X-48529655Y324023D01*
X-48357598Y209059D01*
X-48166420Y129870D01*
X-48109655Y118579D01*
X-48046746Y85671D01*
X-48011614Y23976D01*
X-48015414Y-46919D01*
X-48056940Y-104505D01*
X-48109655Y-128578D01*
X-48132711Y-133165D01*
X-48166421Y-139870D01*
X-48166426Y-139872D01*
X-48357598Y-219059D01*
X-48529657Y-334024D01*
X-48529663Y-334029D01*
X-48675971Y-480337D01*
X-48675976Y-480343D01*
X-48790941Y-652402D01*
X-48870128Y-843574D01*
X-48870130Y-843579D01*
X-48910500Y-1046532D01*
X-48910500Y-1253467D01*
X-48875835Y-1427740D01*
X-48870130Y-1456420D01*
X-48790941Y-1647598D01*
X-48680915Y-1812264D01*
X-48675976Y-1819656D01*
X-48675971Y-1819662D01*
X-48529663Y-1965970D01*
X-48529657Y-1965975D01*
X-48529655Y-1965977D01*
X-48357598Y-2080941D01*
X-48166420Y-2160130D01*
X-48109655Y-2171421D01*
X-48046746Y-2204329D01*
X-48011614Y-2266024D01*
X-48015414Y-2336919D01*
X-48056940Y-2394505D01*
X-48109655Y-2418578D01*
X-48124572Y-2421546D01*
X-48166421Y-2429870D01*
X-48166426Y-2429872D01*
X-48357598Y-2509059D01*
X-48529657Y-2624024D01*
X-48529663Y-2624029D01*
X-48675971Y-2770337D01*
X-48675976Y-2770343D01*
X-48790941Y-2942402D01*
X-48870128Y-3133574D01*
X-48870130Y-3133579D01*
X-48910500Y-3336532D01*
X-48910500Y-3336535D01*
X-48910500Y-3543465D01*
X-48870130Y-3746420D01*
X-48790941Y-3937598D01*
X-48675977Y-4109655D01*
X-48675976Y-4109656D01*
X-48675971Y-4109662D01*
X-48529663Y-4255970D01*
X-48529657Y-4255975D01*
X-48529655Y-4255977D01*
X-48357598Y-4370941D01*
X-48166420Y-4450130D01*
X-47963465Y-4490500D01*
X-47963464Y-4490500D01*
X-47756536Y-4490500D01*
X-47756535Y-4490500D01*
X-47553580Y-4450130D01*
X-47362402Y-4370941D01*
X-47190345Y-4255977D01*
X-47130849Y-4196480D01*
X-47068539Y-4162457D01*
X-46997723Y-4167521D01*
X-46940887Y-4210067D01*
X-46919103Y-4261603D01*
X-46918400Y-4261435D01*
X-46917384Y-4265670D01*
X-46917310Y-4265844D01*
X-46917249Y-4266233D01*
X-46917247Y-4266241D01*
X-46917246Y-4266243D01*
X-46851557Y-4468412D01*
X-46755051Y-4657816D01*
X-46630104Y-4829792D01*
X-46630102Y-4829794D01*
X-46630100Y-4829797D01*
X-46479798Y-4980099D01*
X-46479795Y-4980101D01*
X-46479792Y-4980104D01*
X-46307816Y-5105051D01*
X-46118412Y-5201557D01*
X-45916243Y-5267246D01*
X-45706287Y-5300500D01*
X-45706284Y-5300500D01*
X-45493716Y-5300500D01*
X-45493713Y-5300500D01*
X-45283757Y-5267246D01*
X-45081588Y-5201557D01*
X-44892184Y-5105051D01*
X-44720208Y-4980104D01*
X-44569896Y-4829792D01*
X-44444949Y-4657816D01*
X-44348443Y-4468412D01*
X-44282754Y-4266243D01*
X-44249500Y-4056287D01*
X-44249500Y-3843713D01*
X-44282754Y-3633757D01*
X-44348443Y-3431588D01*
X-44354204Y-3420282D01*
X-44386681Y-3356541D01*
X-44386682Y-3356540D01*
X-44391360Y-3347359D01*
X-44444949Y-3242184D01*
X-44569896Y-3070208D01*
X-44569899Y-3070205D01*
X-44569901Y-3070202D01*
X-44720203Y-2919900D01*
X-44720206Y-2919898D01*
X-44720208Y-2919896D01*
X-44892184Y-2794949D01*
X-45051516Y-2713765D01*
X-45103129Y-2665019D01*
X-45120195Y-2596104D01*
X-45097294Y-2528902D01*
X-45041697Y-2484750D01*
X-44994311Y-2475500D01*
X-44250567Y-2475500D01*
X-44250565Y-2475500D01*
X-44155062Y-2449910D01*
X-44069438Y-2400475D01*
X-43999525Y-2330562D01*
X-43950090Y-2244938D01*
X-43940961Y-2210867D01*
X-43908352Y-2154387D01*
X-43672416Y-1918451D01*
X-42128000Y-1918451D01*
X-42128000Y-2171548D01*
X-42088404Y-2421546D01*
X-42010194Y-2662253D01*
X-42010191Y-2662259D01*
X-41895283Y-2887779D01*
X-41822361Y-2988148D01*
X-41822359Y-2988148D01*
X-41122699Y-2288488D01*
X-41096022Y-2352890D01*
X-41024888Y-2459351D01*
X-40934351Y-2549888D01*
X-40827890Y-2621022D01*
X-40763490Y-2647698D01*
X-41463150Y-3347357D01*
X-41463150Y-3347359D01*
X-41362780Y-3420282D01*
X-41137260Y-3535190D01*
X-41137254Y-3535193D01*
X-40896546Y-3613403D01*
X-40896549Y-3613403D01*
X-40646549Y-3653000D01*
X-40393451Y-3653000D01*
X-40143454Y-3613403D01*
X-39902747Y-3535193D01*
X-39902741Y-3535190D01*
X-39677225Y-3420284D01*
X-39576852Y-3347358D01*
X-39576852Y-3347357D01*
X-40276511Y-2647698D01*
X-40212110Y-2621022D01*
X-40105649Y-2549888D01*
X-40015112Y-2459351D01*
X-39943978Y-2352890D01*
X-39917302Y-2288489D01*
X-39217643Y-2988148D01*
X-39217642Y-2988148D01*
X-39144716Y-2887775D01*
X-39029810Y-2662259D01*
X-39029807Y-2662253D01*
X-38951597Y-2421546D01*
X-38912000Y-2171548D01*
X-38912000Y-1918448D01*
X-38914787Y-1900855D01*
X-38914788Y-1900852D01*
X-38917257Y-1885263D01*
X-15750500Y-1885263D01*
X-15750500Y-2114736D01*
X-15720550Y-2342231D01*
X-15720548Y-2342238D01*
X-15661158Y-2563887D01*
X-15573344Y-2775888D01*
X-15573343Y-2775889D01*
X-15573338Y-2775900D01*
X-15458614Y-2974608D01*
X-15458609Y-2974615D01*
X-15318927Y-3156652D01*
X-15318908Y-3156673D01*
X-15156674Y-3318907D01*
X-15156653Y-3318926D01*
X-14974616Y-3458608D01*
X-14974609Y-3458613D01*
X-14775901Y-3573337D01*
X-14775897Y-3573338D01*
X-14775888Y-3573344D01*
X-14563887Y-3661158D01*
X-14342238Y-3720548D01*
X-14342234Y-3720548D01*
X-14342232Y-3720549D01*
X-14283602Y-3728267D01*
X-14114734Y-3750500D01*
X-14114727Y-3750500D01*
X-12885273Y-3750500D01*
X-12885266Y-3750500D01*
X-12679655Y-3723430D01*
X-12657769Y-3720549D01*
X-12657769Y-3720548D01*
X-12657762Y-3720548D01*
X-12436113Y-3661158D01*
X-12224112Y-3573344D01*
X-12025388Y-3458611D01*
X-11843339Y-3318919D01*
X-11681081Y-3156661D01*
X-11541389Y-2974612D01*
X-11426656Y-2775888D01*
X-11338842Y-2563887D01*
X-11279452Y-2342238D01*
X-11258922Y-2186298D01*
X-11230200Y-2121372D01*
X-11170935Y-2082280D01*
X-11099943Y-2081435D01*
X-11039764Y-2119105D01*
X-11009505Y-2183330D01*
X-11008000Y-2202745D01*
X-11008000Y-2631613D01*
X-10973645Y-2892575D01*
X-10905516Y-3146835D01*
X-10804784Y-3390023D01*
X-10804779Y-3390034D01*
X-10673177Y-3617975D01*
X-10512934Y-3826807D01*
X-10512925Y-3826818D01*
X-10326819Y-4012924D01*
X-10326808Y-4012933D01*
X-10117976Y-4173176D01*
X-9890035Y-4304778D01*
X-9890024Y-4304783D01*
X-9646836Y-4405515D01*
X-9392578Y-4473643D01*
X-9392575Y-4473644D01*
X-9254000Y-4491887D01*
X-9254000Y-3356173D01*
X-9231591Y-3369111D01*
X-9078991Y-3410000D01*
X-8921009Y-3410000D01*
X-8768409Y-3369111D01*
X-8746000Y-3356173D01*
X-8746000Y-4491887D01*
X-8607426Y-4473644D01*
X-8607423Y-4473643D01*
X-8353165Y-4405515D01*
X-8109977Y-4304783D01*
X-8109966Y-4304778D01*
X-7882025Y-4173176D01*
X-7673193Y-4012933D01*
X-7673182Y-4012924D01*
X-7487076Y-3826818D01*
X-7487067Y-3826807D01*
X-7326824Y-3617975D01*
X-7195222Y-3390034D01*
X-7195217Y-3390023D01*
X-7094485Y-3146835D01*
X-7026356Y-2892575D01*
X-6992001Y-2631613D01*
X-6992000Y-2631604D01*
X-6992000Y-2254000D01*
X-8400000Y-2254000D01*
X-8400000Y-1746000D01*
X-6992000Y-1746000D01*
X-6992000Y-1368396D01*
X-6992001Y-1368386D01*
X-7026356Y-1107424D01*
X-7094485Y-853164D01*
X-7195217Y-609976D01*
X-7195222Y-609965D01*
X-7326824Y-382024D01*
X-7487067Y-173192D01*
X-7487076Y-173181D01*
X-7673182Y12925D01*
X-7673193Y12934D01*
X-7882025Y173177D01*
X-8109966Y304779D01*
X-8109977Y304784D01*
X-8353165Y405516D01*
X-8607426Y473645D01*
X-8746000Y491889D01*
X-8746000Y-643826D01*
X-8768409Y-630889D01*
X-8921009Y-590000D01*
X-9078991Y-590000D01*
X-9231591Y-630889D01*
X-9254000Y-643826D01*
X-9254000Y491888D01*
X-9254001Y491889D01*
X-9392575Y473645D01*
X-9646836Y405516D01*
X-9890024Y304784D01*
X-9890035Y304779D01*
X-10117976Y173177D01*
X-10326808Y12934D01*
X-10326819Y12925D01*
X-10512925Y-173181D01*
X-10512934Y-173192D01*
X-10673177Y-382024D01*
X-10804779Y-609965D01*
X-10804784Y-609976D01*
X-10905516Y-853164D01*
X-10973645Y-1107424D01*
X-11008000Y-1368386D01*
X-11008000Y-1797254D01*
X-11028002Y-1865375D01*
X-11081658Y-1911868D01*
X-11151932Y-1921972D01*
X-11216512Y-1892478D01*
X-11254896Y-1832752D01*
X-11258922Y-1813700D01*
X-11279451Y-1657769D01*
X-11279452Y-1657768D01*
X-11279452Y-1657762D01*
X-11338842Y-1436113D01*
X-11426656Y-1224112D01*
X-11426662Y-1224103D01*
X-11426663Y-1224099D01*
X-11541387Y-1025391D01*
X-11541392Y-1025384D01*
X-11681074Y-843347D01*
X-11681093Y-843326D01*
X-11843327Y-681092D01*
X-11843348Y-681073D01*
X-12025385Y-541391D01*
X-12025392Y-541386D01*
X-12224100Y-426662D01*
X-12224108Y-426658D01*
X-12224112Y-426656D01*
X-12436113Y-338842D01*
X-12657762Y-279452D01*
X-12657769Y-279450D01*
X-12885264Y-249500D01*
X-12885266Y-249500D01*
X-14114734Y-249500D01*
X-14114737Y-249500D01*
X-14342232Y-279450D01*
X-14563887Y-338842D01*
X-14732538Y-408700D01*
X-14775890Y-426657D01*
X-14775901Y-426662D01*
X-14974609Y-541386D01*
X-14974616Y-541391D01*
X-15156653Y-681073D01*
X-15156674Y-681092D01*
X-15318908Y-843326D01*
X-15318927Y-843347D01*
X-15458609Y-1025384D01*
X-15458614Y-1025391D01*
X-15573338Y-1224099D01*
X-15573343Y-1224110D01*
X-15573344Y-1224112D01*
X-15585502Y-1253465D01*
X-15661158Y-1436113D01*
X-15720550Y-1657768D01*
X-15750500Y-1885263D01*
X-38917257Y-1885263D01*
X-38951597Y-1668453D01*
X-39029807Y-1427746D01*
X-39029810Y-1427740D01*
X-39144718Y-1202220D01*
X-39217641Y-1101850D01*
X-39217643Y-1101850D01*
X-39917303Y-1801509D01*
X-39943978Y-1737110D01*
X-40015112Y-1630649D01*
X-40105649Y-1540112D01*
X-40212110Y-1468978D01*
X-40276512Y-1442301D01*
X-39576852Y-742641D01*
X-39576852Y-742639D01*
X-39677221Y-669717D01*
X-39902741Y-554809D01*
X-39902747Y-554806D01*
X-40143455Y-476596D01*
X-40143452Y-476596D01*
X-40393451Y-437000D01*
X-40646549Y-437000D01*
X-40896547Y-476596D01*
X-41137254Y-554806D01*
X-41137260Y-554809D01*
X-41362775Y-669714D01*
X-41362776Y-669715D01*
X-41463150Y-742640D01*
X-41463150Y-742641D01*
X-40763490Y-1442301D01*
X-40827890Y-1468978D01*
X-40934351Y-1540112D01*
X-41024888Y-1630649D01*
X-41096022Y-1737110D01*
X-41122699Y-1801510D01*
X-41822359Y-1101850D01*
X-41822360Y-1101850D01*
X-41895285Y-1202224D01*
X-41895286Y-1202225D01*
X-42010191Y-1427740D01*
X-42010194Y-1427746D01*
X-42088404Y-1668453D01*
X-42128000Y-1918451D01*
X-43672416Y-1918451D01*
X-41237031Y516934D01*
X-41174721Y550958D01*
X-41103906Y545893D01*
X-41090742Y540107D01*
X-41038412Y513443D01*
X-40836243Y447754D01*
X-40626287Y414500D01*
X-40626284Y414500D01*
X-40413716Y414500D01*
X-40413713Y414500D01*
X-40203757Y447754D01*
X-40001588Y513443D01*
X-39812184Y609949D01*
X-39640208Y734896D01*
X-39489896Y885208D01*
X-39364949Y1057184D01*
X-39268443Y1246588D01*
X-39202754Y1448757D01*
X-39169500Y1658713D01*
X-39169500Y1871287D01*
X-39202754Y2081243D01*
X-39268443Y2283412D01*
X-39364949Y2472816D01*
X-39489896Y2644792D01*
X-39489899Y2644795D01*
X-39489901Y2644798D01*
X-39640203Y2795100D01*
X-39640206Y2795102D01*
X-39640208Y2795104D01*
X-39812184Y2920051D01*
X-40001588Y3016557D01*
X-40203757Y3082246D01*
X-40413713Y3115500D01*
X-40626287Y3115500D01*
X-40836243Y3082246D01*
X-40836246Y3082246D01*
X-40836247Y3082245D01*
X-41038412Y3016557D01*
X-41038414Y3016556D01*
X-41227820Y2920049D01*
X-41399795Y2795102D01*
X-41399798Y2795100D01*
X-41550100Y2644798D01*
X-41550102Y2644795D01*
X-41675049Y2472820D01*
X-41771556Y2283414D01*
X-41771557Y2283412D01*
X-41811194Y2161421D01*
X-41837246Y2081243D01*
X-41870500Y1871287D01*
X-41870500Y1658713D01*
X-41837246Y1448757D01*
X-41778776Y1268805D01*
X-41771557Y1246589D01*
X-41771554Y1246581D01*
X-41744898Y1194266D01*
X-41731794Y1124489D01*
X-41758495Y1058705D01*
X-41768070Y1047969D01*
X-44503632Y-1687595D01*
X-44565944Y-1721620D01*
X-44592727Y-1724500D01*
X-44657396Y-1724500D01*
X-44725517Y-1704498D01*
X-44772010Y-1650842D01*
X-44782114Y-1580568D01*
X-44752620Y-1515988D01*
X-44731458Y-1496564D01*
X-44656852Y-1442358D01*
X-44656852Y-1442357D01*
X-45356512Y-742698D01*
X-45292110Y-716022D01*
X-45185649Y-644888D01*
X-45095112Y-554351D01*
X-45023978Y-447890D01*
X-44997302Y-383489D01*
X-44297643Y-1083148D01*
X-44297642Y-1083148D01*
X-44224716Y-982775D01*
X-44109810Y-757259D01*
X-44109807Y-757253D01*
X-44031597Y-516546D01*
X-43992000Y-266548D01*
X-43992000Y-13451D01*
X-44031597Y236547D01*
X-44109807Y477254D01*
X-44109810Y477260D01*
X-44224718Y702780D01*
X-44297641Y803150D01*
X-44297643Y803150D01*
X-44997303Y103491D01*
X-45023978Y167890D01*
X-45095112Y274351D01*
X-45185649Y364888D01*
X-45292110Y436022D01*
X-45356513Y462699D01*
X-44656852Y1162359D01*
X-44656852Y1162361D01*
X-44757221Y1235283D01*
X-44982741Y1350191D01*
X-44982747Y1350194D01*
X-45223455Y1428404D01*
X-45223452Y1428404D01*
X-45473451Y1468000D01*
X-45726549Y1468000D01*
X-45976547Y1428404D01*
X-46217254Y1350194D01*
X-46217260Y1350191D01*
X-46442780Y1235283D01*
X-46609439Y1114198D01*
X-46676307Y1090339D01*
X-46745459Y1106420D01*
X-46794939Y1157334D01*
X-46809500Y1216134D01*
X-46809500Y1243464D01*
X-46809501Y1243468D01*
X-46810121Y1246587D01*
X-46849870Y1446420D01*
X-46929059Y1637598D01*
X-47044023Y1809655D01*
X-47044025Y1809657D01*
X-47044030Y1809663D01*
X-47190338Y1955971D01*
X-47190344Y1955976D01*
X-47231649Y1983575D01*
X-47362402Y2070941D01*
X-47553580Y2150130D01*
X-47610348Y2161422D01*
X-47673255Y2194329D01*
X-47708387Y2256024D01*
X-47704587Y2326919D01*
X-47663061Y2384505D01*
X-47610348Y2408579D01*
X-47553580Y2419870D01*
X-47362402Y2499059D01*
X-47190345Y2614023D01*
X-47044023Y2760345D01*
X-46935766Y2922365D01*
X-46881293Y2967889D01*
X-46810850Y2976738D01*
X-46746806Y2946097D01*
X-46729068Y2926421D01*
X-46630104Y2790208D01*
X-46630102Y2790206D01*
X-46630100Y2790203D01*
X-46479798Y2639901D01*
X-46479795Y2639899D01*
X-46479792Y2639896D01*
X-46307816Y2514949D01*
X-46118412Y2418443D01*
X-45916243Y2352754D01*
X-45706287Y2319500D01*
X-45706284Y2319500D01*
X-45493716Y2319500D01*
X-45493713Y2319500D01*
X-45283757Y2352754D01*
X-45081588Y2418443D01*
X-44892184Y2514949D01*
X-44720208Y2639896D01*
X-44569896Y2790208D01*
X-44444949Y2962184D01*
X-44348443Y3151588D01*
X-44282754Y3353757D01*
X-44249500Y3563713D01*
X-44249500Y3776287D01*
X-44282754Y3986243D01*
X-44348443Y4188412D01*
X-44364940Y4220790D01*
X-44386681Y4263459D01*
X-44386682Y4263460D01*
X-44391360Y4272641D01*
X-44444949Y4377816D01*
X-44569896Y4549792D01*
X-44569899Y4549795D01*
X-44569901Y4549798D01*
X-44720203Y4700100D01*
X-44720206Y4700102D01*
X-44720208Y4700104D01*
X-44892184Y4825051D01*
X-45081588Y4921557D01*
X-45283757Y4987246D01*
X-45493713Y5020500D01*
X-45706287Y5020500D01*
X-45916243Y4987246D01*
X-45916246Y4987246D01*
X-45916247Y4987245D01*
X-46118412Y4921557D01*
X-46118414Y4921556D01*
X-46307820Y4825049D01*
X-46479795Y4700102D01*
X-46479798Y4700100D01*
X-46630100Y4549798D01*
X-46630102Y4549795D01*
X-46755049Y4377820D01*
X-46851556Y4188414D01*
X-46851560Y4188405D01*
X-46856988Y4171700D01*
X-46897064Y4113096D01*
X-46962462Y4085463D01*
X-47032418Y4097573D01*
X-47065914Y4121547D01*
X-47190338Y4245971D01*
X-47190344Y4245976D01*
X-47216511Y4263460D01*
X-47306433Y4323544D01*
X-47351961Y4378021D01*
X-47360809Y4448464D01*
X-47330167Y4512508D01*
X-47293633Y4540576D01*
X-47174461Y4601297D01*
X-47131628Y4632418D01*
X-47131628Y4632419D01*
X-47735052Y5235843D01*
X-47667007Y5254075D01*
X-47552993Y5319901D01*
X-47459901Y5412993D01*
X-47394075Y5527007D01*
X-47375842Y5595053D01*
X-46772418Y4991628D01*
X-46741299Y5034459D01*
X-46647830Y5217901D01*
X-46647827Y5217907D01*
X-46584209Y5413704D01*
X-46552000Y5617062D01*
X-46552000Y5701549D01*
X-42128000Y5701549D01*
X-42128000Y5448452D01*
X-42088404Y5198454D01*
X-42010194Y4957747D01*
X-42010191Y4957741D01*
X-41895283Y4732221D01*
X-41822361Y4631852D01*
X-41822359Y4631852D01*
X-41122699Y5331512D01*
X-41096022Y5267110D01*
X-41024888Y5160649D01*
X-40934351Y5070112D01*
X-40827890Y4998978D01*
X-40763490Y4972302D01*
X-41463150Y4272643D01*
X-41463150Y4272641D01*
X-41362780Y4199718D01*
X-41137260Y4084810D01*
X-41137254Y4084807D01*
X-40896546Y4006597D01*
X-40896549Y4006597D01*
X-40646549Y3967000D01*
X-40393451Y3967000D01*
X-40143454Y4006597D01*
X-39902747Y4084807D01*
X-39902741Y4084810D01*
X-39677225Y4199716D01*
X-39576852Y4272642D01*
X-39576852Y4272643D01*
X-40276511Y4972302D01*
X-40212110Y4998978D01*
X-40105649Y5070112D01*
X-40015112Y5160649D01*
X-39943978Y5267110D01*
X-39917302Y5331511D01*
X-39217643Y4631852D01*
X-39217642Y4631852D01*
X-39144716Y4732225D01*
X-39029810Y4957741D01*
X-39029807Y4957747D01*
X-38951597Y5198454D01*
X-38912000Y5448452D01*
X-38912000Y5598417D01*
X-14450500Y5598417D01*
X-14450500Y5401583D01*
X-14419709Y5207174D01*
X-14358884Y5019975D01*
X-14269524Y4844595D01*
X-14269522Y4844592D01*
X-14153827Y4685352D01*
X-14014649Y4546174D01*
X-14006944Y4540576D01*
X-13855405Y4430476D01*
X-13680025Y4341116D01*
X-13492826Y4280291D01*
X-13298417Y4249500D01*
X-13298414Y4249500D01*
X-13101586Y4249500D01*
X-13101583Y4249500D01*
X-12907174Y4280291D01*
X-12719975Y4341116D01*
X-12544595Y4430476D01*
X-12385354Y4546172D01*
X-12246172Y4685354D01*
X-12130476Y4844595D01*
X-12041116Y5019975D01*
X-11980291Y5207174D01*
X-11949500Y5401583D01*
X-11949500Y5598417D01*
X-11980291Y5792826D01*
X-12041116Y5980025D01*
X-12130476Y6155405D01*
X-12246172Y6314646D01*
X-12246174Y6314649D01*
X-12385352Y6453827D01*
X-12544592Y6569522D01*
X-12544593Y6569523D01*
X-12544595Y6569524D01*
X-12719975Y6658884D01*
X-12907174Y6719709D01*
X-13101583Y6750500D01*
X-13298417Y6750500D01*
X-13492826Y6719709D01*
X-13492829Y6719709D01*
X-13492830Y6719708D01*
X-13582646Y6690525D01*
X-13680025Y6658884D01*
X-13680027Y6658884D01*
X-13680027Y6658883D01*
X-13855409Y6569522D01*
X-14014649Y6453827D01*
X-14153827Y6314649D01*
X-14269522Y6155409D01*
X-14269524Y6155405D01*
X-14358884Y5980025D01*
X-14419709Y5792826D01*
X-14450500Y5598417D01*
X-38912000Y5598417D01*
X-38912000Y5701549D01*
X-38951597Y5951547D01*
X-39029807Y6192254D01*
X-39029810Y6192260D01*
X-39144718Y6417780D01*
X-39217641Y6518150D01*
X-39217643Y6518150D01*
X-39917303Y5818491D01*
X-39943978Y5882890D01*
X-40015112Y5989351D01*
X-40105649Y6079888D01*
X-40212110Y6151022D01*
X-40276512Y6177699D01*
X-39576852Y6877359D01*
X-39576852Y6877361D01*
X-39677221Y6950283D01*
X-39902741Y7065191D01*
X-39902747Y7065194D01*
X-40143455Y7143404D01*
X-40143452Y7143404D01*
X-40393451Y7183000D01*
X-40646549Y7183000D01*
X-40896547Y7143404D01*
X-41137254Y7065194D01*
X-41137260Y7065191D01*
X-41362775Y6950286D01*
X-41362776Y6950285D01*
X-41463150Y6877360D01*
X-41463150Y6877359D01*
X-40763490Y6177699D01*
X-40827890Y6151022D01*
X-40934351Y6079888D01*
X-41024888Y5989351D01*
X-41096022Y5882890D01*
X-41122699Y5818490D01*
X-41822359Y6518150D01*
X-41822360Y6518150D01*
X-41895285Y6417776D01*
X-41895286Y6417775D01*
X-42010191Y6192260D01*
X-42010194Y6192254D01*
X-42088404Y5951547D01*
X-42128000Y5701549D01*
X-46552000Y5701549D01*
X-46552000Y5822939D01*
X-46571451Y5945745D01*
X-46562352Y6016156D01*
X-46516630Y6070470D01*
X-46448802Y6091443D01*
X-46389799Y6077723D01*
X-46217260Y5989810D01*
X-46217254Y5989807D01*
X-45976546Y5911597D01*
X-45976549Y5911597D01*
X-45726549Y5872000D01*
X-45473451Y5872000D01*
X-45223454Y5911597D01*
X-44982747Y5989807D01*
X-44982741Y5989810D01*
X-44757225Y6104716D01*
X-44656852Y6177642D01*
X-44656852Y6177643D01*
X-45356512Y6877302D01*
X-45292110Y6903978D01*
X-45185649Y6975112D01*
X-45095112Y7065649D01*
X-45023978Y7172110D01*
X-44997302Y7236511D01*
X-44297643Y6536852D01*
X-44297642Y6536852D01*
X-44224716Y6637225D01*
X-44109810Y6862741D01*
X-44109809Y6862742D01*
X-44108012Y6868272D01*
X-44108011Y6868274D01*
X-44031597Y7103454D01*
X-43992000Y7353452D01*
X-43992000Y7606549D01*
X-44031597Y7856547D01*
X-44109807Y8097254D01*
X-44109810Y8097260D01*
X-44224718Y8322780D01*
X-44297641Y8423150D01*
X-44297643Y8423150D01*
X-44997303Y7723491D01*
X-45023978Y7787890D01*
X-45095112Y7894351D01*
X-45185649Y7984888D01*
X-45292110Y8056022D01*
X-45356512Y8082699D01*
X-44656852Y8782359D01*
X-44656852Y8782361D01*
X-44757221Y8855283D01*
X-44982741Y8970191D01*
X-44982747Y8970194D01*
X-45223455Y9048404D01*
X-45223452Y9048404D01*
X-45473451Y9088000D01*
X-45726549Y9088000D01*
X-45976547Y9048404D01*
X-46217254Y8970194D01*
X-46217260Y8970191D01*
X-46442775Y8855286D01*
X-46442776Y8855285D01*
X-46543150Y8782360D01*
X-46543150Y8782359D01*
X-45843490Y8082699D01*
X-45907890Y8056022D01*
X-46014351Y7984888D01*
X-46104888Y7894351D01*
X-46176022Y7787890D01*
X-46202699Y7723489D01*
X-46902359Y8423150D01*
X-46902360Y8423150D01*
X-46975285Y8322776D01*
X-46975286Y8322775D01*
X-47090191Y8097260D01*
X-47090194Y8097254D01*
X-47168404Y7856547D01*
X-47208000Y7606549D01*
X-47208000Y7353452D01*
X-47168405Y7103458D01*
X-47158112Y7071780D01*
X-47156086Y7000812D01*
X-47192749Y6940014D01*
X-47256462Y6908690D01*
X-47326996Y6916784D01*
X-47335150Y6920579D01*
X-47357896Y6932169D01*
X-47357907Y6932174D01*
X-47553706Y6995792D01*
X-47553702Y6995792D01*
X-47757061Y7028000D01*
X-47962939Y7028000D01*
X-48166297Y6995792D01*
X-48362094Y6932174D01*
X-48362100Y6932171D01*
X-48545548Y6838699D01*
X-48588374Y6807585D01*
X-47984948Y6204159D01*
X-48052993Y6185925D01*
X-48167007Y6120099D01*
X-48260099Y6027007D01*
X-48325925Y5912993D01*
X-48344158Y5844949D01*
X-48947584Y6448375D01*
X-48978699Y6405548D01*
X-49072171Y6222100D01*
X-49072174Y6222094D01*
X-49135792Y6026297D01*
X-49168000Y5822939D01*
X-49168000Y5617062D01*
X-49141672Y5450831D01*
X-49150772Y5380419D01*
X-49196494Y5326105D01*
X-49264322Y5305133D01*
X-49276007Y5305508D01*
X-49312418Y5308374D01*
X-49915843Y4704949D01*
X-49934075Y4772993D01*
X-49999901Y4887007D01*
X-50092993Y4980099D01*
X-50207007Y5045925D01*
X-50275053Y5064159D01*
X-49671628Y5667584D01*
X-49714459Y5698702D01*
X-49714460Y5698703D01*
X-49897901Y5792171D01*
X-49897907Y5792174D01*
X-50093706Y5855792D01*
X-50093702Y5855792D01*
X-50297061Y5888000D01*
X-50502939Y5888000D01*
X-50706297Y5855792D01*
X-50902094Y5792174D01*
X-50902100Y5792171D01*
X-51085548Y5698699D01*
X-51128375Y5667584D01*
X-50524949Y5064158D01*
X-50592993Y5045925D01*
X-50707007Y4980099D01*
X-50800099Y4887007D01*
X-50865925Y4772993D01*
X-50884158Y4704949D01*
X-51487584Y5308375D01*
X-51518699Y5265548D01*
X-51612171Y5082100D01*
X-51612174Y5082094D01*
X-51675792Y4886297D01*
X-51708000Y4682939D01*
X-52724594Y4682939D01*
X-52690348Y4698579D01*
X-52633580Y4709870D01*
X-52442402Y4789059D01*
X-52270345Y4904023D01*
X-52124023Y5050345D01*
X-52009059Y5222402D01*
X-51929870Y5413580D01*
X-51889500Y5616535D01*
X-51889500Y5823465D01*
X-51929870Y6026420D01*
X-52009059Y6217598D01*
X-52124023Y6389655D01*
X-52124025Y6389657D01*
X-52124030Y6389663D01*
X-52270338Y6535971D01*
X-52270344Y6535976D01*
X-52271655Y6536852D01*
X-52442402Y6650941D01*
X-52633580Y6730130D01*
X-52836533Y6770500D01*
X-52836535Y6770500D01*
X-53043465Y6770500D01*
X-53043468Y6770500D01*
X-53246421Y6730130D01*
X-53246426Y6730128D01*
X-53437598Y6650941D01*
X-53609657Y6535976D01*
X-53609663Y6535971D01*
X-53755971Y6389663D01*
X-53755979Y6389654D01*
X-53769236Y6369812D01*
X-53823714Y6324285D01*
X-53894157Y6315438D01*
X-53958200Y6346080D01*
X-53995511Y6406482D01*
X-54000000Y6439815D01*
X-54000000Y9491287D01*
X-41870500Y9491287D01*
X-41870500Y9278713D01*
X-41837246Y9068757D01*
X-41771557Y8866588D01*
X-41675051Y8677184D01*
X-41550104Y8505208D01*
X-41550102Y8505206D01*
X-41550100Y8505203D01*
X-41399798Y8354901D01*
X-41399795Y8354899D01*
X-41399792Y8354896D01*
X-41227816Y8229949D01*
X-41038412Y8133443D01*
X-40836243Y8067754D01*
X-40626287Y8034500D01*
X-40626284Y8034500D01*
X-40413716Y8034500D01*
X-40413713Y8034500D01*
X-40203757Y8067754D01*
X-40001588Y8133443D01*
X-39812184Y8229949D01*
X-39640208Y8354896D01*
X-39489896Y8505208D01*
X-39364949Y8677184D01*
X-39268443Y8866588D01*
X-39202754Y9068757D01*
X-39169500Y9278713D01*
X-39169500Y9491287D01*
X-39202754Y9701243D01*
X-39268443Y9903412D01*
X-39364949Y10092816D01*
X-39489896Y10264792D01*
X-39489899Y10264795D01*
X-39489901Y10264798D01*
X-39640203Y10415100D01*
X-39640206Y10415102D01*
X-39640208Y10415104D01*
X-39812184Y10540051D01*
X-40001588Y10636557D01*
X-40203757Y10702246D01*
X-40413713Y10735500D01*
X-40626287Y10735500D01*
X-40836243Y10702246D01*
X-40836246Y10702246D01*
X-40836247Y10702245D01*
X-41038412Y10636557D01*
X-41038414Y10636556D01*
X-41227820Y10540049D01*
X-41399795Y10415102D01*
X-41399798Y10415100D01*
X-41550100Y10264798D01*
X-41550102Y10264795D01*
X-41675049Y10092820D01*
X-41675051Y10092816D01*
X-41771557Y9903412D01*
X-41837246Y9701243D01*
X-41870500Y9491287D01*
X-54000000Y9491287D01*
X-54000000Y13534888D01*
X-53158000Y13534888D01*
X-53158000Y13225113D01*
X-53123317Y12917287D01*
X-53054385Y12615279D01*
X-52952082Y12322914D01*
X-52952071Y12322887D01*
X-52817673Y12043806D01*
X-52817668Y12043797D01*
X-52652861Y11781510D01*
X-52521910Y11617303D01*
X-52521909Y11617303D01*
X-51696633Y12442579D01*
X-51620412Y12337670D01*
X-51442330Y12159588D01*
X-51337424Y12083369D01*
X-52162699Y11258093D01*
X-52162699Y11258092D01*
X-51998488Y11127137D01*
X-51736204Y10962333D01*
X-51736195Y10962328D01*
X-51457114Y10827930D01*
X-51457087Y10827919D01*
X-51164722Y10725616D01*
X-50862713Y10656684D01*
X-50862715Y10656684D01*
X-50554888Y10622000D01*
X-50245112Y10622000D01*
X-49937287Y10656684D01*
X-49635279Y10725616D01*
X-49342914Y10827919D01*
X-49342887Y10827930D01*
X-49063806Y10962328D01*
X-49063797Y10962333D01*
X-48801513Y11127137D01*
X-48637302Y11258092D01*
X-48691353Y11312143D01*
X-48775497Y11396287D01*
X-46950500Y11396287D01*
X-46950500Y11183713D01*
X-46917246Y10973757D01*
X-46851557Y10771588D01*
X-46755051Y10582184D01*
X-46630104Y10410208D01*
X-46630102Y10410206D01*
X-46630100Y10410203D01*
X-46479798Y10259901D01*
X-46479795Y10259899D01*
X-46479792Y10259896D01*
X-46307816Y10134949D01*
X-46118412Y10038443D01*
X-45916243Y9972754D01*
X-45706287Y9939500D01*
X-45706284Y9939500D01*
X-45493716Y9939500D01*
X-45493713Y9939500D01*
X-45283757Y9972754D01*
X-45081588Y10038443D01*
X-44892184Y10134949D01*
X-44720208Y10259896D01*
X-44569896Y10410208D01*
X-44444949Y10582184D01*
X-44348443Y10771588D01*
X-44282754Y10973757D01*
X-44249500Y11183713D01*
X-44249500Y11396287D01*
X-44282754Y11606243D01*
X-44348443Y11808412D01*
X-44354204Y11819718D01*
X-44386681Y11883459D01*
X-44386682Y11883460D01*
X-44391360Y11892641D01*
X-44444949Y11997816D01*
X-44569896Y12169792D01*
X-44569899Y12169795D01*
X-44569901Y12169798D01*
X-44720203Y12320100D01*
X-44720206Y12320102D01*
X-44720208Y12320104D01*
X-44892184Y12445051D01*
X-45081588Y12541557D01*
X-45283757Y12607246D01*
X-45493713Y12640500D01*
X-45706287Y12640500D01*
X-45916243Y12607246D01*
X-45916246Y12607246D01*
X-45916247Y12607245D01*
X-46118412Y12541557D01*
X-46118414Y12541556D01*
X-46307820Y12445049D01*
X-46479795Y12320102D01*
X-46479798Y12320100D01*
X-46630100Y12169798D01*
X-46630102Y12169795D01*
X-46755049Y11997820D01*
X-46851556Y11808414D01*
X-46851557Y11808412D01*
X-46916036Y11609966D01*
X-46917246Y11606243D01*
X-46950500Y11396287D01*
X-48775497Y11396287D01*
X-49462578Y12083369D01*
X-49357670Y12159588D01*
X-49179588Y12337670D01*
X-49103368Y12442578D01*
X-48278092Y11617302D01*
X-48147137Y11781513D01*
X-47982333Y12043797D01*
X-47982328Y12043806D01*
X-47847930Y12322887D01*
X-47847919Y12322914D01*
X-47745616Y12615279D01*
X-47676684Y12917287D01*
X-47642000Y13225113D01*
X-47642000Y13321549D01*
X-42128000Y13321549D01*
X-42128000Y13068452D01*
X-42088404Y12818454D01*
X-42010194Y12577747D01*
X-42010191Y12577741D01*
X-41895283Y12352221D01*
X-41822361Y12251852D01*
X-41822359Y12251852D01*
X-41122699Y12951512D01*
X-41096022Y12887110D01*
X-41024888Y12780649D01*
X-40934351Y12690112D01*
X-40827890Y12618978D01*
X-40763490Y12592302D01*
X-41463150Y11892643D01*
X-41463150Y11892641D01*
X-41362780Y11819718D01*
X-41137260Y11704810D01*
X-41137254Y11704807D01*
X-40896546Y11626597D01*
X-40896549Y11626597D01*
X-40646549Y11587000D01*
X-40393451Y11587000D01*
X-40143454Y11626597D01*
X-39902747Y11704807D01*
X-39902741Y11704810D01*
X-39677225Y11819716D01*
X-39576852Y11892642D01*
X-39576852Y11892643D01*
X-40276511Y12592302D01*
X-40212110Y12618978D01*
X-40105649Y12690112D01*
X-40015112Y12780649D01*
X-39943978Y12887110D01*
X-39917302Y12951511D01*
X-39217643Y12251852D01*
X-39217642Y12251852D01*
X-39144716Y12352225D01*
X-39138681Y12364069D01*
X-29350500Y12364069D01*
X-29350500Y12235931D01*
X-29325501Y12110256D01*
X-29276465Y11991873D01*
X-29205276Y11885331D01*
X-29114669Y11794724D01*
X-29008127Y11723535D01*
X-28889744Y11674499D01*
X-28764069Y11649500D01*
X-28764064Y11649500D01*
X-28635936Y11649500D01*
X-28635931Y11649500D01*
X-28510256Y11674499D01*
X-28391873Y11723535D01*
X-28285331Y11794724D01*
X-28194724Y11885331D01*
X-28194724Y11885332D01*
X-28192459Y11887596D01*
X-28130147Y11921621D01*
X-28103364Y11924500D01*
X-26396636Y11924500D01*
X-26328515Y11904498D01*
X-26307541Y11887596D01*
X-26305277Y11885332D01*
X-26305276Y11885331D01*
X-26214669Y11794724D01*
X-26108127Y11723535D01*
X-25989744Y11674499D01*
X-25864069Y11649500D01*
X-25864064Y11649500D01*
X-25735936Y11649500D01*
X-25735931Y11649500D01*
X-25610256Y11674499D01*
X-25491873Y11723535D01*
X-25385331Y11794724D01*
X-25294724Y11885331D01*
X-25223535Y11991873D01*
X-25174499Y12110256D01*
X-25149500Y12235931D01*
X-25149500Y12364069D01*
X-25174499Y12489744D01*
X-25223535Y12608127D01*
X-25294724Y12714669D01*
X-25385331Y12805276D01*
X-25491873Y12876465D01*
X-25610255Y12925501D01*
X-25652148Y12933834D01*
X-25735931Y12950500D01*
X-25864069Y12950500D01*
X-25905961Y12942167D01*
X-25989746Y12925501D01*
X-25989747Y12925500D01*
X-26059095Y12896775D01*
X-26086879Y12885266D01*
X-26108129Y12876464D01*
X-26214665Y12805279D01*
X-26214667Y12805278D01*
X-26307541Y12712404D01*
X-26369853Y12678379D01*
X-26396636Y12675500D01*
X-28103364Y12675500D01*
X-28171485Y12695502D01*
X-28192459Y12712404D01*
X-28226055Y12746000D01*
X-28285331Y12805276D01*
X-28391873Y12876465D01*
X-28510255Y12925501D01*
X-28552148Y12933834D01*
X-28635931Y12950500D01*
X-28764069Y12950500D01*
X-28805961Y12942167D01*
X-28889746Y12925501D01*
X-28889747Y12925500D01*
X-28959095Y12896775D01*
X-28986879Y12885266D01*
X-29008129Y12876464D01*
X-29114665Y12805279D01*
X-29114672Y12805274D01*
X-29205274Y12714672D01*
X-29205279Y12714665D01*
X-29276464Y12608129D01*
X-29325500Y12489747D01*
X-29325501Y12489746D01*
X-29325501Y12489744D01*
X-29350500Y12364069D01*
X-39138681Y12364069D01*
X-39106380Y12427462D01*
X-39029810Y12577741D01*
X-39029807Y12577747D01*
X-38951597Y12818454D01*
X-38912000Y13068452D01*
X-38912000Y13114737D01*
X-15750500Y13114737D01*
X-15750500Y12885264D01*
X-15720550Y12657769D01*
X-15707012Y12607246D01*
X-15661158Y12436113D01*
X-15573344Y12224112D01*
X-15573343Y12224111D01*
X-15573338Y12224100D01*
X-15458614Y12025392D01*
X-15458609Y12025385D01*
X-15318927Y11843348D01*
X-15318908Y11843327D01*
X-15156674Y11681093D01*
X-15156653Y11681074D01*
X-14974616Y11541392D01*
X-14974609Y11541387D01*
X-14775901Y11426663D01*
X-14775897Y11426662D01*
X-14775888Y11426656D01*
X-14563887Y11338842D01*
X-14342238Y11279452D01*
X-14342234Y11279452D01*
X-14342232Y11279451D01*
X-14283602Y11271733D01*
X-14114734Y11249500D01*
X-14114727Y11249500D01*
X-12885273Y11249500D01*
X-12885266Y11249500D01*
X-12679655Y11276570D01*
X-12657769Y11279451D01*
X-12657769Y11279452D01*
X-12657762Y11279452D01*
X-12436113Y11338842D01*
X-12224112Y11426656D01*
X-12025388Y11541389D01*
X-11843339Y11681081D01*
X-11681081Y11843339D01*
X-11541389Y12025388D01*
X-11426656Y12224112D01*
X-11338842Y12436113D01*
X-11279452Y12657762D01*
X-11258922Y12813702D01*
X-11230200Y12878628D01*
X-11170935Y12917720D01*
X-11099943Y12918565D01*
X-11039764Y12880895D01*
X-11009505Y12816670D01*
X-11008000Y12797255D01*
X-11008000Y12368387D01*
X-10973645Y12107425D01*
X-10905516Y11853165D01*
X-10804784Y11609977D01*
X-10804779Y11609966D01*
X-10673177Y11382025D01*
X-10512934Y11173193D01*
X-10512925Y11173182D01*
X-10326819Y10987076D01*
X-10326808Y10987067D01*
X-10117976Y10826824D01*
X-9890035Y10695222D01*
X-9890024Y10695217D01*
X-9646836Y10594485D01*
X-9392578Y10526357D01*
X-9392575Y10526356D01*
X-9254000Y10508113D01*
X-9254000Y11643827D01*
X-9231591Y11630889D01*
X-9078991Y11590000D01*
X-8921009Y11590000D01*
X-8768409Y11630889D01*
X-8746000Y11643827D01*
X-8746000Y10508113D01*
X-8607426Y10526356D01*
X-8607423Y10526357D01*
X-8353165Y10594485D01*
X-8109977Y10695217D01*
X-8109966Y10695222D01*
X-7882025Y10826824D01*
X-7673193Y10987067D01*
X-7673182Y10987076D01*
X-7487076Y11173182D01*
X-7487067Y11173193D01*
X-7326824Y11382025D01*
X-7195222Y11609966D01*
X-7195217Y11609977D01*
X-7094485Y11853165D01*
X-7026356Y12107425D01*
X-6992001Y12368387D01*
X-6992000Y12368396D01*
X-6992000Y12746000D01*
X-8400000Y12746000D01*
X-8400000Y13254000D01*
X-6992000Y13254000D01*
X-6992000Y13631604D01*
X-6992001Y13631614D01*
X-7026356Y13892576D01*
X-7094485Y14146836D01*
X-7195217Y14390024D01*
X-7195222Y14390035D01*
X-7326824Y14617976D01*
X-7487067Y14826808D01*
X-7487076Y14826819D01*
X-7673182Y15012925D01*
X-7673193Y15012934D01*
X-7882025Y15173177D01*
X-8109966Y15304779D01*
X-8109977Y15304784D01*
X-8353165Y15405516D01*
X-8607426Y15473645D01*
X-8746000Y15491889D01*
X-8746000Y14356174D01*
X-8768409Y14369111D01*
X-8921009Y14410000D01*
X-9078991Y14410000D01*
X-9231591Y14369111D01*
X-9254000Y14356174D01*
X-9254000Y15491888D01*
X-9254001Y15491889D01*
X-9392575Y15473645D01*
X-9646836Y15405516D01*
X-9890024Y15304784D01*
X-9890035Y15304779D01*
X-10117976Y15173177D01*
X-10326808Y15012934D01*
X-10326819Y15012925D01*
X-10512925Y14826819D01*
X-10512934Y14826808D01*
X-10673177Y14617976D01*
X-10804779Y14390035D01*
X-10804784Y14390024D01*
X-10905516Y14146836D01*
X-10973645Y13892576D01*
X-11008000Y13631614D01*
X-11008000Y13202746D01*
X-11028002Y13134625D01*
X-11081658Y13088132D01*
X-11151932Y13078028D01*
X-11216512Y13107522D01*
X-11254896Y13167248D01*
X-11258922Y13186300D01*
X-11279451Y13342231D01*
X-11279452Y13342232D01*
X-11279452Y13342238D01*
X-11338842Y13563887D01*
X-11426656Y13775888D01*
X-11426662Y13775897D01*
X-11426663Y13775901D01*
X-11541387Y13974609D01*
X-11541392Y13974616D01*
X-11681074Y14156653D01*
X-11681093Y14156674D01*
X-11843327Y14318908D01*
X-11843348Y14318927D01*
X-12025385Y14458609D01*
X-12025392Y14458614D01*
X-12224100Y14573338D01*
X-12224108Y14573342D01*
X-12224112Y14573344D01*
X-12436113Y14661158D01*
X-12641516Y14716195D01*
X-12657769Y14720550D01*
X-12885264Y14750500D01*
X-12885266Y14750500D01*
X-14114734Y14750500D01*
X-14114737Y14750500D01*
X-14342232Y14720550D01*
X-14563887Y14661158D01*
X-14775890Y14573343D01*
X-14775901Y14573338D01*
X-14974609Y14458614D01*
X-14974616Y14458609D01*
X-15156653Y14318927D01*
X-15156674Y14318908D01*
X-15318908Y14156674D01*
X-15318927Y14156653D01*
X-15458609Y13974616D01*
X-15458614Y13974609D01*
X-15573338Y13775901D01*
X-15573343Y13775890D01*
X-15573344Y13775888D01*
X-15588536Y13739211D01*
X-15661158Y13563887D01*
X-15720550Y13342232D01*
X-15750500Y13114737D01*
X-38912000Y13114737D01*
X-38912000Y13321549D01*
X-38951597Y13571547D01*
X-39029807Y13812254D01*
X-39029810Y13812260D01*
X-39144718Y14037780D01*
X-39217641Y14138150D01*
X-39217643Y14138150D01*
X-39917303Y13438491D01*
X-39943978Y13502890D01*
X-40015112Y13609351D01*
X-40105649Y13699888D01*
X-40212110Y13771022D01*
X-40276512Y13797699D01*
X-39576852Y14497359D01*
X-39576852Y14497361D01*
X-39677221Y14570283D01*
X-39902741Y14685191D01*
X-39902747Y14685194D01*
X-40143455Y14763404D01*
X-40143452Y14763404D01*
X-40393451Y14803000D01*
X-40646549Y14803000D01*
X-40896547Y14763404D01*
X-41137254Y14685194D01*
X-41137260Y14685191D01*
X-41362775Y14570286D01*
X-41362776Y14570285D01*
X-41463150Y14497360D01*
X-41463150Y14497359D01*
X-40763490Y13797699D01*
X-40827890Y13771022D01*
X-40934351Y13699888D01*
X-41024888Y13609351D01*
X-41096022Y13502890D01*
X-41122699Y13438490D01*
X-41822359Y14138150D01*
X-41822360Y14138150D01*
X-41895285Y14037776D01*
X-41895286Y14037775D01*
X-42010191Y13812260D01*
X-42010194Y13812254D01*
X-42088404Y13571547D01*
X-42128000Y13321549D01*
X-47642000Y13321549D01*
X-47642000Y13534888D01*
X-47676684Y13842714D01*
X-47745616Y14144722D01*
X-47837644Y14407723D01*
X-47837645Y14407725D01*
X-47847921Y14437092D01*
X-47847930Y14437114D01*
X-47982328Y14716195D01*
X-47982333Y14716204D01*
X-48147137Y14978488D01*
X-48278092Y15142699D01*
X-48278093Y15142699D01*
X-49103369Y14317424D01*
X-49179588Y14422330D01*
X-49357670Y14600412D01*
X-49462579Y14676633D01*
X-48637303Y15501909D01*
X-48637303Y15501910D01*
X-48801510Y15632861D01*
X-49063797Y15797668D01*
X-49063806Y15797673D01*
X-49342887Y15932071D01*
X-49342914Y15932082D01*
X-49635279Y16034385D01*
X-49873341Y16088721D01*
X-49937288Y16103317D01*
X-49937286Y16103317D01*
X-50245112Y16138000D01*
X-50554888Y16138000D01*
X-50862714Y16103317D01*
X-51164722Y16034385D01*
X-51457087Y15932082D01*
X-51457114Y15932071D01*
X-51736195Y15797673D01*
X-51736204Y15797668D01*
X-51998491Y15632861D01*
X-52162699Y15501911D01*
X-52162699Y15501909D01*
X-51337423Y14676633D01*
X-51442330Y14600412D01*
X-51620412Y14422330D01*
X-51696633Y14317423D01*
X-52521909Y15142699D01*
X-52521911Y15142699D01*
X-52652861Y14978491D01*
X-52817668Y14716204D01*
X-52817673Y14716195D01*
X-52952071Y14437114D01*
X-52952082Y14437087D01*
X-53054385Y14144722D01*
X-53123317Y13842714D01*
X-53158000Y13534888D01*
X-54000000Y13534888D01*
X-54000000Y16206611D01*
X-29900500Y16206611D01*
X-29900500Y16033389D01*
X-29873402Y15862299D01*
X-29819873Y15697555D01*
X-29819872Y15697552D01*
X-29819870Y15697548D01*
X-29741232Y15543212D01*
X-29639413Y15403070D01*
X-29516931Y15280588D01*
X-29516928Y15280586D01*
X-29376788Y15178768D01*
X-29222445Y15100127D01*
X-29057701Y15046598D01*
X-28886611Y15019500D01*
X-28886608Y15019500D01*
X-28713392Y15019500D01*
X-28713389Y15019500D01*
X-28542299Y15046598D01*
X-28377555Y15100127D01*
X-28223212Y15178768D01*
X-28083072Y15280586D01*
X-27960586Y15403072D01*
X-27858768Y15543212D01*
X-27780127Y15697555D01*
X-27726598Y15862299D01*
X-27699500Y16033389D01*
X-27699500Y16206611D01*
X-27726598Y16377701D01*
X-27780127Y16542445D01*
X-27858768Y16696788D01*
X-27960586Y16836928D01*
X-27960588Y16836931D01*
X-28083070Y16959413D01*
X-28223212Y17061232D01*
X-28377548Y17139870D01*
X-28377552Y17139872D01*
X-28377555Y17139873D01*
X-28542299Y17193402D01*
X-28713389Y17220500D01*
X-28886611Y17220500D01*
X-29057701Y17193402D01*
X-29057704Y17193402D01*
X-29057705Y17193401D01*
X-29086619Y17184006D01*
X-29222445Y17139873D01*
X-29222447Y17139873D01*
X-29222453Y17139870D01*
X-29376789Y17061232D01*
X-29516931Y16959413D01*
X-29639413Y16836931D01*
X-29741232Y16696789D01*
X-29819870Y16542453D01*
X-29819873Y16542447D01*
X-29819873Y16542445D01*
X-29873402Y16377701D01*
X-29900500Y16206611D01*
X-54000000Y16206611D01*
X-54000000Y17437819D01*
X-43538186Y17437819D01*
X-43538186Y17309681D01*
X-43513187Y17184006D01*
X-43464151Y17065623D01*
X-43392962Y16959081D01*
X-43302355Y16868474D01*
X-43195813Y16797285D01*
X-43077430Y16748249D01*
X-42951755Y16723250D01*
X-42951750Y16723250D01*
X-42823622Y16723250D01*
X-42823617Y16723250D01*
X-42697942Y16748249D01*
X-42579559Y16797285D01*
X-42473017Y16868474D01*
X-42382410Y16959081D01*
X-42311221Y17065623D01*
X-42262185Y17184006D01*
X-42237186Y17309681D01*
X-42237186Y17437819D01*
X-42237186Y17441023D01*
X-42228402Y17470940D01*
X-42221774Y17501408D01*
X-42217960Y17506504D01*
X-42217184Y17509144D01*
X-42200286Y17530114D01*
X-42187213Y17543186D01*
X-42187214Y17543186D01*
X-41592802Y18137596D01*
X-41530490Y18171621D01*
X-41503707Y18174500D01*
X-35786636Y18174500D01*
X-35718515Y18154498D01*
X-35697541Y18137596D01*
X-35695277Y18135332D01*
X-35695276Y18135331D01*
X-35604669Y18044724D01*
X-35498127Y17973535D01*
X-35379744Y17924499D01*
X-35254069Y17899500D01*
X-35254064Y17899500D01*
X-35125936Y17899500D01*
X-35125931Y17899500D01*
X-35000256Y17924499D01*
X-34881873Y17973535D01*
X-34775331Y18044724D01*
X-34684724Y18135331D01*
X-34613535Y18241873D01*
X-34564499Y18360256D01*
X-34539500Y18485931D01*
X-34539500Y18614069D01*
X-34564499Y18739744D01*
X-34613535Y18858127D01*
X-34684724Y18964669D01*
X-34775331Y19055276D01*
X-34881873Y19126465D01*
X-35000255Y19175501D01*
X-35042148Y19183834D01*
X-35125931Y19200500D01*
X-35254069Y19200500D01*
X-35295961Y19192167D01*
X-35379746Y19175501D01*
X-35379747Y19175500D01*
X-35498129Y19126464D01*
X-35604665Y19055279D01*
X-35604667Y19055278D01*
X-35697541Y18962404D01*
X-35759853Y18928379D01*
X-35786636Y18925500D01*
X-41662000Y18925500D01*
X-41760872Y18925500D01*
X-41819323Y18909839D01*
X-41856378Y18899910D01*
X-41941996Y18850478D01*
X-41942002Y18850473D01*
X-42718249Y18074224D01*
X-42718250Y18074224D01*
X-42731319Y18061155D01*
X-42793631Y18027129D01*
X-42820414Y18024250D01*
X-42823617Y18024250D01*
X-42951755Y18024250D01*
X-42993647Y18015917D01*
X-43077432Y17999251D01*
X-43077433Y17999250D01*
X-43195815Y17950214D01*
X-43302351Y17879029D01*
X-43302358Y17879024D01*
X-43392960Y17788422D01*
X-43392965Y17788415D01*
X-43464150Y17681879D01*
X-43513186Y17563497D01*
X-43513187Y17563496D01*
X-43517227Y17543186D01*
X-43538186Y17437819D01*
X-54000000Y17437819D01*
X-54000000Y20147509D01*
X-50050500Y20147509D01*
X-50050500Y19852492D01*
X-50011995Y19560015D01*
X-50011994Y19560009D01*
X-50011993Y19560007D01*
X-49935639Y19275048D01*
X-49822743Y19002493D01*
X-49822742Y19002492D01*
X-49822737Y19002481D01*
X-49675241Y18747010D01*
X-49675236Y18747003D01*
X-49495654Y18512967D01*
X-49495635Y18512946D01*
X-49287055Y18304366D01*
X-49287034Y18304347D01*
X-49052998Y18124765D01*
X-49052991Y18124760D01*
X-48797520Y17977264D01*
X-48797516Y17977263D01*
X-48797507Y17977257D01*
X-48524952Y17864361D01*
X-48239993Y17788007D01*
X-48239987Y17788007D01*
X-48239986Y17788006D01*
X-48206426Y17783588D01*
X-47947506Y17749500D01*
X-47947499Y17749500D01*
X-47652501Y17749500D01*
X-47652494Y17749500D01*
X-47360007Y17788007D01*
X-47075048Y17864361D01*
X-46802493Y17977257D01*
X-46547006Y18124762D01*
X-46312958Y18304354D01*
X-46104354Y18512958D01*
X-45924762Y18747006D01*
X-45777257Y19002493D01*
X-45664361Y19275048D01*
X-45588007Y19560007D01*
X-45549500Y19852494D01*
X-45549500Y20147506D01*
X-45588007Y20439993D01*
X-45664361Y20724952D01*
X-45777257Y20997507D01*
X-45777263Y20997516D01*
X-45777264Y20997520D01*
X-45924760Y21252991D01*
X-45924765Y21252998D01*
X-46104347Y21487034D01*
X-46104366Y21487055D01*
X-46312946Y21695635D01*
X-46312967Y21695654D01*
X-46547003Y21875236D01*
X-46547010Y21875241D01*
X-46802481Y22022737D01*
X-46802489Y22022741D01*
X-46802493Y22022743D01*
X-47075048Y22135639D01*
X-47360007Y22211993D01*
X-47360009Y22211994D01*
X-47360015Y22211995D01*
X-47652492Y22250500D01*
X-47652494Y22250500D01*
X-47947506Y22250500D01*
X-47947509Y22250500D01*
X-48239986Y22211995D01*
X-48406548Y22167365D01*
X-48524952Y22135639D01*
X-48778299Y22030699D01*
X-48797509Y22022742D01*
X-48797520Y22022737D01*
X-49052991Y21875241D01*
X-49052998Y21875236D01*
X-49287034Y21695654D01*
X-49287055Y21695635D01*
X-49495635Y21487055D01*
X-49495654Y21487034D01*
X-49675236Y21252998D01*
X-49675241Y21252991D01*
X-49822737Y20997520D01*
X-49822742Y20997509D01*
X-49935639Y20724952D01*
X-50011995Y20439986D01*
X-50050500Y20147509D01*
X-54000000Y20147509D01*
X-54000000Y21890000D01*
X-54000000Y22780000D01*
X-53746000Y22780000D01*
X-53746000Y22022000D01*
X-53595796Y22022000D01*
X-53595793Y22022001D01*
X-53391393Y22062660D01*
X-53391390Y22062661D01*
X-53198849Y22142414D01*
X-53025569Y22258196D01*
X-53025562Y22258201D01*
X-52878201Y22405562D01*
X-52878196Y22405569D01*
X-52762414Y22578849D01*
X-52682662Y22771388D01*
X-52682660Y22771393D01*
X-52671797Y22826000D01*
X-53539940Y22826000D01*
X-53515795Y22839940D01*
X-53459940Y22895795D01*
X-53420444Y22964204D01*
X-53400000Y23040504D01*
X-53400000Y23119496D01*
X-53420444Y23195796D01*
X-53459940Y23264205D01*
X-53515795Y23320060D01*
X-53539940Y23334000D01*
X-52671798Y23334000D01*
X-51528203Y23334000D01*
X-50660060Y23334000D01*
X-50684205Y23320060D01*
X-50740060Y23264205D01*
X-50779556Y23195796D01*
X-50800000Y23119496D01*
X-50800000Y23040504D01*
X-50779556Y22964204D01*
X-50740060Y22895795D01*
X-50684205Y22839940D01*
X-50660060Y22826000D01*
X-51528203Y22826000D01*
X-51517341Y22771393D01*
X-51517339Y22771388D01*
X-51437587Y22578849D01*
X-51321805Y22405569D01*
X-51321800Y22405562D01*
X-51174439Y22258201D01*
X-51174432Y22258196D01*
X-51001152Y22142414D01*
X-50808611Y22062661D01*
X-50808608Y22062660D01*
X-50604208Y22022001D01*
X-50604204Y22022000D01*
X-50454000Y22022000D01*
X-50454000Y22780000D01*
X-49946000Y22780000D01*
X-49946000Y22022000D01*
X-49795796Y22022000D01*
X-49795793Y22022001D01*
X-49591393Y22062660D01*
X-49591390Y22062661D01*
X-49398849Y22142414D01*
X-49225569Y22258196D01*
X-49225562Y22258201D01*
X-49219695Y22264068D01*
X-39650500Y22264068D01*
X-39650500Y22135933D01*
X-39629568Y22030699D01*
X-39625501Y22010256D01*
X-39576465Y21891873D01*
X-39505276Y21785331D01*
X-39414669Y21694724D01*
X-39308127Y21623535D01*
X-39189744Y21574499D01*
X-39064069Y21549500D01*
X-39064064Y21549500D01*
X-38935936Y21549500D01*
X-38935931Y21549500D01*
X-38810256Y21574499D01*
X-38691873Y21623535D01*
X-38585331Y21694724D01*
X-38494724Y21785331D01*
X-38494724Y21785332D01*
X-38492459Y21787596D01*
X-38430147Y21821621D01*
X-38403364Y21824500D01*
X-35207727Y21824500D01*
X-35139606Y21804498D01*
X-35118632Y21787595D01*
X-32487405Y19156368D01*
X-32453379Y19094056D01*
X-32450500Y19067273D01*
X-32450500Y19064069D01*
X-32450500Y18935931D01*
X-32425501Y18810256D01*
X-32376465Y18691873D01*
X-32305276Y18585331D01*
X-32214669Y18494724D01*
X-32108127Y18423535D01*
X-31989744Y18374499D01*
X-31864069Y18349500D01*
X-31864064Y18349500D01*
X-31735936Y18349500D01*
X-31735931Y18349500D01*
X-31610256Y18374499D01*
X-31491873Y18423535D01*
X-31385331Y18494724D01*
X-31294724Y18585331D01*
X-31223535Y18691873D01*
X-31200862Y18746611D01*
X-29900500Y18746611D01*
X-29900500Y18573389D01*
X-29873402Y18402299D01*
X-29819873Y18237555D01*
X-29819872Y18237552D01*
X-29819870Y18237548D01*
X-29741232Y18083212D01*
X-29639413Y17943070D01*
X-29516931Y17820588D01*
X-29516928Y17820586D01*
X-29376788Y17718768D01*
X-29222445Y17640127D01*
X-29057701Y17586598D01*
X-28886611Y17559500D01*
X-28886608Y17559500D01*
X-28713392Y17559500D01*
X-28713389Y17559500D01*
X-28542299Y17586598D01*
X-28377555Y17640127D01*
X-28223212Y17718768D01*
X-28083072Y17820586D01*
X-27960586Y17943072D01*
X-27858768Y18083212D01*
X-27780127Y18237555D01*
X-27726598Y18402299D01*
X-27699500Y18573389D01*
X-27699500Y18746611D01*
X-27726598Y18917701D01*
X-27780127Y19082445D01*
X-27858768Y19236788D01*
X-27960586Y19376928D01*
X-27960588Y19376931D01*
X-28083070Y19499413D01*
X-28223212Y19601232D01*
X-28377548Y19679870D01*
X-28377552Y19679872D01*
X-28377555Y19679873D01*
X-28542299Y19733402D01*
X-28713389Y19760500D01*
X-28886611Y19760500D01*
X-29057701Y19733402D01*
X-29057704Y19733402D01*
X-29057705Y19733401D01*
X-29136747Y19707719D01*
X-29222445Y19679873D01*
X-29222447Y19679873D01*
X-29222453Y19679870D01*
X-29376789Y19601232D01*
X-29516931Y19499413D01*
X-29639413Y19376931D01*
X-29741232Y19236789D01*
X-29819870Y19082453D01*
X-29819873Y19082447D01*
X-29819873Y19082445D01*
X-29845855Y19002481D01*
X-29869932Y18928379D01*
X-29873402Y18917701D01*
X-29900500Y18746611D01*
X-31200862Y18746611D01*
X-31178838Y18799782D01*
X-31178836Y18799784D01*
X-31174503Y18810245D01*
X-31174500Y18810254D01*
X-31174499Y18810256D01*
X-31149500Y18935931D01*
X-31149500Y19064069D01*
X-31174499Y19189744D01*
X-31223535Y19308127D01*
X-31294724Y19414669D01*
X-31385331Y19505276D01*
X-31491873Y19576465D01*
X-31610255Y19625501D01*
X-31652148Y19633834D01*
X-31735931Y19650500D01*
X-31864069Y19650500D01*
X-31867273Y19650500D01*
X-31935394Y19670502D01*
X-31956368Y19687405D01*
X-34343641Y22074678D01*
X-29900500Y22074678D01*
X-29900500Y20325323D01*
X-29885967Y20252261D01*
X-29885966Y20252260D01*
X-29830601Y20169399D01*
X-29747740Y20114034D01*
X-29674674Y20099500D01*
X-27925326Y20099500D01*
X-27852260Y20114034D01*
X-27769399Y20169399D01*
X-27714034Y20252260D01*
X-27699500Y20325326D01*
X-27699500Y20598417D01*
X-14450500Y20598417D01*
X-14450500Y20401583D01*
X-14419709Y20207174D01*
X-14358884Y20019975D01*
X-14269524Y19844595D01*
X-14269522Y19844592D01*
X-14153827Y19685352D01*
X-14014649Y19546174D01*
X-13950288Y19499413D01*
X-13855405Y19430476D01*
X-13680025Y19341116D01*
X-13492826Y19280291D01*
X-13298417Y19249500D01*
X-13298414Y19249500D01*
X-13101586Y19249500D01*
X-13101583Y19249500D01*
X-12907174Y19280291D01*
X-12719975Y19341116D01*
X-12544595Y19430476D01*
X-12385354Y19546172D01*
X-12246172Y19685354D01*
X-12130476Y19844595D01*
X-12041116Y20019975D01*
X-11980291Y20207174D01*
X-11949500Y20401583D01*
X-11949500Y20598417D01*
X-11980291Y20792826D01*
X-12041116Y20980025D01*
X-12130476Y21155405D01*
X-12246172Y21314646D01*
X-12246174Y21314649D01*
X-12385352Y21453827D01*
X-12544592Y21569522D01*
X-12544593Y21569523D01*
X-12544595Y21569524D01*
X-12719975Y21658884D01*
X-12907174Y21719709D01*
X-13101583Y21750500D01*
X-13298417Y21750500D01*
X-13492826Y21719709D01*
X-13492829Y21719709D01*
X-13492830Y21719708D01*
X-13569725Y21694723D01*
X-13680025Y21658884D01*
X-13680027Y21658884D01*
X-13680027Y21658883D01*
X-13855409Y21569522D01*
X-14014649Y21453827D01*
X-14153827Y21314649D01*
X-14269522Y21155409D01*
X-14269524Y21155405D01*
X-14358884Y20980025D01*
X-14419709Y20792826D01*
X-14450500Y20598417D01*
X-27699500Y20598417D01*
X-27699500Y22074674D01*
X-27714034Y22147740D01*
X-27769399Y22230601D01*
X-27852260Y22285966D01*
X-27852261Y22285967D01*
X-27925323Y22300500D01*
X-27925326Y22300500D01*
X-29674674Y22300500D01*
X-29674678Y22300500D01*
X-29747740Y22285967D01*
X-29830601Y22230601D01*
X-29885967Y22147740D01*
X-29900500Y22074678D01*
X-34343641Y22074678D01*
X-34754961Y22485998D01*
X-34769437Y22500474D01*
X-34769438Y22500475D01*
X-34855062Y22549910D01*
X-34902814Y22562705D01*
X-34915116Y22566002D01*
X-34915121Y22566004D01*
X-34950561Y22575500D01*
X-34950564Y22575500D01*
X-34950565Y22575500D01*
X-38403364Y22575500D01*
X-38471485Y22595502D01*
X-38492459Y22612404D01*
X-38501070Y22621015D01*
X-38585331Y22705276D01*
X-38691873Y22776465D01*
X-38810255Y22825501D01*
X-38882844Y22839940D01*
X-38935931Y22850500D01*
X-39064069Y22850500D01*
X-39105961Y22842167D01*
X-39189746Y22825501D01*
X-39189747Y22825500D01*
X-39250237Y22800444D01*
X-39299592Y22780000D01*
X-39308129Y22776464D01*
X-39414665Y22705279D01*
X-39414672Y22705274D01*
X-39505274Y22614672D01*
X-39505279Y22614665D01*
X-39539997Y22562705D01*
X-39576465Y22508127D01*
X-39579635Y22500474D01*
X-39625500Y22389747D01*
X-39625501Y22389746D01*
X-39650500Y22264068D01*
X-49219695Y22264068D01*
X-49078201Y22405562D01*
X-49078196Y22405569D01*
X-48962414Y22578849D01*
X-48882662Y22771388D01*
X-48882660Y22771393D01*
X-48871797Y22826000D01*
X-49739940Y22826000D01*
X-49715795Y22839940D01*
X-49659940Y22895795D01*
X-49620444Y22964204D01*
X-49600000Y23040504D01*
X-49600000Y23119496D01*
X-49620444Y23195796D01*
X-49659940Y23264205D01*
X-49715795Y23320060D01*
X-49739940Y23334000D01*
X-48871798Y23334000D01*
X-48882660Y23388608D01*
X-48882662Y23388613D01*
X-48962414Y23581152D01*
X-49078196Y23754432D01*
X-49078201Y23754439D01*
X-49225562Y23901800D01*
X-49225569Y23901805D01*
X-49398849Y24017587D01*
X-49591390Y24097340D01*
X-49591393Y24097341D01*
X-49795793Y24138000D01*
X-49946000Y24138000D01*
X-49946000Y23380000D01*
X-50454000Y23380000D01*
X-50454000Y24138000D01*
X-50604208Y24138000D01*
X-50808608Y24097341D01*
X-50808611Y24097340D01*
X-51001152Y24017587D01*
X-51174432Y23901805D01*
X-51174439Y23901800D01*
X-51321800Y23754439D01*
X-51321805Y23754432D01*
X-51437587Y23581152D01*
X-51517339Y23388613D01*
X-51517341Y23388608D01*
X-51528203Y23334000D01*
X-52671798Y23334000D01*
X-52682660Y23388608D01*
X-52682662Y23388613D01*
X-52762414Y23581152D01*
X-52878196Y23754432D01*
X-52878201Y23754439D01*
X-53025562Y23901800D01*
X-53025569Y23901805D01*
X-53198849Y24017587D01*
X-53391390Y24097340D01*
X-53391393Y24097341D01*
X-53595793Y24138000D01*
X-53746000Y24138000D01*
X-53746000Y23380000D01*
X-54000000Y23380000D01*
X-54000000Y28114737D01*
X-15750500Y28114737D01*
X-15750500Y27885264D01*
X-15720550Y27657769D01*
X-15720548Y27657762D01*
X-15661158Y27436113D01*
X-15573344Y27224112D01*
X-15573343Y27224111D01*
X-15573338Y27224100D01*
X-15458614Y27025392D01*
X-15458609Y27025385D01*
X-15318927Y26843348D01*
X-15318908Y26843327D01*
X-15156674Y26681093D01*
X-15156653Y26681074D01*
X-14974616Y26541392D01*
X-14974609Y26541387D01*
X-14775901Y26426663D01*
X-14775897Y26426662D01*
X-14775888Y26426656D01*
X-14563887Y26338842D01*
X-14342238Y26279452D01*
X-14342234Y26279452D01*
X-14342232Y26279451D01*
X-14283602Y26271733D01*
X-14114734Y26249500D01*
X-14114727Y26249500D01*
X-12885273Y26249500D01*
X-12885266Y26249500D01*
X-12679655Y26276570D01*
X-12657769Y26279451D01*
X-12657769Y26279452D01*
X-12657762Y26279452D01*
X-12436113Y26338842D01*
X-12224112Y26426656D01*
X-12025388Y26541389D01*
X-11843339Y26681081D01*
X-11681081Y26843339D01*
X-11541389Y27025388D01*
X-11426656Y27224112D01*
X-11338842Y27436113D01*
X-11279452Y27657762D01*
X-11258922Y27813702D01*
X-11230200Y27878628D01*
X-11170935Y27917720D01*
X-11099943Y27918565D01*
X-11039764Y27880895D01*
X-11009505Y27816670D01*
X-11008000Y27797255D01*
X-11008000Y27368387D01*
X-10973645Y27107425D01*
X-10905516Y26853165D01*
X-10804784Y26609977D01*
X-10804779Y26609966D01*
X-10673177Y26382025D01*
X-10512934Y26173193D01*
X-10512925Y26173182D01*
X-10326819Y25987076D01*
X-10326808Y25987067D01*
X-10117976Y25826824D01*
X-9890035Y25695222D01*
X-9890024Y25695217D01*
X-9646836Y25594485D01*
X-9392578Y25526357D01*
X-9392575Y25526356D01*
X-9254000Y25508113D01*
X-9254000Y26643827D01*
X-9231591Y26630889D01*
X-9078991Y26590000D01*
X-8921009Y26590000D01*
X-8768409Y26630889D01*
X-8746000Y26643827D01*
X-8746000Y25508113D01*
X-8607426Y25526356D01*
X-8607423Y25526357D01*
X-8353165Y25594485D01*
X-8109977Y25695217D01*
X-8109966Y25695222D01*
X-7882025Y25826824D01*
X-7673193Y25987067D01*
X-7673182Y25987076D01*
X-7487076Y26173182D01*
X-7487067Y26173193D01*
X-7326824Y26382025D01*
X-7195222Y26609966D01*
X-7195217Y26609977D01*
X-7094485Y26853165D01*
X-7026356Y27107425D01*
X-6992001Y27368387D01*
X-6992000Y27368396D01*
X-6992000Y27746000D01*
X-8400000Y27746000D01*
X-8400000Y28254000D01*
X-6992000Y28254000D01*
X-6992000Y28631604D01*
X-6992001Y28631614D01*
X-7026356Y28892576D01*
X-7094485Y29146836D01*
X-7195217Y29390024D01*
X-7195222Y29390035D01*
X-7326824Y29617976D01*
X-7487067Y29826808D01*
X-7487076Y29826819D01*
X-7673182Y30012925D01*
X-7673193Y30012934D01*
X-7882025Y30173177D01*
X-8109966Y30304779D01*
X-8109977Y30304784D01*
X-8353165Y30405516D01*
X-8607426Y30473645D01*
X-8746000Y30491889D01*
X-8746000Y29356174D01*
X-8768409Y29369111D01*
X-8921009Y29410000D01*
X-9078991Y29410000D01*
X-9231591Y29369111D01*
X-9254000Y29356174D01*
X-9254000Y30491888D01*
X-9254001Y30491889D01*
X-9392575Y30473645D01*
X-9646836Y30405516D01*
X-9890024Y30304784D01*
X-9890035Y30304779D01*
X-10117976Y30173177D01*
X-10326808Y30012934D01*
X-10326819Y30012925D01*
X-10512925Y29826819D01*
X-10512934Y29826808D01*
X-10673177Y29617976D01*
X-10804779Y29390035D01*
X-10804784Y29390024D01*
X-10905516Y29146836D01*
X-10973645Y28892576D01*
X-11008000Y28631614D01*
X-11008000Y28202746D01*
X-11028002Y28134625D01*
X-11081658Y28088132D01*
X-11151932Y28078028D01*
X-11216512Y28107522D01*
X-11254896Y28167248D01*
X-11258922Y28186300D01*
X-11279451Y28342231D01*
X-11279452Y28342232D01*
X-11279452Y28342238D01*
X-11338842Y28563887D01*
X-11426656Y28775888D01*
X-11426662Y28775897D01*
X-11426663Y28775901D01*
X-11541387Y28974609D01*
X-11541392Y28974616D01*
X-11681074Y29156653D01*
X-11681093Y29156674D01*
X-11843327Y29318908D01*
X-11843348Y29318927D01*
X-12025385Y29458609D01*
X-12025392Y29458614D01*
X-12224100Y29573338D01*
X-12224108Y29573342D01*
X-12224112Y29573344D01*
X-12436113Y29661158D01*
X-12657762Y29720548D01*
X-12657769Y29720550D01*
X-12885264Y29750500D01*
X-12885266Y29750500D01*
X-14114734Y29750500D01*
X-14114737Y29750500D01*
X-14342232Y29720550D01*
X-14563887Y29661158D01*
X-14775890Y29573343D01*
X-14775901Y29573338D01*
X-14974609Y29458614D01*
X-14974616Y29458609D01*
X-15156653Y29318927D01*
X-15156674Y29318908D01*
X-15318908Y29156674D01*
X-15318927Y29156653D01*
X-15458609Y28974616D01*
X-15458614Y28974609D01*
X-15573338Y28775901D01*
X-15573343Y28775890D01*
X-15661158Y28563887D01*
X-15720550Y28342232D01*
X-15750500Y28114737D01*
X-54000000Y28114737D01*
X-54000000Y31420000D01*
X-53746000Y31420000D01*
X-53746000Y30662000D01*
X-53595796Y30662000D01*
X-53595793Y30662001D01*
X-53391393Y30702660D01*
X-53391390Y30702661D01*
X-53198849Y30782414D01*
X-53025569Y30898196D01*
X-53025562Y30898201D01*
X-52878201Y31045562D01*
X-52878196Y31045569D01*
X-52762414Y31218849D01*
X-52682662Y31411388D01*
X-52682660Y31411393D01*
X-52671797Y31466000D01*
X-53539940Y31466000D01*
X-53515795Y31479940D01*
X-53459940Y31535795D01*
X-53420444Y31604204D01*
X-53400000Y31680504D01*
X-53400000Y31759496D01*
X-53420444Y31835796D01*
X-53459940Y31904205D01*
X-53515795Y31960060D01*
X-53539940Y31974000D01*
X-52671798Y31974000D01*
X-51528203Y31974000D01*
X-50660060Y31974000D01*
X-50684205Y31960060D01*
X-50740060Y31904205D01*
X-50779556Y31835796D01*
X-50800000Y31759496D01*
X-50800000Y31680504D01*
X-50779556Y31604204D01*
X-50740060Y31535795D01*
X-50684205Y31479940D01*
X-50660060Y31466000D01*
X-51528203Y31466000D01*
X-51517341Y31411393D01*
X-51517339Y31411388D01*
X-51437587Y31218849D01*
X-51321805Y31045569D01*
X-51321800Y31045562D01*
X-51174439Y30898201D01*
X-51174432Y30898196D01*
X-51001152Y30782414D01*
X-50808611Y30702661D01*
X-50808608Y30702660D01*
X-50604208Y30662001D01*
X-50604204Y30662000D01*
X-50454000Y30662000D01*
X-50454000Y31420000D01*
X-49946000Y31420000D01*
X-49946000Y30662000D01*
X-49795796Y30662000D01*
X-49795793Y30662001D01*
X-49591393Y30702660D01*
X-49591390Y30702661D01*
X-49398849Y30782414D01*
X-49225569Y30898196D01*
X-49225562Y30898201D01*
X-49078201Y31045562D01*
X-49078196Y31045569D01*
X-48962414Y31218849D01*
X-48882662Y31411388D01*
X-48882660Y31411393D01*
X-48871797Y31466000D01*
X-49739940Y31466000D01*
X-49715795Y31479940D01*
X-49659940Y31535795D01*
X-49620444Y31604204D01*
X-49600000Y31680504D01*
X-49600000Y31759496D01*
X-49620444Y31835796D01*
X-49659940Y31904205D01*
X-49715795Y31960060D01*
X-49739940Y31974000D01*
X-48871798Y31974000D01*
X-48882660Y32028608D01*
X-48882662Y32028613D01*
X-48962414Y32221152D01*
X-49078196Y32394432D01*
X-49078201Y32394439D01*
X-49225562Y32541800D01*
X-49225569Y32541805D01*
X-49398849Y32657587D01*
X-49591390Y32737340D01*
X-49591393Y32737341D01*
X-49795793Y32778000D01*
X-49946000Y32778000D01*
X-49946000Y32020000D01*
X-50454000Y32020000D01*
X-50454000Y32778000D01*
X-50604208Y32778000D01*
X-50808608Y32737341D01*
X-50808611Y32737340D01*
X-51001152Y32657587D01*
X-51174432Y32541805D01*
X-51174439Y32541800D01*
X-51321800Y32394439D01*
X-51321805Y32394432D01*
X-51437587Y32221152D01*
X-51517339Y32028613D01*
X-51517341Y32028608D01*
X-51528203Y31974000D01*
X-52671798Y31974000D01*
X-52682660Y32028608D01*
X-52682662Y32028613D01*
X-52762414Y32221152D01*
X-52878196Y32394432D01*
X-52878201Y32394439D01*
X-53025562Y32541800D01*
X-53025569Y32541805D01*
X-53198849Y32657587D01*
X-53391390Y32737340D01*
X-53391393Y32737341D01*
X-53595793Y32778000D01*
X-53746000Y32778000D01*
X-53746000Y32020000D01*
X-54000000Y32020000D01*
X-54000000Y33447810D01*
X-53979998Y33515931D01*
X-53963095Y33536905D01*
X-53536905Y33963095D01*
X-53474593Y33997121D01*
X-53447810Y34000000D01*
X-10226218Y34000000D01*
X-10158097Y33979998D01*
G37*
%TD.AperFunction*%
%TD*%
M02*
